G04 Layer_Physical_Order=2*
G04 Layer_Color=11436288*
%FSLAX25Y25*%
%MOIN*%
G70*
G01*
G75*
%ADD24C,0.01000*%
%ADD25C,0.03000*%
%ADD28C,0.08000*%
%ADD29C,0.05118*%
%ADD30R,0.05118X0.05118*%
%ADD31C,0.25984*%
%ADD32C,0.06000*%
%ADD33R,0.06000X0.06000*%
%ADD34R,0.04724X0.04724*%
%ADD35C,0.04724*%
%ADD36O,0.03937X0.02953*%
%ADD37C,0.02000*%
D24*
X293000Y145000D02*
Y157000D01*
X300114Y82500D02*
X300123Y82492D01*
X300106Y92492D02*
X318106D01*
X347106Y97492D02*
X349615Y100000D01*
X360000D01*
X300106Y102492D02*
X318106D01*
X325615Y110000D01*
X360000D01*
X353614Y80000D02*
X360000D01*
X351115Y77500D02*
X353614Y80000D01*
X350615Y90000D02*
X360000D01*
X318106Y92492D02*
X323106Y97492D01*
X347106D01*
X343106Y82492D02*
X350615Y90000D01*
X341098Y77500D02*
X351115D01*
X300123Y82492D02*
X343106D01*
X345615Y70000D02*
X360000D01*
X340106Y64492D02*
X345615Y70000D01*
X322106Y64492D02*
X340106D01*
X253000Y391000D02*
X296000D01*
X250000Y388000D02*
X253000Y391000D01*
X250000Y380000D02*
Y388000D01*
X280000Y340000D02*
Y349000D01*
X274000Y355000D02*
X280000Y349000D01*
X261000Y355000D02*
X274000D01*
X255000Y361000D02*
X261000Y355000D01*
X255000Y361000D02*
Y375000D01*
X260000Y380000D01*
X170000Y340000D02*
X200000Y370000D01*
X250000D01*
X102000Y240000D02*
X140000D01*
X96000Y246000D02*
X102000Y240000D01*
X75000Y378000D02*
Y393000D01*
X296000Y391000D02*
X300000Y387000D01*
X296000Y335000D02*
Y374000D01*
X290000Y380000D02*
X296000Y374000D01*
D25*
X98000Y317000D02*
X101000Y320000D01*
X122000D01*
X136000Y334000D01*
X131000D02*
X136000D01*
X119063Y345937D02*
X131000Y334000D01*
X106000Y345937D02*
X119063D01*
X106000Y366000D02*
X131000Y391000D01*
X106000Y345937D02*
Y366000D01*
X131000Y391000D02*
Y419000D01*
X130000Y420000D02*
X131000Y419000D01*
X110000Y420000D02*
X111000D01*
X280000Y170000D02*
X293000Y157000D01*
X310000Y140000D01*
X320000D01*
X330000D01*
X340000D01*
X350000D01*
X360000D01*
X370000D01*
X380000D01*
X390000D01*
X400000D01*
X410000D01*
X420000D01*
D28*
X688000Y269000D02*
D03*
Y279000D02*
D03*
Y289000D02*
D03*
Y299000D02*
D03*
X798000Y189000D02*
D03*
X788000D02*
D03*
X738000D02*
D03*
X728000D02*
D03*
X898000Y259000D02*
D03*
Y269000D02*
D03*
Y279000D02*
D03*
Y289000D02*
D03*
X818000Y399000D02*
D03*
X848000D02*
D03*
X838000D02*
D03*
X828000D02*
D03*
X90000Y420000D02*
D03*
Y50000D02*
D03*
X170000D02*
D03*
Y60000D02*
D03*
X120000D02*
D03*
X110000D02*
D03*
X170000Y160000D02*
D03*
X160000D02*
D03*
X150000D02*
D03*
X140000D02*
D03*
X130000D02*
D03*
X120000D02*
D03*
X110000D02*
D03*
X160000Y50000D02*
D03*
Y60000D02*
D03*
X150000Y50000D02*
D03*
Y60000D02*
D03*
X140000Y50000D02*
D03*
Y60000D02*
D03*
X130000Y50000D02*
D03*
Y60000D02*
D03*
X120000Y50000D02*
D03*
X110000D02*
D03*
X260000Y60000D02*
D03*
Y70000D02*
D03*
Y80000D02*
D03*
Y90000D02*
D03*
Y100000D02*
D03*
Y110000D02*
D03*
X360000Y60000D02*
D03*
Y70000D02*
D03*
Y80000D02*
D03*
Y90000D02*
D03*
Y100000D02*
D03*
Y110000D02*
D03*
X688000Y309000D02*
D03*
X868000Y189000D02*
D03*
X768000D02*
D03*
X748000D02*
D03*
X718000D02*
D03*
X898000Y249000D02*
D03*
X688000Y219000D02*
D03*
Y229000D02*
D03*
Y319000D02*
D03*
Y329000D02*
D03*
Y339000D02*
D03*
Y359000D02*
D03*
X728000Y399000D02*
D03*
X758000D02*
D03*
X898000Y219000D02*
D03*
X898000Y229000D02*
D03*
Y239000D02*
D03*
X688000Y349000D02*
D03*
X898000Y299000D02*
D03*
X798000Y399000D02*
D03*
X898000Y309000D02*
D03*
X898000Y319000D02*
D03*
X898000Y329000D02*
D03*
Y339000D02*
D03*
X898000Y349000D02*
D03*
X868000Y399000D02*
D03*
X858000D02*
D03*
X808000Y399000D02*
D03*
X788000D02*
D03*
X778000Y399000D02*
D03*
X768000Y399000D02*
D03*
X748000D02*
D03*
X738000Y399000D02*
D03*
X898000Y359000D02*
D03*
X848016Y189000D02*
D03*
X838000D02*
D03*
X828000D02*
D03*
X818000D02*
D03*
X808000D02*
D03*
X778000D02*
D03*
X718000Y399000D02*
D03*
X758000Y189000D02*
D03*
X688000Y369000D02*
D03*
Y249000D02*
D03*
X858000Y189000D02*
D03*
X898000Y369000D02*
D03*
X688000Y259000D02*
D03*
Y239000D02*
D03*
X130000Y420000D02*
D03*
X110000D02*
D03*
X330000Y370000D02*
D03*
X340000D02*
D03*
X360000D02*
D03*
X350000D02*
D03*
X390000D02*
D03*
X380000D02*
D03*
X370000D02*
D03*
X400000D02*
D03*
X420000D02*
D03*
X410000D02*
D03*
Y360000D02*
D03*
X420000D02*
D03*
X400000D02*
D03*
X370000D02*
D03*
X380000D02*
D03*
X390000D02*
D03*
X350000D02*
D03*
X360000D02*
D03*
X340000D02*
D03*
X330000D02*
D03*
Y340000D02*
D03*
X340000D02*
D03*
X360000D02*
D03*
X350000D02*
D03*
X390000D02*
D03*
X380000D02*
D03*
X370000D02*
D03*
X400000D02*
D03*
X420000D02*
D03*
X410000D02*
D03*
Y350000D02*
D03*
X420000D02*
D03*
X400000D02*
D03*
X370000D02*
D03*
X380000D02*
D03*
X390000D02*
D03*
X350000D02*
D03*
X360000D02*
D03*
X340000D02*
D03*
X330000D02*
D03*
Y320000D02*
D03*
X340000D02*
D03*
X360000D02*
D03*
X350000D02*
D03*
X390000D02*
D03*
X380000D02*
D03*
X370000D02*
D03*
X400000D02*
D03*
X420000D02*
D03*
X410000D02*
D03*
Y330000D02*
D03*
X420000D02*
D03*
X400000D02*
D03*
X370000D02*
D03*
X380000D02*
D03*
X390000D02*
D03*
X350000D02*
D03*
X360000D02*
D03*
X340000D02*
D03*
X330000D02*
D03*
Y300000D02*
D03*
X340000D02*
D03*
X360000D02*
D03*
X350000D02*
D03*
X390000D02*
D03*
X380000D02*
D03*
X370000D02*
D03*
X400000D02*
D03*
X420000D02*
D03*
X410000D02*
D03*
Y310000D02*
D03*
X420000D02*
D03*
X400000D02*
D03*
X370000D02*
D03*
X380000D02*
D03*
X390000D02*
D03*
X350000D02*
D03*
X360000D02*
D03*
X340000D02*
D03*
X330000D02*
D03*
Y280000D02*
D03*
X340000D02*
D03*
X360000D02*
D03*
X350000D02*
D03*
X390000D02*
D03*
X380000D02*
D03*
X370000D02*
D03*
X400000D02*
D03*
X420000D02*
D03*
X410000D02*
D03*
Y290000D02*
D03*
X420000D02*
D03*
X400000D02*
D03*
X370000D02*
D03*
X380000D02*
D03*
X390000D02*
D03*
X350000D02*
D03*
X360000D02*
D03*
X340000D02*
D03*
X330000D02*
D03*
Y380000D02*
D03*
X340000D02*
D03*
X360000D02*
D03*
X350000D02*
D03*
X390000D02*
D03*
X380000D02*
D03*
X370000D02*
D03*
X400000D02*
D03*
X420000D02*
D03*
X410000D02*
D03*
Y390000D02*
D03*
X420000D02*
D03*
X400000D02*
D03*
X370000D02*
D03*
X380000D02*
D03*
X390000D02*
D03*
X350000D02*
D03*
X360000D02*
D03*
X340000D02*
D03*
X330000D02*
D03*
Y210000D02*
D03*
X340000D02*
D03*
X360000D02*
D03*
X350000D02*
D03*
X390000D02*
D03*
X380000D02*
D03*
X370000D02*
D03*
X400000D02*
D03*
X420000D02*
D03*
X410000D02*
D03*
Y200000D02*
D03*
X420000D02*
D03*
X400000D02*
D03*
X370000D02*
D03*
X380000D02*
D03*
X390000D02*
D03*
X350000D02*
D03*
X360000D02*
D03*
X340000D02*
D03*
X330000D02*
D03*
Y230000D02*
D03*
X340000D02*
D03*
X360000D02*
D03*
X350000D02*
D03*
X390000D02*
D03*
X380000D02*
D03*
X370000D02*
D03*
X400000D02*
D03*
X420000D02*
D03*
X410000D02*
D03*
Y220000D02*
D03*
X420000D02*
D03*
X400000D02*
D03*
X370000D02*
D03*
X380000D02*
D03*
X390000D02*
D03*
X350000D02*
D03*
X360000D02*
D03*
X340000D02*
D03*
X330000D02*
D03*
Y250000D02*
D03*
X340000D02*
D03*
X360000D02*
D03*
X350000D02*
D03*
X390000D02*
D03*
X380000D02*
D03*
X370000D02*
D03*
X400000D02*
D03*
X420000D02*
D03*
X410000D02*
D03*
Y240000D02*
D03*
X420000D02*
D03*
X400000D02*
D03*
X370000D02*
D03*
X380000D02*
D03*
X390000D02*
D03*
X350000D02*
D03*
X360000D02*
D03*
X340000D02*
D03*
X330000D02*
D03*
Y270000D02*
D03*
X340000D02*
D03*
X360000D02*
D03*
X350000D02*
D03*
X390000D02*
D03*
X380000D02*
D03*
X370000D02*
D03*
X400000D02*
D03*
X420000D02*
D03*
X410000D02*
D03*
Y260000D02*
D03*
X420000D02*
D03*
X400000D02*
D03*
X370000D02*
D03*
X380000D02*
D03*
X390000D02*
D03*
X350000D02*
D03*
X360000D02*
D03*
X340000D02*
D03*
X330000D02*
D03*
Y180000D02*
D03*
X340000D02*
D03*
X360000D02*
D03*
X350000D02*
D03*
X390000D02*
D03*
X380000D02*
D03*
X370000D02*
D03*
X400000D02*
D03*
X420000D02*
D03*
X410000D02*
D03*
Y190000D02*
D03*
X420000D02*
D03*
X400000D02*
D03*
X370000D02*
D03*
X380000D02*
D03*
X390000D02*
D03*
X350000D02*
D03*
X360000D02*
D03*
X340000D02*
D03*
X330000D02*
D03*
Y160000D02*
D03*
X340000D02*
D03*
X360000D02*
D03*
X350000D02*
D03*
X390000D02*
D03*
X380000D02*
D03*
X370000D02*
D03*
X400000D02*
D03*
X420000D02*
D03*
X410000D02*
D03*
Y170000D02*
D03*
X420000D02*
D03*
X400000D02*
D03*
X370000D02*
D03*
X380000D02*
D03*
X390000D02*
D03*
X350000D02*
D03*
X360000D02*
D03*
X340000D02*
D03*
X330000D02*
D03*
Y140000D02*
D03*
X340000D02*
D03*
X360000D02*
D03*
X350000D02*
D03*
X390000D02*
D03*
X380000D02*
D03*
X370000D02*
D03*
X400000D02*
D03*
X420000D02*
D03*
X410000D02*
D03*
Y130000D02*
D03*
X420000D02*
D03*
X400000D02*
D03*
X370000D02*
D03*
X380000D02*
D03*
X390000D02*
D03*
X350000D02*
D03*
X360000D02*
D03*
X340000D02*
D03*
X330000D02*
D03*
X410000Y150000D02*
D03*
X420000D02*
D03*
X400000D02*
D03*
X370000D02*
D03*
X380000D02*
D03*
X390000D02*
D03*
X350000D02*
D03*
X360000D02*
D03*
X340000D02*
D03*
X330000D02*
D03*
X320000D02*
D03*
Y130000D02*
D03*
Y140000D02*
D03*
Y170000D02*
D03*
Y160000D02*
D03*
Y190000D02*
D03*
Y180000D02*
D03*
Y260000D02*
D03*
Y270000D02*
D03*
Y240000D02*
D03*
Y250000D02*
D03*
Y220000D02*
D03*
Y230000D02*
D03*
Y200000D02*
D03*
Y210000D02*
D03*
Y290000D02*
D03*
Y280000D02*
D03*
X330000Y420000D02*
D03*
X340000D02*
D03*
X360000D02*
D03*
X350000D02*
D03*
X390000D02*
D03*
X380000D02*
D03*
X370000D02*
D03*
Y410000D02*
D03*
X380000D02*
D03*
X390000D02*
D03*
X350000D02*
D03*
X360000D02*
D03*
X340000D02*
D03*
X330000D02*
D03*
X370000Y400000D02*
D03*
X380000D02*
D03*
X390000D02*
D03*
X350000D02*
D03*
X360000D02*
D03*
X340000D02*
D03*
X330000D02*
D03*
X400000Y90000D02*
D03*
X420000D02*
D03*
X410000D02*
D03*
Y80000D02*
D03*
X420000D02*
D03*
X400000D02*
D03*
Y110000D02*
D03*
X420000D02*
D03*
X410000D02*
D03*
Y100000D02*
D03*
X420000D02*
D03*
X400000D02*
D03*
X410000Y120000D02*
D03*
X420000D02*
D03*
X400000D02*
D03*
X260000Y410000D02*
D03*
X270000D02*
D03*
X290000D02*
D03*
X280000D02*
D03*
X320000D02*
D03*
X310000D02*
D03*
X300000D02*
D03*
Y420000D02*
D03*
X310000D02*
D03*
X320000D02*
D03*
X280000D02*
D03*
X290000D02*
D03*
X270000D02*
D03*
X260000D02*
D03*
X190000Y410000D02*
D03*
X200000D02*
D03*
X220000D02*
D03*
X210000D02*
D03*
X250000D02*
D03*
X240000D02*
D03*
X230000D02*
D03*
Y420000D02*
D03*
X240000D02*
D03*
X250000D02*
D03*
X210000D02*
D03*
X220000D02*
D03*
X200000D02*
D03*
X190000D02*
D03*
X170000Y390000D02*
D03*
X190000D02*
D03*
X180000D02*
D03*
X220000D02*
D03*
X210000D02*
D03*
X200000D02*
D03*
Y400000D02*
D03*
X210000D02*
D03*
X220000D02*
D03*
X180000D02*
D03*
X190000D02*
D03*
X170000D02*
D03*
Y420000D02*
D03*
X180000D02*
D03*
Y410000D02*
D03*
X170000D02*
D03*
X200000Y380000D02*
D03*
X210000D02*
D03*
X180000D02*
D03*
X190000D02*
D03*
X170000D02*
D03*
X320000Y400000D02*
D03*
Y390000D02*
D03*
Y360000D02*
D03*
Y370000D02*
D03*
Y380000D02*
D03*
Y350000D02*
D03*
X310000Y180000D02*
D03*
Y190000D02*
D03*
Y160000D02*
D03*
Y170000D02*
D03*
X300000Y180000D02*
D03*
Y190000D02*
D03*
Y170000D02*
D03*
X60000Y90000D02*
D03*
X50000D02*
D03*
X70000D02*
D03*
X90000D02*
D03*
X80000D02*
D03*
X60000Y110000D02*
D03*
X50000D02*
D03*
X70000D02*
D03*
X90000D02*
D03*
X80000D02*
D03*
Y100000D02*
D03*
X90000D02*
D03*
X70000D02*
D03*
X50000D02*
D03*
X60000D02*
D03*
Y180000D02*
D03*
X50000D02*
D03*
X70000D02*
D03*
X90000D02*
D03*
X80000D02*
D03*
X60000Y160000D02*
D03*
X50000D02*
D03*
X70000D02*
D03*
X90000D02*
D03*
X80000D02*
D03*
Y170000D02*
D03*
X90000D02*
D03*
X70000D02*
D03*
X50000D02*
D03*
X60000D02*
D03*
Y140000D02*
D03*
X50000D02*
D03*
X70000D02*
D03*
X90000D02*
D03*
X80000D02*
D03*
Y150000D02*
D03*
X90000D02*
D03*
X70000D02*
D03*
X50000D02*
D03*
X60000D02*
D03*
Y120000D02*
D03*
X50000D02*
D03*
X70000D02*
D03*
X90000D02*
D03*
X80000D02*
D03*
Y130000D02*
D03*
X90000D02*
D03*
X70000D02*
D03*
X50000D02*
D03*
X60000D02*
D03*
X50000Y300000D02*
D03*
X60000D02*
D03*
X80000D02*
D03*
X70000D02*
D03*
Y290000D02*
D03*
X80000D02*
D03*
X60000D02*
D03*
X50000D02*
D03*
X70000Y310000D02*
D03*
X80000D02*
D03*
X60000D02*
D03*
X50000D02*
D03*
Y270000D02*
D03*
X60000D02*
D03*
X80000D02*
D03*
X70000D02*
D03*
Y280000D02*
D03*
X80000D02*
D03*
X60000D02*
D03*
X50000D02*
D03*
D29*
X106000Y345937D02*
D03*
D30*
Y338063D02*
D03*
D31*
X410000Y410000D02*
D03*
Y60000D02*
D03*
X60000D02*
D03*
Y410000D02*
D03*
D32*
X290000Y380000D02*
D03*
Y370000D02*
D03*
X280000Y380000D02*
D03*
Y370000D02*
D03*
X250000Y380000D02*
D03*
X260000Y370000D02*
D03*
Y380000D02*
D03*
X270000Y370000D02*
D03*
Y380000D02*
D03*
D33*
X250000Y370000D02*
D03*
D34*
X120000Y255394D02*
D03*
D35*
X120000Y274606D02*
D03*
D36*
X120000Y300165D02*
D03*
Y295835D02*
D03*
D37*
X98000Y317000D02*
D03*
X136000Y334000D02*
D03*
X75000Y378000D02*
D03*
X293000Y145000D02*
D03*
X341098Y77500D02*
D03*
X300114Y82500D02*
D03*
X300106Y92492D02*
D03*
Y102492D02*
D03*
X322106Y64492D02*
D03*
X96000Y246000D02*
D03*
X75000Y393000D02*
D03*
X131000Y391000D02*
D03*
M02*
