G04 Layer_Color=7318015*
%FSLAX25Y25*%
%MOIN*%
G70*
G01*
G75*
%ADD10O,0.00984X0.06102*%
%ADD11O,0.06102X0.00984*%
%ADD12R,0.05118X0.05709*%
%ADD13R,0.06693X0.11811*%
%ADD14R,0.07480X0.05906*%
%ADD15R,0.06102X0.05906*%
%ADD16R,0.05709X0.05118*%
%ADD17R,0.03937X0.05118*%
%ADD18R,0.05118X0.03937*%
%ADD19R,0.05118X0.04528*%
%ADD20R,0.04724X0.03150*%
%ADD21O,0.06300X0.02400*%
%ADD22O,0.08661X0.02362*%
%ADD23O,0.02600X0.09000*%
%ADD27R,0.10300X0.13800*%
D10*
X773236Y310752D02*
D03*
X775205D02*
D03*
X777173D02*
D03*
X779142D02*
D03*
X781110D02*
D03*
X783079D02*
D03*
X785047D02*
D03*
X787016D02*
D03*
X788984D02*
D03*
X790953D02*
D03*
X792921D02*
D03*
X794890D02*
D03*
X796858D02*
D03*
X798827D02*
D03*
X800795D02*
D03*
X802764D02*
D03*
Y267248D02*
D03*
X800795D02*
D03*
X798827D02*
D03*
X796858D02*
D03*
X794890D02*
D03*
X792921D02*
D03*
X790953D02*
D03*
X788984D02*
D03*
X787016D02*
D03*
X785047D02*
D03*
X783079D02*
D03*
X781110D02*
D03*
X779142D02*
D03*
X777173D02*
D03*
X775205D02*
D03*
X773236D02*
D03*
D11*
X809752Y303764D02*
D03*
Y301795D02*
D03*
Y299827D02*
D03*
Y297858D02*
D03*
Y295890D02*
D03*
Y293921D02*
D03*
Y291953D02*
D03*
Y289984D02*
D03*
Y288016D02*
D03*
Y286047D02*
D03*
Y284079D02*
D03*
Y282110D02*
D03*
Y280142D02*
D03*
Y278173D02*
D03*
Y276205D02*
D03*
Y274236D02*
D03*
X766248D02*
D03*
Y276205D02*
D03*
Y278173D02*
D03*
Y280142D02*
D03*
Y282110D02*
D03*
Y284079D02*
D03*
Y286047D02*
D03*
Y288016D02*
D03*
Y289984D02*
D03*
Y291953D02*
D03*
Y293921D02*
D03*
Y295890D02*
D03*
Y297858D02*
D03*
Y299827D02*
D03*
Y301795D02*
D03*
Y303764D02*
D03*
D12*
X448150Y93000D02*
D03*
X441850D02*
D03*
X313150Y120000D02*
D03*
X306850D02*
D03*
X123150Y210000D02*
D03*
X116850D02*
D03*
X123150Y220000D02*
D03*
X116850D02*
D03*
X123150Y200000D02*
D03*
X116850D02*
D03*
X123150Y230000D02*
D03*
X116850D02*
D03*
X80650Y245000D02*
D03*
X74351D02*
D03*
X96421Y254718D02*
D03*
X102721D02*
D03*
X96422Y292718D02*
D03*
X102721D02*
D03*
X96422Y305218D02*
D03*
X102721D02*
D03*
X96421Y274718D02*
D03*
X102721D02*
D03*
X92150Y395000D02*
D03*
X85850D02*
D03*
D13*
X65000Y359000D02*
D03*
Y337000D02*
D03*
D14*
X90000Y346905D02*
D03*
Y335094D02*
D03*
X86000Y372094D02*
D03*
Y383906D02*
D03*
D15*
X141000Y357457D02*
D03*
Y364543D02*
D03*
Y394457D02*
D03*
Y401543D02*
D03*
D16*
X310000Y328150D02*
D03*
Y321850D02*
D03*
X280000Y151850D02*
D03*
Y158150D02*
D03*
X170000Y351851D02*
D03*
Y358150D02*
D03*
D17*
X243642Y110000D02*
D03*
X236358D02*
D03*
X243642Y100000D02*
D03*
X236358D02*
D03*
X243642Y90000D02*
D03*
X236358D02*
D03*
X243642Y80000D02*
D03*
X236358D02*
D03*
X243642Y70000D02*
D03*
X236358D02*
D03*
X243642Y60000D02*
D03*
X236358D02*
D03*
X73858Y235000D02*
D03*
X81142D02*
D03*
D18*
X210000Y356642D02*
D03*
Y349358D02*
D03*
X220000Y131358D02*
D03*
X220000Y138642D02*
D03*
X240000Y131358D02*
D03*
Y138642D02*
D03*
X230000Y131358D02*
D03*
Y138642D02*
D03*
D19*
X220000Y154429D02*
D03*
Y145571D02*
D03*
X230000Y154429D02*
D03*
Y145571D02*
D03*
X240000Y154429D02*
D03*
Y145571D02*
D03*
D20*
X141000Y376752D02*
D03*
Y383248D02*
D03*
Y339591D02*
D03*
Y346087D02*
D03*
X121000Y335752D02*
D03*
Y342248D02*
D03*
X129000D02*
D03*
Y335752D02*
D03*
D21*
X119400Y368500D02*
D03*
Y373500D02*
D03*
Y378500D02*
D03*
Y383500D02*
D03*
X98148Y368500D02*
D03*
Y373500D02*
D03*
Y378500D02*
D03*
Y383500D02*
D03*
D22*
X329449Y72500D02*
D03*
Y77500D02*
D03*
Y82500D02*
D03*
Y87500D02*
D03*
Y92500D02*
D03*
Y97500D02*
D03*
Y102500D02*
D03*
Y107500D02*
D03*
X310551Y72500D02*
D03*
Y77500D02*
D03*
Y82500D02*
D03*
Y87500D02*
D03*
Y92500D02*
D03*
Y97500D02*
D03*
Y102500D02*
D03*
Y107500D02*
D03*
D23*
X157500Y89000D02*
D03*
X152500D02*
D03*
X147500D02*
D03*
X142500D02*
D03*
X137500D02*
D03*
X132500D02*
D03*
X127500D02*
D03*
X122500D02*
D03*
Y111000D02*
D03*
X127500D02*
D03*
X132500D02*
D03*
X137500D02*
D03*
X142500D02*
D03*
X147500D02*
D03*
X152500D02*
D03*
X157500D02*
D03*
D27*
X108650Y375900D02*
D03*
M02*
