G04 Layer_Color=15132400*
%FSLAX25Y25*%
%MOIN*%
G70*
G01*
G75*
%ADD24C,0.01000*%
%ADD38C,0.02362*%
%ADD39C,0.00984*%
%ADD40C,0.00787*%
%ADD41C,0.00780*%
%ADD42C,0.00394*%
%ADD43C,0.00591*%
G36*
X253000Y357000D02*
X247000D01*
X250000Y362000D01*
X253000Y357000D01*
D02*
G37*
D24*
X126299Y298000D02*
G03*
X126299Y298000I-6299J0D01*
G01*
X279000Y357000D02*
Y360000D01*
X261000D02*
X279000D01*
X261000Y357000D02*
Y360000D01*
X229500Y357000D02*
X267500D01*
X229500D02*
Y394500D01*
X310000D01*
Y357000D02*
Y394500D01*
X261000Y357000D02*
X310000D01*
X161000Y112000D02*
Y113000D01*
X695500Y266500D02*
Y272498D01*
X698499D01*
X699499Y271498D01*
Y269499D01*
X698499Y268499D01*
X695500D01*
X705497Y271498D02*
X704497Y272498D01*
X702498D01*
X701498Y271498D01*
Y267500D01*
X702498Y266500D01*
X704497D01*
X705497Y267500D01*
X707496Y271498D02*
X708496Y272498D01*
X710495D01*
X711495Y271498D01*
Y270499D01*
X710495Y269499D01*
X709495D01*
X710495D01*
X711495Y268499D01*
Y267500D01*
X710495Y266500D01*
X708496D01*
X707496Y267500D01*
X695500Y276500D02*
Y282498D01*
X698499D01*
X699499Y281498D01*
Y279499D01*
X698499Y278499D01*
X695500D01*
X705497Y281498D02*
X704497Y282498D01*
X702498D01*
X701498Y281498D01*
Y277500D01*
X702498Y276500D01*
X704497D01*
X705497Y277500D01*
X711495Y276500D02*
X707496D01*
X711495Y280499D01*
Y281498D01*
X710495Y282498D01*
X708496D01*
X707496Y281498D01*
X695500Y286500D02*
Y292498D01*
X698499D01*
X699499Y291498D01*
Y289499D01*
X698499Y288499D01*
X695500D01*
X705497Y291498D02*
X704497Y292498D01*
X702498D01*
X701498Y291498D01*
Y287500D01*
X702498Y286500D01*
X704497D01*
X705497Y287500D01*
X707496Y286500D02*
X709495D01*
X708496D01*
Y292498D01*
X707496Y291498D01*
X695500Y296500D02*
Y302498D01*
X698499D01*
X699499Y301498D01*
Y299499D01*
X698499Y298499D01*
X695500D01*
X705497Y301498D02*
X704497Y302498D01*
X702498D01*
X701498Y301498D01*
Y297500D01*
X702498Y296500D01*
X704497D01*
X705497Y297500D01*
X707496Y301498D02*
X708496Y302498D01*
X710495D01*
X711495Y301498D01*
Y297500D01*
X710495Y296500D01*
X708496D01*
X707496Y297500D01*
Y301498D01*
X800500Y196500D02*
X794502D01*
Y199499D01*
X795502Y200499D01*
X797501D01*
X798501Y199499D01*
Y196500D01*
X795502Y206497D02*
X794502Y205497D01*
Y203498D01*
X795502Y202498D01*
X799500D01*
X800500Y203498D01*
Y205497D01*
X799500Y206497D01*
X794502Y212495D02*
Y208496D01*
X797501D01*
X796501Y210495D01*
Y211495D01*
X797501Y212495D01*
X799500D01*
X800500Y211495D01*
Y209496D01*
X799500Y208496D01*
X790500Y196500D02*
X784502D01*
Y199499D01*
X785502Y200499D01*
X787501D01*
X788501Y199499D01*
Y196500D01*
X785502Y206497D02*
X784502Y205497D01*
Y203498D01*
X785502Y202498D01*
X789500D01*
X790500Y203498D01*
Y205497D01*
X789500Y206497D01*
X790500Y211495D02*
X784502D01*
X787501Y208496D01*
Y212495D01*
X734502Y196500D02*
X738501D01*
X740500Y198499D01*
X738501Y200499D01*
X734502D01*
X736501Y206497D02*
Y203498D01*
X737501Y202498D01*
X739500D01*
X740500Y203498D01*
Y206497D01*
X736501Y212495D02*
Y209496D01*
X737501Y208496D01*
X739500D01*
X740500Y209496D01*
Y212495D01*
X725502Y200499D02*
X724502Y199499D01*
Y197500D01*
X725502Y196500D01*
X729500D01*
X730500Y197500D01*
Y199499D01*
X729500Y200499D01*
X727501D01*
Y198499D01*
X730500Y202498D02*
X724502D01*
X730500Y206497D01*
X724502D01*
Y208496D02*
X730500D01*
Y211495D01*
X729500Y212495D01*
X725502D01*
X724502Y211495D01*
Y208496D01*
X875500Y256500D02*
Y262498D01*
X878499D01*
X879499Y261498D01*
Y259499D01*
X878499Y258499D01*
X875500D01*
X885497Y261498D02*
X884497Y262498D01*
X882498D01*
X881498Y261498D01*
Y257500D01*
X882498Y256500D01*
X884497D01*
X885497Y257500D01*
X891495Y262498D02*
X889495Y261498D01*
X887496Y259499D01*
Y257500D01*
X888496Y256500D01*
X890495D01*
X891495Y257500D01*
Y258499D01*
X890495Y259499D01*
X887496D01*
X875500Y266500D02*
Y272498D01*
X878499D01*
X879499Y271498D01*
Y269499D01*
X878499Y268499D01*
X875500D01*
X885497Y271498D02*
X884497Y272498D01*
X882498D01*
X881498Y271498D01*
Y267500D01*
X882498Y266500D01*
X884497D01*
X885497Y267500D01*
X887496Y272498D02*
X891495D01*
Y271498D01*
X887496Y267500D01*
Y266500D01*
X875500Y276500D02*
Y282498D01*
X878499D01*
X879499Y281498D01*
Y279499D01*
X878499Y278499D01*
X875500D01*
X885497Y281498D02*
X884497Y282498D01*
X882498D01*
X881498Y281498D01*
Y277500D01*
X882498Y276500D01*
X884497D01*
X885497Y277500D01*
X887496Y281498D02*
X888496Y282498D01*
X890495D01*
X891495Y281498D01*
Y280499D01*
X890495Y279499D01*
X891495Y278499D01*
Y277500D01*
X890495Y276500D01*
X888496D01*
X887496Y277500D01*
Y278499D01*
X888496Y279499D01*
X887496Y280499D01*
Y281498D01*
X888496Y279499D02*
X890495D01*
X875500Y286500D02*
Y292498D01*
X878499D01*
X879499Y291498D01*
Y289499D01*
X878499Y288499D01*
X875500D01*
X885497Y291498D02*
X884497Y292498D01*
X882498D01*
X881498Y291498D01*
Y287500D01*
X882498Y286500D01*
X884497D01*
X885497Y287500D01*
X887496D02*
X888496Y286500D01*
X890495D01*
X891495Y287500D01*
Y291498D01*
X890495Y292498D01*
X888496D01*
X887496Y291498D01*
Y290499D01*
X888496Y289499D01*
X891495D01*
X820500Y376500D02*
X814502D01*
Y379499D01*
X815502Y380499D01*
X817501D01*
X818501Y379499D01*
Y376500D01*
X814502Y382498D02*
X820500D01*
Y385497D01*
X819500Y386497D01*
X815502D01*
X814502Y385497D01*
Y382498D01*
X820500Y392495D02*
Y388496D01*
X816501Y392495D01*
X815502D01*
X814502Y391495D01*
Y389496D01*
X815502Y388496D01*
X850500Y371500D02*
X844502D01*
Y374499D01*
X845502Y375499D01*
X847501D01*
X848501Y374499D01*
Y371500D01*
X845502Y381497D02*
X844502Y380497D01*
Y378498D01*
X845502Y377498D01*
X849500D01*
X850500Y378498D01*
Y380497D01*
X849500Y381497D01*
X850500Y383496D02*
Y385495D01*
Y384496D01*
X844502D01*
X845502Y383496D01*
Y388494D02*
X844502Y389494D01*
Y391494D01*
X845502Y392493D01*
X849500D01*
X850500Y391494D01*
Y389494D01*
X849500Y388494D01*
X845502D01*
X840500Y374000D02*
X834502D01*
Y376999D01*
X835502Y377999D01*
X837501D01*
X838501Y376999D01*
Y374000D01*
X835502Y383997D02*
X834502Y382997D01*
Y380998D01*
X835502Y379998D01*
X839500D01*
X840500Y380998D01*
Y382997D01*
X839500Y383997D01*
X840500Y385996D02*
Y387996D01*
Y386996D01*
X834502D01*
X835502Y385996D01*
X840500Y390995D02*
Y392994D01*
Y391994D01*
X834502D01*
X835502Y390995D01*
X830500Y371500D02*
X824502D01*
Y374499D01*
X825502Y375499D01*
X827501D01*
X828501Y374499D01*
Y371500D01*
X825502Y381497D02*
X824502Y380497D01*
Y378498D01*
X825502Y377498D01*
X829500D01*
X830500Y378498D01*
Y380497D01*
X829500Y381497D01*
X830500Y383496D02*
Y385495D01*
Y384496D01*
X824502D01*
X825502Y383496D01*
X830500Y392493D02*
Y388494D01*
X826501Y392493D01*
X825502D01*
X824502Y391494D01*
Y389494D01*
X825502Y388494D01*
X763700Y323298D02*
X765699D01*
X764700D01*
Y317300D01*
X763700D01*
X765699D01*
X772697Y322298D02*
X771697Y323298D01*
X769698D01*
X768698Y322298D01*
Y318300D01*
X769698Y317300D01*
X771697D01*
X772697Y318300D01*
X774696Y317300D02*
X776696D01*
X775696D01*
Y323298D01*
X774696Y322298D01*
X443249Y105048D02*
X442249Y106048D01*
X440250D01*
X439250Y105048D01*
Y101050D01*
X440250Y100050D01*
X442249D01*
X443249Y101050D01*
X449247Y106048D02*
X447247Y105048D01*
X445248Y103049D01*
Y101050D01*
X446248Y100050D01*
X448247D01*
X449247Y101050D01*
Y102049D01*
X448247Y103049D01*
X445248D01*
X135000Y318999D02*
Y315000D01*
X131001Y318999D01*
X130002D01*
X129002Y317999D01*
Y316000D01*
X130002Y315000D01*
X135000Y324997D02*
Y320998D01*
X131001Y324997D01*
X130002D01*
X129002Y323997D01*
Y321998D01*
X130002Y320998D01*
X135000Y326996D02*
X129002D01*
X133001D02*
X131001Y329995D01*
X133001Y326996D02*
X135000Y329995D01*
X83000Y57000D02*
Y62998D01*
X85999D01*
X86999Y61998D01*
Y59999D01*
X85999Y58999D01*
X83000D01*
X88998Y60999D02*
Y58000D01*
X89998Y57000D01*
X90997Y58000D01*
X91997Y57000D01*
X92997Y58000D01*
Y60999D01*
X94996D02*
Y57000D01*
Y58999D01*
X95996Y59999D01*
X96996Y60999D01*
X97995D01*
X106502Y137500D02*
Y139499D01*
Y138500D01*
X112500D01*
Y137500D01*
Y139499D01*
Y142498D02*
X108501D01*
Y145497D01*
X109501Y146497D01*
X112500D01*
X106502Y148496D02*
Y152495D01*
X107502D01*
X111500Y148496D01*
X112500D01*
X116502Y137500D02*
Y139499D01*
Y138500D01*
X122500D01*
Y137500D01*
Y139499D01*
Y142498D02*
X118501D01*
Y145497D01*
X119501Y146497D01*
X122500D01*
X116502Y152495D02*
X117502Y150496D01*
X119501Y148496D01*
X121500D01*
X122500Y149496D01*
Y151496D01*
X121500Y152495D01*
X120501D01*
X119501Y151496D01*
Y148496D01*
X126502Y137500D02*
Y139499D01*
Y138500D01*
X132500D01*
Y137500D01*
Y139499D01*
Y142498D02*
X128501D01*
Y145497D01*
X129501Y146497D01*
X132500D01*
X126502Y152495D02*
Y148496D01*
X129501D01*
X128501Y150496D01*
Y151496D01*
X129501Y152495D01*
X131500D01*
X132500Y151496D01*
Y149496D01*
X131500Y148496D01*
X136502Y137500D02*
Y139499D01*
Y138500D01*
X142500D01*
Y137500D01*
Y139499D01*
Y142498D02*
X138501D01*
Y145497D01*
X139501Y146497D01*
X142500D01*
Y151496D02*
X136502D01*
X139501Y148496D01*
Y152495D01*
X146502Y137500D02*
Y139499D01*
Y138500D01*
X152500D01*
Y137500D01*
Y139499D01*
Y142498D02*
X148501D01*
Y145497D01*
X149501Y146497D01*
X152500D01*
X147502Y148496D02*
X146502Y149496D01*
Y151496D01*
X147502Y152495D01*
X148501D01*
X149501Y151496D01*
Y150496D01*
Y151496D01*
X150501Y152495D01*
X151500D01*
X152500Y151496D01*
Y149496D01*
X151500Y148496D01*
X156502Y137500D02*
Y139499D01*
Y138500D01*
X162500D01*
Y137500D01*
Y139499D01*
Y142498D02*
X158501D01*
Y145497D01*
X159501Y146497D01*
X162500D01*
Y152495D02*
Y148496D01*
X158501Y152495D01*
X157502D01*
X156502Y151496D01*
Y149496D01*
X157502Y148496D01*
X180999Y52998D02*
X179000D01*
X178000Y51998D01*
Y48000D01*
X179000Y47000D01*
X180999D01*
X181999Y48000D01*
Y51998D01*
X180999Y52998D01*
X183998Y50999D02*
Y48000D01*
X184998Y47000D01*
X187997D01*
Y50999D01*
X190996Y51998D02*
Y50999D01*
X189996D01*
X191996D01*
X190996D01*
Y48000D01*
X191996Y47000D01*
X194994D02*
X196994D01*
X195994D01*
Y52998D01*
X194994Y51998D01*
X199993Y49999D02*
X203992D01*
X201992Y51998D02*
Y48000D01*
X180999Y62998D02*
X179000D01*
X178000Y61998D01*
Y58000D01*
X179000Y57000D01*
X180999D01*
X181999Y58000D01*
Y61998D01*
X180999Y62998D01*
X183998Y60999D02*
Y58000D01*
X184998Y57000D01*
X187997D01*
Y60999D01*
X190996Y61998D02*
Y60999D01*
X189996D01*
X191996D01*
X190996D01*
Y58000D01*
X191996Y57000D01*
X194994D02*
X196994D01*
X195994D01*
Y62998D01*
X194994Y61998D01*
X199993Y59999D02*
X203992D01*
X166502Y139499D02*
Y141499D01*
Y140499D01*
X172500D01*
Y139499D01*
Y141499D01*
Y144498D02*
X168501D01*
Y147497D01*
X169501Y148496D01*
X172500D01*
Y150496D02*
Y152495D01*
Y151496D01*
X166502D01*
X167502Y150496D01*
X267500Y63498D02*
X269499D01*
X268500D01*
Y57500D01*
X267500D01*
X269499D01*
X272498D02*
Y61499D01*
X275497D01*
X276497Y60499D01*
Y57500D01*
X282495Y63498D02*
X280496Y62498D01*
X278496Y60499D01*
Y58500D01*
X279496Y57500D01*
X281495D01*
X282495Y58500D01*
Y59499D01*
X281495Y60499D01*
X278496D01*
X369999Y62998D02*
X368000D01*
X367000Y61998D01*
Y58000D01*
X368000Y57000D01*
X369999D01*
X370999Y58000D01*
Y61998D01*
X369999Y62998D01*
X372998Y60999D02*
Y58000D01*
X373998Y57000D01*
X376997D01*
Y60999D01*
X379996Y61998D02*
Y60999D01*
X378996D01*
X380995D01*
X379996D01*
Y58000D01*
X380995Y57000D01*
X387993Y62998D02*
X385994Y61998D01*
X383995Y59999D01*
Y58000D01*
X384994Y57000D01*
X386994D01*
X387993Y58000D01*
Y58999D01*
X386994Y59999D01*
X383995D01*
X267500Y73498D02*
X269499D01*
X268500D01*
Y67500D01*
X267500D01*
X269499D01*
X272498D02*
Y71499D01*
X275497D01*
X276497Y70499D01*
Y67500D01*
X282495Y73498D02*
X278496D01*
Y70499D01*
X280496Y71499D01*
X281495D01*
X282495Y70499D01*
Y68500D01*
X281495Y67500D01*
X279496D01*
X278496Y68500D01*
X369999Y72998D02*
X368000D01*
X367000Y71998D01*
Y68000D01*
X368000Y67000D01*
X369999D01*
X370999Y68000D01*
Y71998D01*
X369999Y72998D01*
X372998Y70999D02*
Y68000D01*
X373998Y67000D01*
X376997D01*
Y70999D01*
X379996Y71998D02*
Y70999D01*
X378996D01*
X380995D01*
X379996D01*
Y68000D01*
X380995Y67000D01*
X387993Y72998D02*
X383995D01*
Y69999D01*
X385994Y70999D01*
X386994D01*
X387993Y69999D01*
Y68000D01*
X386994Y67000D01*
X384994D01*
X383995Y68000D01*
X267500Y83498D02*
X269499D01*
X268500D01*
Y77500D01*
X267500D01*
X269499D01*
X272498D02*
Y81499D01*
X275497D01*
X276497Y80499D01*
Y77500D01*
X281495D02*
Y83498D01*
X278496Y80499D01*
X282495D01*
X369999Y82998D02*
X368000D01*
X367000Y81998D01*
Y78000D01*
X368000Y77000D01*
X369999D01*
X370999Y78000D01*
Y81998D01*
X369999Y82998D01*
X372998Y80999D02*
Y78000D01*
X373998Y77000D01*
X376997D01*
Y80999D01*
X379996Y81998D02*
Y80999D01*
X378996D01*
X380995D01*
X379996D01*
Y78000D01*
X380995Y77000D01*
X386994D02*
Y82998D01*
X383995Y79999D01*
X387993D01*
X267500Y93498D02*
X269499D01*
X268500D01*
Y87500D01*
X267500D01*
X269499D01*
X272498D02*
Y91499D01*
X275497D01*
X276497Y90499D01*
Y87500D01*
X278496Y92498D02*
X279496Y93498D01*
X281495D01*
X282495Y92498D01*
Y91499D01*
X281495Y90499D01*
X280496D01*
X281495D01*
X282495Y89499D01*
Y88500D01*
X281495Y87500D01*
X279496D01*
X278496Y88500D01*
X369999Y92998D02*
X368000D01*
X367000Y91998D01*
Y88000D01*
X368000Y87000D01*
X369999D01*
X370999Y88000D01*
Y91998D01*
X369999Y92998D01*
X372998Y90999D02*
Y88000D01*
X373998Y87000D01*
X376997D01*
Y90999D01*
X379996Y91998D02*
Y90999D01*
X378996D01*
X380995D01*
X379996D01*
Y88000D01*
X380995Y87000D01*
X383995Y91998D02*
X384994Y92998D01*
X386994D01*
X387993Y91998D01*
Y90999D01*
X386994Y89999D01*
X385994D01*
X386994D01*
X387993Y88999D01*
Y88000D01*
X386994Y87000D01*
X384994D01*
X383995Y88000D01*
X267500Y103498D02*
X269499D01*
X268500D01*
Y97500D01*
X267500D01*
X269499D01*
X272498D02*
Y101499D01*
X275497D01*
X276497Y100499D01*
Y97500D01*
X282495D02*
X278496D01*
X282495Y101499D01*
Y102498D01*
X281495Y103498D01*
X279496D01*
X278496Y102498D01*
X369999Y102998D02*
X368000D01*
X367000Y101998D01*
Y98000D01*
X368000Y97000D01*
X369999D01*
X370999Y98000D01*
Y101998D01*
X369999Y102998D01*
X372998Y100999D02*
Y98000D01*
X373998Y97000D01*
X376997D01*
Y100999D01*
X379996Y101998D02*
Y100999D01*
X378996D01*
X380995D01*
X379996D01*
Y98000D01*
X380995Y97000D01*
X387993D02*
X383995D01*
X387993Y100999D01*
Y101998D01*
X386994Y102998D01*
X384994D01*
X383995Y101998D01*
X267500Y113498D02*
X269499D01*
X268500D01*
Y107500D01*
X267500D01*
X269499D01*
X272498D02*
Y111499D01*
X275497D01*
X276497Y110499D01*
Y107500D01*
X278496D02*
X280496D01*
X279496D01*
Y113498D01*
X278496Y112498D01*
X369999Y112998D02*
X368000D01*
X367000Y111998D01*
Y108000D01*
X368000Y107000D01*
X369999D01*
X370999Y108000D01*
Y111998D01*
X369999Y112998D01*
X372998Y110999D02*
Y108000D01*
X373998Y107000D01*
X376997D01*
Y110999D01*
X379996Y111998D02*
Y110999D01*
X378996D01*
X380995D01*
X379996D01*
Y108000D01*
X380995Y107000D01*
X383995D02*
X385994D01*
X384994D01*
Y112998D01*
X383995Y111998D01*
X300000Y66998D02*
X303999D01*
Y65998D01*
X300000Y62000D01*
Y61000D01*
X308997D02*
Y66998D01*
X305998Y63999D01*
X309997D01*
X311996Y66998D02*
Y61000D01*
Y63999D01*
X315995D01*
Y66998D01*
Y61000D01*
X321993Y65998D02*
X320993Y66998D01*
X318994D01*
X317994Y65998D01*
Y62000D01*
X318994Y61000D01*
X320993D01*
X321993Y62000D01*
X326991Y61000D02*
Y66998D01*
X323992Y63999D01*
X327991D01*
X329990Y65998D02*
X330990Y66998D01*
X332989D01*
X333989Y65998D01*
Y62000D01*
X332989Y61000D01*
X330990D01*
X329990Y62000D01*
Y65998D01*
X339987Y66998D02*
X335988D01*
Y63999D01*
X337988Y64999D01*
X338987D01*
X339987Y63999D01*
Y62000D01*
X338987Y61000D01*
X336988D01*
X335988Y62000D01*
X341986Y65998D02*
X342986Y66998D01*
X344985D01*
X345985Y65998D01*
Y62000D01*
X344985Y61000D01*
X342986D01*
X341986Y62000D01*
Y65998D01*
X319106Y116492D02*
X321106D01*
X320106D01*
Y122490D01*
X319106Y121490D01*
X324105D02*
X325104Y122490D01*
X327104D01*
X328103Y121490D01*
Y117491D01*
X327104Y116492D01*
X325104D01*
X324105Y117491D01*
Y121490D01*
X330103D02*
X331102Y122490D01*
X333102D01*
X334101Y121490D01*
Y117491D01*
X333102Y116492D01*
X331102D01*
X330103Y117491D01*
Y121490D01*
X336101Y116492D02*
Y120491D01*
X339100D01*
X340100Y119491D01*
Y116492D01*
X870500Y246500D02*
Y252498D01*
X873499D01*
X874499Y251498D01*
Y249499D01*
X873499Y248499D01*
X870500D01*
X876498Y252498D02*
Y246500D01*
X879497D01*
X880497Y247500D01*
Y248499D01*
X879497Y249499D01*
X876498D01*
X879497D01*
X880497Y250499D01*
Y251498D01*
X879497Y252498D01*
X876498D01*
X882496Y246500D02*
X884496D01*
X883496D01*
Y252498D01*
X882496Y251498D01*
X891493Y252498D02*
X887494D01*
Y249499D01*
X889494Y250499D01*
X890493D01*
X891493Y249499D01*
Y247500D01*
X890493Y246500D01*
X888494D01*
X887494Y247500D01*
X695500Y326500D02*
Y332498D01*
X698499D01*
X699499Y331498D01*
Y329499D01*
X698499Y328499D01*
X695500D01*
X701498Y332498D02*
Y326500D01*
X704497D01*
X705497Y327500D01*
Y331498D01*
X704497Y332498D01*
X701498D01*
X707496Y331498D02*
X708496Y332498D01*
X710495D01*
X711495Y331498D01*
Y327500D01*
X710495Y326500D01*
X708496D01*
X707496Y327500D01*
Y331498D01*
X695500Y336500D02*
Y342498D01*
X698499D01*
X699499Y341498D01*
Y339499D01*
X698499Y338499D01*
X695500D01*
X705497Y341498D02*
X704497Y342498D01*
X702498D01*
X701498Y341498D01*
Y337500D01*
X702498Y336500D01*
X704497D01*
X705497Y337500D01*
X707496Y336500D02*
X709495D01*
X708496D01*
Y342498D01*
X707496Y341498D01*
X716493Y342498D02*
X712495D01*
Y339499D01*
X714494Y340499D01*
X715493D01*
X716493Y339499D01*
Y337500D01*
X715493Y336500D01*
X713494D01*
X712495Y337500D01*
X770500Y196500D02*
X764502D01*
Y199499D01*
X765502Y200499D01*
X767501D01*
X768501Y199499D01*
Y196500D01*
X770500Y202498D02*
X766501D01*
X764502Y204497D01*
X766501Y206497D01*
X770500D01*
X767501D01*
Y202498D01*
X764502Y212495D02*
X765502Y210495D01*
X767501Y208496D01*
X769500D01*
X770500Y209496D01*
Y211495D01*
X769500Y212495D01*
X768501D01*
X767501Y211495D01*
Y208496D01*
X750500Y196500D02*
X744502D01*
Y199499D01*
X745502Y200499D01*
X747501D01*
X748501Y199499D01*
Y196500D01*
X750500Y202498D02*
X746501D01*
X744502Y204497D01*
X746501Y206497D01*
X750500D01*
X747501D01*
Y202498D01*
X750500Y211495D02*
X744502D01*
X747501Y208496D01*
Y212495D01*
X720500Y196500D02*
X714502D01*
Y199499D01*
X715502Y200499D01*
X717501D01*
X718501Y199499D01*
Y196500D01*
X720500Y202498D02*
X716501D01*
X714502Y204497D01*
X716501Y206497D01*
X720500D01*
X717501D01*
Y202498D01*
X715502Y208496D02*
X714502Y209496D01*
Y211495D01*
X715502Y212495D01*
X716501D01*
X717501Y211495D01*
Y210495D01*
Y211495D01*
X718501Y212495D01*
X719500D01*
X720500Y211495D01*
Y209496D01*
X719500Y208496D01*
X695500Y216500D02*
Y222498D01*
X698499D01*
X699499Y221498D01*
Y219499D01*
X698499Y218499D01*
X695500D01*
X701498Y216500D02*
Y220499D01*
X703497Y222498D01*
X705497Y220499D01*
Y216500D01*
Y219499D01*
X701498D01*
X711495Y216500D02*
X707496D01*
X711495Y220499D01*
Y221498D01*
X710495Y222498D01*
X708496D01*
X707496Y221498D01*
X695500Y226500D02*
Y232498D01*
X698499D01*
X699499Y231498D01*
Y229499D01*
X698499Y228499D01*
X695500D01*
X701498Y226500D02*
Y230499D01*
X703497Y232498D01*
X705497Y230499D01*
Y226500D01*
Y229499D01*
X701498D01*
X707496Y226500D02*
X709495D01*
X708496D01*
Y232498D01*
X707496Y231498D01*
X864502Y196500D02*
X868501D01*
X870500Y198499D01*
X868501Y200499D01*
X864502D01*
X866501Y206497D02*
Y203498D01*
X867501Y202498D01*
X869500D01*
X870500Y203498D01*
Y206497D01*
X866501Y212495D02*
Y209496D01*
X867501Y208496D01*
X869500D01*
X870500Y209496D01*
Y212495D01*
X725502Y380499D02*
X724502Y379499D01*
Y377500D01*
X725502Y376500D01*
X729500D01*
X730500Y377500D01*
Y379499D01*
X729500Y380499D01*
X727501D01*
Y378499D01*
X730500Y382498D02*
X724502D01*
X730500Y386497D01*
X724502D01*
Y388496D02*
X730500D01*
Y391495D01*
X729500Y392495D01*
X725502D01*
X724502Y391495D01*
Y388496D01*
X282500Y125000D02*
Y126999D01*
Y126000D01*
X276502D01*
X277502Y125000D01*
Y129998D02*
X276502Y130998D01*
Y132997D01*
X277502Y133997D01*
X281500D01*
X282500Y132997D01*
Y130998D01*
X281500Y129998D01*
X277502D01*
Y135996D02*
X276502Y136996D01*
Y138996D01*
X277502Y139995D01*
X281500D01*
X282500Y138996D01*
Y136996D01*
X281500Y135996D01*
X277502D01*
X282500Y141995D02*
X278501D01*
Y144993D01*
X279501Y145993D01*
X282500D01*
X300000Y334000D02*
X301999D01*
X301000D01*
Y339998D01*
X300000Y338998D01*
X304998D02*
X305998Y339998D01*
X307997D01*
X308997Y338998D01*
Y335000D01*
X307997Y334000D01*
X305998D01*
X304998Y335000D01*
Y338998D01*
X310996D02*
X311996Y339998D01*
X313996D01*
X314995Y338998D01*
Y335000D01*
X313996Y334000D01*
X311996D01*
X310996Y335000D01*
Y338998D01*
X316995Y334000D02*
Y337999D01*
X319993D01*
X320993Y336999D01*
Y334000D01*
X695500Y356500D02*
Y362498D01*
X698499D01*
X699499Y361498D01*
Y359499D01*
X698499Y358499D01*
X695500D01*
X705497Y361498D02*
X704497Y362498D01*
X702498D01*
X701498Y361498D01*
Y357500D01*
X702498Y356500D01*
X704497D01*
X705497Y357500D01*
X707496Y356500D02*
X709495D01*
X708496D01*
Y362498D01*
X707496Y361498D01*
X712495D02*
X713494Y362498D01*
X715493D01*
X716493Y361498D01*
Y360499D01*
X715493Y359499D01*
X714494D01*
X715493D01*
X716493Y358499D01*
Y357500D01*
X715493Y356500D01*
X713494D01*
X712495Y357500D01*
X695500Y316500D02*
Y322498D01*
X698499D01*
X699499Y321498D01*
Y319499D01*
X698499Y318499D01*
X695500D01*
X701498Y322498D02*
Y316500D01*
X704497D01*
X705497Y317500D01*
Y321498D01*
X704497Y322498D01*
X701498D01*
X707496Y316500D02*
X709495D01*
X708496D01*
Y322498D01*
X707496Y321498D01*
X695500Y346500D02*
Y352498D01*
X698499D01*
X699499Y351498D01*
Y349499D01*
X698499Y348499D01*
X695500D01*
X705497Y351498D02*
X704497Y352498D01*
X702498D01*
X701498Y351498D01*
Y347500D01*
X702498Y346500D01*
X704497D01*
X705497Y347500D01*
X707496Y346500D02*
X709495D01*
X708496D01*
Y352498D01*
X707496Y351498D01*
X715493Y346500D02*
Y352498D01*
X712495Y349499D01*
X716493D01*
X870500Y236500D02*
Y242498D01*
X873499D01*
X874499Y241498D01*
Y239499D01*
X873499Y238499D01*
X870500D01*
X876498Y242498D02*
Y236500D01*
X879497D01*
X880497Y237500D01*
Y238499D01*
X879497Y239499D01*
X876498D01*
X879497D01*
X880497Y240499D01*
Y241498D01*
X879497Y242498D01*
X876498D01*
X882496Y236500D02*
X884496D01*
X883496D01*
Y242498D01*
X882496Y241498D01*
X890493Y236500D02*
Y242498D01*
X887494Y239499D01*
X891493D01*
X870500Y226500D02*
Y232498D01*
X873499D01*
X874499Y231498D01*
Y229499D01*
X873499Y228499D01*
X870500D01*
X876498Y232498D02*
Y226500D01*
X879497D01*
X880497Y227500D01*
Y228499D01*
X879497Y229499D01*
X876498D01*
X879497D01*
X880497Y230499D01*
Y231498D01*
X879497Y232498D01*
X876498D01*
X882496Y226500D02*
X884496D01*
X883496D01*
Y232498D01*
X882496Y231498D01*
X887494D02*
X888494Y232498D01*
X890493D01*
X891493Y231498D01*
Y230499D01*
X890493Y229499D01*
X889494D01*
X890493D01*
X891493Y228499D01*
Y227500D01*
X890493Y226500D01*
X888494D01*
X887494Y227500D01*
X870500Y216500D02*
Y222498D01*
X873499D01*
X874499Y221498D01*
Y219499D01*
X873499Y218499D01*
X870500D01*
X876498Y222498D02*
Y216500D01*
X879497D01*
X880497Y217500D01*
Y218499D01*
X879497Y219499D01*
X876498D01*
X879497D01*
X880497Y220499D01*
Y221498D01*
X879497Y222498D01*
X876498D01*
X882496Y216500D02*
X884496D01*
X883496D01*
Y222498D01*
X882496Y221498D01*
X891493Y216500D02*
X887494D01*
X891493Y220499D01*
Y221498D01*
X890493Y222498D01*
X888494D01*
X887494Y221498D01*
X850500Y196500D02*
X844502D01*
Y199499D01*
X845502Y200499D01*
X847501D01*
X848501Y199499D01*
Y196500D01*
X844502Y202498D02*
X850500D01*
Y205497D01*
X849500Y206497D01*
X848501D01*
X847501Y205497D01*
Y202498D01*
Y205497D01*
X846501Y206497D01*
X845502D01*
X844502Y205497D01*
Y202498D01*
X850500Y208496D02*
Y210495D01*
Y209496D01*
X844502D01*
X845502Y208496D01*
X850500Y213494D02*
Y215494D01*
Y214494D01*
X844502D01*
X845502Y213494D01*
X840500Y196500D02*
X834502D01*
Y199499D01*
X835502Y200499D01*
X837501D01*
X838501Y199499D01*
Y196500D01*
X834502Y202498D02*
X840500D01*
Y205497D01*
X839500Y206497D01*
X838501D01*
X837501Y205497D01*
Y202498D01*
Y205497D01*
X836501Y206497D01*
X835502D01*
X834502Y205497D01*
Y202498D01*
X840500Y208496D02*
Y210495D01*
Y209496D01*
X834502D01*
X835502Y208496D01*
Y213494D02*
X834502Y214494D01*
Y216494D01*
X835502Y217493D01*
X839500D01*
X840500Y216494D01*
Y214494D01*
X839500Y213494D01*
X835502D01*
X740500Y376500D02*
X734502D01*
Y379499D01*
X735502Y380499D01*
X737501D01*
X738501Y379499D01*
Y376500D01*
X734502Y382498D02*
X740500D01*
Y385497D01*
X739500Y386497D01*
X738501D01*
X737501Y385497D01*
Y382498D01*
Y385497D01*
X736501Y386497D01*
X735502D01*
X734502Y385497D01*
Y382498D01*
X739500Y388496D02*
X740500Y389496D01*
Y391495D01*
X739500Y392495D01*
X735502D01*
X734502Y391495D01*
Y389496D01*
X735502Y388496D01*
X736501D01*
X737501Y389496D01*
Y392495D01*
X750500Y376500D02*
X744502D01*
Y379499D01*
X745502Y380499D01*
X747501D01*
X748501Y379499D01*
Y376500D01*
X744502Y382498D02*
X750500D01*
Y385497D01*
X749500Y386497D01*
X748501D01*
X747501Y385497D01*
Y382498D01*
Y385497D01*
X746501Y386497D01*
X745502D01*
X744502Y385497D01*
Y382498D01*
X745502Y388496D02*
X744502Y389496D01*
Y391495D01*
X745502Y392495D01*
X746501D01*
X747501Y391495D01*
X748501Y392495D01*
X749500D01*
X750500Y391495D01*
Y389496D01*
X749500Y388496D01*
X748501D01*
X747501Y389496D01*
X746501Y388496D01*
X745502D01*
X747501Y389496D02*
Y391495D01*
X770500Y376500D02*
X764502D01*
Y379499D01*
X765502Y380499D01*
X767501D01*
X768501Y379499D01*
Y376500D01*
X764502Y382498D02*
X770500D01*
Y385497D01*
X769500Y386497D01*
X768501D01*
X767501Y385497D01*
Y382498D01*
Y385497D01*
X766501Y386497D01*
X765502D01*
X764502Y385497D01*
Y382498D01*
Y388496D02*
Y392495D01*
X765502D01*
X769500Y388496D01*
X770500D01*
X780500Y376500D02*
X774502D01*
Y379499D01*
X775502Y380499D01*
X777501D01*
X778501Y379499D01*
Y376500D01*
X774502Y382498D02*
X780500D01*
Y385497D01*
X779500Y386497D01*
X778501D01*
X777501Y385497D01*
Y382498D01*
Y385497D01*
X776501Y386497D01*
X775502D01*
X774502Y385497D01*
Y382498D01*
Y392495D02*
X775502Y390495D01*
X777501Y388496D01*
X779500D01*
X780500Y389496D01*
Y391495D01*
X779500Y392495D01*
X778501D01*
X777501Y391495D01*
Y388496D01*
X790500Y376500D02*
X784502D01*
Y379499D01*
X785502Y380499D01*
X787501D01*
X788501Y379499D01*
Y376500D01*
X784502Y382498D02*
X790500D01*
Y385497D01*
X789500Y386497D01*
X788501D01*
X787501Y385497D01*
Y382498D01*
Y385497D01*
X786501Y386497D01*
X785502D01*
X784502Y385497D01*
Y382498D01*
Y392495D02*
Y388496D01*
X787501D01*
X786501Y390495D01*
Y391495D01*
X787501Y392495D01*
X789500D01*
X790500Y391495D01*
Y389496D01*
X789500Y388496D01*
X800500Y376500D02*
X794502D01*
Y379499D01*
X795502Y380499D01*
X797501D01*
X798501Y379499D01*
Y376500D01*
X794502Y382498D02*
X800500D01*
Y385497D01*
X799500Y386497D01*
X798501D01*
X797501Y385497D01*
Y382498D01*
Y385497D01*
X796501Y386497D01*
X795502D01*
X794502Y385497D01*
Y382498D01*
X800500Y391495D02*
X794502D01*
X797501Y388496D01*
Y392495D01*
X810500Y369502D02*
X808501Y367503D01*
X806501D01*
X804502Y369502D01*
X810500Y372501D02*
X804502D01*
Y375500D01*
X805502Y376500D01*
X807501D01*
X808501Y375500D01*
Y372501D01*
X804502Y378499D02*
X810500D01*
Y381498D01*
X809500Y382498D01*
X808501D01*
X807501Y381498D01*
Y378499D01*
Y381498D01*
X806501Y382498D01*
X805502D01*
X804502Y381498D01*
Y378499D01*
X805502Y384497D02*
X804502Y385497D01*
Y387496D01*
X805502Y388496D01*
X806501D01*
X807501Y387496D01*
Y386497D01*
Y387496D01*
X808501Y388496D01*
X809500D01*
X810500Y387496D01*
Y385497D01*
X809500Y384497D01*
X810500Y390495D02*
X808501Y392495D01*
X806501D01*
X804502Y390495D01*
X830500Y196500D02*
X824502D01*
Y199499D01*
X825502Y200499D01*
X827501D01*
X828501Y199499D01*
Y196500D01*
X824502Y202498D02*
X830500D01*
Y205497D01*
X829500Y206497D01*
X828501D01*
X827501Y205497D01*
Y202498D01*
Y205497D01*
X826501Y206497D01*
X825502D01*
X824502Y205497D01*
Y202498D01*
X830500Y212495D02*
Y208496D01*
X826501Y212495D01*
X825502D01*
X824502Y211495D01*
Y209496D01*
X825502Y208496D01*
X820500Y196500D02*
X814502D01*
Y199499D01*
X815502Y200499D01*
X817501D01*
X818501Y199499D01*
Y196500D01*
X814502Y202498D02*
X820500D01*
Y205497D01*
X819500Y206497D01*
X818501D01*
X817501Y205497D01*
Y202498D01*
Y205497D01*
X816501Y206497D01*
X815502D01*
X814502Y205497D01*
Y202498D01*
X820500Y208496D02*
Y210495D01*
Y209496D01*
X814502D01*
X815502Y208496D01*
X810500Y196500D02*
X804502D01*
Y199499D01*
X805502Y200499D01*
X807501D01*
X808501Y199499D01*
Y196500D01*
X804502Y202498D02*
X810500D01*
Y205497D01*
X809500Y206497D01*
X808501D01*
X807501Y205497D01*
Y202498D01*
Y205497D01*
X806501Y206497D01*
X805502D01*
X804502Y205497D01*
Y202498D01*
X805502Y208496D02*
X804502Y209496D01*
Y211495D01*
X805502Y212495D01*
X809500D01*
X810500Y211495D01*
Y209496D01*
X809500Y208496D01*
X805502D01*
X860500Y364504D02*
X858501Y362505D01*
X856501D01*
X854502Y364504D01*
X860500Y367503D02*
X854502D01*
Y370502D01*
X855502Y371502D01*
X857501D01*
X858501Y370502D01*
Y367503D01*
X860500Y373501D02*
X856501D01*
X854502Y375500D01*
X856501Y377500D01*
X860500D01*
X857501D01*
Y373501D01*
X860500Y379499D02*
Y381498D01*
Y380499D01*
X854502D01*
X855502Y379499D01*
X854502Y388496D02*
Y384497D01*
X857501D01*
X856501Y386497D01*
Y387496D01*
X857501Y388496D01*
X859500D01*
X860500Y387496D01*
Y385497D01*
X859500Y384497D01*
X860500Y390495D02*
X858501Y392495D01*
X856501D01*
X854502Y390495D01*
X870500Y364504D02*
X868501Y362505D01*
X866501D01*
X864502Y364504D01*
X870500Y367503D02*
X864502D01*
Y370502D01*
X865502Y371502D01*
X867501D01*
X868501Y370502D01*
Y367503D01*
X870500Y373501D02*
X866501D01*
X864502Y375500D01*
X866501Y377500D01*
X870500D01*
X867501D01*
Y373501D01*
X870500Y379499D02*
Y381498D01*
Y380499D01*
X864502D01*
X865502Y379499D01*
X870500Y387496D02*
X864502D01*
X867501Y384497D01*
Y388496D01*
X870500Y390495D02*
X868501Y392495D01*
X866501D01*
X864502Y390495D01*
X863502Y346500D02*
X861503Y348499D01*
Y350499D01*
X863502Y352498D01*
X866501Y346500D02*
Y352498D01*
X869500D01*
X870500Y351498D01*
Y349499D01*
X869500Y348499D01*
X866501D01*
X872499Y346500D02*
Y350499D01*
X874499Y352498D01*
X876498Y350499D01*
Y346500D01*
Y349499D01*
X872499D01*
X878497Y346500D02*
X880497D01*
X879497D01*
Y352498D01*
X878497Y351498D01*
X883496D02*
X884496Y352498D01*
X886495D01*
X887494Y351498D01*
Y350499D01*
X886495Y349499D01*
X885495D01*
X886495D01*
X887494Y348499D01*
Y347500D01*
X886495Y346500D01*
X884496D01*
X883496Y347500D01*
X889494Y346500D02*
X891493Y348499D01*
Y350499D01*
X889494Y352498D01*
X870500Y336500D02*
Y342498D01*
X873499D01*
X874499Y341498D01*
Y339499D01*
X873499Y338499D01*
X870500D01*
X876498Y336500D02*
Y340499D01*
X878497Y342498D01*
X880497Y340499D01*
Y336500D01*
Y339499D01*
X876498D01*
X882496Y336500D02*
X884496D01*
X883496D01*
Y342498D01*
X882496Y341498D01*
X891493Y336500D02*
X887494D01*
X891493Y340499D01*
Y341498D01*
X890493Y342498D01*
X888494D01*
X887494Y341498D01*
X872499Y326500D02*
Y332498D01*
X875498D01*
X876498Y331498D01*
Y329499D01*
X875498Y328499D01*
X872499D01*
X878497Y326500D02*
Y330499D01*
X880497Y332498D01*
X882496Y330499D01*
Y326500D01*
Y329499D01*
X878497D01*
X884496Y326500D02*
X886495D01*
X885495D01*
Y332498D01*
X884496Y331498D01*
X889494Y326500D02*
X891493D01*
X890493D01*
Y332498D01*
X889494Y331498D01*
X870500Y316500D02*
Y322498D01*
X873499D01*
X874499Y321498D01*
Y319499D01*
X873499Y318499D01*
X870500D01*
X876498Y316500D02*
Y320499D01*
X878497Y322498D01*
X880497Y320499D01*
Y316500D01*
Y319499D01*
X876498D01*
X882496Y316500D02*
X884496D01*
X883496D01*
Y322498D01*
X882496Y321498D01*
X887494D02*
X888494Y322498D01*
X890493D01*
X891493Y321498D01*
Y317500D01*
X890493Y316500D01*
X888494D01*
X887494Y317500D01*
Y321498D01*
X875498Y306500D02*
Y312498D01*
X878497D01*
X879497Y311498D01*
Y309499D01*
X878497Y308499D01*
X875498D01*
X881496Y306500D02*
Y310499D01*
X883496Y312498D01*
X885495Y310499D01*
Y306500D01*
Y309499D01*
X881496D01*
X887494Y307500D02*
X888494Y306500D01*
X890493D01*
X891493Y307500D01*
Y311498D01*
X890493Y312498D01*
X888494D01*
X887494Y311498D01*
Y310499D01*
X888494Y309499D01*
X891493D01*
X875498Y296500D02*
Y302498D01*
X878497D01*
X879497Y301498D01*
Y299499D01*
X878497Y298499D01*
X875498D01*
X881496Y296500D02*
Y300499D01*
X883496Y302498D01*
X885495Y300499D01*
Y296500D01*
Y299499D01*
X881496D01*
X887494Y301498D02*
X888494Y302498D01*
X890493D01*
X891493Y301498D01*
Y300499D01*
X890493Y299499D01*
X891493Y298499D01*
Y297500D01*
X890493Y296500D01*
X888494D01*
X887494Y297500D01*
Y298499D01*
X888494Y299499D01*
X887494Y300499D01*
Y301498D01*
X888494Y299499D02*
X890493D01*
X780500Y196500D02*
X774502D01*
Y199499D01*
X775502Y200499D01*
X777501D01*
X778501Y199499D01*
Y196500D01*
X780500Y202498D02*
X776501D01*
X774502Y204497D01*
X776501Y206497D01*
X780500D01*
X777501D01*
Y202498D01*
X774502Y208496D02*
Y212495D01*
X775502D01*
X779500Y208496D01*
X780500D01*
X714486Y376500D02*
X718485D01*
X720484Y378499D01*
X718485Y380499D01*
X714486D01*
X716486Y386497D02*
Y383498D01*
X717485Y382498D01*
X719485D01*
X720484Y383498D01*
Y386497D01*
X716486Y392495D02*
Y389496D01*
X717485Y388496D01*
X719485D01*
X720484Y389496D01*
Y392495D01*
X760500Y196500D02*
X754502D01*
Y199499D01*
X755502Y200499D01*
X757501D01*
X758501Y199499D01*
Y196500D01*
X760500Y202498D02*
X756501D01*
X754502Y204497D01*
X756501Y206497D01*
X760500D01*
X757501D01*
Y202498D01*
X754502Y212495D02*
Y208496D01*
X757501D01*
X756501Y210495D01*
Y211495D01*
X757501Y212495D01*
X759500D01*
X760500Y211495D01*
Y209496D01*
X759500Y208496D01*
X695500Y372498D02*
Y368499D01*
X697499Y366500D01*
X699499Y368499D01*
Y372498D01*
X705497Y370499D02*
X702498D01*
X701498Y369499D01*
Y367500D01*
X702498Y366500D01*
X705497D01*
X711495Y370499D02*
X708496D01*
X707496Y369499D01*
Y367500D01*
X708496Y366500D01*
X711495D01*
X695500Y252498D02*
Y248499D01*
X697499Y246500D01*
X699499Y248499D01*
Y252498D01*
X705497Y250499D02*
X702498D01*
X701498Y249499D01*
Y247500D01*
X702498Y246500D01*
X705497D01*
X711495Y250499D02*
X708496D01*
X707496Y249499D01*
Y247500D01*
X708496Y246500D01*
X711495D01*
X875498Y372498D02*
Y368499D01*
X877498Y366500D01*
X879497Y368499D01*
Y372498D01*
X885495Y370499D02*
X882496D01*
X881496Y369499D01*
Y367500D01*
X882496Y366500D01*
X885495D01*
X891493Y370499D02*
X888494D01*
X887494Y369499D01*
Y367500D01*
X888494Y366500D01*
X891493D01*
X699499Y261498D02*
X698499Y262498D01*
X696500D01*
X695500Y261498D01*
Y257500D01*
X696500Y256500D01*
X698499D01*
X699499Y257500D01*
Y259499D01*
X697499D01*
X701498Y256500D02*
Y262498D01*
X705497Y256500D01*
Y262498D01*
X707496D02*
Y256500D01*
X710495D01*
X711495Y257500D01*
Y261498D01*
X710495Y262498D01*
X707496D01*
X695500Y236500D02*
Y242498D01*
X698499D01*
X699499Y241498D01*
Y239499D01*
X698499Y238499D01*
X695500D01*
X701498Y236500D02*
Y240499D01*
X703497Y242498D01*
X705497Y240499D01*
Y236500D01*
Y239499D01*
X701498D01*
X707496Y241498D02*
X708496Y242498D01*
X710495D01*
X711495Y241498D01*
Y237500D01*
X710495Y236500D01*
X708496D01*
X707496Y237500D01*
Y241498D01*
X879497Y361498D02*
X878497Y362498D01*
X876498D01*
X875498Y361498D01*
Y357500D01*
X876498Y356500D01*
X878497D01*
X879497Y357500D01*
Y359499D01*
X877498D01*
X881496Y356500D02*
Y362498D01*
X885495Y356500D01*
Y362498D01*
X887494D02*
Y356500D01*
X890493D01*
X891493Y357500D01*
Y361498D01*
X890493Y362498D01*
X887494D01*
X855502Y200499D02*
X854502Y199499D01*
Y197500D01*
X855502Y196500D01*
X859500D01*
X860500Y197500D01*
Y199499D01*
X859500Y200499D01*
X857501D01*
Y198499D01*
X860500Y202498D02*
X854502D01*
X860500Y206497D01*
X854502D01*
Y208496D02*
X860500D01*
Y211495D01*
X859500Y212495D01*
X855502D01*
X854502Y211495D01*
Y208496D01*
X67500Y250000D02*
X69499D01*
X68500D01*
Y255998D01*
X67500Y254998D01*
X72498D02*
X73498Y255998D01*
X75497D01*
X76497Y254998D01*
Y251000D01*
X75497Y250000D01*
X73498D01*
X72498Y251000D01*
Y254998D01*
X78496D02*
X79496Y255998D01*
X81495D01*
X82495Y254998D01*
Y251000D01*
X81495Y250000D01*
X79496D01*
X78496Y251000D01*
Y254998D01*
X84495Y250000D02*
Y253999D01*
X87493D01*
X88493Y252999D01*
Y250000D01*
X90000Y227500D02*
X91999D01*
X91000D01*
Y233498D01*
X90000Y232498D01*
X94998D02*
X95998Y233498D01*
X97997D01*
X98997Y232498D01*
Y228500D01*
X97997Y227500D01*
X95998D01*
X94998Y228500D01*
Y232498D01*
X100996D02*
X101996Y233498D01*
X103996D01*
X104995Y232498D01*
Y228500D01*
X103996Y227500D01*
X101996D01*
X100996Y228500D01*
Y232498D01*
X106994Y227500D02*
Y231499D01*
X109994D01*
X110993Y230499D01*
Y227500D01*
X182000Y347000D02*
Y348999D01*
Y348000D01*
X176002D01*
X177002Y347000D01*
Y351998D02*
X176002Y352998D01*
Y354997D01*
X177002Y355997D01*
X181000D01*
X182000Y354997D01*
Y352998D01*
X181000Y351998D01*
X177002D01*
Y357996D02*
X176002Y358996D01*
Y360996D01*
X177002Y361995D01*
X181000D01*
X182000Y360996D01*
Y358996D01*
X181000Y357996D01*
X177002D01*
X182000Y363995D02*
X178001D01*
Y366993D01*
X179001Y367993D01*
X182000D01*
X92999Y197500D02*
Y203498D01*
X90000Y200499D01*
X93999D01*
X95998Y197500D02*
Y198500D01*
X96998D01*
Y197500D01*
X95998D01*
X100996Y203498D02*
X104995D01*
Y202498D01*
X100996Y198500D01*
Y197500D01*
X106994Y201499D02*
Y198500D01*
X107994Y197500D01*
X110993D01*
Y201499D01*
X95000Y217500D02*
X96999D01*
X96000D01*
Y223498D01*
X95000Y222498D01*
X99998D02*
X100998Y223498D01*
X102997D01*
X103997Y222498D01*
Y218500D01*
X102997Y217500D01*
X100998D01*
X99998Y218500D01*
Y222498D01*
X105996Y217500D02*
Y221499D01*
X108995D01*
X109995Y220499D01*
Y217500D01*
X100000Y207500D02*
X101999D01*
X101000D01*
Y213498D01*
X100000Y212498D01*
X104998Y211499D02*
Y208500D01*
X105998Y207500D01*
X108997D01*
Y211499D01*
X236499Y402498D02*
X235499Y403498D01*
X233500D01*
X232500Y402498D01*
Y398500D01*
X233500Y397500D01*
X235499D01*
X236499Y398500D01*
X239498Y397500D02*
X241497D01*
X242497Y398500D01*
Y400499D01*
X241497Y401499D01*
X239498D01*
X238498Y400499D01*
Y398500D01*
X239498Y397500D01*
X244496Y401499D02*
Y397500D01*
Y399499D01*
X245496Y400499D01*
X246496Y401499D01*
X247495D01*
X251494Y402498D02*
Y401499D01*
X250494D01*
X252494D01*
X251494D01*
Y398500D01*
X252494Y397500D01*
X258492D02*
X256492D01*
X255493Y398500D01*
Y400499D01*
X256492Y401499D01*
X258492D01*
X259491Y400499D01*
Y399499D01*
X255493D01*
X261491Y401499D02*
X265489Y397500D01*
X263490Y399499D01*
X265489Y401499D01*
X261491Y397500D01*
X267489Y400499D02*
X271487D01*
X273487Y397500D02*
Y403498D01*
X275486Y401499D01*
X277485Y403498D01*
Y397500D01*
X70000Y222500D02*
X71999D01*
X71000D01*
Y228498D01*
X70000Y227498D01*
X74998D02*
X75998Y228498D01*
X77997D01*
X78997Y227498D01*
Y223500D01*
X77997Y222500D01*
X75998D01*
X74998Y223500D01*
Y227498D01*
X80996Y222500D02*
Y228498D01*
Y224499D02*
X83995Y226499D01*
X80996Y224499D02*
X83995Y222500D01*
X203998Y359000D02*
X204998Y358000D01*
Y356001D01*
X203998Y355001D01*
X200000D01*
X199000Y356001D01*
Y358000D01*
X200000Y359000D01*
X203998D01*
X695500Y306500D02*
Y312498D01*
X699499Y306500D01*
Y312498D01*
X701498Y306500D02*
Y312498D01*
X704497D01*
X705497Y311498D01*
Y309499D01*
X704497Y308499D01*
X701498D01*
X703497D02*
X705497Y306500D01*
X711495Y311498D02*
X710495Y312498D01*
X708496D01*
X707496Y311498D01*
Y310499D01*
X708496Y309499D01*
X710495D01*
X711495Y308499D01*
Y307500D01*
X710495Y306500D01*
X708496D01*
X707496Y307500D01*
X713494Y312498D02*
X717493D01*
X715493D01*
Y306500D01*
X754502Y364504D02*
X760500D01*
Y367503D01*
X759500Y368503D01*
X758501D01*
X757501Y367503D01*
Y364504D01*
Y367503D01*
X756501Y368503D01*
X755502D01*
X754502Y367503D01*
Y364504D01*
Y373501D02*
Y371502D01*
X755502Y370502D01*
X759500D01*
X760500Y371502D01*
Y373501D01*
X759500Y374501D01*
X755502D01*
X754502Y373501D01*
Y379499D02*
Y377500D01*
X755502Y376500D01*
X759500D01*
X760500Y377500D01*
Y379499D01*
X759500Y380499D01*
X755502D01*
X754502Y379499D01*
Y382498D02*
Y386497D01*
Y384497D01*
X760500D01*
X755502Y388496D02*
X754502Y389496D01*
Y391495D01*
X755502Y392495D01*
X759500D01*
X760500Y391495D01*
Y389496D01*
X759500Y388496D01*
X755502D01*
X97000Y392000D02*
X98999D01*
X98000D01*
Y397998D01*
X97000Y396998D01*
X101998D02*
X102998Y397998D01*
X104997D01*
X105997Y396998D01*
Y393000D01*
X104997Y392000D01*
X102998D01*
X101998Y393000D01*
Y396998D01*
X107996Y392000D02*
Y395999D01*
X110995D01*
X111995Y394999D01*
Y392000D01*
X154000Y396000D02*
Y397999D01*
Y397000D01*
X148002D01*
X149002Y396000D01*
Y400998D02*
X148002Y401998D01*
Y403997D01*
X149002Y404997D01*
X153000D01*
X154000Y403997D01*
Y401998D01*
X153000Y400998D01*
X149002D01*
Y406996D02*
X148002Y407996D01*
Y409996D01*
X149002Y410995D01*
X153000D01*
X154000Y409996D01*
Y407996D01*
X153000Y406996D01*
X149002D01*
X154000Y412994D02*
X150001D01*
Y415993D01*
X151001Y416993D01*
X154000D01*
X149002Y347000D02*
X148002Y348000D01*
Y349999D01*
X149002Y350999D01*
X150001D01*
X151001Y349999D01*
Y348999D01*
Y349999D01*
X152001Y350999D01*
X153000D01*
X154000Y349999D01*
Y348000D01*
X153000Y347000D01*
X154000Y352998D02*
X153000D01*
Y353998D01*
X154000D01*
Y352998D01*
X153000Y357996D02*
X154000Y358996D01*
Y360996D01*
X153000Y361995D01*
X149002D01*
X148002Y360996D01*
Y358996D01*
X149002Y357996D01*
X150001D01*
X151001Y358996D01*
Y361995D01*
X154000Y363995D02*
X150001D01*
Y366993D01*
X151001Y367993D01*
X154000D01*
X82799Y322700D02*
X78800D01*
X82799Y326699D01*
Y327698D01*
X81799Y328698D01*
X79800D01*
X78800Y327698D01*
X88797Y322700D02*
X84798D01*
X88797Y326699D01*
Y327698D01*
X87797Y328698D01*
X85798D01*
X84798Y327698D01*
X90796Y326699D02*
Y323700D01*
X91796Y322700D01*
X94795D01*
Y326699D01*
X100793Y328698D02*
X96794D01*
Y325699D01*
X98794D01*
X96794D01*
Y322700D01*
X94000Y358000D02*
Y363998D01*
X95999Y361999D01*
X97999Y363998D01*
Y358000D01*
X99998D02*
Y363998D01*
X102997D01*
X103997Y362998D01*
Y360999D01*
X102997Y359999D01*
X99998D01*
X109995Y358000D02*
X105996D01*
X109995Y361999D01*
Y362998D01*
X108995Y363998D01*
X106996D01*
X105996Y362998D01*
X111994D02*
X112994Y363998D01*
X114993D01*
X115993Y362998D01*
Y361999D01*
X114993Y360999D01*
X113994D01*
X114993D01*
X115993Y359999D01*
Y359000D01*
X114993Y358000D01*
X112994D01*
X111994Y359000D01*
X117992Y362998D02*
X118992Y363998D01*
X120991D01*
X121991Y362998D01*
Y359000D01*
X120991Y358000D01*
X118992D01*
X117992Y359000D01*
Y362998D01*
X123990Y363998D02*
X127989D01*
Y362998D01*
X123990Y359000D01*
Y358000D01*
X54000Y345000D02*
X55999D01*
X55000D01*
Y350998D01*
X54000Y349998D01*
X58998D02*
X59998Y350998D01*
X61997D01*
X62997Y349998D01*
Y346000D01*
X61997Y345000D01*
X59998D01*
X58998Y346000D01*
Y349998D01*
X64996Y348999D02*
Y346000D01*
X65996Y345000D01*
X68995D01*
Y348999D01*
X70995Y350998D02*
Y345000D01*
Y347999D01*
X74993D01*
Y350998D01*
Y345000D01*
X83000Y414998D02*
Y410999D01*
X84999Y409000D01*
X86999Y410999D01*
Y414998D01*
X88998D02*
X90997D01*
X89998D01*
Y409000D01*
X88998D01*
X90997D01*
X93996D02*
Y412999D01*
X96996D01*
X97995Y411999D01*
Y409000D01*
X154000Y372000D02*
Y373999D01*
Y373000D01*
X148002D01*
X149002Y372000D01*
Y376998D02*
X148002Y377998D01*
Y379997D01*
X149002Y380997D01*
X153000D01*
X154000Y379997D01*
Y377998D01*
X153000Y376998D01*
X149002D01*
Y382996D02*
X148002Y383996D01*
Y385996D01*
X149002Y386995D01*
X153000D01*
X154000Y385996D01*
Y383996D01*
X153000Y382996D01*
X149002D01*
X154000Y388995D02*
X148002D01*
X152001D02*
X150001Y391993D01*
X152001Y388995D02*
X154000Y391993D01*
X148002Y325999D02*
X149002Y323999D01*
X151001Y322000D01*
X153000D01*
X154000Y323000D01*
Y324999D01*
X153000Y325999D01*
X152001D01*
X151001Y324999D01*
Y322000D01*
X154000Y327998D02*
X153000D01*
Y328998D01*
X154000D01*
Y327998D01*
X149002Y332996D02*
X148002Y333996D01*
Y335996D01*
X149002Y336995D01*
X150001D01*
X151001Y335996D01*
X152001Y336995D01*
X153000D01*
X154000Y335996D01*
Y333996D01*
X153000Y332996D01*
X152001D01*
X151001Y333996D01*
X150001Y332996D01*
X149002D01*
X151001Y333996D02*
Y335996D01*
X154000Y338995D02*
X148002D01*
X152001D02*
X150001Y341993D01*
X152001Y338995D02*
X154000Y341993D01*
X118714Y318999D02*
Y315000D01*
X121714D01*
X120714Y316999D01*
Y317999D01*
X121714Y318999D01*
X123713D01*
X124713Y317999D01*
Y316000D01*
X123713Y315000D01*
X118714Y324997D02*
X119714Y322997D01*
X121714Y320998D01*
X123713D01*
X124713Y321998D01*
Y323997D01*
X123713Y324997D01*
X122713D01*
X121714Y323997D01*
Y320998D01*
X124713Y326996D02*
X118714D01*
X122713D02*
X120714Y329995D01*
X122713Y326996D02*
X124713Y329995D01*
X60000Y371000D02*
X61999D01*
X61000D01*
Y376998D01*
X60000Y375998D01*
X64998D02*
X65998Y376998D01*
X67997D01*
X68997Y375998D01*
Y372000D01*
X67997Y371000D01*
X65998D01*
X64998Y372000D01*
Y375998D01*
X70996Y374999D02*
Y372000D01*
X71996Y371000D01*
X74995D01*
Y374999D01*
X80993Y376998D02*
X76995D01*
Y373999D01*
X78994D01*
X76995D01*
Y371000D01*
X102000Y414998D02*
Y410999D01*
X103999Y409000D01*
X105999Y410999D01*
Y414998D01*
X111997Y412999D02*
X108998D01*
X107998Y411999D01*
Y410000D01*
X108998Y409000D01*
X111997D01*
X117995Y412999D02*
X114996D01*
X113996Y411999D01*
Y410000D01*
X114996Y409000D01*
X117995D01*
X125999Y413998D02*
X124999Y414998D01*
X123000D01*
X122000Y413998D01*
Y410000D01*
X123000Y409000D01*
X124999D01*
X125999Y410000D01*
Y411999D01*
X123999D01*
X127998Y409000D02*
Y414998D01*
X131997Y409000D01*
Y414998D01*
X133996D02*
Y409000D01*
X136995D01*
X137995Y410000D01*
Y413998D01*
X136995Y414998D01*
X133996D01*
X114000Y81998D02*
Y77000D01*
X115000Y76000D01*
X116999D01*
X117999Y77000D01*
Y81998D01*
X119998D02*
Y76000D01*
X123997D01*
X125996D02*
Y81998D01*
X129995Y76000D01*
Y81998D01*
X135993Y76000D02*
X131994D01*
X135993Y79999D01*
Y80998D01*
X134993Y81998D01*
X132994D01*
X131994Y80998D01*
X137992D02*
X138992Y81998D01*
X140991D01*
X141991Y80998D01*
Y77000D01*
X140991Y76000D01*
X138992D01*
X137992Y77000D01*
Y80998D01*
X143990D02*
X144990Y81998D01*
X146989D01*
X147989Y80998D01*
Y77000D01*
X146989Y76000D01*
X144990D01*
X143990Y77000D01*
Y80998D01*
X149988D02*
X150988Y81998D01*
X152987D01*
X153987Y80998D01*
Y79999D01*
X152987Y78999D01*
X151988D01*
X152987D01*
X153987Y77999D01*
Y77000D01*
X152987Y76000D01*
X150988D01*
X149988Y77000D01*
X155986Y76000D02*
Y79999D01*
X157986Y81998D01*
X159985Y79999D01*
Y76000D01*
Y78999D01*
X155986D01*
X161985Y81998D02*
Y76000D01*
X164983D01*
X165983Y77000D01*
Y80998D01*
X164983Y81998D01*
X161985D01*
X300999Y131998D02*
X299999Y132998D01*
X298000D01*
X297000Y131998D01*
Y128000D01*
X298000Y127000D01*
X299999D01*
X300999Y128000D01*
Y129999D01*
X298999D01*
X302998Y127000D02*
Y132998D01*
X306997Y127000D01*
Y132998D01*
X308996D02*
Y127000D01*
X311995D01*
X312995Y128000D01*
Y131998D01*
X311995Y132998D01*
X308996D01*
X297000Y143998D02*
Y139999D01*
X298999Y138000D01*
X300999Y139999D01*
Y143998D01*
X306997Y141999D02*
X303998D01*
X302998Y140999D01*
Y139000D01*
X303998Y138000D01*
X306997D01*
X312995Y141999D02*
X309996D01*
X308996Y140999D01*
Y139000D01*
X309996Y138000D01*
X312995D01*
X210000Y83999D02*
Y80000D01*
X206001Y83999D01*
X205002D01*
X204002Y82999D01*
Y81000D01*
X205002Y80000D01*
Y85998D02*
X204002Y86998D01*
Y88997D01*
X205002Y89997D01*
X209000D01*
X210000Y88997D01*
Y86998D01*
X209000Y85998D01*
X205002D01*
X210000Y91996D02*
Y93995D01*
Y92996D01*
X204002D01*
X205002Y91996D01*
X209000Y96995D02*
X210000Y97994D01*
Y99993D01*
X209000Y100993D01*
X205002D01*
X204002Y99993D01*
Y97994D01*
X205002Y96995D01*
X206001D01*
X207001Y97994D01*
Y100993D01*
Y102993D02*
Y106991D01*
X205002Y108991D02*
X204002Y109990D01*
Y111990D01*
X205002Y112989D01*
X209000D01*
X210000Y111990D01*
Y109990D01*
X209000Y108991D01*
X205002D01*
Y114989D02*
X204002Y115988D01*
Y117988D01*
X205002Y118987D01*
X206001D01*
X207001Y117988D01*
X208001Y118987D01*
X209000D01*
X210000Y117988D01*
Y115988D01*
X209000Y114989D01*
X208001D01*
X207001Y115988D01*
X206001Y114989D01*
X205002D01*
X207001Y115988D02*
Y117988D01*
Y120987D02*
Y124985D01*
X205002Y126985D02*
X204002Y127984D01*
Y129984D01*
X205002Y130983D01*
X209000D01*
X210000Y129984D01*
Y127984D01*
X209000Y126985D01*
X205002D01*
Y132983D02*
X204002Y133983D01*
Y135982D01*
X205002Y136982D01*
X206001D01*
X207001Y135982D01*
Y134982D01*
Y135982D01*
X208001Y136982D01*
X209000D01*
X210000Y135982D01*
Y133983D01*
X209000Y132983D01*
X216001Y80000D02*
X220000D01*
X218001D01*
X217001Y81000D01*
X216001Y81999D01*
Y82999D01*
X220000Y88997D02*
Y86998D01*
X219000Y85998D01*
X217001D01*
X216001Y86998D01*
Y88997D01*
X217001Y89997D01*
X218001D01*
Y85998D01*
X216001Y91996D02*
X220000Y93995D01*
X216001Y95995D01*
X220000Y101993D02*
Y97994D01*
X216001Y101993D01*
X215002D01*
X214002Y100993D01*
Y98994D01*
X215002Y97994D01*
X200000Y80000D02*
Y82999D01*
X199000Y83999D01*
X198001Y82999D01*
Y81000D01*
X197001Y80000D01*
X196001Y81000D01*
Y83999D01*
X195002Y86998D02*
X196001D01*
Y85998D01*
Y87997D01*
Y86998D01*
X199000D01*
X200000Y87997D01*
Y90996D02*
X196001D01*
Y91996D01*
X197001Y92996D01*
X200000D01*
X197001D01*
X196001Y93995D01*
X197001Y94995D01*
X200000D01*
X195002Y96995D02*
X194002Y97994D01*
Y99993D01*
X195002Y100993D01*
X196001D01*
X197001Y99993D01*
Y98994D01*
Y99993D01*
X198001Y100993D01*
X199000D01*
X200000Y99993D01*
Y97994D01*
X199000Y96995D01*
X200000Y106991D02*
Y102993D01*
X196001Y106991D01*
X195002D01*
X194002Y105992D01*
Y103992D01*
X195002Y102993D01*
X200000Y109990D02*
X195002D01*
X197001D01*
Y108991D01*
Y110990D01*
Y109990D01*
X195002D01*
X194002Y110990D01*
X200000Y113989D02*
Y115988D01*
Y114989D01*
X194002D01*
X195002Y113989D01*
Y118987D02*
X194002Y119987D01*
Y121986D01*
X195002Y122986D01*
X199000D01*
X200000Y121986D01*
Y119987D01*
X199000Y118987D01*
X195002D01*
Y124985D02*
X194002Y125985D01*
Y127984D01*
X195002Y128984D01*
X196001D01*
X197001Y127984D01*
Y126985D01*
Y127984D01*
X198001Y128984D01*
X199000D01*
X200000Y127984D01*
Y125985D01*
X199000Y124985D01*
X196001Y134982D02*
Y131983D01*
X197001Y130983D01*
X199000D01*
X200000Y131983D01*
Y134982D01*
X196001Y136982D02*
X200000Y140980D01*
X198001Y138981D01*
X196001Y140980D01*
X200000Y136982D01*
D38*
X775992Y302189D02*
G03*
X775992Y302189I-1181J0D01*
G01*
D39*
X766740Y306421D02*
G03*
X766740Y306421I-492J0D01*
G01*
X98992Y387000D02*
G03*
X98992Y387000I-492J0D01*
G01*
X311043Y110846D02*
G03*
X311043Y110846I-492J0D01*
G01*
D40*
X115842Y342000D02*
G03*
X115842Y342000I-9843J0D01*
G01*
X129154Y278189D02*
G03*
X110847Y278189I-9154J0D01*
G01*
Y251811D02*
G03*
X129154Y251811I9154J0D01*
G01*
X107000Y386000D02*
G03*
X111000Y386000I2000J0D01*
G01*
X318000Y109500D02*
G03*
X322000Y109500I2000J0D01*
G01*
X770874Y271874D02*
X805126D01*
X770874Y306126D02*
X805126D01*
Y271874D02*
Y306126D01*
X770874Y271874D02*
Y306126D01*
X79961Y333039D02*
Y362961D01*
X50039Y333039D02*
Y362961D01*
X69921D02*
X79961D01*
X69921Y333039D02*
X79961D01*
X50039Y362961D02*
X60079D01*
X50039Y333039D02*
X60079D01*
X93347Y339622D02*
Y342378D01*
X86654Y339622D02*
Y342378D01*
X82653Y376622D02*
Y379378D01*
X89346Y376622D02*
Y379378D01*
X239803Y107835D02*
X240197D01*
X239803Y112165D02*
X240197D01*
X239803Y97835D02*
X240197D01*
X239803Y102165D02*
X240197D01*
X239803Y87835D02*
X240197D01*
X239803Y92165D02*
X240197D01*
X239803Y77835D02*
X240197D01*
X239803Y82165D02*
X240197D01*
X239803Y67835D02*
X240197D01*
X239803Y72165D02*
X240197D01*
X239803Y57835D02*
X240197D01*
X239803Y62165D02*
X240197D01*
X77303Y237165D02*
X77697Y237165D01*
X77303Y232835D02*
X77697Y232835D01*
X212165Y352803D02*
Y353197D01*
X207835Y352803D02*
Y353197D01*
X217835Y134803D02*
X217835Y135197D01*
X222165D02*
X222165Y134803D01*
X129154Y251811D02*
X129154Y278189D01*
X110847Y251811D02*
X110847Y278189D01*
X237835Y134803D02*
Y135197D01*
X242165Y134803D02*
Y135197D01*
X227835Y134803D02*
Y135197D01*
X232165Y134803D02*
Y135197D01*
X139032Y379803D02*
Y380197D01*
X142968Y379803D02*
Y380197D01*
X139032Y342642D02*
Y343035D01*
X142968Y342642D02*
Y343035D01*
X119032Y338803D02*
Y339197D01*
X122968Y338803D02*
Y339197D01*
X130968Y338803D02*
Y339197D01*
X127032Y338803D02*
Y339197D01*
X102500Y366158D02*
X115000D01*
X102500D02*
Y386000D01*
X107000D01*
X115000Y366158D02*
Y386000D01*
X111000D02*
X115000D01*
X316457Y70315D02*
X323543D01*
Y109685D01*
X316457Y70315D02*
Y109685D01*
X317815D01*
X321957D02*
X323315D01*
D41*
X160000Y102500D02*
G03*
X160000Y97500I0J-2500D01*
G01*
X161800Y112500D02*
G03*
X161800Y112500I-800J0D01*
G01*
X120000Y105000D02*
X160000D01*
X120000Y95000D02*
Y105000D01*
Y95000D02*
X160000D01*
Y97500D01*
Y102500D02*
Y105000D01*
D42*
X218425Y150000D02*
X220000Y148425D01*
X218425Y150000D02*
X221575D01*
X220000D02*
Y151575D01*
Y148425D02*
X221575Y150000D01*
X218425Y148425D02*
X221575D01*
X222362Y151575D02*
X222362Y148425D01*
X217638D02*
X217638Y151575D01*
X228425Y150000D02*
X230000Y148425D01*
X228425Y150000D02*
X231575D01*
X230000D02*
Y151575D01*
Y148425D02*
X231575Y150000D01*
X228425Y148425D02*
X231575D01*
X232362D02*
Y151575D01*
X227638Y148425D02*
Y151575D01*
X238425Y150000D02*
X240000Y148425D01*
X238425Y150000D02*
X241575D01*
X240000D02*
Y151575D01*
Y148425D02*
X241575Y150000D01*
X238425Y148425D02*
X241575D01*
X242362D02*
Y151575D01*
X237638Y148425D02*
Y151575D01*
D43*
X105950Y326614D02*
Y330550D01*
X103982Y328582D02*
X107918D01*
M02*
