G04 Layer_Physical_Order=1*
G04 Layer_Color=25308*
%FSLAX25Y25*%
%MOIN*%
G70*
G01*
G75*
%ADD10O,0.00984X0.06102*%
%ADD11O,0.06102X0.00984*%
%ADD12R,0.05118X0.05709*%
%ADD13R,0.06693X0.11811*%
%ADD14R,0.07480X0.05906*%
%ADD15R,0.06102X0.05906*%
%ADD16R,0.05709X0.05118*%
%ADD17R,0.03937X0.05118*%
%ADD18R,0.05118X0.03937*%
%ADD19R,0.05118X0.04528*%
%ADD20R,0.04724X0.03150*%
%ADD21O,0.06300X0.02400*%
%ADD22O,0.08661X0.02362*%
%ADD23O,0.02600X0.09000*%
%ADD24C,0.01000*%
%ADD25C,0.03000*%
%ADD26C,0.02500*%
%ADD27R,0.10300X0.13800*%
%ADD28C,0.08000*%
%ADD29C,0.05118*%
%ADD30R,0.05118X0.05118*%
%ADD31C,0.25984*%
%ADD32C,0.06000*%
%ADD33R,0.06000X0.06000*%
%ADD34R,0.04724X0.04724*%
%ADD35C,0.04724*%
%ADD36O,0.03937X0.02953*%
%ADD37C,0.02000*%
D10*
X773236Y310752D02*
D03*
X775205D02*
D03*
X777173D02*
D03*
X779142D02*
D03*
X781110D02*
D03*
X783079D02*
D03*
X785047D02*
D03*
X787016D02*
D03*
X788984D02*
D03*
X790953D02*
D03*
X792921D02*
D03*
X794890D02*
D03*
X796858D02*
D03*
X798827D02*
D03*
X800795D02*
D03*
X802764D02*
D03*
Y267248D02*
D03*
X800795D02*
D03*
X798827D02*
D03*
X796858D02*
D03*
X794890D02*
D03*
X792921D02*
D03*
X790953D02*
D03*
X788984D02*
D03*
X787016D02*
D03*
X785047D02*
D03*
X783079D02*
D03*
X781110D02*
D03*
X779142D02*
D03*
X777173D02*
D03*
X775205D02*
D03*
X773236D02*
D03*
D11*
X809752Y303764D02*
D03*
Y301795D02*
D03*
Y299827D02*
D03*
Y297858D02*
D03*
Y295890D02*
D03*
Y293921D02*
D03*
Y291953D02*
D03*
Y289984D02*
D03*
Y288016D02*
D03*
Y286047D02*
D03*
Y284079D02*
D03*
Y282110D02*
D03*
Y280142D02*
D03*
Y278173D02*
D03*
Y276205D02*
D03*
Y274236D02*
D03*
X766248D02*
D03*
Y276205D02*
D03*
Y278173D02*
D03*
Y280142D02*
D03*
Y282110D02*
D03*
Y284079D02*
D03*
Y286047D02*
D03*
Y288016D02*
D03*
Y289984D02*
D03*
Y291953D02*
D03*
Y293921D02*
D03*
Y295890D02*
D03*
Y297858D02*
D03*
Y299827D02*
D03*
Y301795D02*
D03*
Y303764D02*
D03*
D12*
X448150Y93000D02*
D03*
X441850D02*
D03*
X313150Y120000D02*
D03*
X306850D02*
D03*
X123150Y210000D02*
D03*
X116850D02*
D03*
X123150Y220000D02*
D03*
X116850D02*
D03*
X123150Y200000D02*
D03*
X116850D02*
D03*
X123150Y230000D02*
D03*
X116850D02*
D03*
X80650Y245000D02*
D03*
X74351D02*
D03*
X96421Y254718D02*
D03*
X102721D02*
D03*
X96422Y292718D02*
D03*
X102721D02*
D03*
X96422Y305218D02*
D03*
X102721D02*
D03*
X96421Y274718D02*
D03*
X102721D02*
D03*
X92150Y395000D02*
D03*
X85850D02*
D03*
D13*
X65000Y359000D02*
D03*
Y337000D02*
D03*
D14*
X90000Y346905D02*
D03*
Y335094D02*
D03*
X86000Y372094D02*
D03*
Y383906D02*
D03*
D15*
X141000Y357457D02*
D03*
Y364543D02*
D03*
Y394457D02*
D03*
Y401543D02*
D03*
D16*
X310000Y328150D02*
D03*
Y321850D02*
D03*
X280000Y151850D02*
D03*
Y158150D02*
D03*
X170000Y351851D02*
D03*
Y358150D02*
D03*
D17*
X243642Y110000D02*
D03*
X236358D02*
D03*
X243642Y100000D02*
D03*
X236358D02*
D03*
X243642Y90000D02*
D03*
X236358D02*
D03*
X243642Y80000D02*
D03*
X236358D02*
D03*
X243642Y70000D02*
D03*
X236358D02*
D03*
X243642Y60000D02*
D03*
X236358D02*
D03*
X73858Y235000D02*
D03*
X81142D02*
D03*
D18*
X210000Y356642D02*
D03*
Y349358D02*
D03*
X220000Y131358D02*
D03*
X220000Y138642D02*
D03*
X240000Y131358D02*
D03*
Y138642D02*
D03*
X230000Y131358D02*
D03*
Y138642D02*
D03*
D19*
X220000Y154429D02*
D03*
Y145571D02*
D03*
X230000Y154429D02*
D03*
Y145571D02*
D03*
X240000Y154429D02*
D03*
Y145571D02*
D03*
D20*
X141000Y376752D02*
D03*
Y383248D02*
D03*
Y339591D02*
D03*
Y346087D02*
D03*
X121000Y335752D02*
D03*
Y342248D02*
D03*
X129000D02*
D03*
Y335752D02*
D03*
D21*
X119400Y368500D02*
D03*
Y373500D02*
D03*
Y378500D02*
D03*
Y383500D02*
D03*
X98148Y368500D02*
D03*
Y373500D02*
D03*
Y378500D02*
D03*
Y383500D02*
D03*
D22*
X329449Y72500D02*
D03*
Y77500D02*
D03*
Y82500D02*
D03*
Y87500D02*
D03*
Y92500D02*
D03*
Y97500D02*
D03*
Y102500D02*
D03*
Y107500D02*
D03*
X310551Y72500D02*
D03*
Y77500D02*
D03*
Y82500D02*
D03*
Y87500D02*
D03*
Y92500D02*
D03*
Y97500D02*
D03*
Y102500D02*
D03*
Y107500D02*
D03*
D23*
X157500Y89000D02*
D03*
X152500D02*
D03*
X147500D02*
D03*
X142500D02*
D03*
X137500D02*
D03*
X132500D02*
D03*
X127500D02*
D03*
X122500D02*
D03*
Y111000D02*
D03*
X127500D02*
D03*
X132500D02*
D03*
X137500D02*
D03*
X142500D02*
D03*
X147500D02*
D03*
X152500D02*
D03*
X157500D02*
D03*
D24*
X778000Y390000D02*
Y399000D01*
Y390000D02*
X785047Y382953D01*
Y310752D02*
Y382953D01*
X787000Y383000D02*
X787016Y382984D01*
Y310752D02*
Y382984D01*
X789000Y383000D02*
X798000Y392000D01*
X789000Y310768D02*
Y383000D01*
X798000Y392000D02*
Y399000D01*
X790953Y374953D02*
X808000Y392000D01*
X790953Y310752D02*
Y374953D01*
X808000Y392000D02*
Y399000D01*
X792921Y366921D02*
X818000Y392000D01*
X792921Y310752D02*
Y366921D01*
X818000Y392000D02*
Y399000D01*
X794890Y358890D02*
X828000Y392000D01*
X794890Y310752D02*
Y358890D01*
X828000Y392000D02*
Y399000D01*
X796858Y350858D02*
X838000Y392000D01*
X796858Y310752D02*
Y350858D01*
X838000Y392000D02*
Y399000D01*
X798827Y342827D02*
X848000Y392000D01*
X798827Y310752D02*
Y342827D01*
X848000Y392000D02*
Y399000D01*
X800795Y334795D02*
X858000Y392000D01*
X800795Y310752D02*
Y334795D01*
X858000Y392000D02*
Y399000D01*
X802764Y324764D02*
X868000Y390000D01*
X802764Y310752D02*
Y324764D01*
X868000Y399000D02*
X868000Y399000D01*
Y390000D02*
Y399000D01*
X788000Y390000D02*
Y399000D01*
X787000Y389000D02*
X788000Y390000D01*
X787000Y383000D02*
Y389000D01*
X788984Y310752D02*
X789000Y310768D01*
X96421Y254718D02*
Y311421D01*
X95500Y373500D02*
X99748D01*
X91000Y378000D02*
X95500Y373500D01*
X75000Y378000D02*
X91000D01*
X170000Y340000D02*
Y351851D01*
X95500Y378500D02*
X99748D01*
X90095Y383906D02*
X95500Y378500D01*
X86000Y383906D02*
X90095D01*
X120000Y300165D02*
X123835D01*
X134000Y290000D01*
X120000Y295835D02*
X135835Y280000D01*
X318000Y304000D02*
Y325000D01*
X315000Y328000D02*
X318000Y325000D01*
X310150Y328000D02*
X315000D01*
X114947Y305218D02*
X120000Y300165D01*
X102721Y305218D02*
X114947D01*
X102721Y292718D02*
X116884D01*
X120000Y295835D01*
X116850Y200000D02*
Y220000D01*
X113000Y111000D02*
X122500D01*
X100000Y124000D02*
X113000Y111000D01*
X100000Y166000D02*
X116850Y182851D01*
Y200000D01*
X230000Y131358D02*
X240000D01*
X220000D02*
X230000D01*
X230000Y131358D02*
X230000Y131358D01*
X110000Y137000D02*
Y160000D01*
Y137000D02*
X127500Y119500D01*
Y111000D02*
Y119500D01*
X120000Y134000D02*
Y160000D01*
Y134000D02*
X132500Y121500D01*
Y111000D02*
Y121500D01*
X130000Y131000D02*
Y160000D01*
Y131000D02*
X137500Y123500D01*
Y111000D02*
Y123500D01*
X140000Y130000D02*
Y160000D01*
Y130000D02*
X142500Y127500D01*
Y111000D02*
Y127500D01*
X150000Y130000D02*
Y160000D01*
X147500Y127500D02*
X150000Y130000D01*
X147500Y111000D02*
Y127500D01*
X160000Y128000D02*
Y160000D01*
X152500Y120500D02*
X160000Y128000D01*
X152500Y111000D02*
Y120500D01*
X170000Y119000D02*
Y160000D01*
X162000Y111000D02*
X170000Y119000D01*
X157500Y111000D02*
X162000D01*
X170000Y60000D02*
Y71000D01*
X157500Y83500D02*
X170000Y71000D01*
X157500Y83500D02*
Y89000D01*
X160000Y60000D02*
Y73000D01*
X152500Y80500D02*
X160000Y73000D01*
X152500Y80500D02*
Y89000D01*
X150000Y60000D02*
Y78000D01*
X147500Y80500D02*
X150000Y78000D01*
X147500Y80500D02*
Y89000D01*
X142500Y79500D02*
Y89000D01*
X140000Y77000D02*
X142500Y79500D01*
X140000Y60000D02*
Y77000D01*
X130000Y60000D02*
Y76000D01*
X137500Y83500D01*
Y89000D01*
X120000Y60000D02*
Y71000D01*
X132500Y83500D01*
Y89000D01*
X110000Y60000D02*
Y76000D01*
X114000Y80000D01*
X125000D01*
X127500Y82500D01*
Y89000D01*
X91000Y50000D02*
X110000D01*
X91000D02*
Y77000D01*
X90000Y50000D02*
X91000D01*
Y77000D02*
X103000Y89000D01*
X122500D01*
X160000Y50000D02*
X170000D01*
X150000D02*
X160000D01*
X140000D02*
X150000D01*
X130000D02*
X140000D01*
X120000D02*
X130000D01*
X110000D02*
X120000D01*
X119324Y254718D02*
X120000Y255394D01*
X102721Y254718D02*
X119324D01*
X102721Y274718D02*
X102833Y274606D01*
X120000D01*
X120000Y255394D02*
X124606Y260000D01*
X120000Y274606D02*
X124606Y270000D01*
X140000D01*
X124606Y260000D02*
X140000D01*
X122500Y240000D02*
X132500Y250000D01*
X80650Y245000D02*
X85650Y240000D01*
X81142Y235000D02*
Y235492D01*
X85650Y240000D01*
X260000Y110000D02*
X285598D01*
X260000Y100000D02*
X285598D01*
X298098Y87500D01*
X310551D01*
X260000Y90000D02*
X285598D01*
X298098Y77500D01*
X310551D01*
X260000Y80000D02*
X278098D01*
X301606Y56492D01*
X324106D01*
X260000Y70000D02*
X283098D01*
X301606Y51492D01*
X336606D01*
X329449Y82500D02*
X343098D01*
X260000Y60000D02*
X288098D01*
X301606Y46492D01*
X339106D01*
X351606Y58992D01*
X243642Y110000D02*
X260000D01*
X243642Y100000D02*
X260000D01*
X243642Y90000D02*
X260000D01*
X243642Y70000D02*
X260000D01*
X243642Y60000D02*
X260000D01*
X304106Y113945D02*
X310551Y107500D01*
X285598Y110000D02*
X298098Y97500D01*
X310551D01*
Y72500D02*
X318114D01*
X300114Y102500D02*
X310551D01*
X343098Y82500D02*
X346606Y78992D01*
X329449Y77500D02*
X341098D01*
X300114Y82500D02*
X310551D01*
X300114Y92500D02*
X310551D01*
X300106Y92492D02*
X300114Y92500D01*
X300106Y102492D02*
X300114Y102500D01*
X329449Y97500D02*
X345598D01*
X351606Y91492D01*
X329449Y102500D02*
X341114D01*
X360106Y121492D01*
X364106D01*
X371106Y114492D01*
Y62492D02*
Y114492D01*
X368615Y60000D02*
X371106Y62492D01*
X360000Y60000D02*
X368615D01*
X324106Y56492D02*
X329449Y61834D01*
X336606Y51492D02*
X346606Y61492D01*
Y78992D01*
X351606Y58992D02*
Y91492D01*
X329449Y61834D02*
Y72500D01*
X323114Y87500D02*
X329449D01*
X313052Y119546D02*
X319106Y113492D01*
Y73492D02*
Y113492D01*
X318114Y72500D02*
X319106Y73492D01*
X321106Y85492D02*
X323114Y87500D01*
X321106Y65492D02*
Y85492D01*
Y65492D02*
X322106Y64492D01*
X220000Y154429D02*
Y170000D01*
X230000Y154429D02*
Y170000D01*
X240000Y154429D02*
Y170000D01*
X220000Y138642D02*
Y145571D01*
X230000Y138642D02*
Y145571D01*
X240000Y138642D02*
Y145571D01*
X280000Y158150D02*
Y170000D01*
X123150Y210000D02*
X123150Y210000D01*
X123150Y200000D02*
X123150Y200000D01*
X78718Y254718D02*
X96421D01*
X74351Y250350D02*
X78718Y254718D01*
X74351Y245000D02*
Y250350D01*
X123150Y230000D02*
X140000D01*
X123150Y230000D02*
Y234850D01*
X121000Y237000D02*
X123150Y234850D01*
X123150Y200000D02*
Y210000D01*
X123150Y210000D02*
Y230000D01*
X106000Y237000D02*
X121000D01*
X270000Y359000D02*
X275000Y364000D01*
Y375000D01*
X280000Y380000D01*
X270000Y340000D02*
Y359000D01*
X260000Y340000D02*
Y360000D01*
X265000Y365000D01*
Y375000D01*
X270000Y380000D01*
X260000Y370000D02*
Y373000D01*
X265000Y378000D01*
X270000Y370000D02*
Y373000D01*
X275000Y378000D01*
X285000Y375000D02*
X290000Y370000D01*
X282000Y389000D02*
X285000Y386000D01*
X272000Y389000D02*
X282000D01*
X285000Y375000D02*
Y386000D01*
X272000Y389000D02*
X275000Y386000D01*
Y378000D02*
Y386000D01*
X262000Y389000D02*
X272000D01*
X262000D02*
X265000Y386000D01*
Y378000D02*
Y386000D01*
X236000Y389000D02*
X262000D01*
X210000Y340000D02*
Y349358D01*
Y363000D02*
X236000Y389000D01*
X96000Y246000D02*
Y254297D01*
X96421Y254718D01*
X71000Y245000D02*
X74351D01*
X67000Y241000D02*
X71000Y245000D01*
X73858Y232142D02*
Y235000D01*
Y232142D02*
X77000Y229000D01*
X67000D02*
Y241000D01*
Y229000D02*
X76000Y220000D01*
X116850D01*
X116850D01*
X116850D02*
Y230000D01*
X273150Y151850D02*
X280000D01*
X270000Y155000D02*
X273150Y151850D01*
X270000Y155000D02*
Y170000D01*
X240000Y131358D02*
X246358D01*
X270000Y155000D01*
X170000Y358150D02*
X177850D01*
X179984Y356016D01*
X177850Y358150D02*
X209850D01*
X210000Y358000D01*
Y356642D02*
Y358000D01*
Y363000D01*
X99748Y383500D02*
Y387795D01*
X92543Y395000D02*
X99748Y387795D01*
X141000Y376161D02*
X146161D01*
X75000Y393000D02*
X77000Y395000D01*
X85457D01*
X85650Y240000D02*
X122500D01*
X98000Y229000D02*
X106000Y237000D01*
X77000Y229000D02*
X98000D01*
X100000Y124000D02*
Y166000D01*
X146161Y376161D02*
X150000Y380000D01*
Y404000D01*
X146000Y408000D02*
X150000Y404000D01*
X85000Y408000D02*
X146000D01*
X304106Y113945D02*
Y133894D01*
X305850Y151850D02*
X313052Y144649D01*
X293000Y145000D02*
X304106Y133894D01*
X240000Y122000D02*
Y131358D01*
X236358Y118358D02*
X240000Y122000D01*
X236358Y90000D02*
Y100000D01*
X243642Y80000D02*
X260000D01*
X236358D02*
Y90000D01*
Y70000D02*
Y80000D01*
Y60000D02*
Y70000D01*
Y100000D02*
Y110000D01*
Y118358D01*
X313052Y119546D02*
Y144649D01*
X280000Y151850D02*
X305850D01*
D25*
X120600Y367300D02*
X121000Y366900D01*
X89906Y372094D02*
X93500Y368500D01*
X86000Y372094D02*
X89906D01*
X89595Y347311D02*
Y364595D01*
X93500Y368500D01*
X89595Y347311D02*
X90000Y346905D01*
X96422Y305218D02*
Y315422D01*
X98000Y317000D01*
X120343Y329658D02*
X140000Y310000D01*
X120343Y329658D02*
Y335094D01*
X106000D02*
X120343D01*
X121000Y335752D01*
X90000Y335094D02*
X106000D01*
X90000Y346905D02*
X105032D01*
X106000Y345937D01*
Y335094D02*
Y338063D01*
X121000Y342248D02*
X129000D01*
X121000D02*
Y366900D01*
X119800Y368100D02*
X120600Y367300D01*
X136000Y334000D02*
X141000Y339000D01*
Y346677D02*
Y357457D01*
X125500Y378500D02*
X130839Y383839D01*
X118252Y378500D02*
X125500D01*
X118252Y373500D02*
X131043D01*
X130839Y383839D02*
X141000D01*
X131043Y373500D02*
X140000Y364543D01*
X141000D01*
X65000Y368000D02*
X75000Y378000D01*
X65000Y359000D02*
Y368000D01*
X88095Y337000D02*
X90000Y335094D01*
X65000Y337000D02*
X88095D01*
X73094Y383906D02*
X86000D01*
X90000Y413000D02*
Y420000D01*
X85000Y408000D02*
X90000Y413000D01*
X70000Y387000D02*
X73094Y383906D01*
X70000Y387000D02*
Y393000D01*
X85000Y408000D01*
X134457Y394457D02*
X141000D01*
X131000Y391000D02*
X134457Y394457D01*
X118252Y384000D02*
Y390252D01*
X129543Y401543D01*
X141000D01*
X111000Y420000D02*
X119000Y428000D01*
X149000D01*
X158000Y419000D01*
Y356000D02*
Y419000D01*
Y356000D02*
X162150Y351851D01*
X170000D01*
X313150Y120000D02*
Y123150D01*
X320000Y130000D01*
X330000D01*
X340000D01*
X350000D01*
X360000D01*
X370000D01*
X380000D01*
X390000D01*
X400000D01*
X410000D01*
X420000D01*
X130752Y334000D02*
X136000D01*
X129000Y335752D02*
X130752Y334000D01*
D26*
X93500Y368500D02*
X98148D01*
D27*
X108650Y375900D02*
D03*
D28*
X688000Y269000D02*
D03*
Y279000D02*
D03*
Y289000D02*
D03*
Y299000D02*
D03*
X798000Y189000D02*
D03*
X788000D02*
D03*
X738000D02*
D03*
X728000D02*
D03*
X898000Y259000D02*
D03*
Y269000D02*
D03*
Y279000D02*
D03*
Y289000D02*
D03*
X818000Y399000D02*
D03*
X848000D02*
D03*
X838000D02*
D03*
X828000D02*
D03*
X90000Y420000D02*
D03*
Y50000D02*
D03*
X170000D02*
D03*
Y60000D02*
D03*
X120000D02*
D03*
X110000D02*
D03*
X170000Y160000D02*
D03*
X160000D02*
D03*
X150000D02*
D03*
X140000D02*
D03*
X130000D02*
D03*
X120000D02*
D03*
X110000D02*
D03*
X160000Y50000D02*
D03*
Y60000D02*
D03*
X150000Y50000D02*
D03*
Y60000D02*
D03*
X140000Y50000D02*
D03*
Y60000D02*
D03*
X130000Y50000D02*
D03*
Y60000D02*
D03*
X120000Y50000D02*
D03*
X110000D02*
D03*
X260000Y60000D02*
D03*
Y70000D02*
D03*
Y80000D02*
D03*
Y90000D02*
D03*
Y100000D02*
D03*
Y110000D02*
D03*
X360000Y60000D02*
D03*
Y70000D02*
D03*
Y80000D02*
D03*
Y90000D02*
D03*
Y100000D02*
D03*
Y110000D02*
D03*
X688000Y309000D02*
D03*
X868000Y189000D02*
D03*
X768000D02*
D03*
X748000D02*
D03*
X718000D02*
D03*
X898000Y249000D02*
D03*
X688000Y219000D02*
D03*
Y229000D02*
D03*
Y319000D02*
D03*
Y329000D02*
D03*
Y339000D02*
D03*
Y359000D02*
D03*
X728000Y399000D02*
D03*
X758000D02*
D03*
X898000Y219000D02*
D03*
X898000Y229000D02*
D03*
Y239000D02*
D03*
X688000Y349000D02*
D03*
X898000Y299000D02*
D03*
X798000Y399000D02*
D03*
X898000Y309000D02*
D03*
X898000Y319000D02*
D03*
X898000Y329000D02*
D03*
Y339000D02*
D03*
X898000Y349000D02*
D03*
X868000Y399000D02*
D03*
X858000D02*
D03*
X808000Y399000D02*
D03*
X788000D02*
D03*
X778000Y399000D02*
D03*
X768000Y399000D02*
D03*
X748000D02*
D03*
X738000Y399000D02*
D03*
X898000Y359000D02*
D03*
X848016Y189000D02*
D03*
X838000D02*
D03*
X828000D02*
D03*
X818000D02*
D03*
X808000D02*
D03*
X778000D02*
D03*
X718000Y399000D02*
D03*
X758000Y189000D02*
D03*
X688000Y369000D02*
D03*
Y249000D02*
D03*
X858000Y189000D02*
D03*
X898000Y369000D02*
D03*
X688000Y259000D02*
D03*
Y239000D02*
D03*
X130000Y420000D02*
D03*
X110000D02*
D03*
X330000Y370000D02*
D03*
X340000D02*
D03*
X360000D02*
D03*
X350000D02*
D03*
X390000D02*
D03*
X380000D02*
D03*
X370000D02*
D03*
X400000D02*
D03*
X420000D02*
D03*
X410000D02*
D03*
Y360000D02*
D03*
X420000D02*
D03*
X400000D02*
D03*
X370000D02*
D03*
X380000D02*
D03*
X390000D02*
D03*
X350000D02*
D03*
X360000D02*
D03*
X340000D02*
D03*
X330000D02*
D03*
Y340000D02*
D03*
X340000D02*
D03*
X360000D02*
D03*
X350000D02*
D03*
X390000D02*
D03*
X380000D02*
D03*
X370000D02*
D03*
X400000D02*
D03*
X420000D02*
D03*
X410000D02*
D03*
Y350000D02*
D03*
X420000D02*
D03*
X400000D02*
D03*
X370000D02*
D03*
X380000D02*
D03*
X390000D02*
D03*
X350000D02*
D03*
X360000D02*
D03*
X340000D02*
D03*
X330000D02*
D03*
Y320000D02*
D03*
X340000D02*
D03*
X360000D02*
D03*
X350000D02*
D03*
X390000D02*
D03*
X380000D02*
D03*
X370000D02*
D03*
X400000D02*
D03*
X420000D02*
D03*
X410000D02*
D03*
Y330000D02*
D03*
X420000D02*
D03*
X400000D02*
D03*
X370000D02*
D03*
X380000D02*
D03*
X390000D02*
D03*
X350000D02*
D03*
X360000D02*
D03*
X340000D02*
D03*
X330000D02*
D03*
Y300000D02*
D03*
X340000D02*
D03*
X360000D02*
D03*
X350000D02*
D03*
X390000D02*
D03*
X380000D02*
D03*
X370000D02*
D03*
X400000D02*
D03*
X420000D02*
D03*
X410000D02*
D03*
Y310000D02*
D03*
X420000D02*
D03*
X400000D02*
D03*
X370000D02*
D03*
X380000D02*
D03*
X390000D02*
D03*
X350000D02*
D03*
X360000D02*
D03*
X340000D02*
D03*
X330000D02*
D03*
Y280000D02*
D03*
X340000D02*
D03*
X360000D02*
D03*
X350000D02*
D03*
X390000D02*
D03*
X380000D02*
D03*
X370000D02*
D03*
X400000D02*
D03*
X420000D02*
D03*
X410000D02*
D03*
Y290000D02*
D03*
X420000D02*
D03*
X400000D02*
D03*
X370000D02*
D03*
X380000D02*
D03*
X390000D02*
D03*
X350000D02*
D03*
X360000D02*
D03*
X340000D02*
D03*
X330000D02*
D03*
Y380000D02*
D03*
X340000D02*
D03*
X360000D02*
D03*
X350000D02*
D03*
X390000D02*
D03*
X380000D02*
D03*
X370000D02*
D03*
X400000D02*
D03*
X420000D02*
D03*
X410000D02*
D03*
Y390000D02*
D03*
X420000D02*
D03*
X400000D02*
D03*
X370000D02*
D03*
X380000D02*
D03*
X390000D02*
D03*
X350000D02*
D03*
X360000D02*
D03*
X340000D02*
D03*
X330000D02*
D03*
Y210000D02*
D03*
X340000D02*
D03*
X360000D02*
D03*
X350000D02*
D03*
X390000D02*
D03*
X380000D02*
D03*
X370000D02*
D03*
X400000D02*
D03*
X420000D02*
D03*
X410000D02*
D03*
Y200000D02*
D03*
X420000D02*
D03*
X400000D02*
D03*
X370000D02*
D03*
X380000D02*
D03*
X390000D02*
D03*
X350000D02*
D03*
X360000D02*
D03*
X340000D02*
D03*
X330000D02*
D03*
Y230000D02*
D03*
X340000D02*
D03*
X360000D02*
D03*
X350000D02*
D03*
X390000D02*
D03*
X380000D02*
D03*
X370000D02*
D03*
X400000D02*
D03*
X420000D02*
D03*
X410000D02*
D03*
Y220000D02*
D03*
X420000D02*
D03*
X400000D02*
D03*
X370000D02*
D03*
X380000D02*
D03*
X390000D02*
D03*
X350000D02*
D03*
X360000D02*
D03*
X340000D02*
D03*
X330000D02*
D03*
Y250000D02*
D03*
X340000D02*
D03*
X360000D02*
D03*
X350000D02*
D03*
X390000D02*
D03*
X380000D02*
D03*
X370000D02*
D03*
X400000D02*
D03*
X420000D02*
D03*
X410000D02*
D03*
Y240000D02*
D03*
X420000D02*
D03*
X400000D02*
D03*
X370000D02*
D03*
X380000D02*
D03*
X390000D02*
D03*
X350000D02*
D03*
X360000D02*
D03*
X340000D02*
D03*
X330000D02*
D03*
Y270000D02*
D03*
X340000D02*
D03*
X360000D02*
D03*
X350000D02*
D03*
X390000D02*
D03*
X380000D02*
D03*
X370000D02*
D03*
X400000D02*
D03*
X420000D02*
D03*
X410000D02*
D03*
Y260000D02*
D03*
X420000D02*
D03*
X400000D02*
D03*
X370000D02*
D03*
X380000D02*
D03*
X390000D02*
D03*
X350000D02*
D03*
X360000D02*
D03*
X340000D02*
D03*
X330000D02*
D03*
Y180000D02*
D03*
X340000D02*
D03*
X360000D02*
D03*
X350000D02*
D03*
X390000D02*
D03*
X380000D02*
D03*
X370000D02*
D03*
X400000D02*
D03*
X420000D02*
D03*
X410000D02*
D03*
Y190000D02*
D03*
X420000D02*
D03*
X400000D02*
D03*
X370000D02*
D03*
X380000D02*
D03*
X390000D02*
D03*
X350000D02*
D03*
X360000D02*
D03*
X340000D02*
D03*
X330000D02*
D03*
Y160000D02*
D03*
X340000D02*
D03*
X360000D02*
D03*
X350000D02*
D03*
X390000D02*
D03*
X380000D02*
D03*
X370000D02*
D03*
X400000D02*
D03*
X420000D02*
D03*
X410000D02*
D03*
Y170000D02*
D03*
X420000D02*
D03*
X400000D02*
D03*
X370000D02*
D03*
X380000D02*
D03*
X390000D02*
D03*
X350000D02*
D03*
X360000D02*
D03*
X340000D02*
D03*
X330000D02*
D03*
Y140000D02*
D03*
X340000D02*
D03*
X360000D02*
D03*
X350000D02*
D03*
X390000D02*
D03*
X380000D02*
D03*
X370000D02*
D03*
X400000D02*
D03*
X420000D02*
D03*
X410000D02*
D03*
Y130000D02*
D03*
X420000D02*
D03*
X400000D02*
D03*
X370000D02*
D03*
X380000D02*
D03*
X390000D02*
D03*
X350000D02*
D03*
X360000D02*
D03*
X340000D02*
D03*
X330000D02*
D03*
X410000Y150000D02*
D03*
X420000D02*
D03*
X400000D02*
D03*
X370000D02*
D03*
X380000D02*
D03*
X390000D02*
D03*
X350000D02*
D03*
X360000D02*
D03*
X340000D02*
D03*
X330000D02*
D03*
X320000D02*
D03*
Y130000D02*
D03*
Y140000D02*
D03*
Y170000D02*
D03*
Y160000D02*
D03*
Y190000D02*
D03*
Y180000D02*
D03*
Y260000D02*
D03*
Y270000D02*
D03*
Y240000D02*
D03*
Y250000D02*
D03*
Y220000D02*
D03*
Y230000D02*
D03*
Y200000D02*
D03*
Y210000D02*
D03*
Y290000D02*
D03*
Y280000D02*
D03*
X330000Y420000D02*
D03*
X340000D02*
D03*
X360000D02*
D03*
X350000D02*
D03*
X390000D02*
D03*
X380000D02*
D03*
X370000D02*
D03*
Y410000D02*
D03*
X380000D02*
D03*
X390000D02*
D03*
X350000D02*
D03*
X360000D02*
D03*
X340000D02*
D03*
X330000D02*
D03*
X370000Y400000D02*
D03*
X380000D02*
D03*
X390000D02*
D03*
X350000D02*
D03*
X360000D02*
D03*
X340000D02*
D03*
X330000D02*
D03*
X400000Y90000D02*
D03*
X420000D02*
D03*
X410000D02*
D03*
Y80000D02*
D03*
X420000D02*
D03*
X400000D02*
D03*
Y110000D02*
D03*
X420000D02*
D03*
X410000D02*
D03*
Y100000D02*
D03*
X420000D02*
D03*
X400000D02*
D03*
X410000Y120000D02*
D03*
X420000D02*
D03*
X400000D02*
D03*
X260000Y410000D02*
D03*
X270000D02*
D03*
X290000D02*
D03*
X280000D02*
D03*
X320000D02*
D03*
X310000D02*
D03*
X300000D02*
D03*
Y420000D02*
D03*
X310000D02*
D03*
X320000D02*
D03*
X280000D02*
D03*
X290000D02*
D03*
X270000D02*
D03*
X260000D02*
D03*
X190000Y410000D02*
D03*
X200000D02*
D03*
X220000D02*
D03*
X210000D02*
D03*
X250000D02*
D03*
X240000D02*
D03*
X230000D02*
D03*
Y420000D02*
D03*
X240000D02*
D03*
X250000D02*
D03*
X210000D02*
D03*
X220000D02*
D03*
X200000D02*
D03*
X190000D02*
D03*
X170000Y390000D02*
D03*
X190000D02*
D03*
X180000D02*
D03*
X220000D02*
D03*
X210000D02*
D03*
X200000D02*
D03*
Y400000D02*
D03*
X210000D02*
D03*
X220000D02*
D03*
X180000D02*
D03*
X190000D02*
D03*
X170000D02*
D03*
Y420000D02*
D03*
X180000D02*
D03*
Y410000D02*
D03*
X170000D02*
D03*
X200000Y380000D02*
D03*
X210000D02*
D03*
X180000D02*
D03*
X190000D02*
D03*
X170000D02*
D03*
X320000Y400000D02*
D03*
Y390000D02*
D03*
Y360000D02*
D03*
Y370000D02*
D03*
Y380000D02*
D03*
Y350000D02*
D03*
X310000Y180000D02*
D03*
Y190000D02*
D03*
Y160000D02*
D03*
Y170000D02*
D03*
X300000Y180000D02*
D03*
Y190000D02*
D03*
Y170000D02*
D03*
X60000Y90000D02*
D03*
X50000D02*
D03*
X70000D02*
D03*
X90000D02*
D03*
X80000D02*
D03*
X60000Y110000D02*
D03*
X50000D02*
D03*
X70000D02*
D03*
X90000D02*
D03*
X80000D02*
D03*
Y100000D02*
D03*
X90000D02*
D03*
X70000D02*
D03*
X50000D02*
D03*
X60000D02*
D03*
Y180000D02*
D03*
X50000D02*
D03*
X70000D02*
D03*
X90000D02*
D03*
X80000D02*
D03*
X60000Y160000D02*
D03*
X50000D02*
D03*
X70000D02*
D03*
X90000D02*
D03*
X80000D02*
D03*
Y170000D02*
D03*
X90000D02*
D03*
X70000D02*
D03*
X50000D02*
D03*
X60000D02*
D03*
Y140000D02*
D03*
X50000D02*
D03*
X70000D02*
D03*
X90000D02*
D03*
X80000D02*
D03*
Y150000D02*
D03*
X90000D02*
D03*
X70000D02*
D03*
X50000D02*
D03*
X60000D02*
D03*
Y120000D02*
D03*
X50000D02*
D03*
X70000D02*
D03*
X90000D02*
D03*
X80000D02*
D03*
Y130000D02*
D03*
X90000D02*
D03*
X70000D02*
D03*
X50000D02*
D03*
X60000D02*
D03*
X50000Y300000D02*
D03*
X60000D02*
D03*
X80000D02*
D03*
X70000D02*
D03*
Y290000D02*
D03*
X80000D02*
D03*
X60000D02*
D03*
X50000D02*
D03*
X70000Y310000D02*
D03*
X80000D02*
D03*
X60000D02*
D03*
X50000D02*
D03*
Y270000D02*
D03*
X60000D02*
D03*
X80000D02*
D03*
X70000D02*
D03*
Y280000D02*
D03*
X80000D02*
D03*
X60000D02*
D03*
X50000D02*
D03*
D29*
X106000Y345937D02*
D03*
D30*
Y338063D02*
D03*
D31*
X410000Y410000D02*
D03*
Y60000D02*
D03*
X60000D02*
D03*
Y410000D02*
D03*
D32*
X290000Y380000D02*
D03*
Y370000D02*
D03*
X280000Y380000D02*
D03*
Y370000D02*
D03*
X250000Y380000D02*
D03*
X260000Y370000D02*
D03*
Y380000D02*
D03*
X270000Y370000D02*
D03*
Y380000D02*
D03*
D33*
X250000Y370000D02*
D03*
D34*
X120000Y255394D02*
D03*
D35*
X120000Y274606D02*
D03*
D36*
X120000Y300165D02*
D03*
Y295835D02*
D03*
D37*
X98000Y317000D02*
D03*
X136000Y334000D02*
D03*
X75000Y378000D02*
D03*
X293000Y145000D02*
D03*
X341098Y77500D02*
D03*
X300114Y82500D02*
D03*
X300106Y92492D02*
D03*
Y102492D02*
D03*
X322106Y64492D02*
D03*
X96000Y246000D02*
D03*
X75000Y393000D02*
D03*
X131000Y391000D02*
D03*
M02*
