G04 Layer_Physical_Order=1*
G04 Layer_Color=25308*
%FSLAX25Y25*%
%MOIN*%
G70*
G01*
G75*
%ADD10R,0.03937X0.05118*%
%ADD11R,0.06693X0.11811*%
%ADD12R,0.07480X0.05906*%
%ADD13R,0.06102X0.05906*%
%ADD14R,0.05118X0.05709*%
%ADD15R,0.05118X0.04528*%
%ADD16R,0.05118X0.03937*%
%ADD17R,0.04724X0.03150*%
%ADD18O,0.06300X0.02400*%
%ADD19O,0.08661X0.02362*%
%ADD20O,0.02600X0.09000*%
%ADD21O,0.00984X0.06102*%
%ADD22O,0.06102X0.00984*%
%ADD23C,0.01000*%
%ADD24C,0.03000*%
%ADD25C,0.02500*%
%ADD26R,0.10300X0.13800*%
%ADD27C,0.08000*%
%ADD28C,0.05118*%
%ADD29R,0.05118X0.05118*%
%ADD30C,0.25984*%
%ADD31C,0.06000*%
%ADD32R,0.06000X0.06000*%
%ADD33R,0.04724X0.04724*%
%ADD34C,0.04724*%
%ADD35O,0.03937X0.02953*%
%ADD36C,0.02000*%
G36*
X440000Y440347D02*
Y30000D01*
X30000D01*
X29000Y31000D01*
Y440000D01*
X439000D01*
X439538Y440538D01*
X440000Y440347D01*
D02*
G37*
%LPC*%
G36*
X313701Y94724D02*
X307402D01*
X306551Y94555D01*
X305829Y94073D01*
X305800Y94029D01*
X301405D01*
X300887Y94376D01*
X300106Y94531D01*
X299326Y94376D01*
X298664Y93934D01*
X298222Y93272D01*
X298067Y92492D01*
X298222Y91711D01*
X298664Y91050D01*
X299326Y90608D01*
X300106Y90453D01*
X300887Y90608D01*
X301430Y90971D01*
X305800D01*
X305829Y90927D01*
X306551Y90446D01*
X307402Y90276D01*
X313701D01*
X314552Y90446D01*
X315273Y90927D01*
X315755Y91649D01*
X315925Y92500D01*
X315755Y93351D01*
X315273Y94073D01*
X314552Y94555D01*
X313701Y94724D01*
D02*
G37*
G36*
X157500Y94545D02*
X156603Y94367D01*
X155842Y93858D01*
X155333Y93097D01*
X155255Y92703D01*
X154745D01*
X154667Y93097D01*
X154158Y93858D01*
X153397Y94367D01*
X152500Y94545D01*
X151603Y94367D01*
X150842Y93858D01*
X150333Y93097D01*
X150255Y92703D01*
X149745D01*
X149667Y93097D01*
X149158Y93858D01*
X148397Y94367D01*
X147500Y94545D01*
X146603Y94367D01*
X145842Y93858D01*
X145333Y93097D01*
X145255Y92703D01*
X144745D01*
X144667Y93097D01*
X144158Y93858D01*
X143397Y94367D01*
X142500Y94545D01*
X141603Y94367D01*
X140842Y93858D01*
X140333Y93097D01*
X140255Y92703D01*
X139745D01*
X139667Y93097D01*
X139158Y93858D01*
X138397Y94367D01*
X137500Y94545D01*
X136603Y94367D01*
X135842Y93858D01*
X135333Y93097D01*
X135255Y92703D01*
X134745D01*
X134667Y93097D01*
X134158Y93858D01*
X133397Y94367D01*
X132500Y94545D01*
X131603Y94367D01*
X130842Y93858D01*
X130333Y93097D01*
X130255Y92703D01*
X129745D01*
X129667Y93097D01*
X129158Y93858D01*
X128397Y94367D01*
X127500Y94545D01*
X126603Y94367D01*
X125842Y93858D01*
X125333Y93097D01*
X125255Y92703D01*
X124745D01*
X124667Y93097D01*
X124158Y93858D01*
X123397Y94367D01*
X122500Y94545D01*
X121603Y94367D01*
X120842Y93858D01*
X120333Y93097D01*
X120155Y92200D01*
Y90529D01*
X103000D01*
X102415Y90413D01*
X101919Y90081D01*
X89919Y78081D01*
X89587Y77585D01*
X89471Y77000D01*
Y56479D01*
X88726Y56406D01*
X87501Y56034D01*
X86371Y55431D01*
X85382Y54618D01*
X84569Y53629D01*
X83966Y52500D01*
X83594Y51274D01*
X83469Y50000D01*
X83594Y48726D01*
X83966Y47501D01*
X84569Y46371D01*
X85382Y45382D01*
X86371Y44569D01*
X87501Y43966D01*
X88726Y43594D01*
X90000Y43468D01*
X91274Y43594D01*
X92500Y43966D01*
X93629Y44569D01*
X94618Y45382D01*
X95431Y46371D01*
X96034Y47501D01*
X96329Y48471D01*
X103672D01*
X103966Y47501D01*
X104569Y46371D01*
X105382Y45382D01*
X106371Y44569D01*
X107501Y43966D01*
X108726Y43594D01*
X110000Y43468D01*
X111274Y43594D01*
X112499Y43966D01*
X113629Y44569D01*
X114618Y45382D01*
X114750Y45542D01*
X115250D01*
X115382Y45382D01*
X116371Y44569D01*
X117500Y43966D01*
X118726Y43594D01*
X120000Y43468D01*
X121274Y43594D01*
X122500Y43966D01*
X123629Y44569D01*
X124618Y45382D01*
X124750Y45542D01*
X125250D01*
X125382Y45382D01*
X126371Y44569D01*
X127500Y43966D01*
X128726Y43594D01*
X130000Y43468D01*
X131274Y43594D01*
X132500Y43966D01*
X133629Y44569D01*
X134618Y45382D01*
X134750Y45542D01*
X135250D01*
X135382Y45382D01*
X136371Y44569D01*
X137501Y43966D01*
X138726Y43594D01*
X140000Y43468D01*
X141274Y43594D01*
X142499Y43966D01*
X143629Y44569D01*
X144618Y45382D01*
X144750Y45542D01*
X145250D01*
X145382Y45382D01*
X146371Y44569D01*
X147501Y43966D01*
X148726Y43594D01*
X150000Y43468D01*
X151274Y43594D01*
X152499Y43966D01*
X153629Y44569D01*
X154618Y45382D01*
X154750Y45542D01*
X155250D01*
X155382Y45382D01*
X156371Y44569D01*
X157501Y43966D01*
X158726Y43594D01*
X160000Y43468D01*
X161274Y43594D01*
X162499Y43966D01*
X163629Y44569D01*
X164618Y45382D01*
X164750Y45542D01*
X165250D01*
X165382Y45382D01*
X166371Y44569D01*
X167500Y43966D01*
X168726Y43594D01*
X170000Y43468D01*
X171274Y43594D01*
X172500Y43966D01*
X173629Y44569D01*
X174618Y45382D01*
X175431Y46371D01*
X176034Y47501D01*
X176406Y48726D01*
X176531Y50000D01*
X176406Y51274D01*
X176034Y52500D01*
X175431Y53629D01*
X174618Y54618D01*
X174458Y54750D01*
Y55250D01*
X174618Y55382D01*
X175431Y56371D01*
X176034Y57500D01*
X176406Y58726D01*
X176531Y60000D01*
X176406Y61274D01*
X176034Y62499D01*
X175431Y63629D01*
X174618Y64618D01*
X173629Y65431D01*
X172500Y66034D01*
X171529Y66329D01*
Y71000D01*
X171413Y71585D01*
X171081Y72081D01*
X159146Y84017D01*
X159158Y84142D01*
X159667Y84903D01*
X159845Y85800D01*
Y92200D01*
X159667Y93097D01*
X159158Y93858D01*
X158397Y94367D01*
X157500Y94545D01*
D02*
G37*
G36*
X364106Y123021D02*
X360106D01*
X359521Y122905D01*
X359025Y122573D01*
X340481Y104029D01*
X334200D01*
X334171Y104072D01*
X333449Y104554D01*
X332598Y104724D01*
X326299D01*
X325448Y104554D01*
X324727Y104072D01*
X324245Y103351D01*
X324075Y102500D01*
X324245Y101649D01*
X324727Y100927D01*
X325448Y100445D01*
X326299Y100276D01*
X332598D01*
X333449Y100445D01*
X334171Y100927D01*
X334200Y100971D01*
X341114D01*
X341700Y101087D01*
X342196Y101419D01*
X353539Y112761D01*
X353966Y112499D01*
X353594Y111274D01*
X353469Y110000D01*
X353594Y108726D01*
X353966Y107501D01*
X354569Y106371D01*
X355382Y105382D01*
X355542Y105250D01*
Y104750D01*
X355382Y104618D01*
X354569Y103629D01*
X353966Y102499D01*
X353594Y101274D01*
X353469Y100000D01*
X353594Y98726D01*
X353966Y97500D01*
X354569Y96371D01*
X355382Y95382D01*
X355542Y95250D01*
Y94750D01*
X355382Y94618D01*
X354569Y93629D01*
X353966Y92500D01*
X353636Y91411D01*
X353136Y91486D01*
Y91492D01*
X353019Y92077D01*
X352688Y92573D01*
X346679Y98581D01*
X346183Y98913D01*
X345598Y99029D01*
X334200D01*
X334171Y99072D01*
X333449Y99555D01*
X332598Y99724D01*
X326299D01*
X325448Y99555D01*
X324727Y99072D01*
X324245Y98351D01*
X324075Y97500D01*
X324245Y96649D01*
X324727Y95928D01*
X325448Y95446D01*
X326299Y95276D01*
X332598D01*
X333449Y95446D01*
X334171Y95928D01*
X334200Y95971D01*
X344965D01*
X350077Y90858D01*
Y59625D01*
X338473Y48021D01*
X302240D01*
X300305Y49956D01*
X300624Y50344D01*
X301021Y50079D01*
X301606Y49962D01*
X336606D01*
X337192Y50079D01*
X337688Y50410D01*
X347688Y60410D01*
X348019Y60906D01*
X348136Y61492D01*
Y78992D01*
X348039Y79480D01*
X348019Y79577D01*
X347688Y80073D01*
X344180Y83581D01*
X343683Y83913D01*
X343098Y84029D01*
X334200D01*
X334171Y84073D01*
X333449Y84554D01*
X332598Y84724D01*
X326299D01*
X325448Y84554D01*
X324727Y84073D01*
X324245Y83351D01*
X324075Y82500D01*
X324245Y81649D01*
X324727Y80927D01*
X325448Y80445D01*
X326299Y80276D01*
X332598D01*
X333449Y80445D01*
X334171Y80927D01*
X334200Y80971D01*
X342465D01*
X345077Y78358D01*
Y62125D01*
X335973Y53021D01*
X302240D01*
X300305Y54956D01*
X300624Y55344D01*
X301021Y55079D01*
X301606Y54962D01*
X324106D01*
X324692Y55079D01*
X325188Y55410D01*
X330530Y60753D01*
X330862Y61249D01*
X330978Y61834D01*
Y70276D01*
X332598D01*
X333449Y70446D01*
X334171Y70928D01*
X334653Y71649D01*
X334822Y72500D01*
X334653Y73351D01*
X334171Y74072D01*
X333449Y74555D01*
X332598Y74724D01*
X326299D01*
X325448Y74555D01*
X324727Y74072D01*
X324245Y73351D01*
X324075Y72500D01*
X324245Y71649D01*
X324727Y70928D01*
X325448Y70446D01*
X326299Y70276D01*
X327919D01*
Y62468D01*
X323473Y58021D01*
X302240D01*
X279180Y81081D01*
X278683Y81413D01*
X278098Y81529D01*
X266329D01*
X266034Y82499D01*
X265431Y83629D01*
X264618Y84618D01*
X264458Y84750D01*
Y85250D01*
X264618Y85382D01*
X265431Y86371D01*
X266034Y87501D01*
X266329Y88471D01*
X284965D01*
X297017Y76419D01*
X297513Y76087D01*
X298098Y75971D01*
X305800D01*
X305829Y75928D01*
X306551Y75445D01*
X307402Y75276D01*
X313701D01*
X314552Y75445D01*
X315273Y75928D01*
X315755Y76649D01*
X315925Y77500D01*
X315755Y78351D01*
X315273Y79072D01*
X314552Y79554D01*
X313701Y79724D01*
X307402D01*
X306551Y79554D01*
X305829Y79072D01*
X305800Y79029D01*
X298732D01*
X286680Y91081D01*
X286183Y91413D01*
X285598Y91529D01*
X266329D01*
X266034Y92500D01*
X265431Y93629D01*
X264618Y94618D01*
X264458Y94750D01*
Y95250D01*
X264618Y95382D01*
X265431Y96371D01*
X266034Y97500D01*
X266329Y98471D01*
X284965D01*
X297017Y86419D01*
X297513Y86087D01*
X298098Y85971D01*
X305800D01*
X305829Y85927D01*
X306551Y85445D01*
X307402Y85276D01*
X313701D01*
X314552Y85445D01*
X315273Y85927D01*
X315755Y86649D01*
X315925Y87500D01*
X315755Y88351D01*
X315273Y89073D01*
X314552Y89555D01*
X313701Y89724D01*
X307402D01*
X306551Y89555D01*
X305829Y89073D01*
X305800Y89029D01*
X298732D01*
X286680Y101081D01*
X286183Y101413D01*
X285598Y101529D01*
X266329D01*
X266034Y102499D01*
X265431Y103629D01*
X264618Y104618D01*
X264458Y104750D01*
Y105250D01*
X264618Y105382D01*
X265431Y106371D01*
X266034Y107501D01*
X266329Y108471D01*
X284965D01*
X297017Y96419D01*
X297513Y96087D01*
X298098Y95971D01*
X305800D01*
X305829Y95928D01*
X306551Y95446D01*
X307402Y95276D01*
X313701D01*
X314552Y95446D01*
X315273Y95928D01*
X315755Y96649D01*
X315925Y97500D01*
X315755Y98351D01*
X315273Y99072D01*
X314552Y99555D01*
X313701Y99724D01*
X307402D01*
X306551Y99555D01*
X305829Y99072D01*
X305800Y99029D01*
X298732D01*
X286680Y111081D01*
X286183Y111413D01*
X285598Y111529D01*
X266329D01*
X266034Y112499D01*
X265431Y113629D01*
X264618Y114618D01*
X263629Y115431D01*
X262499Y116034D01*
X261274Y116406D01*
X260000Y116531D01*
X258726Y116406D01*
X257501Y116034D01*
X256371Y115431D01*
X255382Y114618D01*
X254569Y113629D01*
X253966Y112499D01*
X253672Y111529D01*
X246610D01*
Y113559D01*
X240673D01*
Y106441D01*
X246610D01*
Y108471D01*
X253672D01*
X253966Y107501D01*
X254569Y106371D01*
X255382Y105382D01*
X255542Y105250D01*
Y104750D01*
X255382Y104618D01*
X254569Y103629D01*
X253966Y102499D01*
X253672Y101529D01*
X246610D01*
Y103559D01*
X240673D01*
Y96441D01*
X246610D01*
Y98471D01*
X253672D01*
X253966Y97500D01*
X254569Y96371D01*
X255382Y95382D01*
X255542Y95250D01*
Y94750D01*
X255382Y94618D01*
X254569Y93629D01*
X253966Y92500D01*
X253672Y91529D01*
X246610D01*
Y93559D01*
X240673D01*
Y86441D01*
X246610D01*
Y88471D01*
X253672D01*
X253966Y87501D01*
X254569Y86371D01*
X255382Y85382D01*
X255542Y85250D01*
Y84750D01*
X255382Y84618D01*
X254569Y83629D01*
X253966Y82499D01*
X253672Y81529D01*
X246610D01*
Y83559D01*
X240673D01*
Y76441D01*
X246610D01*
Y78471D01*
X253672D01*
X253966Y77500D01*
X254569Y76371D01*
X255382Y75382D01*
X255542Y75250D01*
Y74750D01*
X255382Y74618D01*
X254569Y73629D01*
X253966Y72500D01*
X253672Y71529D01*
X246610D01*
Y73559D01*
X240673D01*
Y66441D01*
X246610D01*
Y68471D01*
X253672D01*
X253966Y67501D01*
X254569Y66371D01*
X255382Y65382D01*
X255542Y65250D01*
Y64750D01*
X255382Y64618D01*
X254569Y63629D01*
X253966Y62499D01*
X253672Y61529D01*
X246610D01*
Y63559D01*
X240673D01*
Y56441D01*
X246610D01*
Y58471D01*
X253672D01*
X253966Y57500D01*
X254569Y56371D01*
X255382Y55382D01*
X256371Y54569D01*
X257501Y53966D01*
X258726Y53594D01*
X260000Y53469D01*
X261274Y53594D01*
X262499Y53966D01*
X263629Y54569D01*
X264618Y55382D01*
X265431Y56371D01*
X266034Y57500D01*
X266329Y58471D01*
X287465D01*
X300525Y45410D01*
X301021Y45079D01*
X301606Y44962D01*
X339106D01*
X339691Y45079D01*
X340188Y45410D01*
X352688Y57910D01*
X353019Y58407D01*
X353089Y58756D01*
X353594Y58731D01*
X353594Y58726D01*
X353966Y57500D01*
X354569Y56371D01*
X355382Y55382D01*
X356371Y54569D01*
X357501Y53966D01*
X358726Y53594D01*
X360000Y53469D01*
X361274Y53594D01*
X362499Y53966D01*
X363629Y54569D01*
X364618Y55382D01*
X365431Y56371D01*
X366034Y57500D01*
X366329Y58471D01*
X368615D01*
X369200Y58587D01*
X369696Y58919D01*
X372188Y61410D01*
X372519Y61906D01*
X372636Y62492D01*
Y114492D01*
X372538Y114980D01*
X372519Y115077D01*
X372188Y115573D01*
X365188Y122573D01*
X364691Y122905D01*
X364106Y123021D01*
D02*
G37*
G36*
X313701Y104724D02*
X307402D01*
X306551Y104554D01*
X305829Y104072D01*
X305800Y104029D01*
X301405D01*
X300887Y104376D01*
X300106Y104531D01*
X299326Y104376D01*
X298664Y103934D01*
X298222Y103272D01*
X298067Y102492D01*
X298222Y101711D01*
X298664Y101050D01*
X299326Y100608D01*
X300106Y100453D01*
X300887Y100608D01*
X301430Y100971D01*
X305800D01*
X305829Y100927D01*
X306551Y100445D01*
X307402Y100276D01*
X313701D01*
X314552Y100445D01*
X315273Y100927D01*
X315755Y101649D01*
X315925Y102500D01*
X315755Y103351D01*
X315273Y104072D01*
X314552Y104554D01*
X313701Y104724D01*
D02*
G37*
G36*
Y84724D02*
X307402D01*
X306551Y84554D01*
X305829Y84073D01*
X305800Y84029D01*
X301426D01*
X300895Y84384D01*
X300114Y84539D01*
X299334Y84384D01*
X298673Y83942D01*
X298231Y83280D01*
X298075Y82500D01*
X298231Y81720D01*
X298673Y81058D01*
X299334Y80616D01*
X300114Y80461D01*
X300895Y80616D01*
X301426Y80971D01*
X305800D01*
X305829Y80927D01*
X306551Y80445D01*
X307402Y80276D01*
X313701D01*
X314552Y80445D01*
X315273Y80927D01*
X315755Y81649D01*
X315925Y82500D01*
X315755Y83351D01*
X315273Y84073D01*
X314552Y84554D01*
X313701Y84724D01*
D02*
G37*
G36*
X332598Y79724D02*
X326299D01*
X325448Y79554D01*
X324727Y79072D01*
X324245Y78351D01*
X324075Y77500D01*
X324245Y76649D01*
X324727Y75928D01*
X325448Y75445D01*
X326299Y75276D01*
X332598D01*
X333449Y75445D01*
X334171Y75928D01*
X334200Y75971D01*
X339787D01*
X340318Y75616D01*
X341098Y75461D01*
X341878Y75616D01*
X342540Y76058D01*
X342982Y76720D01*
X343137Y77500D01*
X342982Y78280D01*
X342540Y78942D01*
X341878Y79384D01*
X341098Y79539D01*
X340318Y79384D01*
X339787Y79029D01*
X334200D01*
X334171Y79072D01*
X333449Y79554D01*
X332598Y79724D01*
D02*
G37*
G36*
Y94724D02*
X326299D01*
X325448Y94555D01*
X324727Y94073D01*
X324245Y93351D01*
X324075Y92500D01*
X324245Y91649D01*
X324727Y90927D01*
X325448Y90446D01*
X326299Y90276D01*
X332598D01*
X333449Y90446D01*
X334171Y90927D01*
X334653Y91649D01*
X334822Y92500D01*
X334653Y93351D01*
X334171Y94073D01*
X333449Y94555D01*
X332598Y94724D01*
D02*
G37*
G36*
Y89724D02*
X326299D01*
X325448Y89555D01*
X324727Y89073D01*
X324698Y89029D01*
X323114D01*
X322529Y88913D01*
X322033Y88581D01*
X320025Y86573D01*
X319693Y86077D01*
X319577Y85492D01*
Y65492D01*
X319693Y64907D01*
X320025Y64410D01*
X320098Y64337D01*
X320222Y63711D01*
X320664Y63050D01*
X321326Y62608D01*
X322106Y62453D01*
X322887Y62608D01*
X323548Y63050D01*
X323990Y63711D01*
X324145Y64492D01*
X323990Y65272D01*
X323548Y65934D01*
X322887Y66376D01*
X322636Y66426D01*
Y84858D01*
X323748Y85971D01*
X324698D01*
X324727Y85927D01*
X325448Y85445D01*
X326299Y85276D01*
X332598D01*
X333449Y85445D01*
X334171Y85927D01*
X334653Y86649D01*
X334822Y87500D01*
X334653Y88351D01*
X334171Y89073D01*
X333449Y89555D01*
X332598Y89724D01*
D02*
G37*
G36*
X223559Y138835D02*
X216441D01*
Y132307D01*
X218471D01*
Y131610D01*
X216441D01*
Y125673D01*
X223559D01*
Y131610D01*
X221529D01*
Y132307D01*
X223559D01*
Y138835D01*
D02*
G37*
G36*
X243559Y138835D02*
X236441D01*
Y132307D01*
X238471D01*
Y131610D01*
X236441D01*
Y125673D01*
X243559D01*
Y131610D01*
X241529D01*
Y132307D01*
X243559D01*
Y138835D01*
D02*
G37*
G36*
X250236Y247328D02*
X249654Y247213D01*
X249161Y246883D01*
X248831Y246389D01*
X248715Y245807D01*
Y243288D01*
X248707Y243248D01*
Y220870D01*
X193394Y165556D01*
X192499Y166034D01*
X191274Y166406D01*
X190000Y166531D01*
X188726Y166406D01*
X187501Y166034D01*
X186371Y165431D01*
X185382Y164618D01*
X184569Y163629D01*
X183966Y162499D01*
X183594Y161274D01*
X183469Y160000D01*
X183594Y158726D01*
X183966Y157501D01*
X184569Y156371D01*
X185382Y155382D01*
X186371Y154569D01*
X187501Y153966D01*
X188726Y153594D01*
X190000Y153469D01*
X191274Y153594D01*
X192499Y153966D01*
X193629Y154569D01*
X194618Y155382D01*
X195431Y156371D01*
X196034Y157501D01*
X196406Y158726D01*
X196531Y160000D01*
X196406Y161274D01*
X196034Y162499D01*
X195556Y163394D01*
X251318Y219155D01*
X251649Y219651D01*
X251766Y220236D01*
Y243248D01*
X251758Y243288D01*
Y245807D01*
X251642Y246389D01*
X251312Y246883D01*
X250818Y247213D01*
X250236Y247328D01*
D02*
G37*
G36*
X170000Y166531D02*
X168726Y166406D01*
X167500Y166034D01*
X166371Y165431D01*
X165382Y164618D01*
X165250Y164458D01*
X164750D01*
X164618Y164618D01*
X163629Y165431D01*
X162499Y166034D01*
X161274Y166406D01*
X160000Y166531D01*
X158726Y166406D01*
X157501Y166034D01*
X156371Y165431D01*
X155382Y164618D01*
X155250Y164458D01*
X154750D01*
X154618Y164618D01*
X153629Y165431D01*
X152499Y166034D01*
X151274Y166406D01*
X150000Y166531D01*
X148726Y166406D01*
X147501Y166034D01*
X146371Y165431D01*
X145382Y164618D01*
X145250Y164458D01*
X144750D01*
X144618Y164618D01*
X143629Y165431D01*
X142499Y166034D01*
X141274Y166406D01*
X140000Y166531D01*
X138726Y166406D01*
X137501Y166034D01*
X136371Y165431D01*
X135382Y164618D01*
X135250Y164458D01*
X134750D01*
X134618Y164618D01*
X133629Y165431D01*
X132500Y166034D01*
X131274Y166406D01*
X130000Y166531D01*
X128726Y166406D01*
X127500Y166034D01*
X126371Y165431D01*
X125382Y164618D01*
X125250Y164458D01*
X124750D01*
X124618Y164618D01*
X123629Y165431D01*
X122500Y166034D01*
X121274Y166406D01*
X120000Y166531D01*
X118726Y166406D01*
X117500Y166034D01*
X116371Y165431D01*
X115382Y164618D01*
X115250Y164458D01*
X114750D01*
X114618Y164618D01*
X113629Y165431D01*
X112499Y166034D01*
X111274Y166406D01*
X110000Y166531D01*
X108726Y166406D01*
X107501Y166034D01*
X106371Y165431D01*
X105382Y164618D01*
X104569Y163629D01*
X103966Y162499D01*
X103594Y161274D01*
X103469Y160000D01*
X103594Y158726D01*
X103966Y157501D01*
X104569Y156371D01*
X105382Y155382D01*
X106371Y154569D01*
X107501Y153966D01*
X108471Y153672D01*
Y137000D01*
X108587Y136415D01*
X108919Y135919D01*
X125971Y118867D01*
Y115944D01*
X125842Y115858D01*
X125333Y115097D01*
X125155Y114200D01*
Y107800D01*
X125333Y106903D01*
X125842Y106142D01*
X126603Y105633D01*
X127500Y105455D01*
X128397Y105633D01*
X129158Y106142D01*
X129667Y106903D01*
X129745Y107298D01*
X130255D01*
X130333Y106903D01*
X130842Y106142D01*
X131603Y105633D01*
X132500Y105455D01*
X133397Y105633D01*
X134158Y106142D01*
X134667Y106903D01*
X134745Y107298D01*
X135255D01*
X135333Y106903D01*
X135842Y106142D01*
X136603Y105633D01*
X137500Y105455D01*
X138397Y105633D01*
X139158Y106142D01*
X139667Y106903D01*
X139745Y107298D01*
X140255D01*
X140333Y106903D01*
X140842Y106142D01*
X141603Y105633D01*
X142500Y105455D01*
X143397Y105633D01*
X144158Y106142D01*
X144667Y106903D01*
X144745Y107298D01*
X145255D01*
X145333Y106903D01*
X145842Y106142D01*
X146603Y105633D01*
X147500Y105455D01*
X148397Y105633D01*
X149158Y106142D01*
X149667Y106903D01*
X149745Y107298D01*
X150255D01*
X150333Y106903D01*
X150842Y106142D01*
X151603Y105633D01*
X152500Y105455D01*
X153397Y105633D01*
X154158Y106142D01*
X154667Y106903D01*
X154745Y107298D01*
X155255D01*
X155333Y106903D01*
X155842Y106142D01*
X156603Y105633D01*
X157500Y105455D01*
X158397Y105633D01*
X159158Y106142D01*
X159667Y106903D01*
X159845Y107800D01*
Y109471D01*
X162000D01*
X162585Y109587D01*
X163081Y109919D01*
X171081Y117919D01*
X171413Y118415D01*
X171529Y119000D01*
Y153672D01*
X172500Y153966D01*
X173629Y154569D01*
X174618Y155382D01*
X175431Y156371D01*
X176034Y157501D01*
X176406Y158726D01*
X176531Y160000D01*
X176406Y161274D01*
X176034Y162499D01*
X175431Y163629D01*
X174618Y164618D01*
X173629Y165431D01*
X172500Y166034D01*
X171274Y166406D01*
X170000Y166531D01*
D02*
G37*
G36*
X332598Y109724D02*
X326299D01*
X325448Y109555D01*
X324727Y109072D01*
X324245Y108351D01*
X324075Y107500D01*
X324245Y106649D01*
X324727Y105928D01*
X325448Y105446D01*
X326299Y105276D01*
X332598D01*
X333449Y105446D01*
X334171Y105928D01*
X334653Y106649D01*
X334822Y107500D01*
X334653Y108351D01*
X334171Y109072D01*
X333449Y109555D01*
X332598Y109724D01*
D02*
G37*
G36*
X304000Y137039D02*
X303220Y136884D01*
X302558Y136442D01*
X302116Y135780D01*
X301961Y135000D01*
X302116Y134220D01*
X302471Y133689D01*
Y132106D01*
X302577Y131572D01*
Y113945D01*
X302693Y113360D01*
X303025Y112864D01*
X306142Y109746D01*
X306093Y109249D01*
X305829Y109072D01*
X305347Y108351D01*
X305178Y107500D01*
X305347Y106649D01*
X305829Y105928D01*
X306551Y105446D01*
X307402Y105276D01*
X313701D01*
X314552Y105446D01*
X315273Y105928D01*
X315755Y106649D01*
X315925Y107500D01*
X315755Y108351D01*
X315273Y109072D01*
X314552Y109555D01*
X313701Y109724D01*
X310490D01*
X305636Y114578D01*
Y116146D01*
X310409D01*
Y123854D01*
X305636D01*
Y132000D01*
X305539Y132488D01*
X305529Y132534D01*
Y133689D01*
X305884Y134220D01*
X306039Y135000D01*
X305884Y135780D01*
X305442Y136442D01*
X304780Y136884D01*
X304000Y137039D01*
D02*
G37*
G36*
X233559Y138835D02*
X226441D01*
Y132307D01*
X228471D01*
Y131610D01*
X226441D01*
Y125673D01*
X233559D01*
Y131610D01*
X231529D01*
Y132307D01*
X233559D01*
Y138835D01*
D02*
G37*
G36*
X420000Y126531D02*
X418726Y126406D01*
X417500Y126034D01*
X416371Y125431D01*
X415382Y124618D01*
X415250Y124458D01*
X414750D01*
X414618Y124618D01*
X413629Y125431D01*
X412500Y126034D01*
X411274Y126406D01*
X410000Y126531D01*
X408726Y126406D01*
X407501Y126034D01*
X406371Y125431D01*
X405382Y124618D01*
X405250Y124458D01*
X404750D01*
X404618Y124618D01*
X403629Y125431D01*
X402499Y126034D01*
X401274Y126406D01*
X400000Y126531D01*
X398726Y126406D01*
X397500Y126034D01*
X396371Y125431D01*
X395382Y124618D01*
X394569Y123629D01*
X393966Y122500D01*
X393594Y121274D01*
X393469Y120000D01*
X393594Y118726D01*
X393966Y117500D01*
X394569Y116371D01*
X395382Y115382D01*
X395542Y115250D01*
Y114750D01*
X395382Y114618D01*
X394569Y113629D01*
X393966Y112499D01*
X393594Y111274D01*
X393469Y110000D01*
X393594Y108726D01*
X393966Y107501D01*
X394569Y106371D01*
X395382Y105382D01*
X395542Y105250D01*
Y104750D01*
X395382Y104618D01*
X394569Y103629D01*
X393966Y102499D01*
X393594Y101274D01*
X393469Y100000D01*
X393594Y98726D01*
X393966Y97500D01*
X394569Y96371D01*
X395382Y95382D01*
X395542Y95250D01*
Y94750D01*
X395382Y94618D01*
X394569Y93629D01*
X393966Y92500D01*
X393594Y91274D01*
X393469Y90000D01*
X393594Y88726D01*
X393966Y87501D01*
X394569Y86371D01*
X395382Y85382D01*
X395542Y85250D01*
Y84750D01*
X395382Y84618D01*
X394569Y83629D01*
X393966Y82499D01*
X393594Y81274D01*
X393469Y80000D01*
X393594Y78726D01*
X393966Y77500D01*
X394569Y76371D01*
X395382Y75382D01*
X396371Y74569D01*
X397500Y73966D01*
X398726Y73594D01*
X400000Y73469D01*
X401274Y73594D01*
X401873Y73776D01*
X402079Y73316D01*
X400866Y72572D01*
X399011Y70989D01*
X397428Y69134D01*
X396154Y67055D01*
X395221Y64802D01*
X394651Y62431D01*
X394460Y60000D01*
X394651Y57569D01*
X395221Y55198D01*
X396154Y52945D01*
X397428Y50866D01*
X399011Y49011D01*
X400866Y47428D01*
X402945Y46154D01*
X405198Y45221D01*
X407569Y44651D01*
X410000Y44460D01*
X412431Y44651D01*
X414802Y45221D01*
X417055Y46154D01*
X419134Y47428D01*
X420989Y49011D01*
X422572Y50866D01*
X423846Y52945D01*
X424779Y55198D01*
X425349Y57569D01*
X425540Y60000D01*
X425349Y62431D01*
X424779Y64802D01*
X423846Y67055D01*
X422572Y69134D01*
X420989Y70989D01*
X419134Y72572D01*
X417921Y73316D01*
X418127Y73776D01*
X418726Y73594D01*
X420000Y73469D01*
X421274Y73594D01*
X422500Y73966D01*
X423629Y74569D01*
X424618Y75382D01*
X425431Y76371D01*
X426034Y77500D01*
X426406Y78726D01*
X426532Y80000D01*
X426406Y81274D01*
X426034Y82499D01*
X425431Y83629D01*
X424618Y84618D01*
X424458Y84750D01*
Y85250D01*
X424618Y85382D01*
X425431Y86371D01*
X426034Y87501D01*
X426406Y88726D01*
X426532Y90000D01*
X426406Y91274D01*
X426034Y92500D01*
X425431Y93629D01*
X424618Y94618D01*
X424458Y94750D01*
Y95250D01*
X424618Y95382D01*
X425431Y96371D01*
X426034Y97500D01*
X426406Y98726D01*
X426532Y100000D01*
X426406Y101274D01*
X426034Y102499D01*
X425431Y103629D01*
X424618Y104618D01*
X424458Y104750D01*
Y105250D01*
X424618Y105382D01*
X425431Y106371D01*
X426034Y107501D01*
X426406Y108726D01*
X426532Y110000D01*
X426406Y111274D01*
X426034Y112499D01*
X425431Y113629D01*
X424618Y114618D01*
X424458Y114750D01*
Y115250D01*
X424618Y115382D01*
X425431Y116371D01*
X426034Y117500D01*
X426406Y118726D01*
X426532Y120000D01*
X426406Y121274D01*
X426034Y122500D01*
X425431Y123629D01*
X424618Y124618D01*
X423629Y125431D01*
X422500Y126034D01*
X421274Y126406D01*
X420000Y126531D01*
D02*
G37*
G36*
X90000Y426532D02*
X88726Y426406D01*
X87501Y426034D01*
X86371Y425431D01*
X85382Y424618D01*
X84569Y423629D01*
X83966Y422500D01*
X83594Y421274D01*
X83469Y420000D01*
X83594Y418726D01*
X83966Y417500D01*
X84569Y416371D01*
X85382Y415382D01*
X86371Y414569D01*
X87039Y414212D01*
X87113Y413718D01*
X83198Y409802D01*
X68198Y394802D01*
X67645Y393975D01*
X67451Y393000D01*
Y387000D01*
X67645Y386024D01*
X68198Y385198D01*
X71292Y382103D01*
X72119Y381551D01*
X73094Y381357D01*
X80906D01*
X81260Y381003D01*
Y380029D01*
X81260Y379953D01*
X81075Y379529D01*
X76985D01*
X76802Y379802D01*
X75976Y380355D01*
X75000Y380549D01*
X74024Y380355D01*
X73198Y379802D01*
X63198Y369802D01*
X62645Y368975D01*
X62451Y368000D01*
Y365905D01*
X60654D01*
Y352095D01*
X69346D01*
Y365905D01*
X67549D01*
Y366944D01*
X76802Y376198D01*
X76985Y376471D01*
X90367D01*
X94108Y372729D01*
X94126Y372642D01*
X94612Y371914D01*
X95340Y371428D01*
X96198Y371257D01*
X100098D01*
X100956Y371428D01*
X101684Y371914D01*
X101980Y372357D01*
X102480Y372206D01*
Y369000D01*
X102558Y368610D01*
X102779Y368279D01*
X103110Y368058D01*
X103500Y367980D01*
X113800D01*
X114190Y368058D01*
X114521Y368279D01*
X114742Y368610D01*
X115207Y368500D01*
X115378Y367642D01*
X115864Y366914D01*
X116592Y366428D01*
X117450Y366257D01*
X118038D01*
X118451Y365844D01*
Y344823D01*
X117638D01*
Y339673D01*
X124362D01*
Y339699D01*
X125638D01*
Y339673D01*
X132362D01*
Y344823D01*
X125638D01*
Y344797D01*
X124362D01*
Y344823D01*
X123549D01*
Y366900D01*
X123406Y367618D01*
X123422Y367642D01*
X123593Y368500D01*
X123422Y369358D01*
X122936Y370086D01*
X122390Y370451D01*
X122542Y370951D01*
X129988D01*
X136949Y363990D01*
Y360591D01*
Y353504D01*
X138451D01*
Y348661D01*
X137638D01*
Y343512D01*
X144362D01*
Y348661D01*
X143549D01*
Y353504D01*
X145051D01*
Y360591D01*
Y368496D01*
X139652D01*
X132846Y375302D01*
X132019Y375855D01*
X131043Y376049D01*
X127232D01*
X127080Y376549D01*
X127302Y376698D01*
X131894Y381290D01*
X137638D01*
Y380673D01*
X144362D01*
Y385823D01*
X142530D01*
X141975Y386193D01*
X141000Y386388D01*
X130839D01*
X129863Y386193D01*
X129036Y385641D01*
X124444Y381049D01*
X122542D01*
X122390Y381549D01*
X122936Y381914D01*
X123422Y382642D01*
X123593Y383500D01*
X123422Y384358D01*
X122936Y385086D01*
X122208Y385572D01*
X121350Y385743D01*
X120801D01*
Y389196D01*
X130599Y398994D01*
X136949D01*
Y397590D01*
X145051D01*
Y405496D01*
X136949D01*
Y404092D01*
X129543D01*
X128568Y403898D01*
X127741Y403346D01*
X116450Y392054D01*
X115897Y391227D01*
X115703Y390252D01*
Y384845D01*
X115378Y384358D01*
X115207Y383500D01*
X115378Y382642D01*
X115864Y381914D01*
X116592Y381428D01*
X117139Y381319D01*
X117190Y381146D01*
X117192Y380798D01*
X116965Y380646D01*
X116592Y380572D01*
X115864Y380086D01*
X115378Y379358D01*
X115320Y379066D01*
X114820Y379116D01*
Y382800D01*
X114742Y383190D01*
X114521Y383521D01*
X114190Y383742D01*
X113800Y383820D01*
X103500D01*
X103110Y383742D01*
X102822Y383550D01*
X102576Y383599D01*
X102300Y383705D01*
X102170Y384358D01*
X101684Y385086D01*
X101277Y385358D01*
Y387795D01*
X101161Y388381D01*
X100830Y388877D01*
X95709Y393998D01*
Y398854D01*
X82291D01*
Y396529D01*
X77788D01*
X77596Y396991D01*
X86802Y406198D01*
X87075Y406471D01*
X145367D01*
X148471Y403367D01*
Y380633D01*
X145528Y377691D01*
X144362D01*
Y379327D01*
X137638D01*
Y374177D01*
X144362D01*
Y374632D01*
X146161D01*
X146747Y374748D01*
X147243Y375080D01*
X151081Y378919D01*
X151413Y379415D01*
X151529Y380000D01*
Y404000D01*
X151432Y404488D01*
X151413Y404585D01*
X151081Y405081D01*
X147081Y409081D01*
X146585Y409413D01*
X146000Y409529D01*
X90788D01*
X90596Y409991D01*
X91802Y411198D01*
X92355Y412024D01*
X92549Y413000D01*
Y413992D01*
X93629Y414569D01*
X94618Y415382D01*
X95431Y416371D01*
X96034Y417500D01*
X96406Y418726D01*
X96531Y420000D01*
X96406Y421274D01*
X96034Y422500D01*
X95431Y423629D01*
X94618Y424618D01*
X93629Y425431D01*
X92500Y426034D01*
X91274Y426406D01*
X90000Y426532D01*
D02*
G37*
G36*
X60000Y425540D02*
X57569Y425349D01*
X55198Y424779D01*
X52945Y423846D01*
X50866Y422572D01*
X49011Y420989D01*
X47428Y419134D01*
X46154Y417055D01*
X45221Y414802D01*
X44651Y412431D01*
X44460Y410000D01*
X44651Y407569D01*
X45221Y405198D01*
X46154Y402945D01*
X47428Y400866D01*
X49011Y399011D01*
X50866Y397428D01*
X52945Y396154D01*
X55198Y395221D01*
X57569Y394651D01*
X60000Y394460D01*
X62431Y394651D01*
X64802Y395221D01*
X67055Y396154D01*
X69134Y397428D01*
X70989Y399011D01*
X72572Y400866D01*
X73846Y402945D01*
X74779Y405198D01*
X75349Y407569D01*
X75540Y410000D01*
X75349Y412431D01*
X74779Y414802D01*
X73846Y417055D01*
X72572Y419134D01*
X70989Y420989D01*
X69134Y422572D01*
X67055Y423846D01*
X64802Y424779D01*
X62431Y425349D01*
X60000Y425540D01*
D02*
G37*
G36*
Y75540D02*
X57569Y75349D01*
X55198Y74779D01*
X52945Y73846D01*
X50866Y72572D01*
X49011Y70989D01*
X47428Y69134D01*
X46154Y67055D01*
X45221Y64802D01*
X44651Y62431D01*
X44460Y60000D01*
X44651Y57569D01*
X45221Y55198D01*
X46154Y52945D01*
X47428Y50866D01*
X49011Y49011D01*
X50866Y47428D01*
X52945Y46154D01*
X55198Y45221D01*
X57569Y44651D01*
X60000Y44460D01*
X62431Y44651D01*
X64802Y45221D01*
X67055Y46154D01*
X69134Y47428D01*
X70989Y49011D01*
X72572Y50866D01*
X73846Y52945D01*
X74779Y55198D01*
X75349Y57569D01*
X75540Y60000D01*
X75349Y62431D01*
X74779Y64802D01*
X73846Y67055D01*
X72572Y69134D01*
X70989Y70989D01*
X69134Y72572D01*
X67055Y73846D01*
X64802Y74779D01*
X62431Y75349D01*
X60000Y75540D01*
D02*
G37*
G36*
X263000Y389039D02*
X262220Y388884D01*
X261558Y388442D01*
X261116Y387780D01*
X260961Y387000D01*
X261116Y386220D01*
X261558Y385558D01*
X262220Y385116D01*
X262846Y384992D01*
X270891Y376946D01*
X270664Y376466D01*
X270000Y376531D01*
X268726Y376406D01*
X267501Y376034D01*
X266371Y375431D01*
X265382Y374618D01*
X265250Y374458D01*
X264750D01*
X264618Y374619D01*
X263629Y375431D01*
X262499Y376034D01*
X261274Y376406D01*
X260000Y376532D01*
X258726Y376406D01*
X257501Y376034D01*
X256371Y375431D01*
X255382Y374619D01*
X255250Y374458D01*
X254750D01*
X254618Y374618D01*
X253629Y375431D01*
X252500Y376034D01*
X251274Y376406D01*
X250000Y376531D01*
X248726Y376406D01*
X247500Y376034D01*
X246371Y375431D01*
X245382Y374618D01*
X245250Y374458D01*
X244750D01*
X244618Y374619D01*
X243629Y375431D01*
X242499Y376034D01*
X241274Y376406D01*
X240000Y376532D01*
X238726Y376406D01*
X237501Y376034D01*
X236371Y375431D01*
X235382Y374619D01*
X235250Y374458D01*
X234750D01*
X234618Y374618D01*
X233629Y375431D01*
X232500Y376034D01*
X231529Y376328D01*
Y377441D01*
X232610D01*
Y384559D01*
X226673D01*
Y377441D01*
X228471D01*
Y376328D01*
X227501Y376034D01*
X226371Y375431D01*
X225382Y374618D01*
X225250Y374458D01*
X224750D01*
X224618Y374619D01*
X223629Y375431D01*
X222499Y376034D01*
X221274Y376406D01*
X220000Y376532D01*
X218726Y376406D01*
X217500Y376034D01*
X216371Y375431D01*
X215382Y374619D01*
X215250Y374458D01*
X214750D01*
X214618Y374618D01*
X213629Y375431D01*
X212499Y376034D01*
X211274Y376406D01*
X210000Y376531D01*
X208726Y376406D01*
X207501Y376034D01*
X206371Y375431D01*
X205382Y374618D01*
X204569Y373629D01*
X203966Y372499D01*
X203594Y371274D01*
X203469Y370000D01*
X203594Y368726D01*
X203966Y367500D01*
X204569Y366371D01*
X205382Y365382D01*
X206371Y364569D01*
X207501Y363966D01*
X208726Y363594D01*
X210000Y363468D01*
X211274Y363594D01*
X212499Y363966D01*
X213393Y364443D01*
X252644Y325193D01*
Y286752D01*
X252652Y286712D01*
Y284193D01*
X252768Y283611D01*
X253098Y283117D01*
X253591Y282787D01*
X254173Y282672D01*
X254755Y282787D01*
X255157Y283056D01*
X255559Y282787D01*
X256142Y282672D01*
X256724Y282787D01*
X257126Y283056D01*
X257528Y282787D01*
X258110Y282672D01*
X258692Y282787D01*
X259095Y283056D01*
X259496Y282787D01*
X260079Y282672D01*
X260661Y282787D01*
X261063Y283056D01*
X261465Y282787D01*
X262047Y282672D01*
X262629Y282787D01*
X263032Y283056D01*
X263434Y282787D01*
X264016Y282672D01*
X264598Y282787D01*
X265000Y283056D01*
X265402Y282787D01*
X265984Y282672D01*
X266566Y282787D01*
X266968Y283056D01*
X267371Y282787D01*
X267953Y282672D01*
X268535Y282787D01*
X268937Y283056D01*
X269339Y282787D01*
X269921Y282672D01*
X270503Y282787D01*
X270905Y283056D01*
X271308Y282787D01*
X271890Y282672D01*
X272472Y282787D01*
X272874Y283056D01*
X273276Y282787D01*
X273858Y282672D01*
X274441Y282787D01*
X274843Y283056D01*
X275245Y282787D01*
X275827Y282672D01*
X276409Y282787D01*
X276811Y283056D01*
X277213Y282787D01*
X277795Y282672D01*
X278378Y282787D01*
X278780Y283056D01*
X279182Y282787D01*
X279764Y282672D01*
X280346Y282787D01*
X280839Y283117D01*
X281169Y283611D01*
X281285Y284193D01*
Y286712D01*
X281293Y286752D01*
Y309130D01*
X336607Y364443D01*
X337501Y363966D01*
X338726Y363594D01*
X340000Y363468D01*
X341274Y363594D01*
X342499Y363966D01*
X343629Y364569D01*
X344618Y365382D01*
X345431Y366371D01*
X346034Y367500D01*
X346406Y368726D01*
X346531Y370000D01*
X346406Y371274D01*
X346034Y372499D01*
X345431Y373629D01*
X344618Y374618D01*
X343629Y375431D01*
X342499Y376034D01*
X341274Y376406D01*
X340000Y376531D01*
X338726Y376406D01*
X337501Y376034D01*
X336371Y375431D01*
X335382Y374618D01*
X335250Y374458D01*
X334750D01*
X334618Y374618D01*
X333629Y375431D01*
X332500Y376034D01*
X331274Y376406D01*
X330000Y376531D01*
X328726Y376406D01*
X327501Y376034D01*
X326371Y375431D01*
X325382Y374618D01*
X325250Y374458D01*
X324750D01*
X324618Y374618D01*
X323629Y375431D01*
X322499Y376034D01*
X321274Y376406D01*
X320000Y376531D01*
X318726Y376406D01*
X317500Y376034D01*
X316371Y375431D01*
X315382Y374618D01*
X315250Y374458D01*
X314750D01*
X314618Y374618D01*
X313629Y375431D01*
X312499Y376034D01*
X311274Y376406D01*
X310000Y376531D01*
X308726Y376406D01*
X307501Y376034D01*
X306371Y375431D01*
X305382Y374618D01*
X305250Y374458D01*
X304750D01*
X304618Y374618D01*
X303629Y375431D01*
X302500Y376034D01*
X301274Y376406D01*
X300000Y376531D01*
X298726Y376406D01*
X297500Y376034D01*
X296371Y375431D01*
X295382Y374618D01*
X295250Y374458D01*
X294750D01*
X294618Y374618D01*
X293629Y375431D01*
X292499Y376034D01*
X291274Y376406D01*
X290000Y376531D01*
X288726Y376406D01*
X287501Y376034D01*
X286371Y375431D01*
X285382Y374618D01*
X285250Y374458D01*
X284750D01*
X284618Y374619D01*
X283629Y375431D01*
X282500Y376034D01*
X281274Y376406D01*
X280000Y376532D01*
X278726Y376406D01*
X277501Y376034D01*
X276606Y375556D01*
X265008Y387155D01*
X264884Y387780D01*
X264442Y388442D01*
X263780Y388884D01*
X263000Y389039D01*
D02*
G37*
G36*
X80000Y316531D02*
X78726Y316406D01*
X77500Y316034D01*
X76371Y315431D01*
X75382Y314618D01*
X75250Y314458D01*
X74750D01*
X74618Y314618D01*
X73629Y315431D01*
X72500Y316034D01*
X71274Y316406D01*
X70000Y316531D01*
X68726Y316406D01*
X67501Y316034D01*
X66371Y315431D01*
X65382Y314618D01*
X65250Y314458D01*
X64750D01*
X64618Y314618D01*
X63629Y315431D01*
X62499Y316034D01*
X61274Y316406D01*
X60000Y316531D01*
X58726Y316406D01*
X57500Y316034D01*
X56371Y315431D01*
X55382Y314618D01*
X55250Y314458D01*
X54750D01*
X54618Y314618D01*
X53629Y315431D01*
X52500Y316034D01*
X51274Y316406D01*
X50000Y316531D01*
X48726Y316406D01*
X47501Y316034D01*
X46371Y315431D01*
X45382Y314618D01*
X44569Y313629D01*
X43966Y312499D01*
X43594Y311274D01*
X43468Y310000D01*
X43594Y308726D01*
X43966Y307501D01*
X44569Y306371D01*
X45382Y305382D01*
X45542Y305250D01*
Y304750D01*
X45382Y304618D01*
X44569Y303629D01*
X43966Y302500D01*
X43594Y301274D01*
X43468Y300000D01*
X43594Y298726D01*
X43966Y297500D01*
X44569Y296371D01*
X45382Y295382D01*
X45542Y295250D01*
Y294750D01*
X45382Y294618D01*
X44569Y293629D01*
X43966Y292499D01*
X43594Y291274D01*
X43468Y290000D01*
X43594Y288726D01*
X43966Y287501D01*
X44569Y286371D01*
X45382Y285382D01*
X45542Y285250D01*
Y284750D01*
X45382Y284618D01*
X44569Y283629D01*
X43966Y282500D01*
X43594Y281274D01*
X43468Y280000D01*
X43594Y278726D01*
X43966Y277501D01*
X44569Y276371D01*
X45382Y275382D01*
X45542Y275250D01*
Y274750D01*
X45382Y274618D01*
X44569Y273629D01*
X43966Y272499D01*
X43594Y271274D01*
X43468Y270000D01*
X43594Y268726D01*
X43966Y267500D01*
X44569Y266371D01*
X45382Y265382D01*
X45542Y265250D01*
Y264750D01*
X45382Y264618D01*
X44569Y263629D01*
X43966Y262499D01*
X43594Y261274D01*
X43468Y260000D01*
X43594Y258726D01*
X43966Y257501D01*
X44569Y256371D01*
X45382Y255382D01*
X45542Y255250D01*
Y254750D01*
X45382Y254618D01*
X44569Y253629D01*
X43966Y252500D01*
X43594Y251274D01*
X43468Y250000D01*
X43594Y248726D01*
X43966Y247500D01*
X44569Y246371D01*
X45382Y245382D01*
X45542Y245250D01*
Y244750D01*
X45382Y244618D01*
X44569Y243629D01*
X43966Y242499D01*
X43594Y241274D01*
X43468Y240000D01*
X43594Y238726D01*
X43966Y237501D01*
X44569Y236371D01*
X45382Y235382D01*
X45542Y235250D01*
Y234750D01*
X45382Y234618D01*
X44569Y233629D01*
X43966Y232500D01*
X43594Y231274D01*
X43468Y230000D01*
X43594Y228726D01*
X43966Y227501D01*
X44569Y226371D01*
X45382Y225382D01*
X45542Y225250D01*
Y224750D01*
X45382Y224618D01*
X44569Y223629D01*
X43966Y222499D01*
X43594Y221274D01*
X43468Y220000D01*
X43594Y218726D01*
X43966Y217500D01*
X44569Y216371D01*
X45382Y215382D01*
X45542Y215250D01*
Y214750D01*
X45382Y214618D01*
X44569Y213629D01*
X43966Y212499D01*
X43594Y211274D01*
X43468Y210000D01*
X43594Y208726D01*
X43966Y207501D01*
X44569Y206371D01*
X45382Y205382D01*
X45542Y205250D01*
Y204750D01*
X45382Y204618D01*
X44569Y203629D01*
X43966Y202500D01*
X43594Y201274D01*
X43468Y200000D01*
X43594Y198726D01*
X43966Y197501D01*
X44569Y196371D01*
X45382Y195382D01*
X45542Y195250D01*
Y194750D01*
X45382Y194618D01*
X44569Y193629D01*
X43966Y192499D01*
X43594Y191274D01*
X43468Y190000D01*
X43594Y188726D01*
X43966Y187501D01*
X44569Y186371D01*
X45382Y185382D01*
X45542Y185250D01*
Y184750D01*
X45382Y184618D01*
X44569Y183629D01*
X43966Y182500D01*
X43594Y181274D01*
X43468Y180000D01*
X43594Y178726D01*
X43966Y177500D01*
X44569Y176371D01*
X45382Y175382D01*
X45542Y175250D01*
Y174750D01*
X45382Y174618D01*
X44569Y173629D01*
X43966Y172500D01*
X43594Y171274D01*
X43468Y170000D01*
X43594Y168726D01*
X43966Y167500D01*
X44569Y166371D01*
X45382Y165382D01*
X45542Y165250D01*
Y164750D01*
X45382Y164618D01*
X44569Y163629D01*
X43966Y162499D01*
X43594Y161274D01*
X43468Y160000D01*
X43594Y158726D01*
X43966Y157501D01*
X44569Y156371D01*
X45382Y155382D01*
X45542Y155250D01*
Y154750D01*
X45382Y154618D01*
X44569Y153629D01*
X43966Y152499D01*
X43594Y151274D01*
X43468Y150000D01*
X43594Y148726D01*
X43966Y147501D01*
X44569Y146371D01*
X45382Y145382D01*
X45542Y145250D01*
Y144750D01*
X45382Y144618D01*
X44569Y143629D01*
X43966Y142499D01*
X43594Y141274D01*
X43468Y140000D01*
X43594Y138726D01*
X43966Y137501D01*
X44569Y136371D01*
X45382Y135382D01*
X45542Y135250D01*
Y134750D01*
X45382Y134618D01*
X44569Y133629D01*
X43966Y132500D01*
X43594Y131274D01*
X43468Y130000D01*
X43594Y128726D01*
X43966Y127500D01*
X44569Y126371D01*
X45382Y125382D01*
X45542Y125250D01*
Y124750D01*
X45382Y124618D01*
X44569Y123629D01*
X43966Y122500D01*
X43594Y121274D01*
X43468Y120000D01*
X43594Y118726D01*
X43966Y117500D01*
X44569Y116371D01*
X45382Y115382D01*
X45542Y115250D01*
Y114750D01*
X45382Y114618D01*
X44569Y113629D01*
X43966Y112499D01*
X43594Y111274D01*
X43468Y110000D01*
X43594Y108726D01*
X43966Y107501D01*
X44569Y106371D01*
X45382Y105382D01*
X45542Y105250D01*
Y104750D01*
X45382Y104618D01*
X44569Y103629D01*
X43966Y102499D01*
X43594Y101274D01*
X43468Y100000D01*
X43594Y98726D01*
X43966Y97500D01*
X44569Y96371D01*
X45382Y95382D01*
X45542Y95250D01*
Y94750D01*
X45382Y94618D01*
X44569Y93629D01*
X43966Y92500D01*
X43594Y91274D01*
X43468Y90000D01*
X43594Y88726D01*
X43966Y87501D01*
X44569Y86371D01*
X45382Y85382D01*
X46371Y84569D01*
X47501Y83966D01*
X48726Y83594D01*
X50000Y83469D01*
X51274Y83594D01*
X52500Y83966D01*
X53629Y84569D01*
X54618Y85382D01*
X54750Y85542D01*
X55250D01*
X55382Y85382D01*
X56371Y84569D01*
X57500Y83966D01*
X58726Y83594D01*
X60000Y83469D01*
X61274Y83594D01*
X62499Y83966D01*
X63629Y84569D01*
X64618Y85382D01*
X64750Y85542D01*
X65250D01*
X65382Y85382D01*
X66371Y84569D01*
X67501Y83966D01*
X68726Y83594D01*
X70000Y83469D01*
X71274Y83594D01*
X72500Y83966D01*
X73629Y84569D01*
X74618Y85382D01*
X74750Y85542D01*
X75250D01*
X75382Y85382D01*
X76371Y84569D01*
X77500Y83966D01*
X78726Y83594D01*
X80000Y83469D01*
X81274Y83594D01*
X82499Y83966D01*
X83629Y84569D01*
X84618Y85382D01*
X84750Y85542D01*
X85250D01*
X85382Y85382D01*
X86371Y84569D01*
X87501Y83966D01*
X88726Y83594D01*
X90000Y83469D01*
X91274Y83594D01*
X92500Y83966D01*
X93629Y84569D01*
X94618Y85382D01*
X95431Y86371D01*
X96034Y87501D01*
X96406Y88726D01*
X96531Y90000D01*
X96406Y91274D01*
X96034Y92500D01*
X95431Y93629D01*
X94618Y94618D01*
X94458Y94750D01*
Y95250D01*
X94618Y95382D01*
X95431Y96371D01*
X96034Y97500D01*
X96406Y98726D01*
X96531Y100000D01*
X96406Y101274D01*
X96034Y102499D01*
X95431Y103629D01*
X94618Y104618D01*
X94458Y104750D01*
Y105250D01*
X94618Y105382D01*
X95431Y106371D01*
X96034Y107501D01*
X96406Y108726D01*
X96531Y110000D01*
X96406Y111274D01*
X96034Y112499D01*
X95431Y113629D01*
X94618Y114618D01*
X94458Y114750D01*
Y115250D01*
X94618Y115382D01*
X95431Y116371D01*
X96034Y117500D01*
X96406Y118726D01*
X96531Y120000D01*
X96406Y121274D01*
X96034Y122500D01*
X95431Y123629D01*
X94618Y124618D01*
X94458Y124750D01*
Y125250D01*
X94618Y125382D01*
X95431Y126371D01*
X96034Y127500D01*
X96406Y128726D01*
X96531Y130000D01*
X96406Y131274D01*
X96034Y132500D01*
X95431Y133629D01*
X94618Y134618D01*
X94458Y134750D01*
Y135250D01*
X94618Y135382D01*
X95431Y136371D01*
X96034Y137501D01*
X96406Y138726D01*
X96531Y140000D01*
X96406Y141274D01*
X96034Y142499D01*
X95431Y143629D01*
X94618Y144618D01*
X94458Y144750D01*
Y145250D01*
X94618Y145382D01*
X95431Y146371D01*
X96034Y147501D01*
X96406Y148726D01*
X96531Y150000D01*
X96406Y151274D01*
X96034Y152499D01*
X95431Y153629D01*
X94618Y154618D01*
X94458Y154750D01*
Y155250D01*
X94618Y155382D01*
X95431Y156371D01*
X96034Y157501D01*
X96406Y158726D01*
X96531Y160000D01*
X96406Y161274D01*
X96034Y162499D01*
X95431Y163629D01*
X94618Y164618D01*
X94458Y164750D01*
Y165250D01*
X94618Y165382D01*
X95431Y166371D01*
X96034Y167500D01*
X96406Y168726D01*
X96531Y170000D01*
X96406Y171274D01*
X96034Y172500D01*
X95431Y173629D01*
X94618Y174618D01*
X94458Y174750D01*
Y175250D01*
X94618Y175382D01*
X95431Y176371D01*
X96034Y177500D01*
X96406Y178726D01*
X96531Y180000D01*
X96406Y181274D01*
X96034Y182500D01*
X95431Y183629D01*
X94618Y184618D01*
X94458Y184750D01*
Y185250D01*
X94618Y185382D01*
X95431Y186371D01*
X96034Y187501D01*
X96406Y188726D01*
X96531Y190000D01*
X96406Y191274D01*
X96034Y192499D01*
X95431Y193629D01*
X94618Y194618D01*
X94458Y194750D01*
Y195250D01*
X94618Y195382D01*
X95431Y196371D01*
X96034Y197501D01*
X96406Y198726D01*
X96531Y200000D01*
X96406Y201274D01*
X96034Y202500D01*
X95431Y203629D01*
X94618Y204618D01*
X94458Y204750D01*
Y205250D01*
X94618Y205382D01*
X95431Y206371D01*
X96034Y207501D01*
X96406Y208726D01*
X96531Y210000D01*
X96406Y211274D01*
X96034Y212499D01*
X95431Y213629D01*
X94618Y214618D01*
X93629Y215431D01*
X92500Y216034D01*
X91274Y216406D01*
X90000Y216531D01*
X88726Y216406D01*
X87501Y216034D01*
X86371Y215431D01*
X85382Y214618D01*
X85250Y214458D01*
X84750D01*
X84618Y214618D01*
X83629Y215431D01*
X82499Y216034D01*
X81274Y216406D01*
X80000Y216531D01*
X78726Y216406D01*
X77500Y216034D01*
X76371Y215431D01*
X75382Y214618D01*
X75250Y214458D01*
X74750D01*
X74618Y214618D01*
X73629Y215431D01*
X72500Y216034D01*
X71274Y216406D01*
X70000Y216531D01*
X68726Y216406D01*
X67501Y216034D01*
X66371Y215431D01*
X65382Y214618D01*
X65308Y214529D01*
X64784Y214512D01*
X64512Y214784D01*
X64529Y215308D01*
X64618Y215382D01*
X65431Y216371D01*
X66034Y217500D01*
X66406Y218726D01*
X66531Y220000D01*
X66406Y221274D01*
X66034Y222499D01*
X65431Y223629D01*
X64618Y224618D01*
X64458Y224750D01*
Y225250D01*
X64618Y225382D01*
X65431Y226371D01*
X66034Y227501D01*
X66406Y228726D01*
X66531Y230000D01*
X66406Y231274D01*
X66034Y232500D01*
X65431Y233629D01*
X64618Y234618D01*
X64458Y234750D01*
Y235250D01*
X64618Y235382D01*
X65431Y236371D01*
X66034Y237501D01*
X66406Y238726D01*
X66531Y240000D01*
X66406Y241274D01*
X66034Y242499D01*
X65431Y243629D01*
X64618Y244618D01*
X64458Y244750D01*
Y245250D01*
X64618Y245382D01*
X65431Y246371D01*
X66034Y247500D01*
X66406Y248726D01*
X66531Y250000D01*
X66406Y251274D01*
X66034Y252500D01*
X65431Y253629D01*
X64618Y254618D01*
X64458Y254750D01*
Y255250D01*
X64618Y255382D01*
X64750Y255542D01*
X65250D01*
X65382Y255382D01*
X66371Y254569D01*
X67501Y253966D01*
X68726Y253594D01*
X70000Y253469D01*
X71274Y253594D01*
X72500Y253966D01*
X73629Y254569D01*
X74618Y255382D01*
X74750Y255542D01*
X75250D01*
X75382Y255382D01*
X76371Y254569D01*
X77500Y253966D01*
X78726Y253594D01*
X80000Y253469D01*
X81274Y253594D01*
X82499Y253966D01*
X83629Y254569D01*
X84618Y255382D01*
X85431Y256371D01*
X86034Y257501D01*
X86406Y258726D01*
X86531Y260000D01*
X86406Y261274D01*
X86034Y262499D01*
X85431Y263629D01*
X84618Y264618D01*
X84458Y264750D01*
Y265250D01*
X84618Y265382D01*
X85431Y266371D01*
X86034Y267500D01*
X86406Y268726D01*
X86531Y270000D01*
X86406Y271274D01*
X86034Y272499D01*
X85431Y273629D01*
X84618Y274618D01*
X84458Y274750D01*
Y275250D01*
X84618Y275382D01*
X85431Y276371D01*
X86034Y277501D01*
X86406Y278726D01*
X86531Y280000D01*
X86406Y281274D01*
X86034Y282500D01*
X85431Y283629D01*
X84618Y284618D01*
X84458Y284750D01*
Y285250D01*
X84618Y285382D01*
X85431Y286371D01*
X86034Y287501D01*
X86406Y288726D01*
X86531Y290000D01*
X86406Y291274D01*
X86034Y292499D01*
X85431Y293629D01*
X84618Y294618D01*
X84458Y294750D01*
Y295250D01*
X84618Y295382D01*
X85431Y296371D01*
X86034Y297500D01*
X86406Y298726D01*
X86531Y300000D01*
X86406Y301274D01*
X86034Y302500D01*
X85431Y303629D01*
X84618Y304618D01*
X84458Y304750D01*
Y305250D01*
X84618Y305382D01*
X85431Y306371D01*
X86034Y307501D01*
X86406Y308726D01*
X86531Y310000D01*
X86406Y311274D01*
X86034Y312499D01*
X85431Y313629D01*
X84618Y314618D01*
X83629Y315431D01*
X82499Y316034D01*
X81274Y316406D01*
X80000Y316531D01*
D02*
G37*
G36*
X149000Y430549D02*
X119000D01*
X118025Y430355D01*
X117198Y429802D01*
X113105Y425710D01*
X112499Y426034D01*
X111274Y426406D01*
X110000Y426532D01*
X108726Y426406D01*
X107501Y426034D01*
X106371Y425431D01*
X105382Y424618D01*
X104569Y423629D01*
X103966Y422500D01*
X103594Y421274D01*
X103469Y420000D01*
X103594Y418726D01*
X103966Y417500D01*
X104569Y416371D01*
X105382Y415382D01*
X106371Y414569D01*
X107501Y413966D01*
X108726Y413594D01*
X110000Y413469D01*
X111274Y413594D01*
X112499Y413966D01*
X113629Y414569D01*
X114618Y415382D01*
X115431Y416371D01*
X116034Y417500D01*
X116406Y418726D01*
X116531Y420000D01*
X116406Y421274D01*
X116283Y421678D01*
X120056Y425451D01*
X147944D01*
X155451Y417944D01*
Y344675D01*
X155382Y344618D01*
X154569Y343629D01*
X153991Y342547D01*
X153024Y342355D01*
X152198Y341802D01*
X132944Y322549D01*
X131056D01*
X122891Y330713D01*
Y333177D01*
X124362D01*
Y338327D01*
X117638D01*
Y337644D01*
X111059D01*
Y343122D01*
X100941D01*
Y337644D01*
X94740D01*
Y339047D01*
X89530D01*
X89070Y339355D01*
X88095Y339549D01*
X69346D01*
Y343905D01*
X60654D01*
Y330095D01*
X69346D01*
Y334451D01*
X85260D01*
Y331142D01*
X94740D01*
Y332545D01*
X117794D01*
Y329658D01*
X117988Y328682D01*
X118540Y327855D01*
X128198Y318198D01*
X129025Y317645D01*
X130000Y317451D01*
X134000D01*
X134976Y317645D01*
X135802Y318198D01*
X154066Y336461D01*
X154369Y336416D01*
X154621Y336309D01*
X155382Y335382D01*
X155542Y335250D01*
Y334750D01*
X155382Y334618D01*
X154569Y333629D01*
X153966Y332500D01*
X153594Y331274D01*
X153469Y330000D01*
X153594Y328726D01*
X153966Y327501D01*
X154569Y326371D01*
X155382Y325382D01*
X155542Y325250D01*
Y324750D01*
X155382Y324618D01*
X154569Y323629D01*
X153966Y322499D01*
X153671Y321529D01*
X147000D01*
X146415Y321413D01*
X145919Y321081D01*
X126532Y301695D01*
X124163D01*
X123966Y302171D01*
X123328Y303001D01*
X122497Y303639D01*
X121530Y304039D01*
X120492Y304176D01*
X119508D01*
X118470Y304039D01*
X118342Y303986D01*
X116028Y306300D01*
X115532Y306631D01*
X114947Y306748D01*
X106280D01*
Y309073D01*
X99162D01*
Y301364D01*
X106280D01*
Y303689D01*
X114313D01*
X115975Y302027D01*
X115634Y301203D01*
X115497Y300165D01*
X115634Y299127D01*
X116034Y298160D01*
X116157Y298000D01*
X116034Y297840D01*
X115634Y296873D01*
X115497Y295835D01*
X115634Y294797D01*
X115689Y294663D01*
X115411Y294248D01*
X106280D01*
Y296573D01*
X99162D01*
Y288864D01*
X106280D01*
Y291189D01*
X116884D01*
X117469Y291305D01*
X117965Y291637D01*
X118342Y292014D01*
X118470Y291961D01*
X119508Y291824D01*
X120492D01*
X121530Y291961D01*
X122497Y292361D01*
X123328Y292999D01*
X123966Y293829D01*
X124163Y294305D01*
X126835D01*
X127420Y294422D01*
X127916Y294753D01*
X141633Y308471D01*
X153672D01*
X153966Y307501D01*
X154569Y306371D01*
X155382Y305382D01*
X155542Y305250D01*
Y304750D01*
X155382Y304618D01*
X154569Y303629D01*
X153966Y302500D01*
X153672Y301529D01*
X147000D01*
X146415Y301413D01*
X145919Y301081D01*
X123153Y278316D01*
X122452Y278854D01*
X121269Y279343D01*
X120000Y279510D01*
X118731Y279343D01*
X117548Y278854D01*
X116532Y278074D01*
X115753Y277058D01*
X115371Y276136D01*
X106709D01*
Y278854D01*
X99591D01*
Y271146D01*
X106709D01*
Y273077D01*
X115371D01*
X115753Y272154D01*
X116532Y271139D01*
X117548Y270359D01*
X118731Y269869D01*
X120000Y269702D01*
X121269Y269869D01*
X122452Y270359D01*
X123468Y271139D01*
X124247Y272154D01*
X124737Y273337D01*
X124904Y274606D01*
X124772Y275609D01*
X147634Y298471D01*
X153672D01*
X153966Y297500D01*
X154569Y296371D01*
X155382Y295382D01*
X155542Y295250D01*
Y294750D01*
X155382Y294618D01*
X154569Y293629D01*
X153966Y292499D01*
X153594Y291274D01*
X153579Y291117D01*
X153525Y291081D01*
X122699Y260256D01*
X115138D01*
Y256923D01*
X106709D01*
Y258854D01*
X99591D01*
Y251146D01*
X106709D01*
Y253865D01*
X115138D01*
Y250532D01*
X124862D01*
Y258093D01*
X153775Y287006D01*
X154269Y286932D01*
X154569Y286371D01*
X155382Y285382D01*
X155542Y285250D01*
Y284750D01*
X155382Y284618D01*
X154569Y283629D01*
X153966Y282500D01*
X153672Y281529D01*
X153000D01*
X152415Y281413D01*
X151919Y281081D01*
X131419Y260581D01*
X131087Y260085D01*
X130971Y259500D01*
Y250634D01*
X121867Y241529D01*
X86283D01*
X84209Y243604D01*
Y248854D01*
X77091D01*
Y241146D01*
X82341D01*
X83487Y240000D01*
X82046Y238559D01*
X78173D01*
Y231441D01*
X84110D01*
Y236298D01*
X86283Y238471D01*
X104623D01*
X104671Y238408D01*
X104808Y237971D01*
X97366Y230529D01*
X77634D01*
X77097Y231066D01*
X76827Y231441D01*
X76827D01*
X76827Y231441D01*
Y238559D01*
X70890D01*
Y231441D01*
X72522D01*
X72777Y231060D01*
X75919Y227919D01*
X76415Y227587D01*
X77000Y227471D01*
X98000D01*
X98585Y227587D01*
X99081Y227919D01*
X106633Y235471D01*
X120367D01*
X126919Y228919D01*
X126919Y228919D01*
X131483Y224354D01*
X131289Y223854D01*
X129591D01*
Y216146D01*
X131620D01*
Y213854D01*
X129591D01*
Y206146D01*
X131620D01*
Y203854D01*
X129591D01*
Y196146D01*
X136709D01*
Y203854D01*
X134679D01*
Y206146D01*
X136709D01*
Y213854D01*
X134679D01*
Y216146D01*
X136709D01*
Y223854D01*
X134679D01*
Y224850D01*
X134563Y225436D01*
X134231Y225932D01*
X132154Y228009D01*
X132346Y228471D01*
X139366D01*
X148919Y218919D01*
X149415Y218587D01*
X150000Y218471D01*
X153672D01*
X153966Y217500D01*
X154569Y216371D01*
X155382Y215382D01*
X155542Y215250D01*
Y214750D01*
X155382Y214618D01*
X154569Y213629D01*
X153966Y212499D01*
X153594Y211274D01*
X153469Y210000D01*
X153594Y208726D01*
X153966Y207501D01*
X154569Y206371D01*
X155382Y205382D01*
X155542Y205250D01*
Y204750D01*
X155382Y204618D01*
X154569Y203629D01*
X153966Y202500D01*
X153594Y201274D01*
X153469Y200000D01*
X153594Y198726D01*
X153966Y197501D01*
X154569Y196371D01*
X155382Y195382D01*
X155542Y195250D01*
Y194750D01*
X155382Y194618D01*
X154569Y193629D01*
X153966Y192499D01*
X153594Y191274D01*
X153469Y190000D01*
X153594Y188726D01*
X153966Y187501D01*
X154569Y186371D01*
X155382Y185382D01*
X156371Y184569D01*
X157501Y183966D01*
X158726Y183594D01*
X160000Y183469D01*
X161274Y183594D01*
X162499Y183966D01*
X163629Y184569D01*
X164618Y185382D01*
X165431Y186371D01*
X166034Y187501D01*
X166406Y188726D01*
X166531Y190000D01*
X166406Y191274D01*
X166034Y192499D01*
X165556Y193394D01*
X220870Y248707D01*
X243248D01*
X243288Y248715D01*
X245807D01*
X246389Y248831D01*
X246883Y249161D01*
X247213Y249654D01*
X247328Y250236D01*
X247213Y250818D01*
X246944Y251220D01*
X247213Y251623D01*
X247328Y252205D01*
X247213Y252787D01*
X246944Y253189D01*
X247213Y253591D01*
X247328Y254173D01*
X247318Y254226D01*
X247635Y254612D01*
X249226D01*
X249820Y254216D01*
X250600Y254061D01*
X251380Y254216D01*
X252042Y254658D01*
X252484Y255320D01*
X252639Y256100D01*
X252484Y256880D01*
X252129Y257411D01*
Y278271D01*
X278171D01*
Y253029D01*
X255200D01*
X254615Y252913D01*
X254119Y252581D01*
X254046Y252508D01*
X253420Y252384D01*
X252758Y251942D01*
X252316Y251280D01*
X252161Y250500D01*
X252316Y249720D01*
X252671Y249189D01*
Y245901D01*
X252652Y245807D01*
Y243288D01*
X252644Y243248D01*
Y204807D01*
X213393Y165556D01*
X212499Y166034D01*
X211274Y166406D01*
X210000Y166531D01*
X208726Y166406D01*
X207501Y166034D01*
X206371Y165431D01*
X205382Y164618D01*
X204569Y163629D01*
X203966Y162499D01*
X203594Y161274D01*
X203469Y160000D01*
X203594Y158726D01*
X203966Y157501D01*
X204569Y156371D01*
X205382Y155382D01*
X206371Y154569D01*
X207501Y153966D01*
X208726Y153594D01*
X210000Y153469D01*
X211274Y153594D01*
X212499Y153966D01*
X213629Y154569D01*
X214618Y155382D01*
X214750Y155542D01*
X215250D01*
X215382Y155382D01*
X216371Y154569D01*
X217500Y153966D01*
X218471Y153672D01*
Y147693D01*
X216441D01*
Y141165D01*
X223559D01*
Y147693D01*
X221529D01*
Y153672D01*
X222499Y153966D01*
X223629Y154569D01*
X224618Y155382D01*
X224750Y155542D01*
X225250D01*
X225382Y155382D01*
X226371Y154569D01*
X227501Y153966D01*
X228471Y153672D01*
Y147693D01*
X226441D01*
Y141165D01*
X233559D01*
Y147693D01*
X231529D01*
Y153672D01*
X232500Y153966D01*
X233629Y154569D01*
X234618Y155382D01*
X234750Y155542D01*
X235250D01*
X235382Y155382D01*
X236371Y154569D01*
X237501Y153966D01*
X238471Y153672D01*
Y147693D01*
X236441D01*
Y141165D01*
X243559D01*
Y147693D01*
X241529D01*
Y153672D01*
X242499Y153966D01*
X243629Y154569D01*
X244618Y155382D01*
X244750Y155542D01*
X245250D01*
X245382Y155382D01*
X246371Y154569D01*
X247500Y153966D01*
X248726Y153594D01*
X250000Y153469D01*
X251274Y153594D01*
X252500Y153966D01*
X253629Y154569D01*
X254618Y155382D01*
X254750Y155542D01*
X255250D01*
X255382Y155382D01*
X256371Y154569D01*
X257501Y153966D01*
X258726Y153594D01*
X260000Y153469D01*
X261274Y153594D01*
X262499Y153966D01*
X263629Y154569D01*
X264618Y155382D01*
X264750Y155542D01*
X265250D01*
X265382Y155382D01*
X266371Y154569D01*
X267500Y153966D01*
X268726Y153594D01*
X270000Y153469D01*
X271274Y153594D01*
X272499Y153966D01*
X273629Y154569D01*
X274618Y155382D01*
X274750Y155542D01*
X275250D01*
X275381Y155382D01*
X276371Y154569D01*
X277500Y153966D01*
X278726Y153594D01*
X280000Y153469D01*
X281274Y153594D01*
X282499Y153966D01*
X283629Y154569D01*
X284618Y155382D01*
X284750Y155542D01*
X285250D01*
X285382Y155382D01*
X286371Y154569D01*
X287501Y153966D01*
X288726Y153594D01*
X290000Y153469D01*
X291274Y153594D01*
X292499Y153966D01*
X293629Y154569D01*
X294618Y155382D01*
X294750Y155542D01*
X295250D01*
X295382Y155382D01*
X296371Y154569D01*
X297500Y153966D01*
X298726Y153594D01*
X300000Y153469D01*
X301274Y153594D01*
X302500Y153966D01*
X303629Y154569D01*
X304618Y155382D01*
X304750Y155542D01*
X305250D01*
X305382Y155382D01*
X306371Y154569D01*
X307501Y153966D01*
X308726Y153594D01*
X310000Y153469D01*
X311274Y153594D01*
X312500Y153966D01*
X313629Y154569D01*
X314619Y155382D01*
X314758Y155551D01*
X315258D01*
X315397Y155382D01*
X316387Y154569D01*
X317516Y153966D01*
X318742Y153594D01*
X320016Y153469D01*
X321290Y153594D01*
X322515Y153966D01*
X323644Y154569D01*
X324634Y155382D01*
X325447Y156371D01*
X326050Y157501D01*
X326422Y158726D01*
X326547Y160000D01*
X326422Y161274D01*
X326050Y162499D01*
X325447Y163629D01*
X324634Y164618D01*
X323644Y165431D01*
X322515Y166034D01*
X321290Y166406D01*
X320016Y166531D01*
X318742Y166406D01*
X317516Y166034D01*
X316612Y165551D01*
X277356Y204807D01*
Y243248D01*
X277348Y243288D01*
Y245807D01*
X277232Y246389D01*
X276903Y246883D01*
X276409Y247213D01*
X275827Y247328D01*
X275245Y247213D01*
X274843Y246944D01*
X274441Y247213D01*
X273858Y247328D01*
X273276Y247213D01*
X272874Y246944D01*
X272472Y247213D01*
X271890Y247328D01*
X271308Y247213D01*
X270905Y246944D01*
X270503Y247213D01*
X269921Y247328D01*
X269339Y247213D01*
X268937Y246944D01*
X268535Y247213D01*
X267953Y247328D01*
X267371Y247213D01*
X266968Y246944D01*
X266566Y247213D01*
X265984Y247328D01*
X265402Y247213D01*
X265000Y246944D01*
X264598Y247213D01*
X264016Y247328D01*
X263434Y247213D01*
X263032Y246944D01*
X262629Y247213D01*
X262047Y247328D01*
X261465Y247213D01*
X261063Y246944D01*
X260661Y247213D01*
X260079Y247328D01*
X259496Y247213D01*
X259095Y246944D01*
X258692Y247213D01*
X258110Y247328D01*
X257528Y247213D01*
X257126Y246944D01*
X256724Y247213D01*
X256142Y247328D01*
X256116Y247323D01*
X255729Y247640D01*
Y249189D01*
X256084Y249720D01*
X256134Y249971D01*
X277849D01*
X278171Y249489D01*
Y243312D01*
X278234Y242991D01*
Y220236D01*
X278351Y219651D01*
X278682Y219155D01*
X334444Y163393D01*
X333966Y162499D01*
X333594Y161274D01*
X333469Y160000D01*
X333594Y158726D01*
X333966Y157501D01*
X334569Y156371D01*
X335382Y155382D01*
X336371Y154569D01*
X337501Y153966D01*
X338726Y153594D01*
X340000Y153469D01*
X341274Y153594D01*
X342499Y153966D01*
X343629Y154569D01*
X344618Y155382D01*
X344750Y155542D01*
X345250D01*
X345382Y155382D01*
X345542Y155250D01*
Y154750D01*
X345382Y154618D01*
X344569Y153629D01*
X343966Y152499D01*
X343594Y151274D01*
X343469Y150000D01*
X343594Y148726D01*
X343966Y147501D01*
X344569Y146371D01*
X345382Y145382D01*
X345471Y145308D01*
X345488Y144783D01*
X345216Y144512D01*
X344692Y144529D01*
X344618Y144618D01*
X343629Y145431D01*
X342499Y146034D01*
X341274Y146406D01*
X340000Y146531D01*
X338726Y146406D01*
X337501Y146034D01*
X336371Y145431D01*
X335382Y144618D01*
X335250Y144458D01*
X334750D01*
X334618Y144618D01*
X333629Y145431D01*
X332500Y146034D01*
X331274Y146406D01*
X330000Y146531D01*
X328726Y146406D01*
X327501Y146034D01*
X326371Y145431D01*
X325382Y144618D01*
X325250Y144458D01*
X324750D01*
X324618Y144618D01*
X323629Y145431D01*
X322499Y146034D01*
X321274Y146406D01*
X320000Y146531D01*
X318726Y146406D01*
X317500Y146034D01*
X316371Y145431D01*
X315382Y144618D01*
X314569Y143629D01*
X313966Y142499D01*
X313594Y141274D01*
X313469Y140000D01*
X313594Y138726D01*
X313966Y137501D01*
X314569Y136371D01*
X315382Y135382D01*
X316371Y134569D01*
X317500Y133966D01*
X318726Y133594D01*
X320000Y133469D01*
X321274Y133594D01*
X322499Y133966D01*
X323629Y134569D01*
X324618Y135382D01*
X324750Y135542D01*
X325250D01*
X325382Y135382D01*
X326371Y134569D01*
X327501Y133966D01*
X328726Y133594D01*
X330000Y133469D01*
X331274Y133594D01*
X332500Y133966D01*
X333629Y134569D01*
X334618Y135382D01*
X334750Y135542D01*
X335250D01*
X335382Y135382D01*
X336371Y134569D01*
X337501Y133966D01*
X338726Y133594D01*
X340000Y133469D01*
X341274Y133594D01*
X342499Y133966D01*
X343629Y134569D01*
X344618Y135382D01*
X344750Y135542D01*
X345250D01*
X345382Y135382D01*
X346371Y134569D01*
X347500Y133966D01*
X348726Y133594D01*
X350000Y133469D01*
X351274Y133594D01*
X352500Y133966D01*
X353629Y134569D01*
X354618Y135382D01*
X354750Y135542D01*
X355250D01*
X355382Y135382D01*
X356371Y134569D01*
X357501Y133966D01*
X358726Y133594D01*
X360000Y133469D01*
X361274Y133594D01*
X362499Y133966D01*
X363629Y134569D01*
X364618Y135382D01*
X364750Y135542D01*
X365250D01*
X365382Y135382D01*
X366371Y134569D01*
X367500Y133966D01*
X368726Y133594D01*
X370000Y133469D01*
X371274Y133594D01*
X372499Y133966D01*
X373629Y134569D01*
X374618Y135382D01*
X374750Y135542D01*
X375250D01*
X375382Y135382D01*
X376371Y134569D01*
X377501Y133966D01*
X378726Y133594D01*
X380000Y133469D01*
X381274Y133594D01*
X382500Y133966D01*
X383629Y134569D01*
X384618Y135382D01*
X384750Y135542D01*
X385250D01*
X385382Y135382D01*
X386371Y134569D01*
X387501Y133966D01*
X388726Y133594D01*
X390000Y133469D01*
X391274Y133594D01*
X392499Y133966D01*
X393629Y134569D01*
X394618Y135382D01*
X394750Y135542D01*
X395250D01*
X395382Y135382D01*
X396371Y134569D01*
X397500Y133966D01*
X398726Y133594D01*
X400000Y133469D01*
X401274Y133594D01*
X402499Y133966D01*
X403629Y134569D01*
X404618Y135382D01*
X404750Y135542D01*
X405250D01*
X405382Y135382D01*
X406371Y134569D01*
X407501Y133966D01*
X408726Y133594D01*
X410000Y133469D01*
X411274Y133594D01*
X412500Y133966D01*
X413629Y134569D01*
X414618Y135382D01*
X414750Y135542D01*
X415250D01*
X415382Y135382D01*
X416371Y134569D01*
X417500Y133966D01*
X418726Y133594D01*
X420000Y133469D01*
X421274Y133594D01*
X422500Y133966D01*
X423629Y134569D01*
X424618Y135382D01*
X425431Y136371D01*
X426034Y137501D01*
X426406Y138726D01*
X426532Y140000D01*
X426406Y141274D01*
X426034Y142499D01*
X425431Y143629D01*
X424618Y144618D01*
X424458Y144750D01*
Y145250D01*
X424618Y145382D01*
X425431Y146371D01*
X426034Y147501D01*
X426406Y148726D01*
X426532Y150000D01*
X426406Y151274D01*
X426034Y152499D01*
X425431Y153629D01*
X424618Y154618D01*
X424458Y154750D01*
Y155250D01*
X424618Y155382D01*
X425431Y156371D01*
X426034Y157501D01*
X426406Y158726D01*
X426532Y160000D01*
X426406Y161274D01*
X426034Y162499D01*
X425431Y163629D01*
X424618Y164618D01*
X424458Y164750D01*
Y165250D01*
X424618Y165382D01*
X425431Y166371D01*
X426034Y167500D01*
X426406Y168726D01*
X426532Y170000D01*
X426406Y171274D01*
X426034Y172500D01*
X425431Y173629D01*
X424618Y174618D01*
X424458Y174750D01*
Y175250D01*
X424618Y175382D01*
X425431Y176371D01*
X426034Y177500D01*
X426406Y178726D01*
X426532Y180000D01*
X426406Y181274D01*
X426034Y182500D01*
X425431Y183629D01*
X424618Y184618D01*
X424458Y184750D01*
Y185250D01*
X424618Y185382D01*
X425431Y186371D01*
X426034Y187501D01*
X426406Y188726D01*
X426532Y190000D01*
X426406Y191274D01*
X426034Y192499D01*
X425431Y193629D01*
X424618Y194618D01*
X424458Y194750D01*
Y195250D01*
X424618Y195382D01*
X425431Y196371D01*
X426034Y197501D01*
X426406Y198726D01*
X426532Y200000D01*
X426406Y201274D01*
X426034Y202500D01*
X425431Y203629D01*
X424618Y204618D01*
X424458Y204750D01*
Y205250D01*
X424618Y205382D01*
X425431Y206371D01*
X426034Y207501D01*
X426406Y208726D01*
X426532Y210000D01*
X426406Y211274D01*
X426034Y212499D01*
X425431Y213629D01*
X424618Y214618D01*
X424458Y214750D01*
Y215250D01*
X424618Y215382D01*
X425431Y216371D01*
X426034Y217500D01*
X426406Y218726D01*
X426532Y220000D01*
X426406Y221274D01*
X426034Y222499D01*
X425431Y223629D01*
X424618Y224618D01*
X424458Y224750D01*
Y225250D01*
X424618Y225382D01*
X425431Y226371D01*
X426034Y227501D01*
X426406Y228726D01*
X426532Y230000D01*
X426406Y231274D01*
X426034Y232500D01*
X425431Y233629D01*
X424618Y234618D01*
X424458Y234750D01*
Y235250D01*
X424618Y235382D01*
X425431Y236371D01*
X426034Y237501D01*
X426406Y238726D01*
X426532Y240000D01*
X426406Y241274D01*
X426034Y242499D01*
X425431Y243629D01*
X424618Y244618D01*
X424458Y244750D01*
Y245250D01*
X424618Y245382D01*
X425431Y246371D01*
X426034Y247500D01*
X426406Y248726D01*
X426532Y250000D01*
X426406Y251274D01*
X426034Y252500D01*
X425431Y253629D01*
X424618Y254618D01*
X424458Y254750D01*
Y255250D01*
X424618Y255382D01*
X425431Y256371D01*
X426034Y257501D01*
X426406Y258726D01*
X426532Y260000D01*
X426406Y261274D01*
X426034Y262499D01*
X425431Y263629D01*
X424618Y264618D01*
X424458Y264750D01*
Y265250D01*
X424618Y265382D01*
X425431Y266371D01*
X426034Y267500D01*
X426406Y268726D01*
X426532Y270000D01*
X426406Y271274D01*
X426034Y272499D01*
X425431Y273629D01*
X424618Y274618D01*
X424458Y274750D01*
Y275250D01*
X424618Y275382D01*
X425431Y276371D01*
X426034Y277501D01*
X426406Y278726D01*
X426532Y280000D01*
X426406Y281274D01*
X426034Y282500D01*
X425431Y283629D01*
X424618Y284618D01*
X424458Y284750D01*
Y285250D01*
X424618Y285382D01*
X425431Y286371D01*
X426034Y287501D01*
X426406Y288726D01*
X426532Y290000D01*
X426406Y291274D01*
X426034Y292499D01*
X425431Y293629D01*
X424618Y294618D01*
X424458Y294750D01*
Y295250D01*
X424618Y295382D01*
X425431Y296371D01*
X426034Y297500D01*
X426406Y298726D01*
X426532Y300000D01*
X426406Y301274D01*
X426034Y302500D01*
X425431Y303629D01*
X424618Y304618D01*
X424458Y304750D01*
Y305250D01*
X424618Y305382D01*
X425431Y306371D01*
X426034Y307501D01*
X426406Y308726D01*
X426532Y310000D01*
X426406Y311274D01*
X426034Y312499D01*
X425431Y313629D01*
X424618Y314618D01*
X424458Y314750D01*
Y315250D01*
X424618Y315382D01*
X425431Y316371D01*
X426034Y317500D01*
X426406Y318726D01*
X426532Y320000D01*
X426406Y321274D01*
X426034Y322499D01*
X425431Y323629D01*
X424618Y324618D01*
X424458Y324750D01*
Y325250D01*
X424618Y325382D01*
X425431Y326371D01*
X426034Y327501D01*
X426406Y328726D01*
X426532Y330000D01*
X426406Y331274D01*
X426034Y332500D01*
X425431Y333629D01*
X424618Y334618D01*
X424458Y334750D01*
Y335250D01*
X424618Y335382D01*
X425431Y336371D01*
X426034Y337501D01*
X426406Y338726D01*
X426532Y340000D01*
X426406Y341274D01*
X426034Y342499D01*
X425431Y343629D01*
X424618Y344618D01*
X424458Y344750D01*
Y345250D01*
X424618Y345382D01*
X425431Y346371D01*
X426034Y347500D01*
X426406Y348726D01*
X426532Y350000D01*
X426406Y351274D01*
X426034Y352500D01*
X425431Y353629D01*
X424618Y354618D01*
X424458Y354750D01*
Y355250D01*
X424618Y355382D01*
X425431Y356371D01*
X426034Y357501D01*
X426406Y358726D01*
X426532Y360000D01*
X426406Y361274D01*
X426034Y362499D01*
X425431Y363629D01*
X424618Y364618D01*
X424458Y364750D01*
Y365250D01*
X424618Y365382D01*
X425431Y366371D01*
X426034Y367500D01*
X426406Y368726D01*
X426532Y370000D01*
X426406Y371274D01*
X426034Y372499D01*
X425431Y373629D01*
X424618Y374618D01*
X424458Y374750D01*
Y375250D01*
X424618Y375382D01*
X425431Y376371D01*
X426034Y377501D01*
X426406Y378726D01*
X426532Y380000D01*
X426406Y381274D01*
X426034Y382500D01*
X425431Y383629D01*
X424618Y384618D01*
X424458Y384750D01*
Y385250D01*
X424618Y385382D01*
X425431Y386371D01*
X426034Y387501D01*
X426406Y388726D01*
X426532Y390000D01*
X426406Y391274D01*
X426034Y392499D01*
X425431Y393629D01*
X424618Y394618D01*
X423629Y395431D01*
X422500Y396034D01*
X421274Y396406D01*
X420000Y396531D01*
X418726Y396406D01*
X418127Y396224D01*
X417921Y396684D01*
X419134Y397428D01*
X420989Y399011D01*
X422572Y400866D01*
X423846Y402945D01*
X424779Y405198D01*
X425349Y407569D01*
X425540Y410000D01*
X425349Y412431D01*
X424779Y414802D01*
X423846Y417055D01*
X422572Y419134D01*
X420989Y420989D01*
X419134Y422572D01*
X417055Y423846D01*
X414802Y424779D01*
X412431Y425349D01*
X410000Y425540D01*
X407569Y425349D01*
X405198Y424779D01*
X402945Y423846D01*
X400866Y422572D01*
X399011Y420989D01*
X397428Y419134D01*
X396684Y417921D01*
X396224Y418127D01*
X396406Y418726D01*
X396531Y420000D01*
X396406Y421274D01*
X396034Y422500D01*
X395431Y423629D01*
X394618Y424618D01*
X393629Y425431D01*
X392499Y426034D01*
X391274Y426406D01*
X390000Y426532D01*
X388726Y426406D01*
X387501Y426034D01*
X386371Y425431D01*
X385382Y424618D01*
X385250Y424458D01*
X384750D01*
X384618Y424618D01*
X383629Y425431D01*
X382500Y426034D01*
X381274Y426406D01*
X380000Y426532D01*
X378726Y426406D01*
X377501Y426034D01*
X376371Y425431D01*
X375382Y424618D01*
X375250Y424458D01*
X374750D01*
X374618Y424618D01*
X373629Y425431D01*
X372499Y426034D01*
X371274Y426406D01*
X370000Y426532D01*
X368726Y426406D01*
X367500Y426034D01*
X366371Y425431D01*
X365382Y424618D01*
X365250Y424458D01*
X364750D01*
X364618Y424618D01*
X363629Y425431D01*
X362499Y426034D01*
X361274Y426406D01*
X360000Y426532D01*
X358726Y426406D01*
X357501Y426034D01*
X356371Y425431D01*
X355382Y424618D01*
X355250Y424458D01*
X354750D01*
X354618Y424618D01*
X353629Y425431D01*
X352500Y426034D01*
X351274Y426406D01*
X350000Y426532D01*
X348726Y426406D01*
X347500Y426034D01*
X346371Y425431D01*
X345382Y424618D01*
X345250Y424458D01*
X344750D01*
X344618Y424618D01*
X343629Y425431D01*
X342499Y426034D01*
X341274Y426406D01*
X340000Y426532D01*
X338726Y426406D01*
X337501Y426034D01*
X336371Y425431D01*
X335382Y424618D01*
X335250Y424458D01*
X334750D01*
X334618Y424618D01*
X333629Y425431D01*
X332500Y426034D01*
X331274Y426406D01*
X330000Y426532D01*
X328726Y426406D01*
X327501Y426034D01*
X326371Y425431D01*
X325382Y424618D01*
X325250Y424458D01*
X324750D01*
X324618Y424618D01*
X323629Y425431D01*
X322499Y426034D01*
X321274Y426406D01*
X320000Y426532D01*
X318726Y426406D01*
X317500Y426034D01*
X316371Y425431D01*
X315382Y424618D01*
X314569Y423629D01*
X313966Y422500D01*
X313594Y421274D01*
X313469Y420000D01*
X313594Y418726D01*
X313966Y417500D01*
X314569Y416371D01*
X315382Y415382D01*
X316371Y414569D01*
X317500Y413966D01*
X318726Y413594D01*
X320000Y413469D01*
X321274Y413594D01*
X322499Y413966D01*
X323629Y414569D01*
X324618Y415382D01*
X324750Y415542D01*
X325250D01*
X325382Y415382D01*
X325542Y415250D01*
Y414750D01*
X325382Y414618D01*
X324569Y413629D01*
X323966Y412500D01*
X323594Y411274D01*
X323469Y410000D01*
X323594Y408726D01*
X323966Y407501D01*
X324569Y406371D01*
X325382Y405382D01*
X326371Y404569D01*
X327501Y403966D01*
X328726Y403594D01*
X330000Y403469D01*
X331274Y403594D01*
X332500Y403966D01*
X333629Y404569D01*
X334618Y405382D01*
X334750Y405542D01*
X335250D01*
X335382Y405382D01*
X335542Y405250D01*
Y404750D01*
X335382Y404618D01*
X334569Y403629D01*
X333966Y402499D01*
X333594Y401274D01*
X333469Y400000D01*
X333594Y398726D01*
X333966Y397500D01*
X334569Y396371D01*
X335382Y395382D01*
X336371Y394569D01*
X337501Y393966D01*
X338726Y393594D01*
X340000Y393469D01*
X341274Y393594D01*
X342499Y393966D01*
X343629Y394569D01*
X344618Y395382D01*
X344692Y395471D01*
X345216Y395488D01*
X345488Y395216D01*
X345471Y394692D01*
X345382Y394618D01*
X344569Y393629D01*
X343966Y392499D01*
X343594Y391274D01*
X343469Y390000D01*
X343594Y388726D01*
X343966Y387501D01*
X344569Y386371D01*
X345382Y385382D01*
X346371Y384569D01*
X347500Y383966D01*
X348726Y383594D01*
X350000Y383469D01*
X351274Y383594D01*
X352500Y383966D01*
X353629Y384569D01*
X354618Y385382D01*
X354750Y385542D01*
X355250D01*
X355382Y385382D01*
X355542Y385250D01*
Y384750D01*
X355382Y384618D01*
X354569Y383629D01*
X353966Y382500D01*
X353594Y381274D01*
X353469Y380000D01*
X353594Y378726D01*
X353966Y377501D01*
X354569Y376371D01*
X355382Y375382D01*
X356371Y374569D01*
X357501Y373966D01*
X358726Y373594D01*
X360000Y373469D01*
X361274Y373594D01*
X362499Y373966D01*
X363629Y374569D01*
X364618Y375382D01*
X364692Y375471D01*
X365216Y375488D01*
X365488Y375216D01*
X365471Y374692D01*
X365382Y374618D01*
X364569Y373629D01*
X363966Y372499D01*
X363594Y371274D01*
X363469Y370000D01*
X363594Y368726D01*
X363966Y367500D01*
X364569Y366371D01*
X365382Y365382D01*
X366371Y364569D01*
X367500Y363966D01*
X368726Y363594D01*
X370000Y363469D01*
X371274Y363594D01*
X372499Y363966D01*
X373629Y364569D01*
X374618Y365382D01*
X374750Y365542D01*
X375250D01*
X375382Y365382D01*
X375542Y365250D01*
Y364750D01*
X375382Y364618D01*
X374569Y363629D01*
X373966Y362499D01*
X373594Y361274D01*
X373469Y360000D01*
X373594Y358726D01*
X373966Y357501D01*
X374569Y356371D01*
X375382Y355382D01*
X376371Y354569D01*
X377501Y353966D01*
X378726Y353594D01*
X380000Y353469D01*
X381274Y353594D01*
X382500Y353966D01*
X383629Y354569D01*
X384618Y355382D01*
X384692Y355471D01*
X385216Y355488D01*
X385488Y355216D01*
X385471Y354692D01*
X385382Y354618D01*
X384569Y353629D01*
X383966Y352500D01*
X383594Y351274D01*
X383469Y350000D01*
X383594Y348726D01*
X383966Y347500D01*
X384569Y346371D01*
X385382Y345382D01*
X385542Y345250D01*
Y344750D01*
X385382Y344618D01*
X384569Y343629D01*
X383966Y342499D01*
X383594Y341274D01*
X383469Y340000D01*
X383594Y338726D01*
X383966Y337501D01*
X384569Y336371D01*
X385382Y335382D01*
X385542Y335250D01*
Y334750D01*
X385382Y334618D01*
X384569Y333629D01*
X383966Y332500D01*
X383594Y331274D01*
X383469Y330000D01*
X383594Y328726D01*
X383966Y327501D01*
X384569Y326371D01*
X385382Y325382D01*
X385542Y325250D01*
Y324750D01*
X385382Y324618D01*
X385250Y324458D01*
X384750D01*
X384618Y324618D01*
X383629Y325431D01*
X382500Y326034D01*
X381274Y326406D01*
X380000Y326531D01*
X378726Y326406D01*
X377501Y326034D01*
X376371Y325431D01*
X375382Y324618D01*
X375250Y324458D01*
X374750D01*
X374618Y324618D01*
X373629Y325431D01*
X372499Y326034D01*
X371274Y326406D01*
X370000Y326531D01*
X368726Y326406D01*
X367500Y326034D01*
X366371Y325431D01*
X365382Y324618D01*
X364569Y323629D01*
X363966Y322499D01*
X363594Y321274D01*
X363468Y320000D01*
X363594Y318726D01*
X363966Y317500D01*
X364443Y316606D01*
X325193Y277356D01*
X286752D01*
X286712Y277348D01*
X284193D01*
X283611Y277232D01*
X283117Y276903D01*
X282787Y276409D01*
X282672Y275827D01*
X282787Y275245D01*
X283056Y274843D01*
X282787Y274441D01*
X282672Y273858D01*
X282787Y273276D01*
X283056Y272874D01*
X282787Y272472D01*
X282672Y271890D01*
X282787Y271308D01*
X283056Y270905D01*
X282787Y270503D01*
X282672Y269921D01*
X282787Y269339D01*
X283056Y268937D01*
X282787Y268535D01*
X282672Y267953D01*
X282787Y267371D01*
X283056Y266968D01*
X282787Y266566D01*
X282672Y265984D01*
X282787Y265402D01*
X283056Y265000D01*
X282787Y264598D01*
X282672Y264016D01*
X282787Y263434D01*
X283056Y263032D01*
X282787Y262629D01*
X282672Y262047D01*
X282787Y261465D01*
X283056Y261063D01*
X282787Y260661D01*
X282672Y260079D01*
X282787Y259496D01*
X283056Y259095D01*
X282787Y258692D01*
X282672Y258110D01*
X282787Y257528D01*
X283056Y257126D01*
X282787Y256724D01*
X282672Y256142D01*
X282787Y255559D01*
X283056Y255157D01*
X282787Y254755D01*
X282672Y254173D01*
X282787Y253591D01*
X283056Y253189D01*
X282787Y252787D01*
X282672Y252205D01*
X282787Y251623D01*
X283056Y251220D01*
X282787Y250818D01*
X282672Y250236D01*
X282787Y249654D01*
X283117Y249161D01*
X283611Y248831D01*
X284193Y248715D01*
X286712D01*
X286752Y248707D01*
X309130D01*
X364443Y193394D01*
X363966Y192499D01*
X363594Y191274D01*
X363468Y190000D01*
X363594Y188726D01*
X363966Y187501D01*
X364569Y186371D01*
X365382Y185382D01*
X365542Y185250D01*
Y184750D01*
X365382Y184618D01*
X365250Y184458D01*
X364750D01*
X364618Y184618D01*
X363629Y185431D01*
X362499Y186034D01*
X361274Y186406D01*
X360000Y186531D01*
X358726Y186406D01*
X357501Y186034D01*
X356371Y185431D01*
X355382Y184618D01*
X355250Y184458D01*
X354750D01*
X354618Y184618D01*
X353629Y185431D01*
X352500Y186034D01*
X351274Y186406D01*
X350000Y186531D01*
X348726Y186406D01*
X347500Y186034D01*
X346371Y185431D01*
X345382Y184618D01*
X344569Y183629D01*
X343966Y182500D01*
X343594Y181274D01*
X343469Y180000D01*
X343594Y178726D01*
X343966Y177500D01*
X344569Y176371D01*
X345382Y175382D01*
X345542Y175250D01*
Y174750D01*
X345382Y174618D01*
X344569Y173629D01*
X343966Y172500D01*
X343594Y171274D01*
X343469Y170000D01*
X343594Y168726D01*
X343966Y167500D01*
X344569Y166371D01*
X345382Y165382D01*
X345471Y165308D01*
X345488Y164784D01*
X345216Y164512D01*
X344692Y164529D01*
X344618Y164618D01*
X343629Y165431D01*
X342499Y166034D01*
X341274Y166406D01*
X340000Y166531D01*
X338726Y166406D01*
X337501Y166034D01*
X336607Y165556D01*
X281293Y220870D01*
Y243248D01*
X281285Y243288D01*
Y245807D01*
X281229Y246087D01*
Y249489D01*
X281584Y250020D01*
X281739Y250800D01*
X281584Y251580D01*
X281229Y252111D01*
Y278216D01*
X281311Y278271D01*
X284051D01*
X284193Y278242D01*
X286712D01*
X286752Y278234D01*
X309764D01*
X310349Y278351D01*
X310845Y278682D01*
X366606Y334444D01*
X367500Y333966D01*
X368726Y333594D01*
X370000Y333469D01*
X371274Y333594D01*
X372499Y333966D01*
X373629Y334569D01*
X374618Y335382D01*
X375431Y336371D01*
X376034Y337501D01*
X376406Y338726D01*
X376531Y340000D01*
X376406Y341274D01*
X376034Y342499D01*
X375431Y343629D01*
X374618Y344618D01*
X373629Y345431D01*
X372499Y346034D01*
X371274Y346406D01*
X370000Y346531D01*
X368726Y346406D01*
X367500Y346034D01*
X366371Y345431D01*
X365382Y344618D01*
X364569Y343629D01*
X363966Y342499D01*
X363594Y341274D01*
X363469Y340000D01*
X363594Y338726D01*
X363966Y337501D01*
X364444Y336607D01*
X309130Y281293D01*
X286898D01*
X286716Y281329D01*
X281311D01*
X280780Y281684D01*
X280000Y281839D01*
X279220Y281684D01*
X278689Y281329D01*
X251766D01*
Y286752D01*
Y309764D01*
X251649Y310349D01*
X251318Y310845D01*
X195556Y366606D01*
X196034Y367500D01*
X196406Y368726D01*
X196531Y370000D01*
X196406Y371274D01*
X196034Y372499D01*
X195431Y373629D01*
X194618Y374618D01*
X193629Y375431D01*
X192499Y376034D01*
X191529Y376328D01*
Y379366D01*
X206663Y394500D01*
X215500D01*
Y405500D01*
X213948D01*
X213787Y405973D01*
X213923Y406077D01*
X214707Y407100D01*
X214873Y407142D01*
X215127D01*
X215293Y407100D01*
X216077Y406077D01*
X217226Y405196D01*
X218564Y404642D01*
X220000Y404453D01*
X221436Y404642D01*
X222774Y405196D01*
X223923Y406077D01*
X224707Y407100D01*
X224873Y407142D01*
X225127D01*
X225293Y407100D01*
X226077Y406077D01*
X227226Y405196D01*
X228564Y404642D01*
X230000Y404453D01*
X231436Y404642D01*
X232774Y405196D01*
X233923Y406077D01*
X234707Y407100D01*
X234873Y407142D01*
X235127D01*
X235293Y407100D01*
X236077Y406077D01*
X237100Y405293D01*
X237142Y405127D01*
Y404873D01*
X237100Y404707D01*
X236077Y403923D01*
X235196Y402774D01*
X234642Y401436D01*
X234453Y400000D01*
X234642Y398564D01*
X235196Y397226D01*
X236077Y396077D01*
X237226Y395196D01*
X238564Y394642D01*
X240000Y394453D01*
X241436Y394642D01*
X242774Y395196D01*
X243923Y396077D01*
X244804Y397226D01*
X245358Y398564D01*
X245548Y400000D01*
X245358Y401436D01*
X244804Y402774D01*
X243923Y403923D01*
X242900Y404707D01*
X242858Y404873D01*
Y405127D01*
X242900Y405293D01*
X243923Y406077D01*
X244707Y407100D01*
X244873Y407142D01*
X245127D01*
X245293Y407100D01*
X246077Y406077D01*
X247226Y405196D01*
X248564Y404642D01*
X250000Y404453D01*
X251436Y404642D01*
X252774Y405196D01*
X253923Y406077D01*
X254804Y407226D01*
X255358Y408564D01*
X255547Y410000D01*
X255358Y411436D01*
X254804Y412774D01*
X253923Y413923D01*
X252774Y414804D01*
X251436Y415358D01*
X250000Y415548D01*
X248564Y415358D01*
X247320Y414843D01*
X240081Y422081D01*
X239585Y422413D01*
X239000Y422529D01*
X191000D01*
X190415Y422413D01*
X189919Y422081D01*
X178919Y411081D01*
X178587Y410585D01*
X178471Y410000D01*
Y351311D01*
X178116Y350780D01*
X177961Y350000D01*
X178116Y349220D01*
X178558Y348558D01*
X179220Y348116D01*
X180000Y347961D01*
X180780Y348116D01*
X181442Y348558D01*
X181884Y349220D01*
X182039Y350000D01*
X181884Y350780D01*
X181529Y351311D01*
Y409367D01*
X191633Y419471D01*
X238367D01*
X242292Y415545D01*
X242009Y415121D01*
X241436Y415358D01*
X240000Y415548D01*
X238564Y415358D01*
X237226Y414804D01*
X236077Y413923D01*
X235293Y412900D01*
X235127Y412857D01*
X234873D01*
X234707Y412900D01*
X233923Y413923D01*
X232774Y414804D01*
X231436Y415358D01*
X230000Y415548D01*
X228564Y415358D01*
X227226Y414804D01*
X226077Y413923D01*
X225293Y412900D01*
X225127Y412857D01*
X224873D01*
X224707Y412900D01*
X223923Y413923D01*
X222774Y414804D01*
X221436Y415358D01*
X220000Y415548D01*
X218564Y415358D01*
X217226Y414804D01*
X216077Y413923D01*
X215293Y412900D01*
X215127Y412857D01*
X214873D01*
X214707Y412900D01*
X213923Y413923D01*
X212774Y414804D01*
X211436Y415358D01*
X210000Y415548D01*
X208564Y415358D01*
X207226Y414804D01*
X206077Y413923D01*
X205196Y412774D01*
X204642Y411436D01*
X204452Y410000D01*
X204642Y408564D01*
X205196Y407226D01*
X206077Y406077D01*
X206213Y405973D01*
X206052Y405500D01*
X204500D01*
Y396663D01*
X188919Y381081D01*
X188587Y380585D01*
X188471Y380000D01*
Y376328D01*
X187501Y376034D01*
X186371Y375431D01*
X185382Y374618D01*
X184569Y373629D01*
X183966Y372499D01*
X183594Y371274D01*
X183469Y370000D01*
X183594Y368726D01*
X183966Y367500D01*
X184569Y366371D01*
X185382Y365382D01*
X186371Y364569D01*
X187501Y363966D01*
X188726Y363594D01*
X190000Y363469D01*
X191274Y363594D01*
X192499Y363966D01*
X193394Y364444D01*
X248707Y309130D01*
Y286752D01*
Y281329D01*
X243284D01*
X243102Y281293D01*
X220870D01*
X165556Y336607D01*
X166034Y337501D01*
X166406Y338726D01*
X166531Y340000D01*
X166406Y341274D01*
X166034Y342499D01*
X165431Y343629D01*
X164618Y344618D01*
X163629Y345431D01*
X162499Y346034D01*
X161274Y346406D01*
X160549Y346477D01*
Y419000D01*
X160355Y419976D01*
X159802Y420802D01*
X150802Y429802D01*
X149976Y430355D01*
X149000Y430549D01*
D02*
G37*
%LPD*%
G36*
X120155Y85800D02*
X120333Y84903D01*
X120842Y84142D01*
X121603Y83634D01*
X122500Y83455D01*
X123397Y83634D01*
X124158Y84142D01*
X124667Y84903D01*
X124745Y85298D01*
X125255D01*
X125333Y84903D01*
X125842Y84142D01*
X125971Y84056D01*
Y83134D01*
X124366Y81529D01*
X114000D01*
X113512Y81432D01*
X113415Y81413D01*
X112919Y81081D01*
X108919Y77081D01*
X108587Y76585D01*
X108471Y76000D01*
Y66329D01*
X107501Y66034D01*
X106371Y65431D01*
X105382Y64618D01*
X104569Y63629D01*
X103966Y62499D01*
X103594Y61274D01*
X103469Y60000D01*
X103594Y58726D01*
X103966Y57500D01*
X104569Y56371D01*
X105382Y55382D01*
X105542Y55250D01*
Y54750D01*
X105382Y54618D01*
X104569Y53629D01*
X103966Y52500D01*
X103672Y51529D01*
X96329D01*
X96034Y52500D01*
X95431Y53629D01*
X94618Y54618D01*
X93629Y55431D01*
X92529Y56018D01*
Y76367D01*
X103633Y87471D01*
X120155D01*
Y85800D01*
D02*
G37*
G36*
X145382Y155382D02*
X146371Y154569D01*
X147501Y153966D01*
X148471Y153672D01*
Y130633D01*
X146419Y128581D01*
X146087Y128085D01*
X145971Y127500D01*
Y115944D01*
X145842Y115858D01*
X145333Y115097D01*
X145255Y114702D01*
X144745D01*
X144667Y115097D01*
X144158Y115858D01*
X144029Y115944D01*
Y127500D01*
X143932Y127988D01*
X143913Y128085D01*
X143581Y128581D01*
X141529Y130633D01*
Y153672D01*
X142499Y153966D01*
X143629Y154569D01*
X144618Y155382D01*
X144750Y155542D01*
X145250D01*
X145382Y155382D01*
D02*
G37*
G36*
X155382D02*
X156371Y154569D01*
X157501Y153966D01*
X158471Y153672D01*
Y128633D01*
X151419Y121581D01*
X151087Y121085D01*
X150971Y120500D01*
Y115944D01*
X150842Y115858D01*
X150333Y115097D01*
X150255Y114702D01*
X149745D01*
X149667Y115097D01*
X149158Y115858D01*
X149029Y115944D01*
Y126866D01*
X151081Y128919D01*
X151413Y129415D01*
X151432Y129512D01*
X151529Y130000D01*
Y153672D01*
X152499Y153966D01*
X153629Y154569D01*
X154618Y155382D01*
X154750Y155542D01*
X155250D01*
X155382Y155382D01*
D02*
G37*
G36*
X260518Y177702D02*
Y172681D01*
X253394Y165556D01*
X252500Y166034D01*
X251274Y166406D01*
X250000Y166531D01*
X249336Y166466D01*
X249109Y166946D01*
X260056Y177893D01*
X260518Y177702D01*
D02*
G37*
G36*
X256581Y193765D02*
Y188744D01*
X233394Y165556D01*
X232500Y166034D01*
X231274Y166406D01*
X230000Y166531D01*
X229336Y166466D01*
X229109Y166946D01*
X256119Y193956D01*
X256581Y193765D01*
D02*
G37*
G36*
X254612Y201796D02*
Y196775D01*
X223394Y165556D01*
X222499Y166034D01*
X221274Y166406D01*
X220000Y166531D01*
X219336Y166466D01*
X219109Y166946D01*
X254150Y201988D01*
X254612Y201796D01*
D02*
G37*
G36*
X258549Y185733D02*
Y180712D01*
X243393Y165556D01*
X242499Y166034D01*
X241274Y166406D01*
X240000Y166531D01*
X239336Y166466D01*
X239109Y166946D01*
X258087Y185924D01*
X258549Y185733D01*
D02*
G37*
G36*
X135382Y155382D02*
X136371Y154569D01*
X137501Y153966D01*
X138471Y153672D01*
Y130000D01*
X138587Y129415D01*
X138919Y128919D01*
X140971Y126866D01*
Y115944D01*
X140842Y115858D01*
X140333Y115097D01*
X140255Y114702D01*
X139745D01*
X139667Y115097D01*
X139158Y115858D01*
X139029Y115944D01*
Y123500D01*
X138913Y124085D01*
X138581Y124581D01*
X131529Y131633D01*
Y153672D01*
X132500Y153966D01*
X133629Y154569D01*
X134618Y155382D01*
X134750Y155542D01*
X135250D01*
X135382Y155382D01*
D02*
G37*
G36*
X145333Y84903D02*
X145842Y84142D01*
X145971Y84056D01*
Y80500D01*
X146087Y79915D01*
X146419Y79419D01*
X148471Y77367D01*
Y66329D01*
X147501Y66034D01*
X146371Y65431D01*
X145382Y64618D01*
X145250Y64458D01*
X144750D01*
X144618Y64618D01*
X143629Y65431D01*
X142499Y66034D01*
X141529Y66329D01*
Y76367D01*
X143581Y78419D01*
X143913Y78915D01*
X143932Y79012D01*
X144029Y79500D01*
Y84056D01*
X144158Y84142D01*
X144667Y84903D01*
X144745Y85298D01*
X145255D01*
X145333Y84903D01*
D02*
G37*
G36*
X140333D02*
X140842Y84142D01*
X140971Y84056D01*
Y80133D01*
X138919Y78081D01*
X138587Y77585D01*
X138471Y77000D01*
Y66329D01*
X137501Y66034D01*
X136371Y65431D01*
X135382Y64618D01*
X135250Y64458D01*
X134750D01*
X134618Y64618D01*
X133629Y65431D01*
X132500Y66034D01*
X131529Y66329D01*
Y75366D01*
X138581Y82419D01*
X138913Y82915D01*
X139029Y83500D01*
Y84056D01*
X139158Y84142D01*
X139667Y84903D01*
X139745Y85298D01*
X140255D01*
X140333Y84903D01*
D02*
G37*
G36*
X128852Y76982D02*
X128587Y76585D01*
X128471Y76000D01*
Y66329D01*
X127500Y66034D01*
X126371Y65431D01*
X125382Y64618D01*
X125250Y64458D01*
X124750D01*
X124618Y64618D01*
X123629Y65431D01*
X122500Y66034D01*
X121529Y66329D01*
Y70367D01*
X128464Y77301D01*
X128852Y76982D01*
D02*
G37*
G36*
X284399Y71536D02*
X284080Y71148D01*
X283683Y71413D01*
X283098Y71529D01*
X266329D01*
X266034Y72500D01*
X265431Y73629D01*
X264618Y74618D01*
X264458Y74750D01*
Y75250D01*
X264618Y75382D01*
X265431Y76371D01*
X266034Y77500D01*
X266329Y78471D01*
X277465D01*
X284399Y71536D01*
D02*
G37*
G36*
X155333Y84903D02*
X155842Y84142D01*
X155971Y84056D01*
Y83500D01*
X156087Y82915D01*
X156419Y82419D01*
X168471Y70367D01*
Y66329D01*
X167500Y66034D01*
X166371Y65431D01*
X165382Y64618D01*
X165250Y64458D01*
X164750D01*
X164618Y64618D01*
X163629Y65431D01*
X162499Y66034D01*
X161529Y66329D01*
Y73000D01*
X161413Y73585D01*
X161081Y74081D01*
X154029Y81134D01*
Y84056D01*
X154158Y84142D01*
X154667Y84903D01*
X154745Y85298D01*
X155255D01*
X155333Y84903D01*
D02*
G37*
G36*
X158471Y72366D02*
Y66329D01*
X157501Y66034D01*
X156371Y65431D01*
X155382Y64618D01*
X155250Y64458D01*
X154750D01*
X154618Y64618D01*
X153629Y65431D01*
X152499Y66034D01*
X151529Y66329D01*
Y78000D01*
X151432Y78488D01*
X151413Y78585D01*
X151148Y78982D01*
X151536Y79301D01*
X158471Y72366D01*
D02*
G37*
G36*
X165382Y155382D02*
X166371Y154569D01*
X167500Y153966D01*
X168471Y153672D01*
Y119633D01*
X161366Y112529D01*
X159845D01*
Y114200D01*
X159667Y115097D01*
X159158Y115858D01*
X158397Y116367D01*
X157500Y116545D01*
X156603Y116367D01*
X155842Y115858D01*
X155333Y115097D01*
X155255Y114702D01*
X154745D01*
X154667Y115097D01*
X154158Y115858D01*
X154029Y115944D01*
Y119867D01*
X161081Y126919D01*
X161413Y127415D01*
X161529Y128000D01*
Y153672D01*
X162499Y153966D01*
X163629Y154569D01*
X164618Y155382D01*
X164750Y155542D01*
X165250D01*
X165382Y155382D01*
D02*
G37*
G36*
X115382D02*
X116371Y154569D01*
X117500Y153966D01*
X118471Y153672D01*
Y134000D01*
X118587Y133415D01*
X118919Y132919D01*
X130971Y120867D01*
Y115944D01*
X130842Y115858D01*
X130333Y115097D01*
X130255Y114702D01*
X129745D01*
X129667Y115097D01*
X129158Y115858D01*
X129029Y115944D01*
Y119500D01*
X128913Y120085D01*
X128581Y120581D01*
X111529Y137634D01*
Y153672D01*
X112499Y153966D01*
X113629Y154569D01*
X114618Y155382D01*
X114750Y155542D01*
X115250D01*
X115382Y155382D01*
D02*
G37*
G36*
X125382D02*
X126371Y154569D01*
X127500Y153966D01*
X128471Y153672D01*
Y131000D01*
X128587Y130415D01*
X128919Y129919D01*
X135971Y122866D01*
Y115944D01*
X135842Y115858D01*
X135333Y115097D01*
X135255Y114702D01*
X134745D01*
X134667Y115097D01*
X134158Y115858D01*
X134029Y115944D01*
Y121500D01*
X133913Y122085D01*
X133581Y122581D01*
X121529Y134634D01*
Y153672D01*
X122500Y153966D01*
X123629Y154569D01*
X124618Y155382D01*
X124750Y155542D01*
X125250D01*
X125382Y155382D01*
D02*
G37*
G36*
X124808Y77971D02*
X118919Y72081D01*
X118587Y71585D01*
X118471Y71000D01*
Y66329D01*
X117500Y66034D01*
X116371Y65431D01*
X115382Y64618D01*
X115250Y64458D01*
X114750D01*
X114618Y64618D01*
X113629Y65431D01*
X112499Y66034D01*
X111529Y66329D01*
Y75366D01*
X114634Y78471D01*
X124601D01*
X124808Y77971D01*
D02*
G37*
G36*
X369577Y113858D02*
Y63125D01*
X367981Y61529D01*
X366329D01*
X366034Y62499D01*
X365431Y63629D01*
X364618Y64618D01*
X364458Y64750D01*
Y65250D01*
X364618Y65382D01*
X365431Y66371D01*
X366034Y67501D01*
X366406Y68726D01*
X366531Y70000D01*
X366406Y71274D01*
X366034Y72500D01*
X365431Y73629D01*
X364618Y74618D01*
X364458Y74750D01*
Y75250D01*
X364618Y75382D01*
X365431Y76371D01*
X366034Y77500D01*
X366406Y78726D01*
X366531Y80000D01*
X366406Y81274D01*
X366034Y82499D01*
X365431Y83629D01*
X364618Y84618D01*
X364458Y84750D01*
Y85250D01*
X364618Y85382D01*
X365431Y86371D01*
X366034Y87501D01*
X366406Y88726D01*
X366531Y90000D01*
X366406Y91274D01*
X366034Y92500D01*
X365431Y93629D01*
X364618Y94618D01*
X364458Y94750D01*
Y95250D01*
X364618Y95382D01*
X365431Y96371D01*
X366034Y97500D01*
X366406Y98726D01*
X366531Y100000D01*
X366406Y101274D01*
X366034Y102499D01*
X365431Y103629D01*
X364618Y104618D01*
X364458Y104750D01*
Y105250D01*
X364618Y105382D01*
X365431Y106371D01*
X366034Y107501D01*
X366406Y108726D01*
X366531Y110000D01*
X366406Y111274D01*
X366034Y112499D01*
X365431Y113629D01*
X364618Y114618D01*
X363629Y115431D01*
X362499Y116034D01*
X361274Y116406D01*
X360000Y116531D01*
X358726Y116406D01*
X357501Y116034D01*
X357239Y116461D01*
X360740Y119962D01*
X363473D01*
X369577Y113858D01*
D02*
G37*
G36*
X289399Y61536D02*
X289080Y61148D01*
X288683Y61413D01*
X288098Y61529D01*
X266329D01*
X266034Y62499D01*
X265431Y63629D01*
X264618Y64618D01*
X264458Y64750D01*
Y65250D01*
X264618Y65382D01*
X265431Y66371D01*
X266034Y67501D01*
X266329Y68471D01*
X282465D01*
X289399Y61536D01*
D02*
G37*
G36*
X153966Y317500D02*
X154569Y316371D01*
X155382Y315382D01*
X155542Y315250D01*
Y314750D01*
X155382Y314618D01*
X154569Y313629D01*
X153966Y312499D01*
X153672Y311529D01*
X141399D01*
X141192Y312029D01*
X147634Y318471D01*
X153671D01*
X153966Y317500D01*
D02*
G37*
G36*
X218051Y279787D02*
X217859Y279325D01*
X212838D01*
X165556Y326606D01*
X166034Y327501D01*
X166406Y328726D01*
X166531Y330000D01*
X166466Y330664D01*
X166946Y330891D01*
X218051Y279787D01*
D02*
G37*
G36*
X317500Y363966D02*
X318726Y363594D01*
X320000Y363469D01*
X320664Y363534D01*
X320891Y363054D01*
X277818Y319981D01*
X277356Y320172D01*
Y325193D01*
X316606Y364444D01*
X317500Y363966D01*
D02*
G37*
G36*
X327501Y363966D02*
X328726Y363594D01*
X330000Y363468D01*
X330664Y363534D01*
X330891Y363054D01*
X279787Y311949D01*
X279325Y312141D01*
Y317162D01*
X326606Y364443D01*
X327501Y363966D01*
D02*
G37*
G36*
X210019Y277818D02*
X209828Y277356D01*
X204807D01*
X165556Y316606D01*
X166034Y317500D01*
X166406Y318726D01*
X166531Y320000D01*
X166466Y320664D01*
X166946Y320891D01*
X210019Y277818D01*
D02*
G37*
G36*
X363534Y300664D02*
X363469Y300000D01*
X363594Y298726D01*
X363966Y297500D01*
X364444Y296606D01*
X341256Y273419D01*
X336235D01*
X336044Y273881D01*
X363054Y300891D01*
X363534Y300664D01*
D02*
G37*
G36*
X193956Y273881D02*
X193765Y273419D01*
X188744D01*
X165556Y296606D01*
X166034Y297500D01*
X166406Y298726D01*
X166531Y300000D01*
X166466Y300664D01*
X166946Y300891D01*
X193956Y273881D01*
D02*
G37*
G36*
X363534Y310664D02*
X363469Y310000D01*
X363594Y308726D01*
X363966Y307501D01*
X364444Y306607D01*
X333225Y275388D01*
X328204D01*
X328012Y275850D01*
X363054Y310891D01*
X363534Y310664D01*
D02*
G37*
G36*
X201988Y275850D02*
X201796Y275388D01*
X196775D01*
X165556Y306607D01*
X166034Y307501D01*
X166406Y308726D01*
X166531Y310000D01*
X166466Y310664D01*
X166946Y310891D01*
X201988Y275850D01*
D02*
G37*
G36*
X254612Y333225D02*
Y328204D01*
X254150Y328012D01*
X219109Y363054D01*
X219336Y363534D01*
X220000Y363469D01*
X221274Y363594D01*
X222499Y363966D01*
X223394Y364444D01*
X254612Y333225D01*
D02*
G37*
G36*
X256581Y341256D02*
Y336235D01*
X256119Y336044D01*
X229109Y363054D01*
X229336Y363534D01*
X230000Y363469D01*
X231274Y363594D01*
X232500Y363966D01*
X233394Y364444D01*
X256581Y341256D01*
D02*
G37*
G36*
X82291Y391146D02*
X94235D01*
X98219Y387162D01*
Y385743D01*
X96198D01*
X95340Y385572D01*
X94612Y385086D01*
X94126Y384358D01*
X93955Y383500D01*
X94100Y382770D01*
X93668Y382494D01*
X91176Y384987D01*
X90740Y385278D01*
Y387858D01*
X81260D01*
Y386455D01*
X74150D01*
X72549Y388056D01*
Y391604D01*
X72835Y391853D01*
X73416Y391771D01*
X73558Y391558D01*
X74220Y391116D01*
X75000Y390961D01*
X75780Y391116D01*
X76442Y391558D01*
X76884Y392220D01*
X77008Y392846D01*
X77634Y393471D01*
X82291D01*
Y391146D01*
D02*
G37*
G36*
X258549Y349288D02*
Y344267D01*
X258087Y344075D01*
X239109Y363054D01*
X239336Y363534D01*
X240000Y363469D01*
X241274Y363594D01*
X242499Y363966D01*
X243393Y364444D01*
X258549Y349288D01*
D02*
G37*
G36*
X260518Y357319D02*
Y352298D01*
X260056Y352107D01*
X249109Y363054D01*
X249336Y363534D01*
X250000Y363468D01*
X251274Y363594D01*
X252500Y363966D01*
X253394Y364443D01*
X260518Y357319D01*
D02*
G37*
G36*
X297500Y363966D02*
X298726Y363594D01*
X300000Y363469D01*
X300664Y363534D01*
X300891Y363054D01*
X273881Y336044D01*
X273419Y336235D01*
Y341256D01*
X296606Y364444D01*
X297500Y363966D01*
D02*
G37*
G36*
X307501D02*
X308726Y363594D01*
X310000Y363469D01*
X310664Y363534D01*
X310891Y363054D01*
X275850Y328012D01*
X275388Y328204D01*
Y333225D01*
X306607Y364444D01*
X307501Y363966D01*
D02*
G37*
G36*
X277501Y363966D02*
X278726Y363594D01*
X280000Y363469D01*
X280664Y363534D01*
X280891Y363054D01*
X269944Y352107D01*
X269482Y352298D01*
Y357319D01*
X276606Y364444D01*
X277501Y363966D01*
D02*
G37*
G36*
X287501Y363966D02*
X288726Y363594D01*
X290000Y363469D01*
X290664Y363534D01*
X290891Y363054D01*
X271913Y344075D01*
X271451Y344267D01*
Y349288D01*
X286607Y364444D01*
X287501Y363966D01*
D02*
G37*
G36*
X363534Y290664D02*
X363468Y290000D01*
X363594Y288726D01*
X363966Y287501D01*
X364444Y286606D01*
X349288Y271451D01*
X344267D01*
X344075Y271913D01*
X363054Y290891D01*
X363534Y290664D01*
D02*
G37*
G36*
X364444Y213393D02*
X363966Y212499D01*
X363594Y211274D01*
X363469Y210000D01*
X363534Y209336D01*
X363054Y209109D01*
X319981Y252182D01*
X320172Y252644D01*
X325193D01*
X364444Y213393D01*
D02*
G37*
G36*
X218051Y250213D02*
X166946Y199109D01*
X166466Y199336D01*
X166531Y200000D01*
X166406Y201274D01*
X166034Y202500D01*
X165556Y203394D01*
X212838Y250675D01*
X217859D01*
X218051Y250213D01*
D02*
G37*
G36*
X201988Y254150D02*
X166946Y219109D01*
X166466Y219336D01*
X166531Y220000D01*
X166406Y221274D01*
X166034Y222499D01*
X165556Y223394D01*
X196775Y254612D01*
X201796D01*
X201988Y254150D01*
D02*
G37*
G36*
X210019Y252182D02*
X166946Y209109D01*
X166466Y209336D01*
X166531Y210000D01*
X166406Y211274D01*
X166034Y212499D01*
X165556Y213393D01*
X204807Y252644D01*
X209828D01*
X210019Y252182D01*
D02*
G37*
G36*
X364444Y203393D02*
X363966Y202500D01*
X363594Y201274D01*
X363469Y200000D01*
X363534Y199336D01*
X363054Y199109D01*
X311949Y250213D01*
X312141Y250675D01*
X317162D01*
X364444Y203393D01*
D02*
G37*
G36*
X290891Y166946D02*
X290664Y166466D01*
X290000Y166531D01*
X288726Y166406D01*
X287501Y166034D01*
X286606Y165556D01*
X271451Y180712D01*
Y185733D01*
X271913Y185924D01*
X290891Y166946D01*
D02*
G37*
G36*
X280891Y166946D02*
X280664Y166466D01*
X280000Y166531D01*
X278726Y166406D01*
X277500Y166034D01*
X276606Y165557D01*
X269482Y172681D01*
Y177702D01*
X269944Y177893D01*
X280891Y166946D01*
D02*
G37*
G36*
X310891Y166946D02*
X310664Y166466D01*
X310000Y166531D01*
X308726Y166406D01*
X307501Y166034D01*
X306607Y165556D01*
X275388Y196775D01*
Y201796D01*
X275850Y201988D01*
X310891Y166946D01*
D02*
G37*
G36*
X300891D02*
X300664Y166466D01*
X300000Y166531D01*
X298726Y166406D01*
X297500Y166034D01*
X296606Y165556D01*
X273419Y188744D01*
Y193765D01*
X273881Y193956D01*
X300891Y166946D01*
D02*
G37*
G36*
X177893Y269944D02*
X177702Y269482D01*
X172681D01*
X165556Y276606D01*
X166034Y277501D01*
X166406Y278726D01*
X166531Y280000D01*
X166466Y280664D01*
X166946Y280891D01*
X177893Y269944D01*
D02*
G37*
G36*
X177893Y260056D02*
X166946Y249109D01*
X166466Y249336D01*
X166531Y250000D01*
X166406Y251274D01*
X166034Y252500D01*
X165556Y253394D01*
X172681Y260518D01*
X177702D01*
X177893Y260056D01*
D02*
G37*
G36*
X185924Y271913D02*
X185733Y271451D01*
X180712D01*
X165556Y286607D01*
X166034Y287501D01*
X166406Y288726D01*
X166531Y290000D01*
X166466Y290664D01*
X166946Y290891D01*
X185924Y271913D01*
D02*
G37*
G36*
X363534Y280664D02*
X363469Y280000D01*
X363594Y278726D01*
X363966Y277501D01*
X364444Y276607D01*
X357319Y269482D01*
X352298D01*
X352107Y269944D01*
X363054Y280891D01*
X363534Y280664D01*
D02*
G37*
G36*
X364444Y253394D02*
X363966Y252500D01*
X363594Y251274D01*
X363469Y250000D01*
X363534Y249336D01*
X363054Y249109D01*
X352107Y260056D01*
X352298Y260518D01*
X357319D01*
X364444Y253394D01*
D02*
G37*
G36*
X364444Y233394D02*
X363966Y232500D01*
X363594Y231274D01*
X363469Y230000D01*
X363534Y229336D01*
X363054Y229109D01*
X336044Y256119D01*
X336235Y256581D01*
X341256D01*
X364444Y233394D01*
D02*
G37*
G36*
Y223394D02*
X363966Y222499D01*
X363594Y221274D01*
X363469Y220000D01*
X363534Y219336D01*
X363054Y219109D01*
X328012Y254150D01*
X328204Y254612D01*
X333225D01*
X364444Y223394D01*
D02*
G37*
G36*
Y243393D02*
X363966Y242499D01*
X363594Y241274D01*
X363469Y240000D01*
X363534Y239336D01*
X363054Y239109D01*
X344075Y258087D01*
X344267Y258549D01*
X349288D01*
X364444Y243393D01*
D02*
G37*
G36*
X249071Y278216D02*
Y257671D01*
X196142D01*
X195556Y257555D01*
X195060Y257223D01*
X163393Y225556D01*
X162499Y226034D01*
X161274Y226406D01*
X160000Y226531D01*
X158726Y226406D01*
X157501Y226034D01*
X156371Y225431D01*
X155382Y224618D01*
X154569Y223629D01*
X153966Y222499D01*
X153672Y221529D01*
X150634D01*
X141081Y231081D01*
X140585Y231413D01*
X140000Y231529D01*
X128633D01*
X122192Y237971D01*
X122329Y238408D01*
X122377Y238471D01*
X122500D01*
X123085Y238587D01*
X123581Y238919D01*
X133581Y248919D01*
X133913Y249415D01*
X134029Y250000D01*
Y258867D01*
X153262Y278099D01*
X153827Y277957D01*
X153966Y277501D01*
X154569Y276371D01*
X155382Y275382D01*
X155542Y275250D01*
Y274750D01*
X155382Y274618D01*
X154569Y273629D01*
X153966Y272499D01*
X153594Y271274D01*
X153469Y270000D01*
X153594Y268726D01*
X153966Y267500D01*
X154569Y266371D01*
X155382Y265382D01*
X155542Y265250D01*
Y264750D01*
X155382Y264618D01*
X154569Y263629D01*
X153966Y262499D01*
X153594Y261274D01*
X153469Y260000D01*
X153594Y258726D01*
X153966Y257501D01*
X154569Y256371D01*
X155382Y255382D01*
X155542Y255250D01*
Y254750D01*
X155382Y254618D01*
X154569Y253629D01*
X153966Y252500D01*
X153594Y251274D01*
X153469Y250000D01*
X153594Y248726D01*
X153966Y247500D01*
X154569Y246371D01*
X155382Y245382D01*
X155542Y245250D01*
Y244750D01*
X155382Y244618D01*
X154569Y243629D01*
X153966Y242499D01*
X153594Y241274D01*
X153469Y240000D01*
X153594Y238726D01*
X153966Y237501D01*
X154569Y236371D01*
X155382Y235382D01*
X156371Y234569D01*
X157501Y233966D01*
X158726Y233594D01*
X160000Y233469D01*
X161274Y233594D01*
X162499Y233966D01*
X163629Y234569D01*
X164618Y235382D01*
X165431Y236371D01*
X166034Y237501D01*
X166406Y238726D01*
X166531Y240000D01*
X166406Y241274D01*
X166034Y242499D01*
X165556Y243394D01*
X180712Y258549D01*
X243248D01*
X243288Y258557D01*
X245807D01*
X246389Y258673D01*
X246883Y259003D01*
X247213Y259496D01*
X247328Y260079D01*
X247213Y260661D01*
X246944Y261063D01*
X247213Y261465D01*
X247328Y262047D01*
X247213Y262629D01*
X246944Y263032D01*
X247213Y263434D01*
X247328Y264016D01*
X247213Y264598D01*
X246944Y265000D01*
X247213Y265402D01*
X247328Y265984D01*
X247213Y266566D01*
X246944Y266968D01*
X247213Y267371D01*
X247328Y267953D01*
X247213Y268535D01*
X246944Y268937D01*
X247213Y269339D01*
X247328Y269921D01*
X247213Y270503D01*
X246944Y270905D01*
X247213Y271308D01*
X247328Y271890D01*
X247213Y272472D01*
X246944Y272874D01*
X247213Y273276D01*
X247328Y273858D01*
X247213Y274441D01*
X246944Y274843D01*
X247213Y275245D01*
X247328Y275827D01*
X247213Y276409D01*
X246944Y276811D01*
X247213Y277213D01*
X247328Y277795D01*
X247311Y277884D01*
X247628Y278271D01*
X248989D01*
X249071Y278216D01*
D02*
G37*
D10*
X229642Y381000D02*
D03*
X222358D02*
D03*
X243642Y110000D02*
D03*
X236358D02*
D03*
X243642Y100000D02*
D03*
X236358D02*
D03*
X243642Y90000D02*
D03*
X236358D02*
D03*
X243642Y80000D02*
D03*
X236358D02*
D03*
X243642Y70000D02*
D03*
X236358D02*
D03*
X243642Y60000D02*
D03*
X236358D02*
D03*
X73858Y235000D02*
D03*
X81142D02*
D03*
D11*
X65000Y359000D02*
D03*
Y337000D02*
D03*
D12*
X90000Y346905D02*
D03*
Y335094D02*
D03*
X86000Y372094D02*
D03*
Y383906D02*
D03*
D13*
X141000Y357457D02*
D03*
Y364543D02*
D03*
Y394457D02*
D03*
Y401543D02*
D03*
D14*
X313150Y120000D02*
D03*
X306850D02*
D03*
X133150Y210000D02*
D03*
X126850D02*
D03*
X133150Y220000D02*
D03*
X126850D02*
D03*
X133150Y200000D02*
D03*
X126850D02*
D03*
X80650Y245000D02*
D03*
X74351D02*
D03*
X103150Y255000D02*
D03*
X96851D02*
D03*
X96422Y292718D02*
D03*
X102721D02*
D03*
X96422Y305218D02*
D03*
X102721D02*
D03*
X103150Y275000D02*
D03*
X96851D02*
D03*
X92150Y395000D02*
D03*
X85850D02*
D03*
D15*
X220000Y144429D02*
D03*
Y135571D02*
D03*
X230000Y144429D02*
D03*
Y135571D02*
D03*
X240000Y144429D02*
D03*
Y135571D02*
D03*
D16*
X220000Y121358D02*
D03*
X220000Y128642D02*
D03*
X240000Y121358D02*
D03*
Y128642D02*
D03*
X230000Y121358D02*
D03*
Y128642D02*
D03*
D17*
X141000Y376752D02*
D03*
Y383248D02*
D03*
Y339591D02*
D03*
Y346087D02*
D03*
X121000Y335752D02*
D03*
Y342248D02*
D03*
X129000D02*
D03*
Y335752D02*
D03*
D18*
X119400Y368500D02*
D03*
Y373500D02*
D03*
Y378500D02*
D03*
Y383500D02*
D03*
X98148Y368500D02*
D03*
Y373500D02*
D03*
Y378500D02*
D03*
Y383500D02*
D03*
D19*
X329449Y72500D02*
D03*
Y77500D02*
D03*
Y82500D02*
D03*
Y87500D02*
D03*
Y92500D02*
D03*
Y97500D02*
D03*
Y102500D02*
D03*
Y107500D02*
D03*
X310551Y72500D02*
D03*
Y77500D02*
D03*
Y82500D02*
D03*
Y87500D02*
D03*
Y92500D02*
D03*
Y97500D02*
D03*
Y102500D02*
D03*
Y107500D02*
D03*
D20*
X157500Y89000D02*
D03*
X152500D02*
D03*
X147500D02*
D03*
X142500D02*
D03*
X137500D02*
D03*
X132500D02*
D03*
X127500D02*
D03*
X122500D02*
D03*
Y111000D02*
D03*
X127500D02*
D03*
X132500D02*
D03*
X137500D02*
D03*
X142500D02*
D03*
X147500D02*
D03*
X152500D02*
D03*
X157500D02*
D03*
D21*
X250236Y286752D02*
D03*
X252205D02*
D03*
X254173D02*
D03*
X256142D02*
D03*
X258110D02*
D03*
X260079D02*
D03*
X262047D02*
D03*
X264016D02*
D03*
X265984D02*
D03*
X267953D02*
D03*
X269921D02*
D03*
X271890D02*
D03*
X273858D02*
D03*
X275827D02*
D03*
X277795D02*
D03*
X279764D02*
D03*
Y243248D02*
D03*
X277795D02*
D03*
X275827D02*
D03*
X273858D02*
D03*
X271890D02*
D03*
X269921D02*
D03*
X267953D02*
D03*
X265984D02*
D03*
X264016D02*
D03*
X262047D02*
D03*
X260079D02*
D03*
X258110D02*
D03*
X256142D02*
D03*
X254173D02*
D03*
X252205D02*
D03*
X250236D02*
D03*
D22*
X286752Y279764D02*
D03*
Y277795D02*
D03*
Y275827D02*
D03*
Y273858D02*
D03*
Y271890D02*
D03*
Y269921D02*
D03*
Y267953D02*
D03*
Y265984D02*
D03*
Y264016D02*
D03*
Y262047D02*
D03*
Y260079D02*
D03*
Y258110D02*
D03*
Y256142D02*
D03*
Y254173D02*
D03*
Y252205D02*
D03*
Y250236D02*
D03*
X243248D02*
D03*
Y252205D02*
D03*
Y254173D02*
D03*
Y256142D02*
D03*
Y258110D02*
D03*
Y260079D02*
D03*
Y262047D02*
D03*
Y264016D02*
D03*
Y265984D02*
D03*
Y267953D02*
D03*
Y269921D02*
D03*
Y271890D02*
D03*
Y273858D02*
D03*
Y275827D02*
D03*
Y277795D02*
D03*
Y279764D02*
D03*
D23*
X102721Y274718D02*
X102833Y274606D01*
X120000D01*
X102833D02*
Y274683D01*
X103150Y255000D02*
X103543Y255394D01*
X120000D01*
X309764Y279764D02*
X370000Y340000D01*
X279764Y309764D02*
X340000Y370000D01*
X277795Y317795D02*
X330000Y370000D01*
X279764Y286752D02*
Y309764D01*
X275827Y325827D02*
X320000Y370000D01*
X273858Y333858D02*
X310000Y370000D01*
X273858Y286752D02*
Y333858D01*
X271890Y341890D02*
X300000Y370000D01*
X271890Y286752D02*
Y341890D01*
X269921Y349921D02*
X290000Y370000D01*
X269921Y286752D02*
Y349921D01*
X267953Y286752D02*
Y357953D01*
X265984Y286752D02*
Y358984D01*
X264016Y286752D02*
Y358984D01*
X262047Y286752D02*
Y357953D01*
X240000Y370000D02*
X260079Y349921D01*
Y286752D02*
Y349921D01*
X230000Y370000D02*
X258110Y341890D01*
Y286752D02*
Y341890D01*
X220000Y370000D02*
X256142Y333858D01*
Y286752D02*
Y333858D01*
X254173Y286752D02*
Y325827D01*
X210000Y370000D02*
X254173Y325827D01*
X277795Y286752D02*
Y317795D01*
X275827Y286752D02*
Y325827D01*
X267953Y357953D02*
X280000Y370000D01*
X240000Y144429D02*
Y160000D01*
X230000Y144429D02*
Y160000D01*
X220000Y144429D02*
Y160000D01*
X190000Y370000D02*
X250236Y309764D01*
X250600Y256100D02*
Y279500D01*
X254200Y250500D02*
X255200Y251500D01*
X250558Y256142D02*
X250600Y256100D01*
X250300Y279800D02*
X250600Y279500D01*
X250300Y279800D02*
X279000D01*
X279700Y250800D02*
Y279800D01*
X255200Y251500D02*
X279000D01*
X279700Y279800D02*
X286716D01*
X284000Y206000D02*
X330000Y160000D01*
X277795Y212205D02*
X284000Y206000D01*
X304106Y113945D02*
Y132000D01*
X304000Y132106D02*
X304106Y132000D01*
X304000Y132106D02*
Y135000D01*
X313052Y119546D02*
X319106Y113492D01*
X230000Y116358D02*
Y121358D01*
Y116358D02*
X236358Y110000D01*
X180000Y350000D02*
Y410000D01*
X191000Y421000D01*
X160000Y340000D02*
X220236Y279764D01*
X243248D01*
X160000Y330000D02*
X212205Y277795D01*
X160000Y320000D02*
X204173Y275827D01*
X212205Y277795D02*
X243248D01*
X204173Y275827D02*
X243248D01*
X160000Y310000D02*
X196142Y273858D01*
X160000Y300000D02*
X188110Y271890D01*
X196142Y273858D02*
X243248D01*
X188110Y271890D02*
X243248D01*
X180079Y269921D02*
X243248D01*
X160000Y290000D02*
X180079Y269921D01*
X172047Y267953D02*
X243248D01*
X171016Y265984D02*
X243248D01*
X171016Y264016D02*
X243248D01*
X172047Y262047D02*
X243248D01*
X180079Y260079D02*
X243248D01*
X160000Y240000D02*
X180079Y260079D01*
X188110Y258110D02*
X243248D01*
X160000Y230000D02*
X188110Y258110D01*
X160000Y280000D02*
X172047Y267953D01*
X167000Y270000D02*
X171016Y265984D01*
X167000Y260000D02*
X171016Y264016D01*
X160000Y250000D02*
X172047Y262047D01*
X160000Y260000D02*
X167000D01*
X191000Y421000D02*
X239000D01*
X200000Y380000D02*
X220000Y400000D01*
X190000Y380000D02*
X210000Y400000D01*
X200000Y370000D02*
Y380000D01*
X190000Y370000D02*
Y380000D01*
X239000Y421000D02*
X250000Y410000D01*
X263000Y387000D02*
X263000D01*
X236000Y394000D02*
X244000D01*
X230000Y400000D02*
X236000Y394000D01*
X263000Y387000D02*
X280000Y370000D01*
X244000Y394000D02*
X250000Y400000D01*
X220000D02*
X230000D01*
X160000Y280000D02*
X160000Y280000D01*
X160000D02*
X160000Y280000D01*
X153000Y280000D02*
X160000D01*
X132500Y259500D02*
X153000Y280000D01*
X132500Y250000D02*
Y259500D01*
X154606Y290000D02*
X160000D01*
X120000Y255394D02*
X154606Y290000D01*
X147000Y300000D02*
X160000D01*
X121606Y274606D02*
X147000Y300000D01*
X120000Y274606D02*
X121606D01*
X141000Y310000D02*
X160000D01*
X126835Y295835D02*
X141000Y310000D01*
X120000Y295835D02*
X126835D01*
X160000Y320000D02*
X160000Y320000D01*
X147000D02*
X160000D01*
X127165Y300165D02*
X147000Y320000D01*
X120000Y300165D02*
X127165D01*
X160000Y220000D02*
X160000Y220000D01*
X160000D02*
X160000Y220000D01*
X150000Y220000D02*
X160000D01*
X140000Y230000D02*
X150000Y220000D01*
X96421Y254718D02*
Y311421D01*
X95500Y373500D02*
X99748D01*
X91000Y378000D02*
X95500Y373500D01*
X75000Y378000D02*
X91000D01*
X95500Y378500D02*
X99748D01*
X90095Y383906D02*
X95500Y378500D01*
X86000Y383906D02*
X90095D01*
X114947Y305218D02*
X120000Y300165D01*
X102721Y305218D02*
X114947D01*
X102721Y292718D02*
X116884D01*
X120000Y295835D01*
X113000Y111000D02*
X122500D01*
X100000Y124000D02*
X113000Y111000D01*
X110000Y137000D02*
Y160000D01*
Y137000D02*
X127500Y119500D01*
Y111000D02*
Y119500D01*
X120000Y134000D02*
Y160000D01*
Y134000D02*
X132500Y121500D01*
Y111000D02*
Y121500D01*
X130000Y131000D02*
Y160000D01*
Y131000D02*
X137500Y123500D01*
Y111000D02*
Y123500D01*
X140000Y130000D02*
Y160000D01*
Y130000D02*
X142500Y127500D01*
Y111000D02*
Y127500D01*
X150000Y130000D02*
Y160000D01*
X147500Y127500D02*
X150000Y130000D01*
X147500Y111000D02*
Y127500D01*
X160000Y128000D02*
Y160000D01*
X152500Y120500D02*
X160000Y128000D01*
X152500Y111000D02*
Y120500D01*
X170000Y119000D02*
Y160000D01*
X162000Y111000D02*
X170000Y119000D01*
X157500Y111000D02*
X162000D01*
X170000Y60000D02*
Y71000D01*
X157500Y83500D02*
X170000Y71000D01*
X157500Y83500D02*
Y89000D01*
X160000Y60000D02*
Y73000D01*
X152500Y80500D02*
X160000Y73000D01*
X152500Y80500D02*
Y89000D01*
X150000Y60000D02*
Y78000D01*
X147500Y80500D02*
X150000Y78000D01*
X147500Y80500D02*
Y89000D01*
X142500Y79500D02*
Y89000D01*
X140000Y77000D02*
X142500Y79500D01*
X140000Y60000D02*
Y77000D01*
X130000Y60000D02*
Y76000D01*
X137500Y83500D01*
Y89000D01*
X120000Y60000D02*
Y71000D01*
X132500Y83500D01*
Y89000D01*
X110000Y60000D02*
Y76000D01*
X114000Y80000D01*
X125000D01*
X127500Y82500D01*
Y89000D01*
X91000Y50000D02*
X110000D01*
X91000D02*
Y77000D01*
X90000Y50000D02*
X91000D01*
Y77000D02*
X103000Y89000D01*
X122500D01*
X160000Y50000D02*
X170000D01*
X150000D02*
X160000D01*
X140000D02*
X150000D01*
X130000D02*
X140000D01*
X120000D02*
X130000D01*
X110000D02*
X120000D01*
X122500Y240000D02*
X132500Y250000D01*
X80650Y245000D02*
X85650Y240000D01*
X81142Y235000D02*
Y235492D01*
X85650Y240000D01*
X260000Y110000D02*
X285598D01*
X260000Y100000D02*
X285598D01*
X298098Y87500D01*
X310551D01*
X260000Y90000D02*
X285598D01*
X298098Y77500D01*
X310551D01*
X260000Y80000D02*
X278098D01*
X301606Y56492D01*
X324106D01*
X260000Y70000D02*
X283098D01*
X301606Y51492D01*
X336606D01*
X329449Y82500D02*
X343098D01*
X260000Y60000D02*
X288098D01*
X301606Y46492D01*
X339106D01*
X351606Y58992D01*
X243642Y110000D02*
X260000D01*
X243642Y100000D02*
X260000D01*
X243642Y90000D02*
X260000D01*
X243642Y70000D02*
X260000D01*
X243642Y60000D02*
X260000D01*
X304106Y113945D02*
X310551Y107500D01*
X285598Y110000D02*
X298098Y97500D01*
X310551D01*
Y72500D02*
X318114D01*
X300114Y102500D02*
X310551D01*
X343098Y82500D02*
X346606Y78992D01*
X329449Y77500D02*
X341098D01*
X300114Y82500D02*
X310551D01*
X300114Y92500D02*
X310551D01*
X300106Y92492D02*
X300114Y92500D01*
X300106Y102492D02*
X300114Y102500D01*
X329449Y97500D02*
X345598D01*
X351606Y91492D01*
X329449Y102500D02*
X341114D01*
X360106Y121492D01*
X364106D01*
X371106Y114492D01*
Y62492D02*
Y114492D01*
X368615Y60000D02*
X371106Y62492D01*
X360000Y60000D02*
X368615D01*
X324106Y56492D02*
X329449Y61834D01*
X336606Y51492D02*
X346606Y61492D01*
Y78992D01*
X351606Y58992D02*
Y91492D01*
X329449Y61834D02*
Y72500D01*
X323114Y87500D02*
X329449D01*
X319106Y73492D02*
Y113492D01*
X318114Y72500D02*
X319106Y73492D01*
X321106Y85492D02*
X323114Y87500D01*
X321106Y65492D02*
Y85492D01*
Y65492D02*
X322106Y64492D01*
X220000Y128642D02*
Y135571D01*
X230000Y128642D02*
Y135571D01*
X240000Y128642D02*
Y135571D01*
X133150Y200000D02*
X133150Y200000D01*
X78718Y254718D02*
X96421D01*
X74351Y250350D02*
X78718Y254718D01*
X74351Y245000D02*
Y250350D01*
X133150Y200000D02*
Y210000D01*
X106000Y237000D02*
X121000D01*
X96000Y246000D02*
Y254297D01*
X96421Y254718D01*
X71000Y245000D02*
X74351D01*
X67000Y241000D02*
X71000Y245000D01*
X73858Y232142D02*
Y235000D01*
Y232142D02*
X77000Y229000D01*
X67000D02*
Y241000D01*
Y229000D02*
X76000Y220000D01*
X99748Y383500D02*
Y387795D01*
X92543Y395000D02*
X99748Y387795D01*
X141000Y376161D02*
X146161D01*
X75000Y393000D02*
X77000Y395000D01*
X85457D01*
X85650Y240000D02*
X122500D01*
X98000Y229000D02*
X106000Y237000D01*
X77000Y229000D02*
X98000D01*
X100000Y124000D02*
Y166000D01*
X146161Y376161D02*
X150000Y380000D01*
Y404000D01*
X146000Y408000D02*
X150000Y404000D01*
X85000Y408000D02*
X146000D01*
X236358Y90000D02*
Y100000D01*
X243642Y80000D02*
X260000D01*
X236358D02*
Y90000D01*
Y70000D02*
Y80000D01*
Y60000D02*
Y70000D01*
Y100000D02*
Y110000D01*
X260000Y363000D02*
X264016Y358984D01*
X260000Y363000D02*
Y370000D01*
X250000Y370000D02*
X262047Y357953D01*
X265984Y358984D02*
X270000Y363000D01*
Y370000D01*
X252205Y286752D02*
Y317795D01*
X200000Y370000D02*
X252205Y317795D01*
X250236Y286752D02*
Y309764D01*
X160000Y190000D02*
X220236Y250236D01*
X243248D01*
X160000Y200000D02*
X212205Y252205D01*
X243248D01*
X160000Y210000D02*
X204173Y254173D01*
X243248D01*
X160000Y220000D02*
X196142Y256142D01*
X243248D01*
X160000Y270000D02*
X167000D01*
X279764Y220236D02*
X340000Y160000D01*
X279764Y220236D02*
Y243248D01*
X277795Y212205D02*
Y243248D01*
X275827Y204173D02*
X320000Y160000D01*
X275827Y204173D02*
Y243248D01*
X273858Y196142D02*
X310000Y160000D01*
X273858Y196142D02*
Y243248D01*
X271890Y188110D02*
X300000Y160000D01*
X271890Y188110D02*
Y243248D01*
X269921Y180079D02*
X290000Y160000D01*
X269921Y180079D02*
Y243248D01*
X190000Y160000D02*
X250236Y220236D01*
Y243248D01*
X200000Y160000D02*
X252205Y212205D01*
Y243248D01*
X210000Y160000D02*
X254173Y204173D01*
Y243248D01*
X220000Y160000D02*
X256142Y196142D01*
X230000Y160000D02*
X258110Y188110D01*
X256142Y196142D02*
Y243248D01*
X258110Y188110D02*
Y243248D01*
X240000Y160000D02*
X260079Y180079D01*
Y243248D01*
X250000Y160000D02*
X262047Y172047D01*
X260000Y160000D02*
Y167000D01*
X264016Y171016D01*
Y243248D01*
X262047Y172047D02*
Y243248D01*
X267953Y172047D02*
X280000Y160000D01*
X267953Y172047D02*
Y243248D01*
X265984Y171016D02*
Y243248D01*
X270000Y160000D02*
Y167000D01*
X265984Y171016D02*
X270000Y167000D01*
X286752Y279764D02*
X309764D01*
X317795Y277795D02*
X370000Y330000D01*
X286752Y277795D02*
X317795D01*
X325827Y275827D02*
X370000Y320000D01*
X286752Y275827D02*
X325827D01*
X333858Y273858D02*
X370000Y310000D01*
X286752Y273858D02*
X333858D01*
X341890Y271890D02*
X370000Y300000D01*
X286752Y271890D02*
X341890D01*
X349921Y269921D02*
X370000Y290000D01*
X286752Y269921D02*
X349921D01*
X309764Y250236D02*
X370000Y190000D01*
X286752Y250236D02*
X309764D01*
X317795Y252205D02*
X370000Y200000D01*
X286752Y252205D02*
X317795D01*
X325827Y254173D02*
X370000Y210000D01*
X286752Y254173D02*
X325827D01*
X333858Y256142D02*
X370000Y220000D01*
X341890Y258110D02*
X370000Y230000D01*
X286752Y256142D02*
X333858D01*
X286752Y258110D02*
X341890D01*
X349921Y260079D02*
X370000Y240000D01*
X286752Y260079D02*
X349921D01*
X357953Y262047D02*
X370000Y250000D01*
X363000Y260000D02*
X370000D01*
X358984Y264016D02*
X363000Y260000D01*
X286752Y264016D02*
X358984D01*
X286752Y262047D02*
X357953D01*
X357953Y267953D02*
X370000Y280000D01*
X286752Y267953D02*
X357953D01*
X286752Y265984D02*
X358984D01*
X363000Y270000D02*
X370000D01*
X358984Y265984D02*
X363000Y270000D01*
X243248Y279764D02*
X243284Y279800D01*
X250236Y279864D02*
Y286752D01*
X286716Y279800D02*
X286752Y279764D01*
X243248Y256142D02*
X250558D01*
X254200Y243275D02*
Y250500D01*
X254173Y243248D02*
X254200Y243275D01*
X279700Y243312D02*
Y250800D01*
Y243312D02*
X279764Y243248D01*
X250236Y279864D02*
X250300Y279800D01*
X243284D02*
X250300D01*
X230000Y370000D02*
Y380642D01*
X229642Y381000D02*
X230000Y380642D01*
X220000Y383358D02*
Y400000D01*
Y383358D02*
X222358Y381000D01*
X100000Y166000D02*
X126850Y192850D01*
X128000Y230000D02*
X140000D01*
X133150Y220000D02*
Y224850D01*
X128000Y230000D02*
X133150Y224850D01*
X121000Y237000D02*
X128000Y230000D01*
X133150Y210000D02*
Y220000D01*
X133150Y220000D02*
X133150Y220000D01*
X76000Y220000D02*
X126850D01*
X126850D01*
X126850Y192850D02*
Y220000D01*
D24*
X370000Y330000D02*
X374000D01*
X379000Y335000D01*
X250000Y400000D02*
X325000D01*
X379000Y346000D01*
Y335000D02*
Y346000D01*
X213642Y121358D02*
X220000D01*
X200000Y135000D02*
X213642Y121358D01*
X200000Y135000D02*
Y160000D01*
X313052Y119546D02*
Y147052D01*
X290000Y150000D02*
X316000D01*
X240000Y121358D02*
X261358D01*
X230000D02*
X240000D01*
X220000D02*
X230000D01*
X220000Y121358D02*
X220000Y121358D01*
X261358D02*
X290000Y150000D01*
X316000D02*
X329000D01*
X313052Y147052D02*
X316000Y150000D01*
X329000D02*
X330000Y151000D01*
Y160000D01*
X158000Y342000D02*
Y419000D01*
X131043Y373500D02*
X140000Y364543D01*
X154000Y340000D02*
X160000D01*
X134000Y320000D02*
X154000Y340000D01*
X130000Y320000D02*
X134000D01*
X120343Y329658D02*
X130000Y320000D01*
X160000Y340000D02*
X160000D01*
X158000Y342000D02*
X160000Y340000D01*
X120600Y367300D02*
X121000Y366900D01*
X89906Y372094D02*
X93500Y368500D01*
X86000Y372094D02*
X89906D01*
X89595Y347311D02*
Y364595D01*
X93500Y368500D01*
X89595Y347311D02*
X90000Y346905D01*
X96422Y305218D02*
Y315422D01*
X98000Y317000D01*
X120343Y329658D02*
Y335094D01*
X106000D02*
X120343D01*
X121000Y335752D01*
X90000Y335094D02*
X106000D01*
X90000Y346905D02*
X105032D01*
X106000Y345937D01*
Y335094D02*
Y338063D01*
X121000Y342248D02*
X129000D01*
X121000D02*
Y366900D01*
X119800Y368100D02*
X120600Y367300D01*
X136000Y334000D02*
X141000Y339000D01*
Y346677D02*
Y357457D01*
X125500Y378500D02*
X130839Y383839D01*
X118252Y378500D02*
X125500D01*
X118252Y373500D02*
X131043D01*
X130839Y383839D02*
X141000D01*
X140000Y364543D02*
X141000D01*
X65000Y368000D02*
X75000Y378000D01*
X65000Y359000D02*
Y368000D01*
X88095Y337000D02*
X90000Y335094D01*
X65000Y337000D02*
X88095D01*
X73094Y383906D02*
X86000D01*
X90000Y413000D02*
Y420000D01*
X85000Y408000D02*
X90000Y413000D01*
X70000Y387000D02*
X73094Y383906D01*
X70000Y387000D02*
Y393000D01*
X85000Y408000D01*
X134457Y394457D02*
X141000D01*
X131000Y391000D02*
X134457Y394457D01*
X118252Y384000D02*
Y390252D01*
X129543Y401543D01*
X141000D01*
X111000Y420000D02*
X119000Y428000D01*
X149000D01*
X158000Y419000D01*
X313150Y123150D02*
X320000Y130000D01*
X330000D01*
X340000D01*
X350000D01*
X360000D01*
X370000D01*
X380000D01*
X390000D01*
X400000D01*
X410000D01*
X420000D01*
X130752Y334000D02*
X136000D01*
X129000Y335752D02*
X130752Y334000D01*
D25*
X93500Y368500D02*
X98148D01*
D26*
X108650Y375900D02*
D03*
D27*
X400000Y370000D02*
D03*
X420000D02*
D03*
X410000D02*
D03*
Y360000D02*
D03*
X420000D02*
D03*
X400000D02*
D03*
Y340000D02*
D03*
X420000D02*
D03*
X410000D02*
D03*
Y350000D02*
D03*
X420000D02*
D03*
X400000D02*
D03*
X160000Y240000D02*
D03*
Y250000D02*
D03*
Y260000D02*
D03*
Y270000D02*
D03*
X270000Y160000D02*
D03*
X260000D02*
D03*
X210000D02*
D03*
X200000D02*
D03*
X370000Y230000D02*
D03*
Y240000D02*
D03*
Y250000D02*
D03*
Y260000D02*
D03*
X290000Y370000D02*
D03*
X320000D02*
D03*
X310000D02*
D03*
X300000D02*
D03*
X90000Y420000D02*
D03*
Y50000D02*
D03*
X170000D02*
D03*
Y60000D02*
D03*
X120000D02*
D03*
X110000D02*
D03*
X170000Y160000D02*
D03*
X160000D02*
D03*
X150000D02*
D03*
X140000D02*
D03*
X130000D02*
D03*
X120000D02*
D03*
X110000D02*
D03*
X160000Y50000D02*
D03*
Y60000D02*
D03*
X150000Y50000D02*
D03*
Y60000D02*
D03*
X140000Y50000D02*
D03*
Y60000D02*
D03*
X130000Y50000D02*
D03*
Y60000D02*
D03*
X120000Y50000D02*
D03*
X110000D02*
D03*
X260000Y60000D02*
D03*
Y70000D02*
D03*
Y80000D02*
D03*
Y90000D02*
D03*
Y100000D02*
D03*
Y110000D02*
D03*
X360000Y60000D02*
D03*
Y70000D02*
D03*
Y80000D02*
D03*
Y90000D02*
D03*
Y100000D02*
D03*
Y110000D02*
D03*
X160000Y280000D02*
D03*
X340000Y160000D02*
D03*
X240000D02*
D03*
X220000D02*
D03*
X190000D02*
D03*
X370000Y220000D02*
D03*
X160000Y190000D02*
D03*
Y200000D02*
D03*
Y290000D02*
D03*
Y300000D02*
D03*
Y310000D02*
D03*
Y330000D02*
D03*
X200000Y370000D02*
D03*
X230000D02*
D03*
X370000Y190000D02*
D03*
X370000Y200000D02*
D03*
Y210000D02*
D03*
X160000Y320000D02*
D03*
X370000Y270000D02*
D03*
X270000Y370000D02*
D03*
X370000Y280000D02*
D03*
X370000Y290000D02*
D03*
X370000Y300000D02*
D03*
Y310000D02*
D03*
X370000Y320000D02*
D03*
X340000Y370000D02*
D03*
X330000D02*
D03*
X280000Y370000D02*
D03*
X260000D02*
D03*
X250000Y370000D02*
D03*
X240000Y370000D02*
D03*
X220000D02*
D03*
X210000Y370000D02*
D03*
X370000Y330000D02*
D03*
X320016Y160000D02*
D03*
X310000D02*
D03*
X300000D02*
D03*
X290000D02*
D03*
X280000D02*
D03*
X250000D02*
D03*
X190000Y370000D02*
D03*
X230000Y160000D02*
D03*
X160000Y340000D02*
D03*
Y220000D02*
D03*
X330000Y160000D02*
D03*
X370000Y340000D02*
D03*
X160000Y230000D02*
D03*
Y210000D02*
D03*
X130000Y420000D02*
D03*
X110000D02*
D03*
X400000Y380000D02*
D03*
X420000D02*
D03*
X410000D02*
D03*
Y390000D02*
D03*
X420000D02*
D03*
X400000D02*
D03*
X330000Y140000D02*
D03*
X340000D02*
D03*
X360000D02*
D03*
X350000D02*
D03*
X390000D02*
D03*
X380000D02*
D03*
X370000D02*
D03*
X400000D02*
D03*
X420000D02*
D03*
X410000D02*
D03*
Y130000D02*
D03*
X420000D02*
D03*
X400000D02*
D03*
X370000D02*
D03*
X380000D02*
D03*
X390000D02*
D03*
X350000D02*
D03*
X360000D02*
D03*
X340000D02*
D03*
X330000D02*
D03*
X320000D02*
D03*
Y140000D02*
D03*
X400000Y90000D02*
D03*
X420000D02*
D03*
X410000D02*
D03*
Y80000D02*
D03*
X420000D02*
D03*
X400000D02*
D03*
Y110000D02*
D03*
X420000D02*
D03*
X410000D02*
D03*
Y100000D02*
D03*
X420000D02*
D03*
X400000D02*
D03*
X410000Y120000D02*
D03*
X420000D02*
D03*
X400000D02*
D03*
X60000Y90000D02*
D03*
X50000D02*
D03*
X70000D02*
D03*
X90000D02*
D03*
X80000D02*
D03*
X60000Y110000D02*
D03*
X50000D02*
D03*
X70000D02*
D03*
X90000D02*
D03*
X80000D02*
D03*
Y100000D02*
D03*
X90000D02*
D03*
X70000D02*
D03*
X50000D02*
D03*
X60000D02*
D03*
Y180000D02*
D03*
X50000D02*
D03*
X70000D02*
D03*
X90000D02*
D03*
X80000D02*
D03*
X60000Y160000D02*
D03*
X50000D02*
D03*
X70000D02*
D03*
X90000D02*
D03*
X80000D02*
D03*
Y170000D02*
D03*
X90000D02*
D03*
X70000D02*
D03*
X50000D02*
D03*
X60000D02*
D03*
Y140000D02*
D03*
X50000D02*
D03*
X70000D02*
D03*
X90000D02*
D03*
X80000D02*
D03*
Y150000D02*
D03*
X90000D02*
D03*
X70000D02*
D03*
X50000D02*
D03*
X60000D02*
D03*
Y120000D02*
D03*
X50000D02*
D03*
X70000D02*
D03*
X90000D02*
D03*
X80000D02*
D03*
Y130000D02*
D03*
X90000D02*
D03*
X70000D02*
D03*
X50000D02*
D03*
X60000D02*
D03*
X50000Y300000D02*
D03*
X60000D02*
D03*
X80000D02*
D03*
X70000D02*
D03*
Y290000D02*
D03*
X80000D02*
D03*
X60000D02*
D03*
X50000D02*
D03*
X70000Y310000D02*
D03*
X80000D02*
D03*
X60000D02*
D03*
X50000D02*
D03*
Y270000D02*
D03*
X60000D02*
D03*
X80000D02*
D03*
X70000D02*
D03*
Y280000D02*
D03*
X80000D02*
D03*
X60000D02*
D03*
X50000D02*
D03*
X400000Y330000D02*
D03*
X420000D02*
D03*
X410000D02*
D03*
Y320000D02*
D03*
X420000D02*
D03*
X400000D02*
D03*
Y290000D02*
D03*
X420000D02*
D03*
X410000D02*
D03*
Y280000D02*
D03*
X420000D02*
D03*
X400000D02*
D03*
Y300000D02*
D03*
X420000D02*
D03*
X410000D02*
D03*
Y310000D02*
D03*
X420000D02*
D03*
X400000D02*
D03*
Y270000D02*
D03*
X420000D02*
D03*
X410000D02*
D03*
Y260000D02*
D03*
X420000D02*
D03*
X400000D02*
D03*
Y230000D02*
D03*
X420000D02*
D03*
X410000D02*
D03*
Y220000D02*
D03*
X420000D02*
D03*
X400000D02*
D03*
Y240000D02*
D03*
X420000D02*
D03*
X410000D02*
D03*
Y250000D02*
D03*
X420000D02*
D03*
X400000D02*
D03*
Y200000D02*
D03*
X420000D02*
D03*
X410000D02*
D03*
Y210000D02*
D03*
X420000D02*
D03*
X400000D02*
D03*
Y180000D02*
D03*
X420000D02*
D03*
X410000D02*
D03*
Y190000D02*
D03*
X420000D02*
D03*
X400000D02*
D03*
Y160000D02*
D03*
X420000D02*
D03*
X410000D02*
D03*
Y170000D02*
D03*
X420000D02*
D03*
X400000D02*
D03*
X370000Y160000D02*
D03*
X390000D02*
D03*
X380000D02*
D03*
Y170000D02*
D03*
X390000D02*
D03*
X370000D02*
D03*
Y180000D02*
D03*
X390000D02*
D03*
X380000D02*
D03*
X370000Y150000D02*
D03*
X390000D02*
D03*
X380000D02*
D03*
X400000D02*
D03*
X420000D02*
D03*
X410000D02*
D03*
X390000Y190000D02*
D03*
Y210000D02*
D03*
Y200000D02*
D03*
X380000Y190000D02*
D03*
Y210000D02*
D03*
Y200000D02*
D03*
X390000Y220000D02*
D03*
X380000D02*
D03*
X390000Y240000D02*
D03*
X380000D02*
D03*
Y230000D02*
D03*
X390000D02*
D03*
Y260000D02*
D03*
X380000D02*
D03*
Y250000D02*
D03*
X390000D02*
D03*
Y270000D02*
D03*
X380000D02*
D03*
Y320000D02*
D03*
X390000D02*
D03*
Y300000D02*
D03*
X380000D02*
D03*
Y310000D02*
D03*
X390000D02*
D03*
Y280000D02*
D03*
X380000D02*
D03*
Y290000D02*
D03*
X390000D02*
D03*
Y380000D02*
D03*
X380000D02*
D03*
Y390000D02*
D03*
X390000D02*
D03*
Y400000D02*
D03*
X380000D02*
D03*
Y410000D02*
D03*
X390000D02*
D03*
X370000Y400000D02*
D03*
X360000D02*
D03*
Y410000D02*
D03*
X370000D02*
D03*
X350000Y400000D02*
D03*
X340000D02*
D03*
Y410000D02*
D03*
X350000D02*
D03*
Y420000D02*
D03*
X340000D02*
D03*
X370000D02*
D03*
X360000D02*
D03*
X390000D02*
D03*
X380000D02*
D03*
X330000D02*
D03*
X370000Y390000D02*
D03*
X360000D02*
D03*
X370000Y380000D02*
D03*
X390000Y370000D02*
D03*
Y360000D02*
D03*
X380000Y370000D02*
D03*
X390000Y350000D02*
D03*
Y340000D02*
D03*
Y330000D02*
D03*
X330000Y410000D02*
D03*
X320000Y420000D02*
D03*
X350000Y390000D02*
D03*
X360000Y380000D02*
D03*
X370000Y370000D02*
D03*
X380000Y360000D02*
D03*
X350000Y180000D02*
D03*
X360000D02*
D03*
X350000Y170000D02*
D03*
X360000D02*
D03*
X350000Y160000D02*
D03*
X360000D02*
D03*
X350000Y150000D02*
D03*
X360000D02*
D03*
X50000Y230000D02*
D03*
Y220000D02*
D03*
Y260000D02*
D03*
Y240000D02*
D03*
Y250000D02*
D03*
X60000Y230000D02*
D03*
Y220000D02*
D03*
Y260000D02*
D03*
Y240000D02*
D03*
Y250000D02*
D03*
X70000Y260000D02*
D03*
X80000D02*
D03*
X50000Y210000D02*
D03*
X60000D02*
D03*
X50000Y200000D02*
D03*
X60000D02*
D03*
X50000Y190000D02*
D03*
X60000D02*
D03*
X70000D02*
D03*
X80000D02*
D03*
X70000Y200000D02*
D03*
X80000D02*
D03*
X70000Y210000D02*
D03*
X80000D02*
D03*
X90000Y190000D02*
D03*
Y200000D02*
D03*
Y210000D02*
D03*
D28*
X106000Y345937D02*
D03*
D29*
Y338063D02*
D03*
D30*
X410000Y410000D02*
D03*
Y60000D02*
D03*
X60000D02*
D03*
Y410000D02*
D03*
D31*
X250000D02*
D03*
Y400000D02*
D03*
X240000Y410000D02*
D03*
Y400000D02*
D03*
X210000Y410000D02*
D03*
X220000Y400000D02*
D03*
Y410000D02*
D03*
X230000Y400000D02*
D03*
Y410000D02*
D03*
D32*
X210000Y400000D02*
D03*
D33*
X120000Y255394D02*
D03*
D34*
X120000Y274606D02*
D03*
D35*
X120000Y300165D02*
D03*
Y295835D02*
D03*
D36*
X280000Y279800D02*
D03*
X284000Y206000D02*
D03*
X304000Y135000D02*
D03*
X180000Y350000D02*
D03*
X263000Y387000D02*
D03*
X98000Y317000D02*
D03*
X136000Y334000D02*
D03*
X75000Y378000D02*
D03*
X341098Y77500D02*
D03*
X300114Y82500D02*
D03*
X300106Y92492D02*
D03*
Y102492D02*
D03*
X322106Y64492D02*
D03*
X96000Y246000D02*
D03*
X75000Y393000D02*
D03*
X131000Y391000D02*
D03*
X250300Y279800D02*
D03*
X250600Y256100D02*
D03*
X254200Y250500D02*
D03*
X279700Y250800D02*
D03*
M02*
