G04 Layer_Physical_Order=2*
G04 Layer_Color=11436288*
%FSLAX25Y25*%
%MOIN*%
G70*
G01*
G75*
%ADD14R,0.05118X0.05709*%
%ADD23C,0.01000*%
%ADD24C,0.03000*%
%ADD27C,0.08000*%
%ADD28C,0.05118*%
%ADD29R,0.05118X0.05118*%
%ADD30C,0.25984*%
%ADD31C,0.06000*%
%ADD32R,0.06000X0.06000*%
%ADD33R,0.04724X0.04724*%
%ADD34C,0.04724*%
%ADD35O,0.03937X0.02953*%
%ADD36C,0.02000*%
%ADD37R,0.05709X0.05118*%
G36*
X31000Y439000D02*
X441000D01*
Y30000D01*
X29354Y28002D01*
X29000Y28354D01*
Y439000D01*
X30000Y440000D01*
X31000Y439000D01*
D02*
G37*
%LPC*%
G36*
X160000Y226531D02*
X158726Y226406D01*
X157501Y226034D01*
X156371Y225431D01*
X155382Y224618D01*
X154569Y223629D01*
X153966Y222499D01*
X153594Y221274D01*
X153469Y220000D01*
X153594Y218726D01*
X153966Y217500D01*
X154569Y216371D01*
X155382Y215382D01*
X155542Y215250D01*
Y214750D01*
X155382Y214618D01*
X154569Y213629D01*
X153966Y212499D01*
X153594Y211274D01*
X153469Y210000D01*
X153594Y208726D01*
X153966Y207501D01*
X154569Y206371D01*
X155382Y205382D01*
X155542Y205250D01*
Y204750D01*
X155382Y204618D01*
X154569Y203629D01*
X153966Y202500D01*
X153594Y201274D01*
X153469Y200000D01*
X153594Y198726D01*
X153966Y197501D01*
X154569Y196371D01*
X155382Y195382D01*
X155542Y195250D01*
Y194750D01*
X155382Y194618D01*
X154569Y193629D01*
X153966Y192499D01*
X153594Y191274D01*
X153469Y190000D01*
X153594Y188726D01*
X153966Y187501D01*
X154569Y186371D01*
X155382Y185382D01*
X156371Y184569D01*
X157501Y183966D01*
X158726Y183594D01*
X160000Y183469D01*
X161274Y183594D01*
X162499Y183966D01*
X163629Y184569D01*
X164618Y185382D01*
X165431Y186371D01*
X166034Y187501D01*
X166406Y188726D01*
X166531Y190000D01*
X166406Y191274D01*
X166034Y192499D01*
X165431Y193629D01*
X164618Y194618D01*
X164458Y194750D01*
Y195250D01*
X164618Y195382D01*
X165431Y196371D01*
X166034Y197501D01*
X166406Y198726D01*
X166531Y200000D01*
X166406Y201274D01*
X166034Y202500D01*
X165431Y203629D01*
X164618Y204618D01*
X164458Y204750D01*
Y205250D01*
X164618Y205382D01*
X165431Y206371D01*
X166034Y207501D01*
X166406Y208726D01*
X166531Y210000D01*
X166406Y211274D01*
X166034Y212499D01*
X165431Y213629D01*
X164618Y214618D01*
X164458Y214750D01*
Y215250D01*
X164618Y215382D01*
X165431Y216371D01*
X166034Y217500D01*
X166406Y218726D01*
X166531Y220000D01*
X166406Y221274D01*
X166034Y222499D01*
X165431Y223629D01*
X164618Y224618D01*
X163629Y225431D01*
X162499Y226034D01*
X161274Y226406D01*
X160000Y226531D01*
D02*
G37*
G36*
X170000Y166531D02*
X168726Y166406D01*
X167500Y166034D01*
X166371Y165431D01*
X165382Y164618D01*
X165250Y164458D01*
X164750D01*
X164618Y164618D01*
X163629Y165431D01*
X162499Y166034D01*
X161274Y166406D01*
X160000Y166531D01*
X158726Y166406D01*
X157501Y166034D01*
X156371Y165431D01*
X155382Y164618D01*
X155250Y164458D01*
X154750D01*
X154618Y164618D01*
X153629Y165431D01*
X152499Y166034D01*
X151274Y166406D01*
X150000Y166531D01*
X148726Y166406D01*
X147501Y166034D01*
X146371Y165431D01*
X145382Y164618D01*
X145250Y164458D01*
X144750D01*
X144618Y164618D01*
X143629Y165431D01*
X142499Y166034D01*
X141274Y166406D01*
X140000Y166531D01*
X138726Y166406D01*
X137501Y166034D01*
X136371Y165431D01*
X135382Y164618D01*
X135250Y164458D01*
X134750D01*
X134618Y164618D01*
X133629Y165431D01*
X132500Y166034D01*
X131274Y166406D01*
X130000Y166531D01*
X128726Y166406D01*
X127500Y166034D01*
X126371Y165431D01*
X125382Y164618D01*
X125250Y164458D01*
X124750D01*
X124618Y164618D01*
X123629Y165431D01*
X122500Y166034D01*
X121274Y166406D01*
X120000Y166531D01*
X118726Y166406D01*
X117500Y166034D01*
X116371Y165431D01*
X115382Y164618D01*
X115250Y164458D01*
X114750D01*
X114618Y164618D01*
X113629Y165431D01*
X112499Y166034D01*
X111274Y166406D01*
X110000Y166531D01*
X108726Y166406D01*
X107501Y166034D01*
X106371Y165431D01*
X105382Y164618D01*
X104569Y163629D01*
X103966Y162499D01*
X103594Y161274D01*
X103469Y160000D01*
X103594Y158726D01*
X103966Y157501D01*
X104569Y156371D01*
X105382Y155382D01*
X106371Y154569D01*
X107501Y153966D01*
X108726Y153594D01*
X110000Y153469D01*
X111274Y153594D01*
X112499Y153966D01*
X113629Y154569D01*
X114618Y155382D01*
X114750Y155542D01*
X115250D01*
X115382Y155382D01*
X116371Y154569D01*
X117500Y153966D01*
X118726Y153594D01*
X120000Y153469D01*
X121274Y153594D01*
X122500Y153966D01*
X123629Y154569D01*
X124618Y155382D01*
X124750Y155542D01*
X125250D01*
X125382Y155382D01*
X126371Y154569D01*
X127500Y153966D01*
X128726Y153594D01*
X130000Y153469D01*
X131274Y153594D01*
X132500Y153966D01*
X133629Y154569D01*
X134618Y155382D01*
X134750Y155542D01*
X135250D01*
X135382Y155382D01*
X136371Y154569D01*
X137501Y153966D01*
X138726Y153594D01*
X140000Y153469D01*
X141274Y153594D01*
X142499Y153966D01*
X143629Y154569D01*
X144618Y155382D01*
X144750Y155542D01*
X145250D01*
X145382Y155382D01*
X146371Y154569D01*
X147501Y153966D01*
X148726Y153594D01*
X150000Y153469D01*
X151274Y153594D01*
X152499Y153966D01*
X153629Y154569D01*
X154618Y155382D01*
X154750Y155542D01*
X155250D01*
X155382Y155382D01*
X156371Y154569D01*
X157501Y153966D01*
X158726Y153594D01*
X160000Y153469D01*
X161274Y153594D01*
X162499Y153966D01*
X163629Y154569D01*
X164618Y155382D01*
X164750Y155542D01*
X165250D01*
X165382Y155382D01*
X166371Y154569D01*
X167500Y153966D01*
X168726Y153594D01*
X170000Y153469D01*
X171274Y153594D01*
X172500Y153966D01*
X173629Y154569D01*
X174618Y155382D01*
X175431Y156371D01*
X176034Y157501D01*
X176406Y158726D01*
X176531Y160000D01*
X176406Y161274D01*
X176034Y162499D01*
X175431Y163629D01*
X174618Y164618D01*
X173629Y165431D01*
X172500Y166034D01*
X171274Y166406D01*
X170000Y166531D01*
D02*
G37*
G36*
X320016D02*
X318742Y166406D01*
X317516Y166034D01*
X316387Y165431D01*
X315397Y164618D01*
X315258Y164449D01*
X314758D01*
X314619Y164618D01*
X313629Y165431D01*
X312500Y166034D01*
X311274Y166406D01*
X310000Y166531D01*
X308726Y166406D01*
X307501Y166034D01*
X306371Y165431D01*
X305382Y164618D01*
X305250Y164458D01*
X304750D01*
X304618Y164618D01*
X303629Y165431D01*
X302500Y166034D01*
X301274Y166406D01*
X300000Y166531D01*
X298726Y166406D01*
X297500Y166034D01*
X296371Y165431D01*
X295382Y164618D01*
X295250Y164458D01*
X294750D01*
X294618Y164618D01*
X293629Y165431D01*
X292499Y166034D01*
X291274Y166406D01*
X290000Y166531D01*
X288726Y166406D01*
X287501Y166034D01*
X286371Y165431D01*
X285382Y164618D01*
X285250Y164458D01*
X284750D01*
X284618Y164618D01*
X283629Y165431D01*
X282499Y166034D01*
X281274Y166406D01*
X280000Y166531D01*
X278726Y166406D01*
X277500Y166034D01*
X276371Y165431D01*
X275381Y164618D01*
X275250Y164458D01*
X274750D01*
X274618Y164618D01*
X273629Y165431D01*
X272499Y166034D01*
X271274Y166406D01*
X270000Y166531D01*
X268726Y166406D01*
X267500Y166034D01*
X266371Y165431D01*
X265382Y164618D01*
X265250Y164458D01*
X264750D01*
X264618Y164618D01*
X263629Y165431D01*
X262499Y166034D01*
X261274Y166406D01*
X260000Y166531D01*
X258726Y166406D01*
X257501Y166034D01*
X256371Y165431D01*
X255382Y164618D01*
X255250Y164458D01*
X254750D01*
X254618Y164618D01*
X253629Y165431D01*
X252500Y166034D01*
X251274Y166406D01*
X250000Y166531D01*
X248726Y166406D01*
X247500Y166034D01*
X246371Y165431D01*
X245382Y164618D01*
X245250Y164458D01*
X244750D01*
X244618Y164618D01*
X243629Y165431D01*
X242499Y166034D01*
X241274Y166406D01*
X240000Y166531D01*
X238726Y166406D01*
X237501Y166034D01*
X236371Y165431D01*
X235382Y164618D01*
X235250Y164458D01*
X234750D01*
X234618Y164618D01*
X233629Y165431D01*
X232500Y166034D01*
X231274Y166406D01*
X230000Y166531D01*
X228726Y166406D01*
X227501Y166034D01*
X226371Y165431D01*
X225382Y164618D01*
X225250Y164458D01*
X224750D01*
X224618Y164618D01*
X223629Y165431D01*
X222499Y166034D01*
X221274Y166406D01*
X220000Y166531D01*
X218726Y166406D01*
X217500Y166034D01*
X216371Y165431D01*
X215382Y164618D01*
X215250Y164458D01*
X214750D01*
X214618Y164618D01*
X213629Y165431D01*
X212499Y166034D01*
X211274Y166406D01*
X210000Y166531D01*
X208726Y166406D01*
X207501Y166034D01*
X206371Y165431D01*
X205382Y164618D01*
X204569Y163629D01*
X203966Y162499D01*
X203594Y161274D01*
X203469Y160000D01*
X203594Y158726D01*
X203966Y157501D01*
X204569Y156371D01*
X205382Y155382D01*
X206371Y154569D01*
X207501Y153966D01*
X208726Y153594D01*
X210000Y153469D01*
X211274Y153594D01*
X212499Y153966D01*
X213629Y154569D01*
X214618Y155382D01*
X214750Y155542D01*
X215250D01*
X215382Y155382D01*
X216371Y154569D01*
X217500Y153966D01*
X218726Y153594D01*
X220000Y153469D01*
X221274Y153594D01*
X222499Y153966D01*
X223629Y154569D01*
X224618Y155382D01*
X224750Y155542D01*
X225250D01*
X225382Y155382D01*
X226371Y154569D01*
X227501Y153966D01*
X228726Y153594D01*
X230000Y153469D01*
X231274Y153594D01*
X232500Y153966D01*
X233629Y154569D01*
X234618Y155382D01*
X234750Y155542D01*
X235250D01*
X235382Y155382D01*
X236371Y154569D01*
X237501Y153966D01*
X238726Y153594D01*
X240000Y153469D01*
X241274Y153594D01*
X242499Y153966D01*
X243629Y154569D01*
X244618Y155382D01*
X244750Y155542D01*
X245250D01*
X245382Y155382D01*
X246371Y154569D01*
X247500Y153966D01*
X248726Y153594D01*
X250000Y153469D01*
X251274Y153594D01*
X252500Y153966D01*
X253629Y154569D01*
X254618Y155382D01*
X254750Y155542D01*
X255250D01*
X255382Y155382D01*
X256371Y154569D01*
X257501Y153966D01*
X258726Y153594D01*
X260000Y153469D01*
X261274Y153594D01*
X262499Y153966D01*
X263629Y154569D01*
X264618Y155382D01*
X264750Y155542D01*
X265250D01*
X265382Y155382D01*
X266371Y154569D01*
X267500Y153966D01*
X268726Y153594D01*
X270000Y153469D01*
X271274Y153594D01*
X272499Y153966D01*
X273629Y154569D01*
X274618Y155382D01*
X274750Y155542D01*
X275250D01*
X275381Y155382D01*
X276371Y154569D01*
X277500Y153966D01*
X278726Y153594D01*
X280000Y153469D01*
X281274Y153594D01*
X282499Y153966D01*
X283629Y154569D01*
X284618Y155382D01*
X284750Y155542D01*
X285250D01*
X285382Y155382D01*
X286371Y154569D01*
X287501Y153966D01*
X288726Y153594D01*
X290000Y153469D01*
X291274Y153594D01*
X292499Y153966D01*
X293629Y154569D01*
X294618Y155382D01*
X294750Y155542D01*
X295250D01*
X295382Y155382D01*
X296371Y154569D01*
X297500Y153966D01*
X298726Y153594D01*
X300000Y153469D01*
X301274Y153594D01*
X302500Y153966D01*
X303629Y154569D01*
X304618Y155382D01*
X304750Y155542D01*
X305250D01*
X305382Y155382D01*
X306371Y154569D01*
X307501Y153966D01*
X308726Y153594D01*
X310000Y153469D01*
X311274Y153594D01*
X312500Y153966D01*
X313629Y154569D01*
X314619Y155382D01*
X314758Y155551D01*
X315258D01*
X315397Y155382D01*
X316387Y154569D01*
X317516Y153966D01*
X318742Y153594D01*
X320016Y153469D01*
X321290Y153594D01*
X322515Y153966D01*
X323644Y154569D01*
X324634Y155382D01*
X325447Y156371D01*
X326050Y157501D01*
X326422Y158726D01*
X326547Y160000D01*
X326422Y161274D01*
X326050Y162499D01*
X325447Y163629D01*
X324634Y164618D01*
X323644Y165431D01*
X322515Y166034D01*
X321290Y166406D01*
X320016Y166531D01*
D02*
G37*
G36*
X254200Y252539D02*
X253420Y252384D01*
X252758Y251942D01*
X252316Y251280D01*
X252161Y250500D01*
X252316Y249720D01*
X252671Y249189D01*
Y239409D01*
X250346D01*
Y232291D01*
X258054D01*
Y239409D01*
X255729D01*
Y249189D01*
X256084Y249720D01*
X256239Y250500D01*
X256084Y251280D01*
X255642Y251942D01*
X254980Y252384D01*
X254200Y252539D01*
D02*
G37*
G36*
X239409Y259954D02*
X232291D01*
Y252246D01*
X239409D01*
Y254571D01*
X249289D01*
X249820Y254216D01*
X250600Y254061D01*
X251380Y254216D01*
X252042Y254658D01*
X252484Y255320D01*
X252639Y256100D01*
X252484Y256880D01*
X252042Y257542D01*
X251380Y257984D01*
X250600Y258139D01*
X249820Y257984D01*
X249289Y257629D01*
X239409D01*
Y259954D01*
D02*
G37*
G36*
X124862Y260256D02*
X115138D01*
Y250532D01*
X124862D01*
Y260256D01*
D02*
G37*
G36*
X279700Y252839D02*
X278920Y252684D01*
X278258Y252242D01*
X277816Y251580D01*
X277661Y250800D01*
X277816Y250020D01*
X278171Y249489D01*
Y239409D01*
X275846D01*
Y232291D01*
X283554D01*
Y239409D01*
X281229D01*
Y249489D01*
X281584Y250020D01*
X281739Y250800D01*
X281584Y251580D01*
X281142Y252242D01*
X280480Y252684D01*
X279700Y252839D01*
D02*
G37*
G36*
X260000Y116531D02*
X258726Y116406D01*
X257501Y116034D01*
X256371Y115431D01*
X255382Y114618D01*
X254569Y113629D01*
X253966Y112499D01*
X253594Y111274D01*
X253469Y110000D01*
X253594Y108726D01*
X253966Y107501D01*
X254569Y106371D01*
X255382Y105382D01*
X255542Y105250D01*
Y104750D01*
X255382Y104618D01*
X254569Y103629D01*
X253966Y102499D01*
X253594Y101274D01*
X253469Y100000D01*
X253594Y98726D01*
X253966Y97500D01*
X254569Y96371D01*
X255382Y95382D01*
X255542Y95250D01*
Y94750D01*
X255382Y94618D01*
X254569Y93629D01*
X253966Y92500D01*
X253594Y91274D01*
X253469Y90000D01*
X253594Y88726D01*
X253966Y87501D01*
X254569Y86371D01*
X255382Y85382D01*
X255542Y85250D01*
Y84750D01*
X255382Y84618D01*
X254569Y83629D01*
X253966Y82499D01*
X253594Y81274D01*
X253469Y80000D01*
X253594Y78726D01*
X253966Y77500D01*
X254569Y76371D01*
X255382Y75382D01*
X255542Y75250D01*
Y74750D01*
X255382Y74618D01*
X254569Y73629D01*
X253966Y72500D01*
X253594Y71274D01*
X253469Y70000D01*
X253594Y68726D01*
X253966Y67501D01*
X254569Y66371D01*
X255382Y65382D01*
X255542Y65250D01*
Y64750D01*
X255382Y64618D01*
X254569Y63629D01*
X253966Y62499D01*
X253594Y61274D01*
X253469Y60000D01*
X253594Y58726D01*
X253966Y57500D01*
X254569Y56371D01*
X255382Y55382D01*
X256371Y54569D01*
X257501Y53966D01*
X258726Y53594D01*
X260000Y53469D01*
X261274Y53594D01*
X262499Y53966D01*
X263629Y54569D01*
X264618Y55382D01*
X265431Y56371D01*
X266034Y57500D01*
X266406Y58726D01*
X266531Y60000D01*
X266406Y61274D01*
X266034Y62499D01*
X265431Y63629D01*
X264618Y64618D01*
X264458Y64750D01*
Y65250D01*
X264618Y65382D01*
X265431Y66371D01*
X266034Y67501D01*
X266406Y68726D01*
X266531Y70000D01*
X266406Y71274D01*
X266034Y72500D01*
X265431Y73629D01*
X264618Y74618D01*
X264458Y74750D01*
Y75250D01*
X264618Y75382D01*
X265431Y76371D01*
X266034Y77500D01*
X266406Y78726D01*
X266531Y80000D01*
X266406Y81274D01*
X266034Y82499D01*
X265431Y83629D01*
X264618Y84618D01*
X264458Y84750D01*
Y85250D01*
X264618Y85382D01*
X265431Y86371D01*
X266034Y87501D01*
X266406Y88726D01*
X266531Y90000D01*
X266406Y91274D01*
X266034Y92500D01*
X265431Y93629D01*
X264618Y94618D01*
X264458Y94750D01*
Y95250D01*
X264618Y95382D01*
X265431Y96371D01*
X266034Y97500D01*
X266406Y98726D01*
X266531Y100000D01*
X266406Y101274D01*
X266034Y102499D01*
X265431Y103629D01*
X264618Y104618D01*
X264458Y104750D01*
Y105250D01*
X264618Y105382D01*
X265431Y106371D01*
X266034Y107501D01*
X266406Y108726D01*
X266531Y110000D01*
X266406Y111274D01*
X266034Y112499D01*
X265431Y113629D01*
X264618Y114618D01*
X263629Y115431D01*
X262499Y116034D01*
X261274Y116406D01*
X260000Y116531D01*
D02*
G37*
G36*
X60000Y75540D02*
X57569Y75349D01*
X55198Y74779D01*
X52945Y73846D01*
X50866Y72572D01*
X49011Y70989D01*
X47428Y69134D01*
X46154Y67055D01*
X45221Y64802D01*
X44651Y62431D01*
X44460Y60000D01*
X44651Y57569D01*
X45221Y55198D01*
X46154Y52945D01*
X47428Y50866D01*
X49011Y49011D01*
X50866Y47428D01*
X52945Y46154D01*
X55198Y45221D01*
X57569Y44651D01*
X60000Y44460D01*
X62431Y44651D01*
X64802Y45221D01*
X67055Y46154D01*
X69134Y47428D01*
X70989Y49011D01*
X72572Y50866D01*
X73846Y52945D01*
X74779Y55198D01*
X75349Y57569D01*
X75540Y60000D01*
X75349Y62431D01*
X74779Y64802D01*
X73846Y67055D01*
X72572Y69134D01*
X70989Y70989D01*
X69134Y72572D01*
X67055Y73846D01*
X64802Y74779D01*
X62431Y75349D01*
X60000Y75540D01*
D02*
G37*
G36*
X90000Y56531D02*
X88726Y56406D01*
X87501Y56034D01*
X86371Y55431D01*
X85382Y54618D01*
X84569Y53629D01*
X83966Y52500D01*
X83594Y51274D01*
X83469Y50000D01*
X83594Y48726D01*
X83966Y47501D01*
X84569Y46371D01*
X85382Y45382D01*
X86371Y44569D01*
X87501Y43966D01*
X88726Y43594D01*
X90000Y43468D01*
X91274Y43594D01*
X92500Y43966D01*
X93629Y44569D01*
X94618Y45382D01*
X95431Y46371D01*
X96034Y47501D01*
X96406Y48726D01*
X96531Y50000D01*
X96406Y51274D01*
X96034Y52500D01*
X95431Y53629D01*
X94618Y54618D01*
X93629Y55431D01*
X92500Y56034D01*
X91274Y56406D01*
X90000Y56531D01*
D02*
G37*
G36*
X170000Y66531D02*
X168726Y66406D01*
X167500Y66034D01*
X166371Y65431D01*
X165382Y64618D01*
X165250Y64458D01*
X164750D01*
X164618Y64618D01*
X163629Y65431D01*
X162499Y66034D01*
X161274Y66406D01*
X160000Y66531D01*
X158726Y66406D01*
X157501Y66034D01*
X156371Y65431D01*
X155382Y64618D01*
X155250Y64458D01*
X154750D01*
X154618Y64618D01*
X153629Y65431D01*
X152499Y66034D01*
X151274Y66406D01*
X150000Y66531D01*
X148726Y66406D01*
X147501Y66034D01*
X146371Y65431D01*
X145382Y64618D01*
X145250Y64458D01*
X144750D01*
X144618Y64618D01*
X143629Y65431D01*
X142499Y66034D01*
X141274Y66406D01*
X140000Y66531D01*
X138726Y66406D01*
X137501Y66034D01*
X136371Y65431D01*
X135382Y64618D01*
X135250Y64458D01*
X134750D01*
X134618Y64618D01*
X133629Y65431D01*
X132500Y66034D01*
X131274Y66406D01*
X130000Y66531D01*
X128726Y66406D01*
X127500Y66034D01*
X126371Y65431D01*
X125382Y64618D01*
X125250Y64458D01*
X124750D01*
X124618Y64618D01*
X123629Y65431D01*
X122500Y66034D01*
X121274Y66406D01*
X120000Y66531D01*
X118726Y66406D01*
X117500Y66034D01*
X116371Y65431D01*
X115382Y64618D01*
X115250Y64458D01*
X114750D01*
X114618Y64618D01*
X113629Y65431D01*
X112499Y66034D01*
X111274Y66406D01*
X110000Y66531D01*
X108726Y66406D01*
X107501Y66034D01*
X106371Y65431D01*
X105382Y64618D01*
X104569Y63629D01*
X103966Y62499D01*
X103594Y61274D01*
X103469Y60000D01*
X103594Y58726D01*
X103966Y57500D01*
X104569Y56371D01*
X105382Y55382D01*
X105542Y55250D01*
Y54750D01*
X105382Y54618D01*
X104569Y53629D01*
X103966Y52500D01*
X103594Y51274D01*
X103469Y50000D01*
X103594Y48726D01*
X103966Y47501D01*
X104569Y46371D01*
X105382Y45382D01*
X106371Y44569D01*
X107501Y43966D01*
X108726Y43594D01*
X110000Y43468D01*
X111274Y43594D01*
X112499Y43966D01*
X113629Y44569D01*
X114618Y45382D01*
X114750Y45542D01*
X115250D01*
X115382Y45382D01*
X116371Y44569D01*
X117500Y43966D01*
X118726Y43594D01*
X120000Y43468D01*
X121274Y43594D01*
X122500Y43966D01*
X123629Y44569D01*
X124618Y45382D01*
X124750Y45542D01*
X125250D01*
X125382Y45382D01*
X126371Y44569D01*
X127500Y43966D01*
X128726Y43594D01*
X130000Y43468D01*
X131274Y43594D01*
X132500Y43966D01*
X133629Y44569D01*
X134618Y45382D01*
X134750Y45542D01*
X135250D01*
X135382Y45382D01*
X136371Y44569D01*
X137501Y43966D01*
X138726Y43594D01*
X140000Y43468D01*
X141274Y43594D01*
X142499Y43966D01*
X143629Y44569D01*
X144618Y45382D01*
X144750Y45542D01*
X145250D01*
X145382Y45382D01*
X146371Y44569D01*
X147501Y43966D01*
X148726Y43594D01*
X150000Y43468D01*
X151274Y43594D01*
X152499Y43966D01*
X153629Y44569D01*
X154618Y45382D01*
X154750Y45542D01*
X155250D01*
X155382Y45382D01*
X156371Y44569D01*
X157501Y43966D01*
X158726Y43594D01*
X160000Y43468D01*
X161274Y43594D01*
X162499Y43966D01*
X163629Y44569D01*
X164618Y45382D01*
X164750Y45542D01*
X165250D01*
X165382Y45382D01*
X166371Y44569D01*
X167500Y43966D01*
X168726Y43594D01*
X170000Y43468D01*
X171274Y43594D01*
X172500Y43966D01*
X173629Y44569D01*
X174618Y45382D01*
X175431Y46371D01*
X176034Y47501D01*
X176406Y48726D01*
X176531Y50000D01*
X176406Y51274D01*
X176034Y52500D01*
X175431Y53629D01*
X174618Y54618D01*
X174458Y54750D01*
Y55250D01*
X174618Y55382D01*
X175431Y56371D01*
X176034Y57500D01*
X176406Y58726D01*
X176531Y60000D01*
X176406Y61274D01*
X176034Y62499D01*
X175431Y63629D01*
X174618Y64618D01*
X173629Y65431D01*
X172500Y66034D01*
X171274Y66406D01*
X170000Y66531D01*
D02*
G37*
G36*
X190000Y166531D02*
X188726Y166406D01*
X187501Y166034D01*
X186371Y165431D01*
X185382Y164618D01*
X184569Y163629D01*
X183966Y162499D01*
X183594Y161274D01*
X183469Y160000D01*
X183594Y158726D01*
X183966Y157501D01*
X184569Y156371D01*
X185382Y155382D01*
X186371Y154569D01*
X187501Y153966D01*
X188726Y153594D01*
X190000Y153469D01*
X191274Y153594D01*
X192499Y153966D01*
X193629Y154569D01*
X194618Y155382D01*
X195431Y156371D01*
X196034Y157501D01*
X196406Y158726D01*
X196531Y160000D01*
X196406Y161274D01*
X196034Y162499D01*
X195431Y163629D01*
X194618Y164618D01*
X193629Y165431D01*
X192499Y166034D01*
X191274Y166406D01*
X190000Y166531D01*
D02*
G37*
G36*
X420000Y126531D02*
X418726Y126406D01*
X417500Y126034D01*
X416371Y125431D01*
X415382Y124618D01*
X415250Y124458D01*
X414750D01*
X414618Y124618D01*
X413629Y125431D01*
X412500Y126034D01*
X411274Y126406D01*
X410000Y126531D01*
X408726Y126406D01*
X407501Y126034D01*
X406371Y125431D01*
X405382Y124618D01*
X405250Y124458D01*
X404750D01*
X404618Y124618D01*
X403629Y125431D01*
X402499Y126034D01*
X401274Y126406D01*
X400000Y126531D01*
X398726Y126406D01*
X397500Y126034D01*
X396371Y125431D01*
X395382Y124618D01*
X394569Y123629D01*
X393966Y122500D01*
X393594Y121274D01*
X393469Y120000D01*
X393594Y118726D01*
X393966Y117500D01*
X394569Y116371D01*
X395382Y115382D01*
X395542Y115250D01*
Y114750D01*
X395382Y114618D01*
X394569Y113629D01*
X393966Y112499D01*
X393594Y111274D01*
X393469Y110000D01*
X393594Y108726D01*
X393966Y107501D01*
X394569Y106371D01*
X395382Y105382D01*
X395542Y105250D01*
Y104750D01*
X395382Y104618D01*
X394569Y103629D01*
X393966Y102499D01*
X393594Y101274D01*
X393469Y100000D01*
X393594Y98726D01*
X393966Y97500D01*
X394569Y96371D01*
X395382Y95382D01*
X395542Y95250D01*
Y94750D01*
X395382Y94618D01*
X394569Y93629D01*
X393966Y92500D01*
X393594Y91274D01*
X393469Y90000D01*
X393594Y88726D01*
X393966Y87501D01*
X394569Y86371D01*
X395382Y85382D01*
X395542Y85250D01*
Y84750D01*
X395382Y84618D01*
X394569Y83629D01*
X393966Y82499D01*
X393594Y81274D01*
X393469Y80000D01*
X393594Y78726D01*
X393966Y77500D01*
X394569Y76371D01*
X395382Y75382D01*
X396371Y74569D01*
X397500Y73966D01*
X398726Y73594D01*
X400000Y73469D01*
X401274Y73594D01*
X401873Y73776D01*
X402079Y73316D01*
X400866Y72572D01*
X399011Y70989D01*
X397428Y69134D01*
X396154Y67055D01*
X395221Y64802D01*
X394651Y62431D01*
X394460Y60000D01*
X394651Y57569D01*
X395221Y55198D01*
X396154Y52945D01*
X397428Y50866D01*
X399011Y49011D01*
X400866Y47428D01*
X402945Y46154D01*
X405198Y45221D01*
X407569Y44651D01*
X410000Y44460D01*
X412431Y44651D01*
X414802Y45221D01*
X417055Y46154D01*
X419134Y47428D01*
X420989Y49011D01*
X422572Y50866D01*
X423846Y52945D01*
X424779Y55198D01*
X425349Y57569D01*
X425540Y60000D01*
X425349Y62431D01*
X424779Y64802D01*
X423846Y67055D01*
X422572Y69134D01*
X420989Y70989D01*
X419134Y72572D01*
X417921Y73316D01*
X418127Y73776D01*
X418726Y73594D01*
X420000Y73469D01*
X421274Y73594D01*
X422500Y73966D01*
X423629Y74569D01*
X424618Y75382D01*
X425431Y76371D01*
X426034Y77500D01*
X426406Y78726D01*
X426532Y80000D01*
X426406Y81274D01*
X426034Y82499D01*
X425431Y83629D01*
X424618Y84618D01*
X424458Y84750D01*
Y85250D01*
X424618Y85382D01*
X425431Y86371D01*
X426034Y87501D01*
X426406Y88726D01*
X426532Y90000D01*
X426406Y91274D01*
X426034Y92500D01*
X425431Y93629D01*
X424618Y94618D01*
X424458Y94750D01*
Y95250D01*
X424618Y95382D01*
X425431Y96371D01*
X426034Y97500D01*
X426406Y98726D01*
X426532Y100000D01*
X426406Y101274D01*
X426034Y102499D01*
X425431Y103629D01*
X424618Y104618D01*
X424458Y104750D01*
Y105250D01*
X424618Y105382D01*
X425431Y106371D01*
X426034Y107501D01*
X426406Y108726D01*
X426532Y110000D01*
X426406Y111274D01*
X426034Y112499D01*
X425431Y113629D01*
X424618Y114618D01*
X424458Y114750D01*
Y115250D01*
X424618Y115382D01*
X425431Y116371D01*
X426034Y117500D01*
X426406Y118726D01*
X426532Y120000D01*
X426406Y121274D01*
X426034Y122500D01*
X425431Y123629D01*
X424618Y124618D01*
X423629Y125431D01*
X422500Y126034D01*
X421274Y126406D01*
X420000Y126531D01*
D02*
G37*
G36*
X360000Y116531D02*
X358726Y116406D01*
X357501Y116034D01*
X356371Y115431D01*
X355382Y114618D01*
X354569Y113629D01*
X353966Y112499D01*
X353672Y111529D01*
X325615D01*
X325029Y111413D01*
X324533Y111081D01*
X317473Y104021D01*
X301417D01*
X300887Y104376D01*
X300106Y104531D01*
X299326Y104376D01*
X298664Y103934D01*
X298222Y103272D01*
X298067Y102492D01*
X298222Y101711D01*
X298664Y101050D01*
X299326Y100608D01*
X300106Y100453D01*
X300887Y100608D01*
X301417Y100962D01*
X318106D01*
X318691Y101079D01*
X319188Y101410D01*
X326248Y108471D01*
X353672D01*
X353966Y107501D01*
X354569Y106371D01*
X355382Y105382D01*
X355542Y105250D01*
Y104750D01*
X355382Y104618D01*
X354569Y103629D01*
X353966Y102499D01*
X353672Y101529D01*
X349615D01*
X349029Y101413D01*
X348533Y101081D01*
X346473Y99021D01*
X323106D01*
X322521Y98905D01*
X322025Y98573D01*
X317473Y94021D01*
X301417D01*
X300887Y94376D01*
X300106Y94531D01*
X299326Y94376D01*
X298664Y93934D01*
X298222Y93272D01*
X298067Y92492D01*
X298222Y91711D01*
X298664Y91050D01*
X299326Y90608D01*
X300106Y90453D01*
X300887Y90608D01*
X301417Y90962D01*
X318106D01*
X318691Y91079D01*
X319188Y91410D01*
X323740Y95962D01*
X347106D01*
X347691Y96079D01*
X348188Y96410D01*
X350248Y98471D01*
X353672D01*
X353966Y97500D01*
X354569Y96371D01*
X355382Y95382D01*
X355542Y95250D01*
Y94750D01*
X355382Y94618D01*
X354569Y93629D01*
X353966Y92500D01*
X353672Y91529D01*
X350615D01*
X350029Y91413D01*
X349533Y91081D01*
X342473Y84021D01*
X301438D01*
X300895Y84384D01*
X300114Y84539D01*
X299334Y84384D01*
X298673Y83942D01*
X298231Y83280D01*
X298075Y82500D01*
X298231Y81720D01*
X298673Y81058D01*
X299334Y80616D01*
X300114Y80461D01*
X300895Y80616D01*
X301413Y80962D01*
X343106D01*
X343691Y81079D01*
X344188Y81410D01*
X351248Y88471D01*
X353672D01*
X353966Y87501D01*
X354569Y86371D01*
X355382Y85382D01*
X355542Y85250D01*
Y84750D01*
X355382Y84618D01*
X354569Y83629D01*
X353966Y82499D01*
X353672Y81529D01*
X353614D01*
X353126Y81432D01*
X353029Y81413D01*
X352533Y81081D01*
X350481Y79029D01*
X342409D01*
X341878Y79384D01*
X341098Y79539D01*
X340318Y79384D01*
X339656Y78942D01*
X339214Y78280D01*
X339059Y77500D01*
X339214Y76720D01*
X339656Y76058D01*
X340318Y75616D01*
X341098Y75461D01*
X341878Y75616D01*
X342409Y75971D01*
X351115D01*
X351700Y76087D01*
X352196Y76419D01*
X353462Y77684D01*
X353947Y77563D01*
X353966Y77500D01*
X354569Y76371D01*
X355382Y75382D01*
X355542Y75250D01*
Y74750D01*
X355382Y74618D01*
X354569Y73629D01*
X353966Y72500D01*
X353672Y71529D01*
X345615D01*
X345029Y71413D01*
X344533Y71081D01*
X339473Y66021D01*
X323417D01*
X322887Y66376D01*
X322106Y66531D01*
X321326Y66376D01*
X320664Y65934D01*
X320222Y65272D01*
X320067Y64492D01*
X320222Y63711D01*
X320664Y63050D01*
X321326Y62608D01*
X322106Y62453D01*
X322887Y62608D01*
X323417Y62962D01*
X340106D01*
X340691Y63079D01*
X341188Y63410D01*
X346248Y68471D01*
X353672D01*
X353966Y67501D01*
X354569Y66371D01*
X355382Y65382D01*
X355542Y65250D01*
Y64750D01*
X355382Y64618D01*
X354569Y63629D01*
X353966Y62499D01*
X353594Y61274D01*
X353469Y60000D01*
X353594Y58726D01*
X353966Y57500D01*
X354569Y56371D01*
X355382Y55382D01*
X356371Y54569D01*
X357501Y53966D01*
X358726Y53594D01*
X360000Y53469D01*
X361274Y53594D01*
X362499Y53966D01*
X363629Y54569D01*
X364618Y55382D01*
X365431Y56371D01*
X366034Y57500D01*
X366406Y58726D01*
X366531Y60000D01*
X366406Y61274D01*
X366034Y62499D01*
X365431Y63629D01*
X364618Y64618D01*
X364458Y64750D01*
Y65250D01*
X364618Y65382D01*
X365431Y66371D01*
X366034Y67501D01*
X366406Y68726D01*
X366531Y70000D01*
X366406Y71274D01*
X366034Y72500D01*
X365431Y73629D01*
X364618Y74618D01*
X364458Y74750D01*
Y75250D01*
X364618Y75382D01*
X365431Y76371D01*
X366034Y77500D01*
X366406Y78726D01*
X366531Y80000D01*
X366406Y81274D01*
X366034Y82499D01*
X365431Y83629D01*
X364618Y84618D01*
X364458Y84750D01*
Y85250D01*
X364618Y85382D01*
X365431Y86371D01*
X366034Y87501D01*
X366406Y88726D01*
X366531Y90000D01*
X366406Y91274D01*
X366034Y92500D01*
X365431Y93629D01*
X364618Y94618D01*
X364458Y94750D01*
Y95250D01*
X364618Y95382D01*
X365431Y96371D01*
X366034Y97500D01*
X366406Y98726D01*
X366531Y100000D01*
X366406Y101274D01*
X366034Y102499D01*
X365431Y103629D01*
X364618Y104618D01*
X364458Y104750D01*
Y105250D01*
X364618Y105382D01*
X365431Y106371D01*
X366034Y107501D01*
X366406Y108726D01*
X366531Y110000D01*
X366406Y111274D01*
X366034Y112499D01*
X365431Y113629D01*
X364618Y114618D01*
X363629Y115431D01*
X362499Y116034D01*
X361274Y116406D01*
X360000Y116531D01*
D02*
G37*
G36*
X120000Y279510D02*
X118731Y279343D01*
X117548Y278854D01*
X116532Y278074D01*
X115753Y277058D01*
X115263Y275876D01*
X115096Y274606D01*
X115263Y273337D01*
X115753Y272154D01*
X116532Y271139D01*
X117548Y270359D01*
X118731Y269869D01*
X120000Y269702D01*
X121269Y269869D01*
X122452Y270359D01*
X123468Y271139D01*
X124247Y272154D01*
X124737Y273337D01*
X124904Y274606D01*
X124737Y275876D01*
X124247Y277058D01*
X123468Y278074D01*
X122452Y278854D01*
X121269Y279343D01*
X120000Y279510D01*
D02*
G37*
G36*
X60000Y425540D02*
X57569Y425349D01*
X55198Y424779D01*
X52945Y423846D01*
X50866Y422572D01*
X49011Y420989D01*
X47428Y419134D01*
X46154Y417055D01*
X45221Y414802D01*
X44651Y412431D01*
X44460Y410000D01*
X44651Y407569D01*
X45221Y405198D01*
X46154Y402945D01*
X47428Y400866D01*
X49011Y399011D01*
X50866Y397428D01*
X52945Y396154D01*
X55198Y395221D01*
X57569Y394651D01*
X60000Y394460D01*
X62431Y394651D01*
X64802Y395221D01*
X67055Y396154D01*
X69134Y397428D01*
X70989Y399011D01*
X72572Y400866D01*
X73846Y402945D01*
X74779Y405198D01*
X75349Y407569D01*
X75540Y410000D01*
X75349Y412431D01*
X74779Y414802D01*
X73846Y417055D01*
X72572Y419134D01*
X70989Y420989D01*
X69134Y422572D01*
X67055Y423846D01*
X64802Y424779D01*
X62431Y425349D01*
X60000Y425540D01*
D02*
G37*
G36*
X75000Y395039D02*
X74220Y394884D01*
X73558Y394442D01*
X73116Y393780D01*
X72961Y393000D01*
X73116Y392220D01*
X73471Y391689D01*
Y379311D01*
X73116Y378780D01*
X72961Y378000D01*
X73116Y377220D01*
X73558Y376558D01*
X74220Y376116D01*
X75000Y375961D01*
X75780Y376116D01*
X76442Y376558D01*
X76884Y377220D01*
X77039Y378000D01*
X76884Y378780D01*
X76529Y379311D01*
Y391689D01*
X76884Y392220D01*
X77039Y393000D01*
X76884Y393780D01*
X76442Y394442D01*
X75780Y394884D01*
X75000Y395039D01*
D02*
G37*
G36*
X190000Y376531D02*
X188726Y376406D01*
X187501Y376034D01*
X186371Y375431D01*
X185382Y374618D01*
X184569Y373629D01*
X183966Y372499D01*
X183594Y371274D01*
X183469Y370000D01*
X183594Y368726D01*
X183966Y367500D01*
X184569Y366371D01*
X185382Y365382D01*
X186371Y364569D01*
X187501Y363966D01*
X188726Y363594D01*
X190000Y363469D01*
X191274Y363594D01*
X192499Y363966D01*
X193629Y364569D01*
X194618Y365382D01*
X195431Y366371D01*
X196034Y367500D01*
X196406Y368726D01*
X196531Y370000D01*
X196406Y371274D01*
X196034Y372499D01*
X195431Y373629D01*
X194618Y374618D01*
X193629Y375431D01*
X192499Y376034D01*
X191274Y376406D01*
X190000Y376531D01*
D02*
G37*
G36*
X390000Y426532D02*
X388726Y426406D01*
X387501Y426034D01*
X386371Y425431D01*
X385382Y424618D01*
X385250Y424458D01*
X384750D01*
X384618Y424618D01*
X383629Y425431D01*
X382500Y426034D01*
X381274Y426406D01*
X380000Y426532D01*
X378726Y426406D01*
X377501Y426034D01*
X376371Y425431D01*
X375382Y424618D01*
X375250Y424458D01*
X374750D01*
X374618Y424618D01*
X373629Y425431D01*
X372499Y426034D01*
X371274Y426406D01*
X370000Y426532D01*
X368726Y426406D01*
X367500Y426034D01*
X366371Y425431D01*
X365382Y424618D01*
X365250Y424458D01*
X364750D01*
X364618Y424618D01*
X363629Y425431D01*
X362499Y426034D01*
X361274Y426406D01*
X360000Y426532D01*
X358726Y426406D01*
X357501Y426034D01*
X356371Y425431D01*
X355382Y424618D01*
X355250Y424458D01*
X354750D01*
X354618Y424618D01*
X353629Y425431D01*
X352500Y426034D01*
X351274Y426406D01*
X350000Y426532D01*
X348726Y426406D01*
X347500Y426034D01*
X346371Y425431D01*
X345382Y424618D01*
X345250Y424458D01*
X344750D01*
X344618Y424618D01*
X343629Y425431D01*
X342499Y426034D01*
X341274Y426406D01*
X340000Y426532D01*
X338726Y426406D01*
X337501Y426034D01*
X336371Y425431D01*
X335382Y424618D01*
X335250Y424458D01*
X334750D01*
X334618Y424618D01*
X333629Y425431D01*
X332500Y426034D01*
X331274Y426406D01*
X330000Y426532D01*
X328726Y426406D01*
X327501Y426034D01*
X326371Y425431D01*
X325382Y424618D01*
X325250Y424458D01*
X324750D01*
X324618Y424618D01*
X323629Y425431D01*
X322499Y426034D01*
X321274Y426406D01*
X320000Y426532D01*
X318726Y426406D01*
X317500Y426034D01*
X316371Y425431D01*
X315382Y424618D01*
X314569Y423629D01*
X313966Y422500D01*
X313594Y421274D01*
X313469Y420000D01*
X313534Y419336D01*
X313054Y419109D01*
X310081Y422081D01*
X309585Y422413D01*
X309000Y422529D01*
X221000D01*
X220415Y422413D01*
X219919Y422081D01*
X212680Y414843D01*
X211436Y415358D01*
X210000Y415548D01*
X208564Y415358D01*
X207226Y414804D01*
X206077Y413923D01*
X205196Y412774D01*
X204642Y411436D01*
X204452Y410000D01*
X204642Y408564D01*
X205196Y407226D01*
X206077Y406077D01*
X206213Y405973D01*
X206052Y405500D01*
X204500D01*
Y394500D01*
X215500D01*
Y405500D01*
X213948D01*
X213787Y405973D01*
X213923Y406077D01*
X214707Y407100D01*
X214873Y407142D01*
X215127D01*
X215293Y407100D01*
X216077Y406077D01*
X217226Y405196D01*
X218564Y404642D01*
X220000Y404453D01*
X221436Y404642D01*
X222774Y405196D01*
X223923Y406077D01*
X224707Y407100D01*
X224873Y407142D01*
X225127D01*
X225293Y407100D01*
X226077Y406077D01*
X227226Y405196D01*
X228564Y404642D01*
X230000Y404453D01*
X231436Y404642D01*
X232680Y405157D01*
X233471Y404366D01*
Y394000D01*
X233587Y393415D01*
X233919Y392919D01*
X240919Y385919D01*
X241415Y385587D01*
X241512Y385568D01*
X242000Y385471D01*
X261689D01*
X262220Y385116D01*
X263000Y384961D01*
X263780Y385116D01*
X264442Y385558D01*
X264884Y386220D01*
X265039Y387000D01*
X264884Y387780D01*
X264442Y388442D01*
X263780Y388884D01*
X263000Y389039D01*
X262220Y388884D01*
X261689Y388529D01*
X242634D01*
X236529Y394634D01*
Y395165D01*
X236978Y395386D01*
X237226Y395196D01*
X238564Y394642D01*
X240000Y394453D01*
X241436Y394642D01*
X242774Y395196D01*
X243923Y396077D01*
X244804Y397226D01*
X245358Y398564D01*
X245548Y400000D01*
X245358Y401436D01*
X244804Y402774D01*
X244600Y403041D01*
X244882Y403494D01*
X245000Y403471D01*
X252366D01*
X276919Y378919D01*
X277415Y378587D01*
X278000Y378471D01*
X319366D01*
X320891Y376946D01*
X320664Y376466D01*
X320000Y376531D01*
X318726Y376406D01*
X317500Y376034D01*
X316371Y375431D01*
X315382Y374618D01*
X315250Y374458D01*
X314750D01*
X314618Y374618D01*
X313629Y375431D01*
X312499Y376034D01*
X311274Y376406D01*
X310000Y376531D01*
X308726Y376406D01*
X307501Y376034D01*
X306371Y375431D01*
X305382Y374618D01*
X305250Y374458D01*
X304750D01*
X304618Y374618D01*
X303629Y375431D01*
X302500Y376034D01*
X301274Y376406D01*
X300000Y376531D01*
X298726Y376406D01*
X297500Y376034D01*
X296371Y375431D01*
X295382Y374618D01*
X295250Y374458D01*
X294750D01*
X294618Y374618D01*
X293629Y375431D01*
X292499Y376034D01*
X291274Y376406D01*
X290000Y376531D01*
X288726Y376406D01*
X287501Y376034D01*
X286371Y375431D01*
X285382Y374618D01*
X285250Y374458D01*
X284750D01*
X284618Y374619D01*
X283629Y375431D01*
X282500Y376034D01*
X281274Y376406D01*
X280000Y376532D01*
X278726Y376406D01*
X277501Y376034D01*
X276371Y375431D01*
X275382Y374619D01*
X275250Y374458D01*
X274750D01*
X274619Y374618D01*
X273629Y375431D01*
X272500Y376034D01*
X271274Y376406D01*
X270000Y376531D01*
X268726Y376406D01*
X267501Y376034D01*
X266371Y375431D01*
X265382Y374618D01*
X265250Y374458D01*
X264750D01*
X264618Y374619D01*
X263629Y375431D01*
X262499Y376034D01*
X261274Y376406D01*
X260000Y376532D01*
X258726Y376406D01*
X257501Y376034D01*
X256371Y375431D01*
X255382Y374619D01*
X255250Y374458D01*
X254750D01*
X254618Y374618D01*
X253629Y375431D01*
X252500Y376034D01*
X251274Y376406D01*
X250000Y376531D01*
X248726Y376406D01*
X247500Y376034D01*
X246371Y375431D01*
X245382Y374618D01*
X245250Y374458D01*
X244750D01*
X244618Y374619D01*
X243629Y375431D01*
X242499Y376034D01*
X241274Y376406D01*
X240000Y376532D01*
X238726Y376406D01*
X237501Y376034D01*
X236371Y375431D01*
X235382Y374619D01*
X235250Y374458D01*
X234750D01*
X234618Y374618D01*
X233629Y375431D01*
X232500Y376034D01*
X231274Y376406D01*
X230000Y376531D01*
X228726Y376406D01*
X227501Y376034D01*
X226371Y375431D01*
X225382Y374618D01*
X225250Y374458D01*
X224750D01*
X224618Y374619D01*
X223629Y375431D01*
X222499Y376034D01*
X221274Y376406D01*
X220000Y376532D01*
X218726Y376406D01*
X217500Y376034D01*
X216371Y375431D01*
X215382Y374619D01*
X215250Y374458D01*
X214750D01*
X214618Y374618D01*
X213629Y375431D01*
X212499Y376034D01*
X211274Y376406D01*
X210000Y376531D01*
X208726Y376406D01*
X207501Y376034D01*
X206371Y375431D01*
X205382Y374618D01*
X204569Y373629D01*
X203966Y372499D01*
X203594Y371274D01*
X203469Y370000D01*
X203594Y368726D01*
X203966Y367500D01*
X204569Y366371D01*
X205382Y365382D01*
X206371Y364569D01*
X207501Y363966D01*
X208726Y363594D01*
X210000Y363468D01*
X211274Y363594D01*
X212499Y363966D01*
X213629Y364569D01*
X214618Y365382D01*
X214750Y365542D01*
X215250D01*
X215382Y365382D01*
X216371Y364569D01*
X217500Y363966D01*
X218726Y363594D01*
X220000Y363469D01*
X221274Y363594D01*
X222499Y363966D01*
X223629Y364569D01*
X224618Y365382D01*
X224750Y365542D01*
X225250D01*
X225382Y365382D01*
X226371Y364569D01*
X227501Y363966D01*
X228726Y363594D01*
X230000Y363469D01*
X231274Y363594D01*
X232500Y363966D01*
X233629Y364569D01*
X234618Y365382D01*
X234750Y365542D01*
X235250D01*
X235382Y365382D01*
X236371Y364569D01*
X237501Y363966D01*
X238726Y363594D01*
X240000Y363469D01*
X241274Y363594D01*
X242499Y363966D01*
X243629Y364569D01*
X244618Y365382D01*
X244750Y365542D01*
X245250D01*
X245382Y365382D01*
X246371Y364569D01*
X247500Y363966D01*
X248726Y363594D01*
X250000Y363468D01*
X251274Y363594D01*
X252500Y363966D01*
X253629Y364569D01*
X254618Y365382D01*
X254750Y365542D01*
X255250D01*
X255382Y365382D01*
X256371Y364569D01*
X257501Y363966D01*
X258726Y363594D01*
X260000Y363469D01*
X261274Y363594D01*
X262499Y363966D01*
X263629Y364569D01*
X264618Y365382D01*
X264750Y365542D01*
X265250D01*
X265382Y365382D01*
X266371Y364569D01*
X267501Y363966D01*
X268726Y363594D01*
X270000Y363469D01*
X271274Y363594D01*
X272500Y363966D01*
X273629Y364569D01*
X274619Y365382D01*
X274750Y365542D01*
X275250D01*
X275382Y365382D01*
X276371Y364569D01*
X277501Y363966D01*
X278726Y363594D01*
X280000Y363469D01*
X281274Y363594D01*
X282500Y363966D01*
X283629Y364569D01*
X284618Y365382D01*
X284750Y365542D01*
X285250D01*
X285382Y365382D01*
X286371Y364569D01*
X287501Y363966D01*
X288726Y363594D01*
X290000Y363469D01*
X291274Y363594D01*
X292499Y363966D01*
X293629Y364569D01*
X294618Y365382D01*
X294750Y365542D01*
X295250D01*
X295382Y365382D01*
X296371Y364569D01*
X297500Y363966D01*
X298726Y363594D01*
X300000Y363469D01*
X301274Y363594D01*
X302500Y363966D01*
X303629Y364569D01*
X304618Y365382D01*
X304750Y365542D01*
X305250D01*
X305382Y365382D01*
X306371Y364569D01*
X307501Y363966D01*
X308726Y363594D01*
X310000Y363469D01*
X311274Y363594D01*
X312499Y363966D01*
X313629Y364569D01*
X314618Y365382D01*
X314750Y365542D01*
X315250D01*
X315382Y365382D01*
X316371Y364569D01*
X317500Y363966D01*
X318726Y363594D01*
X320000Y363469D01*
X321274Y363594D01*
X322499Y363966D01*
X323629Y364569D01*
X324618Y365382D01*
X324750Y365542D01*
X325250D01*
X325382Y365382D01*
X326371Y364569D01*
X327501Y363966D01*
X328726Y363594D01*
X330000Y363468D01*
X331274Y363594D01*
X332500Y363966D01*
X333629Y364569D01*
X334618Y365382D01*
X334750Y365542D01*
X335250D01*
X335382Y365382D01*
X336371Y364569D01*
X337501Y363966D01*
X338726Y363594D01*
X340000Y363468D01*
X341274Y363594D01*
X342499Y363966D01*
X343629Y364569D01*
X344618Y365382D01*
X345431Y366371D01*
X346034Y367500D01*
X346406Y368726D01*
X346531Y370000D01*
X346406Y371274D01*
X346034Y372499D01*
X345431Y373629D01*
X344618Y374618D01*
X343629Y375431D01*
X342499Y376034D01*
X341274Y376406D01*
X340000Y376531D01*
X338726Y376406D01*
X337501Y376034D01*
X336607Y375556D01*
X328081Y384081D01*
X327585Y384413D01*
X327000Y384529D01*
X291634D01*
X257192Y418971D01*
X257329Y419408D01*
X257377Y419471D01*
X308366D01*
X375471Y352366D01*
Y344368D01*
X374971Y344189D01*
X374618Y344618D01*
X373629Y345431D01*
X372499Y346034D01*
X371274Y346406D01*
X370000Y346531D01*
X368726Y346406D01*
X367500Y346034D01*
X366371Y345431D01*
X365382Y344618D01*
X364569Y343629D01*
X363966Y342499D01*
X363594Y341274D01*
X363469Y340000D01*
X363594Y338726D01*
X363966Y337501D01*
X364569Y336371D01*
X365382Y335382D01*
X366371Y334569D01*
X367500Y333966D01*
X368726Y333594D01*
X370000Y333469D01*
X371274Y333594D01*
X372499Y333966D01*
X373629Y334569D01*
X374618Y335382D01*
X374971Y335811D01*
X375471Y335632D01*
Y327634D01*
X373393Y325556D01*
X372499Y326034D01*
X371274Y326406D01*
X370000Y326531D01*
X368726Y326406D01*
X367500Y326034D01*
X366371Y325431D01*
X365382Y324618D01*
X364569Y323629D01*
X363966Y322499D01*
X363594Y321274D01*
X363468Y320000D01*
X363594Y318726D01*
X363966Y317500D01*
X364569Y316371D01*
X365382Y315382D01*
X365542Y315250D01*
Y314750D01*
X365382Y314618D01*
X364569Y313629D01*
X363966Y312499D01*
X363594Y311274D01*
X363469Y310000D01*
X363594Y308726D01*
X363966Y307501D01*
X364569Y306371D01*
X365382Y305382D01*
X365542Y305250D01*
Y304750D01*
X365382Y304618D01*
X364569Y303629D01*
X363966Y302500D01*
X363594Y301274D01*
X363469Y300000D01*
X363594Y298726D01*
X363966Y297500D01*
X364569Y296371D01*
X365382Y295382D01*
X365542Y295250D01*
Y294750D01*
X365382Y294618D01*
X364569Y293629D01*
X363966Y292499D01*
X363594Y291274D01*
X363468Y290000D01*
X363594Y288726D01*
X363966Y287501D01*
X364569Y286371D01*
X365382Y285382D01*
X365542Y285250D01*
Y284750D01*
X365382Y284618D01*
X364569Y283629D01*
X363966Y282500D01*
X363594Y281274D01*
X363469Y280000D01*
X363594Y278726D01*
X363966Y277501D01*
X364569Y276371D01*
X365382Y275382D01*
X365542Y275250D01*
Y274750D01*
X365382Y274618D01*
X364569Y273629D01*
X363966Y272499D01*
X363594Y271274D01*
X363469Y270000D01*
X363594Y268726D01*
X363966Y267500D01*
X364569Y266371D01*
X365382Y265382D01*
X365542Y265250D01*
Y264750D01*
X365382Y264618D01*
X364569Y263629D01*
X363966Y262499D01*
X363594Y261274D01*
X363469Y260000D01*
X363594Y258726D01*
X363966Y257501D01*
X364569Y256371D01*
X365382Y255382D01*
X365542Y255250D01*
Y254750D01*
X365382Y254618D01*
X364569Y253629D01*
X363966Y252500D01*
X363594Y251274D01*
X363469Y250000D01*
X363594Y248726D01*
X363966Y247500D01*
X364569Y246371D01*
X365382Y245382D01*
X365542Y245250D01*
Y244750D01*
X365382Y244618D01*
X364569Y243629D01*
X363966Y242499D01*
X363594Y241274D01*
X363469Y240000D01*
X363594Y238726D01*
X363966Y237501D01*
X364569Y236371D01*
X365382Y235382D01*
X365542Y235250D01*
Y234750D01*
X365382Y234618D01*
X364569Y233629D01*
X363966Y232500D01*
X363594Y231274D01*
X363469Y230000D01*
X363594Y228726D01*
X363966Y227501D01*
X364569Y226371D01*
X365382Y225382D01*
X365542Y225250D01*
Y224750D01*
X365382Y224618D01*
X364569Y223629D01*
X363966Y222499D01*
X363594Y221274D01*
X363469Y220000D01*
X363594Y218726D01*
X363966Y217500D01*
X364569Y216371D01*
X365382Y215382D01*
X365542Y215250D01*
Y214750D01*
X365382Y214618D01*
X364569Y213629D01*
X363966Y212499D01*
X363594Y211274D01*
X363469Y210000D01*
X363594Y208726D01*
X363966Y207501D01*
X364569Y206371D01*
X365382Y205382D01*
X365542Y205250D01*
Y204750D01*
X365382Y204618D01*
X364569Y203629D01*
X363966Y202500D01*
X363594Y201274D01*
X363469Y200000D01*
X363594Y198726D01*
X363966Y197501D01*
X364569Y196371D01*
X365382Y195382D01*
X365542Y195250D01*
Y194750D01*
X365382Y194618D01*
X364569Y193629D01*
X363966Y192499D01*
X363594Y191274D01*
X363468Y190000D01*
X363594Y188726D01*
X363966Y187501D01*
X364569Y186371D01*
X365382Y185382D01*
X365542Y185250D01*
Y184750D01*
X365382Y184618D01*
X365250Y184458D01*
X364750D01*
X364618Y184618D01*
X363629Y185431D01*
X362499Y186034D01*
X361274Y186406D01*
X360000Y186531D01*
X358726Y186406D01*
X357501Y186034D01*
X356371Y185431D01*
X355382Y184618D01*
X355250Y184458D01*
X354750D01*
X354618Y184618D01*
X353629Y185431D01*
X352500Y186034D01*
X351274Y186406D01*
X350000Y186531D01*
X348726Y186406D01*
X347500Y186034D01*
X346371Y185431D01*
X345382Y184618D01*
X344569Y183629D01*
X343966Y182500D01*
X343594Y181274D01*
X343469Y180000D01*
X343594Y178726D01*
X343966Y177500D01*
X344569Y176371D01*
X345382Y175382D01*
X345542Y175250D01*
Y174750D01*
X345382Y174618D01*
X344569Y173629D01*
X343966Y172500D01*
X343594Y171274D01*
X343469Y170000D01*
X343594Y168726D01*
X343966Y167500D01*
X344569Y166371D01*
X345382Y165382D01*
X345471Y165308D01*
X345488Y164784D01*
X345216Y164512D01*
X344692Y164529D01*
X344618Y164618D01*
X343629Y165431D01*
X342499Y166034D01*
X341274Y166406D01*
X340000Y166531D01*
X338726Y166406D01*
X337501Y166034D01*
X336371Y165431D01*
X335382Y164618D01*
X334569Y163629D01*
X333966Y162499D01*
X333594Y161274D01*
X333469Y160000D01*
X333594Y158726D01*
X333966Y157501D01*
X334569Y156371D01*
X335382Y155382D01*
X336371Y154569D01*
X337451Y153992D01*
Y146008D01*
X336371Y145431D01*
X335382Y144618D01*
X335250Y144458D01*
X334750D01*
X334618Y144618D01*
X333629Y145431D01*
X332500Y146034D01*
X331274Y146406D01*
X330000Y146531D01*
X328726Y146406D01*
X327501Y146034D01*
X326371Y145431D01*
X325382Y144618D01*
X325250Y144458D01*
X324750D01*
X324618Y144618D01*
X323629Y145431D01*
X322499Y146034D01*
X321274Y146406D01*
X320000Y146531D01*
X318726Y146406D01*
X317500Y146034D01*
X316371Y145431D01*
X315382Y144618D01*
X314569Y143629D01*
X313966Y142499D01*
X313671Y141529D01*
X306000D01*
X305415Y141413D01*
X304919Y141081D01*
X302919Y139081D01*
X302587Y138585D01*
X302471Y138000D01*
Y136311D01*
X302116Y135780D01*
X301961Y135000D01*
X302116Y134220D01*
X302558Y133558D01*
X303220Y133116D01*
X304000Y132961D01*
X304780Y133116D01*
X305442Y133558D01*
X305884Y134220D01*
X306039Y135000D01*
X305884Y135780D01*
X305529Y136311D01*
Y137366D01*
X306633Y138471D01*
X313671D01*
X313966Y137501D01*
X314569Y136371D01*
X315382Y135382D01*
X316371Y134569D01*
X317500Y133966D01*
X318726Y133594D01*
X320000Y133469D01*
X321274Y133594D01*
X322499Y133966D01*
X323629Y134569D01*
X324618Y135382D01*
X324750Y135542D01*
X325250D01*
X325382Y135382D01*
X326371Y134569D01*
X327501Y133966D01*
X328726Y133594D01*
X330000Y133469D01*
X331274Y133594D01*
X332500Y133966D01*
X333629Y134569D01*
X334618Y135382D01*
X334750Y135542D01*
X335250D01*
X335382Y135382D01*
X336371Y134569D01*
X337501Y133966D01*
X338726Y133594D01*
X340000Y133469D01*
X341274Y133594D01*
X342499Y133966D01*
X343629Y134569D01*
X344618Y135382D01*
X344750Y135542D01*
X345250D01*
X345382Y135382D01*
X346371Y134569D01*
X347500Y133966D01*
X348726Y133594D01*
X350000Y133469D01*
X351274Y133594D01*
X352500Y133966D01*
X353629Y134569D01*
X354618Y135382D01*
X354750Y135542D01*
X355250D01*
X355382Y135382D01*
X356371Y134569D01*
X357501Y133966D01*
X358726Y133594D01*
X360000Y133469D01*
X361274Y133594D01*
X362499Y133966D01*
X363629Y134569D01*
X364618Y135382D01*
X364750Y135542D01*
X365250D01*
X365382Y135382D01*
X366371Y134569D01*
X367500Y133966D01*
X368726Y133594D01*
X370000Y133469D01*
X371274Y133594D01*
X372499Y133966D01*
X373629Y134569D01*
X374618Y135382D01*
X374750Y135542D01*
X375250D01*
X375382Y135382D01*
X376371Y134569D01*
X377501Y133966D01*
X378726Y133594D01*
X380000Y133469D01*
X381274Y133594D01*
X382500Y133966D01*
X383629Y134569D01*
X384618Y135382D01*
X384750Y135542D01*
X385250D01*
X385382Y135382D01*
X386371Y134569D01*
X387501Y133966D01*
X388726Y133594D01*
X390000Y133469D01*
X391274Y133594D01*
X392499Y133966D01*
X393629Y134569D01*
X394618Y135382D01*
X394750Y135542D01*
X395250D01*
X395382Y135382D01*
X396371Y134569D01*
X397500Y133966D01*
X398726Y133594D01*
X400000Y133469D01*
X401274Y133594D01*
X402499Y133966D01*
X403629Y134569D01*
X404618Y135382D01*
X404750Y135542D01*
X405250D01*
X405382Y135382D01*
X406371Y134569D01*
X407501Y133966D01*
X408726Y133594D01*
X410000Y133469D01*
X411274Y133594D01*
X412500Y133966D01*
X413629Y134569D01*
X414618Y135382D01*
X414750Y135542D01*
X415250D01*
X415382Y135382D01*
X416371Y134569D01*
X417500Y133966D01*
X418726Y133594D01*
X420000Y133469D01*
X421274Y133594D01*
X422500Y133966D01*
X423629Y134569D01*
X424618Y135382D01*
X425431Y136371D01*
X426034Y137501D01*
X426406Y138726D01*
X426532Y140000D01*
X426406Y141274D01*
X426034Y142499D01*
X425431Y143629D01*
X424618Y144618D01*
X424458Y144750D01*
Y145250D01*
X424618Y145382D01*
X425431Y146371D01*
X426034Y147501D01*
X426406Y148726D01*
X426532Y150000D01*
X426406Y151274D01*
X426034Y152499D01*
X425431Y153629D01*
X424618Y154618D01*
X424458Y154750D01*
Y155250D01*
X424618Y155382D01*
X425431Y156371D01*
X426034Y157501D01*
X426406Y158726D01*
X426532Y160000D01*
X426406Y161274D01*
X426034Y162499D01*
X425431Y163629D01*
X424618Y164618D01*
X424458Y164750D01*
Y165250D01*
X424618Y165382D01*
X425431Y166371D01*
X426034Y167500D01*
X426406Y168726D01*
X426532Y170000D01*
X426406Y171274D01*
X426034Y172500D01*
X425431Y173629D01*
X424618Y174618D01*
X424458Y174750D01*
Y175250D01*
X424618Y175382D01*
X425431Y176371D01*
X426034Y177500D01*
X426406Y178726D01*
X426532Y180000D01*
X426406Y181274D01*
X426034Y182500D01*
X425431Y183629D01*
X424618Y184618D01*
X424458Y184750D01*
Y185250D01*
X424618Y185382D01*
X425431Y186371D01*
X426034Y187501D01*
X426406Y188726D01*
X426532Y190000D01*
X426406Y191274D01*
X426034Y192499D01*
X425431Y193629D01*
X424618Y194618D01*
X424458Y194750D01*
Y195250D01*
X424618Y195382D01*
X425431Y196371D01*
X426034Y197501D01*
X426406Y198726D01*
X426532Y200000D01*
X426406Y201274D01*
X426034Y202500D01*
X425431Y203629D01*
X424618Y204618D01*
X424458Y204750D01*
Y205250D01*
X424618Y205382D01*
X425431Y206371D01*
X426034Y207501D01*
X426406Y208726D01*
X426532Y210000D01*
X426406Y211274D01*
X426034Y212499D01*
X425431Y213629D01*
X424618Y214618D01*
X424458Y214750D01*
Y215250D01*
X424618Y215382D01*
X425431Y216371D01*
X426034Y217500D01*
X426406Y218726D01*
X426532Y220000D01*
X426406Y221274D01*
X426034Y222499D01*
X425431Y223629D01*
X424618Y224618D01*
X424458Y224750D01*
Y225250D01*
X424618Y225382D01*
X425431Y226371D01*
X426034Y227501D01*
X426406Y228726D01*
X426532Y230000D01*
X426406Y231274D01*
X426034Y232500D01*
X425431Y233629D01*
X424618Y234618D01*
X424458Y234750D01*
Y235250D01*
X424618Y235382D01*
X425431Y236371D01*
X426034Y237501D01*
X426406Y238726D01*
X426532Y240000D01*
X426406Y241274D01*
X426034Y242499D01*
X425431Y243629D01*
X424618Y244618D01*
X424458Y244750D01*
Y245250D01*
X424618Y245382D01*
X425431Y246371D01*
X426034Y247500D01*
X426406Y248726D01*
X426532Y250000D01*
X426406Y251274D01*
X426034Y252500D01*
X425431Y253629D01*
X424618Y254618D01*
X424458Y254750D01*
Y255250D01*
X424618Y255382D01*
X425431Y256371D01*
X426034Y257501D01*
X426406Y258726D01*
X426532Y260000D01*
X426406Y261274D01*
X426034Y262499D01*
X425431Y263629D01*
X424618Y264618D01*
X424458Y264750D01*
Y265250D01*
X424618Y265382D01*
X425431Y266371D01*
X426034Y267500D01*
X426406Y268726D01*
X426532Y270000D01*
X426406Y271274D01*
X426034Y272499D01*
X425431Y273629D01*
X424618Y274618D01*
X424458Y274750D01*
Y275250D01*
X424618Y275382D01*
X425431Y276371D01*
X426034Y277501D01*
X426406Y278726D01*
X426532Y280000D01*
X426406Y281274D01*
X426034Y282500D01*
X425431Y283629D01*
X424618Y284618D01*
X424458Y284750D01*
Y285250D01*
X424618Y285382D01*
X425431Y286371D01*
X426034Y287501D01*
X426406Y288726D01*
X426532Y290000D01*
X426406Y291274D01*
X426034Y292499D01*
X425431Y293629D01*
X424618Y294618D01*
X424458Y294750D01*
Y295250D01*
X424618Y295382D01*
X425431Y296371D01*
X426034Y297500D01*
X426406Y298726D01*
X426532Y300000D01*
X426406Y301274D01*
X426034Y302500D01*
X425431Y303629D01*
X424618Y304618D01*
X424458Y304750D01*
Y305250D01*
X424618Y305382D01*
X425431Y306371D01*
X426034Y307501D01*
X426406Y308726D01*
X426532Y310000D01*
X426406Y311274D01*
X426034Y312499D01*
X425431Y313629D01*
X424618Y314618D01*
X424458Y314750D01*
Y315250D01*
X424618Y315382D01*
X425431Y316371D01*
X426034Y317500D01*
X426406Y318726D01*
X426532Y320000D01*
X426406Y321274D01*
X426034Y322499D01*
X425431Y323629D01*
X424618Y324618D01*
X424458Y324750D01*
Y325250D01*
X424618Y325382D01*
X425431Y326371D01*
X426034Y327501D01*
X426406Y328726D01*
X426532Y330000D01*
X426406Y331274D01*
X426034Y332500D01*
X425431Y333629D01*
X424618Y334618D01*
X424458Y334750D01*
Y335250D01*
X424618Y335382D01*
X425431Y336371D01*
X426034Y337501D01*
X426406Y338726D01*
X426532Y340000D01*
X426406Y341274D01*
X426034Y342499D01*
X425431Y343629D01*
X424618Y344618D01*
X424458Y344750D01*
Y345250D01*
X424618Y345382D01*
X425431Y346371D01*
X426034Y347500D01*
X426406Y348726D01*
X426532Y350000D01*
X426406Y351274D01*
X426034Y352500D01*
X425431Y353629D01*
X424618Y354618D01*
X424458Y354750D01*
Y355250D01*
X424618Y355382D01*
X425431Y356371D01*
X426034Y357501D01*
X426406Y358726D01*
X426532Y360000D01*
X426406Y361274D01*
X426034Y362499D01*
X425431Y363629D01*
X424618Y364618D01*
X424458Y364750D01*
Y365250D01*
X424618Y365382D01*
X425431Y366371D01*
X426034Y367500D01*
X426406Y368726D01*
X426532Y370000D01*
X426406Y371274D01*
X426034Y372499D01*
X425431Y373629D01*
X424618Y374618D01*
X424458Y374750D01*
Y375250D01*
X424618Y375382D01*
X425431Y376371D01*
X426034Y377501D01*
X426406Y378726D01*
X426532Y380000D01*
X426406Y381274D01*
X426034Y382500D01*
X425431Y383629D01*
X424618Y384618D01*
X424458Y384750D01*
Y385250D01*
X424618Y385382D01*
X425431Y386371D01*
X426034Y387501D01*
X426406Y388726D01*
X426532Y390000D01*
X426406Y391274D01*
X426034Y392499D01*
X425431Y393629D01*
X424618Y394618D01*
X423629Y395431D01*
X422500Y396034D01*
X421274Y396406D01*
X420000Y396531D01*
X418726Y396406D01*
X418127Y396224D01*
X417921Y396684D01*
X419134Y397428D01*
X420989Y399011D01*
X422572Y400866D01*
X423846Y402945D01*
X424779Y405198D01*
X425349Y407569D01*
X425540Y410000D01*
X425349Y412431D01*
X424779Y414802D01*
X423846Y417055D01*
X422572Y419134D01*
X420989Y420989D01*
X419134Y422572D01*
X417055Y423846D01*
X414802Y424779D01*
X412431Y425349D01*
X410000Y425540D01*
X407569Y425349D01*
X405198Y424779D01*
X402945Y423846D01*
X400866Y422572D01*
X399011Y420989D01*
X397428Y419134D01*
X396684Y417921D01*
X396224Y418127D01*
X396406Y418726D01*
X396531Y420000D01*
X396406Y421274D01*
X396034Y422500D01*
X395431Y423629D01*
X394618Y424618D01*
X393629Y425431D01*
X392499Y426034D01*
X391274Y426406D01*
X390000Y426532D01*
D02*
G37*
G36*
X110000D02*
X108726Y426406D01*
X107501Y426034D01*
X106371Y425431D01*
X105382Y424618D01*
X104569Y423629D01*
X103966Y422500D01*
X103594Y421274D01*
X103469Y420000D01*
X103594Y418726D01*
X103966Y417500D01*
X104569Y416371D01*
X105382Y415382D01*
X106371Y414569D01*
X107501Y413966D01*
X108726Y413594D01*
X110000Y413469D01*
X111274Y413594D01*
X112499Y413966D01*
X113629Y414569D01*
X114618Y415382D01*
X115431Y416371D01*
X116034Y417500D01*
X116406Y418726D01*
X116531Y420000D01*
X116406Y421274D01*
X116034Y422500D01*
X115431Y423629D01*
X114618Y424618D01*
X113629Y425431D01*
X112499Y426034D01*
X111274Y426406D01*
X110000Y426532D01*
D02*
G37*
G36*
X90000D02*
X88726Y426406D01*
X87501Y426034D01*
X86371Y425431D01*
X85382Y424618D01*
X84569Y423629D01*
X83966Y422500D01*
X83594Y421274D01*
X83469Y420000D01*
X83594Y418726D01*
X83966Y417500D01*
X84569Y416371D01*
X85382Y415382D01*
X86371Y414569D01*
X87501Y413966D01*
X88726Y413594D01*
X90000Y413469D01*
X91274Y413594D01*
X92500Y413966D01*
X93629Y414569D01*
X94618Y415382D01*
X95431Y416371D01*
X96034Y417500D01*
X96406Y418726D01*
X96531Y420000D01*
X96406Y421274D01*
X96034Y422500D01*
X95431Y423629D01*
X94618Y424618D01*
X93629Y425431D01*
X92500Y426034D01*
X91274Y426406D01*
X90000Y426532D01*
D02*
G37*
G36*
X297809Y283654D02*
X290691D01*
Y281329D01*
X281311D01*
X280780Y281684D01*
X280000Y281839D01*
X279220Y281684D01*
X278558Y281242D01*
X278116Y280580D01*
X277961Y279800D01*
X278116Y279020D01*
X278558Y278358D01*
X279220Y277916D01*
X280000Y277761D01*
X280780Y277916D01*
X281311Y278271D01*
X290691D01*
Y275946D01*
X297809D01*
Y283654D01*
D02*
G37*
G36*
X180000Y352039D02*
X179220Y351884D01*
X178558Y351442D01*
X178116Y350780D01*
X177961Y350000D01*
X178116Y349220D01*
X178471Y348689D01*
Y290634D01*
X169367Y281529D01*
X166329D01*
X166034Y282500D01*
X165431Y283629D01*
X164618Y284618D01*
X164458Y284750D01*
Y285250D01*
X164618Y285382D01*
X165431Y286371D01*
X166034Y287501D01*
X166406Y288726D01*
X166531Y290000D01*
X166406Y291274D01*
X166034Y292499D01*
X165431Y293629D01*
X164618Y294618D01*
X164458Y294750D01*
Y295250D01*
X164618Y295382D01*
X165431Y296371D01*
X166034Y297500D01*
X166406Y298726D01*
X166531Y300000D01*
X166406Y301274D01*
X166034Y302500D01*
X165431Y303629D01*
X164618Y304618D01*
X164458Y304750D01*
Y305250D01*
X164618Y305382D01*
X165431Y306371D01*
X166034Y307501D01*
X166406Y308726D01*
X166531Y310000D01*
X166406Y311274D01*
X166034Y312499D01*
X165431Y313629D01*
X164618Y314618D01*
X164458Y314750D01*
Y315250D01*
X164618Y315382D01*
X165431Y316371D01*
X166034Y317500D01*
X166406Y318726D01*
X166531Y320000D01*
X166406Y321274D01*
X166034Y322499D01*
X165431Y323629D01*
X164618Y324618D01*
X164458Y324750D01*
Y325250D01*
X164618Y325382D01*
X165431Y326371D01*
X166034Y327501D01*
X166406Y328726D01*
X166531Y330000D01*
X166406Y331274D01*
X166034Y332500D01*
X165431Y333629D01*
X164618Y334618D01*
X164458Y334750D01*
Y335250D01*
X164618Y335382D01*
X165431Y336371D01*
X166034Y337501D01*
X166406Y338726D01*
X166531Y340000D01*
X166406Y341274D01*
X166034Y342499D01*
X165431Y343629D01*
X164618Y344618D01*
X163629Y345431D01*
X162499Y346034D01*
X161274Y346406D01*
X160000Y346531D01*
X158726Y346406D01*
X157501Y346034D01*
X156371Y345431D01*
X155382Y344618D01*
X154569Y343629D01*
X153966Y342499D01*
X153594Y341274D01*
X153469Y340000D01*
X153594Y338726D01*
X153966Y337501D01*
X154569Y336371D01*
X155382Y335382D01*
X155542Y335250D01*
Y334750D01*
X155382Y334618D01*
X154569Y333629D01*
X153966Y332500D01*
X153594Y331274D01*
X153469Y330000D01*
X153594Y328726D01*
X153966Y327501D01*
X154569Y326371D01*
X155382Y325382D01*
X155542Y325250D01*
Y324750D01*
X155382Y324618D01*
X154569Y323629D01*
X153966Y322499D01*
X153594Y321274D01*
X153469Y320000D01*
X153594Y318726D01*
X153966Y317500D01*
X154569Y316371D01*
X155382Y315382D01*
X155542Y315250D01*
Y314750D01*
X155382Y314618D01*
X154569Y313629D01*
X153966Y312499D01*
X153594Y311274D01*
X153469Y310000D01*
X153594Y308726D01*
X153966Y307501D01*
X154569Y306371D01*
X155382Y305382D01*
X155542Y305250D01*
Y304750D01*
X155382Y304618D01*
X154569Y303629D01*
X153966Y302500D01*
X153594Y301274D01*
X153469Y300000D01*
X153594Y298726D01*
X153966Y297500D01*
X154569Y296371D01*
X155382Y295382D01*
X155542Y295250D01*
Y294750D01*
X155382Y294618D01*
X154569Y293629D01*
X153966Y292499D01*
X153594Y291274D01*
X153469Y290000D01*
X153594Y288726D01*
X153966Y287501D01*
X154569Y286371D01*
X155382Y285382D01*
X155542Y285250D01*
Y284750D01*
X155382Y284618D01*
X154569Y283629D01*
X153966Y282500D01*
X153594Y281274D01*
X153469Y280000D01*
X153594Y278726D01*
X153966Y277501D01*
X154569Y276371D01*
X155382Y275382D01*
X155542Y275250D01*
Y274750D01*
X155382Y274618D01*
X154569Y273629D01*
X153966Y272499D01*
X153594Y271274D01*
X153469Y270000D01*
X153594Y268726D01*
X153966Y267500D01*
X154569Y266371D01*
X155382Y265382D01*
X155542Y265250D01*
Y264750D01*
X155382Y264618D01*
X154569Y263629D01*
X153966Y262499D01*
X153594Y261274D01*
X153469Y260000D01*
X153594Y258726D01*
X153966Y257501D01*
X154569Y256371D01*
X155382Y255382D01*
X155542Y255250D01*
Y254750D01*
X155382Y254618D01*
X154569Y253629D01*
X153966Y252500D01*
X153594Y251274D01*
X153469Y250000D01*
X153594Y248726D01*
X153966Y247500D01*
X154569Y246371D01*
X155382Y245382D01*
X155542Y245250D01*
Y244750D01*
X155382Y244618D01*
X154569Y243629D01*
X153966Y242499D01*
X153594Y241274D01*
X153469Y240000D01*
X153594Y238726D01*
X153966Y237501D01*
X154569Y236371D01*
X155382Y235382D01*
X156371Y234569D01*
X157501Y233966D01*
X158726Y233594D01*
X160000Y233469D01*
X161274Y233594D01*
X162499Y233966D01*
X163629Y234569D01*
X164618Y235382D01*
X165431Y236371D01*
X166034Y237501D01*
X166406Y238726D01*
X166531Y240000D01*
X166406Y241274D01*
X166034Y242499D01*
X165431Y243629D01*
X164618Y244618D01*
X164458Y244750D01*
Y245250D01*
X164618Y245382D01*
X165431Y246371D01*
X166034Y247500D01*
X166406Y248726D01*
X166531Y250000D01*
X166406Y251274D01*
X166034Y252500D01*
X165431Y253629D01*
X164618Y254618D01*
X164458Y254750D01*
Y255250D01*
X164618Y255382D01*
X165431Y256371D01*
X166034Y257501D01*
X166406Y258726D01*
X166531Y260000D01*
X166406Y261274D01*
X166034Y262499D01*
X165431Y263629D01*
X164618Y264618D01*
X164458Y264750D01*
Y265250D01*
X164618Y265382D01*
X165431Y266371D01*
X166034Y267500D01*
X166406Y268726D01*
X166531Y270000D01*
X166406Y271274D01*
X166034Y272499D01*
X165431Y273629D01*
X164618Y274618D01*
X164458Y274750D01*
Y275250D01*
X164618Y275382D01*
X165431Y276371D01*
X166034Y277501D01*
X166329Y278471D01*
X170000D01*
X170585Y278587D01*
X171081Y278919D01*
X181081Y288919D01*
X181413Y289415D01*
X181529Y290000D01*
Y348689D01*
X181884Y349220D01*
X182039Y350000D01*
X181884Y350780D01*
X181442Y351442D01*
X180780Y351884D01*
X180000Y352039D01*
D02*
G37*
G36*
X120492Y304176D02*
X119508D01*
X118470Y304039D01*
X117502Y303639D01*
X116672Y303001D01*
X116034Y302171D01*
X115634Y301203D01*
X115497Y300165D01*
X115634Y299127D01*
X116034Y298160D01*
X116157Y298000D01*
X116034Y297840D01*
X115634Y296873D01*
X115497Y295835D01*
X115634Y294797D01*
X116034Y293829D01*
X116672Y292999D01*
X117502Y292361D01*
X118470Y291961D01*
X119508Y291824D01*
X120492D01*
X121530Y291961D01*
X122497Y292361D01*
X123328Y292999D01*
X123966Y293829D01*
X124366Y294797D01*
X124503Y295835D01*
X124366Y296873D01*
X123966Y297840D01*
X123843Y298000D01*
X123966Y298160D01*
X124366Y299127D01*
X124503Y300165D01*
X124366Y301203D01*
X123966Y302171D01*
X123328Y303001D01*
X122497Y303639D01*
X121530Y304039D01*
X120492Y304176D01*
D02*
G37*
G36*
X254154Y297810D02*
X246446D01*
Y290691D01*
X248771D01*
Y281329D01*
X239509D01*
Y283554D01*
X232391D01*
Y275846D01*
X239509D01*
Y278271D01*
X248989D01*
X249520Y277916D01*
X250300Y277761D01*
X251080Y277916D01*
X251742Y278358D01*
X252184Y279020D01*
X252339Y279800D01*
X252184Y280580D01*
X251829Y281111D01*
Y290691D01*
X254154D01*
Y297810D01*
D02*
G37*
G36*
X111059Y343122D02*
X100941D01*
Y333004D01*
X111059D01*
Y343122D01*
D02*
G37*
G36*
X80000Y316531D02*
X78726Y316406D01*
X77500Y316034D01*
X76371Y315431D01*
X75382Y314618D01*
X75250Y314458D01*
X74750D01*
X74618Y314618D01*
X73629Y315431D01*
X72500Y316034D01*
X71274Y316406D01*
X70000Y316531D01*
X68726Y316406D01*
X67501Y316034D01*
X66371Y315431D01*
X65382Y314618D01*
X65250Y314458D01*
X64750D01*
X64618Y314618D01*
X63629Y315431D01*
X62499Y316034D01*
X61274Y316406D01*
X60000Y316531D01*
X58726Y316406D01*
X57500Y316034D01*
X56371Y315431D01*
X55382Y314618D01*
X55250Y314458D01*
X54750D01*
X54618Y314618D01*
X53629Y315431D01*
X52500Y316034D01*
X51274Y316406D01*
X50000Y316531D01*
X48726Y316406D01*
X47501Y316034D01*
X46371Y315431D01*
X45382Y314618D01*
X44569Y313629D01*
X43966Y312499D01*
X43594Y311274D01*
X43468Y310000D01*
X43594Y308726D01*
X43966Y307501D01*
X44569Y306371D01*
X45382Y305382D01*
X45542Y305250D01*
Y304750D01*
X45382Y304618D01*
X44569Y303629D01*
X43966Y302500D01*
X43594Y301274D01*
X43468Y300000D01*
X43594Y298726D01*
X43966Y297500D01*
X44569Y296371D01*
X45382Y295382D01*
X45542Y295250D01*
Y294750D01*
X45382Y294618D01*
X44569Y293629D01*
X43966Y292499D01*
X43594Y291274D01*
X43468Y290000D01*
X43594Y288726D01*
X43966Y287501D01*
X44569Y286371D01*
X45382Y285382D01*
X45542Y285250D01*
Y284750D01*
X45382Y284618D01*
X44569Y283629D01*
X43966Y282500D01*
X43594Y281274D01*
X43468Y280000D01*
X43594Y278726D01*
X43966Y277501D01*
X44569Y276371D01*
X45382Y275382D01*
X45542Y275250D01*
Y274750D01*
X45382Y274618D01*
X44569Y273629D01*
X43966Y272499D01*
X43594Y271274D01*
X43468Y270000D01*
X43594Y268726D01*
X43966Y267500D01*
X44569Y266371D01*
X45382Y265382D01*
X45542Y265250D01*
Y264750D01*
X45382Y264618D01*
X44569Y263629D01*
X43966Y262499D01*
X43594Y261274D01*
X43468Y260000D01*
X43594Y258726D01*
X43966Y257501D01*
X44569Y256371D01*
X45382Y255382D01*
X45542Y255250D01*
Y254750D01*
X45382Y254618D01*
X44569Y253629D01*
X43966Y252500D01*
X43594Y251274D01*
X43468Y250000D01*
X43594Y248726D01*
X43966Y247500D01*
X44569Y246371D01*
X45382Y245382D01*
X45542Y245250D01*
Y244750D01*
X45382Y244618D01*
X44569Y243629D01*
X43966Y242499D01*
X43594Y241274D01*
X43468Y240000D01*
X43594Y238726D01*
X43966Y237501D01*
X44569Y236371D01*
X45382Y235382D01*
X45542Y235250D01*
Y234750D01*
X45382Y234618D01*
X44569Y233629D01*
X43966Y232500D01*
X43594Y231274D01*
X43468Y230000D01*
X43594Y228726D01*
X43966Y227501D01*
X44569Y226371D01*
X45382Y225382D01*
X45542Y225250D01*
Y224750D01*
X45382Y224618D01*
X44569Y223629D01*
X43966Y222499D01*
X43594Y221274D01*
X43468Y220000D01*
X43594Y218726D01*
X43966Y217500D01*
X44569Y216371D01*
X45382Y215382D01*
X45542Y215250D01*
Y214750D01*
X45382Y214618D01*
X44569Y213629D01*
X43966Y212499D01*
X43594Y211274D01*
X43468Y210000D01*
X43594Y208726D01*
X43966Y207501D01*
X44569Y206371D01*
X45382Y205382D01*
X45542Y205250D01*
Y204750D01*
X45382Y204618D01*
X44569Y203629D01*
X43966Y202500D01*
X43594Y201274D01*
X43468Y200000D01*
X43594Y198726D01*
X43966Y197501D01*
X44569Y196371D01*
X45382Y195382D01*
X45542Y195250D01*
Y194750D01*
X45382Y194618D01*
X44569Y193629D01*
X43966Y192499D01*
X43594Y191274D01*
X43468Y190000D01*
X43594Y188726D01*
X43966Y187501D01*
X44569Y186371D01*
X45382Y185382D01*
X45542Y185250D01*
Y184750D01*
X45382Y184618D01*
X44569Y183629D01*
X43966Y182500D01*
X43594Y181274D01*
X43468Y180000D01*
X43594Y178726D01*
X43966Y177500D01*
X44569Y176371D01*
X45382Y175382D01*
X45542Y175250D01*
Y174750D01*
X45382Y174618D01*
X44569Y173629D01*
X43966Y172500D01*
X43594Y171274D01*
X43468Y170000D01*
X43594Y168726D01*
X43966Y167500D01*
X44569Y166371D01*
X45382Y165382D01*
X45542Y165250D01*
Y164750D01*
X45382Y164618D01*
X44569Y163629D01*
X43966Y162499D01*
X43594Y161274D01*
X43468Y160000D01*
X43594Y158726D01*
X43966Y157501D01*
X44569Y156371D01*
X45382Y155382D01*
X45542Y155250D01*
Y154750D01*
X45382Y154618D01*
X44569Y153629D01*
X43966Y152499D01*
X43594Y151274D01*
X43468Y150000D01*
X43594Y148726D01*
X43966Y147501D01*
X44569Y146371D01*
X45382Y145382D01*
X45542Y145250D01*
Y144750D01*
X45382Y144618D01*
X44569Y143629D01*
X43966Y142499D01*
X43594Y141274D01*
X43468Y140000D01*
X43594Y138726D01*
X43966Y137501D01*
X44569Y136371D01*
X45382Y135382D01*
X45542Y135250D01*
Y134750D01*
X45382Y134618D01*
X44569Y133629D01*
X43966Y132500D01*
X43594Y131274D01*
X43468Y130000D01*
X43594Y128726D01*
X43966Y127500D01*
X44569Y126371D01*
X45382Y125382D01*
X45542Y125250D01*
Y124750D01*
X45382Y124618D01*
X44569Y123629D01*
X43966Y122500D01*
X43594Y121274D01*
X43468Y120000D01*
X43594Y118726D01*
X43966Y117500D01*
X44569Y116371D01*
X45382Y115382D01*
X45542Y115250D01*
Y114750D01*
X45382Y114618D01*
X44569Y113629D01*
X43966Y112499D01*
X43594Y111274D01*
X43468Y110000D01*
X43594Y108726D01*
X43966Y107501D01*
X44569Y106371D01*
X45382Y105382D01*
X45542Y105250D01*
Y104750D01*
X45382Y104618D01*
X44569Y103629D01*
X43966Y102499D01*
X43594Y101274D01*
X43468Y100000D01*
X43594Y98726D01*
X43966Y97500D01*
X44569Y96371D01*
X45382Y95382D01*
X45542Y95250D01*
Y94750D01*
X45382Y94618D01*
X44569Y93629D01*
X43966Y92500D01*
X43594Y91274D01*
X43468Y90000D01*
X43594Y88726D01*
X43966Y87501D01*
X44569Y86371D01*
X45382Y85382D01*
X46371Y84569D01*
X47501Y83966D01*
X48726Y83594D01*
X50000Y83469D01*
X51274Y83594D01*
X52500Y83966D01*
X53629Y84569D01*
X54618Y85382D01*
X54750Y85542D01*
X55250D01*
X55382Y85382D01*
X56371Y84569D01*
X57500Y83966D01*
X58726Y83594D01*
X60000Y83469D01*
X61274Y83594D01*
X62499Y83966D01*
X63629Y84569D01*
X64618Y85382D01*
X64750Y85542D01*
X65250D01*
X65382Y85382D01*
X66371Y84569D01*
X67501Y83966D01*
X68726Y83594D01*
X70000Y83469D01*
X71274Y83594D01*
X72500Y83966D01*
X73629Y84569D01*
X74618Y85382D01*
X74750Y85542D01*
X75250D01*
X75382Y85382D01*
X76371Y84569D01*
X77500Y83966D01*
X78726Y83594D01*
X80000Y83469D01*
X81274Y83594D01*
X82499Y83966D01*
X83629Y84569D01*
X84618Y85382D01*
X84750Y85542D01*
X85250D01*
X85382Y85382D01*
X86371Y84569D01*
X87501Y83966D01*
X88726Y83594D01*
X90000Y83469D01*
X91274Y83594D01*
X92500Y83966D01*
X93629Y84569D01*
X94618Y85382D01*
X95431Y86371D01*
X96034Y87501D01*
X96406Y88726D01*
X96531Y90000D01*
X96406Y91274D01*
X96034Y92500D01*
X95431Y93629D01*
X94618Y94618D01*
X94458Y94750D01*
Y95250D01*
X94618Y95382D01*
X95431Y96371D01*
X96034Y97500D01*
X96406Y98726D01*
X96531Y100000D01*
X96406Y101274D01*
X96034Y102499D01*
X95431Y103629D01*
X94618Y104618D01*
X94458Y104750D01*
Y105250D01*
X94618Y105382D01*
X95431Y106371D01*
X96034Y107501D01*
X96406Y108726D01*
X96531Y110000D01*
X96406Y111274D01*
X96034Y112499D01*
X95431Y113629D01*
X94618Y114618D01*
X94458Y114750D01*
Y115250D01*
X94618Y115382D01*
X95431Y116371D01*
X96034Y117500D01*
X96406Y118726D01*
X96531Y120000D01*
X96406Y121274D01*
X96034Y122500D01*
X95431Y123629D01*
X94618Y124618D01*
X94458Y124750D01*
Y125250D01*
X94618Y125382D01*
X95431Y126371D01*
X96034Y127500D01*
X96406Y128726D01*
X96531Y130000D01*
X96406Y131274D01*
X96034Y132500D01*
X95431Y133629D01*
X94618Y134618D01*
X94458Y134750D01*
Y135250D01*
X94618Y135382D01*
X95431Y136371D01*
X96034Y137501D01*
X96406Y138726D01*
X96531Y140000D01*
X96406Y141274D01*
X96034Y142499D01*
X95431Y143629D01*
X94618Y144618D01*
X94458Y144750D01*
Y145250D01*
X94618Y145382D01*
X95431Y146371D01*
X96034Y147501D01*
X96406Y148726D01*
X96531Y150000D01*
X96406Y151274D01*
X96034Y152499D01*
X95431Y153629D01*
X94618Y154618D01*
X94458Y154750D01*
Y155250D01*
X94618Y155382D01*
X95431Y156371D01*
X96034Y157501D01*
X96406Y158726D01*
X96531Y160000D01*
X96406Y161274D01*
X96034Y162499D01*
X95431Y163629D01*
X94618Y164618D01*
X94458Y164750D01*
Y165250D01*
X94618Y165382D01*
X95431Y166371D01*
X96034Y167500D01*
X96406Y168726D01*
X96531Y170000D01*
X96406Y171274D01*
X96034Y172500D01*
X95431Y173629D01*
X94618Y174618D01*
X94458Y174750D01*
Y175250D01*
X94618Y175382D01*
X95431Y176371D01*
X96034Y177500D01*
X96406Y178726D01*
X96531Y180000D01*
X96406Y181274D01*
X96034Y182500D01*
X95431Y183629D01*
X94618Y184618D01*
X94458Y184750D01*
Y185250D01*
X94618Y185382D01*
X95431Y186371D01*
X96034Y187501D01*
X96406Y188726D01*
X96531Y190000D01*
X96406Y191274D01*
X96034Y192499D01*
X95431Y193629D01*
X94618Y194618D01*
X94458Y194750D01*
Y195250D01*
X94618Y195382D01*
X95431Y196371D01*
X96034Y197501D01*
X96406Y198726D01*
X96531Y200000D01*
X96406Y201274D01*
X96034Y202500D01*
X95431Y203629D01*
X94618Y204618D01*
X94458Y204750D01*
Y205250D01*
X94618Y205382D01*
X95431Y206371D01*
X96034Y207501D01*
X96406Y208726D01*
X96531Y210000D01*
X96406Y211274D01*
X96034Y212499D01*
X95431Y213629D01*
X94618Y214618D01*
X93629Y215431D01*
X92500Y216034D01*
X91274Y216406D01*
X90000Y216531D01*
X88726Y216406D01*
X87501Y216034D01*
X86371Y215431D01*
X85382Y214618D01*
X85250Y214458D01*
X84750D01*
X84618Y214618D01*
X83629Y215431D01*
X82499Y216034D01*
X81274Y216406D01*
X80000Y216531D01*
X78726Y216406D01*
X77500Y216034D01*
X76371Y215431D01*
X75382Y214618D01*
X75250Y214458D01*
X74750D01*
X74618Y214618D01*
X73629Y215431D01*
X72500Y216034D01*
X71274Y216406D01*
X70000Y216531D01*
X68726Y216406D01*
X67501Y216034D01*
X66371Y215431D01*
X65382Y214618D01*
X65308Y214529D01*
X64784Y214512D01*
X64512Y214784D01*
X64529Y215308D01*
X64618Y215382D01*
X65431Y216371D01*
X66034Y217500D01*
X66406Y218726D01*
X66531Y220000D01*
X66406Y221274D01*
X66034Y222499D01*
X65431Y223629D01*
X64618Y224618D01*
X64458Y224750D01*
Y225250D01*
X64618Y225382D01*
X65431Y226371D01*
X66034Y227501D01*
X66406Y228726D01*
X66531Y230000D01*
X66406Y231274D01*
X66034Y232500D01*
X65431Y233629D01*
X64618Y234618D01*
X64458Y234750D01*
Y235250D01*
X64618Y235382D01*
X65431Y236371D01*
X66034Y237501D01*
X66406Y238726D01*
X66531Y240000D01*
X66406Y241274D01*
X66034Y242499D01*
X65431Y243629D01*
X64618Y244618D01*
X64458Y244750D01*
Y245250D01*
X64618Y245382D01*
X65431Y246371D01*
X66034Y247500D01*
X66406Y248726D01*
X66531Y250000D01*
X66406Y251274D01*
X66034Y252500D01*
X65431Y253629D01*
X64618Y254618D01*
X64458Y254750D01*
Y255250D01*
X64618Y255382D01*
X64750Y255542D01*
X65250D01*
X65382Y255382D01*
X66371Y254569D01*
X67501Y253966D01*
X68726Y253594D01*
X70000Y253469D01*
X71274Y253594D01*
X72500Y253966D01*
X73629Y254569D01*
X74618Y255382D01*
X74750Y255542D01*
X75250D01*
X75382Y255382D01*
X76371Y254569D01*
X77500Y253966D01*
X78726Y253594D01*
X80000Y253469D01*
X81274Y253594D01*
X82499Y253966D01*
X83629Y254569D01*
X84618Y255382D01*
X85431Y256371D01*
X86034Y257501D01*
X86406Y258726D01*
X86531Y260000D01*
X86406Y261274D01*
X86034Y262499D01*
X85431Y263629D01*
X84618Y264618D01*
X84458Y264750D01*
Y265250D01*
X84618Y265382D01*
X85431Y266371D01*
X86034Y267500D01*
X86406Y268726D01*
X86531Y270000D01*
X86406Y271274D01*
X86034Y272499D01*
X85431Y273629D01*
X84618Y274618D01*
X84458Y274750D01*
Y275250D01*
X84618Y275382D01*
X85431Y276371D01*
X86034Y277501D01*
X86406Y278726D01*
X86531Y280000D01*
X86406Y281274D01*
X86034Y282500D01*
X85431Y283629D01*
X84618Y284618D01*
X84458Y284750D01*
Y285250D01*
X84618Y285382D01*
X85431Y286371D01*
X86034Y287501D01*
X86406Y288726D01*
X86531Y290000D01*
X86406Y291274D01*
X86034Y292499D01*
X85431Y293629D01*
X84618Y294618D01*
X84458Y294750D01*
Y295250D01*
X84618Y295382D01*
X85431Y296371D01*
X86034Y297500D01*
X86406Y298726D01*
X86531Y300000D01*
X86406Y301274D01*
X86034Y302500D01*
X85431Y303629D01*
X84618Y304618D01*
X84458Y304750D01*
Y305250D01*
X84618Y305382D01*
X85431Y306371D01*
X86034Y307501D01*
X86406Y308726D01*
X86531Y310000D01*
X86406Y311274D01*
X86034Y312499D01*
X85431Y313629D01*
X84618Y314618D01*
X83629Y315431D01*
X82499Y316034D01*
X81274Y316406D01*
X80000Y316531D01*
D02*
G37*
%LPD*%
G36*
X385382Y355382D02*
X385542Y355250D01*
Y354750D01*
X385382Y354618D01*
X384569Y353629D01*
X383966Y352500D01*
X383594Y351274D01*
X383469Y350000D01*
X383594Y348726D01*
X383966Y347500D01*
X384569Y346371D01*
X385382Y345382D01*
X385542Y345250D01*
Y344750D01*
X385382Y344618D01*
X384569Y343629D01*
X383966Y342499D01*
X383594Y341274D01*
X383469Y340000D01*
X383594Y338726D01*
X383966Y337501D01*
X384569Y336371D01*
X385382Y335382D01*
X385542Y335250D01*
Y334750D01*
X385382Y334618D01*
X384569Y333629D01*
X383966Y332500D01*
X383594Y331274D01*
X383469Y330000D01*
X383594Y328726D01*
X383966Y327501D01*
X384569Y326371D01*
X385382Y325382D01*
X385542Y325250D01*
Y324750D01*
X385382Y324618D01*
X385250Y324458D01*
X384750D01*
X384618Y324618D01*
X383629Y325431D01*
X382500Y326034D01*
X381274Y326406D01*
X380000Y326531D01*
X378925Y326426D01*
X378559Y326744D01*
X378502Y326860D01*
X378529Y327000D01*
Y353000D01*
X378502Y353139D01*
X378559Y353256D01*
X378925Y353574D01*
X380000Y353469D01*
X381274Y353594D01*
X382500Y353966D01*
X383629Y354569D01*
X384618Y355382D01*
X384750Y355542D01*
X385250D01*
X385382Y355382D01*
D02*
G37*
G36*
X330891Y376946D02*
X330664Y376466D01*
X330000Y376531D01*
X328726Y376406D01*
X327501Y376034D01*
X326606Y375556D01*
X321192Y380971D01*
X321329Y381408D01*
X321377Y381471D01*
X326366D01*
X330891Y376946D01*
D02*
G37*
G36*
X289808Y382029D02*
X289671Y381592D01*
X289623Y381529D01*
X278633D01*
X254081Y406081D01*
X254054Y406248D01*
X254804Y407226D01*
X255358Y408564D01*
X255547Y410000D01*
X255358Y411436D01*
X254804Y412774D01*
X253923Y413923D01*
X252774Y414804D01*
X251436Y415358D01*
X250000Y415548D01*
X248564Y415358D01*
X247226Y414804D01*
X246077Y413923D01*
X245293Y412900D01*
X245127Y412857D01*
X244873D01*
X244707Y412900D01*
X243923Y413923D01*
X242774Y414804D01*
X241436Y415358D01*
X240000Y415548D01*
X238564Y415358D01*
X237226Y414804D01*
X236077Y413923D01*
X235293Y412900D01*
X235127Y412857D01*
X234873D01*
X234707Y412900D01*
X233923Y413923D01*
X232774Y414804D01*
X231436Y415358D01*
X230000Y415548D01*
X228564Y415358D01*
X227991Y415121D01*
X227708Y415545D01*
X228633Y416471D01*
X255366D01*
X289808Y382029D01*
D02*
G37*
D14*
X229650Y279700D02*
D03*
X235950D02*
D03*
X294250Y279800D02*
D03*
X300550D02*
D03*
X229550Y256100D02*
D03*
X235850D02*
D03*
D23*
X370000Y320000D02*
X377000Y327000D01*
Y353000D01*
X309000Y421000D02*
X377000Y353000D01*
X319800Y279800D02*
X370000Y330000D01*
X300550Y279800D02*
X319800D01*
X160000Y230000D02*
X186100Y256100D01*
X229550D01*
X200000Y370000D02*
X250300Y319700D01*
X280000Y279800D02*
X294250D01*
X279700Y229550D02*
X284000Y225250D01*
X254200Y229550D02*
X279700D01*
X284000Y206000D02*
Y225250D01*
X304000Y135000D02*
Y138000D01*
X306000Y140000D01*
X320000D01*
X221000Y421000D02*
X309000D01*
X210000Y410000D02*
X221000Y421000D01*
X228000Y418000D02*
X256000D01*
X220000Y410000D02*
X228000Y418000D01*
X256000D02*
X291000Y383000D01*
X327000D01*
X230000Y410000D02*
X235000Y405000D01*
Y394000D02*
Y405000D01*
X245000D02*
X253000D01*
X240000Y410000D02*
X245000Y405000D01*
X160000Y280000D02*
X170000D01*
X180000Y290000D01*
Y350000D01*
X235000Y394000D02*
X242000Y387000D01*
X263000D01*
X253000Y405000D02*
X278000Y380000D01*
X320000D01*
X327000Y383000D02*
X340000Y370000D01*
X320000Y380000D02*
X330000Y370000D01*
X150000Y230000D02*
X160000D01*
X140000Y240000D02*
X150000Y230000D01*
X300114Y82500D02*
X300123Y82492D01*
X300106Y92492D02*
X318106D01*
X347106Y97492D02*
X349615Y100000D01*
X360000D01*
X300106Y102492D02*
X318106D01*
X325615Y110000D01*
X360000D01*
X353614Y80000D02*
X360000D01*
X351115Y77500D02*
X353614Y80000D01*
X350615Y90000D02*
X360000D01*
X318106Y92492D02*
X323106Y97492D01*
X347106D01*
X343106Y82492D02*
X350615Y90000D01*
X341098Y77500D02*
X351115D01*
X300123Y82492D02*
X343106D01*
X345615Y70000D02*
X360000D01*
X340106Y64492D02*
X345615Y70000D01*
X322106Y64492D02*
X340106D01*
X102000Y240000D02*
X140000D01*
X96000Y246000D02*
X102000Y240000D01*
X75000Y378000D02*
Y393000D01*
X254200Y235850D02*
Y250500D01*
X235850Y256100D02*
X250600D01*
X279700Y235850D02*
Y250800D01*
X250300Y279800D02*
Y294250D01*
X236350Y279800D02*
X250300D01*
X235950Y279400D02*
X236350Y279800D01*
X244450Y229550D02*
X254200D01*
X229550Y244450D02*
X244450Y229550D01*
X229550Y279600D02*
X229650Y279700D01*
Y287650D01*
X242550Y300550D01*
X250300D01*
X229550Y244450D02*
Y256100D01*
Y279600D01*
X250300Y300550D02*
Y319700D01*
D24*
X340000Y140000D02*
Y160000D01*
X98000Y317000D02*
X101000Y320000D01*
X122000D01*
X136000Y334000D01*
X131000D02*
X136000D01*
X119063Y345937D02*
X131000Y334000D01*
X106000Y345937D02*
X119063D01*
X106000Y366000D02*
X131000Y391000D01*
X106000Y345937D02*
Y366000D01*
X131000Y391000D02*
Y419000D01*
X130000Y420000D02*
X131000Y419000D01*
X110000Y420000D02*
X111000D01*
X320000Y140000D02*
X330000D01*
X340000D01*
X350000D01*
X360000D01*
X370000D01*
X380000D01*
X390000D01*
X400000D01*
X410000D01*
X420000D01*
D27*
X400000Y370000D02*
D03*
X420000D02*
D03*
X410000D02*
D03*
Y360000D02*
D03*
X420000D02*
D03*
X400000D02*
D03*
Y340000D02*
D03*
X420000D02*
D03*
X410000D02*
D03*
Y350000D02*
D03*
X420000D02*
D03*
X400000D02*
D03*
X160000Y240000D02*
D03*
Y250000D02*
D03*
Y260000D02*
D03*
Y270000D02*
D03*
X270000Y160000D02*
D03*
X260000D02*
D03*
X210000D02*
D03*
X200000D02*
D03*
X370000Y230000D02*
D03*
Y240000D02*
D03*
Y250000D02*
D03*
Y260000D02*
D03*
X290000Y370000D02*
D03*
X320000D02*
D03*
X310000D02*
D03*
X300000D02*
D03*
X90000Y420000D02*
D03*
Y50000D02*
D03*
X170000D02*
D03*
Y60000D02*
D03*
X120000D02*
D03*
X110000D02*
D03*
X170000Y160000D02*
D03*
X160000D02*
D03*
X150000D02*
D03*
X140000D02*
D03*
X130000D02*
D03*
X120000D02*
D03*
X110000D02*
D03*
X160000Y50000D02*
D03*
Y60000D02*
D03*
X150000Y50000D02*
D03*
Y60000D02*
D03*
X140000Y50000D02*
D03*
Y60000D02*
D03*
X130000Y50000D02*
D03*
Y60000D02*
D03*
X120000Y50000D02*
D03*
X110000D02*
D03*
X260000Y60000D02*
D03*
Y70000D02*
D03*
Y80000D02*
D03*
Y90000D02*
D03*
Y100000D02*
D03*
Y110000D02*
D03*
X360000Y60000D02*
D03*
Y70000D02*
D03*
Y80000D02*
D03*
Y90000D02*
D03*
Y100000D02*
D03*
Y110000D02*
D03*
X160000Y280000D02*
D03*
X340000Y160000D02*
D03*
X240000D02*
D03*
X220000D02*
D03*
X190000D02*
D03*
X370000Y220000D02*
D03*
X160000Y190000D02*
D03*
Y200000D02*
D03*
Y290000D02*
D03*
Y300000D02*
D03*
Y310000D02*
D03*
Y330000D02*
D03*
X200000Y370000D02*
D03*
X230000D02*
D03*
X370000Y190000D02*
D03*
X370000Y200000D02*
D03*
Y210000D02*
D03*
X160000Y320000D02*
D03*
X370000Y270000D02*
D03*
X270000Y370000D02*
D03*
X370000Y280000D02*
D03*
X370000Y290000D02*
D03*
X370000Y300000D02*
D03*
Y310000D02*
D03*
X370000Y320000D02*
D03*
X340000Y370000D02*
D03*
X330000D02*
D03*
X280000Y370000D02*
D03*
X260000D02*
D03*
X250000Y370000D02*
D03*
X240000Y370000D02*
D03*
X220000D02*
D03*
X210000Y370000D02*
D03*
X370000Y330000D02*
D03*
X320016Y160000D02*
D03*
X310000D02*
D03*
X300000D02*
D03*
X290000D02*
D03*
X280000D02*
D03*
X250000D02*
D03*
X190000Y370000D02*
D03*
X230000Y160000D02*
D03*
X160000Y340000D02*
D03*
Y220000D02*
D03*
X330000Y160000D02*
D03*
X370000Y340000D02*
D03*
X160000Y230000D02*
D03*
Y210000D02*
D03*
X130000Y420000D02*
D03*
X110000D02*
D03*
X400000Y380000D02*
D03*
X420000D02*
D03*
X410000D02*
D03*
Y390000D02*
D03*
X420000D02*
D03*
X400000D02*
D03*
X330000Y140000D02*
D03*
X340000D02*
D03*
X360000D02*
D03*
X350000D02*
D03*
X390000D02*
D03*
X380000D02*
D03*
X370000D02*
D03*
X400000D02*
D03*
X420000D02*
D03*
X410000D02*
D03*
Y130000D02*
D03*
X420000D02*
D03*
X400000D02*
D03*
X370000D02*
D03*
X380000D02*
D03*
X390000D02*
D03*
X350000D02*
D03*
X360000D02*
D03*
X340000D02*
D03*
X330000D02*
D03*
X320000D02*
D03*
Y140000D02*
D03*
X400000Y90000D02*
D03*
X420000D02*
D03*
X410000D02*
D03*
Y80000D02*
D03*
X420000D02*
D03*
X400000D02*
D03*
Y110000D02*
D03*
X420000D02*
D03*
X410000D02*
D03*
Y100000D02*
D03*
X420000D02*
D03*
X400000D02*
D03*
X410000Y120000D02*
D03*
X420000D02*
D03*
X400000D02*
D03*
X60000Y90000D02*
D03*
X50000D02*
D03*
X70000D02*
D03*
X90000D02*
D03*
X80000D02*
D03*
X60000Y110000D02*
D03*
X50000D02*
D03*
X70000D02*
D03*
X90000D02*
D03*
X80000D02*
D03*
Y100000D02*
D03*
X90000D02*
D03*
X70000D02*
D03*
X50000D02*
D03*
X60000D02*
D03*
Y180000D02*
D03*
X50000D02*
D03*
X70000D02*
D03*
X90000D02*
D03*
X80000D02*
D03*
X60000Y160000D02*
D03*
X50000D02*
D03*
X70000D02*
D03*
X90000D02*
D03*
X80000D02*
D03*
Y170000D02*
D03*
X90000D02*
D03*
X70000D02*
D03*
X50000D02*
D03*
X60000D02*
D03*
Y140000D02*
D03*
X50000D02*
D03*
X70000D02*
D03*
X90000D02*
D03*
X80000D02*
D03*
Y150000D02*
D03*
X90000D02*
D03*
X70000D02*
D03*
X50000D02*
D03*
X60000D02*
D03*
Y120000D02*
D03*
X50000D02*
D03*
X70000D02*
D03*
X90000D02*
D03*
X80000D02*
D03*
Y130000D02*
D03*
X90000D02*
D03*
X70000D02*
D03*
X50000D02*
D03*
X60000D02*
D03*
X50000Y300000D02*
D03*
X60000D02*
D03*
X80000D02*
D03*
X70000D02*
D03*
Y290000D02*
D03*
X80000D02*
D03*
X60000D02*
D03*
X50000D02*
D03*
X70000Y310000D02*
D03*
X80000D02*
D03*
X60000D02*
D03*
X50000D02*
D03*
Y270000D02*
D03*
X60000D02*
D03*
X80000D02*
D03*
X70000D02*
D03*
Y280000D02*
D03*
X80000D02*
D03*
X60000D02*
D03*
X50000D02*
D03*
X400000Y330000D02*
D03*
X420000D02*
D03*
X410000D02*
D03*
Y320000D02*
D03*
X420000D02*
D03*
X400000D02*
D03*
Y290000D02*
D03*
X420000D02*
D03*
X410000D02*
D03*
Y280000D02*
D03*
X420000D02*
D03*
X400000D02*
D03*
Y300000D02*
D03*
X420000D02*
D03*
X410000D02*
D03*
Y310000D02*
D03*
X420000D02*
D03*
X400000D02*
D03*
Y270000D02*
D03*
X420000D02*
D03*
X410000D02*
D03*
Y260000D02*
D03*
X420000D02*
D03*
X400000D02*
D03*
Y230000D02*
D03*
X420000D02*
D03*
X410000D02*
D03*
Y220000D02*
D03*
X420000D02*
D03*
X400000D02*
D03*
Y240000D02*
D03*
X420000D02*
D03*
X410000D02*
D03*
Y250000D02*
D03*
X420000D02*
D03*
X400000D02*
D03*
Y200000D02*
D03*
X420000D02*
D03*
X410000D02*
D03*
Y210000D02*
D03*
X420000D02*
D03*
X400000D02*
D03*
Y180000D02*
D03*
X420000D02*
D03*
X410000D02*
D03*
Y190000D02*
D03*
X420000D02*
D03*
X400000D02*
D03*
Y160000D02*
D03*
X420000D02*
D03*
X410000D02*
D03*
Y170000D02*
D03*
X420000D02*
D03*
X400000D02*
D03*
X370000Y160000D02*
D03*
X390000D02*
D03*
X380000D02*
D03*
Y170000D02*
D03*
X390000D02*
D03*
X370000D02*
D03*
Y180000D02*
D03*
X390000D02*
D03*
X380000D02*
D03*
X370000Y150000D02*
D03*
X390000D02*
D03*
X380000D02*
D03*
X400000D02*
D03*
X420000D02*
D03*
X410000D02*
D03*
X390000Y190000D02*
D03*
Y210000D02*
D03*
Y200000D02*
D03*
X380000Y190000D02*
D03*
Y210000D02*
D03*
Y200000D02*
D03*
X390000Y220000D02*
D03*
X380000D02*
D03*
X390000Y240000D02*
D03*
X380000D02*
D03*
Y230000D02*
D03*
X390000D02*
D03*
Y260000D02*
D03*
X380000D02*
D03*
Y250000D02*
D03*
X390000D02*
D03*
Y270000D02*
D03*
X380000D02*
D03*
Y320000D02*
D03*
X390000D02*
D03*
Y300000D02*
D03*
X380000D02*
D03*
Y310000D02*
D03*
X390000D02*
D03*
Y280000D02*
D03*
X380000D02*
D03*
Y290000D02*
D03*
X390000D02*
D03*
Y380000D02*
D03*
X380000D02*
D03*
Y390000D02*
D03*
X390000D02*
D03*
Y400000D02*
D03*
X380000D02*
D03*
Y410000D02*
D03*
X390000D02*
D03*
X370000Y400000D02*
D03*
X360000D02*
D03*
Y410000D02*
D03*
X370000D02*
D03*
X350000Y400000D02*
D03*
X340000D02*
D03*
Y410000D02*
D03*
X350000D02*
D03*
Y420000D02*
D03*
X340000D02*
D03*
X370000D02*
D03*
X360000D02*
D03*
X390000D02*
D03*
X380000D02*
D03*
X330000D02*
D03*
X370000Y390000D02*
D03*
X360000D02*
D03*
X370000Y380000D02*
D03*
X390000Y370000D02*
D03*
Y360000D02*
D03*
X380000Y370000D02*
D03*
X390000Y350000D02*
D03*
Y340000D02*
D03*
Y330000D02*
D03*
X330000Y410000D02*
D03*
X320000Y420000D02*
D03*
X350000Y390000D02*
D03*
X360000Y380000D02*
D03*
X370000Y370000D02*
D03*
X380000Y360000D02*
D03*
X350000Y180000D02*
D03*
X360000D02*
D03*
X350000Y170000D02*
D03*
X360000D02*
D03*
X350000Y160000D02*
D03*
X360000D02*
D03*
X350000Y150000D02*
D03*
X360000D02*
D03*
X50000Y230000D02*
D03*
Y220000D02*
D03*
Y260000D02*
D03*
Y240000D02*
D03*
Y250000D02*
D03*
X60000Y230000D02*
D03*
Y220000D02*
D03*
Y260000D02*
D03*
Y240000D02*
D03*
Y250000D02*
D03*
X70000Y260000D02*
D03*
X80000D02*
D03*
X50000Y210000D02*
D03*
X60000D02*
D03*
X50000Y200000D02*
D03*
X60000D02*
D03*
X50000Y190000D02*
D03*
X60000D02*
D03*
X70000D02*
D03*
X80000D02*
D03*
X70000Y200000D02*
D03*
X80000D02*
D03*
X70000Y210000D02*
D03*
X80000D02*
D03*
X90000Y190000D02*
D03*
Y200000D02*
D03*
Y210000D02*
D03*
D28*
X106000Y345937D02*
D03*
D29*
Y338063D02*
D03*
D30*
X410000Y410000D02*
D03*
Y60000D02*
D03*
X60000D02*
D03*
Y410000D02*
D03*
D31*
X250000D02*
D03*
Y400000D02*
D03*
X240000Y410000D02*
D03*
Y400000D02*
D03*
X210000Y410000D02*
D03*
X220000Y400000D02*
D03*
Y410000D02*
D03*
X230000Y400000D02*
D03*
Y410000D02*
D03*
D32*
X210000Y400000D02*
D03*
D33*
X120000Y255394D02*
D03*
D34*
X120000Y274606D02*
D03*
D35*
X120000Y300165D02*
D03*
Y295835D02*
D03*
D36*
X280000Y279800D02*
D03*
X284000Y206000D02*
D03*
X304000Y135000D02*
D03*
X180000Y350000D02*
D03*
X263000Y387000D02*
D03*
X98000Y317000D02*
D03*
X136000Y334000D02*
D03*
X75000Y378000D02*
D03*
X341098Y77500D02*
D03*
X300114Y82500D02*
D03*
X300106Y92492D02*
D03*
Y102492D02*
D03*
X322106Y64492D02*
D03*
X96000Y246000D02*
D03*
X75000Y393000D02*
D03*
X131000Y391000D02*
D03*
X250300Y279800D02*
D03*
X250600Y256100D02*
D03*
X254200Y250500D02*
D03*
X279700Y250800D02*
D03*
D37*
X254200Y229550D02*
D03*
Y235850D02*
D03*
X250300Y294250D02*
D03*
Y300550D02*
D03*
X279700Y235850D02*
D03*
Y229550D02*
D03*
M02*
