G04 Layer_Color=20142*
%FSLAX25Y25*%
%MOIN*%
G70*
G01*
G75*
%ADD27R,0.10300X0.13800*%
%ADD44O,0.03400X0.09800*%
%ADD45O,0.09461X0.03162*%
%ADD46O,0.07100X0.03200*%
%ADD47R,0.05918X0.06509*%
%ADD48R,0.05524X0.03950*%
%ADD49R,0.05918X0.05328*%
%ADD50R,0.05918X0.04737*%
%ADD51R,0.06509X0.05918*%
%ADD52R,0.04737X0.05918*%
%ADD53O,0.01981X0.07887*%
%ADD54O,0.07887X0.01981*%
%ADD55R,0.08280X0.06706*%
%ADD56R,0.06902X0.06706*%
%ADD57R,0.07493X0.12611*%
%ADD58C,0.08800*%
%ADD59O,0.04737X0.03753*%
%ADD60C,0.05524*%
%ADD61R,0.05524X0.05524*%
%ADD62C,0.06800*%
%ADD63R,0.06800X0.06800*%
%ADD64C,0.26784*%
%ADD65R,0.05918X0.05918*%
%ADD66C,0.05918*%
%ADD67C,0.02800*%
D27*
X108650Y375900D02*
D03*
D44*
X157500Y111000D02*
D03*
X152500D02*
D03*
X147500D02*
D03*
X142500D02*
D03*
X137500D02*
D03*
X132500D02*
D03*
X127500D02*
D03*
X122500D02*
D03*
Y89000D02*
D03*
X127500D02*
D03*
X132500D02*
D03*
X137500D02*
D03*
X142500D02*
D03*
X147500D02*
D03*
X152500D02*
D03*
X157500D02*
D03*
D45*
X310551Y107500D02*
D03*
Y102500D02*
D03*
Y97500D02*
D03*
Y92500D02*
D03*
Y87500D02*
D03*
Y82500D02*
D03*
Y77500D02*
D03*
Y72500D02*
D03*
X329449Y107500D02*
D03*
Y102500D02*
D03*
Y97500D02*
D03*
Y92500D02*
D03*
Y87500D02*
D03*
Y82500D02*
D03*
Y77500D02*
D03*
Y72500D02*
D03*
D46*
X98148Y383500D02*
D03*
Y378500D02*
D03*
Y373500D02*
D03*
Y368500D02*
D03*
X119400Y383500D02*
D03*
Y378500D02*
D03*
Y373500D02*
D03*
Y368500D02*
D03*
D47*
X85850Y395000D02*
D03*
X92150D02*
D03*
X102721Y274718D02*
D03*
X96421D02*
D03*
X102721Y305218D02*
D03*
X96422D02*
D03*
X102721Y292718D02*
D03*
X96422D02*
D03*
X102721Y254718D02*
D03*
X96421D02*
D03*
X74351Y245000D02*
D03*
X80650D02*
D03*
X116850Y230000D02*
D03*
X123150D02*
D03*
X116850Y200000D02*
D03*
X123150D02*
D03*
X116850Y220000D02*
D03*
X123150D02*
D03*
X116850Y210000D02*
D03*
X123150D02*
D03*
X306850Y120000D02*
D03*
X313150D02*
D03*
D48*
X129000Y335752D02*
D03*
Y342248D02*
D03*
X121000D02*
D03*
Y335752D02*
D03*
X141000Y346087D02*
D03*
Y339591D02*
D03*
Y383248D02*
D03*
Y376752D02*
D03*
D49*
X240000Y145571D02*
D03*
Y154429D02*
D03*
X230000Y145571D02*
D03*
Y154429D02*
D03*
X220000Y145571D02*
D03*
Y154429D02*
D03*
D50*
X230000Y138642D02*
D03*
Y131358D02*
D03*
X240000Y138642D02*
D03*
Y131358D02*
D03*
X220000Y138642D02*
D03*
X220000Y131358D02*
D03*
X210000Y349358D02*
D03*
Y356642D02*
D03*
D51*
X170000Y358150D02*
D03*
Y351851D02*
D03*
X280000Y158150D02*
D03*
Y151850D02*
D03*
X310000Y321850D02*
D03*
Y328150D02*
D03*
D52*
X81142Y235000D02*
D03*
X73858D02*
D03*
X236358Y60000D02*
D03*
X243642D02*
D03*
X236358Y70000D02*
D03*
X243642D02*
D03*
X236358Y80000D02*
D03*
X243642D02*
D03*
X236358Y90000D02*
D03*
X243642D02*
D03*
X236358Y100000D02*
D03*
X243642D02*
D03*
X236358Y110000D02*
D03*
X243642D02*
D03*
D53*
X214173Y270945D02*
D03*
X216142D02*
D03*
X218110Y270945D02*
D03*
X220079D02*
D03*
X222047Y270945D02*
D03*
X224016D02*
D03*
X225984D02*
D03*
X227953D02*
D03*
X229921Y270945D02*
D03*
X231890D02*
D03*
X233858Y270945D02*
D03*
X235827D02*
D03*
Y239055D02*
D03*
X233858Y239055D02*
D03*
X231890Y239055D02*
D03*
X229921D02*
D03*
X227953Y239055D02*
D03*
X225984Y239055D02*
D03*
X224016Y239055D02*
D03*
X222047Y239055D02*
D03*
X220079Y239055D02*
D03*
X218110Y239055D02*
D03*
X216142Y239055D02*
D03*
X214173Y239055D02*
D03*
D54*
X240945Y265827D02*
D03*
X240945Y263858D02*
D03*
Y261890D02*
D03*
Y259921D02*
D03*
X240945Y257953D02*
D03*
Y255984D02*
D03*
X240945Y254016D02*
D03*
Y252047D02*
D03*
Y250079D02*
D03*
Y248110D02*
D03*
X240945Y246142D02*
D03*
X240945Y244173D02*
D03*
X209055D02*
D03*
Y246142D02*
D03*
Y248110D02*
D03*
Y250079D02*
D03*
Y252047D02*
D03*
Y254016D02*
D03*
X209055Y255984D02*
D03*
Y257953D02*
D03*
X209055Y259921D02*
D03*
Y261890D02*
D03*
Y263858D02*
D03*
Y265827D02*
D03*
D55*
X86000Y383906D02*
D03*
Y372094D02*
D03*
X90000Y335094D02*
D03*
Y346905D02*
D03*
D56*
X141000Y401543D02*
D03*
Y394457D02*
D03*
Y364543D02*
D03*
Y357457D02*
D03*
D57*
X65000Y337000D02*
D03*
Y359000D02*
D03*
D58*
X50000Y280000D02*
D03*
X60000D02*
D03*
X80000D02*
D03*
X70000D02*
D03*
Y270000D02*
D03*
X80000D02*
D03*
X60000D02*
D03*
X50000D02*
D03*
Y310000D02*
D03*
X60000D02*
D03*
X80000D02*
D03*
X70000D02*
D03*
X50000Y290000D02*
D03*
X60000D02*
D03*
X80000D02*
D03*
X70000D02*
D03*
Y300000D02*
D03*
X80000D02*
D03*
X60000D02*
D03*
X50000D02*
D03*
X60000Y130000D02*
D03*
X50000D02*
D03*
X70000D02*
D03*
X90000D02*
D03*
X80000D02*
D03*
Y120000D02*
D03*
X90000D02*
D03*
X70000D02*
D03*
X50000D02*
D03*
X60000D02*
D03*
Y150000D02*
D03*
X50000D02*
D03*
X70000D02*
D03*
X90000D02*
D03*
X80000D02*
D03*
Y140000D02*
D03*
X90000D02*
D03*
X70000D02*
D03*
X50000D02*
D03*
X60000D02*
D03*
Y170000D02*
D03*
X50000D02*
D03*
X70000D02*
D03*
X90000D02*
D03*
X80000D02*
D03*
Y160000D02*
D03*
X90000D02*
D03*
X70000D02*
D03*
X50000D02*
D03*
X60000D02*
D03*
X80000Y180000D02*
D03*
X90000D02*
D03*
X70000D02*
D03*
X50000D02*
D03*
X60000D02*
D03*
Y100000D02*
D03*
X50000D02*
D03*
X70000D02*
D03*
X90000D02*
D03*
X80000D02*
D03*
Y110000D02*
D03*
X90000D02*
D03*
X70000D02*
D03*
X50000D02*
D03*
X60000D02*
D03*
X80000Y90000D02*
D03*
X90000D02*
D03*
X70000D02*
D03*
X50000D02*
D03*
X60000D02*
D03*
X300000Y170000D02*
D03*
Y190000D02*
D03*
Y180000D02*
D03*
X310000Y170000D02*
D03*
Y160000D02*
D03*
Y190000D02*
D03*
Y180000D02*
D03*
X320000Y350000D02*
D03*
Y380000D02*
D03*
Y370000D02*
D03*
Y360000D02*
D03*
Y390000D02*
D03*
Y400000D02*
D03*
X170000Y380000D02*
D03*
X190000D02*
D03*
X180000D02*
D03*
X210000D02*
D03*
X200000D02*
D03*
X170000Y410000D02*
D03*
X180000D02*
D03*
Y420000D02*
D03*
X170000D02*
D03*
Y400000D02*
D03*
X190000D02*
D03*
X180000D02*
D03*
X220000D02*
D03*
X210000D02*
D03*
X200000D02*
D03*
Y390000D02*
D03*
X210000D02*
D03*
X220000D02*
D03*
X180000D02*
D03*
X190000D02*
D03*
X170000D02*
D03*
X190000Y420000D02*
D03*
X200000D02*
D03*
X220000D02*
D03*
X210000D02*
D03*
X250000D02*
D03*
X240000D02*
D03*
X230000D02*
D03*
Y410000D02*
D03*
X240000D02*
D03*
X250000D02*
D03*
X210000D02*
D03*
X220000D02*
D03*
X200000D02*
D03*
X190000D02*
D03*
X260000Y420000D02*
D03*
X270000D02*
D03*
X290000D02*
D03*
X280000D02*
D03*
X320000D02*
D03*
X310000D02*
D03*
X300000D02*
D03*
Y410000D02*
D03*
X310000D02*
D03*
X320000D02*
D03*
X280000D02*
D03*
X290000D02*
D03*
X270000D02*
D03*
X260000D02*
D03*
X400000Y120000D02*
D03*
X420000D02*
D03*
X410000D02*
D03*
X400000Y100000D02*
D03*
X420000D02*
D03*
X410000D02*
D03*
Y110000D02*
D03*
X420000D02*
D03*
X400000D02*
D03*
Y80000D02*
D03*
X420000D02*
D03*
X410000D02*
D03*
Y90000D02*
D03*
X420000D02*
D03*
X400000D02*
D03*
X330000Y400000D02*
D03*
X340000D02*
D03*
X360000D02*
D03*
X350000D02*
D03*
X390000D02*
D03*
X380000D02*
D03*
X370000D02*
D03*
X330000Y410000D02*
D03*
X340000D02*
D03*
X360000D02*
D03*
X350000D02*
D03*
X390000D02*
D03*
X380000D02*
D03*
X370000D02*
D03*
Y420000D02*
D03*
X380000D02*
D03*
X390000D02*
D03*
X350000D02*
D03*
X360000D02*
D03*
X340000D02*
D03*
X330000D02*
D03*
X320000Y280000D02*
D03*
Y290000D02*
D03*
Y210000D02*
D03*
Y200000D02*
D03*
Y230000D02*
D03*
Y220000D02*
D03*
Y250000D02*
D03*
Y240000D02*
D03*
Y270000D02*
D03*
Y260000D02*
D03*
Y180000D02*
D03*
Y190000D02*
D03*
Y160000D02*
D03*
Y170000D02*
D03*
Y140000D02*
D03*
Y130000D02*
D03*
Y150000D02*
D03*
X330000D02*
D03*
X340000D02*
D03*
X360000D02*
D03*
X350000D02*
D03*
X390000D02*
D03*
X380000D02*
D03*
X370000D02*
D03*
X400000D02*
D03*
X420000D02*
D03*
X410000D02*
D03*
X330000Y130000D02*
D03*
X340000D02*
D03*
X360000D02*
D03*
X350000D02*
D03*
X390000D02*
D03*
X380000D02*
D03*
X370000D02*
D03*
X400000D02*
D03*
X420000D02*
D03*
X410000D02*
D03*
Y140000D02*
D03*
X420000D02*
D03*
X400000D02*
D03*
X370000D02*
D03*
X380000D02*
D03*
X390000D02*
D03*
X350000D02*
D03*
X360000D02*
D03*
X340000D02*
D03*
X330000D02*
D03*
Y170000D02*
D03*
X340000D02*
D03*
X360000D02*
D03*
X350000D02*
D03*
X390000D02*
D03*
X380000D02*
D03*
X370000D02*
D03*
X400000D02*
D03*
X420000D02*
D03*
X410000D02*
D03*
Y160000D02*
D03*
X420000D02*
D03*
X400000D02*
D03*
X370000D02*
D03*
X380000D02*
D03*
X390000D02*
D03*
X350000D02*
D03*
X360000D02*
D03*
X340000D02*
D03*
X330000D02*
D03*
Y190000D02*
D03*
X340000D02*
D03*
X360000D02*
D03*
X350000D02*
D03*
X390000D02*
D03*
X380000D02*
D03*
X370000D02*
D03*
X400000D02*
D03*
X420000D02*
D03*
X410000D02*
D03*
Y180000D02*
D03*
X420000D02*
D03*
X400000D02*
D03*
X370000D02*
D03*
X380000D02*
D03*
X390000D02*
D03*
X350000D02*
D03*
X360000D02*
D03*
X340000D02*
D03*
X330000D02*
D03*
Y260000D02*
D03*
X340000D02*
D03*
X360000D02*
D03*
X350000D02*
D03*
X390000D02*
D03*
X380000D02*
D03*
X370000D02*
D03*
X400000D02*
D03*
X420000D02*
D03*
X410000D02*
D03*
Y270000D02*
D03*
X420000D02*
D03*
X400000D02*
D03*
X370000D02*
D03*
X380000D02*
D03*
X390000D02*
D03*
X350000D02*
D03*
X360000D02*
D03*
X340000D02*
D03*
X330000D02*
D03*
Y240000D02*
D03*
X340000D02*
D03*
X360000D02*
D03*
X350000D02*
D03*
X390000D02*
D03*
X380000D02*
D03*
X370000D02*
D03*
X400000D02*
D03*
X420000D02*
D03*
X410000D02*
D03*
Y250000D02*
D03*
X420000D02*
D03*
X400000D02*
D03*
X370000D02*
D03*
X380000D02*
D03*
X390000D02*
D03*
X350000D02*
D03*
X360000D02*
D03*
X340000D02*
D03*
X330000D02*
D03*
Y220000D02*
D03*
X340000D02*
D03*
X360000D02*
D03*
X350000D02*
D03*
X390000D02*
D03*
X380000D02*
D03*
X370000D02*
D03*
X400000D02*
D03*
X420000D02*
D03*
X410000D02*
D03*
Y230000D02*
D03*
X420000D02*
D03*
X400000D02*
D03*
X370000D02*
D03*
X380000D02*
D03*
X390000D02*
D03*
X350000D02*
D03*
X360000D02*
D03*
X340000D02*
D03*
X330000D02*
D03*
Y200000D02*
D03*
X340000D02*
D03*
X360000D02*
D03*
X350000D02*
D03*
X390000D02*
D03*
X380000D02*
D03*
X370000D02*
D03*
X400000D02*
D03*
X420000D02*
D03*
X410000D02*
D03*
Y210000D02*
D03*
X420000D02*
D03*
X400000D02*
D03*
X370000D02*
D03*
X380000D02*
D03*
X390000D02*
D03*
X350000D02*
D03*
X360000D02*
D03*
X340000D02*
D03*
X330000D02*
D03*
Y390000D02*
D03*
X340000D02*
D03*
X360000D02*
D03*
X350000D02*
D03*
X390000D02*
D03*
X380000D02*
D03*
X370000D02*
D03*
X400000D02*
D03*
X420000D02*
D03*
X410000D02*
D03*
Y380000D02*
D03*
X420000D02*
D03*
X400000D02*
D03*
X370000D02*
D03*
X380000D02*
D03*
X390000D02*
D03*
X350000D02*
D03*
X360000D02*
D03*
X340000D02*
D03*
X330000D02*
D03*
Y290000D02*
D03*
X340000D02*
D03*
X360000D02*
D03*
X350000D02*
D03*
X390000D02*
D03*
X380000D02*
D03*
X370000D02*
D03*
X400000D02*
D03*
X420000D02*
D03*
X410000D02*
D03*
Y280000D02*
D03*
X420000D02*
D03*
X400000D02*
D03*
X370000D02*
D03*
X380000D02*
D03*
X390000D02*
D03*
X350000D02*
D03*
X360000D02*
D03*
X340000D02*
D03*
X330000D02*
D03*
Y310000D02*
D03*
X340000D02*
D03*
X360000D02*
D03*
X350000D02*
D03*
X390000D02*
D03*
X380000D02*
D03*
X370000D02*
D03*
X400000D02*
D03*
X420000D02*
D03*
X410000D02*
D03*
Y300000D02*
D03*
X420000D02*
D03*
X400000D02*
D03*
X370000D02*
D03*
X380000D02*
D03*
X390000D02*
D03*
X350000D02*
D03*
X360000D02*
D03*
X340000D02*
D03*
X330000D02*
D03*
Y330000D02*
D03*
X340000D02*
D03*
X360000D02*
D03*
X350000D02*
D03*
X390000D02*
D03*
X380000D02*
D03*
X370000D02*
D03*
X400000D02*
D03*
X420000D02*
D03*
X410000D02*
D03*
Y320000D02*
D03*
X420000D02*
D03*
X400000D02*
D03*
X370000D02*
D03*
X380000D02*
D03*
X390000D02*
D03*
X350000D02*
D03*
X360000D02*
D03*
X340000D02*
D03*
X330000D02*
D03*
Y350000D02*
D03*
X340000D02*
D03*
X360000D02*
D03*
X350000D02*
D03*
X390000D02*
D03*
X380000D02*
D03*
X370000D02*
D03*
X400000D02*
D03*
X420000D02*
D03*
X410000D02*
D03*
Y340000D02*
D03*
X420000D02*
D03*
X400000D02*
D03*
X370000D02*
D03*
X380000D02*
D03*
X390000D02*
D03*
X350000D02*
D03*
X360000D02*
D03*
X340000D02*
D03*
X330000D02*
D03*
Y360000D02*
D03*
X340000D02*
D03*
X360000D02*
D03*
X350000D02*
D03*
X390000D02*
D03*
X380000D02*
D03*
X370000D02*
D03*
X400000D02*
D03*
X420000D02*
D03*
X410000D02*
D03*
Y370000D02*
D03*
X420000D02*
D03*
X400000D02*
D03*
X370000D02*
D03*
X380000D02*
D03*
X390000D02*
D03*
X350000D02*
D03*
X360000D02*
D03*
X340000D02*
D03*
X330000D02*
D03*
X110000Y420000D02*
D03*
X130000D02*
D03*
X140000Y220000D02*
D03*
Y240000D02*
D03*
X310000Y310000D02*
D03*
X270000Y170000D02*
D03*
X140000Y230000D02*
D03*
Y310000D02*
D03*
X190000Y170000D02*
D03*
X170000Y340000D02*
D03*
X210000Y170000D02*
D03*
X220000D02*
D03*
X230000D02*
D03*
X240000D02*
D03*
X250000D02*
D03*
X260016D02*
D03*
X310000Y300000D02*
D03*
X190000Y340000D02*
D03*
X200000Y340000D02*
D03*
X220000D02*
D03*
X230000Y340000D02*
D03*
X240000Y340000D02*
D03*
X260000D02*
D03*
X270000Y340000D02*
D03*
X280000D02*
D03*
X310000Y290000D02*
D03*
X310000Y280000D02*
D03*
Y270000D02*
D03*
X310000Y260000D02*
D03*
X310000Y250000D02*
D03*
X250000Y340000D02*
D03*
X310000Y240000D02*
D03*
X140000Y290000D02*
D03*
X310000Y220000D02*
D03*
Y210000D02*
D03*
X310000Y200000D02*
D03*
X210000Y340000D02*
D03*
X180000D02*
D03*
X140000Y300000D02*
D03*
Y280000D02*
D03*
Y270000D02*
D03*
Y260000D02*
D03*
Y210000D02*
D03*
Y200000D02*
D03*
X310000Y230000D02*
D03*
X170000Y170000D02*
D03*
X180000D02*
D03*
X200000D02*
D03*
X280000D02*
D03*
X140000Y250000D02*
D03*
X360000Y110000D02*
D03*
Y100000D02*
D03*
Y90000D02*
D03*
Y80000D02*
D03*
Y70000D02*
D03*
Y60000D02*
D03*
X260000Y110000D02*
D03*
Y100000D02*
D03*
Y90000D02*
D03*
Y80000D02*
D03*
Y70000D02*
D03*
Y60000D02*
D03*
X110000Y50000D02*
D03*
X120000D02*
D03*
X130000Y60000D02*
D03*
Y50000D02*
D03*
X140000Y60000D02*
D03*
Y50000D02*
D03*
X150000Y60000D02*
D03*
Y50000D02*
D03*
X160000Y60000D02*
D03*
Y50000D02*
D03*
X110000Y160000D02*
D03*
X120000D02*
D03*
X130000D02*
D03*
X140000D02*
D03*
X150000D02*
D03*
X160000D02*
D03*
X170000D02*
D03*
X110000Y60000D02*
D03*
X120000D02*
D03*
X170000D02*
D03*
Y50000D02*
D03*
X90000D02*
D03*
Y420000D02*
D03*
D59*
X120000Y295835D02*
D03*
Y300165D02*
D03*
D60*
X120000Y274606D02*
D03*
D61*
X120000Y255394D02*
D03*
D62*
X270000Y380000D02*
D03*
Y370000D02*
D03*
X260000Y380000D02*
D03*
Y370000D02*
D03*
X250000Y380000D02*
D03*
X280000Y370000D02*
D03*
Y380000D02*
D03*
X290000Y370000D02*
D03*
Y380000D02*
D03*
D63*
X250000Y370000D02*
D03*
D64*
X60000Y410000D02*
D03*
Y60000D02*
D03*
X410000D02*
D03*
Y410000D02*
D03*
D65*
X106000Y338063D02*
D03*
D66*
Y345937D02*
D03*
D67*
X187000Y250000D02*
D03*
X131000Y391000D02*
D03*
X75000Y393000D02*
D03*
X96000Y246000D02*
D03*
X322106Y64492D02*
D03*
X300106Y102492D02*
D03*
Y92492D02*
D03*
X300114Y82500D02*
D03*
X341098Y77500D02*
D03*
X217000Y256000D02*
D03*
X293000Y145000D02*
D03*
X75000Y378000D02*
D03*
X136000Y334000D02*
D03*
X98000Y317000D02*
D03*
X220000Y248000D02*
D03*
X224000Y263000D02*
D03*
X230000Y254000D02*
D03*
X234000Y259000D02*
D03*
M02*
