G04 Layer_Physical_Order=2*
G04 Layer_Color=11436288*
%FSLAX25Y25*%
%MOIN*%
G70*
G01*
G75*
%ADD13R,0.05118X0.05709*%
%ADD24C,0.03000*%
%ADD25C,0.01000*%
%ADD28C,0.08000*%
%ADD29O,0.03937X0.02953*%
%ADD30C,0.04724*%
%ADD31R,0.04724X0.04724*%
%ADD32C,0.06000*%
%ADD33R,0.06000X0.06000*%
%ADD34C,0.25984*%
%ADD35R,0.05118X0.05118*%
%ADD36C,0.05118*%
%ADD37C,0.02000*%
G36*
X433071Y39370D02*
X39370D01*
Y433071D01*
X433071D01*
Y39370D01*
D02*
G37*
%LPC*%
G36*
X260016Y176531D02*
X258742Y176406D01*
X257516Y176034D01*
X256387Y175431D01*
X255397Y174618D01*
X255258Y174449D01*
X254758D01*
X254619Y174618D01*
X253629Y175431D01*
X252500Y176034D01*
X251274Y176406D01*
X250000Y176531D01*
X248726Y176406D01*
X247501Y176034D01*
X246372Y175431D01*
X245382Y174618D01*
X245250Y174458D01*
X244750D01*
X244618Y174618D01*
X243629Y175431D01*
X242499Y176034D01*
X241274Y176406D01*
X240000Y176531D01*
X238726Y176406D01*
X237501Y176034D01*
X236371Y175431D01*
X235382Y174618D01*
X235250Y174458D01*
X234750D01*
X234618Y174618D01*
X233629Y175431D01*
X232500Y176034D01*
X231274Y176406D01*
X230000Y176531D01*
X228726Y176406D01*
X227501Y176034D01*
X226371Y175431D01*
X225382Y174618D01*
X225250Y174458D01*
X224750D01*
X224618Y174618D01*
X223628Y175431D01*
X222499Y176034D01*
X221274Y176406D01*
X220000Y176531D01*
X218726Y176406D01*
X217500Y176034D01*
X216371Y175431D01*
X215381Y174618D01*
X215250Y174458D01*
X214750D01*
X214618Y174618D01*
X213629Y175431D01*
X212499Y176034D01*
X211274Y176406D01*
X210000Y176531D01*
X208726Y176406D01*
X207501Y176034D01*
X206371Y175431D01*
X205382Y174618D01*
X205250Y174458D01*
X204750D01*
X204618Y174618D01*
X203629Y175431D01*
X202500Y176034D01*
X201274Y176406D01*
X200000Y176531D01*
X198726Y176406D01*
X197501Y176034D01*
X196371Y175431D01*
X195382Y174618D01*
X195250Y174458D01*
X194750D01*
X194618Y174618D01*
X193629Y175431D01*
X192499Y176034D01*
X191274Y176406D01*
X190000Y176531D01*
X188726Y176406D01*
X187501Y176034D01*
X186371Y175431D01*
X185382Y174618D01*
X185250Y174458D01*
X184750D01*
X184618Y174618D01*
X183629Y175431D01*
X182500Y176034D01*
X181274Y176406D01*
X180000Y176531D01*
X178726Y176406D01*
X177500Y176034D01*
X176371Y175431D01*
X175382Y174618D01*
X175250Y174458D01*
X174750D01*
X174618Y174618D01*
X173629Y175431D01*
X172500Y176034D01*
X171274Y176406D01*
X170000Y176531D01*
X168726Y176406D01*
X167500Y176034D01*
X166371Y175431D01*
X165382Y174618D01*
X164569Y173629D01*
X163966Y172500D01*
X163594Y171274D01*
X163469Y170000D01*
X163594Y168726D01*
X163966Y167500D01*
X164569Y166371D01*
X165382Y165382D01*
X165542Y165250D01*
Y164750D01*
X165382Y164618D01*
X165250Y164458D01*
X164750D01*
X164618Y164618D01*
X163629Y165431D01*
X162499Y166034D01*
X161274Y166406D01*
X160000Y166531D01*
X158726Y166406D01*
X157501Y166034D01*
X156371Y165431D01*
X155382Y164618D01*
X155250Y164458D01*
X154750D01*
X154618Y164618D01*
X153629Y165431D01*
X152499Y166034D01*
X151274Y166406D01*
X150000Y166531D01*
X148726Y166406D01*
X147501Y166034D01*
X146371Y165431D01*
X145382Y164618D01*
X145250Y164458D01*
X144750D01*
X144618Y164618D01*
X143629Y165431D01*
X142499Y166034D01*
X141274Y166406D01*
X140000Y166531D01*
X138726Y166406D01*
X137501Y166034D01*
X136371Y165431D01*
X135382Y164618D01*
X135250Y164458D01*
X134750D01*
X134618Y164618D01*
X133629Y165431D01*
X132500Y166034D01*
X131274Y166406D01*
X130000Y166531D01*
X128726Y166406D01*
X127500Y166034D01*
X126371Y165431D01*
X125382Y164618D01*
X125250Y164458D01*
X124750D01*
X124618Y164618D01*
X123629Y165431D01*
X122500Y166034D01*
X121274Y166406D01*
X120000Y166531D01*
X118726Y166406D01*
X117500Y166034D01*
X116371Y165431D01*
X115382Y164618D01*
X115250Y164458D01*
X114750D01*
X114618Y164618D01*
X113629Y165431D01*
X112499Y166034D01*
X111274Y166406D01*
X110000Y166531D01*
X108726Y166406D01*
X107501Y166034D01*
X106371Y165431D01*
X105382Y164618D01*
X104569Y163629D01*
X103966Y162499D01*
X103594Y161274D01*
X103469Y160000D01*
X103594Y158726D01*
X103966Y157501D01*
X104569Y156371D01*
X105382Y155382D01*
X106371Y154569D01*
X107501Y153966D01*
X108726Y153594D01*
X110000Y153469D01*
X111274Y153594D01*
X112499Y153966D01*
X113629Y154569D01*
X114618Y155382D01*
X114750Y155542D01*
X115250D01*
X115382Y155382D01*
X116371Y154569D01*
X117500Y153966D01*
X118726Y153594D01*
X120000Y153469D01*
X121274Y153594D01*
X122500Y153966D01*
X123629Y154569D01*
X124618Y155382D01*
X124750Y155542D01*
X125250D01*
X125382Y155382D01*
X126371Y154569D01*
X127500Y153966D01*
X128726Y153594D01*
X130000Y153469D01*
X131274Y153594D01*
X132500Y153966D01*
X133629Y154569D01*
X134618Y155382D01*
X134750Y155542D01*
X135250D01*
X135382Y155382D01*
X136371Y154569D01*
X137501Y153966D01*
X138726Y153594D01*
X140000Y153469D01*
X141274Y153594D01*
X142499Y153966D01*
X143629Y154569D01*
X144618Y155382D01*
X144750Y155542D01*
X145250D01*
X145382Y155382D01*
X146371Y154569D01*
X147501Y153966D01*
X148726Y153594D01*
X150000Y153469D01*
X151274Y153594D01*
X152499Y153966D01*
X153629Y154569D01*
X154618Y155382D01*
X154750Y155542D01*
X155250D01*
X155382Y155382D01*
X156371Y154569D01*
X157501Y153966D01*
X158726Y153594D01*
X160000Y153469D01*
X161274Y153594D01*
X162499Y153966D01*
X163629Y154569D01*
X164618Y155382D01*
X164750Y155542D01*
X165250D01*
X165382Y155382D01*
X166371Y154569D01*
X167500Y153966D01*
X168726Y153594D01*
X170000Y153469D01*
X171274Y153594D01*
X172500Y153966D01*
X173629Y154569D01*
X174618Y155382D01*
X175431Y156371D01*
X176034Y157501D01*
X176406Y158726D01*
X176531Y160000D01*
X176406Y161274D01*
X176034Y162499D01*
X175431Y163629D01*
X174618Y164618D01*
X174529Y164692D01*
X174512Y165217D01*
X174784Y165488D01*
X175308Y165471D01*
X175382Y165382D01*
X176371Y164569D01*
X177500Y163966D01*
X178726Y163594D01*
X180000Y163469D01*
X181274Y163594D01*
X182500Y163966D01*
X183629Y164569D01*
X184618Y165382D01*
X184750Y165542D01*
X185250D01*
X185382Y165382D01*
X186371Y164569D01*
X187501Y163966D01*
X188726Y163594D01*
X190000Y163469D01*
X191274Y163594D01*
X192499Y163966D01*
X193629Y164569D01*
X194618Y165382D01*
X194750Y165542D01*
X195250D01*
X195382Y165382D01*
X196371Y164569D01*
X197501Y163966D01*
X198726Y163594D01*
X200000Y163469D01*
X201274Y163594D01*
X202500Y163966D01*
X203629Y164569D01*
X204618Y165382D01*
X204750Y165542D01*
X205250D01*
X205382Y165382D01*
X206371Y164569D01*
X207501Y163966D01*
X208726Y163594D01*
X210000Y163469D01*
X211274Y163594D01*
X212499Y163966D01*
X213629Y164569D01*
X214618Y165382D01*
X214750Y165542D01*
X215250D01*
X215381Y165382D01*
X216371Y164569D01*
X217500Y163966D01*
X218726Y163594D01*
X220000Y163469D01*
X221274Y163594D01*
X222499Y163966D01*
X223628Y164569D01*
X224618Y165382D01*
X224750Y165542D01*
X225250D01*
X225382Y165382D01*
X226371Y164569D01*
X227501Y163966D01*
X228726Y163594D01*
X230000Y163469D01*
X231274Y163594D01*
X232500Y163966D01*
X233629Y164569D01*
X234618Y165382D01*
X234750Y165542D01*
X235250D01*
X235382Y165382D01*
X236371Y164569D01*
X237501Y163966D01*
X238726Y163594D01*
X240000Y163469D01*
X241274Y163594D01*
X242499Y163966D01*
X243629Y164569D01*
X244618Y165382D01*
X244750Y165542D01*
X245250D01*
X245382Y165382D01*
X246372Y164569D01*
X247501Y163966D01*
X248726Y163594D01*
X250000Y163469D01*
X251274Y163594D01*
X252500Y163966D01*
X253629Y164569D01*
X254619Y165382D01*
X254758Y165551D01*
X255258D01*
X255397Y165382D01*
X256387Y164569D01*
X257516Y163966D01*
X258742Y163594D01*
X260016Y163469D01*
X261290Y163594D01*
X262515Y163966D01*
X263645Y164569D01*
X264634Y165382D01*
X265446Y166371D01*
X266050Y167500D01*
X266422Y168726D01*
X266547Y170000D01*
X266422Y171274D01*
X266050Y172500D01*
X265446Y173629D01*
X264634Y174618D01*
X263645Y175431D01*
X262515Y176034D01*
X261290Y176406D01*
X260016Y176531D01*
D02*
G37*
G36*
X420000Y126531D02*
X418726Y126406D01*
X417500Y126034D01*
X416371Y125431D01*
X415382Y124618D01*
X415250Y124458D01*
X414750D01*
X414618Y124618D01*
X413629Y125431D01*
X412500Y126034D01*
X411274Y126406D01*
X410000Y126531D01*
X408726Y126406D01*
X407501Y126034D01*
X406371Y125431D01*
X405382Y124618D01*
X405250Y124458D01*
X404750D01*
X404618Y124618D01*
X403629Y125431D01*
X402499Y126034D01*
X401274Y126406D01*
X400000Y126531D01*
X398726Y126406D01*
X397500Y126034D01*
X396371Y125431D01*
X395382Y124618D01*
X394569Y123629D01*
X393966Y122500D01*
X393594Y121274D01*
X393469Y120000D01*
X393594Y118726D01*
X393966Y117500D01*
X394569Y116371D01*
X395382Y115382D01*
X395542Y115250D01*
Y114750D01*
X395382Y114618D01*
X394569Y113629D01*
X393966Y112499D01*
X393594Y111274D01*
X393469Y110000D01*
X393594Y108726D01*
X393966Y107501D01*
X394569Y106371D01*
X395382Y105382D01*
X395542Y105250D01*
Y104750D01*
X395382Y104618D01*
X394569Y103629D01*
X393966Y102499D01*
X393594Y101274D01*
X393469Y100000D01*
X393594Y98726D01*
X393966Y97500D01*
X394569Y96371D01*
X395382Y95382D01*
X395542Y95250D01*
Y94750D01*
X395382Y94618D01*
X394569Y93629D01*
X393966Y92500D01*
X393594Y91274D01*
X393469Y90000D01*
X393594Y88726D01*
X393966Y87501D01*
X394569Y86371D01*
X395382Y85382D01*
X395542Y85250D01*
Y84750D01*
X395382Y84618D01*
X394569Y83629D01*
X393966Y82499D01*
X393594Y81274D01*
X393469Y80000D01*
X393594Y78726D01*
X393966Y77500D01*
X394569Y76371D01*
X395382Y75382D01*
X396371Y74569D01*
X397500Y73966D01*
X398726Y73594D01*
X400000Y73469D01*
X401274Y73594D01*
X401873Y73776D01*
X402079Y73316D01*
X400866Y72572D01*
X399011Y70989D01*
X397428Y69134D01*
X396154Y67055D01*
X395221Y64802D01*
X394651Y62431D01*
X394460Y60000D01*
X394651Y57569D01*
X395221Y55198D01*
X396154Y52945D01*
X397428Y50866D01*
X399011Y49011D01*
X400866Y47428D01*
X402945Y46154D01*
X405198Y45221D01*
X407569Y44651D01*
X410000Y44460D01*
X412431Y44651D01*
X414802Y45221D01*
X417055Y46154D01*
X419134Y47428D01*
X420989Y49011D01*
X422572Y50866D01*
X423846Y52945D01*
X424779Y55198D01*
X425349Y57569D01*
X425540Y60000D01*
X425349Y62431D01*
X424779Y64802D01*
X423846Y67055D01*
X422572Y69134D01*
X420989Y70989D01*
X419134Y72572D01*
X417921Y73316D01*
X418127Y73776D01*
X418726Y73594D01*
X420000Y73469D01*
X421274Y73594D01*
X422500Y73966D01*
X423629Y74569D01*
X424618Y75382D01*
X425431Y76371D01*
X426034Y77500D01*
X426406Y78726D01*
X426532Y80000D01*
X426406Y81274D01*
X426034Y82499D01*
X425431Y83629D01*
X424618Y84618D01*
X424458Y84750D01*
Y85250D01*
X424618Y85382D01*
X425431Y86371D01*
X426034Y87501D01*
X426406Y88726D01*
X426532Y90000D01*
X426406Y91274D01*
X426034Y92500D01*
X425431Y93629D01*
X424618Y94618D01*
X424458Y94750D01*
Y95250D01*
X424618Y95382D01*
X425431Y96371D01*
X426034Y97500D01*
X426406Y98726D01*
X426532Y100000D01*
X426406Y101274D01*
X426034Y102499D01*
X425431Y103629D01*
X424618Y104618D01*
X424458Y104750D01*
Y105250D01*
X424618Y105382D01*
X425431Y106371D01*
X426034Y107501D01*
X426406Y108726D01*
X426532Y110000D01*
X426406Y111274D01*
X426034Y112499D01*
X425431Y113629D01*
X424618Y114618D01*
X424458Y114750D01*
Y115250D01*
X424618Y115382D01*
X425431Y116371D01*
X426034Y117500D01*
X426406Y118726D01*
X426532Y120000D01*
X426406Y121274D01*
X426034Y122500D01*
X425431Y123629D01*
X424618Y124618D01*
X423629Y125431D01*
X422500Y126034D01*
X421274Y126406D01*
X420000Y126531D01*
D02*
G37*
G36*
X90000Y186531D02*
X88726Y186406D01*
X87501Y186034D01*
X86371Y185431D01*
X85382Y184618D01*
X85250Y184458D01*
X84750D01*
X84618Y184618D01*
X83629Y185431D01*
X82499Y186034D01*
X81274Y186406D01*
X80000Y186531D01*
X78726Y186406D01*
X77500Y186034D01*
X76371Y185431D01*
X75382Y184618D01*
X75250Y184458D01*
X74750D01*
X74618Y184618D01*
X73629Y185431D01*
X72500Y186034D01*
X71274Y186406D01*
X70000Y186531D01*
X68726Y186406D01*
X67501Y186034D01*
X66371Y185431D01*
X65382Y184618D01*
X65250Y184458D01*
X64750D01*
X64618Y184618D01*
X63629Y185431D01*
X62499Y186034D01*
X61274Y186406D01*
X60000Y186531D01*
X58726Y186406D01*
X57500Y186034D01*
X56371Y185431D01*
X55382Y184618D01*
X55250Y184458D01*
X54750D01*
X54618Y184618D01*
X53629Y185431D01*
X52500Y186034D01*
X51274Y186406D01*
X50000Y186531D01*
X48726Y186406D01*
X47501Y186034D01*
X46371Y185431D01*
X45382Y184618D01*
X44569Y183629D01*
X43966Y182500D01*
X43594Y181274D01*
X43468Y180000D01*
X43594Y178726D01*
X43966Y177500D01*
X44569Y176371D01*
X45382Y175382D01*
X45542Y175250D01*
Y174750D01*
X45382Y174618D01*
X44569Y173629D01*
X43966Y172500D01*
X43594Y171274D01*
X43468Y170000D01*
X43594Y168726D01*
X43966Y167500D01*
X44569Y166371D01*
X45382Y165382D01*
X45542Y165250D01*
Y164750D01*
X45382Y164618D01*
X44569Y163629D01*
X43966Y162499D01*
X43594Y161274D01*
X43468Y160000D01*
X43594Y158726D01*
X43966Y157501D01*
X44569Y156371D01*
X45382Y155382D01*
X45542Y155250D01*
Y154750D01*
X45382Y154618D01*
X44569Y153629D01*
X43966Y152499D01*
X43594Y151274D01*
X43468Y150000D01*
X43594Y148726D01*
X43966Y147501D01*
X44569Y146371D01*
X45382Y145382D01*
X45542Y145250D01*
Y144750D01*
X45382Y144618D01*
X44569Y143629D01*
X43966Y142499D01*
X43594Y141274D01*
X43468Y140000D01*
X43594Y138726D01*
X43966Y137501D01*
X44569Y136371D01*
X45382Y135382D01*
X45542Y135250D01*
Y134750D01*
X45382Y134618D01*
X44569Y133629D01*
X43966Y132500D01*
X43594Y131274D01*
X43468Y130000D01*
X43594Y128726D01*
X43966Y127500D01*
X44569Y126371D01*
X45382Y125382D01*
X45542Y125250D01*
Y124750D01*
X45382Y124618D01*
X44569Y123629D01*
X43966Y122500D01*
X43594Y121274D01*
X43468Y120000D01*
X43594Y118726D01*
X43966Y117500D01*
X44569Y116371D01*
X45382Y115382D01*
X45542Y115250D01*
Y114750D01*
X45382Y114618D01*
X44569Y113629D01*
X43966Y112499D01*
X43594Y111274D01*
X43468Y110000D01*
X43594Y108726D01*
X43966Y107501D01*
X44569Y106371D01*
X45382Y105382D01*
X45542Y105250D01*
Y104750D01*
X45382Y104618D01*
X44569Y103629D01*
X43966Y102499D01*
X43594Y101274D01*
X43468Y100000D01*
X43594Y98726D01*
X43966Y97500D01*
X44569Y96371D01*
X45382Y95382D01*
X45542Y95250D01*
Y94750D01*
X45382Y94618D01*
X44569Y93629D01*
X43966Y92500D01*
X43594Y91274D01*
X43468Y90000D01*
X43594Y88726D01*
X43966Y87501D01*
X44569Y86371D01*
X45382Y85382D01*
X46371Y84569D01*
X47501Y83966D01*
X48726Y83594D01*
X50000Y83469D01*
X51274Y83594D01*
X52500Y83966D01*
X53629Y84569D01*
X54618Y85382D01*
X54750Y85542D01*
X55250D01*
X55382Y85382D01*
X56371Y84569D01*
X57500Y83966D01*
X58726Y83594D01*
X60000Y83469D01*
X61274Y83594D01*
X62499Y83966D01*
X63629Y84569D01*
X64618Y85382D01*
X64750Y85542D01*
X65250D01*
X65382Y85382D01*
X66371Y84569D01*
X67501Y83966D01*
X68726Y83594D01*
X70000Y83469D01*
X71274Y83594D01*
X72500Y83966D01*
X73629Y84569D01*
X74618Y85382D01*
X74750Y85542D01*
X75250D01*
X75382Y85382D01*
X76371Y84569D01*
X77500Y83966D01*
X78726Y83594D01*
X80000Y83469D01*
X81274Y83594D01*
X82499Y83966D01*
X83629Y84569D01*
X84618Y85382D01*
X84750Y85542D01*
X85250D01*
X85382Y85382D01*
X86371Y84569D01*
X87501Y83966D01*
X88726Y83594D01*
X90000Y83469D01*
X91274Y83594D01*
X92500Y83966D01*
X93629Y84569D01*
X94618Y85382D01*
X95431Y86371D01*
X96034Y87501D01*
X96406Y88726D01*
X96531Y90000D01*
X96406Y91274D01*
X96034Y92500D01*
X95431Y93629D01*
X94618Y94618D01*
X94458Y94750D01*
Y95250D01*
X94618Y95382D01*
X95431Y96371D01*
X96034Y97500D01*
X96406Y98726D01*
X96531Y100000D01*
X96406Y101274D01*
X96034Y102499D01*
X95431Y103629D01*
X94618Y104618D01*
X94458Y104750D01*
Y105250D01*
X94618Y105382D01*
X95431Y106371D01*
X96034Y107501D01*
X96406Y108726D01*
X96531Y110000D01*
X96406Y111274D01*
X96034Y112499D01*
X95431Y113629D01*
X94618Y114618D01*
X94458Y114750D01*
Y115250D01*
X94618Y115382D01*
X95431Y116371D01*
X96034Y117500D01*
X96406Y118726D01*
X96531Y120000D01*
X96406Y121274D01*
X96034Y122500D01*
X95431Y123629D01*
X94618Y124618D01*
X94458Y124750D01*
Y125250D01*
X94618Y125382D01*
X95431Y126371D01*
X96034Y127500D01*
X96406Y128726D01*
X96531Y130000D01*
X96406Y131274D01*
X96034Y132500D01*
X95431Y133629D01*
X94618Y134618D01*
X94458Y134750D01*
Y135250D01*
X94618Y135382D01*
X95431Y136371D01*
X96034Y137501D01*
X96406Y138726D01*
X96531Y140000D01*
X96406Y141274D01*
X96034Y142499D01*
X95431Y143629D01*
X94618Y144618D01*
X94458Y144750D01*
Y145250D01*
X94618Y145382D01*
X95431Y146371D01*
X96034Y147501D01*
X96406Y148726D01*
X96531Y150000D01*
X96406Y151274D01*
X96034Y152499D01*
X95431Y153629D01*
X94618Y154618D01*
X94458Y154750D01*
Y155250D01*
X94618Y155382D01*
X95431Y156371D01*
X96034Y157501D01*
X96406Y158726D01*
X96531Y160000D01*
X96406Y161274D01*
X96034Y162499D01*
X95431Y163629D01*
X94618Y164618D01*
X94458Y164750D01*
Y165250D01*
X94618Y165382D01*
X95431Y166371D01*
X96034Y167500D01*
X96406Y168726D01*
X96531Y170000D01*
X96406Y171274D01*
X96034Y172500D01*
X95431Y173629D01*
X94618Y174618D01*
X94458Y174750D01*
Y175250D01*
X94618Y175382D01*
X95431Y176371D01*
X96034Y177500D01*
X96406Y178726D01*
X96531Y180000D01*
X96406Y181274D01*
X96034Y182500D01*
X95431Y183629D01*
X94618Y184618D01*
X93629Y185431D01*
X92500Y186034D01*
X91274Y186406D01*
X90000Y186531D01*
D02*
G37*
G36*
X140000Y316531D02*
X138726Y316406D01*
X137501Y316034D01*
X136371Y315431D01*
X135382Y314618D01*
X134569Y313629D01*
X133966Y312499D01*
X133594Y311274D01*
X133469Y310000D01*
X133594Y308726D01*
X133966Y307501D01*
X134569Y306371D01*
X135382Y305382D01*
X135542Y305250D01*
Y304750D01*
X135382Y304618D01*
X134569Y303629D01*
X133966Y302500D01*
X133594Y301274D01*
X133469Y300000D01*
X133594Y298726D01*
X133966Y297500D01*
X134569Y296371D01*
X135382Y295382D01*
X135542Y295250D01*
Y294750D01*
X135381Y294618D01*
X134569Y293629D01*
X133966Y292499D01*
X133594Y291274D01*
X133468Y290000D01*
X133594Y288726D01*
X133966Y287501D01*
X134569Y286371D01*
X135381Y285382D01*
X135542Y285250D01*
Y284750D01*
X135382Y284618D01*
X134569Y283629D01*
X133966Y282500D01*
X133594Y281274D01*
X133469Y280000D01*
X133594Y278726D01*
X133966Y277501D01*
X134569Y276371D01*
X135382Y275382D01*
X135542Y275250D01*
Y274750D01*
X135382Y274618D01*
X134569Y273629D01*
X133966Y272499D01*
X133594Y271274D01*
X133469Y270000D01*
X133594Y268726D01*
X133966Y267500D01*
X134569Y266371D01*
X135382Y265382D01*
X135542Y265250D01*
Y264750D01*
X135382Y264618D01*
X134569Y263629D01*
X133966Y262499D01*
X133594Y261274D01*
X133469Y260000D01*
X133594Y258726D01*
X133966Y257501D01*
X134569Y256371D01*
X135382Y255382D01*
X135542Y255250D01*
Y254750D01*
X135382Y254618D01*
X134569Y253629D01*
X133966Y252500D01*
X133594Y251274D01*
X133469Y250000D01*
X133594Y248726D01*
X133966Y247500D01*
X134569Y246371D01*
X135382Y245382D01*
X136371Y244569D01*
X137501Y243966D01*
X138726Y243594D01*
X140000Y243469D01*
X141274Y243594D01*
X142499Y243966D01*
X143629Y244569D01*
X144618Y245382D01*
X145431Y246371D01*
X146034Y247500D01*
X146406Y248726D01*
X146531Y250000D01*
X146406Y251274D01*
X146034Y252500D01*
X145431Y253629D01*
X144618Y254618D01*
X144458Y254750D01*
Y255250D01*
X144618Y255382D01*
X145431Y256371D01*
X146034Y257501D01*
X146406Y258726D01*
X146531Y260000D01*
X146406Y261274D01*
X146034Y262499D01*
X145431Y263629D01*
X144618Y264618D01*
X144458Y264750D01*
Y265250D01*
X144618Y265382D01*
X145431Y266371D01*
X146034Y267500D01*
X146406Y268726D01*
X146531Y270000D01*
X146406Y271274D01*
X146034Y272499D01*
X145431Y273629D01*
X144618Y274618D01*
X144458Y274750D01*
Y275250D01*
X144618Y275382D01*
X145431Y276371D01*
X146034Y277501D01*
X146406Y278726D01*
X146531Y280000D01*
X146406Y281274D01*
X146034Y282500D01*
X145431Y283629D01*
X144618Y284618D01*
X144458Y284750D01*
Y285250D01*
X144618Y285382D01*
X145431Y286371D01*
X146034Y287501D01*
X146406Y288726D01*
X146531Y290000D01*
X146406Y291274D01*
X146034Y292499D01*
X145431Y293629D01*
X144618Y294618D01*
X144458Y294750D01*
Y295250D01*
X144618Y295382D01*
X145431Y296371D01*
X146034Y297500D01*
X146406Y298726D01*
X146531Y300000D01*
X146406Y301274D01*
X146034Y302500D01*
X145431Y303629D01*
X144618Y304618D01*
X144458Y304750D01*
Y305250D01*
X144618Y305382D01*
X145431Y306371D01*
X146034Y307501D01*
X146406Y308726D01*
X146531Y310000D01*
X146406Y311274D01*
X146034Y312499D01*
X145431Y313629D01*
X144618Y314618D01*
X143629Y315431D01*
X142499Y316034D01*
X141274Y316406D01*
X140000Y316531D01*
D02*
G37*
G36*
Y236531D02*
X138726Y236406D01*
X137501Y236034D01*
X136371Y235431D01*
X135382Y234618D01*
X134569Y233629D01*
X133966Y232500D01*
X133594Y231274D01*
X133469Y230000D01*
X133594Y228726D01*
X133966Y227501D01*
X134569Y226371D01*
X135382Y225382D01*
X135542Y225250D01*
Y224750D01*
X135382Y224618D01*
X134569Y223629D01*
X133966Y222499D01*
X133594Y221274D01*
X133469Y220000D01*
X133594Y218726D01*
X133966Y217500D01*
X134569Y216371D01*
X135382Y215382D01*
X135542Y215250D01*
Y214750D01*
X135382Y214618D01*
X134569Y213629D01*
X133966Y212499D01*
X133594Y211274D01*
X133469Y210000D01*
X133594Y208726D01*
X133966Y207501D01*
X134569Y206371D01*
X135382Y205382D01*
X135542Y205250D01*
Y204750D01*
X135382Y204618D01*
X134569Y203629D01*
X133966Y202500D01*
X133594Y201274D01*
X133469Y200000D01*
X133594Y198726D01*
X133966Y197501D01*
X134569Y196371D01*
X135382Y195382D01*
X136371Y194569D01*
X137501Y193966D01*
X138726Y193594D01*
X140000Y193469D01*
X141274Y193594D01*
X142499Y193966D01*
X143629Y194569D01*
X144618Y195382D01*
X145431Y196371D01*
X146034Y197501D01*
X146406Y198726D01*
X146531Y200000D01*
X146406Y201274D01*
X146034Y202500D01*
X145431Y203629D01*
X144618Y204618D01*
X144458Y204750D01*
Y205250D01*
X144618Y205382D01*
X145431Y206371D01*
X146034Y207501D01*
X146406Y208726D01*
X146531Y210000D01*
X146406Y211274D01*
X146034Y212499D01*
X145431Y213629D01*
X144618Y214618D01*
X144458Y214750D01*
Y215250D01*
X144618Y215382D01*
X145431Y216371D01*
X146034Y217500D01*
X146406Y218726D01*
X146531Y220000D01*
X146406Y221274D01*
X146034Y222499D01*
X145431Y223629D01*
X144618Y224618D01*
X144458Y224750D01*
Y225250D01*
X144618Y225382D01*
X145431Y226371D01*
X146034Y227501D01*
X146406Y228726D01*
X146531Y230000D01*
X146406Y231274D01*
X146034Y232500D01*
X145431Y233629D01*
X144618Y234618D01*
X143629Y235431D01*
X142499Y236034D01*
X141274Y236406D01*
X140000Y236531D01*
D02*
G37*
G36*
X60000Y75540D02*
X57569Y75349D01*
X55198Y74779D01*
X52945Y73846D01*
X50866Y72572D01*
X49011Y70989D01*
X47428Y69134D01*
X46154Y67055D01*
X45221Y64802D01*
X44651Y62431D01*
X44460Y60000D01*
X44651Y57569D01*
X45221Y55198D01*
X46154Y52945D01*
X47428Y50866D01*
X49011Y49011D01*
X50866Y47428D01*
X52945Y46154D01*
X55198Y45221D01*
X57569Y44651D01*
X60000Y44460D01*
X62431Y44651D01*
X64802Y45221D01*
X67055Y46154D01*
X69134Y47428D01*
X70989Y49011D01*
X72572Y50866D01*
X73846Y52945D01*
X74779Y55198D01*
X75349Y57569D01*
X75540Y60000D01*
X75349Y62431D01*
X74779Y64802D01*
X73846Y67055D01*
X72572Y69134D01*
X70989Y70989D01*
X69134Y72572D01*
X67055Y73846D01*
X64802Y74779D01*
X62431Y75349D01*
X60000Y75540D01*
D02*
G37*
G36*
X90000Y56531D02*
X88726Y56406D01*
X87501Y56034D01*
X86371Y55431D01*
X85382Y54618D01*
X84569Y53629D01*
X83966Y52500D01*
X83594Y51274D01*
X83469Y50000D01*
X83594Y48726D01*
X83966Y47501D01*
X84569Y46371D01*
X85382Y45382D01*
X86371Y44569D01*
X87501Y43966D01*
X88726Y43594D01*
X90000Y43468D01*
X91274Y43594D01*
X92500Y43966D01*
X93629Y44569D01*
X94618Y45382D01*
X95431Y46371D01*
X96034Y47501D01*
X96406Y48726D01*
X96531Y50000D01*
X96406Y51274D01*
X96034Y52500D01*
X95431Y53629D01*
X94618Y54618D01*
X93629Y55431D01*
X92500Y56034D01*
X91274Y56406D01*
X90000Y56531D01*
D02*
G37*
G36*
X260000Y116531D02*
X258726Y116406D01*
X257501Y116034D01*
X256371Y115431D01*
X255382Y114618D01*
X254569Y113629D01*
X253966Y112499D01*
X253594Y111274D01*
X253469Y110000D01*
X253594Y108726D01*
X253966Y107501D01*
X254569Y106371D01*
X255382Y105382D01*
X255542Y105250D01*
Y104750D01*
X255382Y104618D01*
X254569Y103629D01*
X253966Y102499D01*
X253594Y101274D01*
X253469Y100000D01*
X253594Y98726D01*
X253966Y97500D01*
X254569Y96371D01*
X255382Y95382D01*
X255542Y95250D01*
Y94750D01*
X255382Y94618D01*
X254569Y93629D01*
X253966Y92500D01*
X253594Y91274D01*
X253469Y90000D01*
X253594Y88726D01*
X253966Y87501D01*
X254569Y86371D01*
X255382Y85382D01*
X255542Y85250D01*
Y84750D01*
X255382Y84618D01*
X254569Y83629D01*
X253966Y82499D01*
X253594Y81274D01*
X253469Y80000D01*
X253594Y78726D01*
X253966Y77500D01*
X254569Y76371D01*
X255382Y75382D01*
X255542Y75250D01*
Y74750D01*
X255382Y74618D01*
X254569Y73629D01*
X253966Y72500D01*
X253594Y71274D01*
X253469Y70000D01*
X253594Y68726D01*
X253966Y67501D01*
X254569Y66371D01*
X255382Y65382D01*
X255542Y65250D01*
Y64750D01*
X255382Y64618D01*
X254569Y63629D01*
X253966Y62499D01*
X253594Y61274D01*
X253469Y60000D01*
X253594Y58726D01*
X253966Y57500D01*
X254569Y56371D01*
X255382Y55382D01*
X256371Y54569D01*
X257501Y53966D01*
X258726Y53594D01*
X260000Y53469D01*
X261274Y53594D01*
X262499Y53966D01*
X263629Y54569D01*
X264618Y55382D01*
X265431Y56371D01*
X266034Y57500D01*
X266406Y58726D01*
X266531Y60000D01*
X266406Y61274D01*
X266034Y62499D01*
X265431Y63629D01*
X264618Y64618D01*
X264458Y64750D01*
Y65250D01*
X264618Y65382D01*
X265431Y66371D01*
X266034Y67501D01*
X266406Y68726D01*
X266531Y70000D01*
X266406Y71274D01*
X266034Y72500D01*
X265431Y73629D01*
X264618Y74618D01*
X264458Y74750D01*
Y75250D01*
X264618Y75382D01*
X265431Y76371D01*
X266034Y77500D01*
X266406Y78726D01*
X266531Y80000D01*
X266406Y81274D01*
X266034Y82499D01*
X265431Y83629D01*
X264618Y84618D01*
X264458Y84750D01*
Y85250D01*
X264618Y85382D01*
X265431Y86371D01*
X266034Y87501D01*
X266406Y88726D01*
X266531Y90000D01*
X266406Y91274D01*
X266034Y92500D01*
X265431Y93629D01*
X264618Y94618D01*
X264458Y94750D01*
Y95250D01*
X264618Y95382D01*
X265431Y96371D01*
X266034Y97500D01*
X266406Y98726D01*
X266531Y100000D01*
X266406Y101274D01*
X266034Y102499D01*
X265431Y103629D01*
X264618Y104618D01*
X264458Y104750D01*
Y105250D01*
X264618Y105382D01*
X265431Y106371D01*
X266034Y107501D01*
X266406Y108726D01*
X266531Y110000D01*
X266406Y111274D01*
X266034Y112499D01*
X265431Y113629D01*
X264618Y114618D01*
X263629Y115431D01*
X262499Y116034D01*
X261274Y116406D01*
X260000Y116531D01*
D02*
G37*
G36*
X360000D02*
X358726Y116406D01*
X357501Y116034D01*
X356371Y115431D01*
X355382Y114618D01*
X354569Y113629D01*
X353966Y112499D01*
X353672Y111529D01*
X325615D01*
X325029Y111413D01*
X324533Y111081D01*
X317473Y104021D01*
X301417D01*
X300887Y104376D01*
X300106Y104531D01*
X299326Y104376D01*
X298664Y103934D01*
X298222Y103272D01*
X298067Y102492D01*
X298222Y101711D01*
X298664Y101050D01*
X299326Y100608D01*
X300106Y100453D01*
X300887Y100608D01*
X301417Y100962D01*
X318106D01*
X318691Y101079D01*
X319188Y101410D01*
X326248Y108471D01*
X353672D01*
X353966Y107501D01*
X354569Y106371D01*
X355382Y105382D01*
X355542Y105250D01*
Y104750D01*
X355382Y104618D01*
X354569Y103629D01*
X353966Y102499D01*
X353672Y101529D01*
X349615D01*
X349029Y101413D01*
X348533Y101081D01*
X346473Y99021D01*
X323106D01*
X322521Y98905D01*
X322025Y98573D01*
X317473Y94021D01*
X301417D01*
X300887Y94376D01*
X300106Y94531D01*
X299326Y94376D01*
X298664Y93934D01*
X298222Y93272D01*
X298067Y92492D01*
X298222Y91711D01*
X298664Y91050D01*
X299326Y90608D01*
X300106Y90453D01*
X300887Y90608D01*
X301417Y90962D01*
X318106D01*
X318691Y91079D01*
X319188Y91410D01*
X323740Y95962D01*
X347106D01*
X347691Y96079D01*
X348188Y96410D01*
X350248Y98471D01*
X353672D01*
X353966Y97500D01*
X354569Y96371D01*
X355382Y95382D01*
X355542Y95250D01*
Y94750D01*
X355382Y94618D01*
X354569Y93629D01*
X353966Y92500D01*
X353672Y91529D01*
X350615D01*
X350029Y91413D01*
X349533Y91081D01*
X342473Y84021D01*
X301438D01*
X300895Y84384D01*
X300114Y84539D01*
X299334Y84384D01*
X298673Y83942D01*
X298231Y83280D01*
X298075Y82500D01*
X298231Y81720D01*
X298673Y81058D01*
X299334Y80616D01*
X300114Y80461D01*
X300895Y80616D01*
X301413Y80962D01*
X343106D01*
X343691Y81079D01*
X344188Y81410D01*
X351248Y88471D01*
X353672D01*
X353966Y87501D01*
X354569Y86371D01*
X355382Y85382D01*
X355542Y85250D01*
Y84750D01*
X355382Y84618D01*
X354569Y83629D01*
X353966Y82499D01*
X353672Y81529D01*
X353614D01*
X353126Y81432D01*
X353029Y81413D01*
X352533Y81081D01*
X350481Y79029D01*
X342409D01*
X341878Y79384D01*
X341098Y79539D01*
X340318Y79384D01*
X339656Y78942D01*
X339214Y78280D01*
X339059Y77500D01*
X339214Y76720D01*
X339656Y76058D01*
X340318Y75616D01*
X341098Y75461D01*
X341878Y75616D01*
X342409Y75971D01*
X351115D01*
X351700Y76087D01*
X352196Y76419D01*
X353462Y77684D01*
X353947Y77563D01*
X353966Y77500D01*
X354569Y76371D01*
X355382Y75382D01*
X355542Y75250D01*
Y74750D01*
X355382Y74618D01*
X354569Y73629D01*
X353966Y72500D01*
X353672Y71529D01*
X345615D01*
X345029Y71413D01*
X344533Y71081D01*
X339473Y66021D01*
X323417D01*
X322887Y66376D01*
X322106Y66531D01*
X321326Y66376D01*
X320664Y65934D01*
X320222Y65272D01*
X320067Y64492D01*
X320222Y63711D01*
X320664Y63050D01*
X321326Y62608D01*
X322106Y62453D01*
X322887Y62608D01*
X323417Y62962D01*
X340106D01*
X340691Y63079D01*
X341188Y63410D01*
X346248Y68471D01*
X353672D01*
X353966Y67501D01*
X354569Y66371D01*
X355382Y65382D01*
X355542Y65250D01*
Y64750D01*
X355382Y64618D01*
X354569Y63629D01*
X353966Y62499D01*
X353594Y61274D01*
X353469Y60000D01*
X353594Y58726D01*
X353966Y57500D01*
X354569Y56371D01*
X355382Y55382D01*
X356371Y54569D01*
X357501Y53966D01*
X358726Y53594D01*
X360000Y53469D01*
X361274Y53594D01*
X362499Y53966D01*
X363629Y54569D01*
X364618Y55382D01*
X365431Y56371D01*
X366034Y57500D01*
X366406Y58726D01*
X366531Y60000D01*
X366406Y61274D01*
X366034Y62499D01*
X365431Y63629D01*
X364618Y64618D01*
X364458Y64750D01*
Y65250D01*
X364618Y65382D01*
X365431Y66371D01*
X366034Y67501D01*
X366406Y68726D01*
X366531Y70000D01*
X366406Y71274D01*
X366034Y72500D01*
X365431Y73629D01*
X364618Y74618D01*
X364458Y74750D01*
Y75250D01*
X364618Y75382D01*
X365431Y76371D01*
X366034Y77500D01*
X366406Y78726D01*
X366531Y80000D01*
X366406Y81274D01*
X366034Y82499D01*
X365431Y83629D01*
X364618Y84618D01*
X364458Y84750D01*
Y85250D01*
X364618Y85382D01*
X365431Y86371D01*
X366034Y87501D01*
X366406Y88726D01*
X366531Y90000D01*
X366406Y91274D01*
X366034Y92500D01*
X365431Y93629D01*
X364618Y94618D01*
X364458Y94750D01*
Y95250D01*
X364618Y95382D01*
X365431Y96371D01*
X366034Y97500D01*
X366406Y98726D01*
X366531Y100000D01*
X366406Y101274D01*
X366034Y102499D01*
X365431Y103629D01*
X364618Y104618D01*
X364458Y104750D01*
Y105250D01*
X364618Y105382D01*
X365431Y106371D01*
X366034Y107501D01*
X366406Y108726D01*
X366531Y110000D01*
X366406Y111274D01*
X366034Y112499D01*
X365431Y113629D01*
X364618Y114618D01*
X363629Y115431D01*
X362499Y116034D01*
X361274Y116406D01*
X360000Y116531D01*
D02*
G37*
G36*
X170000Y66531D02*
X168726Y66406D01*
X167500Y66034D01*
X166371Y65431D01*
X165382Y64618D01*
X165250Y64458D01*
X164750D01*
X164618Y64618D01*
X163629Y65431D01*
X162499Y66034D01*
X161274Y66406D01*
X160000Y66531D01*
X158726Y66406D01*
X157501Y66034D01*
X156371Y65431D01*
X155382Y64618D01*
X155250Y64458D01*
X154750D01*
X154618Y64618D01*
X153629Y65431D01*
X152499Y66034D01*
X151274Y66406D01*
X150000Y66531D01*
X148726Y66406D01*
X147501Y66034D01*
X146371Y65431D01*
X145382Y64618D01*
X145250Y64458D01*
X144750D01*
X144618Y64618D01*
X143629Y65431D01*
X142499Y66034D01*
X141274Y66406D01*
X140000Y66531D01*
X138726Y66406D01*
X137501Y66034D01*
X136371Y65431D01*
X135382Y64618D01*
X135250Y64458D01*
X134750D01*
X134618Y64618D01*
X133629Y65431D01*
X132500Y66034D01*
X131274Y66406D01*
X130000Y66531D01*
X128726Y66406D01*
X127500Y66034D01*
X126371Y65431D01*
X125382Y64618D01*
X125250Y64458D01*
X124750D01*
X124618Y64618D01*
X123629Y65431D01*
X122500Y66034D01*
X121274Y66406D01*
X120000Y66531D01*
X118726Y66406D01*
X117500Y66034D01*
X116371Y65431D01*
X115382Y64618D01*
X115250Y64458D01*
X114750D01*
X114618Y64618D01*
X113629Y65431D01*
X112499Y66034D01*
X111274Y66406D01*
X110000Y66531D01*
X108726Y66406D01*
X107501Y66034D01*
X106371Y65431D01*
X105382Y64618D01*
X104569Y63629D01*
X103966Y62499D01*
X103594Y61274D01*
X103469Y60000D01*
X103594Y58726D01*
X103966Y57500D01*
X104569Y56371D01*
X105382Y55382D01*
X105542Y55250D01*
Y54750D01*
X105382Y54618D01*
X104569Y53629D01*
X103966Y52500D01*
X103594Y51274D01*
X103469Y50000D01*
X103594Y48726D01*
X103966Y47501D01*
X104569Y46371D01*
X105382Y45382D01*
X106371Y44569D01*
X107501Y43966D01*
X108726Y43594D01*
X110000Y43468D01*
X111274Y43594D01*
X112499Y43966D01*
X113629Y44569D01*
X114618Y45382D01*
X114750Y45542D01*
X115250D01*
X115382Y45382D01*
X116371Y44569D01*
X117500Y43966D01*
X118726Y43594D01*
X120000Y43468D01*
X121274Y43594D01*
X122500Y43966D01*
X123629Y44569D01*
X124618Y45382D01*
X124750Y45542D01*
X125250D01*
X125382Y45382D01*
X126371Y44569D01*
X127500Y43966D01*
X128726Y43594D01*
X130000Y43468D01*
X131274Y43594D01*
X132500Y43966D01*
X133629Y44569D01*
X134618Y45382D01*
X134750Y45542D01*
X135250D01*
X135382Y45382D01*
X136371Y44569D01*
X137501Y43966D01*
X138726Y43594D01*
X140000Y43468D01*
X141274Y43594D01*
X142499Y43966D01*
X143629Y44569D01*
X144618Y45382D01*
X144750Y45542D01*
X145250D01*
X145382Y45382D01*
X146371Y44569D01*
X147501Y43966D01*
X148726Y43594D01*
X150000Y43468D01*
X151274Y43594D01*
X152499Y43966D01*
X153629Y44569D01*
X154618Y45382D01*
X154750Y45542D01*
X155250D01*
X155382Y45382D01*
X156371Y44569D01*
X157501Y43966D01*
X158726Y43594D01*
X160000Y43468D01*
X161274Y43594D01*
X162499Y43966D01*
X163629Y44569D01*
X164618Y45382D01*
X164750Y45542D01*
X165250D01*
X165382Y45382D01*
X166371Y44569D01*
X167500Y43966D01*
X168726Y43594D01*
X170000Y43468D01*
X171274Y43594D01*
X172500Y43966D01*
X173629Y44569D01*
X174618Y45382D01*
X175431Y46371D01*
X176034Y47501D01*
X176406Y48726D01*
X176531Y50000D01*
X176406Y51274D01*
X176034Y52500D01*
X175431Y53629D01*
X174618Y54618D01*
X174458Y54750D01*
Y55250D01*
X174618Y55382D01*
X175431Y56371D01*
X176034Y57500D01*
X176406Y58726D01*
X176531Y60000D01*
X176406Y61274D01*
X176034Y62499D01*
X175431Y63629D01*
X174618Y64618D01*
X173629Y65431D01*
X172500Y66034D01*
X171274Y66406D01*
X170000Y66531D01*
D02*
G37*
G36*
X124862Y260256D02*
X115138D01*
Y250532D01*
X124862D01*
Y260256D01*
D02*
G37*
G36*
X60000Y425540D02*
X57569Y425349D01*
X55198Y424779D01*
X52945Y423846D01*
X50866Y422572D01*
X49011Y420989D01*
X47428Y419134D01*
X46154Y417055D01*
X45221Y414802D01*
X44651Y412431D01*
X44460Y410000D01*
X44651Y407569D01*
X45221Y405198D01*
X46154Y402945D01*
X47428Y400866D01*
X49011Y399011D01*
X50866Y397428D01*
X52945Y396154D01*
X55198Y395221D01*
X57569Y394651D01*
X60000Y394460D01*
X62431Y394651D01*
X64802Y395221D01*
X67055Y396154D01*
X69134Y397428D01*
X70989Y399011D01*
X72572Y400866D01*
X73846Y402945D01*
X74779Y405198D01*
X75349Y407569D01*
X75540Y410000D01*
X75349Y412431D01*
X74779Y414802D01*
X73846Y417055D01*
X72572Y419134D01*
X70989Y420989D01*
X69134Y422572D01*
X67055Y423846D01*
X64802Y424779D01*
X62431Y425349D01*
X60000Y425540D01*
D02*
G37*
G36*
X75000Y395039D02*
X74220Y394884D01*
X73558Y394442D01*
X73116Y393780D01*
X72961Y393000D01*
X73116Y392220D01*
X73471Y391689D01*
Y379311D01*
X73116Y378780D01*
X72961Y378000D01*
X73116Y377220D01*
X73558Y376558D01*
X74220Y376116D01*
X75000Y375961D01*
X75780Y376116D01*
X76442Y376558D01*
X76884Y377220D01*
X77039Y378000D01*
X76884Y378780D01*
X76529Y379311D01*
Y391689D01*
X76884Y392220D01*
X77039Y393000D01*
X76884Y393780D01*
X76442Y394442D01*
X75780Y394884D01*
X75000Y395039D01*
D02*
G37*
G36*
X90000Y426532D02*
X88726Y426406D01*
X87501Y426034D01*
X86371Y425431D01*
X85382Y424618D01*
X84569Y423629D01*
X83966Y422500D01*
X83594Y421274D01*
X83469Y420000D01*
X83594Y418726D01*
X83966Y417500D01*
X84569Y416371D01*
X85382Y415382D01*
X86371Y414569D01*
X87501Y413966D01*
X88726Y413594D01*
X90000Y413469D01*
X91274Y413594D01*
X92500Y413966D01*
X93629Y414569D01*
X94618Y415382D01*
X95431Y416371D01*
X96034Y417500D01*
X96406Y418726D01*
X96531Y420000D01*
X96406Y421274D01*
X96034Y422500D01*
X95431Y423629D01*
X94618Y424618D01*
X93629Y425431D01*
X92500Y426034D01*
X91274Y426406D01*
X90000Y426532D01*
D02*
G37*
G36*
X390000D02*
X388726Y426406D01*
X387501Y426034D01*
X386371Y425431D01*
X385382Y424618D01*
X385250Y424458D01*
X384750D01*
X384618Y424618D01*
X383629Y425431D01*
X382500Y426034D01*
X381274Y426406D01*
X380000Y426532D01*
X378726Y426406D01*
X377501Y426034D01*
X376371Y425431D01*
X375382Y424618D01*
X375250Y424458D01*
X374750D01*
X374618Y424618D01*
X373629Y425431D01*
X372499Y426034D01*
X371274Y426406D01*
X370000Y426532D01*
X368726Y426406D01*
X367500Y426034D01*
X366371Y425431D01*
X365382Y424618D01*
X365250Y424458D01*
X364750D01*
X364618Y424618D01*
X363629Y425431D01*
X362499Y426034D01*
X361274Y426406D01*
X360000Y426532D01*
X358726Y426406D01*
X357501Y426034D01*
X356371Y425431D01*
X355382Y424618D01*
X355250Y424458D01*
X354750D01*
X354618Y424618D01*
X353629Y425431D01*
X352500Y426034D01*
X351274Y426406D01*
X350000Y426532D01*
X348726Y426406D01*
X347500Y426034D01*
X346371Y425431D01*
X345382Y424618D01*
X345250Y424458D01*
X344750D01*
X344618Y424618D01*
X343629Y425431D01*
X342499Y426034D01*
X341274Y426406D01*
X340000Y426532D01*
X338726Y426406D01*
X337501Y426034D01*
X336371Y425431D01*
X335382Y424618D01*
X335250Y424458D01*
X334750D01*
X334618Y424618D01*
X333629Y425431D01*
X332500Y426034D01*
X331274Y426406D01*
X330000Y426532D01*
X328726Y426406D01*
X327501Y426034D01*
X326371Y425431D01*
X325382Y424618D01*
X325250Y424458D01*
X324750D01*
X324618Y424618D01*
X323629Y425431D01*
X322499Y426034D01*
X321274Y426406D01*
X320000Y426532D01*
X318726Y426406D01*
X317500Y426034D01*
X316371Y425431D01*
X315382Y424618D01*
X315250Y424458D01*
X314750D01*
X314618Y424618D01*
X313629Y425431D01*
X312499Y426034D01*
X311274Y426406D01*
X310000Y426532D01*
X308726Y426406D01*
X307501Y426034D01*
X306371Y425431D01*
X305382Y424618D01*
X305250Y424458D01*
X304750D01*
X304618Y424618D01*
X303629Y425431D01*
X302500Y426034D01*
X301274Y426406D01*
X300000Y426532D01*
X298726Y426406D01*
X297500Y426034D01*
X296371Y425431D01*
X295382Y424618D01*
X295250Y424458D01*
X294750D01*
X294618Y424618D01*
X293629Y425431D01*
X292499Y426034D01*
X291274Y426406D01*
X290000Y426532D01*
X288726Y426406D01*
X287501Y426034D01*
X286371Y425431D01*
X285382Y424618D01*
X285250Y424458D01*
X284750D01*
X284618Y424618D01*
X283629Y425431D01*
X282500Y426034D01*
X281274Y426406D01*
X280000Y426532D01*
X278726Y426406D01*
X277501Y426034D01*
X276371Y425431D01*
X275382Y424618D01*
X275250Y424458D01*
X274750D01*
X274618Y424618D01*
X273629Y425431D01*
X272499Y426034D01*
X271274Y426406D01*
X270000Y426532D01*
X268726Y426406D01*
X267500Y426034D01*
X266371Y425431D01*
X265382Y424618D01*
X265250Y424458D01*
X264750D01*
X264618Y424618D01*
X263629Y425431D01*
X262499Y426034D01*
X261274Y426406D01*
X260000Y426532D01*
X258726Y426406D01*
X257501Y426034D01*
X256371Y425431D01*
X255382Y424618D01*
X255250Y424458D01*
X254750D01*
X254618Y424618D01*
X253629Y425431D01*
X252500Y426034D01*
X251274Y426406D01*
X250000Y426532D01*
X248726Y426406D01*
X247500Y426034D01*
X246371Y425431D01*
X245382Y424618D01*
X245250Y424458D01*
X244750D01*
X244618Y424618D01*
X243629Y425431D01*
X242499Y426034D01*
X241274Y426406D01*
X240000Y426532D01*
X238726Y426406D01*
X237501Y426034D01*
X236371Y425431D01*
X235382Y424618D01*
X235250Y424458D01*
X234750D01*
X234618Y424618D01*
X233629Y425431D01*
X232500Y426034D01*
X231274Y426406D01*
X230000Y426532D01*
X228726Y426406D01*
X227501Y426034D01*
X226371Y425431D01*
X225382Y424618D01*
X225250Y424458D01*
X224750D01*
X224618Y424618D01*
X223629Y425431D01*
X222499Y426034D01*
X221274Y426406D01*
X220000Y426532D01*
X218726Y426406D01*
X217500Y426034D01*
X216371Y425431D01*
X215382Y424618D01*
X215250Y424458D01*
X214750D01*
X214618Y424618D01*
X213629Y425431D01*
X212499Y426034D01*
X211274Y426406D01*
X210000Y426532D01*
X208726Y426406D01*
X207501Y426034D01*
X206371Y425431D01*
X205382Y424618D01*
X205250Y424458D01*
X204750D01*
X204618Y424618D01*
X203629Y425431D01*
X202500Y426034D01*
X201274Y426406D01*
X200000Y426532D01*
X198726Y426406D01*
X197501Y426034D01*
X196371Y425431D01*
X195382Y424618D01*
X195250Y424458D01*
X194750D01*
X194618Y424618D01*
X193629Y425431D01*
X192499Y426034D01*
X191274Y426406D01*
X190000Y426532D01*
X188726Y426406D01*
X187501Y426034D01*
X186371Y425431D01*
X185382Y424618D01*
X185250Y424458D01*
X184750D01*
X184618Y424618D01*
X183629Y425431D01*
X182500Y426034D01*
X181274Y426406D01*
X180000Y426532D01*
X178726Y426406D01*
X177500Y426034D01*
X176371Y425431D01*
X175382Y424618D01*
X175250Y424458D01*
X174750D01*
X174618Y424618D01*
X173629Y425431D01*
X172500Y426034D01*
X171274Y426406D01*
X170000Y426532D01*
X168726Y426406D01*
X167500Y426034D01*
X166371Y425431D01*
X165382Y424618D01*
X164569Y423629D01*
X163966Y422500D01*
X163594Y421274D01*
X163469Y420000D01*
X163594Y418726D01*
X163966Y417500D01*
X164569Y416371D01*
X165382Y415382D01*
X165542Y415250D01*
Y414750D01*
X165382Y414618D01*
X164569Y413629D01*
X163966Y412500D01*
X163594Y411274D01*
X163469Y410000D01*
X163594Y408726D01*
X163966Y407501D01*
X164569Y406371D01*
X165382Y405382D01*
X165542Y405250D01*
Y404750D01*
X165382Y404618D01*
X164569Y403629D01*
X163966Y402499D01*
X163594Y401274D01*
X163469Y400000D01*
X163594Y398726D01*
X163966Y397500D01*
X164569Y396371D01*
X165382Y395382D01*
X165542Y395250D01*
Y394750D01*
X165382Y394618D01*
X164569Y393629D01*
X163966Y392499D01*
X163594Y391274D01*
X163469Y390000D01*
X163594Y388726D01*
X163966Y387501D01*
X164569Y386371D01*
X165382Y385382D01*
X165542Y385250D01*
Y384750D01*
X165382Y384618D01*
X164569Y383629D01*
X163966Y382500D01*
X163594Y381274D01*
X163469Y380000D01*
X163594Y378726D01*
X163966Y377501D01*
X164569Y376371D01*
X165382Y375382D01*
X166371Y374569D01*
X167500Y373966D01*
X168726Y373594D01*
X170000Y373469D01*
X171274Y373594D01*
X172500Y373966D01*
X173629Y374569D01*
X174618Y375382D01*
X174750Y375542D01*
X175250D01*
X175382Y375382D01*
X176371Y374569D01*
X177500Y373966D01*
X178726Y373594D01*
X180000Y373469D01*
X181274Y373594D01*
X182500Y373966D01*
X183629Y374569D01*
X184618Y375382D01*
X184750Y375542D01*
X185250D01*
X185382Y375382D01*
X186371Y374569D01*
X187501Y373966D01*
X188726Y373594D01*
X190000Y373469D01*
X191274Y373594D01*
X192499Y373966D01*
X193629Y374569D01*
X194618Y375382D01*
X194750Y375542D01*
X195250D01*
X195382Y375382D01*
X196371Y374569D01*
X197501Y373966D01*
X198726Y373594D01*
X200000Y373469D01*
X201274Y373594D01*
X202500Y373966D01*
X203629Y374569D01*
X204618Y375382D01*
X204750Y375542D01*
X205250D01*
X205382Y375382D01*
X206371Y374569D01*
X207501Y373966D01*
X208726Y373594D01*
X210000Y373469D01*
X211274Y373594D01*
X212499Y373966D01*
X213629Y374569D01*
X214618Y375382D01*
X215431Y376371D01*
X216034Y377501D01*
X216406Y378726D01*
X216531Y380000D01*
X216406Y381274D01*
X216034Y382500D01*
X215431Y383629D01*
X214618Y384618D01*
X214458Y384750D01*
Y385250D01*
X214618Y385382D01*
X214750Y385542D01*
X215250D01*
X215382Y385382D01*
X216371Y384569D01*
X217500Y383966D01*
X218726Y383594D01*
X220000Y383469D01*
X221274Y383594D01*
X222499Y383966D01*
X223629Y384569D01*
X224618Y385382D01*
X225431Y386371D01*
X226034Y387501D01*
X226406Y388726D01*
X226531Y390000D01*
X226406Y391274D01*
X226034Y392499D01*
X225431Y393629D01*
X224618Y394618D01*
X224458Y394750D01*
Y395250D01*
X224618Y395382D01*
X225431Y396371D01*
X226034Y397500D01*
X226406Y398726D01*
X226531Y400000D01*
X226406Y401274D01*
X226034Y402499D01*
X225431Y403629D01*
X224618Y404618D01*
X224529Y404692D01*
X224512Y405216D01*
X224784Y405488D01*
X225308Y405471D01*
X225382Y405382D01*
X226371Y404569D01*
X227501Y403966D01*
X228726Y403594D01*
X230000Y403469D01*
X231274Y403594D01*
X232500Y403966D01*
X233629Y404569D01*
X234618Y405382D01*
X234750Y405542D01*
X235250D01*
X235382Y405382D01*
X236371Y404569D01*
X237501Y403966D01*
X238726Y403594D01*
X240000Y403469D01*
X241274Y403594D01*
X242499Y403966D01*
X243629Y404569D01*
X244618Y405382D01*
X244750Y405542D01*
X245250D01*
X245382Y405382D01*
X246371Y404569D01*
X247500Y403966D01*
X248726Y403594D01*
X250000Y403469D01*
X251274Y403594D01*
X252500Y403966D01*
X253629Y404569D01*
X254618Y405382D01*
X254750Y405542D01*
X255250D01*
X255382Y405382D01*
X256371Y404569D01*
X257501Y403966D01*
X258726Y403594D01*
X260000Y403469D01*
X261274Y403594D01*
X262499Y403966D01*
X263629Y404569D01*
X264618Y405382D01*
X264750Y405542D01*
X265250D01*
X265382Y405382D01*
X266371Y404569D01*
X267500Y403966D01*
X268726Y403594D01*
X270000Y403469D01*
X271274Y403594D01*
X272499Y403966D01*
X273629Y404569D01*
X274618Y405382D01*
X274750Y405542D01*
X275250D01*
X275382Y405382D01*
X276371Y404569D01*
X277501Y403966D01*
X278726Y403594D01*
X280000Y403469D01*
X281274Y403594D01*
X282500Y403966D01*
X283629Y404569D01*
X284618Y405382D01*
X284750Y405542D01*
X285250D01*
X285382Y405382D01*
X286371Y404569D01*
X287501Y403966D01*
X288726Y403594D01*
X290000Y403469D01*
X291274Y403594D01*
X292499Y403966D01*
X293629Y404569D01*
X294618Y405382D01*
X294750Y405542D01*
X295250D01*
X295382Y405382D01*
X296371Y404569D01*
X297500Y403966D01*
X298726Y403594D01*
X300000Y403469D01*
X301274Y403594D01*
X302500Y403966D01*
X303629Y404569D01*
X304618Y405382D01*
X304750Y405542D01*
X305250D01*
X305382Y405382D01*
X306371Y404569D01*
X307501Y403966D01*
X308726Y403594D01*
X310000Y403469D01*
X311274Y403594D01*
X312499Y403966D01*
X313629Y404569D01*
X314618Y405382D01*
X314750Y405542D01*
X315250D01*
X315382Y405382D01*
X315542Y405250D01*
Y404750D01*
X315382Y404618D01*
X314569Y403629D01*
X313966Y402499D01*
X313594Y401274D01*
X313469Y400000D01*
X313594Y398726D01*
X313966Y397500D01*
X314569Y396371D01*
X315382Y395382D01*
X315542Y395250D01*
Y394750D01*
X315382Y394618D01*
X314569Y393629D01*
X313966Y392499D01*
X313594Y391274D01*
X313469Y390000D01*
X313594Y388726D01*
X313966Y387501D01*
X314569Y386371D01*
X315382Y385382D01*
X315542Y385250D01*
Y384750D01*
X315382Y384618D01*
X314569Y383629D01*
X313966Y382500D01*
X313594Y381274D01*
X313469Y380000D01*
X313594Y378726D01*
X313966Y377501D01*
X314569Y376371D01*
X315382Y375382D01*
X315542Y375250D01*
Y374750D01*
X315382Y374618D01*
X314569Y373629D01*
X313966Y372499D01*
X313594Y371274D01*
X313469Y370000D01*
X313594Y368726D01*
X313966Y367500D01*
X314569Y366371D01*
X315382Y365382D01*
X315542Y365250D01*
Y364750D01*
X315382Y364618D01*
X314569Y363629D01*
X313966Y362499D01*
X313594Y361274D01*
X313469Y360000D01*
X313594Y358726D01*
X313966Y357501D01*
X314569Y356371D01*
X315382Y355382D01*
X315542Y355250D01*
Y354750D01*
X315382Y354618D01*
X314569Y353629D01*
X313966Y352500D01*
X313594Y351274D01*
X313469Y350000D01*
X313594Y348726D01*
X313966Y347500D01*
X314569Y346371D01*
X315382Y345382D01*
X316371Y344569D01*
X317500Y343966D01*
X318726Y343594D01*
X320000Y343469D01*
X321274Y343594D01*
X322499Y343966D01*
X323629Y344569D01*
X324618Y345382D01*
X324750Y345542D01*
X325250D01*
X325382Y345382D01*
X325542Y345250D01*
Y344750D01*
X325382Y344618D01*
X324569Y343629D01*
X323966Y342499D01*
X323594Y341274D01*
X323469Y340000D01*
X323594Y338726D01*
X323966Y337501D01*
X324569Y336371D01*
X325382Y335382D01*
X325542Y335250D01*
Y334750D01*
X325382Y334618D01*
X324569Y333629D01*
X323966Y332500D01*
X323594Y331274D01*
X323469Y330000D01*
X323594Y328726D01*
X323966Y327501D01*
X324569Y326371D01*
X325382Y325382D01*
X325542Y325250D01*
Y324750D01*
X325382Y324618D01*
X324569Y323629D01*
X323966Y322499D01*
X323594Y321274D01*
X323469Y320000D01*
X323594Y318726D01*
X323966Y317500D01*
X324569Y316371D01*
X325382Y315382D01*
X325542Y315250D01*
Y314750D01*
X325382Y314618D01*
X324569Y313629D01*
X323966Y312499D01*
X323594Y311274D01*
X323469Y310000D01*
X323594Y308726D01*
X323966Y307501D01*
X324569Y306371D01*
X325382Y305382D01*
X325542Y305250D01*
Y304750D01*
X325382Y304618D01*
X324569Y303629D01*
X323966Y302500D01*
X323594Y301274D01*
X323469Y300000D01*
X323594Y298726D01*
X323966Y297500D01*
X324569Y296371D01*
X325382Y295382D01*
X325542Y295250D01*
Y294750D01*
X325382Y294618D01*
X325250Y294458D01*
X324750D01*
X324618Y294618D01*
X323629Y295431D01*
X322499Y296034D01*
X321274Y296406D01*
X320000Y296531D01*
X318726Y296406D01*
X317500Y296034D01*
X316371Y295431D01*
X315382Y294618D01*
X315250Y294458D01*
X314750D01*
X314618Y294618D01*
X313629Y295431D01*
X312499Y296034D01*
X311274Y296406D01*
X310000Y296531D01*
X308726Y296406D01*
X307500Y296034D01*
X306371Y295431D01*
X305381Y294618D01*
X305240Y294446D01*
X304741Y294422D01*
X301529Y297634D01*
Y387000D01*
X301432Y387488D01*
X301413Y387585D01*
X301081Y388081D01*
X297081Y392081D01*
X296585Y392413D01*
X296000Y392529D01*
X253000D01*
X252415Y392413D01*
X251919Y392081D01*
X248919Y389081D01*
X248587Y388585D01*
X248471Y388000D01*
Y385320D01*
X247226Y384804D01*
X246077Y383923D01*
X245196Y382774D01*
X244642Y381436D01*
X244453Y380000D01*
X244642Y378564D01*
X245196Y377226D01*
X246077Y376077D01*
X246213Y375974D01*
X246052Y375500D01*
X244500D01*
Y371529D01*
X200000D01*
X199415Y371413D01*
X198919Y371081D01*
X173393Y345556D01*
X172500Y346034D01*
X171274Y346406D01*
X170000Y346531D01*
X168726Y346406D01*
X167500Y346034D01*
X166371Y345431D01*
X165382Y344618D01*
X164569Y343629D01*
X163966Y342499D01*
X163594Y341274D01*
X163469Y340000D01*
X163594Y338726D01*
X163966Y337501D01*
X164569Y336371D01*
X165382Y335382D01*
X166371Y334569D01*
X167500Y333966D01*
X168726Y333594D01*
X170000Y333469D01*
X171274Y333594D01*
X172500Y333966D01*
X173629Y334569D01*
X174618Y335382D01*
X175431Y336371D01*
X176034Y337501D01*
X176406Y338726D01*
X176531Y340000D01*
X176406Y341274D01*
X176034Y342499D01*
X175556Y343393D01*
X200634Y368471D01*
X244500D01*
Y364500D01*
X253471D01*
Y361000D01*
X253587Y360415D01*
X253919Y359919D01*
X259919Y353919D01*
X260415Y353587D01*
X261000Y353471D01*
X273366D01*
X278471Y348366D01*
Y346328D01*
X277501Y346034D01*
X276371Y345431D01*
X275382Y344618D01*
X275250Y344458D01*
X274750D01*
X274618Y344618D01*
X273629Y345431D01*
X272499Y346034D01*
X271274Y346406D01*
X270000Y346531D01*
X268726Y346406D01*
X267500Y346034D01*
X266371Y345431D01*
X265382Y344618D01*
X265250Y344458D01*
X264750D01*
X264618Y344619D01*
X263629Y345431D01*
X262499Y346034D01*
X261274Y346406D01*
X260000Y346532D01*
X258726Y346406D01*
X257501Y346034D01*
X256371Y345431D01*
X255382Y344619D01*
X255250Y344458D01*
X254750D01*
X254619Y344618D01*
X253629Y345431D01*
X252500Y346034D01*
X251274Y346406D01*
X250000Y346531D01*
X248726Y346406D01*
X247501Y346034D01*
X246371Y345431D01*
X245382Y344618D01*
X245250Y344458D01*
X244750D01*
X244618Y344619D01*
X243629Y345431D01*
X242499Y346034D01*
X241274Y346406D01*
X240000Y346532D01*
X238726Y346406D01*
X237501Y346034D01*
X236371Y345431D01*
X235382Y344619D01*
X235250Y344458D01*
X234750D01*
X234618Y344618D01*
X233629Y345431D01*
X232500Y346034D01*
X231274Y346406D01*
X230000Y346531D01*
X228726Y346406D01*
X227501Y346034D01*
X226371Y345431D01*
X225382Y344618D01*
X225250Y344458D01*
X224750D01*
X224618Y344619D01*
X223629Y345431D01*
X222499Y346034D01*
X221274Y346406D01*
X220000Y346532D01*
X218726Y346406D01*
X217500Y346034D01*
X216371Y345431D01*
X215382Y344619D01*
X215250Y344458D01*
X214750D01*
X214618Y344618D01*
X213629Y345431D01*
X212499Y346034D01*
X211274Y346406D01*
X210000Y346531D01*
X208726Y346406D01*
X207501Y346034D01*
X206371Y345431D01*
X205382Y344618D01*
X205250Y344458D01*
X204750D01*
X204618Y344619D01*
X203629Y345431D01*
X202500Y346034D01*
X201274Y346406D01*
X200000Y346532D01*
X198726Y346406D01*
X197501Y346034D01*
X196371Y345431D01*
X195382Y344619D01*
X195250Y344458D01*
X194750D01*
X194618Y344618D01*
X193629Y345431D01*
X192499Y346034D01*
X191274Y346406D01*
X190000Y346531D01*
X188726Y346406D01*
X187501Y346034D01*
X186371Y345431D01*
X185382Y344618D01*
X184569Y343629D01*
X183966Y342499D01*
X183594Y341274D01*
X183469Y340000D01*
X183594Y338726D01*
X183966Y337500D01*
X184569Y336371D01*
X185382Y335382D01*
X186371Y334569D01*
X187501Y333966D01*
X188726Y333594D01*
X190000Y333468D01*
X191274Y333594D01*
X192499Y333966D01*
X193629Y334569D01*
X194618Y335382D01*
X194750Y335542D01*
X195250D01*
X195382Y335382D01*
X196371Y334569D01*
X197501Y333966D01*
X198726Y333594D01*
X200000Y333469D01*
X201274Y333594D01*
X202500Y333966D01*
X203629Y334569D01*
X204618Y335382D01*
X204750Y335542D01*
X205250D01*
X205382Y335382D01*
X206371Y334569D01*
X207501Y333966D01*
X208726Y333594D01*
X210000Y333469D01*
X211274Y333594D01*
X212499Y333966D01*
X213629Y334569D01*
X214618Y335382D01*
X214750Y335542D01*
X215250D01*
X215382Y335382D01*
X216371Y334569D01*
X217500Y333966D01*
X218726Y333594D01*
X220000Y333469D01*
X221274Y333594D01*
X222499Y333966D01*
X223629Y334569D01*
X224618Y335382D01*
X224750Y335542D01*
X225250D01*
X225382Y335382D01*
X226371Y334569D01*
X227501Y333966D01*
X228726Y333594D01*
X230000Y333468D01*
X231274Y333594D01*
X232500Y333966D01*
X233629Y334569D01*
X234618Y335382D01*
X234750Y335542D01*
X235250D01*
X235382Y335382D01*
X236371Y334569D01*
X237501Y333966D01*
X238726Y333594D01*
X240000Y333469D01*
X241274Y333594D01*
X242499Y333966D01*
X243629Y334569D01*
X244618Y335382D01*
X244750Y335542D01*
X245250D01*
X245382Y335382D01*
X246371Y334569D01*
X247501Y333966D01*
X248726Y333594D01*
X250000Y333469D01*
X251274Y333594D01*
X252500Y333966D01*
X253629Y334569D01*
X254619Y335382D01*
X254750Y335542D01*
X255250D01*
X255382Y335382D01*
X256371Y334569D01*
X257501Y333966D01*
X258726Y333594D01*
X260000Y333469D01*
X261274Y333594D01*
X262499Y333966D01*
X263629Y334569D01*
X264618Y335382D01*
X264750Y335542D01*
X265250D01*
X265382Y335382D01*
X266371Y334569D01*
X267500Y333966D01*
X268726Y333594D01*
X270000Y333468D01*
X271274Y333594D01*
X272499Y333966D01*
X273629Y334569D01*
X274618Y335382D01*
X274750Y335542D01*
X275250D01*
X275382Y335382D01*
X276371Y334569D01*
X277501Y333966D01*
X278726Y333594D01*
X280000Y333468D01*
X281274Y333594D01*
X282500Y333966D01*
X283629Y334569D01*
X284618Y335382D01*
X285431Y336371D01*
X286034Y337500D01*
X286406Y338726D01*
X286531Y340000D01*
X286406Y341274D01*
X286034Y342499D01*
X285431Y343629D01*
X284618Y344618D01*
X283629Y345431D01*
X282500Y346034D01*
X281529Y346328D01*
Y349000D01*
X281413Y349585D01*
X281081Y350081D01*
X275081Y356081D01*
X274585Y356413D01*
X274000Y356529D01*
X261633D01*
X256529Y361633D01*
Y374366D01*
X257320Y375157D01*
X258564Y374642D01*
X260000Y374452D01*
X261436Y374642D01*
X262774Y375196D01*
X263923Y376077D01*
X264707Y377100D01*
X264873Y377143D01*
X265127D01*
X265293Y377100D01*
X266077Y376077D01*
X267226Y375196D01*
X268564Y374642D01*
X270000Y374452D01*
X271436Y374642D01*
X272774Y375196D01*
X273923Y376077D01*
X274707Y377100D01*
X274873Y377143D01*
X275127D01*
X275293Y377100D01*
X276077Y376077D01*
X277100Y375293D01*
X277143Y375127D01*
Y374873D01*
X277100Y374707D01*
X276077Y373923D01*
X275196Y372774D01*
X274642Y371436D01*
X274452Y370000D01*
X274642Y368564D01*
X275196Y367226D01*
X276077Y366077D01*
X277226Y365196D01*
X278564Y364642D01*
X280000Y364453D01*
X281436Y364642D01*
X282774Y365196D01*
X283923Y366077D01*
X284804Y367226D01*
X285358Y368564D01*
X285547Y370000D01*
X285358Y371436D01*
X284804Y372774D01*
X283923Y373923D01*
X282900Y374707D01*
X282857Y374873D01*
Y375127D01*
X282900Y375293D01*
X283923Y376077D01*
X284707Y377100D01*
X284873Y377143D01*
X285127D01*
X285293Y377100D01*
X286077Y376077D01*
X287226Y375196D01*
X288564Y374642D01*
X290000Y374452D01*
X291436Y374642D01*
X292680Y375157D01*
X294471Y373366D01*
Y335633D01*
X280366Y321529D01*
X257000D01*
X256415Y321413D01*
X255919Y321081D01*
X186846Y252009D01*
X186220Y251884D01*
X185558Y251442D01*
X185116Y250780D01*
X184961Y250000D01*
X185116Y249220D01*
X185558Y248558D01*
X186220Y248116D01*
X187000Y247961D01*
X187780Y248116D01*
X188442Y248558D01*
X188884Y249220D01*
X189008Y249846D01*
X257633Y318471D01*
X281000D01*
X281585Y318587D01*
X282081Y318919D01*
X297081Y333919D01*
X297413Y334415D01*
X297529Y335000D01*
Y374000D01*
X297413Y374585D01*
X297081Y375081D01*
X294843Y377320D01*
X295358Y378564D01*
X295548Y380000D01*
X295358Y381436D01*
X294804Y382774D01*
X293923Y383923D01*
X292774Y384804D01*
X291436Y385358D01*
X290000Y385547D01*
X288564Y385358D01*
X287226Y384804D01*
X286077Y383923D01*
X285293Y382900D01*
X285127Y382857D01*
X284873D01*
X284707Y382900D01*
X283923Y383923D01*
X282774Y384804D01*
X281436Y385358D01*
X280000Y385547D01*
X278564Y385358D01*
X277226Y384804D01*
X276077Y383923D01*
X275293Y382900D01*
X275127Y382857D01*
X274873D01*
X274707Y382900D01*
X273923Y383923D01*
X272774Y384804D01*
X271436Y385358D01*
X270000Y385547D01*
X268564Y385358D01*
X267226Y384804D01*
X266077Y383923D01*
X265293Y382900D01*
X265127Y382857D01*
X264873D01*
X264707Y382900D01*
X263923Y383923D01*
X262774Y384804D01*
X261436Y385358D01*
X260000Y385547D01*
X258564Y385358D01*
X257226Y384804D01*
X256077Y383923D01*
X255293Y382900D01*
X255127Y382857D01*
X254873D01*
X254707Y382900D01*
X253923Y383923D01*
X252774Y384804D01*
X251529Y385320D01*
Y387367D01*
X253633Y389471D01*
X295367D01*
X298471Y386367D01*
Y297000D01*
X298587Y296415D01*
X298919Y295919D01*
X303591Y291246D01*
X303468Y290000D01*
X303594Y288726D01*
X303966Y287501D01*
X304569Y286371D01*
X305381Y285382D01*
X305542Y285250D01*
Y284750D01*
X305382Y284618D01*
X304569Y283629D01*
X303966Y282500D01*
X303594Y281274D01*
X303469Y280000D01*
X303594Y278726D01*
X303966Y277501D01*
X304569Y276371D01*
X305382Y275382D01*
X305542Y275250D01*
Y274750D01*
X305382Y274618D01*
X304569Y273629D01*
X303966Y272499D01*
X303594Y271274D01*
X303469Y270000D01*
X303594Y268726D01*
X303966Y267500D01*
X304569Y266371D01*
X305382Y265382D01*
X305542Y265250D01*
Y264750D01*
X305381Y264618D01*
X304569Y263629D01*
X303966Y262499D01*
X303594Y261274D01*
X303468Y260000D01*
X303594Y258726D01*
X303966Y257501D01*
X304569Y256371D01*
X305381Y255382D01*
X305542Y255250D01*
Y254750D01*
X305382Y254618D01*
X304569Y253629D01*
X303966Y252500D01*
X303594Y251274D01*
X303469Y250000D01*
X303594Y248726D01*
X303966Y247500D01*
X304569Y246371D01*
X305382Y245382D01*
X305542Y245250D01*
Y244750D01*
X305382Y244618D01*
X304569Y243629D01*
X303966Y242499D01*
X303594Y241274D01*
X303469Y240000D01*
X303594Y238726D01*
X303966Y237501D01*
X304569Y236371D01*
X305382Y235382D01*
X305542Y235250D01*
Y234750D01*
X305382Y234618D01*
X304569Y233629D01*
X303966Y232500D01*
X303594Y231274D01*
X303469Y230000D01*
X303594Y228726D01*
X303966Y227501D01*
X304569Y226371D01*
X305382Y225382D01*
X305542Y225250D01*
Y224750D01*
X305382Y224618D01*
X304569Y223629D01*
X303966Y222499D01*
X303594Y221274D01*
X303469Y220000D01*
X303594Y218726D01*
X303966Y217500D01*
X304569Y216371D01*
X305382Y215382D01*
X305542Y215250D01*
Y214750D01*
X305382Y214618D01*
X304569Y213629D01*
X303966Y212499D01*
X303594Y211274D01*
X303469Y210000D01*
X303594Y208726D01*
X303966Y207501D01*
X304569Y206371D01*
X305382Y205382D01*
X305542Y205250D01*
Y204750D01*
X305381Y204618D01*
X304569Y203629D01*
X303966Y202500D01*
X303594Y201274D01*
X303468Y200000D01*
X303594Y198726D01*
X303966Y197501D01*
X304569Y196371D01*
X305381Y195382D01*
X305542Y195250D01*
Y194750D01*
X305382Y194618D01*
X305250Y194458D01*
X304750D01*
X304618Y194618D01*
X303629Y195431D01*
X302500Y196034D01*
X301274Y196406D01*
X300000Y196531D01*
X298726Y196406D01*
X297500Y196034D01*
X296371Y195431D01*
X295382Y194618D01*
X294569Y193629D01*
X293966Y192499D01*
X293594Y191274D01*
X293469Y190000D01*
X293594Y188726D01*
X293966Y187501D01*
X294569Y186371D01*
X295382Y185382D01*
X295542Y185250D01*
Y184750D01*
X295382Y184618D01*
X294569Y183629D01*
X293966Y182500D01*
X293594Y181274D01*
X293469Y180000D01*
X293594Y178726D01*
X293966Y177500D01*
X294569Y176371D01*
X295382Y175382D01*
X295542Y175250D01*
Y174750D01*
X295382Y174618D01*
X294569Y173629D01*
X293966Y172500D01*
X293594Y171274D01*
X293469Y170000D01*
X293594Y168726D01*
X293966Y167500D01*
X294569Y166371D01*
X295382Y165382D01*
X296371Y164569D01*
X297500Y163966D01*
X298726Y163594D01*
X300000Y163469D01*
X301274Y163594D01*
X302500Y163966D01*
X303629Y164569D01*
X304618Y165382D01*
X304750Y165542D01*
X305250D01*
X305382Y165382D01*
X305542Y165250D01*
Y164750D01*
X305382Y164618D01*
X304569Y163629D01*
X303966Y162499D01*
X303594Y161274D01*
X303469Y160000D01*
X303594Y158726D01*
X303966Y157501D01*
X304569Y156371D01*
X305382Y155382D01*
X306371Y154569D01*
X307501Y153966D01*
X308726Y153594D01*
X310000Y153469D01*
X311274Y153594D01*
X312499Y153966D01*
X313629Y154569D01*
X314618Y155382D01*
X314750Y155542D01*
X315250D01*
X315382Y155382D01*
X315542Y155250D01*
Y154750D01*
X315382Y154618D01*
X314569Y153629D01*
X313966Y152499D01*
X313594Y151274D01*
X313469Y150000D01*
X313594Y148726D01*
X313966Y147501D01*
X314569Y146371D01*
X315382Y145382D01*
X315542Y145250D01*
Y144750D01*
X315382Y144618D01*
X314569Y143629D01*
X313992Y142549D01*
X311056D01*
X294802Y158802D01*
X286051Y167554D01*
X286406Y168726D01*
X286531Y170000D01*
X286406Y171274D01*
X286034Y172500D01*
X285431Y173629D01*
X284618Y174618D01*
X283629Y175431D01*
X282500Y176034D01*
X281274Y176406D01*
X280000Y176531D01*
X278726Y176406D01*
X277501Y176034D01*
X276371Y175431D01*
X275382Y174618D01*
X274569Y173629D01*
X273966Y172500D01*
X273594Y171274D01*
X273469Y170000D01*
X273594Y168726D01*
X273966Y167500D01*
X274569Y166371D01*
X275382Y165382D01*
X276371Y164569D01*
X277501Y163966D01*
X278726Y163594D01*
X280000Y163469D01*
X281274Y163594D01*
X282446Y163949D01*
X291198Y155198D01*
X291471Y154925D01*
Y146311D01*
X291116Y145780D01*
X290961Y145000D01*
X291116Y144220D01*
X291558Y143558D01*
X292220Y143116D01*
X293000Y142961D01*
X293780Y143116D01*
X294442Y143558D01*
X294884Y144220D01*
X295039Y145000D01*
X294884Y145780D01*
X294529Y146311D01*
Y151213D01*
X294991Y151404D01*
X308198Y138198D01*
X309025Y137645D01*
X310000Y137451D01*
X313992D01*
X314569Y136371D01*
X315382Y135382D01*
X316371Y134569D01*
X317500Y133966D01*
X318726Y133594D01*
X320000Y133469D01*
X321274Y133594D01*
X322499Y133966D01*
X323629Y134569D01*
X324618Y135382D01*
X324750Y135542D01*
X325250D01*
X325382Y135382D01*
X326371Y134569D01*
X327501Y133966D01*
X328726Y133594D01*
X330000Y133469D01*
X331274Y133594D01*
X332500Y133966D01*
X333629Y134569D01*
X334618Y135382D01*
X334750Y135542D01*
X335250D01*
X335382Y135382D01*
X336371Y134569D01*
X337501Y133966D01*
X338726Y133594D01*
X340000Y133469D01*
X341274Y133594D01*
X342499Y133966D01*
X343629Y134569D01*
X344618Y135382D01*
X344750Y135542D01*
X345250D01*
X345382Y135382D01*
X346371Y134569D01*
X347500Y133966D01*
X348726Y133594D01*
X350000Y133469D01*
X351274Y133594D01*
X352500Y133966D01*
X353629Y134569D01*
X354618Y135382D01*
X354750Y135542D01*
X355250D01*
X355382Y135382D01*
X356371Y134569D01*
X357501Y133966D01*
X358726Y133594D01*
X360000Y133469D01*
X361274Y133594D01*
X362499Y133966D01*
X363629Y134569D01*
X364618Y135382D01*
X364750Y135542D01*
X365250D01*
X365382Y135382D01*
X366371Y134569D01*
X367500Y133966D01*
X368726Y133594D01*
X370000Y133469D01*
X371274Y133594D01*
X372499Y133966D01*
X373629Y134569D01*
X374618Y135382D01*
X374750Y135542D01*
X375250D01*
X375382Y135382D01*
X376371Y134569D01*
X377501Y133966D01*
X378726Y133594D01*
X380000Y133469D01*
X381274Y133594D01*
X382500Y133966D01*
X383629Y134569D01*
X384618Y135382D01*
X384750Y135542D01*
X385250D01*
X385382Y135382D01*
X386371Y134569D01*
X387501Y133966D01*
X388726Y133594D01*
X390000Y133469D01*
X391274Y133594D01*
X392499Y133966D01*
X393629Y134569D01*
X394618Y135382D01*
X394750Y135542D01*
X395250D01*
X395382Y135382D01*
X396371Y134569D01*
X397500Y133966D01*
X398726Y133594D01*
X400000Y133469D01*
X401274Y133594D01*
X402499Y133966D01*
X403629Y134569D01*
X404618Y135382D01*
X404750Y135542D01*
X405250D01*
X405382Y135382D01*
X406371Y134569D01*
X407501Y133966D01*
X408726Y133594D01*
X410000Y133469D01*
X411274Y133594D01*
X412500Y133966D01*
X413629Y134569D01*
X414618Y135382D01*
X414750Y135542D01*
X415250D01*
X415382Y135382D01*
X416371Y134569D01*
X417500Y133966D01*
X418726Y133594D01*
X420000Y133469D01*
X421274Y133594D01*
X422500Y133966D01*
X423629Y134569D01*
X424618Y135382D01*
X425431Y136371D01*
X426034Y137501D01*
X426406Y138726D01*
X426532Y140000D01*
X426406Y141274D01*
X426034Y142499D01*
X425431Y143629D01*
X424618Y144618D01*
X424458Y144750D01*
Y145250D01*
X424618Y145382D01*
X425431Y146371D01*
X426034Y147501D01*
X426406Y148726D01*
X426532Y150000D01*
X426406Y151274D01*
X426034Y152499D01*
X425431Y153629D01*
X424618Y154618D01*
X424458Y154750D01*
Y155250D01*
X424618Y155382D01*
X425431Y156371D01*
X426034Y157501D01*
X426406Y158726D01*
X426532Y160000D01*
X426406Y161274D01*
X426034Y162499D01*
X425431Y163629D01*
X424618Y164618D01*
X424458Y164750D01*
Y165250D01*
X424618Y165382D01*
X425431Y166371D01*
X426034Y167500D01*
X426406Y168726D01*
X426532Y170000D01*
X426406Y171274D01*
X426034Y172500D01*
X425431Y173629D01*
X424618Y174618D01*
X424458Y174750D01*
Y175250D01*
X424618Y175382D01*
X425431Y176371D01*
X426034Y177500D01*
X426406Y178726D01*
X426532Y180000D01*
X426406Y181274D01*
X426034Y182500D01*
X425431Y183629D01*
X424618Y184618D01*
X424458Y184750D01*
Y185250D01*
X424618Y185382D01*
X425431Y186371D01*
X426034Y187501D01*
X426406Y188726D01*
X426532Y190000D01*
X426406Y191274D01*
X426034Y192499D01*
X425431Y193629D01*
X424618Y194618D01*
X424458Y194750D01*
Y195250D01*
X424618Y195382D01*
X425431Y196371D01*
X426034Y197501D01*
X426406Y198726D01*
X426532Y200000D01*
X426406Y201274D01*
X426034Y202500D01*
X425431Y203629D01*
X424618Y204618D01*
X424458Y204750D01*
Y205250D01*
X424618Y205382D01*
X425431Y206371D01*
X426034Y207501D01*
X426406Y208726D01*
X426532Y210000D01*
X426406Y211274D01*
X426034Y212499D01*
X425431Y213629D01*
X424618Y214618D01*
X424458Y214750D01*
Y215250D01*
X424618Y215382D01*
X425431Y216371D01*
X426034Y217500D01*
X426406Y218726D01*
X426532Y220000D01*
X426406Y221274D01*
X426034Y222499D01*
X425431Y223629D01*
X424618Y224618D01*
X424458Y224750D01*
Y225250D01*
X424618Y225382D01*
X425431Y226371D01*
X426034Y227501D01*
X426406Y228726D01*
X426532Y230000D01*
X426406Y231274D01*
X426034Y232500D01*
X425431Y233629D01*
X424618Y234618D01*
X424458Y234750D01*
Y235250D01*
X424618Y235382D01*
X425431Y236371D01*
X426034Y237501D01*
X426406Y238726D01*
X426532Y240000D01*
X426406Y241274D01*
X426034Y242499D01*
X425431Y243629D01*
X424618Y244618D01*
X424458Y244750D01*
Y245250D01*
X424618Y245382D01*
X425431Y246371D01*
X426034Y247500D01*
X426406Y248726D01*
X426532Y250000D01*
X426406Y251274D01*
X426034Y252500D01*
X425431Y253629D01*
X424618Y254618D01*
X424458Y254750D01*
Y255250D01*
X424618Y255382D01*
X425431Y256371D01*
X426034Y257501D01*
X426406Y258726D01*
X426532Y260000D01*
X426406Y261274D01*
X426034Y262499D01*
X425431Y263629D01*
X424618Y264618D01*
X424458Y264750D01*
Y265250D01*
X424618Y265382D01*
X425431Y266371D01*
X426034Y267500D01*
X426406Y268726D01*
X426532Y270000D01*
X426406Y271274D01*
X426034Y272499D01*
X425431Y273629D01*
X424618Y274618D01*
X424458Y274750D01*
Y275250D01*
X424618Y275382D01*
X425431Y276371D01*
X426034Y277501D01*
X426406Y278726D01*
X426532Y280000D01*
X426406Y281274D01*
X426034Y282500D01*
X425431Y283629D01*
X424618Y284618D01*
X424458Y284750D01*
Y285250D01*
X424618Y285382D01*
X425431Y286371D01*
X426034Y287501D01*
X426406Y288726D01*
X426532Y290000D01*
X426406Y291274D01*
X426034Y292499D01*
X425431Y293629D01*
X424618Y294618D01*
X424458Y294750D01*
Y295250D01*
X424618Y295382D01*
X425431Y296371D01*
X426034Y297500D01*
X426406Y298726D01*
X426532Y300000D01*
X426406Y301274D01*
X426034Y302500D01*
X425431Y303629D01*
X424618Y304618D01*
X424458Y304750D01*
Y305250D01*
X424618Y305382D01*
X425431Y306371D01*
X426034Y307501D01*
X426406Y308726D01*
X426532Y310000D01*
X426406Y311274D01*
X426034Y312499D01*
X425431Y313629D01*
X424618Y314618D01*
X424458Y314750D01*
Y315250D01*
X424618Y315382D01*
X425431Y316371D01*
X426034Y317500D01*
X426406Y318726D01*
X426532Y320000D01*
X426406Y321274D01*
X426034Y322499D01*
X425431Y323629D01*
X424618Y324618D01*
X424458Y324750D01*
Y325250D01*
X424618Y325382D01*
X425431Y326371D01*
X426034Y327501D01*
X426406Y328726D01*
X426532Y330000D01*
X426406Y331274D01*
X426034Y332500D01*
X425431Y333629D01*
X424618Y334618D01*
X424458Y334750D01*
Y335250D01*
X424618Y335382D01*
X425431Y336371D01*
X426034Y337501D01*
X426406Y338726D01*
X426532Y340000D01*
X426406Y341274D01*
X426034Y342499D01*
X425431Y343629D01*
X424618Y344618D01*
X424458Y344750D01*
Y345250D01*
X424618Y345382D01*
X425431Y346371D01*
X426034Y347500D01*
X426406Y348726D01*
X426532Y350000D01*
X426406Y351274D01*
X426034Y352500D01*
X425431Y353629D01*
X424618Y354618D01*
X424458Y354750D01*
Y355250D01*
X424618Y355382D01*
X425431Y356371D01*
X426034Y357501D01*
X426406Y358726D01*
X426532Y360000D01*
X426406Y361274D01*
X426034Y362499D01*
X425431Y363629D01*
X424618Y364618D01*
X424458Y364750D01*
Y365250D01*
X424618Y365382D01*
X425431Y366371D01*
X426034Y367500D01*
X426406Y368726D01*
X426532Y370000D01*
X426406Y371274D01*
X426034Y372499D01*
X425431Y373629D01*
X424618Y374618D01*
X424458Y374750D01*
Y375250D01*
X424618Y375382D01*
X425431Y376371D01*
X426034Y377501D01*
X426406Y378726D01*
X426532Y380000D01*
X426406Y381274D01*
X426034Y382500D01*
X425431Y383629D01*
X424618Y384618D01*
X424458Y384750D01*
Y385250D01*
X424618Y385382D01*
X425431Y386371D01*
X426034Y387501D01*
X426406Y388726D01*
X426532Y390000D01*
X426406Y391274D01*
X426034Y392499D01*
X425431Y393629D01*
X424618Y394618D01*
X423629Y395431D01*
X422500Y396034D01*
X421274Y396406D01*
X420000Y396531D01*
X418726Y396406D01*
X418127Y396224D01*
X417921Y396684D01*
X419134Y397428D01*
X420989Y399011D01*
X422572Y400866D01*
X423846Y402945D01*
X424779Y405198D01*
X425349Y407569D01*
X425540Y410000D01*
X425349Y412431D01*
X424779Y414802D01*
X423846Y417055D01*
X422572Y419134D01*
X420989Y420989D01*
X419134Y422572D01*
X417055Y423846D01*
X414802Y424779D01*
X412431Y425349D01*
X410000Y425540D01*
X407569Y425349D01*
X405198Y424779D01*
X402945Y423846D01*
X400866Y422572D01*
X399011Y420989D01*
X397428Y419134D01*
X396684Y417921D01*
X396224Y418127D01*
X396406Y418726D01*
X396531Y420000D01*
X396406Y421274D01*
X396034Y422500D01*
X395431Y423629D01*
X394618Y424618D01*
X393629Y425431D01*
X392499Y426034D01*
X391274Y426406D01*
X390000Y426532D01*
D02*
G37*
G36*
X110000D02*
X108726Y426406D01*
X107501Y426034D01*
X106371Y425431D01*
X105382Y424618D01*
X104569Y423629D01*
X103966Y422500D01*
X103594Y421274D01*
X103469Y420000D01*
X103594Y418726D01*
X103966Y417500D01*
X104569Y416371D01*
X105382Y415382D01*
X106371Y414569D01*
X107501Y413966D01*
X108726Y413594D01*
X110000Y413469D01*
X111274Y413594D01*
X112499Y413966D01*
X113629Y414569D01*
X114618Y415382D01*
X115431Y416371D01*
X116034Y417500D01*
X116406Y418726D01*
X116531Y420000D01*
X116406Y421274D01*
X116034Y422500D01*
X115431Y423629D01*
X114618Y424618D01*
X113629Y425431D01*
X112499Y426034D01*
X111274Y426406D01*
X110000Y426532D01*
D02*
G37*
G36*
X111059Y343122D02*
X100941D01*
Y333004D01*
X111059D01*
Y343122D01*
D02*
G37*
G36*
X120000Y279510D02*
X118731Y279343D01*
X117548Y278854D01*
X116532Y278074D01*
X115753Y277058D01*
X115263Y275876D01*
X115096Y274606D01*
X115263Y273337D01*
X115753Y272154D01*
X116532Y271139D01*
X117548Y270359D01*
X118731Y269869D01*
X120000Y269702D01*
X121269Y269869D01*
X122452Y270359D01*
X123468Y271139D01*
X124247Y272154D01*
X124737Y273337D01*
X124904Y274606D01*
X124737Y275876D01*
X124247Y277058D01*
X123468Y278074D01*
X122452Y278854D01*
X121269Y279343D01*
X120000Y279510D01*
D02*
G37*
G36*
X224000Y265039D02*
X223220Y264884D01*
X222558Y264442D01*
X222116Y263780D01*
X221991Y263154D01*
X216846Y258009D01*
X216220Y257884D01*
X215558Y257442D01*
X215116Y256780D01*
X214961Y256000D01*
X215116Y255220D01*
X215558Y254558D01*
X216220Y254116D01*
X217000Y253961D01*
X217780Y254116D01*
X218442Y254558D01*
X218884Y255220D01*
X219008Y255846D01*
X224000Y260837D01*
X228471Y256366D01*
Y255311D01*
X228116Y254780D01*
X227992Y254154D01*
X224491Y250654D01*
X221991D01*
Y249529D01*
X221311D01*
X220780Y249884D01*
X220000Y250039D01*
X219220Y249884D01*
X218558Y249442D01*
X218116Y248780D01*
X217961Y248000D01*
X218116Y247220D01*
X218558Y246558D01*
X219220Y246116D01*
X220000Y245961D01*
X220780Y246116D01*
X221311Y246471D01*
X221991D01*
Y242946D01*
X229109D01*
Y250654D01*
X229110Y250654D01*
X229110D01*
X229264Y251101D01*
X230154Y251992D01*
X230780Y252116D01*
X231442Y252558D01*
X231884Y253220D01*
X232039Y254000D01*
X231884Y254780D01*
X231529Y255311D01*
Y257000D01*
X231413Y257585D01*
X231081Y258081D01*
X226009Y263154D01*
X225884Y263780D01*
X225442Y264442D01*
X224780Y264884D01*
X224000Y265039D01*
D02*
G37*
G36*
X120492Y304176D02*
X119508D01*
X118470Y304039D01*
X117502Y303639D01*
X116672Y303001D01*
X116034Y302171D01*
X115634Y301203D01*
X115497Y300165D01*
X115634Y299127D01*
X116034Y298160D01*
X116157Y298000D01*
X116034Y297840D01*
X115634Y296873D01*
X115497Y295835D01*
X115634Y294797D01*
X116034Y293829D01*
X116672Y292999D01*
X117502Y292361D01*
X118470Y291961D01*
X119508Y291824D01*
X120492D01*
X121530Y291961D01*
X122497Y292361D01*
X123328Y292999D01*
X123966Y293829D01*
X124366Y294797D01*
X124503Y295835D01*
X124366Y296873D01*
X123966Y297840D01*
X123843Y298000D01*
X123966Y298160D01*
X124366Y299127D01*
X124503Y300165D01*
X124366Y301203D01*
X123966Y302171D01*
X123328Y303001D01*
X122497Y303639D01*
X121530Y304039D01*
X120492Y304176D01*
D02*
G37*
G36*
X80000Y316531D02*
X78726Y316406D01*
X77500Y316034D01*
X76371Y315431D01*
X75382Y314618D01*
X75250Y314458D01*
X74750D01*
X74618Y314618D01*
X73629Y315431D01*
X72500Y316034D01*
X71274Y316406D01*
X70000Y316531D01*
X68726Y316406D01*
X67501Y316034D01*
X66371Y315431D01*
X65382Y314618D01*
X65250Y314458D01*
X64750D01*
X64618Y314618D01*
X63629Y315431D01*
X62499Y316034D01*
X61274Y316406D01*
X60000Y316531D01*
X58726Y316406D01*
X57500Y316034D01*
X56371Y315431D01*
X55382Y314618D01*
X55250Y314458D01*
X54750D01*
X54618Y314618D01*
X53629Y315431D01*
X52500Y316034D01*
X51274Y316406D01*
X50000Y316531D01*
X48726Y316406D01*
X47501Y316034D01*
X46371Y315431D01*
X45382Y314618D01*
X44569Y313629D01*
X43966Y312499D01*
X43594Y311274D01*
X43468Y310000D01*
X43594Y308726D01*
X43966Y307501D01*
X44569Y306371D01*
X45382Y305382D01*
X45542Y305250D01*
Y304750D01*
X45382Y304618D01*
X44569Y303629D01*
X43966Y302500D01*
X43594Y301274D01*
X43468Y300000D01*
X43594Y298726D01*
X43966Y297500D01*
X44569Y296371D01*
X45382Y295382D01*
X45542Y295250D01*
Y294750D01*
X45382Y294618D01*
X44569Y293629D01*
X43966Y292499D01*
X43594Y291274D01*
X43468Y290000D01*
X43594Y288726D01*
X43966Y287501D01*
X44569Y286371D01*
X45382Y285382D01*
X45542Y285250D01*
Y284750D01*
X45382Y284618D01*
X44569Y283629D01*
X43966Y282500D01*
X43594Y281274D01*
X43468Y280000D01*
X43594Y278726D01*
X43966Y277501D01*
X44569Y276371D01*
X45382Y275382D01*
X45542Y275250D01*
Y274750D01*
X45382Y274618D01*
X44569Y273629D01*
X43966Y272499D01*
X43594Y271274D01*
X43468Y270000D01*
X43594Y268726D01*
X43966Y267500D01*
X44569Y266371D01*
X45382Y265382D01*
X46371Y264569D01*
X47501Y263966D01*
X48726Y263594D01*
X50000Y263469D01*
X51274Y263594D01*
X52500Y263966D01*
X53629Y264569D01*
X54618Y265382D01*
X54750Y265542D01*
X55250D01*
X55382Y265382D01*
X56371Y264569D01*
X57500Y263966D01*
X58726Y263594D01*
X60000Y263469D01*
X61274Y263594D01*
X62499Y263966D01*
X63629Y264569D01*
X64618Y265382D01*
X64750Y265542D01*
X65250D01*
X65382Y265382D01*
X66371Y264569D01*
X67501Y263966D01*
X68726Y263594D01*
X70000Y263469D01*
X71274Y263594D01*
X72500Y263966D01*
X73629Y264569D01*
X74618Y265382D01*
X74750Y265542D01*
X75250D01*
X75382Y265382D01*
X76371Y264569D01*
X77500Y263966D01*
X78726Y263594D01*
X80000Y263469D01*
X81274Y263594D01*
X82499Y263966D01*
X83629Y264569D01*
X84618Y265382D01*
X85431Y266371D01*
X86034Y267500D01*
X86406Y268726D01*
X86531Y270000D01*
X86406Y271274D01*
X86034Y272499D01*
X85431Y273629D01*
X84618Y274618D01*
X84458Y274750D01*
Y275250D01*
X84618Y275382D01*
X85431Y276371D01*
X86034Y277501D01*
X86406Y278726D01*
X86531Y280000D01*
X86406Y281274D01*
X86034Y282500D01*
X85431Y283629D01*
X84618Y284618D01*
X84458Y284750D01*
Y285250D01*
X84618Y285382D01*
X85431Y286371D01*
X86034Y287501D01*
X86406Y288726D01*
X86531Y290000D01*
X86406Y291274D01*
X86034Y292499D01*
X85431Y293629D01*
X84618Y294618D01*
X84458Y294750D01*
Y295250D01*
X84618Y295382D01*
X85431Y296371D01*
X86034Y297500D01*
X86406Y298726D01*
X86531Y300000D01*
X86406Y301274D01*
X86034Y302500D01*
X85431Y303629D01*
X84618Y304618D01*
X84458Y304750D01*
Y305250D01*
X84618Y305382D01*
X85431Y306371D01*
X86034Y307501D01*
X86406Y308726D01*
X86531Y310000D01*
X86406Y311274D01*
X86034Y312499D01*
X85431Y313629D01*
X84618Y314618D01*
X83629Y315431D01*
X82499Y316034D01*
X81274Y316406D01*
X80000Y316531D01*
D02*
G37*
G36*
X310000D02*
X308726Y316406D01*
X307501Y316034D01*
X306371Y315431D01*
X305382Y314618D01*
X304569Y313629D01*
X303966Y312499D01*
X303594Y311274D01*
X303469Y310000D01*
X303594Y308726D01*
X303966Y307501D01*
X304569Y306371D01*
X305382Y305382D01*
X306371Y304569D01*
X307501Y303966D01*
X308726Y303594D01*
X310000Y303469D01*
X311274Y303594D01*
X312499Y303966D01*
X313629Y304569D01*
X314618Y305382D01*
X315431Y306371D01*
X316034Y307501D01*
X316406Y308726D01*
X316531Y310000D01*
X316406Y311274D01*
X316034Y312499D01*
X315431Y313629D01*
X314618Y314618D01*
X313629Y315431D01*
X312499Y316034D01*
X311274Y316406D01*
X310000Y316531D01*
D02*
G37*
%LPD*%
D13*
X225550Y246800D02*
D03*
X231850D02*
D03*
D24*
X410000Y140000D02*
X420000D01*
X400000D02*
X410000D01*
X390000D02*
X400000D01*
X380000D02*
X390000D01*
X370000D02*
X380000D01*
X360000D02*
X370000D01*
X350000D02*
X360000D01*
X340000D02*
X350000D01*
X330000D02*
X340000D01*
X320000D02*
X330000D01*
X310000D02*
X320000D01*
X293000Y157000D02*
X310000Y140000D01*
X280000Y170000D02*
X293000Y157000D01*
X110000Y420000D02*
X111000D01*
X130000D02*
X131000Y419000D01*
Y391000D02*
Y419000D01*
X106000Y345937D02*
Y366000D01*
X131000Y391000D01*
X106000Y345937D02*
X119063D01*
X131000Y334000D01*
X136000D01*
X122000Y320000D02*
X136000Y334000D01*
X101000Y320000D02*
X122000D01*
X98000Y317000D02*
X101000Y320000D01*
D25*
X290000Y380000D02*
X296000Y374000D01*
Y335000D02*
Y374000D01*
X281000Y320000D02*
X296000Y335000D01*
X257000Y320000D02*
X281000D01*
X187000Y250000D02*
X257000Y320000D01*
X300000Y297000D02*
Y387000D01*
Y297000D02*
X307000Y290000D01*
X296000Y391000D02*
X300000Y387000D01*
X75000Y378000D02*
Y393000D01*
X96000Y246000D02*
X102000Y240000D01*
X140000D01*
X200000Y370000D02*
X250000D01*
X170000Y340000D02*
X200000Y370000D01*
X255000Y375000D02*
X260000Y380000D01*
X255000Y361000D02*
Y375000D01*
Y361000D02*
X261000Y355000D01*
X274000D01*
X280000Y349000D01*
Y340000D02*
Y349000D01*
X250000Y380000D02*
Y388000D01*
X253000Y391000D01*
X296000D01*
X307000Y290000D02*
X310000D01*
X310000Y290000D01*
X322106Y64492D02*
X340106D01*
X345615Y70000D01*
X360000D01*
X300123Y82492D02*
X343106D01*
X341098Y77500D02*
X351115D01*
X343106Y82492D02*
X350615Y90000D01*
X323106Y97492D02*
X347106D01*
X318106Y92492D02*
X323106Y97492D01*
X350615Y90000D02*
X360000D01*
X351115Y77500D02*
X353614Y80000D01*
X360000D01*
X325615Y110000D02*
X360000D01*
X318106Y102492D02*
X325615Y110000D01*
X300106Y102492D02*
X318106D01*
X349615Y100000D02*
X360000D01*
X347106Y97492D02*
X349615Y100000D01*
X300106Y92492D02*
X318106D01*
X300114Y82500D02*
X300123Y82492D01*
X224000Y248000D02*
X230000Y254000D01*
X224000Y263000D02*
X230000Y257000D01*
X293000Y145000D02*
Y157000D01*
X220000Y248000D02*
X224000D01*
X217000Y256000D02*
X224000Y263000D01*
X230000Y254000D02*
Y257000D01*
X231850Y246800D02*
Y250850D01*
X234000Y253000D01*
Y259000D01*
D28*
X50000Y280000D02*
D03*
X60000D02*
D03*
X80000D02*
D03*
X70000D02*
D03*
Y270000D02*
D03*
X80000D02*
D03*
X60000D02*
D03*
X50000D02*
D03*
Y310000D02*
D03*
X60000D02*
D03*
X80000D02*
D03*
X70000D02*
D03*
X50000Y290000D02*
D03*
X60000D02*
D03*
X80000D02*
D03*
X70000D02*
D03*
Y300000D02*
D03*
X80000D02*
D03*
X60000D02*
D03*
X50000D02*
D03*
X60000Y130000D02*
D03*
X50000D02*
D03*
X70000D02*
D03*
X90000D02*
D03*
X80000D02*
D03*
Y120000D02*
D03*
X90000D02*
D03*
X70000D02*
D03*
X50000D02*
D03*
X60000D02*
D03*
Y150000D02*
D03*
X50000D02*
D03*
X70000D02*
D03*
X90000D02*
D03*
X80000D02*
D03*
Y140000D02*
D03*
X90000D02*
D03*
X70000D02*
D03*
X50000D02*
D03*
X60000D02*
D03*
Y170000D02*
D03*
X50000D02*
D03*
X70000D02*
D03*
X90000D02*
D03*
X80000D02*
D03*
Y160000D02*
D03*
X90000D02*
D03*
X70000D02*
D03*
X50000D02*
D03*
X60000D02*
D03*
X80000Y180000D02*
D03*
X90000D02*
D03*
X70000D02*
D03*
X50000D02*
D03*
X60000D02*
D03*
Y100000D02*
D03*
X50000D02*
D03*
X70000D02*
D03*
X90000D02*
D03*
X80000D02*
D03*
Y110000D02*
D03*
X90000D02*
D03*
X70000D02*
D03*
X50000D02*
D03*
X60000D02*
D03*
X80000Y90000D02*
D03*
X90000D02*
D03*
X70000D02*
D03*
X50000D02*
D03*
X60000D02*
D03*
X300000Y170000D02*
D03*
Y190000D02*
D03*
Y180000D02*
D03*
X310000Y170000D02*
D03*
Y160000D02*
D03*
Y190000D02*
D03*
Y180000D02*
D03*
X320000Y350000D02*
D03*
Y380000D02*
D03*
Y370000D02*
D03*
Y360000D02*
D03*
Y390000D02*
D03*
Y400000D02*
D03*
X170000Y380000D02*
D03*
X190000D02*
D03*
X180000D02*
D03*
X210000D02*
D03*
X200000D02*
D03*
X170000Y410000D02*
D03*
X180000D02*
D03*
Y420000D02*
D03*
X170000D02*
D03*
Y400000D02*
D03*
X190000D02*
D03*
X180000D02*
D03*
X220000D02*
D03*
X210000D02*
D03*
X200000D02*
D03*
Y390000D02*
D03*
X210000D02*
D03*
X220000D02*
D03*
X180000D02*
D03*
X190000D02*
D03*
X170000D02*
D03*
X190000Y420000D02*
D03*
X200000D02*
D03*
X220000D02*
D03*
X210000D02*
D03*
X250000D02*
D03*
X240000D02*
D03*
X230000D02*
D03*
Y410000D02*
D03*
X240000D02*
D03*
X250000D02*
D03*
X210000D02*
D03*
X220000D02*
D03*
X200000D02*
D03*
X190000D02*
D03*
X260000Y420000D02*
D03*
X270000D02*
D03*
X290000D02*
D03*
X280000D02*
D03*
X320000D02*
D03*
X310000D02*
D03*
X300000D02*
D03*
Y410000D02*
D03*
X310000D02*
D03*
X320000D02*
D03*
X280000D02*
D03*
X290000D02*
D03*
X270000D02*
D03*
X260000D02*
D03*
X400000Y120000D02*
D03*
X420000D02*
D03*
X410000D02*
D03*
X400000Y100000D02*
D03*
X420000D02*
D03*
X410000D02*
D03*
Y110000D02*
D03*
X420000D02*
D03*
X400000D02*
D03*
Y80000D02*
D03*
X420000D02*
D03*
X410000D02*
D03*
Y90000D02*
D03*
X420000D02*
D03*
X400000D02*
D03*
X330000Y400000D02*
D03*
X340000D02*
D03*
X360000D02*
D03*
X350000D02*
D03*
X390000D02*
D03*
X380000D02*
D03*
X370000D02*
D03*
X330000Y410000D02*
D03*
X340000D02*
D03*
X360000D02*
D03*
X350000D02*
D03*
X390000D02*
D03*
X380000D02*
D03*
X370000D02*
D03*
Y420000D02*
D03*
X380000D02*
D03*
X390000D02*
D03*
X350000D02*
D03*
X360000D02*
D03*
X340000D02*
D03*
X330000D02*
D03*
X320000Y280000D02*
D03*
Y290000D02*
D03*
Y210000D02*
D03*
Y200000D02*
D03*
Y230000D02*
D03*
Y220000D02*
D03*
Y250000D02*
D03*
Y240000D02*
D03*
Y270000D02*
D03*
Y260000D02*
D03*
Y180000D02*
D03*
Y190000D02*
D03*
Y160000D02*
D03*
Y170000D02*
D03*
Y140000D02*
D03*
Y130000D02*
D03*
Y150000D02*
D03*
X330000D02*
D03*
X340000D02*
D03*
X360000D02*
D03*
X350000D02*
D03*
X390000D02*
D03*
X380000D02*
D03*
X370000D02*
D03*
X400000D02*
D03*
X420000D02*
D03*
X410000D02*
D03*
X330000Y130000D02*
D03*
X340000D02*
D03*
X360000D02*
D03*
X350000D02*
D03*
X390000D02*
D03*
X380000D02*
D03*
X370000D02*
D03*
X400000D02*
D03*
X420000D02*
D03*
X410000D02*
D03*
Y140000D02*
D03*
X420000D02*
D03*
X400000D02*
D03*
X370000D02*
D03*
X380000D02*
D03*
X390000D02*
D03*
X350000D02*
D03*
X360000D02*
D03*
X340000D02*
D03*
X330000D02*
D03*
Y170000D02*
D03*
X340000D02*
D03*
X360000D02*
D03*
X350000D02*
D03*
X390000D02*
D03*
X380000D02*
D03*
X370000D02*
D03*
X400000D02*
D03*
X420000D02*
D03*
X410000D02*
D03*
Y160000D02*
D03*
X420000D02*
D03*
X400000D02*
D03*
X370000D02*
D03*
X380000D02*
D03*
X390000D02*
D03*
X350000D02*
D03*
X360000D02*
D03*
X340000D02*
D03*
X330000D02*
D03*
Y190000D02*
D03*
X340000D02*
D03*
X360000D02*
D03*
X350000D02*
D03*
X390000D02*
D03*
X380000D02*
D03*
X370000D02*
D03*
X400000D02*
D03*
X420000D02*
D03*
X410000D02*
D03*
Y180000D02*
D03*
X420000D02*
D03*
X400000D02*
D03*
X370000D02*
D03*
X380000D02*
D03*
X390000D02*
D03*
X350000D02*
D03*
X360000D02*
D03*
X340000D02*
D03*
X330000D02*
D03*
Y260000D02*
D03*
X340000D02*
D03*
X360000D02*
D03*
X350000D02*
D03*
X390000D02*
D03*
X380000D02*
D03*
X370000D02*
D03*
X400000D02*
D03*
X420000D02*
D03*
X410000D02*
D03*
Y270000D02*
D03*
X420000D02*
D03*
X400000D02*
D03*
X370000D02*
D03*
X380000D02*
D03*
X390000D02*
D03*
X350000D02*
D03*
X360000D02*
D03*
X340000D02*
D03*
X330000D02*
D03*
Y240000D02*
D03*
X340000D02*
D03*
X360000D02*
D03*
X350000D02*
D03*
X390000D02*
D03*
X380000D02*
D03*
X370000D02*
D03*
X400000D02*
D03*
X420000D02*
D03*
X410000D02*
D03*
Y250000D02*
D03*
X420000D02*
D03*
X400000D02*
D03*
X370000D02*
D03*
X380000D02*
D03*
X390000D02*
D03*
X350000D02*
D03*
X360000D02*
D03*
X340000D02*
D03*
X330000D02*
D03*
Y220000D02*
D03*
X340000D02*
D03*
X360000D02*
D03*
X350000D02*
D03*
X390000D02*
D03*
X380000D02*
D03*
X370000D02*
D03*
X400000D02*
D03*
X420000D02*
D03*
X410000D02*
D03*
Y230000D02*
D03*
X420000D02*
D03*
X400000D02*
D03*
X370000D02*
D03*
X380000D02*
D03*
X390000D02*
D03*
X350000D02*
D03*
X360000D02*
D03*
X340000D02*
D03*
X330000D02*
D03*
Y200000D02*
D03*
X340000D02*
D03*
X360000D02*
D03*
X350000D02*
D03*
X390000D02*
D03*
X380000D02*
D03*
X370000D02*
D03*
X400000D02*
D03*
X420000D02*
D03*
X410000D02*
D03*
Y210000D02*
D03*
X420000D02*
D03*
X400000D02*
D03*
X370000D02*
D03*
X380000D02*
D03*
X390000D02*
D03*
X350000D02*
D03*
X360000D02*
D03*
X340000D02*
D03*
X330000D02*
D03*
Y390000D02*
D03*
X340000D02*
D03*
X360000D02*
D03*
X350000D02*
D03*
X390000D02*
D03*
X380000D02*
D03*
X370000D02*
D03*
X400000D02*
D03*
X420000D02*
D03*
X410000D02*
D03*
Y380000D02*
D03*
X420000D02*
D03*
X400000D02*
D03*
X370000D02*
D03*
X380000D02*
D03*
X390000D02*
D03*
X350000D02*
D03*
X360000D02*
D03*
X340000D02*
D03*
X330000D02*
D03*
Y290000D02*
D03*
X340000D02*
D03*
X360000D02*
D03*
X350000D02*
D03*
X390000D02*
D03*
X380000D02*
D03*
X370000D02*
D03*
X400000D02*
D03*
X420000D02*
D03*
X410000D02*
D03*
Y280000D02*
D03*
X420000D02*
D03*
X400000D02*
D03*
X370000D02*
D03*
X380000D02*
D03*
X390000D02*
D03*
X350000D02*
D03*
X360000D02*
D03*
X340000D02*
D03*
X330000D02*
D03*
Y310000D02*
D03*
X340000D02*
D03*
X360000D02*
D03*
X350000D02*
D03*
X390000D02*
D03*
X380000D02*
D03*
X370000D02*
D03*
X400000D02*
D03*
X420000D02*
D03*
X410000D02*
D03*
Y300000D02*
D03*
X420000D02*
D03*
X400000D02*
D03*
X370000D02*
D03*
X380000D02*
D03*
X390000D02*
D03*
X350000D02*
D03*
X360000D02*
D03*
X340000D02*
D03*
X330000D02*
D03*
Y330000D02*
D03*
X340000D02*
D03*
X360000D02*
D03*
X350000D02*
D03*
X390000D02*
D03*
X380000D02*
D03*
X370000D02*
D03*
X400000D02*
D03*
X420000D02*
D03*
X410000D02*
D03*
Y320000D02*
D03*
X420000D02*
D03*
X400000D02*
D03*
X370000D02*
D03*
X380000D02*
D03*
X390000D02*
D03*
X350000D02*
D03*
X360000D02*
D03*
X340000D02*
D03*
X330000D02*
D03*
Y350000D02*
D03*
X340000D02*
D03*
X360000D02*
D03*
X350000D02*
D03*
X390000D02*
D03*
X380000D02*
D03*
X370000D02*
D03*
X400000D02*
D03*
X420000D02*
D03*
X410000D02*
D03*
Y340000D02*
D03*
X420000D02*
D03*
X400000D02*
D03*
X370000D02*
D03*
X380000D02*
D03*
X390000D02*
D03*
X350000D02*
D03*
X360000D02*
D03*
X340000D02*
D03*
X330000D02*
D03*
Y360000D02*
D03*
X340000D02*
D03*
X360000D02*
D03*
X350000D02*
D03*
X390000D02*
D03*
X380000D02*
D03*
X370000D02*
D03*
X400000D02*
D03*
X420000D02*
D03*
X410000D02*
D03*
Y370000D02*
D03*
X420000D02*
D03*
X400000D02*
D03*
X370000D02*
D03*
X380000D02*
D03*
X390000D02*
D03*
X350000D02*
D03*
X360000D02*
D03*
X340000D02*
D03*
X330000D02*
D03*
X110000Y420000D02*
D03*
X130000D02*
D03*
X140000Y220000D02*
D03*
Y240000D02*
D03*
X310000Y310000D02*
D03*
X270000Y170000D02*
D03*
X140000Y230000D02*
D03*
Y310000D02*
D03*
X190000Y170000D02*
D03*
X170000Y340000D02*
D03*
X210000Y170000D02*
D03*
X220000D02*
D03*
X230000D02*
D03*
X240000D02*
D03*
X250000D02*
D03*
X260016D02*
D03*
X310000Y300000D02*
D03*
X190000Y340000D02*
D03*
X200000Y340000D02*
D03*
X220000D02*
D03*
X230000Y340000D02*
D03*
X240000Y340000D02*
D03*
X260000D02*
D03*
X270000Y340000D02*
D03*
X280000D02*
D03*
X310000Y290000D02*
D03*
X310000Y280000D02*
D03*
Y270000D02*
D03*
X310000Y260000D02*
D03*
X310000Y250000D02*
D03*
X250000Y340000D02*
D03*
X310000Y240000D02*
D03*
X140000Y290000D02*
D03*
X310000Y220000D02*
D03*
Y210000D02*
D03*
X310000Y200000D02*
D03*
X210000Y340000D02*
D03*
X180000D02*
D03*
X140000Y300000D02*
D03*
Y280000D02*
D03*
Y270000D02*
D03*
Y260000D02*
D03*
Y210000D02*
D03*
Y200000D02*
D03*
X310000Y230000D02*
D03*
X170000Y170000D02*
D03*
X180000D02*
D03*
X200000D02*
D03*
X280000D02*
D03*
X140000Y250000D02*
D03*
X360000Y110000D02*
D03*
Y100000D02*
D03*
Y90000D02*
D03*
Y80000D02*
D03*
Y70000D02*
D03*
Y60000D02*
D03*
X260000Y110000D02*
D03*
Y100000D02*
D03*
Y90000D02*
D03*
Y80000D02*
D03*
Y70000D02*
D03*
Y60000D02*
D03*
X110000Y50000D02*
D03*
X120000D02*
D03*
X130000Y60000D02*
D03*
Y50000D02*
D03*
X140000Y60000D02*
D03*
Y50000D02*
D03*
X150000Y60000D02*
D03*
Y50000D02*
D03*
X160000Y60000D02*
D03*
Y50000D02*
D03*
X110000Y160000D02*
D03*
X120000D02*
D03*
X130000D02*
D03*
X140000D02*
D03*
X150000D02*
D03*
X160000D02*
D03*
X170000D02*
D03*
X110000Y60000D02*
D03*
X120000D02*
D03*
X170000D02*
D03*
Y50000D02*
D03*
X90000D02*
D03*
Y420000D02*
D03*
D29*
X120000Y295835D02*
D03*
Y300165D02*
D03*
D30*
X120000Y274606D02*
D03*
D31*
X120000Y255394D02*
D03*
D32*
X270000Y380000D02*
D03*
Y370000D02*
D03*
X260000Y380000D02*
D03*
Y370000D02*
D03*
X250000Y380000D02*
D03*
X280000Y370000D02*
D03*
Y380000D02*
D03*
X290000Y370000D02*
D03*
Y380000D02*
D03*
D33*
X250000Y370000D02*
D03*
D34*
X60000Y410000D02*
D03*
Y60000D02*
D03*
X410000D02*
D03*
Y410000D02*
D03*
D35*
X106000Y338063D02*
D03*
D36*
Y345937D02*
D03*
D37*
X187000Y250000D02*
D03*
X131000Y391000D02*
D03*
X75000Y393000D02*
D03*
X96000Y246000D02*
D03*
X322106Y64492D02*
D03*
X300106Y102492D02*
D03*
Y92492D02*
D03*
X300114Y82500D02*
D03*
X341098Y77500D02*
D03*
X217000Y256000D02*
D03*
X293000Y145000D02*
D03*
X75000Y378000D02*
D03*
X136000Y334000D02*
D03*
X98000Y317000D02*
D03*
X220000Y248000D02*
D03*
X224000Y263000D02*
D03*
X230000Y254000D02*
D03*
X234000Y259000D02*
D03*
M02*
