G04 Layer_Color=13813960*
%FSLAX25Y25*%
%MOIN*%
G70*
G01*
G75*
%ADD24C,0.01000*%
D24*
X297213Y123985D02*
X296214D01*
X295214Y124985D01*
Y129983D01*
X298213D01*
X299213Y128983D01*
Y126984D01*
X298213Y125984D01*
X295214D01*
X293215D02*
X291215D01*
X292215D01*
Y129983D01*
X293215D01*
X287216Y130983D02*
Y129983D01*
X288216D01*
X286217D01*
X287216D01*
Y126984D01*
X286217Y125984D01*
X283218Y131982D02*
Y125984D01*
Y128983D01*
X282218Y129983D01*
X280219D01*
X279219Y128983D01*
Y125984D01*
X277220Y129983D02*
Y126984D01*
X276220Y125984D01*
X273221D01*
Y129983D01*
X271222Y131982D02*
Y125984D01*
X268223D01*
X267223Y126984D01*
Y127984D01*
Y128983D01*
X268223Y129983D01*
X271222D01*
X265224Y125984D02*
Y126984D01*
X264224D01*
Y125984D01*
X265224D01*
X256226Y129983D02*
X259226D01*
X260225Y128983D01*
Y126984D01*
X259226Y125984D01*
X256226D01*
X253227D02*
X251228D01*
X250229Y126984D01*
Y128983D01*
X251228Y129983D01*
X253227D01*
X254227Y128983D01*
Y126984D01*
X253227Y125984D01*
X248229D02*
Y129983D01*
X247229D01*
X246230Y128983D01*
Y125984D01*
Y128983D01*
X245230Y129983D01*
X244230Y128983D01*
Y125984D01*
X242231D02*
X238232Y129983D01*
X236233Y123985D02*
X235233D01*
X234234Y124985D01*
Y129983D01*
X229235Y125984D02*
X227236D01*
X226236Y126984D01*
Y128983D01*
X227236Y129983D01*
X229235D01*
X230235Y128983D01*
Y126984D01*
X229235Y125984D01*
X224237Y131982D02*
Y125984D01*
Y128983D01*
X223237Y129983D01*
X221238D01*
X220238Y128983D01*
Y125984D01*
X218239D02*
Y129983D01*
X215240D01*
X214240Y128983D01*
Y125984D01*
X208242Y131982D02*
Y125984D01*
X211241D01*
X212241Y126984D01*
Y128983D01*
X211241Y129983D01*
X208242D01*
X205243Y125984D02*
X203244D01*
X202244Y126984D01*
Y128983D01*
X203244Y129983D01*
X205243D01*
X206243Y128983D01*
Y126984D01*
X205243Y125984D01*
X197246D02*
X199245D01*
X200245Y126984D01*
Y128983D01*
X199245Y129983D01*
X197246D01*
X196246Y128983D01*
Y127984D01*
X200245D01*
X194247Y130983D02*
X193247Y131982D01*
X191247D01*
X190248Y130983D01*
Y129983D01*
X191247Y128983D01*
X192247D01*
X191247D01*
X190248Y127984D01*
Y126984D01*
X191247Y125984D01*
X193247D01*
X194247Y126984D01*
X188249Y125984D02*
X186249D01*
X187249D01*
Y131982D01*
X188249Y130983D01*
X180251Y125984D02*
Y131982D01*
X183250Y128983D01*
X179251D01*
X177252Y125984D02*
X175253D01*
X176252D01*
Y131982D01*
X177252Y130983D01*
X168255Y131982D02*
X172254D01*
Y128983D01*
X170254Y129983D01*
X169255D01*
X168255Y128983D01*
Y126984D01*
X169255Y125984D01*
X171254D01*
X172254Y126984D01*
X166256Y125984D02*
X162257Y129983D01*
X160258Y123985D02*
Y129983D01*
X157258D01*
X156259Y128983D01*
Y126984D01*
X157258Y125984D01*
X160258D01*
X150261Y129983D02*
X153260D01*
X154260Y128983D01*
Y126984D01*
X153260Y125984D01*
X150261D01*
X148261Y131982D02*
Y125984D01*
X145262D01*
X144263Y126984D01*
Y127984D01*
Y128983D01*
X145262Y129983D01*
X148261D01*
X142263Y125984D02*
X139264D01*
X138265Y126984D01*
X139264Y127984D01*
X141264D01*
X142263Y128983D01*
X141264Y129983D01*
X138265D01*
X240000Y236000D02*
X238001D01*
X239000D01*
Y241998D01*
X240000Y240998D01*
X235002D02*
X234002Y241998D01*
X232003D01*
X231003Y240998D01*
Y237000D01*
X232003Y236000D01*
X234002D01*
X235002Y237000D01*
Y240998D01*
X229004D02*
X228004Y241998D01*
X226005D01*
X225005Y240998D01*
Y237000D01*
X226005Y236000D01*
X228004D01*
X229004Y237000D01*
Y240998D01*
X223006Y236000D02*
Y239999D01*
X220006D01*
X219007Y238999D01*
Y236000D01*
M02*
