G04 Layer_Physical_Order=1*
G04 Layer_Color=25308*
%FSLAX25Y25*%
%MOIN*%
G70*
G01*
G75*
%ADD10O,0.02600X0.09000*%
%ADD11O,0.08661X0.02362*%
%ADD12O,0.06300X0.02400*%
%ADD13R,0.05118X0.05709*%
%ADD14R,0.04724X0.03150*%
%ADD15R,0.05118X0.04528*%
%ADD16R,0.05118X0.03937*%
%ADD17R,0.05709X0.05118*%
%ADD18R,0.03937X0.05118*%
%ADD19O,0.01181X0.07087*%
%ADD20O,0.07087X0.01181*%
%ADD21R,0.07480X0.05906*%
%ADD22R,0.06102X0.05906*%
%ADD23R,0.06693X0.11811*%
%ADD24C,0.03000*%
%ADD25C,0.01000*%
%ADD26C,0.02500*%
%ADD27R,0.10300X0.13800*%
%ADD28C,0.08000*%
%ADD29O,0.03937X0.02953*%
%ADD30C,0.04724*%
%ADD31R,0.04724X0.04724*%
%ADD32C,0.06000*%
%ADD33R,0.06000X0.06000*%
%ADD34C,0.25984*%
%ADD35R,0.05118X0.05118*%
%ADD36C,0.05118*%
%ADD37C,0.02000*%
G36*
X433071Y39370D02*
X433071Y39370D01*
X39370D01*
Y433071D01*
X39370Y433071D01*
X433071D01*
Y39370D01*
D02*
G37*
%LPC*%
G36*
X157500Y94545D02*
X156603Y94367D01*
X155842Y93858D01*
X155333Y93097D01*
X155255Y92703D01*
X154745D01*
X154667Y93097D01*
X154158Y93858D01*
X153397Y94367D01*
X152500Y94545D01*
X151603Y94367D01*
X150842Y93858D01*
X150333Y93097D01*
X150255Y92703D01*
X149745D01*
X149667Y93097D01*
X149158Y93858D01*
X148397Y94367D01*
X147500Y94545D01*
X146603Y94367D01*
X145842Y93858D01*
X145333Y93097D01*
X145255Y92703D01*
X144745D01*
X144667Y93097D01*
X144158Y93858D01*
X143397Y94367D01*
X142500Y94545D01*
X141603Y94367D01*
X140842Y93858D01*
X140333Y93097D01*
X140255Y92703D01*
X139745D01*
X139667Y93097D01*
X139158Y93858D01*
X138397Y94367D01*
X137500Y94545D01*
X136603Y94367D01*
X135842Y93858D01*
X135333Y93097D01*
X135255Y92703D01*
X134745D01*
X134667Y93097D01*
X134158Y93858D01*
X133397Y94367D01*
X132500Y94545D01*
X131603Y94367D01*
X130842Y93858D01*
X130333Y93097D01*
X130255Y92703D01*
X129745D01*
X129667Y93097D01*
X129158Y93858D01*
X128397Y94367D01*
X127500Y94545D01*
X126603Y94367D01*
X125842Y93858D01*
X125333Y93097D01*
X125255Y92703D01*
X124745D01*
X124667Y93097D01*
X124158Y93858D01*
X123397Y94367D01*
X122500Y94545D01*
X121603Y94367D01*
X120842Y93858D01*
X120333Y93097D01*
X120155Y92200D01*
Y90529D01*
X103000D01*
X102415Y90413D01*
X101919Y90081D01*
X89919Y78081D01*
X89587Y77585D01*
X89471Y77000D01*
Y56479D01*
X88726Y56406D01*
X87501Y56034D01*
X86371Y55431D01*
X85382Y54618D01*
X84569Y53629D01*
X83966Y52500D01*
X83594Y51274D01*
X83469Y50000D01*
X83594Y48726D01*
X83966Y47501D01*
X84569Y46371D01*
X85382Y45382D01*
X86371Y44569D01*
X87501Y43966D01*
X88726Y43594D01*
X90000Y43468D01*
X91274Y43594D01*
X92500Y43966D01*
X93629Y44569D01*
X94618Y45382D01*
X95431Y46371D01*
X96034Y47501D01*
X96329Y48471D01*
X103672D01*
X103966Y47501D01*
X104569Y46371D01*
X105382Y45382D01*
X106371Y44569D01*
X107501Y43966D01*
X108726Y43594D01*
X110000Y43468D01*
X111274Y43594D01*
X112499Y43966D01*
X113629Y44569D01*
X114618Y45382D01*
X114750Y45542D01*
X115250D01*
X115382Y45382D01*
X116371Y44569D01*
X117500Y43966D01*
X118726Y43594D01*
X120000Y43468D01*
X121274Y43594D01*
X122500Y43966D01*
X123629Y44569D01*
X124618Y45382D01*
X124750Y45542D01*
X125250D01*
X125382Y45382D01*
X126371Y44569D01*
X127500Y43966D01*
X128726Y43594D01*
X130000Y43468D01*
X131274Y43594D01*
X132500Y43966D01*
X133629Y44569D01*
X134618Y45382D01*
X134750Y45542D01*
X135250D01*
X135382Y45382D01*
X136371Y44569D01*
X137501Y43966D01*
X138726Y43594D01*
X140000Y43468D01*
X141274Y43594D01*
X142499Y43966D01*
X143629Y44569D01*
X144618Y45382D01*
X144750Y45542D01*
X145250D01*
X145382Y45382D01*
X146371Y44569D01*
X147501Y43966D01*
X148726Y43594D01*
X150000Y43468D01*
X151274Y43594D01*
X152499Y43966D01*
X153629Y44569D01*
X154618Y45382D01*
X154750Y45542D01*
X155250D01*
X155382Y45382D01*
X156371Y44569D01*
X157501Y43966D01*
X158726Y43594D01*
X160000Y43468D01*
X161274Y43594D01*
X162499Y43966D01*
X163629Y44569D01*
X164618Y45382D01*
X164750Y45542D01*
X165250D01*
X165382Y45382D01*
X166371Y44569D01*
X167500Y43966D01*
X168726Y43594D01*
X170000Y43468D01*
X171274Y43594D01*
X172500Y43966D01*
X173629Y44569D01*
X174618Y45382D01*
X175431Y46371D01*
X176034Y47501D01*
X176406Y48726D01*
X176531Y50000D01*
X176406Y51274D01*
X176034Y52500D01*
X175431Y53629D01*
X174618Y54618D01*
X174458Y54750D01*
Y55250D01*
X174618Y55382D01*
X175431Y56371D01*
X176034Y57500D01*
X176406Y58726D01*
X176531Y60000D01*
X176406Y61274D01*
X176034Y62499D01*
X175431Y63629D01*
X174618Y64618D01*
X173629Y65431D01*
X172500Y66034D01*
X171529Y66329D01*
Y71000D01*
X171413Y71585D01*
X171081Y72081D01*
X159146Y84017D01*
X159158Y84142D01*
X159667Y84903D01*
X159845Y85800D01*
Y92200D01*
X159667Y93097D01*
X159158Y93858D01*
X158397Y94367D01*
X157500Y94545D01*
D02*
G37*
G36*
X313701Y94724D02*
X307402D01*
X306551Y94555D01*
X305829Y94073D01*
X305800Y94029D01*
X301405D01*
X300887Y94376D01*
X300106Y94531D01*
X299326Y94376D01*
X298664Y93934D01*
X298222Y93272D01*
X298067Y92492D01*
X298222Y91711D01*
X298664Y91050D01*
X299326Y90608D01*
X300106Y90453D01*
X300887Y90608D01*
X301430Y90971D01*
X305800D01*
X305829Y90927D01*
X306551Y90446D01*
X307402Y90276D01*
X313701D01*
X314552Y90446D01*
X315273Y90927D01*
X315755Y91649D01*
X315925Y92500D01*
X315755Y93351D01*
X315273Y94073D01*
X314552Y94555D01*
X313701Y94724D01*
D02*
G37*
G36*
X364106Y123021D02*
X360106D01*
X359521Y122905D01*
X359025Y122573D01*
X340481Y104029D01*
X334200D01*
X334171Y104072D01*
X333449Y104554D01*
X332598Y104724D01*
X326299D01*
X325448Y104554D01*
X324727Y104072D01*
X324245Y103351D01*
X324075Y102500D01*
X324245Y101649D01*
X324727Y100927D01*
X325448Y100445D01*
X326299Y100276D01*
X332598D01*
X333449Y100445D01*
X334171Y100927D01*
X334200Y100971D01*
X341114D01*
X341700Y101087D01*
X342196Y101419D01*
X353539Y112761D01*
X353966Y112499D01*
X353594Y111274D01*
X353469Y110000D01*
X353594Y108726D01*
X353966Y107501D01*
X354569Y106371D01*
X355382Y105382D01*
X355542Y105250D01*
Y104750D01*
X355382Y104618D01*
X354569Y103629D01*
X353966Y102499D01*
X353594Y101274D01*
X353469Y100000D01*
X353594Y98726D01*
X353966Y97500D01*
X354569Y96371D01*
X355382Y95382D01*
X355542Y95250D01*
Y94750D01*
X355382Y94618D01*
X354569Y93629D01*
X353966Y92500D01*
X353636Y91411D01*
X353136Y91486D01*
Y91492D01*
X353019Y92077D01*
X352688Y92573D01*
X346679Y98581D01*
X346183Y98913D01*
X345598Y99029D01*
X334200D01*
X334171Y99072D01*
X333449Y99555D01*
X332598Y99724D01*
X326299D01*
X325448Y99555D01*
X324727Y99072D01*
X324245Y98351D01*
X324075Y97500D01*
X324245Y96649D01*
X324727Y95928D01*
X325448Y95446D01*
X326299Y95276D01*
X332598D01*
X333449Y95446D01*
X334171Y95928D01*
X334200Y95971D01*
X344965D01*
X350077Y90858D01*
Y59625D01*
X338473Y48021D01*
X302240D01*
X300305Y49956D01*
X300624Y50344D01*
X301021Y50079D01*
X301606Y49962D01*
X336606D01*
X337192Y50079D01*
X337688Y50410D01*
X347688Y60410D01*
X348019Y60906D01*
X348136Y61492D01*
Y78992D01*
X348039Y79480D01*
X348019Y79577D01*
X347688Y80073D01*
X344180Y83581D01*
X343683Y83913D01*
X343098Y84029D01*
X334200D01*
X334171Y84073D01*
X333449Y84554D01*
X332598Y84724D01*
X326299D01*
X325448Y84554D01*
X324727Y84073D01*
X324245Y83351D01*
X324075Y82500D01*
X324245Y81649D01*
X324727Y80927D01*
X325448Y80445D01*
X326299Y80276D01*
X332598D01*
X333449Y80445D01*
X334171Y80927D01*
X334200Y80971D01*
X342465D01*
X345077Y78358D01*
Y62125D01*
X335973Y53021D01*
X302240D01*
X300305Y54956D01*
X300624Y55344D01*
X301021Y55079D01*
X301606Y54962D01*
X324106D01*
X324692Y55079D01*
X325188Y55410D01*
X330530Y60753D01*
X330862Y61249D01*
X330978Y61834D01*
Y70276D01*
X332598D01*
X333449Y70446D01*
X334171Y70928D01*
X334653Y71649D01*
X334822Y72500D01*
X334653Y73351D01*
X334171Y74072D01*
X333449Y74555D01*
X332598Y74724D01*
X326299D01*
X325448Y74555D01*
X324727Y74072D01*
X324245Y73351D01*
X324075Y72500D01*
X324245Y71649D01*
X324727Y70928D01*
X325448Y70446D01*
X326299Y70276D01*
X327919D01*
Y62468D01*
X323473Y58021D01*
X302240D01*
X279180Y81081D01*
X278683Y81413D01*
X278098Y81529D01*
X266329D01*
X266034Y82499D01*
X265431Y83629D01*
X264618Y84618D01*
X264458Y84750D01*
Y85250D01*
X264618Y85382D01*
X265431Y86371D01*
X266034Y87501D01*
X266329Y88471D01*
X284965D01*
X297017Y76419D01*
X297513Y76087D01*
X298098Y75971D01*
X305800D01*
X305829Y75928D01*
X306551Y75445D01*
X307402Y75276D01*
X313701D01*
X314552Y75445D01*
X315273Y75928D01*
X315755Y76649D01*
X315925Y77500D01*
X315755Y78351D01*
X315273Y79072D01*
X314552Y79554D01*
X313701Y79724D01*
X307402D01*
X306551Y79554D01*
X305829Y79072D01*
X305800Y79029D01*
X298732D01*
X286680Y91081D01*
X286183Y91413D01*
X285598Y91529D01*
X266329D01*
X266034Y92500D01*
X265431Y93629D01*
X264618Y94618D01*
X264458Y94750D01*
Y95250D01*
X264618Y95382D01*
X265431Y96371D01*
X266034Y97500D01*
X266329Y98471D01*
X284965D01*
X297017Y86419D01*
X297513Y86087D01*
X298098Y85971D01*
X305800D01*
X305829Y85927D01*
X306551Y85445D01*
X307402Y85276D01*
X313701D01*
X314552Y85445D01*
X315273Y85927D01*
X315755Y86649D01*
X315925Y87500D01*
X315755Y88351D01*
X315273Y89073D01*
X314552Y89555D01*
X313701Y89724D01*
X307402D01*
X306551Y89555D01*
X305829Y89073D01*
X305800Y89029D01*
X298732D01*
X286680Y101081D01*
X286183Y101413D01*
X285598Y101529D01*
X266329D01*
X266034Y102499D01*
X265431Y103629D01*
X264618Y104618D01*
X264458Y104750D01*
Y105250D01*
X264618Y105382D01*
X265431Y106371D01*
X266034Y107501D01*
X266329Y108471D01*
X284965D01*
X297017Y96419D01*
X297513Y96087D01*
X298098Y95971D01*
X305800D01*
X305829Y95928D01*
X306551Y95446D01*
X307402Y95276D01*
X313701D01*
X314552Y95446D01*
X315273Y95928D01*
X315755Y96649D01*
X315925Y97500D01*
X315755Y98351D01*
X315273Y99072D01*
X314552Y99555D01*
X313701Y99724D01*
X307402D01*
X306551Y99555D01*
X305829Y99072D01*
X305800Y99029D01*
X298732D01*
X286680Y111081D01*
X286183Y111413D01*
X285598Y111529D01*
X266329D01*
X266034Y112499D01*
X265431Y113629D01*
X264618Y114618D01*
X263629Y115431D01*
X262499Y116034D01*
X261274Y116406D01*
X260000Y116531D01*
X258726Y116406D01*
X257501Y116034D01*
X256371Y115431D01*
X255382Y114618D01*
X254569Y113629D01*
X253966Y112499D01*
X253672Y111529D01*
X246610D01*
Y113559D01*
X240673D01*
Y106441D01*
X246610D01*
Y108471D01*
X253672D01*
X253966Y107501D01*
X254569Y106371D01*
X255382Y105382D01*
X255542Y105250D01*
Y104750D01*
X255382Y104618D01*
X254569Y103629D01*
X253966Y102499D01*
X253672Y101529D01*
X246610D01*
Y103559D01*
X240673D01*
Y96441D01*
X246610D01*
Y98471D01*
X253672D01*
X253966Y97500D01*
X254569Y96371D01*
X255382Y95382D01*
X255542Y95250D01*
Y94750D01*
X255382Y94618D01*
X254569Y93629D01*
X253966Y92500D01*
X253672Y91529D01*
X246610D01*
Y93559D01*
X240673D01*
Y86441D01*
X246610D01*
Y88471D01*
X253672D01*
X253966Y87501D01*
X254569Y86371D01*
X255382Y85382D01*
X255542Y85250D01*
Y84750D01*
X255382Y84618D01*
X254569Y83629D01*
X253966Y82499D01*
X253672Y81529D01*
X246610D01*
Y83559D01*
X240673D01*
Y76441D01*
X246610D01*
Y78471D01*
X253672D01*
X253966Y77500D01*
X254569Y76371D01*
X255382Y75382D01*
X255542Y75250D01*
Y74750D01*
X255382Y74618D01*
X254569Y73629D01*
X253966Y72500D01*
X253672Y71529D01*
X246610D01*
Y73559D01*
X240673D01*
Y66441D01*
X246610D01*
Y68471D01*
X253672D01*
X253966Y67501D01*
X254569Y66371D01*
X255382Y65382D01*
X255542Y65250D01*
Y64750D01*
X255382Y64618D01*
X254569Y63629D01*
X253966Y62499D01*
X253672Y61529D01*
X246610D01*
Y63559D01*
X240673D01*
Y56441D01*
X246610D01*
Y58471D01*
X253672D01*
X253966Y57500D01*
X254569Y56371D01*
X255382Y55382D01*
X256371Y54569D01*
X257501Y53966D01*
X258726Y53594D01*
X260000Y53469D01*
X261274Y53594D01*
X262499Y53966D01*
X263629Y54569D01*
X264618Y55382D01*
X265431Y56371D01*
X266034Y57500D01*
X266329Y58471D01*
X287465D01*
X300525Y45410D01*
X301021Y45079D01*
X301606Y44962D01*
X339106D01*
X339691Y45079D01*
X340188Y45410D01*
X352688Y57910D01*
X353019Y58407D01*
X353089Y58756D01*
X353594Y58731D01*
X353594Y58726D01*
X353966Y57500D01*
X354569Y56371D01*
X355382Y55382D01*
X356371Y54569D01*
X357501Y53966D01*
X358726Y53594D01*
X360000Y53469D01*
X361274Y53594D01*
X362499Y53966D01*
X363629Y54569D01*
X364618Y55382D01*
X365431Y56371D01*
X366034Y57500D01*
X366329Y58471D01*
X368615D01*
X369200Y58587D01*
X369696Y58919D01*
X372188Y61410D01*
X372519Y61906D01*
X372636Y62492D01*
Y114492D01*
X372538Y114980D01*
X372519Y115077D01*
X372188Y115573D01*
X365188Y122573D01*
X364691Y122905D01*
X364106Y123021D01*
D02*
G37*
G36*
X332598Y94724D02*
X326299D01*
X325448Y94555D01*
X324727Y94073D01*
X324245Y93351D01*
X324075Y92500D01*
X324245Y91649D01*
X324727Y90927D01*
X325448Y90446D01*
X326299Y90276D01*
X332598D01*
X333449Y90446D01*
X334171Y90927D01*
X334653Y91649D01*
X334822Y92500D01*
X334653Y93351D01*
X334171Y94073D01*
X333449Y94555D01*
X332598Y94724D01*
D02*
G37*
G36*
X313701Y84724D02*
X307402D01*
X306551Y84554D01*
X305829Y84073D01*
X305800Y84029D01*
X301426D01*
X300895Y84384D01*
X300114Y84539D01*
X299334Y84384D01*
X298673Y83942D01*
X298231Y83280D01*
X298075Y82500D01*
X298231Y81720D01*
X298673Y81058D01*
X299334Y80616D01*
X300114Y80461D01*
X300895Y80616D01*
X301426Y80971D01*
X305800D01*
X305829Y80927D01*
X306551Y80445D01*
X307402Y80276D01*
X313701D01*
X314552Y80445D01*
X315273Y80927D01*
X315755Y81649D01*
X315925Y82500D01*
X315755Y83351D01*
X315273Y84073D01*
X314552Y84554D01*
X313701Y84724D01*
D02*
G37*
G36*
X332598Y89724D02*
X326299D01*
X325448Y89555D01*
X324727Y89073D01*
X324698Y89029D01*
X323114D01*
X322529Y88913D01*
X322033Y88581D01*
X320025Y86573D01*
X319693Y86077D01*
X319577Y85492D01*
Y65492D01*
X319693Y64907D01*
X320025Y64410D01*
X320098Y64337D01*
X320222Y63711D01*
X320664Y63050D01*
X321326Y62608D01*
X322106Y62453D01*
X322887Y62608D01*
X323548Y63050D01*
X323990Y63711D01*
X324145Y64492D01*
X323990Y65272D01*
X323548Y65934D01*
X322887Y66376D01*
X322636Y66426D01*
Y84858D01*
X323748Y85971D01*
X324698D01*
X324727Y85927D01*
X325448Y85445D01*
X326299Y85276D01*
X332598D01*
X333449Y85445D01*
X334171Y85927D01*
X334653Y86649D01*
X334822Y87500D01*
X334653Y88351D01*
X334171Y89073D01*
X333449Y89555D01*
X332598Y89724D01*
D02*
G37*
G36*
Y79724D02*
X326299D01*
X325448Y79554D01*
X324727Y79072D01*
X324245Y78351D01*
X324075Y77500D01*
X324245Y76649D01*
X324727Y75928D01*
X325448Y75445D01*
X326299Y75276D01*
X332598D01*
X333449Y75445D01*
X334171Y75928D01*
X334200Y75971D01*
X339787D01*
X340318Y75616D01*
X341098Y75461D01*
X341878Y75616D01*
X342540Y76058D01*
X342982Y76720D01*
X343137Y77500D01*
X342982Y78280D01*
X342540Y78942D01*
X341878Y79384D01*
X341098Y79539D01*
X340318Y79384D01*
X339787Y79029D01*
X334200D01*
X334171Y79072D01*
X333449Y79554D01*
X332598Y79724D01*
D02*
G37*
G36*
X313701Y104724D02*
X307402D01*
X306551Y104554D01*
X305829Y104072D01*
X305800Y104029D01*
X301405D01*
X300887Y104376D01*
X300106Y104531D01*
X299326Y104376D01*
X298664Y103934D01*
X298222Y103272D01*
X298067Y102492D01*
X298222Y101711D01*
X298664Y101050D01*
X299326Y100608D01*
X300106Y100453D01*
X300887Y100608D01*
X301430Y100971D01*
X305800D01*
X305829Y100927D01*
X306551Y100445D01*
X307402Y100276D01*
X313701D01*
X314552Y100445D01*
X315273Y100927D01*
X315755Y101649D01*
X315925Y102500D01*
X315755Y103351D01*
X315273Y104072D01*
X314552Y104554D01*
X313701Y104724D01*
D02*
G37*
G36*
X90000Y186531D02*
X88726Y186406D01*
X87501Y186034D01*
X86371Y185431D01*
X85382Y184618D01*
X85250Y184458D01*
X84750D01*
X84618Y184618D01*
X83629Y185431D01*
X82499Y186034D01*
X81274Y186406D01*
X80000Y186531D01*
X78726Y186406D01*
X77500Y186034D01*
X76371Y185431D01*
X75382Y184618D01*
X75250Y184458D01*
X74750D01*
X74618Y184618D01*
X73629Y185431D01*
X72500Y186034D01*
X71274Y186406D01*
X70000Y186531D01*
X68726Y186406D01*
X67501Y186034D01*
X66371Y185431D01*
X65382Y184618D01*
X65250Y184458D01*
X64750D01*
X64618Y184618D01*
X63629Y185431D01*
X62499Y186034D01*
X61274Y186406D01*
X60000Y186531D01*
X58726Y186406D01*
X57500Y186034D01*
X56371Y185431D01*
X55382Y184618D01*
X55250Y184458D01*
X54750D01*
X54618Y184618D01*
X53629Y185431D01*
X52500Y186034D01*
X51274Y186406D01*
X50000Y186531D01*
X48726Y186406D01*
X47501Y186034D01*
X46371Y185431D01*
X45382Y184618D01*
X44569Y183629D01*
X43966Y182500D01*
X43594Y181274D01*
X43468Y180000D01*
X43594Y178726D01*
X43966Y177500D01*
X44569Y176371D01*
X45382Y175382D01*
X45542Y175250D01*
Y174750D01*
X45382Y174618D01*
X44569Y173629D01*
X43966Y172500D01*
X43594Y171274D01*
X43468Y170000D01*
X43594Y168726D01*
X43966Y167500D01*
X44569Y166371D01*
X45382Y165382D01*
X45542Y165250D01*
Y164750D01*
X45382Y164618D01*
X44569Y163629D01*
X43966Y162499D01*
X43594Y161274D01*
X43468Y160000D01*
X43594Y158726D01*
X43966Y157501D01*
X44569Y156371D01*
X45382Y155382D01*
X45542Y155250D01*
Y154750D01*
X45382Y154618D01*
X44569Y153629D01*
X43966Y152499D01*
X43594Y151274D01*
X43468Y150000D01*
X43594Y148726D01*
X43966Y147501D01*
X44569Y146371D01*
X45382Y145382D01*
X45542Y145250D01*
Y144750D01*
X45382Y144618D01*
X44569Y143629D01*
X43966Y142499D01*
X43594Y141274D01*
X43468Y140000D01*
X43594Y138726D01*
X43966Y137501D01*
X44569Y136371D01*
X45382Y135382D01*
X45542Y135250D01*
Y134750D01*
X45382Y134618D01*
X44569Y133629D01*
X43966Y132500D01*
X43594Y131274D01*
X43468Y130000D01*
X43594Y128726D01*
X43966Y127500D01*
X44569Y126371D01*
X45382Y125382D01*
X45542Y125250D01*
Y124750D01*
X45382Y124618D01*
X44569Y123629D01*
X43966Y122500D01*
X43594Y121274D01*
X43468Y120000D01*
X43594Y118726D01*
X43966Y117500D01*
X44569Y116371D01*
X45382Y115382D01*
X45542Y115250D01*
Y114750D01*
X45382Y114618D01*
X44569Y113629D01*
X43966Y112499D01*
X43594Y111274D01*
X43468Y110000D01*
X43594Y108726D01*
X43966Y107501D01*
X44569Y106371D01*
X45382Y105382D01*
X45542Y105250D01*
Y104750D01*
X45382Y104618D01*
X44569Y103629D01*
X43966Y102499D01*
X43594Y101274D01*
X43468Y100000D01*
X43594Y98726D01*
X43966Y97500D01*
X44569Y96371D01*
X45382Y95382D01*
X45542Y95250D01*
Y94750D01*
X45382Y94618D01*
X44569Y93629D01*
X43966Y92500D01*
X43594Y91274D01*
X43468Y90000D01*
X43594Y88726D01*
X43966Y87501D01*
X44569Y86371D01*
X45382Y85382D01*
X46371Y84569D01*
X47501Y83966D01*
X48726Y83594D01*
X50000Y83469D01*
X51274Y83594D01*
X52500Y83966D01*
X53629Y84569D01*
X54618Y85382D01*
X54750Y85542D01*
X55250D01*
X55382Y85382D01*
X56371Y84569D01*
X57500Y83966D01*
X58726Y83594D01*
X60000Y83469D01*
X61274Y83594D01*
X62499Y83966D01*
X63629Y84569D01*
X64618Y85382D01*
X64750Y85542D01*
X65250D01*
X65382Y85382D01*
X66371Y84569D01*
X67501Y83966D01*
X68726Y83594D01*
X70000Y83469D01*
X71274Y83594D01*
X72500Y83966D01*
X73629Y84569D01*
X74618Y85382D01*
X74750Y85542D01*
X75250D01*
X75382Y85382D01*
X76371Y84569D01*
X77500Y83966D01*
X78726Y83594D01*
X80000Y83469D01*
X81274Y83594D01*
X82499Y83966D01*
X83629Y84569D01*
X84618Y85382D01*
X84750Y85542D01*
X85250D01*
X85382Y85382D01*
X86371Y84569D01*
X87501Y83966D01*
X88726Y83594D01*
X90000Y83469D01*
X91274Y83594D01*
X92500Y83966D01*
X93629Y84569D01*
X94618Y85382D01*
X95431Y86371D01*
X96034Y87501D01*
X96406Y88726D01*
X96531Y90000D01*
X96406Y91274D01*
X96034Y92500D01*
X95431Y93629D01*
X94618Y94618D01*
X94458Y94750D01*
Y95250D01*
X94618Y95382D01*
X95431Y96371D01*
X96034Y97500D01*
X96406Y98726D01*
X96531Y100000D01*
X96406Y101274D01*
X96034Y102499D01*
X95431Y103629D01*
X94618Y104618D01*
X94458Y104750D01*
Y105250D01*
X94618Y105382D01*
X95431Y106371D01*
X96034Y107501D01*
X96406Y108726D01*
X96531Y110000D01*
X96406Y111274D01*
X96034Y112499D01*
X95431Y113629D01*
X94618Y114618D01*
X94458Y114750D01*
Y115250D01*
X94618Y115382D01*
X95431Y116371D01*
X96034Y117500D01*
X96406Y118726D01*
X96531Y120000D01*
X96406Y121274D01*
X96034Y122500D01*
X95431Y123629D01*
X94618Y124618D01*
X94458Y124750D01*
Y125250D01*
X94618Y125382D01*
X95431Y126371D01*
X96034Y127500D01*
X96406Y128726D01*
X96531Y130000D01*
X96406Y131274D01*
X96034Y132500D01*
X95431Y133629D01*
X94618Y134618D01*
X94458Y134750D01*
Y135250D01*
X94618Y135382D01*
X95431Y136371D01*
X96034Y137501D01*
X96406Y138726D01*
X96531Y140000D01*
X96406Y141274D01*
X96034Y142499D01*
X95431Y143629D01*
X94618Y144618D01*
X94458Y144750D01*
Y145250D01*
X94618Y145382D01*
X95431Y146371D01*
X96034Y147501D01*
X96406Y148726D01*
X96531Y150000D01*
X96406Y151274D01*
X96034Y152499D01*
X95431Y153629D01*
X94618Y154618D01*
X94458Y154750D01*
Y155250D01*
X94618Y155382D01*
X95431Y156371D01*
X96034Y157501D01*
X96406Y158726D01*
X96531Y160000D01*
X96406Y161274D01*
X96034Y162499D01*
X95431Y163629D01*
X94618Y164618D01*
X94458Y164750D01*
Y165250D01*
X94618Y165382D01*
X95431Y166371D01*
X96034Y167500D01*
X96406Y168726D01*
X96531Y170000D01*
X96406Y171274D01*
X96034Y172500D01*
X95431Y173629D01*
X94618Y174618D01*
X94458Y174750D01*
Y175250D01*
X94618Y175382D01*
X95431Y176371D01*
X96034Y177500D01*
X96406Y178726D01*
X96531Y180000D01*
X96406Y181274D01*
X96034Y182500D01*
X95431Y183629D01*
X94618Y184618D01*
X93629Y185431D01*
X92500Y186034D01*
X91274Y186406D01*
X90000Y186531D01*
D02*
G37*
G36*
X243559Y148835D02*
X236441D01*
Y142307D01*
X238471D01*
Y141610D01*
X236441D01*
Y135673D01*
X243559D01*
Y141610D01*
X241529D01*
Y142307D01*
X243559D01*
Y148835D01*
D02*
G37*
G36*
X223559Y148835D02*
X216441D01*
Y142307D01*
X218471D01*
Y141610D01*
X216441D01*
Y135673D01*
X223559D01*
Y141610D01*
X221529D01*
Y142307D01*
X223559D01*
Y148835D01*
D02*
G37*
G36*
X233559Y148835D02*
X226441D01*
Y142307D01*
X228471D01*
Y141610D01*
X226441D01*
Y135673D01*
X233559D01*
Y141610D01*
X231529D01*
Y142307D01*
X233559D01*
Y148835D01*
D02*
G37*
G36*
X293000Y147039D02*
X292220Y146884D01*
X291558Y146442D01*
X291116Y145780D01*
X290961Y145000D01*
X291116Y144220D01*
X291558Y143558D01*
X292220Y143116D01*
X292846Y142991D01*
X302577Y133260D01*
Y113945D01*
X302693Y113360D01*
X303025Y112864D01*
X306142Y109746D01*
X306093Y109249D01*
X305829Y109072D01*
X305347Y108351D01*
X305178Y107500D01*
X305347Y106649D01*
X305829Y105928D01*
X306551Y105446D01*
X307402Y105276D01*
X313701D01*
X314552Y105446D01*
X315273Y105928D01*
X315755Y106649D01*
X315925Y107500D01*
X315755Y108351D01*
X315273Y109072D01*
X314552Y109555D01*
X313701Y109724D01*
X310490D01*
X305636Y114578D01*
Y116146D01*
X310409D01*
Y123854D01*
X305636D01*
Y133894D01*
X305519Y134479D01*
X305188Y134975D01*
X295008Y145154D01*
X294884Y145780D01*
X294442Y146442D01*
X293780Y146884D01*
X293000Y147039D01*
D02*
G37*
G36*
X332598Y109724D02*
X326299D01*
X325448Y109555D01*
X324727Y109072D01*
X324245Y108351D01*
X324075Y107500D01*
X324245Y106649D01*
X324727Y105928D01*
X325448Y105446D01*
X326299Y105276D01*
X332598D01*
X333449Y105446D01*
X334171Y105928D01*
X334653Y106649D01*
X334822Y107500D01*
X334653Y108351D01*
X334171Y109072D01*
X333449Y109555D01*
X332598Y109724D01*
D02*
G37*
G36*
X420000Y126531D02*
X418726Y126406D01*
X417500Y126034D01*
X416371Y125431D01*
X415382Y124618D01*
X415250Y124458D01*
X414750D01*
X414618Y124618D01*
X413629Y125431D01*
X412500Y126034D01*
X411274Y126406D01*
X410000Y126531D01*
X408726Y126406D01*
X407501Y126034D01*
X406371Y125431D01*
X405382Y124618D01*
X405250Y124458D01*
X404750D01*
X404618Y124618D01*
X403629Y125431D01*
X402499Y126034D01*
X401274Y126406D01*
X400000Y126531D01*
X398726Y126406D01*
X397500Y126034D01*
X396371Y125431D01*
X395382Y124618D01*
X394569Y123629D01*
X393966Y122500D01*
X393594Y121274D01*
X393469Y120000D01*
X393594Y118726D01*
X393966Y117500D01*
X394569Y116371D01*
X395382Y115382D01*
X395542Y115250D01*
Y114750D01*
X395382Y114618D01*
X394569Y113629D01*
X393966Y112499D01*
X393594Y111274D01*
X393469Y110000D01*
X393594Y108726D01*
X393966Y107501D01*
X394569Y106371D01*
X395382Y105382D01*
X395542Y105250D01*
Y104750D01*
X395382Y104618D01*
X394569Y103629D01*
X393966Y102499D01*
X393594Y101274D01*
X393469Y100000D01*
X393594Y98726D01*
X393966Y97500D01*
X394569Y96371D01*
X395382Y95382D01*
X395542Y95250D01*
Y94750D01*
X395382Y94618D01*
X394569Y93629D01*
X393966Y92500D01*
X393594Y91274D01*
X393469Y90000D01*
X393594Y88726D01*
X393966Y87501D01*
X394569Y86371D01*
X395382Y85382D01*
X395542Y85250D01*
Y84750D01*
X395382Y84618D01*
X394569Y83629D01*
X393966Y82499D01*
X393594Y81274D01*
X393469Y80000D01*
X393594Y78726D01*
X393966Y77500D01*
X394569Y76371D01*
X395382Y75382D01*
X396371Y74569D01*
X397500Y73966D01*
X398726Y73594D01*
X400000Y73469D01*
X401274Y73594D01*
X401873Y73776D01*
X402079Y73316D01*
X400866Y72572D01*
X399011Y70989D01*
X397428Y69134D01*
X396154Y67055D01*
X395221Y64802D01*
X394651Y62431D01*
X394460Y60000D01*
X394651Y57569D01*
X395221Y55198D01*
X396154Y52945D01*
X397428Y50866D01*
X399011Y49011D01*
X400866Y47428D01*
X402945Y46154D01*
X405198Y45221D01*
X407569Y44651D01*
X410000Y44460D01*
X412431Y44651D01*
X414802Y45221D01*
X417055Y46154D01*
X419134Y47428D01*
X420989Y49011D01*
X422572Y50866D01*
X423846Y52945D01*
X424779Y55198D01*
X425349Y57569D01*
X425540Y60000D01*
X425349Y62431D01*
X424779Y64802D01*
X423846Y67055D01*
X422572Y69134D01*
X420989Y70989D01*
X419134Y72572D01*
X417921Y73316D01*
X418127Y73776D01*
X418726Y73594D01*
X420000Y73469D01*
X421274Y73594D01*
X422500Y73966D01*
X423629Y74569D01*
X424618Y75382D01*
X425431Y76371D01*
X426034Y77500D01*
X426406Y78726D01*
X426532Y80000D01*
X426406Y81274D01*
X426034Y82499D01*
X425431Y83629D01*
X424618Y84618D01*
X424458Y84750D01*
Y85250D01*
X424618Y85382D01*
X425431Y86371D01*
X426034Y87501D01*
X426406Y88726D01*
X426532Y90000D01*
X426406Y91274D01*
X426034Y92500D01*
X425431Y93629D01*
X424618Y94618D01*
X424458Y94750D01*
Y95250D01*
X424618Y95382D01*
X425431Y96371D01*
X426034Y97500D01*
X426406Y98726D01*
X426532Y100000D01*
X426406Y101274D01*
X426034Y102499D01*
X425431Y103629D01*
X424618Y104618D01*
X424458Y104750D01*
Y105250D01*
X424618Y105382D01*
X425431Y106371D01*
X426034Y107501D01*
X426406Y108726D01*
X426532Y110000D01*
X426406Y111274D01*
X426034Y112499D01*
X425431Y113629D01*
X424618Y114618D01*
X424458Y114750D01*
Y115250D01*
X424618Y115382D01*
X425431Y116371D01*
X426034Y117500D01*
X426406Y118726D01*
X426532Y120000D01*
X426406Y121274D01*
X426034Y122500D01*
X425431Y123629D01*
X424618Y124618D01*
X423629Y125431D01*
X422500Y126034D01*
X421274Y126406D01*
X420000Y126531D01*
D02*
G37*
G36*
X290000Y385547D02*
X288564Y385358D01*
X287226Y384804D01*
X286077Y383923D01*
X285293Y382900D01*
X285127Y382857D01*
X284873D01*
X284707Y382900D01*
X283923Y383923D01*
X282774Y384804D01*
X281436Y385358D01*
X280000Y385547D01*
X278564Y385358D01*
X277226Y384804D01*
X276077Y383923D01*
X275293Y382900D01*
X275127Y382857D01*
X274873D01*
X274707Y382900D01*
X273923Y383923D01*
X272774Y384804D01*
X271436Y385358D01*
X270000Y385547D01*
X268564Y385358D01*
X267226Y384804D01*
X266077Y383923D01*
X265293Y382900D01*
X265127Y382857D01*
X264873D01*
X264707Y382900D01*
X263923Y383923D01*
X262774Y384804D01*
X261436Y385358D01*
X260000Y385547D01*
X258564Y385358D01*
X257226Y384804D01*
X256077Y383923D01*
X255293Y382900D01*
X255127Y382857D01*
X254873D01*
X254707Y382900D01*
X253923Y383923D01*
X252774Y384804D01*
X251436Y385358D01*
X250000Y385547D01*
X248564Y385358D01*
X247226Y384804D01*
X246077Y383923D01*
X245196Y382774D01*
X244642Y381436D01*
X244453Y380000D01*
X244642Y378564D01*
X245196Y377226D01*
X246077Y376077D01*
X246213Y375974D01*
X246052Y375500D01*
X244500D01*
Y364500D01*
X255500D01*
Y375500D01*
X253948D01*
X253787Y375974D01*
X253923Y376077D01*
X254707Y377100D01*
X254873Y377143D01*
X255127D01*
X255293Y377100D01*
X256077Y376077D01*
X257226Y375196D01*
X258564Y374642D01*
X260000Y374452D01*
X261436Y374642D01*
X262774Y375196D01*
X263040Y375400D01*
X263494Y375118D01*
X263471Y375000D01*
Y365634D01*
X258919Y361081D01*
X258587Y360585D01*
X258471Y360000D01*
Y346329D01*
X257501Y346034D01*
X256371Y345431D01*
X255382Y344619D01*
X255250Y344458D01*
X254750D01*
X254619Y344618D01*
X253629Y345431D01*
X252500Y346034D01*
X251274Y346406D01*
X250000Y346531D01*
X248726Y346406D01*
X247501Y346034D01*
X246371Y345431D01*
X245382Y344618D01*
X245250Y344458D01*
X244750D01*
X244618Y344619D01*
X243629Y345431D01*
X242499Y346034D01*
X241274Y346406D01*
X240000Y346532D01*
X238726Y346406D01*
X237501Y346034D01*
X236371Y345431D01*
X235382Y344619D01*
X235250Y344458D01*
X234750D01*
X234618Y344618D01*
X233629Y345431D01*
X232500Y346034D01*
X231274Y346406D01*
X230000Y346531D01*
X228726Y346406D01*
X227501Y346034D01*
X226371Y345431D01*
X225382Y344618D01*
X225250Y344458D01*
X224750D01*
X224618Y344619D01*
X223629Y345431D01*
X222499Y346034D01*
X221274Y346406D01*
X220000Y346532D01*
X218726Y346406D01*
X217500Y346034D01*
X216371Y345431D01*
X215382Y344619D01*
X215250Y344458D01*
X214750D01*
X214618Y344618D01*
X213629Y345431D01*
X212770Y345890D01*
X212895Y346390D01*
X213559D01*
Y352327D01*
X206441D01*
Y346390D01*
X207105D01*
X207230Y345890D01*
X206371Y345431D01*
X205382Y344618D01*
X205250Y344458D01*
X204750D01*
X204618Y344619D01*
X203629Y345431D01*
X202500Y346034D01*
X201274Y346406D01*
X200000Y346532D01*
X198726Y346406D01*
X197501Y346034D01*
X196371Y345431D01*
X195382Y344619D01*
X195250Y344458D01*
X194750D01*
X194618Y344618D01*
X193629Y345431D01*
X192499Y346034D01*
X191274Y346406D01*
X190000Y346531D01*
X188726Y346406D01*
X187501Y346034D01*
X186371Y345431D01*
X185382Y344618D01*
X184569Y343629D01*
X183966Y342499D01*
X183594Y341274D01*
X183469Y340000D01*
X183594Y338726D01*
X183966Y337500D01*
X184569Y336371D01*
X185382Y335382D01*
X186371Y334569D01*
X187501Y333966D01*
X188455Y333676D01*
Y306000D01*
X188571Y305415D01*
X188903Y304919D01*
X216565Y277256D01*
Y274282D01*
X216489Y273898D01*
Y267992D01*
X216612Y267372D01*
X216964Y266845D01*
X217490Y266494D01*
X218110Y266370D01*
X218731Y266494D01*
X219094Y266737D01*
X219458Y266494D01*
X220079Y266370D01*
X220699Y266494D01*
X221063Y266737D01*
X221427Y266494D01*
X222047Y266370D01*
X222668Y266494D01*
X223032Y266737D01*
X223395Y266494D01*
X224016Y266370D01*
X224637Y266494D01*
X224917Y266080D01*
X223846Y265008D01*
X223220Y264884D01*
X222558Y264442D01*
X222116Y263780D01*
X221961Y263000D01*
X222116Y262220D01*
X222558Y261558D01*
X223220Y261116D01*
X224000Y260961D01*
X224780Y261116D01*
X225442Y261558D01*
X225884Y262220D01*
X226009Y262846D01*
X227460Y264298D01*
X237528D01*
X237992Y264205D01*
X243897D01*
X244518Y264329D01*
X245044Y264680D01*
X245396Y265206D01*
X245406Y265259D01*
X288633Y308487D01*
X303667D01*
X303966Y307501D01*
X304569Y306371D01*
X305382Y305382D01*
X306371Y304569D01*
X307501Y303966D01*
X308726Y303594D01*
X310000Y303469D01*
X311274Y303594D01*
X312499Y303966D01*
X313629Y304569D01*
X314618Y305382D01*
X315431Y306371D01*
X316034Y307501D01*
X316406Y308726D01*
X316531Y310000D01*
X316406Y311274D01*
X316034Y312499D01*
X315431Y313629D01*
X314618Y314618D01*
X313629Y315431D01*
X312499Y316034D01*
X311529Y316329D01*
Y318291D01*
X313854D01*
Y325409D01*
X306146D01*
Y318291D01*
X308471D01*
Y316329D01*
X307501Y316034D01*
X306371Y315431D01*
X305382Y314618D01*
X304569Y313629D01*
X303966Y312499D01*
X303676Y311545D01*
X288000D01*
X287415Y311429D01*
X286919Y311097D01*
X243270Y267449D01*
X237992D01*
X237844Y267419D01*
X237427Y267829D01*
X237421Y267856D01*
X237449Y267992D01*
Y273286D01*
X281081Y316919D01*
X281413Y317415D01*
X281529Y318000D01*
Y333671D01*
X282500Y333966D01*
X283629Y334569D01*
X284618Y335382D01*
X285431Y336371D01*
X286034Y337500D01*
X286406Y338726D01*
X286531Y340000D01*
X286406Y341274D01*
X286034Y342499D01*
X285431Y343629D01*
X284618Y344618D01*
X283629Y345431D01*
X282500Y346034D01*
X281274Y346406D01*
X280000Y346531D01*
X278726Y346406D01*
X277501Y346034D01*
X276371Y345431D01*
X275382Y344618D01*
X275250Y344458D01*
X274750D01*
X274618Y344618D01*
X273629Y345431D01*
X272499Y346034D01*
X271529Y346328D01*
Y358366D01*
X276081Y362919D01*
X276413Y363415D01*
X276529Y364000D01*
Y365165D01*
X276978Y365386D01*
X277226Y365196D01*
X278564Y364642D01*
X280000Y364453D01*
X281436Y364642D01*
X282774Y365196D01*
X283923Y366077D01*
X284804Y367226D01*
X285358Y368564D01*
X285547Y370000D01*
X285358Y371436D01*
X284804Y372774D01*
X283923Y373923D01*
X282900Y374707D01*
X282857Y374873D01*
Y375127D01*
X282900Y375293D01*
X283923Y376077D01*
X284707Y377100D01*
X284873Y377143D01*
X285127D01*
X285293Y377100D01*
X286077Y376077D01*
X287226Y375196D01*
X288564Y374642D01*
X290000Y374452D01*
X291436Y374642D01*
X292774Y375196D01*
X293923Y376077D01*
X294804Y377226D01*
X295358Y378564D01*
X295548Y380000D01*
X295358Y381436D01*
X294804Y382774D01*
X293923Y383923D01*
X292774Y384804D01*
X291436Y385358D01*
X290000Y385547D01*
D02*
G37*
G36*
X60000Y425540D02*
X57569Y425349D01*
X55198Y424779D01*
X52945Y423846D01*
X50866Y422572D01*
X49011Y420989D01*
X47428Y419134D01*
X46154Y417055D01*
X45221Y414802D01*
X44651Y412431D01*
X44460Y410000D01*
X44651Y407569D01*
X45221Y405198D01*
X46154Y402945D01*
X47428Y400866D01*
X49011Y399011D01*
X50866Y397428D01*
X52945Y396154D01*
X55198Y395221D01*
X57569Y394651D01*
X60000Y394460D01*
X62431Y394651D01*
X64802Y395221D01*
X67055Y396154D01*
X69134Y397428D01*
X70989Y399011D01*
X72572Y400866D01*
X73846Y402945D01*
X74779Y405198D01*
X75349Y407569D01*
X75540Y410000D01*
X75349Y412431D01*
X74779Y414802D01*
X73846Y417055D01*
X72572Y419134D01*
X70989Y420989D01*
X69134Y422572D01*
X67055Y423846D01*
X64802Y424779D01*
X62431Y425349D01*
X60000Y425540D01*
D02*
G37*
G36*
X90000Y426532D02*
X88726Y426406D01*
X87501Y426034D01*
X86371Y425431D01*
X85382Y424618D01*
X84569Y423629D01*
X83966Y422500D01*
X83594Y421274D01*
X83469Y420000D01*
X83594Y418726D01*
X83966Y417500D01*
X84569Y416371D01*
X85382Y415382D01*
X86371Y414569D01*
X87039Y414212D01*
X87113Y413718D01*
X83198Y409802D01*
X68198Y394802D01*
X67645Y393975D01*
X67451Y393000D01*
Y387000D01*
X67645Y386024D01*
X68198Y385198D01*
X71292Y382103D01*
X72119Y381551D01*
X73094Y381357D01*
X80906D01*
X81260Y381003D01*
Y380029D01*
X81260Y379953D01*
X81075Y379529D01*
X76985D01*
X76802Y379802D01*
X75976Y380355D01*
X75000Y380549D01*
X74024Y380355D01*
X73198Y379802D01*
X63198Y369802D01*
X62645Y368975D01*
X62451Y368000D01*
Y365905D01*
X60654D01*
Y352095D01*
X69346D01*
Y365905D01*
X67549D01*
Y366944D01*
X76802Y376198D01*
X76985Y376471D01*
X90367D01*
X94108Y372729D01*
X94126Y372642D01*
X94612Y371914D01*
X95340Y371428D01*
X96198Y371257D01*
X100098D01*
X100956Y371428D01*
X101684Y371914D01*
X101980Y372357D01*
X102480Y372206D01*
Y369000D01*
X102558Y368610D01*
X102779Y368279D01*
X103110Y368058D01*
X103500Y367980D01*
X113800D01*
X114190Y368058D01*
X114521Y368279D01*
X114742Y368610D01*
X115207Y368500D01*
X115378Y367642D01*
X115864Y366914D01*
X116592Y366428D01*
X117450Y366257D01*
X118038D01*
X118451Y365844D01*
Y344823D01*
X117638D01*
Y339673D01*
X124362D01*
Y339699D01*
X125638D01*
Y339673D01*
X132362D01*
Y344823D01*
X125638D01*
Y344797D01*
X124362D01*
Y344823D01*
X123549D01*
Y366900D01*
X123406Y367618D01*
X123422Y367642D01*
X123593Y368500D01*
X123422Y369358D01*
X122936Y370086D01*
X122390Y370451D01*
X122542Y370951D01*
X129988D01*
X136949Y363990D01*
Y360591D01*
Y353504D01*
X138451D01*
Y348661D01*
X137638D01*
Y343512D01*
X144362D01*
Y348661D01*
X143549D01*
Y353504D01*
X145051D01*
Y360591D01*
Y368496D01*
X139652D01*
X132846Y375302D01*
X132019Y375855D01*
X131043Y376049D01*
X127232D01*
X127080Y376549D01*
X127302Y376698D01*
X131894Y381290D01*
X137638D01*
Y380673D01*
X144362D01*
Y385823D01*
X142530D01*
X141975Y386193D01*
X141000Y386388D01*
X130839D01*
X129863Y386193D01*
X129036Y385641D01*
X124444Y381049D01*
X122542D01*
X122390Y381549D01*
X122936Y381914D01*
X123422Y382642D01*
X123593Y383500D01*
X123422Y384358D01*
X122936Y385086D01*
X122208Y385572D01*
X121350Y385743D01*
X120801D01*
Y389196D01*
X130599Y398994D01*
X136949D01*
Y397590D01*
X145051D01*
Y405496D01*
X136949D01*
Y404092D01*
X129543D01*
X128568Y403898D01*
X127741Y403346D01*
X116450Y392054D01*
X115897Y391227D01*
X115703Y390252D01*
Y384845D01*
X115378Y384358D01*
X115207Y383500D01*
X115378Y382642D01*
X115864Y381914D01*
X116592Y381428D01*
X117139Y381319D01*
X117190Y381146D01*
X117192Y380798D01*
X116965Y380646D01*
X116592Y380572D01*
X115864Y380086D01*
X115378Y379358D01*
X115320Y379066D01*
X114820Y379116D01*
Y382800D01*
X114742Y383190D01*
X114521Y383521D01*
X114190Y383742D01*
X113800Y383820D01*
X103500D01*
X103110Y383742D01*
X102822Y383550D01*
X102576Y383599D01*
X102300Y383705D01*
X102170Y384358D01*
X101684Y385086D01*
X101277Y385358D01*
Y387795D01*
X101161Y388381D01*
X100830Y388877D01*
X95709Y393998D01*
Y398854D01*
X82291D01*
Y396529D01*
X77788D01*
X77596Y396991D01*
X86802Y406198D01*
X87075Y406471D01*
X145367D01*
X148471Y403367D01*
Y380633D01*
X145528Y377691D01*
X144362D01*
Y379327D01*
X137638D01*
Y374177D01*
X144362D01*
Y374632D01*
X146161D01*
X146747Y374748D01*
X147243Y375080D01*
X151081Y378919D01*
X151413Y379415D01*
X151529Y380000D01*
Y404000D01*
X151432Y404488D01*
X151413Y404585D01*
X151081Y405081D01*
X147081Y409081D01*
X146585Y409413D01*
X146000Y409529D01*
X90788D01*
X90596Y409991D01*
X91802Y411198D01*
X92355Y412024D01*
X92549Y413000D01*
Y413992D01*
X93629Y414569D01*
X94618Y415382D01*
X95431Y416371D01*
X96034Y417500D01*
X96406Y418726D01*
X96531Y420000D01*
X96406Y421274D01*
X96034Y422500D01*
X95431Y423629D01*
X94618Y424618D01*
X93629Y425431D01*
X92500Y426034D01*
X91274Y426406D01*
X90000Y426532D01*
D02*
G37*
G36*
X60000Y75540D02*
X57569Y75349D01*
X55198Y74779D01*
X52945Y73846D01*
X50866Y72572D01*
X49011Y70989D01*
X47428Y69134D01*
X46154Y67055D01*
X45221Y64802D01*
X44651Y62431D01*
X44460Y60000D01*
X44651Y57569D01*
X45221Y55198D01*
X46154Y52945D01*
X47428Y50866D01*
X49011Y49011D01*
X50866Y47428D01*
X52945Y46154D01*
X55198Y45221D01*
X57569Y44651D01*
X60000Y44460D01*
X62431Y44651D01*
X64802Y45221D01*
X67055Y46154D01*
X69134Y47428D01*
X70989Y49011D01*
X72572Y50866D01*
X73846Y52945D01*
X74779Y55198D01*
X75349Y57569D01*
X75540Y60000D01*
X75349Y62431D01*
X74779Y64802D01*
X73846Y67055D01*
X72572Y69134D01*
X70989Y70989D01*
X69134Y72572D01*
X67055Y73846D01*
X64802Y74779D01*
X62431Y75349D01*
X60000Y75540D01*
D02*
G37*
G36*
X80000Y316531D02*
X78726Y316406D01*
X77500Y316034D01*
X76371Y315431D01*
X75382Y314618D01*
X75250Y314458D01*
X74750D01*
X74618Y314618D01*
X73629Y315431D01*
X72500Y316034D01*
X71274Y316406D01*
X70000Y316531D01*
X68726Y316406D01*
X67501Y316034D01*
X66371Y315431D01*
X65382Y314618D01*
X65250Y314458D01*
X64750D01*
X64618Y314618D01*
X63629Y315431D01*
X62499Y316034D01*
X61274Y316406D01*
X60000Y316531D01*
X58726Y316406D01*
X57500Y316034D01*
X56371Y315431D01*
X55382Y314618D01*
X55250Y314458D01*
X54750D01*
X54618Y314618D01*
X53629Y315431D01*
X52500Y316034D01*
X51274Y316406D01*
X50000Y316531D01*
X48726Y316406D01*
X47501Y316034D01*
X46371Y315431D01*
X45382Y314618D01*
X44569Y313629D01*
X43966Y312499D01*
X43594Y311274D01*
X43468Y310000D01*
X43594Y308726D01*
X43966Y307501D01*
X44569Y306371D01*
X45382Y305382D01*
X45542Y305250D01*
Y304750D01*
X45382Y304618D01*
X44569Y303629D01*
X43966Y302500D01*
X43594Y301274D01*
X43468Y300000D01*
X43594Y298726D01*
X43966Y297500D01*
X44569Y296371D01*
X45382Y295382D01*
X45542Y295250D01*
Y294750D01*
X45382Y294618D01*
X44569Y293629D01*
X43966Y292499D01*
X43594Y291274D01*
X43468Y290000D01*
X43594Y288726D01*
X43966Y287501D01*
X44569Y286371D01*
X45382Y285382D01*
X45542Y285250D01*
Y284750D01*
X45382Y284618D01*
X44569Y283629D01*
X43966Y282500D01*
X43594Y281274D01*
X43468Y280000D01*
X43594Y278726D01*
X43966Y277501D01*
X44569Y276371D01*
X45382Y275382D01*
X45542Y275250D01*
Y274750D01*
X45382Y274618D01*
X44569Y273629D01*
X43966Y272499D01*
X43594Y271274D01*
X43468Y270000D01*
X43594Y268726D01*
X43966Y267500D01*
X44569Y266371D01*
X45382Y265382D01*
X46371Y264569D01*
X47501Y263966D01*
X48726Y263594D01*
X50000Y263469D01*
X51274Y263594D01*
X52500Y263966D01*
X53629Y264569D01*
X54618Y265382D01*
X54750Y265542D01*
X55250D01*
X55382Y265382D01*
X56371Y264569D01*
X57500Y263966D01*
X58726Y263594D01*
X60000Y263469D01*
X61274Y263594D01*
X62499Y263966D01*
X63629Y264569D01*
X64618Y265382D01*
X64750Y265542D01*
X65250D01*
X65382Y265382D01*
X66371Y264569D01*
X67501Y263966D01*
X68726Y263594D01*
X70000Y263469D01*
X71274Y263594D01*
X72500Y263966D01*
X73629Y264569D01*
X74618Y265382D01*
X74750Y265542D01*
X75250D01*
X75382Y265382D01*
X76371Y264569D01*
X77500Y263966D01*
X78726Y263594D01*
X80000Y263469D01*
X81274Y263594D01*
X82499Y263966D01*
X83629Y264569D01*
X84618Y265382D01*
X85431Y266371D01*
X86034Y267500D01*
X86406Y268726D01*
X86531Y270000D01*
X86406Y271274D01*
X86034Y272499D01*
X85431Y273629D01*
X84618Y274618D01*
X84458Y274750D01*
Y275250D01*
X84618Y275382D01*
X85431Y276371D01*
X86034Y277501D01*
X86406Y278726D01*
X86531Y280000D01*
X86406Y281274D01*
X86034Y282500D01*
X85431Y283629D01*
X84618Y284618D01*
X84458Y284750D01*
Y285250D01*
X84618Y285382D01*
X85431Y286371D01*
X86034Y287501D01*
X86406Y288726D01*
X86531Y290000D01*
X86406Y291274D01*
X86034Y292499D01*
X85431Y293629D01*
X84618Y294618D01*
X84458Y294750D01*
Y295250D01*
X84618Y295382D01*
X85431Y296371D01*
X86034Y297500D01*
X86406Y298726D01*
X86531Y300000D01*
X86406Y301274D01*
X86034Y302500D01*
X85431Y303629D01*
X84618Y304618D01*
X84458Y304750D01*
Y305250D01*
X84618Y305382D01*
X85431Y306371D01*
X86034Y307501D01*
X86406Y308726D01*
X86531Y310000D01*
X86406Y311274D01*
X86034Y312499D01*
X85431Y313629D01*
X84618Y314618D01*
X83629Y315431D01*
X82499Y316034D01*
X81274Y316406D01*
X80000Y316531D01*
D02*
G37*
G36*
X149000Y430549D02*
X119000D01*
X118025Y430355D01*
X117198Y429802D01*
X113105Y425710D01*
X112499Y426034D01*
X111274Y426406D01*
X110000Y426532D01*
X108726Y426406D01*
X107501Y426034D01*
X106371Y425431D01*
X105382Y424618D01*
X104569Y423629D01*
X103966Y422500D01*
X103594Y421274D01*
X103469Y420000D01*
X103594Y418726D01*
X103966Y417500D01*
X104569Y416371D01*
X105382Y415382D01*
X106371Y414569D01*
X107501Y413966D01*
X108726Y413594D01*
X110000Y413469D01*
X111274Y413594D01*
X112499Y413966D01*
X113629Y414569D01*
X114618Y415382D01*
X115431Y416371D01*
X116034Y417500D01*
X116406Y418726D01*
X116531Y420000D01*
X116406Y421274D01*
X116283Y421678D01*
X120056Y425451D01*
X147944D01*
X155451Y417944D01*
Y356000D01*
X155645Y355025D01*
X156198Y354198D01*
X160347Y350048D01*
X161174Y349496D01*
X162150Y349302D01*
X166146D01*
Y348291D01*
X168471D01*
Y346328D01*
X167500Y346034D01*
X166371Y345431D01*
X165382Y344618D01*
X164569Y343629D01*
X163966Y342499D01*
X163594Y341274D01*
X163469Y340000D01*
X163594Y338726D01*
X163966Y337501D01*
X164569Y336371D01*
X165382Y335382D01*
X166371Y334569D01*
X167500Y333966D01*
X168455Y333676D01*
Y318000D01*
X168571Y317415D01*
X168903Y316919D01*
X212551Y273270D01*
Y271502D01*
X208498Y267448D01*
X206715D01*
X163081Y311081D01*
X162585Y311413D01*
X162000Y311529D01*
X146328D01*
X146034Y312499D01*
X145431Y313629D01*
X144618Y314618D01*
X143629Y315431D01*
X142499Y316034D01*
X141274Y316406D01*
X140000Y316531D01*
X138726Y316406D01*
X137554Y316051D01*
X122891Y330713D01*
Y333177D01*
X124362D01*
Y338327D01*
X117638D01*
Y337644D01*
X111059D01*
Y343122D01*
X100941D01*
Y337644D01*
X94740D01*
Y339047D01*
X89530D01*
X89070Y339355D01*
X88095Y339549D01*
X69346D01*
Y343905D01*
X60654D01*
Y330095D01*
X69346D01*
Y334451D01*
X85260D01*
Y331142D01*
X94740D01*
Y332545D01*
X117794D01*
Y329658D01*
X117988Y328682D01*
X118540Y327855D01*
X133949Y312446D01*
X133594Y311274D01*
X133469Y310000D01*
X133594Y308726D01*
X133966Y307501D01*
X134569Y306371D01*
X135382Y305382D01*
X135542Y305250D01*
Y304750D01*
X135382Y304618D01*
X134569Y303629D01*
X133966Y302500D01*
X133594Y301274D01*
X133469Y300000D01*
X133594Y298726D01*
X133966Y297500D01*
X134569Y296371D01*
X135382Y295382D01*
X135542Y295250D01*
Y294750D01*
X135381Y294618D01*
X134569Y293629D01*
X134107Y292763D01*
X133516Y292647D01*
X124916Y301247D01*
X124420Y301578D01*
X124192Y301624D01*
X123966Y302171D01*
X123328Y303001D01*
X122497Y303639D01*
X121530Y304039D01*
X120492Y304176D01*
X119508D01*
X118470Y304039D01*
X118342Y303986D01*
X116028Y306300D01*
X115532Y306631D01*
X114947Y306748D01*
X106280D01*
Y309073D01*
X99162D01*
Y301364D01*
X106280D01*
Y303689D01*
X114313D01*
X115975Y302027D01*
X115634Y301203D01*
X115497Y300165D01*
X115634Y299127D01*
X116034Y298160D01*
X116157Y298000D01*
X116034Y297840D01*
X115634Y296873D01*
X115497Y295835D01*
X115634Y294797D01*
X115689Y294663D01*
X115411Y294248D01*
X106280D01*
Y296573D01*
X99162D01*
Y288864D01*
X106280D01*
Y291189D01*
X116884D01*
X117469Y291305D01*
X117965Y291637D01*
X118342Y292014D01*
X118470Y291961D01*
X119508Y291824D01*
X120492D01*
X121530Y291961D01*
X121658Y292014D01*
X133487Y280185D01*
X133469Y280000D01*
X133594Y278726D01*
X133966Y277501D01*
X134569Y276371D01*
X135382Y275382D01*
X135542Y275250D01*
Y274750D01*
X135382Y274618D01*
X134569Y273629D01*
X133966Y272499D01*
X133671Y271529D01*
X125240D01*
X124355Y272414D01*
X124737Y273337D01*
X124904Y274606D01*
X124737Y275876D01*
X124247Y277058D01*
X123468Y278074D01*
X122452Y278854D01*
X121269Y279343D01*
X120000Y279510D01*
X118731Y279343D01*
X117548Y278854D01*
X116532Y278074D01*
X115753Y277058D01*
X115371Y276136D01*
X106280D01*
Y278573D01*
X99162D01*
Y270864D01*
X106280D01*
Y273077D01*
X115371D01*
X115753Y272154D01*
X116532Y271139D01*
X117548Y270359D01*
X118731Y269869D01*
X120000Y269702D01*
X121269Y269869D01*
X122192Y270251D01*
X123525Y268919D01*
X124021Y268587D01*
X124606Y268471D01*
X133671D01*
X133966Y267500D01*
X134569Y266371D01*
X135382Y265382D01*
X135542Y265250D01*
Y264750D01*
X135382Y264618D01*
X134569Y263629D01*
X133966Y262499D01*
X133671Y261529D01*
X124606D01*
X124021Y261413D01*
X123525Y261081D01*
X122699Y260256D01*
X115138D01*
Y256248D01*
X106280D01*
Y258573D01*
X99162D01*
Y250864D01*
X106280D01*
Y253189D01*
X115138D01*
Y250532D01*
X124862D01*
Y258093D01*
X125240Y258471D01*
X133671D01*
X133966Y257501D01*
X134569Y256371D01*
X135382Y255382D01*
X135542Y255250D01*
Y254750D01*
X135382Y254618D01*
X134569Y253629D01*
X133966Y252500D01*
X133671Y251529D01*
X132500D01*
X131915Y251413D01*
X131419Y251081D01*
X121867Y241529D01*
X86283D01*
X84209Y243604D01*
Y248854D01*
X77091D01*
Y241146D01*
X82341D01*
X83487Y240000D01*
X82046Y238559D01*
X78173D01*
Y231441D01*
X84110D01*
Y236298D01*
X86283Y238471D01*
X104623D01*
X104671Y238408D01*
X104808Y237971D01*
X97366Y230529D01*
X77634D01*
X77097Y231066D01*
X76827Y231441D01*
X76827D01*
X76827Y231441D01*
Y238559D01*
X70890D01*
Y231441D01*
X72522D01*
X72777Y231060D01*
X75919Y227919D01*
X76415Y227587D01*
X77000Y227471D01*
X98000D01*
X98585Y227587D01*
X99081Y227919D01*
X106633Y235471D01*
X120367D01*
X121483Y234354D01*
X121288Y233854D01*
X119591D01*
Y226146D01*
X121620D01*
Y223854D01*
X119591D01*
Y216146D01*
X121620D01*
Y213854D01*
X119591D01*
Y206146D01*
X121620D01*
Y203854D01*
X119591D01*
Y196146D01*
X126709D01*
Y203854D01*
X124679D01*
Y206146D01*
X126709D01*
Y213854D01*
X124679D01*
Y216146D01*
X126709D01*
Y223854D01*
X124679D01*
Y226146D01*
X126709D01*
Y228471D01*
X133671D01*
X133966Y227501D01*
X134569Y226371D01*
X135382Y225382D01*
X135542Y225250D01*
Y224750D01*
X135382Y224618D01*
X134569Y223629D01*
X133966Y222499D01*
X133594Y221274D01*
X133469Y220000D01*
X133594Y218726D01*
X133966Y217500D01*
X134569Y216371D01*
X135382Y215382D01*
X135542Y215250D01*
Y214750D01*
X135382Y214618D01*
X134569Y213629D01*
X133966Y212499D01*
X133594Y211274D01*
X133469Y210000D01*
X133594Y208726D01*
X133966Y207501D01*
X134569Y206371D01*
X135382Y205382D01*
X135542Y205250D01*
Y204750D01*
X135382Y204618D01*
X134569Y203629D01*
X133966Y202500D01*
X133594Y201274D01*
X133469Y200000D01*
X133594Y198726D01*
X133966Y197501D01*
X134569Y196371D01*
X135382Y195382D01*
X136371Y194569D01*
X137501Y193966D01*
X138726Y193594D01*
X140000Y193469D01*
X141274Y193594D01*
X142499Y193966D01*
X143629Y194569D01*
X144618Y195382D01*
X145431Y196371D01*
X146034Y197501D01*
X146328Y198471D01*
X162016D01*
X162601Y198587D01*
X163097Y198919D01*
X206730Y242551D01*
X212008D01*
X212156Y242581D01*
X212581Y242156D01*
X212551Y242008D01*
Y236714D01*
X168919Y193081D01*
X168587Y192585D01*
X168471Y192000D01*
Y176329D01*
X167500Y176034D01*
X166371Y175431D01*
X165382Y174618D01*
X164569Y173629D01*
X163966Y172500D01*
X163594Y171274D01*
X163469Y170000D01*
X163594Y168726D01*
X163966Y167500D01*
X164569Y166371D01*
X165382Y165382D01*
X165542Y165250D01*
Y164750D01*
X165382Y164618D01*
X165250Y164458D01*
X164750D01*
X164618Y164618D01*
X163629Y165431D01*
X162499Y166034D01*
X161274Y166406D01*
X160000Y166531D01*
X158726Y166406D01*
X157501Y166034D01*
X156371Y165431D01*
X155382Y164618D01*
X155250Y164458D01*
X154750D01*
X154618Y164618D01*
X153629Y165431D01*
X152499Y166034D01*
X151274Y166406D01*
X150000Y166531D01*
X148726Y166406D01*
X147501Y166034D01*
X146371Y165431D01*
X145382Y164618D01*
X145250Y164458D01*
X144750D01*
X144618Y164618D01*
X143629Y165431D01*
X142499Y166034D01*
X141274Y166406D01*
X140000Y166531D01*
X138726Y166406D01*
X137501Y166034D01*
X136371Y165431D01*
X135382Y164618D01*
X135250Y164458D01*
X134750D01*
X134618Y164618D01*
X133629Y165431D01*
X132500Y166034D01*
X131274Y166406D01*
X130000Y166531D01*
X128726Y166406D01*
X127500Y166034D01*
X126371Y165431D01*
X125382Y164618D01*
X125250Y164458D01*
X124750D01*
X124618Y164618D01*
X123629Y165431D01*
X122500Y166034D01*
X121274Y166406D01*
X120000Y166531D01*
X118726Y166406D01*
X117500Y166034D01*
X116371Y165431D01*
X115382Y164618D01*
X115250Y164458D01*
X114750D01*
X114618Y164618D01*
X113629Y165431D01*
X112499Y166034D01*
X111274Y166406D01*
X110000Y166531D01*
X108726Y166406D01*
X107501Y166034D01*
X106371Y165431D01*
X105382Y164618D01*
X104569Y163629D01*
X103966Y162499D01*
X103594Y161274D01*
X103469Y160000D01*
X103594Y158726D01*
X103966Y157501D01*
X104569Y156371D01*
X105382Y155382D01*
X106371Y154569D01*
X107501Y153966D01*
X108471Y153672D01*
Y137000D01*
X108587Y136415D01*
X108919Y135919D01*
X125971Y118867D01*
Y115944D01*
X125842Y115858D01*
X125333Y115097D01*
X125155Y114200D01*
Y107800D01*
X125333Y106903D01*
X125842Y106142D01*
X126603Y105633D01*
X127500Y105455D01*
X128397Y105633D01*
X129158Y106142D01*
X129667Y106903D01*
X129745Y107298D01*
X130255D01*
X130333Y106903D01*
X130842Y106142D01*
X131603Y105633D01*
X132500Y105455D01*
X133397Y105633D01*
X134158Y106142D01*
X134667Y106903D01*
X134745Y107298D01*
X135255D01*
X135333Y106903D01*
X135842Y106142D01*
X136603Y105633D01*
X137500Y105455D01*
X138397Y105633D01*
X139158Y106142D01*
X139667Y106903D01*
X139745Y107298D01*
X140255D01*
X140333Y106903D01*
X140842Y106142D01*
X141603Y105633D01*
X142500Y105455D01*
X143397Y105633D01*
X144158Y106142D01*
X144667Y106903D01*
X144745Y107298D01*
X145255D01*
X145333Y106903D01*
X145842Y106142D01*
X146603Y105633D01*
X147500Y105455D01*
X148397Y105633D01*
X149158Y106142D01*
X149667Y106903D01*
X149745Y107298D01*
X150255D01*
X150333Y106903D01*
X150842Y106142D01*
X151603Y105633D01*
X152500Y105455D01*
X153397Y105633D01*
X154158Y106142D01*
X154667Y106903D01*
X154745Y107298D01*
X155255D01*
X155333Y106903D01*
X155842Y106142D01*
X156603Y105633D01*
X157500Y105455D01*
X158397Y105633D01*
X159158Y106142D01*
X159667Y106903D01*
X159845Y107800D01*
Y109471D01*
X162000D01*
X162585Y109587D01*
X163081Y109919D01*
X171081Y117919D01*
X171413Y118415D01*
X171529Y119000D01*
Y153672D01*
X172500Y153966D01*
X173629Y154569D01*
X174618Y155382D01*
X175431Y156371D01*
X176034Y157501D01*
X176406Y158726D01*
X176531Y160000D01*
X176406Y161274D01*
X176034Y162499D01*
X175431Y163629D01*
X174618Y164618D01*
X174529Y164692D01*
X174512Y165217D01*
X174784Y165488D01*
X175308Y165471D01*
X175382Y165382D01*
X176371Y164569D01*
X177500Y163966D01*
X178726Y163594D01*
X180000Y163469D01*
X181274Y163594D01*
X182500Y163966D01*
X183629Y164569D01*
X184618Y165382D01*
X184750Y165542D01*
X185250D01*
X185382Y165382D01*
X186371Y164569D01*
X187501Y163966D01*
X188726Y163594D01*
X190000Y163469D01*
X191274Y163594D01*
X192499Y163966D01*
X193629Y164569D01*
X194618Y165382D01*
X194750Y165542D01*
X195250D01*
X195382Y165382D01*
X196371Y164569D01*
X197501Y163966D01*
X198726Y163594D01*
X200000Y163469D01*
X201274Y163594D01*
X202500Y163966D01*
X203629Y164569D01*
X204618Y165382D01*
X204750Y165542D01*
X205250D01*
X205382Y165382D01*
X206371Y164569D01*
X207501Y163966D01*
X208726Y163594D01*
X210000Y163469D01*
X211274Y163594D01*
X212499Y163966D01*
X213629Y164569D01*
X214618Y165382D01*
X214750Y165542D01*
X215250D01*
X215381Y165382D01*
X216371Y164569D01*
X217500Y163966D01*
X218470Y163672D01*
Y157693D01*
X216441D01*
Y151165D01*
X223559D01*
Y157693D01*
X221529D01*
Y163672D01*
X222499Y163966D01*
X223628Y164569D01*
X224618Y165382D01*
X224750Y165542D01*
X225250D01*
X225382Y165382D01*
X226371Y164569D01*
X227501Y163966D01*
X228471Y163672D01*
Y157693D01*
X226441D01*
Y151165D01*
X233559D01*
Y157693D01*
X231529D01*
Y163672D01*
X232500Y163966D01*
X233629Y164569D01*
X234618Y165382D01*
X234750Y165542D01*
X235250D01*
X235382Y165382D01*
X236371Y164569D01*
X237501Y163966D01*
X238471Y163672D01*
Y157693D01*
X236441D01*
Y151165D01*
X243559D01*
Y157693D01*
X241529D01*
Y163672D01*
X242499Y163966D01*
X243629Y164569D01*
X244618Y165382D01*
X244750Y165542D01*
X245250D01*
X245382Y165382D01*
X246372Y164569D01*
X247501Y163966D01*
X248726Y163594D01*
X250000Y163469D01*
X251274Y163594D01*
X252500Y163966D01*
X253629Y164569D01*
X254619Y165382D01*
X254758Y165551D01*
X255258D01*
X255397Y165382D01*
X256387Y164569D01*
X257516Y163966D01*
X258742Y163594D01*
X260016Y163469D01*
X261290Y163594D01*
X262515Y163966D01*
X263645Y164569D01*
X264634Y165382D01*
X265446Y166371D01*
X266050Y167500D01*
X266422Y168726D01*
X266547Y170000D01*
X266422Y171274D01*
X266050Y172500D01*
X265446Y173629D01*
X264634Y174618D01*
X263645Y175431D01*
X262515Y176034D01*
X261545Y176329D01*
Y204000D01*
X261429Y204585D01*
X261097Y205081D01*
X233435Y232744D01*
Y235718D01*
X233511Y236103D01*
Y242008D01*
X233388Y242629D01*
X233036Y243155D01*
X232510Y243506D01*
X231890Y243630D01*
X231269Y243506D01*
X230906Y243263D01*
X230542Y243506D01*
X229921Y243630D01*
X229301Y243506D01*
X228937Y243263D01*
X228573Y243506D01*
X227953Y243630D01*
X227332Y243506D01*
X226969Y243263D01*
X226605Y243506D01*
X225984Y243630D01*
X225364Y243506D01*
X225000Y243263D01*
X224636Y243506D01*
X224016Y243630D01*
X223395Y243506D01*
X223031Y243263D01*
X222668Y243506D01*
X222047Y243630D01*
X221427Y243506D01*
X221063Y243263D01*
X220699Y243506D01*
X220079Y243630D01*
X219458Y243506D01*
X219094Y243263D01*
X218731Y243506D01*
X218110Y243630D01*
X217490Y243506D01*
X217126Y243263D01*
X216762Y243506D01*
X216142Y243630D01*
X215521Y243506D01*
X215158Y243263D01*
X214794Y243506D01*
X214173Y243630D01*
X214025Y243600D01*
X213600Y244025D01*
X213630Y244173D01*
X213506Y244794D01*
X213263Y245157D01*
X213506Y245521D01*
X213630Y246142D01*
X213506Y246762D01*
X213263Y247126D01*
X213506Y247490D01*
X213630Y248110D01*
X213619Y248163D01*
X213936Y248550D01*
X217288D01*
X217991Y247846D01*
X218116Y247220D01*
X218558Y246558D01*
X219220Y246116D01*
X220000Y245961D01*
X220780Y246116D01*
X221442Y246558D01*
X221884Y247220D01*
X222039Y248000D01*
X221884Y248780D01*
X221442Y249442D01*
X220780Y249884D01*
X220154Y250009D01*
X219003Y251160D01*
X218506Y251492D01*
X217921Y251608D01*
X212472D01*
X212008Y251701D01*
X206102D01*
X205558Y251592D01*
X200079D01*
X199494Y251476D01*
X198997Y251144D01*
X179367Y231514D01*
X146333D01*
X146034Y232500D01*
X145431Y233629D01*
X144618Y234618D01*
X143629Y235431D01*
X142499Y236034D01*
X141274Y236406D01*
X140000Y236531D01*
X138726Y236406D01*
X137501Y236034D01*
X136371Y235431D01*
X135382Y234618D01*
X134569Y233629D01*
X133966Y232500D01*
X133671Y231529D01*
X126709D01*
Y233854D01*
X124679D01*
Y234850D01*
X124563Y235436D01*
X124231Y235932D01*
X122192Y237971D01*
X122329Y238408D01*
X122377Y238471D01*
X122500D01*
X123085Y238587D01*
X123581Y238919D01*
X133133Y248471D01*
X133671D01*
X133966Y247500D01*
X134569Y246371D01*
X135382Y245382D01*
X136371Y244569D01*
X137501Y243966D01*
X138726Y243594D01*
X140000Y243469D01*
X141274Y243594D01*
X142499Y243966D01*
X143629Y244569D01*
X144618Y245382D01*
X145431Y246371D01*
X146034Y247500D01*
X146328Y248471D01*
X185689D01*
X186220Y248116D01*
X187000Y247961D01*
X187780Y248116D01*
X188287Y248455D01*
X192000D01*
X192585Y248571D01*
X193081Y248903D01*
X196649Y252471D01*
X205717D01*
X206102Y252394D01*
X212008D01*
X212629Y252518D01*
X213155Y252869D01*
X213506Y253395D01*
X213630Y254016D01*
X213506Y254636D01*
X213263Y255000D01*
X213506Y255364D01*
X213630Y255984D01*
X213506Y256605D01*
X213468Y256662D01*
X213857Y256980D01*
X214991Y255846D01*
X215116Y255220D01*
X215558Y254558D01*
X216220Y254116D01*
X217000Y253961D01*
X217780Y254116D01*
X218442Y254558D01*
X218884Y255220D01*
X219039Y256000D01*
X218884Y256780D01*
X218442Y257442D01*
X217780Y257884D01*
X217154Y258009D01*
X215687Y259476D01*
Y267448D01*
X215795Y267992D01*
Y273898D01*
X215671Y274518D01*
X215320Y275044D01*
X214794Y275396D01*
X214741Y275406D01*
X171514Y318634D01*
Y333667D01*
X172500Y333966D01*
X173629Y334569D01*
X174618Y335382D01*
X175431Y336371D01*
X176034Y337501D01*
X176406Y338726D01*
X176531Y340000D01*
X176406Y341274D01*
X176034Y342499D01*
X175431Y343629D01*
X174618Y344618D01*
X173629Y345431D01*
X172500Y346034D01*
X171529Y346328D01*
Y348291D01*
X173854D01*
Y355410D01*
X166146D01*
Y354399D01*
X163205D01*
X160549Y357056D01*
Y419000D01*
X160355Y419976D01*
X159802Y420802D01*
X150802Y429802D01*
X149976Y430355D01*
X149000Y430549D01*
D02*
G37*
G36*
X390000Y426532D02*
X388726Y426406D01*
X387501Y426034D01*
X386371Y425431D01*
X385382Y424618D01*
X385250Y424458D01*
X384750D01*
X384618Y424618D01*
X383629Y425431D01*
X382500Y426034D01*
X381274Y426406D01*
X380000Y426532D01*
X378726Y426406D01*
X377501Y426034D01*
X376371Y425431D01*
X375382Y424618D01*
X375250Y424458D01*
X374750D01*
X374618Y424618D01*
X373629Y425431D01*
X372499Y426034D01*
X371274Y426406D01*
X370000Y426532D01*
X368726Y426406D01*
X367500Y426034D01*
X366371Y425431D01*
X365382Y424618D01*
X365250Y424458D01*
X364750D01*
X364618Y424618D01*
X363629Y425431D01*
X362499Y426034D01*
X361274Y426406D01*
X360000Y426532D01*
X358726Y426406D01*
X357501Y426034D01*
X356371Y425431D01*
X355382Y424618D01*
X355250Y424458D01*
X354750D01*
X354618Y424618D01*
X353629Y425431D01*
X352500Y426034D01*
X351274Y426406D01*
X350000Y426532D01*
X348726Y426406D01*
X347500Y426034D01*
X346371Y425431D01*
X345382Y424618D01*
X345250Y424458D01*
X344750D01*
X344618Y424618D01*
X343629Y425431D01*
X342499Y426034D01*
X341274Y426406D01*
X340000Y426532D01*
X338726Y426406D01*
X337501Y426034D01*
X336371Y425431D01*
X335382Y424618D01*
X335250Y424458D01*
X334750D01*
X334618Y424618D01*
X333629Y425431D01*
X332500Y426034D01*
X331274Y426406D01*
X330000Y426532D01*
X328726Y426406D01*
X327501Y426034D01*
X326371Y425431D01*
X325382Y424618D01*
X325250Y424458D01*
X324750D01*
X324618Y424618D01*
X323629Y425431D01*
X322499Y426034D01*
X321274Y426406D01*
X320000Y426532D01*
X318726Y426406D01*
X317500Y426034D01*
X316371Y425431D01*
X315382Y424618D01*
X315250Y424458D01*
X314750D01*
X314618Y424618D01*
X313629Y425431D01*
X312499Y426034D01*
X311274Y426406D01*
X310000Y426532D01*
X308726Y426406D01*
X307501Y426034D01*
X306371Y425431D01*
X305382Y424618D01*
X305250Y424458D01*
X304750D01*
X304618Y424618D01*
X303629Y425431D01*
X302500Y426034D01*
X301274Y426406D01*
X300000Y426532D01*
X298726Y426406D01*
X297500Y426034D01*
X296371Y425431D01*
X295382Y424618D01*
X295250Y424458D01*
X294750D01*
X294618Y424618D01*
X293629Y425431D01*
X292499Y426034D01*
X291274Y426406D01*
X290000Y426532D01*
X288726Y426406D01*
X287501Y426034D01*
X286371Y425431D01*
X285382Y424618D01*
X285250Y424458D01*
X284750D01*
X284618Y424618D01*
X283629Y425431D01*
X282500Y426034D01*
X281274Y426406D01*
X280000Y426532D01*
X278726Y426406D01*
X277501Y426034D01*
X276371Y425431D01*
X275382Y424618D01*
X275250Y424458D01*
X274750D01*
X274618Y424618D01*
X273629Y425431D01*
X272499Y426034D01*
X271274Y426406D01*
X270000Y426532D01*
X268726Y426406D01*
X267500Y426034D01*
X266371Y425431D01*
X265382Y424618D01*
X265250Y424458D01*
X264750D01*
X264618Y424618D01*
X263629Y425431D01*
X262499Y426034D01*
X261274Y426406D01*
X260000Y426532D01*
X258726Y426406D01*
X257501Y426034D01*
X256371Y425431D01*
X255382Y424618D01*
X255250Y424458D01*
X254750D01*
X254618Y424618D01*
X253629Y425431D01*
X252500Y426034D01*
X251274Y426406D01*
X250000Y426532D01*
X248726Y426406D01*
X247500Y426034D01*
X246371Y425431D01*
X245382Y424618D01*
X245250Y424458D01*
X244750D01*
X244618Y424618D01*
X243629Y425431D01*
X242499Y426034D01*
X241274Y426406D01*
X240000Y426532D01*
X238726Y426406D01*
X237501Y426034D01*
X236371Y425431D01*
X235382Y424618D01*
X235250Y424458D01*
X234750D01*
X234618Y424618D01*
X233629Y425431D01*
X232500Y426034D01*
X231274Y426406D01*
X230000Y426532D01*
X228726Y426406D01*
X227501Y426034D01*
X226371Y425431D01*
X225382Y424618D01*
X225250Y424458D01*
X224750D01*
X224618Y424618D01*
X223629Y425431D01*
X222499Y426034D01*
X221274Y426406D01*
X220000Y426532D01*
X218726Y426406D01*
X217500Y426034D01*
X216371Y425431D01*
X215382Y424618D01*
X215250Y424458D01*
X214750D01*
X214618Y424618D01*
X213629Y425431D01*
X212499Y426034D01*
X211274Y426406D01*
X210000Y426532D01*
X208726Y426406D01*
X207501Y426034D01*
X206371Y425431D01*
X205382Y424618D01*
X205250Y424458D01*
X204750D01*
X204618Y424618D01*
X203629Y425431D01*
X202500Y426034D01*
X201274Y426406D01*
X200000Y426532D01*
X198726Y426406D01*
X197501Y426034D01*
X196371Y425431D01*
X195382Y424618D01*
X195250Y424458D01*
X194750D01*
X194618Y424618D01*
X193629Y425431D01*
X192499Y426034D01*
X191274Y426406D01*
X190000Y426532D01*
X188726Y426406D01*
X187501Y426034D01*
X186371Y425431D01*
X185382Y424618D01*
X185250Y424458D01*
X184750D01*
X184618Y424618D01*
X183629Y425431D01*
X182500Y426034D01*
X181274Y426406D01*
X180000Y426532D01*
X178726Y426406D01*
X177500Y426034D01*
X176371Y425431D01*
X175382Y424618D01*
X175250Y424458D01*
X174750D01*
X174618Y424618D01*
X173629Y425431D01*
X172500Y426034D01*
X171274Y426406D01*
X170000Y426532D01*
X168726Y426406D01*
X167500Y426034D01*
X166371Y425431D01*
X165382Y424618D01*
X164569Y423629D01*
X163966Y422500D01*
X163594Y421274D01*
X163469Y420000D01*
X163594Y418726D01*
X163966Y417500D01*
X164569Y416371D01*
X165382Y415382D01*
X165542Y415250D01*
Y414750D01*
X165382Y414618D01*
X164569Y413629D01*
X163966Y412500D01*
X163594Y411274D01*
X163469Y410000D01*
X163594Y408726D01*
X163966Y407501D01*
X164569Y406371D01*
X165382Y405382D01*
X165542Y405250D01*
Y404750D01*
X165382Y404618D01*
X164569Y403629D01*
X163966Y402499D01*
X163594Y401274D01*
X163469Y400000D01*
X163594Y398726D01*
X163966Y397500D01*
X164569Y396371D01*
X165382Y395382D01*
X165542Y395250D01*
Y394750D01*
X165382Y394618D01*
X164569Y393629D01*
X163966Y392499D01*
X163594Y391274D01*
X163469Y390000D01*
X163594Y388726D01*
X163966Y387501D01*
X164569Y386371D01*
X165382Y385382D01*
X165542Y385250D01*
Y384750D01*
X165382Y384618D01*
X164569Y383629D01*
X163966Y382500D01*
X163594Y381274D01*
X163469Y380000D01*
X163594Y378726D01*
X163966Y377501D01*
X164569Y376371D01*
X165382Y375382D01*
X166371Y374569D01*
X167500Y373966D01*
X168726Y373594D01*
X170000Y373469D01*
X171274Y373594D01*
X172500Y373966D01*
X173629Y374569D01*
X174618Y375382D01*
X174750Y375542D01*
X175250D01*
X175382Y375382D01*
X176371Y374569D01*
X177500Y373966D01*
X178726Y373594D01*
X180000Y373469D01*
X181274Y373594D01*
X182500Y373966D01*
X183629Y374569D01*
X184618Y375382D01*
X184750Y375542D01*
X185250D01*
X185382Y375382D01*
X186371Y374569D01*
X187501Y373966D01*
X188726Y373594D01*
X190000Y373469D01*
X191274Y373594D01*
X192499Y373966D01*
X193629Y374569D01*
X194618Y375382D01*
X194750Y375542D01*
X195250D01*
X195382Y375382D01*
X196371Y374569D01*
X197501Y373966D01*
X198726Y373594D01*
X200000Y373469D01*
X201274Y373594D01*
X202500Y373966D01*
X203629Y374569D01*
X204618Y375382D01*
X204750Y375542D01*
X205250D01*
X205382Y375382D01*
X206371Y374569D01*
X207501Y373966D01*
X208726Y373594D01*
X210000Y373469D01*
X211274Y373594D01*
X212499Y373966D01*
X213629Y374569D01*
X214618Y375382D01*
X215431Y376371D01*
X216034Y377501D01*
X216406Y378726D01*
X216531Y380000D01*
X216406Y381274D01*
X216034Y382500D01*
X215431Y383629D01*
X214618Y384618D01*
X214529Y384692D01*
X214512Y385216D01*
X214784Y385488D01*
X215308Y385471D01*
X215382Y385382D01*
X216371Y384569D01*
X217500Y383966D01*
X218726Y383594D01*
X220000Y383469D01*
X221274Y383594D01*
X222499Y383966D01*
X223629Y384569D01*
X224618Y385382D01*
X225431Y386371D01*
X226034Y387501D01*
X226406Y388726D01*
X226531Y390000D01*
X226406Y391274D01*
X226034Y392499D01*
X225431Y393629D01*
X224618Y394618D01*
X224458Y394750D01*
Y395250D01*
X224618Y395382D01*
X225431Y396371D01*
X226034Y397500D01*
X226406Y398726D01*
X226531Y400000D01*
X226406Y401274D01*
X226034Y402499D01*
X225431Y403629D01*
X224618Y404618D01*
X224529Y404692D01*
X224512Y405216D01*
X224784Y405488D01*
X225308Y405471D01*
X225382Y405382D01*
X226371Y404569D01*
X227501Y403966D01*
X228726Y403594D01*
X230000Y403469D01*
X231274Y403594D01*
X232500Y403966D01*
X233629Y404569D01*
X234618Y405382D01*
X234750Y405542D01*
X235250D01*
X235382Y405382D01*
X236371Y404569D01*
X237501Y403966D01*
X238726Y403594D01*
X240000Y403469D01*
X241274Y403594D01*
X242499Y403966D01*
X243629Y404569D01*
X244618Y405382D01*
X244750Y405542D01*
X245250D01*
X245382Y405382D01*
X246371Y404569D01*
X247500Y403966D01*
X248726Y403594D01*
X250000Y403469D01*
X251274Y403594D01*
X252500Y403966D01*
X253629Y404569D01*
X254618Y405382D01*
X254750Y405542D01*
X255250D01*
X255382Y405382D01*
X256371Y404569D01*
X257501Y403966D01*
X258726Y403594D01*
X260000Y403469D01*
X261274Y403594D01*
X262499Y403966D01*
X263629Y404569D01*
X264618Y405382D01*
X264750Y405542D01*
X265250D01*
X265382Y405382D01*
X266371Y404569D01*
X267500Y403966D01*
X268726Y403594D01*
X270000Y403469D01*
X271274Y403594D01*
X272499Y403966D01*
X273629Y404569D01*
X274618Y405382D01*
X274750Y405542D01*
X275250D01*
X275382Y405382D01*
X276371Y404569D01*
X277501Y403966D01*
X278726Y403594D01*
X280000Y403469D01*
X281274Y403594D01*
X282500Y403966D01*
X283629Y404569D01*
X284618Y405382D01*
X284750Y405542D01*
X285250D01*
X285382Y405382D01*
X286371Y404569D01*
X287501Y403966D01*
X288726Y403594D01*
X290000Y403469D01*
X291274Y403594D01*
X292499Y403966D01*
X293629Y404569D01*
X294618Y405382D01*
X294750Y405542D01*
X295250D01*
X295382Y405382D01*
X296371Y404569D01*
X297500Y403966D01*
X298726Y403594D01*
X300000Y403469D01*
X301274Y403594D01*
X302500Y403966D01*
X303629Y404569D01*
X304618Y405382D01*
X304750Y405542D01*
X305250D01*
X305382Y405382D01*
X306371Y404569D01*
X307501Y403966D01*
X308726Y403594D01*
X310000Y403469D01*
X311274Y403594D01*
X312499Y403966D01*
X313629Y404569D01*
X314618Y405382D01*
X314750Y405542D01*
X315250D01*
X315382Y405382D01*
X315542Y405250D01*
Y404750D01*
X315382Y404618D01*
X314569Y403629D01*
X313966Y402499D01*
X313594Y401274D01*
X313469Y400000D01*
X313594Y398726D01*
X313966Y397500D01*
X314569Y396371D01*
X315382Y395382D01*
X315542Y395250D01*
Y394750D01*
X315382Y394618D01*
X314569Y393629D01*
X313966Y392499D01*
X313594Y391274D01*
X313469Y390000D01*
X313594Y388726D01*
X313966Y387501D01*
X314569Y386371D01*
X315382Y385382D01*
X315542Y385250D01*
Y384750D01*
X315382Y384618D01*
X314569Y383629D01*
X313966Y382500D01*
X313594Y381274D01*
X313469Y380000D01*
X313594Y378726D01*
X313966Y377501D01*
X314569Y376371D01*
X315382Y375382D01*
X315542Y375250D01*
Y374750D01*
X315382Y374618D01*
X314569Y373629D01*
X313966Y372499D01*
X313594Y371274D01*
X313469Y370000D01*
X313594Y368726D01*
X313966Y367500D01*
X314569Y366371D01*
X315382Y365382D01*
X315542Y365250D01*
Y364750D01*
X315382Y364618D01*
X314569Y363629D01*
X313966Y362499D01*
X313594Y361274D01*
X313469Y360000D01*
X313594Y358726D01*
X313966Y357501D01*
X314569Y356371D01*
X315382Y355382D01*
X315542Y355250D01*
Y354750D01*
X315382Y354618D01*
X314569Y353629D01*
X313966Y352500D01*
X313594Y351274D01*
X313469Y350000D01*
X313594Y348726D01*
X313966Y347500D01*
X314569Y346371D01*
X315382Y345382D01*
X316371Y344569D01*
X317500Y343966D01*
X318726Y343594D01*
X320000Y343469D01*
X321274Y343594D01*
X322499Y343966D01*
X323629Y344569D01*
X324618Y345382D01*
X324750Y345542D01*
X325250D01*
X325382Y345382D01*
X325542Y345250D01*
Y344750D01*
X325382Y344618D01*
X324569Y343629D01*
X323966Y342499D01*
X323594Y341274D01*
X323469Y340000D01*
X323594Y338726D01*
X323966Y337501D01*
X324569Y336371D01*
X325382Y335382D01*
X325542Y335250D01*
Y334750D01*
X325382Y334618D01*
X324569Y333629D01*
X323966Y332500D01*
X323594Y331274D01*
X323469Y330000D01*
X323594Y328726D01*
X323966Y327501D01*
X324569Y326371D01*
X325382Y325382D01*
X325542Y325250D01*
Y324750D01*
X325382Y324618D01*
X324569Y323629D01*
X323966Y322499D01*
X323594Y321274D01*
X323469Y320000D01*
X323594Y318726D01*
X323966Y317500D01*
X324569Y316371D01*
X325382Y315382D01*
X325542Y315250D01*
Y314750D01*
X325382Y314618D01*
X324569Y313629D01*
X323966Y312499D01*
X323594Y311274D01*
X323469Y310000D01*
X323594Y308726D01*
X323966Y307501D01*
X324569Y306371D01*
X325382Y305382D01*
X325542Y305250D01*
Y304750D01*
X325382Y304618D01*
X324569Y303629D01*
X323966Y302500D01*
X323594Y301274D01*
X323469Y300000D01*
X323594Y298726D01*
X323966Y297500D01*
X324569Y296371D01*
X325382Y295382D01*
X325542Y295250D01*
Y294750D01*
X325382Y294618D01*
X325250Y294458D01*
X324750D01*
X324618Y294618D01*
X323629Y295431D01*
X322499Y296034D01*
X321274Y296406D01*
X320000Y296531D01*
X318726Y296406D01*
X317500Y296034D01*
X316371Y295431D01*
X315382Y294618D01*
X315250Y294458D01*
X314750D01*
X314618Y294618D01*
X313629Y295431D01*
X312499Y296034D01*
X311274Y296406D01*
X310000Y296531D01*
X308726Y296406D01*
X307500Y296034D01*
X306371Y295431D01*
X305381Y294618D01*
X304569Y293629D01*
X303966Y292499D01*
X303671Y291529D01*
X290080D01*
X290000Y291545D01*
X276000D01*
X275415Y291429D01*
X274919Y291097D01*
X247256Y263435D01*
X244282D01*
X243898Y263511D01*
X237992D01*
X237371Y263388D01*
X236845Y263036D01*
X236494Y262510D01*
X236370Y261890D01*
X236494Y261269D01*
X236737Y260906D01*
X236494Y260542D01*
X236370Y259921D01*
X236494Y259301D01*
X236737Y258937D01*
X236494Y258573D01*
X236370Y257953D01*
X236494Y257332D01*
X236737Y256968D01*
X236494Y256605D01*
X236370Y255984D01*
X236494Y255364D01*
X236737Y255000D01*
X236494Y254636D01*
X236370Y254016D01*
X236494Y253395D01*
X236737Y253031D01*
X236494Y252668D01*
X236370Y252047D01*
X236494Y251427D01*
X236737Y251063D01*
X236494Y250699D01*
X236440Y250430D01*
X235898Y250265D01*
X232009Y254154D01*
X231884Y254780D01*
X231442Y255442D01*
X230780Y255884D01*
X230000Y256039D01*
X229220Y255884D01*
X228558Y255442D01*
X228116Y254780D01*
X227961Y254000D01*
X228116Y253220D01*
X228558Y252558D01*
X229220Y252116D01*
X229846Y251992D01*
X234297Y247540D01*
Y242472D01*
X234205Y242008D01*
Y236102D01*
X234329Y235482D01*
X234680Y234956D01*
X235206Y234604D01*
X235260Y234594D01*
X278486Y191367D01*
Y176333D01*
X277501Y176034D01*
X276371Y175431D01*
X275382Y174618D01*
X274569Y173629D01*
X273966Y172500D01*
X273594Y171274D01*
X273469Y170000D01*
X273594Y168726D01*
X273966Y167500D01*
X274569Y166371D01*
X275382Y165382D01*
X276371Y164569D01*
X277501Y163966D01*
X278471Y163672D01*
Y161709D01*
X276146D01*
Y154591D01*
X283854D01*
Y161709D01*
X281529D01*
Y163672D01*
X282500Y163966D01*
X283629Y164569D01*
X284618Y165382D01*
X285431Y166371D01*
X286034Y167500D01*
X286406Y168726D01*
X286531Y170000D01*
X286406Y171274D01*
X286034Y172500D01*
X285431Y173629D01*
X284618Y174618D01*
X283629Y175431D01*
X282500Y176034D01*
X281545Y176324D01*
Y192000D01*
X281429Y192585D01*
X281097Y193081D01*
X237449Y236730D01*
Y242008D01*
X237419Y242156D01*
X237829Y242573D01*
X237856Y242578D01*
X237992Y242551D01*
X243286D01*
X286919Y198919D01*
X287415Y198587D01*
X288000Y198471D01*
X300000D01*
X300000Y198471D01*
X303671D01*
X303966Y197501D01*
X304569Y196371D01*
X305381Y195382D01*
X305542Y195250D01*
Y194750D01*
X305382Y194618D01*
X305250Y194458D01*
X304750D01*
X304618Y194618D01*
X303629Y195431D01*
X302500Y196034D01*
X301274Y196406D01*
X300000Y196531D01*
X298726Y196406D01*
X297500Y196034D01*
X296371Y195431D01*
X295382Y194618D01*
X294569Y193629D01*
X293966Y192499D01*
X293594Y191274D01*
X293469Y190000D01*
X293594Y188726D01*
X293966Y187501D01*
X294569Y186371D01*
X295382Y185382D01*
X295542Y185250D01*
Y184750D01*
X295382Y184618D01*
X294569Y183629D01*
X293966Y182500D01*
X293594Y181274D01*
X293469Y180000D01*
X293594Y178726D01*
X293966Y177500D01*
X294569Y176371D01*
X295382Y175382D01*
X295542Y175250D01*
Y174750D01*
X295382Y174618D01*
X294569Y173629D01*
X293966Y172500D01*
X293594Y171274D01*
X293469Y170000D01*
X293594Y168726D01*
X293966Y167500D01*
X294569Y166371D01*
X295382Y165382D01*
X296371Y164569D01*
X297500Y163966D01*
X298726Y163594D01*
X300000Y163469D01*
X301274Y163594D01*
X302500Y163966D01*
X303629Y164569D01*
X304618Y165382D01*
X304750Y165542D01*
X305250D01*
X305382Y165382D01*
X305542Y165250D01*
Y164750D01*
X305382Y164618D01*
X304569Y163629D01*
X303966Y162499D01*
X303594Y161274D01*
X303469Y160000D01*
X303594Y158726D01*
X303966Y157501D01*
X304569Y156371D01*
X305382Y155382D01*
X306371Y154569D01*
X307501Y153966D01*
X308726Y153594D01*
X310000Y153469D01*
X311274Y153594D01*
X312499Y153966D01*
X313629Y154569D01*
X314618Y155382D01*
X314750Y155542D01*
X315250D01*
X315382Y155382D01*
X315542Y155250D01*
Y154750D01*
X315382Y154618D01*
X314569Y153629D01*
X313966Y152499D01*
X313594Y151274D01*
X313469Y150000D01*
X313594Y148726D01*
X313966Y147501D01*
X314569Y146371D01*
X315382Y145382D01*
X315542Y145250D01*
Y144750D01*
X315382Y144618D01*
X314569Y143629D01*
X313966Y142499D01*
X313594Y141274D01*
X313469Y140000D01*
X313594Y138726D01*
X313966Y137501D01*
X314569Y136371D01*
X315382Y135382D01*
X316371Y134569D01*
X317500Y133966D01*
X318726Y133594D01*
X320000Y133469D01*
X321274Y133594D01*
X322499Y133966D01*
X323629Y134569D01*
X324618Y135382D01*
X324750Y135542D01*
X325250D01*
X325382Y135382D01*
X326371Y134569D01*
X327501Y133966D01*
X328726Y133594D01*
X330000Y133469D01*
X331274Y133594D01*
X332500Y133966D01*
X333629Y134569D01*
X334618Y135382D01*
X334750Y135542D01*
X335250D01*
X335382Y135382D01*
X336371Y134569D01*
X337501Y133966D01*
X338726Y133594D01*
X340000Y133469D01*
X341274Y133594D01*
X342499Y133966D01*
X343629Y134569D01*
X344618Y135382D01*
X344750Y135542D01*
X345250D01*
X345382Y135382D01*
X346371Y134569D01*
X347500Y133966D01*
X348726Y133594D01*
X350000Y133469D01*
X351274Y133594D01*
X352500Y133966D01*
X353629Y134569D01*
X354618Y135382D01*
X354750Y135542D01*
X355250D01*
X355382Y135382D01*
X356371Y134569D01*
X357501Y133966D01*
X358726Y133594D01*
X360000Y133469D01*
X361274Y133594D01*
X362499Y133966D01*
X363629Y134569D01*
X364618Y135382D01*
X364750Y135542D01*
X365250D01*
X365382Y135382D01*
X366371Y134569D01*
X367500Y133966D01*
X368726Y133594D01*
X370000Y133469D01*
X371274Y133594D01*
X372499Y133966D01*
X373629Y134569D01*
X374618Y135382D01*
X374750Y135542D01*
X375250D01*
X375382Y135382D01*
X376371Y134569D01*
X377501Y133966D01*
X378726Y133594D01*
X380000Y133469D01*
X381274Y133594D01*
X382500Y133966D01*
X383629Y134569D01*
X384618Y135382D01*
X384750Y135542D01*
X385250D01*
X385382Y135382D01*
X386371Y134569D01*
X387501Y133966D01*
X388726Y133594D01*
X390000Y133469D01*
X391274Y133594D01*
X392499Y133966D01*
X393629Y134569D01*
X394618Y135382D01*
X394750Y135542D01*
X395250D01*
X395382Y135382D01*
X396371Y134569D01*
X397500Y133966D01*
X398726Y133594D01*
X400000Y133469D01*
X401274Y133594D01*
X402499Y133966D01*
X403629Y134569D01*
X404618Y135382D01*
X404750Y135542D01*
X405250D01*
X405382Y135382D01*
X406371Y134569D01*
X407501Y133966D01*
X408726Y133594D01*
X410000Y133469D01*
X411274Y133594D01*
X412500Y133966D01*
X413629Y134569D01*
X414618Y135382D01*
X414750Y135542D01*
X415250D01*
X415382Y135382D01*
X416371Y134569D01*
X417500Y133966D01*
X418726Y133594D01*
X420000Y133469D01*
X421274Y133594D01*
X422500Y133966D01*
X423629Y134569D01*
X424618Y135382D01*
X425431Y136371D01*
X426034Y137501D01*
X426406Y138726D01*
X426532Y140000D01*
X426406Y141274D01*
X426034Y142499D01*
X425431Y143629D01*
X424618Y144618D01*
X424458Y144750D01*
Y145250D01*
X424618Y145382D01*
X425431Y146371D01*
X426034Y147501D01*
X426406Y148726D01*
X426532Y150000D01*
X426406Y151274D01*
X426034Y152499D01*
X425431Y153629D01*
X424618Y154618D01*
X424458Y154750D01*
Y155250D01*
X424618Y155382D01*
X425431Y156371D01*
X426034Y157501D01*
X426406Y158726D01*
X426532Y160000D01*
X426406Y161274D01*
X426034Y162499D01*
X425431Y163629D01*
X424618Y164618D01*
X424458Y164750D01*
Y165250D01*
X424618Y165382D01*
X425431Y166371D01*
X426034Y167500D01*
X426406Y168726D01*
X426532Y170000D01*
X426406Y171274D01*
X426034Y172500D01*
X425431Y173629D01*
X424618Y174618D01*
X424458Y174750D01*
Y175250D01*
X424618Y175382D01*
X425431Y176371D01*
X426034Y177500D01*
X426406Y178726D01*
X426532Y180000D01*
X426406Y181274D01*
X426034Y182500D01*
X425431Y183629D01*
X424618Y184618D01*
X424458Y184750D01*
Y185250D01*
X424618Y185382D01*
X425431Y186371D01*
X426034Y187501D01*
X426406Y188726D01*
X426532Y190000D01*
X426406Y191274D01*
X426034Y192499D01*
X425431Y193629D01*
X424618Y194618D01*
X424458Y194750D01*
Y195250D01*
X424618Y195382D01*
X425431Y196371D01*
X426034Y197501D01*
X426406Y198726D01*
X426532Y200000D01*
X426406Y201274D01*
X426034Y202500D01*
X425431Y203629D01*
X424618Y204618D01*
X424458Y204750D01*
Y205250D01*
X424618Y205382D01*
X425431Y206371D01*
X426034Y207501D01*
X426406Y208726D01*
X426532Y210000D01*
X426406Y211274D01*
X426034Y212499D01*
X425431Y213629D01*
X424618Y214618D01*
X424458Y214750D01*
Y215250D01*
X424618Y215382D01*
X425431Y216371D01*
X426034Y217500D01*
X426406Y218726D01*
X426532Y220000D01*
X426406Y221274D01*
X426034Y222499D01*
X425431Y223629D01*
X424618Y224618D01*
X424458Y224750D01*
Y225250D01*
X424618Y225382D01*
X425431Y226371D01*
X426034Y227501D01*
X426406Y228726D01*
X426532Y230000D01*
X426406Y231274D01*
X426034Y232500D01*
X425431Y233629D01*
X424618Y234618D01*
X424458Y234750D01*
Y235250D01*
X424618Y235382D01*
X425431Y236371D01*
X426034Y237501D01*
X426406Y238726D01*
X426532Y240000D01*
X426406Y241274D01*
X426034Y242499D01*
X425431Y243629D01*
X424618Y244618D01*
X424458Y244750D01*
Y245250D01*
X424618Y245382D01*
X425431Y246371D01*
X426034Y247500D01*
X426406Y248726D01*
X426532Y250000D01*
X426406Y251274D01*
X426034Y252500D01*
X425431Y253629D01*
X424618Y254618D01*
X424458Y254750D01*
Y255250D01*
X424618Y255382D01*
X425431Y256371D01*
X426034Y257501D01*
X426406Y258726D01*
X426532Y260000D01*
X426406Y261274D01*
X426034Y262499D01*
X425431Y263629D01*
X424618Y264618D01*
X424458Y264750D01*
Y265250D01*
X424618Y265382D01*
X425431Y266371D01*
X426034Y267500D01*
X426406Y268726D01*
X426532Y270000D01*
X426406Y271274D01*
X426034Y272499D01*
X425431Y273629D01*
X424618Y274618D01*
X424458Y274750D01*
Y275250D01*
X424618Y275382D01*
X425431Y276371D01*
X426034Y277501D01*
X426406Y278726D01*
X426532Y280000D01*
X426406Y281274D01*
X426034Y282500D01*
X425431Y283629D01*
X424618Y284618D01*
X424458Y284750D01*
Y285250D01*
X424618Y285382D01*
X425431Y286371D01*
X426034Y287501D01*
X426406Y288726D01*
X426532Y290000D01*
X426406Y291274D01*
X426034Y292499D01*
X425431Y293629D01*
X424618Y294618D01*
X424458Y294750D01*
Y295250D01*
X424618Y295382D01*
X425431Y296371D01*
X426034Y297500D01*
X426406Y298726D01*
X426532Y300000D01*
X426406Y301274D01*
X426034Y302500D01*
X425431Y303629D01*
X424618Y304618D01*
X424458Y304750D01*
Y305250D01*
X424618Y305382D01*
X425431Y306371D01*
X426034Y307501D01*
X426406Y308726D01*
X426532Y310000D01*
X426406Y311274D01*
X426034Y312499D01*
X425431Y313629D01*
X424618Y314618D01*
X424458Y314750D01*
Y315250D01*
X424618Y315382D01*
X425431Y316371D01*
X426034Y317500D01*
X426406Y318726D01*
X426532Y320000D01*
X426406Y321274D01*
X426034Y322499D01*
X425431Y323629D01*
X424618Y324618D01*
X424458Y324750D01*
Y325250D01*
X424618Y325382D01*
X425431Y326371D01*
X426034Y327501D01*
X426406Y328726D01*
X426532Y330000D01*
X426406Y331274D01*
X426034Y332500D01*
X425431Y333629D01*
X424618Y334618D01*
X424458Y334750D01*
Y335250D01*
X424618Y335382D01*
X425431Y336371D01*
X426034Y337501D01*
X426406Y338726D01*
X426532Y340000D01*
X426406Y341274D01*
X426034Y342499D01*
X425431Y343629D01*
X424618Y344618D01*
X424458Y344750D01*
Y345250D01*
X424618Y345382D01*
X425431Y346371D01*
X426034Y347500D01*
X426406Y348726D01*
X426532Y350000D01*
X426406Y351274D01*
X426034Y352500D01*
X425431Y353629D01*
X424618Y354618D01*
X424458Y354750D01*
Y355250D01*
X424618Y355382D01*
X425431Y356371D01*
X426034Y357501D01*
X426406Y358726D01*
X426532Y360000D01*
X426406Y361274D01*
X426034Y362499D01*
X425431Y363629D01*
X424618Y364618D01*
X424458Y364750D01*
Y365250D01*
X424618Y365382D01*
X425431Y366371D01*
X426034Y367500D01*
X426406Y368726D01*
X426532Y370000D01*
X426406Y371274D01*
X426034Y372499D01*
X425431Y373629D01*
X424618Y374618D01*
X424458Y374750D01*
Y375250D01*
X424618Y375382D01*
X425431Y376371D01*
X426034Y377501D01*
X426406Y378726D01*
X426532Y380000D01*
X426406Y381274D01*
X426034Y382500D01*
X425431Y383629D01*
X424618Y384618D01*
X424458Y384750D01*
Y385250D01*
X424618Y385382D01*
X425431Y386371D01*
X426034Y387501D01*
X426406Y388726D01*
X426532Y390000D01*
X426406Y391274D01*
X426034Y392499D01*
X425431Y393629D01*
X424618Y394618D01*
X423629Y395431D01*
X422500Y396034D01*
X421274Y396406D01*
X420000Y396531D01*
X418726Y396406D01*
X418127Y396224D01*
X417921Y396684D01*
X419134Y397428D01*
X420989Y399011D01*
X422572Y400866D01*
X423846Y402945D01*
X424779Y405198D01*
X425349Y407569D01*
X425540Y410000D01*
X425349Y412431D01*
X424779Y414802D01*
X423846Y417055D01*
X422572Y419134D01*
X420989Y420989D01*
X419134Y422572D01*
X417055Y423846D01*
X414802Y424779D01*
X412431Y425349D01*
X410000Y425540D01*
X407569Y425349D01*
X405198Y424779D01*
X402945Y423846D01*
X400866Y422572D01*
X399011Y420989D01*
X397428Y419134D01*
X396684Y417921D01*
X396224Y418127D01*
X396406Y418726D01*
X396531Y420000D01*
X396406Y421274D01*
X396034Y422500D01*
X395431Y423629D01*
X394618Y424618D01*
X393629Y425431D01*
X392499Y426034D01*
X391274Y426406D01*
X390000Y426532D01*
D02*
G37*
%LPD*%
G36*
X248486Y209366D02*
Y190063D01*
X248471Y189984D01*
Y176329D01*
X247501Y176034D01*
X246372Y175431D01*
X245382Y174618D01*
X245250Y174458D01*
X244750D01*
X244618Y174618D01*
X243629Y175431D01*
X242499Y176034D01*
X241545Y176324D01*
Y215601D01*
X242045Y215808D01*
X248486Y209366D01*
D02*
G37*
G36*
X135382Y155382D02*
X136371Y154569D01*
X137501Y153966D01*
X138471Y153672D01*
Y130000D01*
X138587Y129415D01*
X138919Y128919D01*
X140971Y126866D01*
Y115944D01*
X140842Y115858D01*
X140333Y115097D01*
X140255Y114702D01*
X139745D01*
X139667Y115097D01*
X139158Y115858D01*
X139029Y115944D01*
Y123500D01*
X138913Y124085D01*
X138581Y124581D01*
X131529Y131633D01*
Y153672D01*
X132500Y153966D01*
X133629Y154569D01*
X134618Y155382D01*
X134750Y155542D01*
X135250D01*
X135382Y155382D01*
D02*
G37*
G36*
X125382D02*
X126371Y154569D01*
X127500Y153966D01*
X128471Y153672D01*
Y131000D01*
X128587Y130415D01*
X128919Y129919D01*
X135971Y122866D01*
Y115944D01*
X135842Y115858D01*
X135333Y115097D01*
X135255Y114702D01*
X134745D01*
X134667Y115097D01*
X134158Y115858D01*
X134029Y115944D01*
Y121500D01*
X133913Y122085D01*
X133581Y122581D01*
X121529Y134634D01*
Y153672D01*
X122500Y153966D01*
X123629Y154569D01*
X124618Y155382D01*
X124750Y155542D01*
X125250D01*
X125382Y155382D01*
D02*
G37*
G36*
X225258Y224595D02*
X228486Y221367D01*
Y176333D01*
X227501Y176034D01*
X226371Y175431D01*
X225382Y174618D01*
X225250Y174458D01*
X224750D01*
X224618Y174618D01*
X223628Y175431D01*
X222499Y176034D01*
X221529Y176329D01*
Y221367D01*
X224758Y224595D01*
X225258D01*
D02*
G37*
G36*
X258487Y203366D02*
Y176329D01*
X257516Y176034D01*
X256387Y175431D01*
X255397Y174618D01*
X255258Y174449D01*
X254758D01*
X254619Y174618D01*
X253629Y175431D01*
X252500Y176034D01*
X251530Y176329D01*
Y189921D01*
X251545Y190000D01*
Y209601D01*
X252045Y209808D01*
X258487Y203366D01*
D02*
G37*
G36*
X155382Y155382D02*
X156371Y154569D01*
X157501Y153966D01*
X158471Y153672D01*
Y128633D01*
X151419Y121581D01*
X151087Y121085D01*
X150971Y120500D01*
Y115944D01*
X150842Y115858D01*
X150333Y115097D01*
X150255Y114702D01*
X149745D01*
X149667Y115097D01*
X149158Y115858D01*
X149029Y115944D01*
Y126866D01*
X151081Y128919D01*
X151413Y129415D01*
X151432Y129512D01*
X151529Y130000D01*
Y153672D01*
X152499Y153966D01*
X153629Y154569D01*
X154618Y155382D01*
X154750Y155542D01*
X155250D01*
X155382Y155382D01*
D02*
G37*
G36*
X145382D02*
X146371Y154569D01*
X147501Y153966D01*
X148471Y153672D01*
Y130633D01*
X146419Y128581D01*
X146087Y128085D01*
X145971Y127500D01*
Y115944D01*
X145842Y115858D01*
X145333Y115097D01*
X145255Y114702D01*
X144745D01*
X144667Y115097D01*
X144158Y115858D01*
X144029Y115944D01*
Y127500D01*
X143932Y127988D01*
X143913Y128085D01*
X143581Y128581D01*
X141529Y130633D01*
Y153672D01*
X142499Y153966D01*
X143629Y154569D01*
X144618Y155382D01*
X144750Y155542D01*
X145250D01*
X145382Y155382D01*
D02*
G37*
G36*
X145333Y84903D02*
X145842Y84142D01*
X145971Y84056D01*
Y80500D01*
X146087Y79915D01*
X146419Y79419D01*
X148471Y77367D01*
Y66329D01*
X147501Y66034D01*
X146371Y65431D01*
X145382Y64618D01*
X145250Y64458D01*
X144750D01*
X144618Y64618D01*
X143629Y65431D01*
X142499Y66034D01*
X141529Y66329D01*
Y76367D01*
X143581Y78419D01*
X143913Y78915D01*
X143932Y79012D01*
X144029Y79500D01*
Y84056D01*
X144158Y84142D01*
X144667Y84903D01*
X144745Y85298D01*
X145255D01*
X145333Y84903D01*
D02*
G37*
G36*
X140333D02*
X140842Y84142D01*
X140971Y84056D01*
Y80133D01*
X138919Y78081D01*
X138587Y77585D01*
X138471Y77000D01*
Y66329D01*
X137501Y66034D01*
X136371Y65431D01*
X135382Y64618D01*
X135250Y64458D01*
X134750D01*
X134618Y64618D01*
X133629Y65431D01*
X132500Y66034D01*
X131529Y66329D01*
Y75366D01*
X138581Y82419D01*
X138913Y82915D01*
X139029Y83500D01*
Y84056D01*
X139158Y84142D01*
X139667Y84903D01*
X139745Y85298D01*
X140255D01*
X140333Y84903D01*
D02*
G37*
G36*
X128852Y76982D02*
X128587Y76585D01*
X128471Y76000D01*
Y66329D01*
X127500Y66034D01*
X126371Y65431D01*
X125382Y64618D01*
X125250Y64458D01*
X124750D01*
X124618Y64618D01*
X123629Y65431D01*
X122500Y66034D01*
X121529Y66329D01*
Y70367D01*
X128464Y77301D01*
X128852Y76982D01*
D02*
G37*
G36*
X155333Y84903D02*
X155842Y84142D01*
X155971Y84056D01*
Y83500D01*
X156087Y82915D01*
X156419Y82419D01*
X168471Y70367D01*
Y66329D01*
X167500Y66034D01*
X166371Y65431D01*
X165382Y64618D01*
X165250Y64458D01*
X164750D01*
X164618Y64618D01*
X163629Y65431D01*
X162499Y66034D01*
X161529Y66329D01*
Y73000D01*
X161413Y73585D01*
X161081Y74081D01*
X154029Y81134D01*
Y84056D01*
X154158Y84142D01*
X154667Y84903D01*
X154745Y85298D01*
X155255D01*
X155333Y84903D01*
D02*
G37*
G36*
X284399Y71536D02*
X284080Y71148D01*
X283683Y71413D01*
X283098Y71529D01*
X266329D01*
X266034Y72500D01*
X265431Y73629D01*
X264618Y74618D01*
X264458Y74750D01*
Y75250D01*
X264618Y75382D01*
X265431Y76371D01*
X266034Y77500D01*
X266329Y78471D01*
X277465D01*
X284399Y71536D01*
D02*
G37*
G36*
X158471Y72366D02*
Y66329D01*
X157501Y66034D01*
X156371Y65431D01*
X155382Y64618D01*
X155250Y64458D01*
X154750D01*
X154618Y64618D01*
X153629Y65431D01*
X152499Y66034D01*
X151529Y66329D01*
Y78000D01*
X151432Y78488D01*
X151413Y78585D01*
X151148Y78982D01*
X151536Y79301D01*
X158471Y72366D01*
D02*
G37*
G36*
X120155Y85800D02*
X120333Y84903D01*
X120842Y84142D01*
X121603Y83634D01*
X122500Y83455D01*
X123397Y83634D01*
X124158Y84142D01*
X124667Y84903D01*
X124745Y85298D01*
X125255D01*
X125333Y84903D01*
X125842Y84142D01*
X125971Y84056D01*
Y83134D01*
X124366Y81529D01*
X114000D01*
X113512Y81432D01*
X113415Y81413D01*
X112919Y81081D01*
X108919Y77081D01*
X108587Y76585D01*
X108471Y76000D01*
Y66329D01*
X107501Y66034D01*
X106371Y65431D01*
X105382Y64618D01*
X104569Y63629D01*
X103966Y62499D01*
X103594Y61274D01*
X103469Y60000D01*
X103594Y58726D01*
X103966Y57500D01*
X104569Y56371D01*
X105382Y55382D01*
X105542Y55250D01*
Y54750D01*
X105382Y54618D01*
X104569Y53629D01*
X103966Y52500D01*
X103672Y51529D01*
X96329D01*
X96034Y52500D01*
X95431Y53629D01*
X94618Y54618D01*
X93629Y55431D01*
X92529Y56018D01*
Y76367D01*
X103633Y87471D01*
X120155D01*
Y85800D01*
D02*
G37*
G36*
X165382Y155382D02*
X166371Y154569D01*
X167500Y153966D01*
X168471Y153672D01*
Y119633D01*
X161366Y112529D01*
X159845D01*
Y114200D01*
X159667Y115097D01*
X159158Y115858D01*
X158397Y116367D01*
X157500Y116545D01*
X156603Y116367D01*
X155842Y115858D01*
X155333Y115097D01*
X155255Y114702D01*
X154745D01*
X154667Y115097D01*
X154158Y115858D01*
X154029Y115944D01*
Y119867D01*
X161081Y126919D01*
X161413Y127415D01*
X161529Y128000D01*
Y153672D01*
X162499Y153966D01*
X163629Y154569D01*
X164618Y155382D01*
X164750Y155542D01*
X165250D01*
X165382Y155382D01*
D02*
G37*
G36*
X115382D02*
X116371Y154569D01*
X117500Y153966D01*
X118471Y153672D01*
Y134000D01*
X118587Y133415D01*
X118919Y132919D01*
X130971Y120867D01*
Y115944D01*
X130842Y115858D01*
X130333Y115097D01*
X130255Y114702D01*
X129745D01*
X129667Y115097D01*
X129158Y115858D01*
X129029Y115944D01*
Y119500D01*
X128913Y120085D01*
X128581Y120581D01*
X111529Y137634D01*
Y153672D01*
X112499Y153966D01*
X113629Y154569D01*
X114618Y155382D01*
X114750Y155542D01*
X115250D01*
X115382Y155382D01*
D02*
G37*
G36*
X124808Y77971D02*
X118919Y72081D01*
X118587Y71585D01*
X118471Y71000D01*
Y66329D01*
X117500Y66034D01*
X116371Y65431D01*
X115382Y64618D01*
X115250Y64458D01*
X114750D01*
X114618Y64618D01*
X113629Y65431D01*
X112499Y66034D01*
X111529Y66329D01*
Y75366D01*
X114634Y78471D01*
X124601D01*
X124808Y77971D01*
D02*
G37*
G36*
X369577Y113858D02*
Y63125D01*
X367981Y61529D01*
X366329D01*
X366034Y62499D01*
X365431Y63629D01*
X364618Y64618D01*
X364458Y64750D01*
Y65250D01*
X364618Y65382D01*
X365431Y66371D01*
X366034Y67501D01*
X366406Y68726D01*
X366531Y70000D01*
X366406Y71274D01*
X366034Y72500D01*
X365431Y73629D01*
X364618Y74618D01*
X364458Y74750D01*
Y75250D01*
X364618Y75382D01*
X365431Y76371D01*
X366034Y77500D01*
X366406Y78726D01*
X366531Y80000D01*
X366406Y81274D01*
X366034Y82499D01*
X365431Y83629D01*
X364618Y84618D01*
X364458Y84750D01*
Y85250D01*
X364618Y85382D01*
X365431Y86371D01*
X366034Y87501D01*
X366406Y88726D01*
X366531Y90000D01*
X366406Y91274D01*
X366034Y92500D01*
X365431Y93629D01*
X364618Y94618D01*
X364458Y94750D01*
Y95250D01*
X364618Y95382D01*
X365431Y96371D01*
X366034Y97500D01*
X366406Y98726D01*
X366531Y100000D01*
X366406Y101274D01*
X366034Y102499D01*
X365431Y103629D01*
X364618Y104618D01*
X364458Y104750D01*
Y105250D01*
X364618Y105382D01*
X365431Y106371D01*
X366034Y107501D01*
X366406Y108726D01*
X366531Y110000D01*
X366406Y111274D01*
X366034Y112499D01*
X365431Y113629D01*
X364618Y114618D01*
X363629Y115431D01*
X362499Y116034D01*
X361274Y116406D01*
X360000Y116531D01*
X358726Y116406D01*
X357501Y116034D01*
X357239Y116461D01*
X360740Y119962D01*
X363473D01*
X369577Y113858D01*
D02*
G37*
G36*
X289399Y61536D02*
X289080Y61148D01*
X288683Y61413D01*
X288098Y61529D01*
X266329D01*
X266034Y62499D01*
X265431Y63629D01*
X264618Y64618D01*
X264458Y64750D01*
Y65250D01*
X264618Y65382D01*
X265431Y66371D01*
X266034Y67501D01*
X266329Y68471D01*
X282465D01*
X289399Y61536D01*
D02*
G37*
G36*
X178471Y197601D02*
Y176329D01*
X177500Y176034D01*
X176371Y175431D01*
X175382Y174618D01*
X175250Y174458D01*
X174750D01*
X174618Y174618D01*
X173629Y175431D01*
X172500Y176034D01*
X171529Y176329D01*
Y191367D01*
X177971Y197808D01*
X178471Y197601D01*
D02*
G37*
G36*
X215382Y335382D02*
X216371Y334569D01*
X217500Y333966D01*
X218455Y333676D01*
Y288399D01*
X217955Y288192D01*
X211513Y294634D01*
Y333667D01*
X212499Y333966D01*
X213629Y334569D01*
X214618Y335382D01*
X214750Y335542D01*
X215250D01*
X215382Y335382D01*
D02*
G37*
G36*
X225382Y335382D02*
X226371Y334569D01*
X227501Y333966D01*
X228471Y333671D01*
Y288633D01*
X224992Y285155D01*
X221514Y288633D01*
Y333667D01*
X222499Y333966D01*
X223629Y334569D01*
X224618Y335382D01*
X224750Y335542D01*
X225250D01*
X225382Y335382D01*
D02*
G37*
G36*
X173808Y292029D02*
X173601Y291529D01*
X146328D01*
X146034Y292499D01*
X145431Y293629D01*
X144618Y294618D01*
X144458Y294750D01*
Y295250D01*
X144618Y295382D01*
X145431Y296371D01*
X146034Y297500D01*
X146328Y298471D01*
X167367D01*
X173808Y292029D01*
D02*
G37*
G36*
X235382Y335382D02*
X236371Y334569D01*
X237501Y333966D01*
X238471Y333672D01*
Y294634D01*
X232029Y288192D01*
X231529Y288399D01*
Y333671D01*
X232500Y333966D01*
X233629Y334569D01*
X234618Y335382D01*
X234750Y335542D01*
X235250D01*
X235382Y335382D01*
D02*
G37*
G36*
X290016Y288471D02*
X303671D01*
X303966Y287501D01*
X304569Y286371D01*
X305381Y285382D01*
X305542Y285250D01*
Y284750D01*
X305382Y284618D01*
X304569Y283629D01*
X303966Y282500D01*
X303672Y281529D01*
X290080D01*
X290000Y281545D01*
X270399D01*
X270192Y282045D01*
X276634Y288487D01*
X289936D01*
X290016Y288471D01*
D02*
G37*
G36*
X185808Y272029D02*
X185601Y271529D01*
X146328D01*
X146034Y272499D01*
X145431Y273629D01*
X144618Y274618D01*
X144458Y274750D01*
Y275250D01*
X144618Y275382D01*
X145431Y276371D01*
X146034Y277501D01*
X146328Y278471D01*
X179367D01*
X185808Y272029D01*
D02*
G37*
G36*
X132919Y288919D02*
X133415Y288587D01*
X133650Y288540D01*
X133966Y287501D01*
X134569Y286371D01*
X135381Y285382D01*
X135542Y285250D01*
Y284750D01*
X135382Y284618D01*
X134798Y283907D01*
X134152Y283845D01*
X124025Y293973D01*
X124366Y294797D01*
X124503Y295835D01*
X124383Y296747D01*
X124749Y296986D01*
X124828Y297009D01*
X132919Y288919D01*
D02*
G37*
G36*
X179808Y282029D02*
X179601Y281529D01*
X146328D01*
X146034Y282500D01*
X145431Y283629D01*
X144618Y284618D01*
X144458Y284750D01*
Y285250D01*
X144618Y285382D01*
X145431Y286371D01*
X146034Y287501D01*
X146328Y288471D01*
X173366D01*
X179808Y282029D01*
D02*
G37*
G36*
X205382Y335382D02*
X206371Y334569D01*
X207501Y333966D01*
X208455Y333676D01*
Y294399D01*
X207955Y294192D01*
X201514Y300634D01*
Y333667D01*
X202500Y333966D01*
X203629Y334569D01*
X204618Y335382D01*
X204750Y335542D01*
X205250D01*
X205382Y335382D01*
D02*
G37*
G36*
X275382Y335382D02*
X276371Y334569D01*
X277501Y333966D01*
X278471Y333671D01*
Y318634D01*
X272029Y312192D01*
X271529Y312399D01*
Y333671D01*
X272499Y333966D01*
X273629Y334569D01*
X274618Y335382D01*
X274750Y335542D01*
X275250D01*
X275382Y335382D01*
D02*
G37*
G36*
X265382D02*
X266371Y334569D01*
X267500Y333966D01*
X268471Y333671D01*
Y312633D01*
X262029Y306192D01*
X261529Y306399D01*
Y333672D01*
X262499Y333966D01*
X263629Y334569D01*
X264618Y335382D01*
X264750Y335542D01*
X265250D01*
X265382Y335382D01*
D02*
G37*
G36*
X82291Y391146D02*
X94235D01*
X98219Y387162D01*
Y385743D01*
X96198D01*
X95340Y385572D01*
X94612Y385086D01*
X94126Y384358D01*
X93955Y383500D01*
X94100Y382770D01*
X93668Y382494D01*
X91176Y384987D01*
X90740Y385278D01*
Y387858D01*
X81260D01*
Y386455D01*
X74150D01*
X72549Y388056D01*
Y391604D01*
X72835Y391853D01*
X73416Y391771D01*
X73558Y391558D01*
X74220Y391116D01*
X75000Y390961D01*
X75780Y391116D01*
X76442Y391558D01*
X76884Y392220D01*
X77008Y392846D01*
X77634Y393471D01*
X82291D01*
Y391146D01*
D02*
G37*
G36*
X273494Y375118D02*
X273471Y375000D01*
Y364633D01*
X268919Y360081D01*
X268587Y359585D01*
X268471Y359000D01*
Y346328D01*
X267500Y346034D01*
X266371Y345431D01*
X265382Y344618D01*
X265250Y344458D01*
X264750D01*
X264618Y344619D01*
X263629Y345431D01*
X262499Y346034D01*
X261529Y346329D01*
Y359366D01*
X266081Y363919D01*
X266413Y364415D01*
X266529Y365000D01*
Y374366D01*
X267320Y375157D01*
X268564Y374642D01*
X270000Y374452D01*
X271436Y374642D01*
X272774Y375196D01*
X273041Y375400D01*
X273494Y375118D01*
D02*
G37*
G36*
X195382Y335382D02*
X196371Y334569D01*
X197501Y333966D01*
X198455Y333676D01*
Y300399D01*
X197955Y300192D01*
X191514Y306633D01*
Y333667D01*
X192499Y333966D01*
X193629Y334569D01*
X194618Y335382D01*
X194750Y335542D01*
X195250D01*
X195382Y335382D01*
D02*
G37*
G36*
X245382Y335382D02*
X246371Y334569D01*
X247501Y333966D01*
X248471Y333671D01*
Y300634D01*
X242029Y294192D01*
X241529Y294399D01*
Y333671D01*
X242499Y333966D01*
X243629Y334569D01*
X244618Y335382D01*
X244750Y335542D01*
X245250D01*
X245382Y335382D01*
D02*
G37*
G36*
X167808Y302029D02*
X167601Y301529D01*
X146328D01*
X146034Y302500D01*
X145431Y303629D01*
X144618Y304618D01*
X144458Y304750D01*
Y305250D01*
X144618Y305382D01*
X145431Y306371D01*
X146034Y307501D01*
X146328Y308471D01*
X161366D01*
X167808Y302029D01*
D02*
G37*
G36*
X255382Y335382D02*
X256371Y334569D01*
X257501Y333966D01*
X258471Y333671D01*
Y306633D01*
X252029Y300192D01*
X251529Y300399D01*
Y333671D01*
X252500Y333966D01*
X253629Y334569D01*
X254619Y335382D01*
X254750Y335542D01*
X255250D01*
X255382Y335382D01*
D02*
G37*
G36*
X290016Y278471D02*
X303672D01*
X303966Y277501D01*
X304569Y276371D01*
X305382Y275382D01*
X305542Y275250D01*
Y274750D01*
X305382Y274618D01*
X304569Y273629D01*
X303966Y272499D01*
X303672Y271529D01*
X290080D01*
X290000Y271545D01*
X264399D01*
X264192Y272045D01*
X270634Y278486D01*
X289936D01*
X290016Y278471D01*
D02*
G37*
G36*
X303966Y207501D02*
X304569Y206371D01*
X305382Y205382D01*
X305542Y205250D01*
Y204750D01*
X305381Y204618D01*
X304569Y203629D01*
X303966Y202500D01*
X303671Y201529D01*
X300000D01*
X300000Y201529D01*
X288633D01*
X282192Y207971D01*
X282399Y208471D01*
X303672D01*
X303966Y207501D01*
D02*
G37*
G36*
X218471Y221601D02*
Y176329D01*
X217500Y176034D01*
X216371Y175431D01*
X215381Y174618D01*
X215250Y174458D01*
X214750D01*
X214618Y174618D01*
X213629Y175431D01*
X212499Y176034D01*
X211529Y176329D01*
Y215367D01*
X217971Y221808D01*
X218471Y221601D01*
D02*
G37*
G36*
X173808Y217955D02*
X167367Y211513D01*
X146333D01*
X146034Y212499D01*
X145431Y213629D01*
X144618Y214618D01*
X144458Y214750D01*
Y215250D01*
X144618Y215382D01*
X145431Y216371D01*
X146034Y217500D01*
X146324Y218455D01*
X173601D01*
X173808Y217955D01*
D02*
G37*
G36*
X167808Y207955D02*
X161382Y201529D01*
X146328D01*
X146034Y202500D01*
X145431Y203629D01*
X144618Y204618D01*
X144458Y204750D01*
Y205250D01*
X144618Y205382D01*
X145431Y206371D01*
X146034Y207501D01*
X146324Y208455D01*
X167601D01*
X167808Y207955D01*
D02*
G37*
G36*
X198471Y209601D02*
Y176329D01*
X197501Y176034D01*
X196371Y175431D01*
X195382Y174618D01*
X195250Y174458D01*
X194750D01*
X194618Y174618D01*
X193629Y175431D01*
X192499Y176034D01*
X191529Y176329D01*
Y203366D01*
X197971Y209808D01*
X198471Y209601D01*
D02*
G37*
G36*
X188471Y203601D02*
Y176329D01*
X187501Y176034D01*
X186371Y175431D01*
X185382Y174618D01*
X185250Y174458D01*
X184750D01*
X184618Y174618D01*
X183629Y175431D01*
X182500Y176034D01*
X181529Y176329D01*
Y197366D01*
X187971Y203808D01*
X188471Y203601D01*
D02*
G37*
G36*
X238487Y215367D02*
Y176333D01*
X237501Y176034D01*
X236371Y175431D01*
X235382Y174618D01*
X235250Y174458D01*
X234750D01*
X234618Y174618D01*
X233629Y175431D01*
X232500Y176034D01*
X231545Y176324D01*
Y221601D01*
X232045Y221808D01*
X238487Y215367D01*
D02*
G37*
G36*
X208471Y215601D02*
Y176329D01*
X207501Y176034D01*
X206371Y175431D01*
X205382Y174618D01*
X205250Y174458D01*
X204750D01*
X204618Y174618D01*
X203629Y175431D01*
X202500Y176034D01*
X201529Y176329D01*
Y209366D01*
X207971Y215808D01*
X208471Y215601D01*
D02*
G37*
G36*
X290000Y218471D02*
X303672D01*
X303966Y217500D01*
X304569Y216371D01*
X305382Y215382D01*
X305542Y215250D01*
Y214750D01*
X305382Y214618D01*
X304569Y213629D01*
X303966Y212499D01*
X303672Y211529D01*
X282633D01*
X276192Y217971D01*
X276399Y218471D01*
X290000D01*
X290000Y218471D01*
D02*
G37*
G36*
X290016Y258471D02*
X303671D01*
X303966Y257501D01*
X304569Y256371D01*
X305381Y255382D01*
X305542Y255250D01*
Y254750D01*
X305382Y254618D01*
X304569Y253629D01*
X303966Y252500D01*
X303672Y251529D01*
X258633D01*
X255405Y254758D01*
Y255258D01*
X258633Y258487D01*
X289936D01*
X290016Y258471D01*
D02*
G37*
G36*
X194845Y254992D02*
X191367Y251514D01*
X188335D01*
X187780Y251884D01*
X187000Y252039D01*
X186220Y251884D01*
X185689Y251529D01*
X146328D01*
X146034Y252500D01*
X145431Y253629D01*
X144618Y254618D01*
X144458Y254750D01*
Y255250D01*
X144618Y255382D01*
X145431Y256371D01*
X146034Y257501D01*
X146328Y258471D01*
X191367D01*
X194845Y254992D01*
D02*
G37*
G36*
X191808Y262029D02*
X191601Y261529D01*
X146328D01*
X146034Y262499D01*
X145431Y263629D01*
X144618Y264618D01*
X144458Y264750D01*
Y265250D01*
X144618Y265382D01*
X145431Y266371D01*
X146034Y267500D01*
X146328Y268471D01*
X185366D01*
X191808Y262029D01*
D02*
G37*
G36*
X290016Y268471D02*
X303672D01*
X303966Y267500D01*
X304569Y266371D01*
X305382Y265382D01*
X305542Y265250D01*
Y264750D01*
X305381Y264618D01*
X304569Y263629D01*
X303966Y262499D01*
X303671Y261529D01*
X290080D01*
X290000Y261545D01*
X258399D01*
X258192Y262045D01*
X264633Y268486D01*
X289936D01*
X290016Y268471D01*
D02*
G37*
G36*
X303966Y227501D02*
X304569Y226371D01*
X305382Y225382D01*
X305542Y225250D01*
Y224750D01*
X305382Y224618D01*
X304569Y223629D01*
X303966Y222499D01*
X303672Y221529D01*
X290000D01*
X290000Y221529D01*
X276634D01*
X270192Y227971D01*
X270399Y228471D01*
X303672D01*
X303966Y227501D01*
D02*
G37*
G36*
X179808Y227955D02*
X173366Y221514D01*
X146333D01*
X146034Y222499D01*
X145431Y223629D01*
X144618Y224618D01*
X144458Y224750D01*
Y225250D01*
X144618Y225382D01*
X145431Y226371D01*
X146034Y227501D01*
X146324Y228455D01*
X179601D01*
X179808Y227955D01*
D02*
G37*
G36*
X303966Y247500D02*
X304569Y246371D01*
X305382Y245382D01*
X305542Y245250D01*
Y244750D01*
X305382Y244618D01*
X304569Y243629D01*
X303966Y242499D01*
X303672Y241529D01*
X264633D01*
X258192Y247971D01*
X258399Y248471D01*
X303672D01*
X303966Y247500D01*
D02*
G37*
G36*
Y237501D02*
X304569Y236371D01*
X305382Y235382D01*
X305542Y235250D01*
Y234750D01*
X305382Y234618D01*
X304569Y233629D01*
X303966Y232500D01*
X303672Y231529D01*
X270634D01*
X264192Y237971D01*
X264399Y238471D01*
X303672D01*
X303966Y237501D01*
D02*
G37*
D10*
X157500Y111000D02*
D03*
X152500D02*
D03*
X147500D02*
D03*
X142500D02*
D03*
X137500D02*
D03*
X132500D02*
D03*
X127500D02*
D03*
X122500D02*
D03*
Y89000D02*
D03*
X127500D02*
D03*
X132500D02*
D03*
X137500D02*
D03*
X142500D02*
D03*
X147500D02*
D03*
X152500D02*
D03*
X157500D02*
D03*
D11*
X310551Y107500D02*
D03*
Y102500D02*
D03*
Y97500D02*
D03*
Y92500D02*
D03*
Y87500D02*
D03*
Y82500D02*
D03*
Y77500D02*
D03*
Y72500D02*
D03*
X329449Y107500D02*
D03*
Y102500D02*
D03*
Y97500D02*
D03*
Y92500D02*
D03*
Y87500D02*
D03*
Y82500D02*
D03*
Y77500D02*
D03*
Y72500D02*
D03*
D12*
X98148Y383500D02*
D03*
Y378500D02*
D03*
Y373500D02*
D03*
Y368500D02*
D03*
X119400Y383500D02*
D03*
Y378500D02*
D03*
Y373500D02*
D03*
Y368500D02*
D03*
D13*
X85850Y395000D02*
D03*
X92150D02*
D03*
X102721Y274718D02*
D03*
X96421D02*
D03*
X102721Y305218D02*
D03*
X96422D02*
D03*
X102721Y292718D02*
D03*
X96422D02*
D03*
X102721Y254718D02*
D03*
X96421D02*
D03*
X74351Y245000D02*
D03*
X80650D02*
D03*
X116850Y230000D02*
D03*
X123150D02*
D03*
X116850Y200000D02*
D03*
X123150D02*
D03*
X116850Y220000D02*
D03*
X123150D02*
D03*
X116850Y210000D02*
D03*
X123150D02*
D03*
X306850Y120000D02*
D03*
X313150D02*
D03*
D14*
X129000Y335752D02*
D03*
Y342248D02*
D03*
X121000D02*
D03*
Y335752D02*
D03*
X141000Y346087D02*
D03*
Y339591D02*
D03*
Y383248D02*
D03*
Y376752D02*
D03*
D15*
X240000Y145571D02*
D03*
Y154429D02*
D03*
X230000Y145571D02*
D03*
Y154429D02*
D03*
X220000Y145571D02*
D03*
Y154429D02*
D03*
D16*
X230000Y138642D02*
D03*
Y131358D02*
D03*
X240000Y138642D02*
D03*
Y131358D02*
D03*
X220000Y138642D02*
D03*
X220000Y131358D02*
D03*
X210000Y349358D02*
D03*
Y356642D02*
D03*
D17*
X170000Y358150D02*
D03*
Y351851D02*
D03*
X280000Y158150D02*
D03*
Y151850D02*
D03*
X310000Y321850D02*
D03*
Y328150D02*
D03*
D18*
X81142Y235000D02*
D03*
X73858D02*
D03*
X236358Y60000D02*
D03*
X243642D02*
D03*
X236358Y70000D02*
D03*
X243642D02*
D03*
X236358Y80000D02*
D03*
X243642D02*
D03*
X236358Y90000D02*
D03*
X243642D02*
D03*
X236358Y100000D02*
D03*
X243642D02*
D03*
X236358Y110000D02*
D03*
X243642D02*
D03*
D19*
X214173Y270945D02*
D03*
X216142D02*
D03*
X218110Y270945D02*
D03*
X220079D02*
D03*
X222047Y270945D02*
D03*
X224016D02*
D03*
X225984D02*
D03*
X227953D02*
D03*
X229921Y270945D02*
D03*
X231890D02*
D03*
X233858Y270945D02*
D03*
X235827D02*
D03*
Y239055D02*
D03*
X233858Y239055D02*
D03*
X231890Y239055D02*
D03*
X229921D02*
D03*
X227953Y239055D02*
D03*
X225984Y239055D02*
D03*
X224016Y239055D02*
D03*
X222047Y239055D02*
D03*
X220079Y239055D02*
D03*
X218110Y239055D02*
D03*
X216142Y239055D02*
D03*
X214173Y239055D02*
D03*
D20*
X240945Y265827D02*
D03*
X240945Y263858D02*
D03*
Y261890D02*
D03*
Y259921D02*
D03*
X240945Y257953D02*
D03*
Y255984D02*
D03*
X240945Y254016D02*
D03*
Y252047D02*
D03*
Y250079D02*
D03*
Y248110D02*
D03*
X240945Y246142D02*
D03*
X240945Y244173D02*
D03*
X209055D02*
D03*
Y246142D02*
D03*
Y248110D02*
D03*
Y250079D02*
D03*
Y252047D02*
D03*
Y254016D02*
D03*
X209055Y255984D02*
D03*
Y257953D02*
D03*
X209055Y259921D02*
D03*
Y261890D02*
D03*
Y263858D02*
D03*
Y265827D02*
D03*
D21*
X86000Y383906D02*
D03*
Y372094D02*
D03*
X90000Y335094D02*
D03*
Y346905D02*
D03*
D22*
X141000Y401543D02*
D03*
Y394457D02*
D03*
Y364543D02*
D03*
Y357457D02*
D03*
D23*
X65000Y337000D02*
D03*
Y359000D02*
D03*
D24*
X129000Y335752D02*
X130752Y334000D01*
X136000D01*
X410000Y130000D02*
X420000D01*
X400000D02*
X410000D01*
X390000D02*
X400000D01*
X380000D02*
X390000D01*
X370000D02*
X380000D01*
X360000D02*
X370000D01*
X350000D02*
X360000D01*
X340000D02*
X350000D01*
X330000D02*
X340000D01*
X320000D02*
X330000D01*
X313150Y123150D02*
X320000Y130000D01*
X313150Y120000D02*
Y123150D01*
X162150Y351851D02*
X170000D01*
X158000Y356000D02*
X162150Y351851D01*
X158000Y356000D02*
Y419000D01*
X149000Y428000D02*
X158000Y419000D01*
X119000Y428000D02*
X149000D01*
X111000Y420000D02*
X119000Y428000D01*
X129543Y401543D02*
X141000D01*
X118252Y390252D02*
X129543Y401543D01*
X118252Y384000D02*
Y390252D01*
X131000Y391000D02*
X134457Y394457D01*
X141000D01*
X70000Y393000D02*
X85000Y408000D01*
X70000Y387000D02*
Y393000D01*
Y387000D02*
X73094Y383906D01*
X85000Y408000D02*
X90000Y413000D01*
Y420000D01*
X73094Y383906D02*
X86000D01*
X65000Y337000D02*
X88095D01*
X90000Y335094D01*
X65000Y359000D02*
Y368000D01*
X75000Y378000D01*
X140000Y364543D02*
X141000D01*
X131043Y373500D02*
X140000Y364543D01*
X130839Y383839D02*
X141000D01*
X118252Y373500D02*
X131043D01*
X118252Y378500D02*
X125500D01*
X130839Y383839D01*
X141000Y346677D02*
Y357457D01*
X136000Y334000D02*
X141000Y339000D01*
X119800Y368100D02*
X120600Y367300D01*
X121000Y342248D02*
Y366900D01*
Y342248D02*
X129000D01*
X106000Y335094D02*
Y338063D01*
X105032Y346905D02*
X106000Y345937D01*
X90000Y346905D02*
X105032D01*
X90000Y335094D02*
X106000D01*
X120343D02*
X121000Y335752D01*
X106000Y335094D02*
X120343D01*
Y329658D02*
Y335094D01*
Y329658D02*
X140000Y310000D01*
X96422Y315422D02*
X98000Y317000D01*
X96422Y305218D02*
Y315422D01*
X89595Y347311D02*
X90000Y346905D01*
X89595Y364595D02*
X93500Y368500D01*
X89595Y347311D02*
Y364595D01*
X86000Y372094D02*
X89906D01*
X93500Y368500D01*
X120600Y367300D02*
X121000Y366900D01*
D25*
X280000Y151850D02*
X305850D01*
X313052Y119546D02*
Y144649D01*
X196016Y254000D02*
X211055D01*
X187000Y249984D02*
X192000D01*
X140000Y250000D02*
X187000D01*
X140000Y260000D02*
X192000D01*
X196016Y255984D01*
X192000Y249984D02*
X196016Y254000D01*
X198047Y252031D02*
X211055D01*
X186000Y239984D02*
X198047Y252031D01*
X200079Y250063D02*
X211055D01*
X180000Y229984D02*
X200079Y250063D01*
X202110Y248094D02*
X211055D01*
X174000Y219984D02*
X202110Y248094D01*
X204142Y246126D02*
X211055D01*
X168000Y209984D02*
X204142Y246126D01*
X206173Y244157D02*
X211055D01*
X162016Y200000D02*
X206173Y244157D01*
X140016Y209984D02*
X168000D01*
X140016Y219984D02*
X174000D01*
X140016Y229984D02*
X180000D01*
X140016Y239984D02*
X186000D01*
X140000Y200000D02*
X162016D01*
X236358Y110000D02*
Y118358D01*
Y100000D02*
Y110000D01*
Y60000D02*
Y70000D01*
Y80000D01*
Y90000D01*
X243642Y80000D02*
X260000D01*
X236358Y90000D02*
Y100000D01*
Y118358D02*
X240000Y122000D01*
Y131358D01*
X293000Y145000D02*
X304106Y133894D01*
X305850Y151850D02*
X313052Y144649D01*
X304106Y113945D02*
Y133894D01*
X140000Y300000D02*
X168000D01*
X85000Y408000D02*
X146000D01*
X150000Y404000D01*
Y380000D02*
Y404000D01*
X146161Y376161D02*
X150000Y380000D01*
X100000Y124000D02*
Y166000D01*
X77000Y229000D02*
X98000D01*
X106000Y237000D01*
X85650Y240000D02*
X122500D01*
X77000Y395000D02*
X85457D01*
X75000Y393000D02*
X77000Y395000D01*
X141000Y376161D02*
X146161D01*
X92543Y395000D02*
X99748Y387795D01*
Y383500D02*
Y387795D01*
X210000Y358000D02*
Y363000D01*
Y356642D02*
Y358000D01*
X209850Y358150D02*
X210000Y358000D01*
X177850Y358150D02*
X209850D01*
X177850D02*
X179984Y356016D01*
X170000Y358150D02*
X177850D01*
X246358Y131358D02*
X270000Y155000D01*
X240000Y131358D02*
X246358D01*
X270000Y155000D02*
Y170000D01*
Y155000D02*
X273150Y151850D01*
X280000D01*
X116850Y220000D02*
Y230000D01*
Y220000D02*
X116850D01*
X76000D02*
X116850D01*
X67000Y229000D02*
X76000Y220000D01*
X67000Y229000D02*
Y241000D01*
X73858Y232142D02*
X77000Y229000D01*
X73858Y232142D02*
Y235000D01*
X67000Y241000D02*
X71000Y245000D01*
X74351D01*
X96000Y254297D02*
X96421Y254718D01*
X96000Y246000D02*
Y254297D01*
X210000Y363000D02*
X236000Y389000D01*
X210000Y340000D02*
Y349358D01*
X236000Y389000D02*
X262000D01*
X265000Y378000D02*
Y386000D01*
X262000Y389000D02*
X265000Y386000D01*
X262000Y389000D02*
X272000D01*
X275000Y378000D02*
Y386000D01*
X272000Y389000D02*
X275000Y386000D01*
X285000Y375000D02*
Y386000D01*
X272000Y389000D02*
X282000D01*
X285000Y386000D01*
Y375000D02*
X290000Y370000D01*
X270000Y373000D02*
X275000Y378000D01*
X270000Y370000D02*
Y373000D01*
X260000D02*
X265000Y378000D01*
X260000Y370000D02*
Y373000D01*
X265000Y375000D02*
X270000Y380000D01*
X265000Y365000D02*
Y375000D01*
X260000Y360000D02*
X265000Y365000D01*
X260000Y340000D02*
Y360000D01*
X270000Y340000D02*
Y359000D01*
Y340000D02*
Y340000D01*
X275000Y375000D02*
X280000Y380000D01*
X275000Y364000D02*
Y375000D01*
X270000Y359000D02*
X275000Y364000D01*
X290016Y300000D02*
X310000D01*
X288000Y310016D02*
X309984D01*
X243827Y265843D02*
X288000Y310016D01*
X106000Y237000D02*
X121000D01*
X123150Y210000D02*
Y230000D01*
X123150Y200000D02*
Y210000D01*
X121000Y237000D02*
X123150Y234850D01*
Y230000D02*
Y234850D01*
X123150Y230000D02*
X140000D01*
X74351Y245000D02*
Y250350D01*
X78718Y254718D01*
X96421D01*
X123150Y200000D02*
X123150Y200000D01*
X123150Y210000D02*
X123150Y210000D01*
X280000Y158150D02*
Y170000D01*
X240000Y138642D02*
Y145571D01*
X230000Y138642D02*
Y145571D01*
X220000Y138642D02*
Y145571D01*
X240000Y154429D02*
Y170000D01*
X230000Y154429D02*
Y170000D01*
X220000Y154429D02*
Y170000D01*
X321106Y65492D02*
X322106Y64492D01*
X321106Y65492D02*
Y85492D01*
X323114Y87500D01*
X318114Y72500D02*
X319106Y73492D01*
Y113492D01*
X313052Y119546D02*
X319106Y113492D01*
X323114Y87500D02*
X329449D01*
Y61834D02*
Y72500D01*
X351606Y58992D02*
Y91492D01*
X346606Y61492D02*
Y78992D01*
X336606Y51492D02*
X346606Y61492D01*
X324106Y56492D02*
X329449Y61834D01*
X360000Y60000D02*
X368615D01*
X371106Y62492D01*
Y114492D01*
X364106Y121492D02*
X371106Y114492D01*
X360106Y121492D02*
X364106D01*
X341114Y102500D02*
X360106Y121492D01*
X329449Y102500D02*
X341114D01*
X345598Y97500D02*
X351606Y91492D01*
X329449Y97500D02*
X345598D01*
X300106Y102492D02*
X300114Y102500D01*
X300106Y92492D02*
X300114Y92500D01*
X310551D01*
X300114Y82500D02*
X310551D01*
X329449Y77500D02*
X341098D01*
X343098Y82500D02*
X346606Y78992D01*
X300114Y102500D02*
X310551D01*
Y72500D02*
X318114D01*
X298098Y97500D02*
X310551D01*
X285598Y110000D02*
X298098Y97500D01*
X304106Y113945D02*
X310551Y107500D01*
X243642Y60000D02*
X260000D01*
X243642Y70000D02*
X260000D01*
X243642Y90000D02*
X260000D01*
X243642Y100000D02*
X260000D01*
X243642Y110000D02*
X260000D01*
X339106Y46492D02*
X351606Y58992D01*
X301606Y46492D02*
X339106D01*
X288098Y60000D02*
X301606Y46492D01*
X260000Y60000D02*
X288098D01*
X329449Y82500D02*
X343098D01*
X301606Y51492D02*
X336606D01*
X283098Y70000D02*
X301606Y51492D01*
X260000Y70000D02*
X283098D01*
X301606Y56492D02*
X324106D01*
X278098Y80000D02*
X301606Y56492D01*
X260000Y80000D02*
X278098D01*
X298098Y77500D02*
X310551D01*
X285598Y90000D02*
X298098Y77500D01*
X260000Y90000D02*
X285598D01*
X298098Y87500D02*
X310551D01*
X285598Y100000D02*
X298098Y87500D01*
X260000Y100000D02*
X285598D01*
X260000Y110000D02*
X285598D01*
X290000Y220000D02*
X290000Y220000D01*
X310000D01*
X282000Y210000D02*
X310000D01*
X245858Y246142D02*
X282000Y210000D01*
X288000Y200000D02*
X300000D01*
X243827Y244173D02*
X288000Y200000D01*
X240945Y246142D02*
X245858D01*
X276000Y220000D02*
X290000D01*
X247890Y248110D02*
X276000Y220000D01*
X238945Y248110D02*
X247890D01*
X270000Y230000D02*
X310000D01*
X249921Y250079D02*
X270000Y230000D01*
X264000Y240000D02*
X310000D01*
X251953Y252047D02*
X264000Y240000D01*
X258000Y250000D02*
X310000D01*
X253984Y254016D02*
X258000Y250000D01*
X238945Y250079D02*
X249921D01*
X238945Y252047D02*
X251953D01*
X238945Y254016D02*
X253984D01*
X310000Y250000D02*
X310000Y250000D01*
X81142Y235492D02*
X85650Y240000D01*
X81142Y235000D02*
Y235492D01*
X80650Y245000D02*
X85650Y240000D01*
X122500D02*
X132500Y250000D01*
X140000D01*
X124606Y260000D02*
X140000D01*
X124606Y270000D02*
X140000D01*
X120000Y274606D02*
X124606Y270000D01*
X120000Y255394D02*
X124606Y260000D01*
X140000Y210000D02*
X140016Y209984D01*
X189984Y306000D02*
Y339984D01*
X190000Y340000D01*
X199984Y339984D02*
X200000Y340000D01*
X199984Y300000D02*
Y339984D01*
X209984Y339984D02*
X210000Y340000D01*
X219984Y339984D02*
X220000Y340000D01*
X230000Y340000D02*
X230000Y340000D01*
X250000Y340000D02*
X250000Y340000D01*
X250000Y300000D02*
Y340000D01*
X270000Y312000D02*
Y340000D01*
X260000Y340000D02*
X260000Y340000D01*
Y306000D02*
Y340000D01*
X270000Y340000D02*
X270000Y340000D01*
X235827Y273827D02*
X280000Y318000D01*
Y340000D01*
X290000Y300016D02*
X290016Y300000D01*
X290016Y290000D02*
X310000D01*
X290016Y280000D02*
X310000D01*
X290000Y270016D02*
X290016Y270000D01*
X310000D01*
X290000Y260016D02*
X290016Y260000D01*
X310000D01*
X310000Y240000D02*
X310000Y240000D01*
X300000Y200000D02*
X310000D01*
X300000Y200000D02*
X300000Y200000D01*
X310000D02*
X310000Y200000D01*
X280000Y170000D02*
X280016Y170016D01*
Y192000D01*
X270000Y170000D02*
Y197984D01*
X235843Y236173D02*
X280016Y192000D01*
X250000Y170000D02*
Y189984D01*
X180000Y170000D02*
Y198000D01*
X170000Y192000D02*
X214173Y236173D01*
X170000Y170000D02*
Y192000D01*
X168000Y300000D02*
X204142Y263858D01*
X211055D01*
X202110Y261890D02*
X211055D01*
X162000Y310000D02*
X206173Y265827D01*
X140000Y310000D02*
X162000D01*
X196016Y255984D02*
X211055D01*
X198047Y257953D02*
X211055D01*
X186000Y270000D02*
X198047Y257953D01*
X140000Y270000D02*
X186000D01*
X200079Y259921D02*
X211055D01*
X180000Y280000D02*
X200079Y259921D01*
X140000Y280000D02*
X180000D01*
X260016Y170000D02*
Y204000D01*
X250016Y190000D02*
Y210000D01*
X240016Y170016D02*
Y216000D01*
X180000Y198000D02*
X216142Y234142D01*
Y241055D01*
X214173Y236173D02*
Y241055D01*
X238945Y261906D02*
X247890D01*
X253984Y256000D02*
X258000Y260016D01*
X282000Y300016D02*
X290000D01*
X276000Y290016D02*
X290000D01*
X270000Y280016D02*
X290000D01*
X264000Y270016D02*
X290000D01*
X238945Y256000D02*
X253984D01*
X238945Y257969D02*
X251953D01*
X238945Y259937D02*
X249921D01*
X258000Y260016D02*
X290000D01*
X251953Y257969D02*
X264000Y270016D01*
X245858Y263874D02*
X282000Y300016D01*
X249921Y259937D02*
X270000Y280016D01*
X247890Y261906D02*
X276000Y290016D01*
X238945Y244173D02*
X243827D01*
X235827Y268945D02*
Y273827D01*
X209984Y294000D02*
Y339984D01*
X174000Y290000D02*
X202110Y261890D01*
X140000Y290000D02*
X174000D01*
X102833Y274606D02*
X120000D01*
X102721Y274718D02*
X102833Y274606D01*
X102721Y254718D02*
X119324D01*
X120000Y255394D01*
X238945Y263874D02*
X245858D01*
X169984Y318000D02*
X214157Y273827D01*
X179984Y312000D02*
X216126Y275858D01*
Y270945D02*
Y275858D01*
X189984Y306000D02*
X218094Y277890D01*
Y268945D02*
Y277890D01*
X199984Y300000D02*
X220063Y279921D01*
Y268945D02*
Y279921D01*
X209984Y294000D02*
X222031Y281953D01*
Y268945D02*
Y281953D01*
X224000Y268945D02*
Y283984D01*
X219984Y288000D02*
X224000Y283984D01*
X219984Y288000D02*
Y339984D01*
X225984Y268945D02*
Y283984D01*
X230000Y288000D01*
X227953Y268945D02*
Y281953D01*
X240000Y294000D01*
X229921Y268945D02*
Y279921D01*
X250000Y300000D01*
X231890Y268945D02*
Y277890D01*
X260000Y306000D01*
X233858Y268945D02*
Y275858D01*
X270000Y312000D01*
X220000Y170000D02*
Y222000D01*
X210000Y170000D02*
Y216000D01*
X200000Y170000D02*
Y210000D01*
X190000Y170000D02*
Y204000D01*
X218110Y232110D01*
Y241055D01*
X200000Y210000D02*
X220079Y230079D01*
Y241055D01*
X210000Y216000D02*
X222047Y228047D01*
Y241055D01*
X220000Y222000D02*
X224016Y226016D01*
Y241055D01*
X230016Y170016D02*
Y222000D01*
X226000Y226016D02*
X230016Y222000D01*
X226000Y226016D02*
Y241055D01*
X227969Y228047D02*
Y241055D01*
Y228047D02*
X240016Y216000D01*
X229937Y230079D02*
Y241055D01*
Y230079D02*
X250016Y210000D01*
X231906Y232110D02*
Y241055D01*
Y232110D02*
X260016Y204000D01*
X233874Y234142D02*
X270016Y198000D01*
X233874Y234142D02*
Y241055D01*
X235843Y236173D02*
Y241055D01*
X209055Y252047D02*
X224953D01*
Y256047D01*
X209055Y250079D02*
X217921D01*
X235827Y239055D02*
Y248173D01*
X233858Y239055D02*
Y243142D01*
X224953Y256047D02*
X232764Y263858D01*
X240945D01*
X238945Y265843D02*
X243827D01*
X216142Y264858D02*
Y270945D01*
Y264858D02*
X224953Y256047D01*
X214157Y258843D02*
X217000Y256000D01*
X209055Y265843D02*
X214157Y270945D01*
Y258843D02*
Y270945D01*
Y273827D01*
X206173Y265827D02*
X211055D01*
X110000Y50000D02*
X120000D01*
X130000D01*
X140000D01*
X150000D01*
X160000D01*
X170000D01*
X103000Y89000D02*
X122500D01*
X91000Y77000D02*
X103000Y89000D01*
X90000Y50000D02*
X91000D01*
Y77000D01*
Y50000D02*
X110000D01*
X127500Y82500D02*
Y89000D01*
X125000Y80000D02*
X127500Y82500D01*
X114000Y80000D02*
X125000D01*
X110000Y76000D02*
X114000Y80000D01*
X110000Y60000D02*
Y76000D01*
X132500Y83500D02*
Y89000D01*
X120000Y71000D02*
X132500Y83500D01*
X120000Y60000D02*
Y71000D01*
X137500Y83500D02*
Y89000D01*
X130000Y76000D02*
X137500Y83500D01*
X130000Y60000D02*
Y76000D01*
X140000Y60000D02*
Y77000D01*
X142500Y79500D01*
Y89000D01*
X147500Y80500D02*
Y89000D01*
Y80500D02*
X150000Y78000D01*
Y60000D02*
Y78000D01*
X152500Y80500D02*
Y89000D01*
Y80500D02*
X160000Y73000D01*
Y60000D02*
Y73000D01*
X157500Y83500D02*
Y89000D01*
Y83500D02*
X170000Y71000D01*
Y60000D02*
Y71000D01*
X157500Y111000D02*
X162000D01*
X170000Y119000D01*
Y160000D01*
X152500Y111000D02*
Y120500D01*
X160000Y128000D01*
Y160000D01*
X147500Y111000D02*
Y127500D01*
X150000Y130000D01*
Y160000D01*
X142500Y111000D02*
Y127500D01*
X140000Y130000D02*
X142500Y127500D01*
X140000Y130000D02*
Y160000D01*
X137500Y111000D02*
Y123500D01*
X130000Y131000D02*
X137500Y123500D01*
X130000Y131000D02*
Y160000D01*
X132500Y111000D02*
Y121500D01*
X120000Y134000D02*
X132500Y121500D01*
X120000Y134000D02*
Y160000D01*
X127500Y111000D02*
Y119500D01*
X110000Y137000D02*
X127500Y119500D01*
X110000Y137000D02*
Y160000D01*
X230000Y131358D02*
X230000Y131358D01*
X220000D02*
X230000D01*
X240000D01*
X116850Y182851D02*
Y200000D01*
X100000Y166000D02*
X116850Y182851D01*
X100000Y124000D02*
X113000Y111000D01*
X122500D01*
X116850Y200000D02*
Y220000D01*
X116884Y292718D02*
X120000Y295835D01*
X102721Y292718D02*
X116884D01*
X102721Y305218D02*
X114947D01*
X120000Y300165D01*
X310000Y310032D02*
Y321850D01*
X309984Y310016D02*
X310000Y310032D01*
Y328150D02*
X310150Y328000D01*
X315000D01*
X318000Y325000D01*
Y304000D02*
Y325000D01*
X314000Y300000D02*
X318000Y304000D01*
X310000Y300000D02*
X314000D01*
X135835Y280000D02*
X140000D01*
X120000Y295835D02*
X135835Y280000D01*
X134000Y290000D02*
X140000D01*
X123835Y300165D02*
X134000Y290000D01*
X120000Y300165D02*
X123835D01*
X86000Y383906D02*
X90095D01*
X95500Y378500D01*
X99748D01*
X240000Y294000D02*
Y340000D01*
X230000Y288000D02*
Y340000D01*
X179984Y312000D02*
Y356016D01*
X169984Y318000D02*
Y339984D01*
X170000Y340000D01*
Y351851D01*
X75000Y378000D02*
X91000D01*
X95500Y373500D01*
X99748D01*
X96421Y254718D02*
Y311421D01*
X217921Y250079D02*
X220000Y248000D01*
X224953Y252047D02*
X233858Y243142D01*
X224000Y263000D02*
X226827Y265827D01*
X230000Y254000D02*
X235827Y248173D01*
X226827Y265827D02*
X240945D01*
X234000Y259000D02*
Y262622D01*
X232764Y263858D02*
X234000Y262622D01*
D26*
X93500Y368500D02*
X98148D01*
D27*
X108650Y375900D02*
D03*
D28*
X50000Y280000D02*
D03*
X60000D02*
D03*
X80000D02*
D03*
X70000D02*
D03*
Y270000D02*
D03*
X80000D02*
D03*
X60000D02*
D03*
X50000D02*
D03*
Y310000D02*
D03*
X60000D02*
D03*
X80000D02*
D03*
X70000D02*
D03*
X50000Y290000D02*
D03*
X60000D02*
D03*
X80000D02*
D03*
X70000D02*
D03*
Y300000D02*
D03*
X80000D02*
D03*
X60000D02*
D03*
X50000D02*
D03*
X60000Y130000D02*
D03*
X50000D02*
D03*
X70000D02*
D03*
X90000D02*
D03*
X80000D02*
D03*
Y120000D02*
D03*
X90000D02*
D03*
X70000D02*
D03*
X50000D02*
D03*
X60000D02*
D03*
Y150000D02*
D03*
X50000D02*
D03*
X70000D02*
D03*
X90000D02*
D03*
X80000D02*
D03*
Y140000D02*
D03*
X90000D02*
D03*
X70000D02*
D03*
X50000D02*
D03*
X60000D02*
D03*
Y170000D02*
D03*
X50000D02*
D03*
X70000D02*
D03*
X90000D02*
D03*
X80000D02*
D03*
Y160000D02*
D03*
X90000D02*
D03*
X70000D02*
D03*
X50000D02*
D03*
X60000D02*
D03*
X80000Y180000D02*
D03*
X90000D02*
D03*
X70000D02*
D03*
X50000D02*
D03*
X60000D02*
D03*
Y100000D02*
D03*
X50000D02*
D03*
X70000D02*
D03*
X90000D02*
D03*
X80000D02*
D03*
Y110000D02*
D03*
X90000D02*
D03*
X70000D02*
D03*
X50000D02*
D03*
X60000D02*
D03*
X80000Y90000D02*
D03*
X90000D02*
D03*
X70000D02*
D03*
X50000D02*
D03*
X60000D02*
D03*
X300000Y170000D02*
D03*
Y190000D02*
D03*
Y180000D02*
D03*
X310000Y170000D02*
D03*
Y160000D02*
D03*
Y190000D02*
D03*
Y180000D02*
D03*
X320000Y350000D02*
D03*
Y380000D02*
D03*
Y370000D02*
D03*
Y360000D02*
D03*
Y390000D02*
D03*
Y400000D02*
D03*
X170000Y380000D02*
D03*
X190000D02*
D03*
X180000D02*
D03*
X210000D02*
D03*
X200000D02*
D03*
X170000Y410000D02*
D03*
X180000D02*
D03*
Y420000D02*
D03*
X170000D02*
D03*
Y400000D02*
D03*
X190000D02*
D03*
X180000D02*
D03*
X220000D02*
D03*
X210000D02*
D03*
X200000D02*
D03*
Y390000D02*
D03*
X210000D02*
D03*
X220000D02*
D03*
X180000D02*
D03*
X190000D02*
D03*
X170000D02*
D03*
X190000Y420000D02*
D03*
X200000D02*
D03*
X220000D02*
D03*
X210000D02*
D03*
X250000D02*
D03*
X240000D02*
D03*
X230000D02*
D03*
Y410000D02*
D03*
X240000D02*
D03*
X250000D02*
D03*
X210000D02*
D03*
X220000D02*
D03*
X200000D02*
D03*
X190000D02*
D03*
X260000Y420000D02*
D03*
X270000D02*
D03*
X290000D02*
D03*
X280000D02*
D03*
X320000D02*
D03*
X310000D02*
D03*
X300000D02*
D03*
Y410000D02*
D03*
X310000D02*
D03*
X320000D02*
D03*
X280000D02*
D03*
X290000D02*
D03*
X270000D02*
D03*
X260000D02*
D03*
X400000Y120000D02*
D03*
X420000D02*
D03*
X410000D02*
D03*
X400000Y100000D02*
D03*
X420000D02*
D03*
X410000D02*
D03*
Y110000D02*
D03*
X420000D02*
D03*
X400000D02*
D03*
Y80000D02*
D03*
X420000D02*
D03*
X410000D02*
D03*
Y90000D02*
D03*
X420000D02*
D03*
X400000D02*
D03*
X330000Y400000D02*
D03*
X340000D02*
D03*
X360000D02*
D03*
X350000D02*
D03*
X390000D02*
D03*
X380000D02*
D03*
X370000D02*
D03*
X330000Y410000D02*
D03*
X340000D02*
D03*
X360000D02*
D03*
X350000D02*
D03*
X390000D02*
D03*
X380000D02*
D03*
X370000D02*
D03*
Y420000D02*
D03*
X380000D02*
D03*
X390000D02*
D03*
X350000D02*
D03*
X360000D02*
D03*
X340000D02*
D03*
X330000D02*
D03*
X320000Y280000D02*
D03*
Y290000D02*
D03*
Y210000D02*
D03*
Y200000D02*
D03*
Y230000D02*
D03*
Y220000D02*
D03*
Y250000D02*
D03*
Y240000D02*
D03*
Y270000D02*
D03*
Y260000D02*
D03*
Y180000D02*
D03*
Y190000D02*
D03*
Y160000D02*
D03*
Y170000D02*
D03*
Y140000D02*
D03*
Y130000D02*
D03*
Y150000D02*
D03*
X330000D02*
D03*
X340000D02*
D03*
X360000D02*
D03*
X350000D02*
D03*
X390000D02*
D03*
X380000D02*
D03*
X370000D02*
D03*
X400000D02*
D03*
X420000D02*
D03*
X410000D02*
D03*
X330000Y130000D02*
D03*
X340000D02*
D03*
X360000D02*
D03*
X350000D02*
D03*
X390000D02*
D03*
X380000D02*
D03*
X370000D02*
D03*
X400000D02*
D03*
X420000D02*
D03*
X410000D02*
D03*
Y140000D02*
D03*
X420000D02*
D03*
X400000D02*
D03*
X370000D02*
D03*
X380000D02*
D03*
X390000D02*
D03*
X350000D02*
D03*
X360000D02*
D03*
X340000D02*
D03*
X330000D02*
D03*
Y170000D02*
D03*
X340000D02*
D03*
X360000D02*
D03*
X350000D02*
D03*
X390000D02*
D03*
X380000D02*
D03*
X370000D02*
D03*
X400000D02*
D03*
X420000D02*
D03*
X410000D02*
D03*
Y160000D02*
D03*
X420000D02*
D03*
X400000D02*
D03*
X370000D02*
D03*
X380000D02*
D03*
X390000D02*
D03*
X350000D02*
D03*
X360000D02*
D03*
X340000D02*
D03*
X330000D02*
D03*
Y190000D02*
D03*
X340000D02*
D03*
X360000D02*
D03*
X350000D02*
D03*
X390000D02*
D03*
X380000D02*
D03*
X370000D02*
D03*
X400000D02*
D03*
X420000D02*
D03*
X410000D02*
D03*
Y180000D02*
D03*
X420000D02*
D03*
X400000D02*
D03*
X370000D02*
D03*
X380000D02*
D03*
X390000D02*
D03*
X350000D02*
D03*
X360000D02*
D03*
X340000D02*
D03*
X330000D02*
D03*
Y260000D02*
D03*
X340000D02*
D03*
X360000D02*
D03*
X350000D02*
D03*
X390000D02*
D03*
X380000D02*
D03*
X370000D02*
D03*
X400000D02*
D03*
X420000D02*
D03*
X410000D02*
D03*
Y270000D02*
D03*
X420000D02*
D03*
X400000D02*
D03*
X370000D02*
D03*
X380000D02*
D03*
X390000D02*
D03*
X350000D02*
D03*
X360000D02*
D03*
X340000D02*
D03*
X330000D02*
D03*
Y240000D02*
D03*
X340000D02*
D03*
X360000D02*
D03*
X350000D02*
D03*
X390000D02*
D03*
X380000D02*
D03*
X370000D02*
D03*
X400000D02*
D03*
X420000D02*
D03*
X410000D02*
D03*
Y250000D02*
D03*
X420000D02*
D03*
X400000D02*
D03*
X370000D02*
D03*
X380000D02*
D03*
X390000D02*
D03*
X350000D02*
D03*
X360000D02*
D03*
X340000D02*
D03*
X330000D02*
D03*
Y220000D02*
D03*
X340000D02*
D03*
X360000D02*
D03*
X350000D02*
D03*
X390000D02*
D03*
X380000D02*
D03*
X370000D02*
D03*
X400000D02*
D03*
X420000D02*
D03*
X410000D02*
D03*
Y230000D02*
D03*
X420000D02*
D03*
X400000D02*
D03*
X370000D02*
D03*
X380000D02*
D03*
X390000D02*
D03*
X350000D02*
D03*
X360000D02*
D03*
X340000D02*
D03*
X330000D02*
D03*
Y200000D02*
D03*
X340000D02*
D03*
X360000D02*
D03*
X350000D02*
D03*
X390000D02*
D03*
X380000D02*
D03*
X370000D02*
D03*
X400000D02*
D03*
X420000D02*
D03*
X410000D02*
D03*
Y210000D02*
D03*
X420000D02*
D03*
X400000D02*
D03*
X370000D02*
D03*
X380000D02*
D03*
X390000D02*
D03*
X350000D02*
D03*
X360000D02*
D03*
X340000D02*
D03*
X330000D02*
D03*
Y390000D02*
D03*
X340000D02*
D03*
X360000D02*
D03*
X350000D02*
D03*
X390000D02*
D03*
X380000D02*
D03*
X370000D02*
D03*
X400000D02*
D03*
X420000D02*
D03*
X410000D02*
D03*
Y380000D02*
D03*
X420000D02*
D03*
X400000D02*
D03*
X370000D02*
D03*
X380000D02*
D03*
X390000D02*
D03*
X350000D02*
D03*
X360000D02*
D03*
X340000D02*
D03*
X330000D02*
D03*
Y290000D02*
D03*
X340000D02*
D03*
X360000D02*
D03*
X350000D02*
D03*
X390000D02*
D03*
X380000D02*
D03*
X370000D02*
D03*
X400000D02*
D03*
X420000D02*
D03*
X410000D02*
D03*
Y280000D02*
D03*
X420000D02*
D03*
X400000D02*
D03*
X370000D02*
D03*
X380000D02*
D03*
X390000D02*
D03*
X350000D02*
D03*
X360000D02*
D03*
X340000D02*
D03*
X330000D02*
D03*
Y310000D02*
D03*
X340000D02*
D03*
X360000D02*
D03*
X350000D02*
D03*
X390000D02*
D03*
X380000D02*
D03*
X370000D02*
D03*
X400000D02*
D03*
X420000D02*
D03*
X410000D02*
D03*
Y300000D02*
D03*
X420000D02*
D03*
X400000D02*
D03*
X370000D02*
D03*
X380000D02*
D03*
X390000D02*
D03*
X350000D02*
D03*
X360000D02*
D03*
X340000D02*
D03*
X330000D02*
D03*
Y330000D02*
D03*
X340000D02*
D03*
X360000D02*
D03*
X350000D02*
D03*
X390000D02*
D03*
X380000D02*
D03*
X370000D02*
D03*
X400000D02*
D03*
X420000D02*
D03*
X410000D02*
D03*
Y320000D02*
D03*
X420000D02*
D03*
X400000D02*
D03*
X370000D02*
D03*
X380000D02*
D03*
X390000D02*
D03*
X350000D02*
D03*
X360000D02*
D03*
X340000D02*
D03*
X330000D02*
D03*
Y350000D02*
D03*
X340000D02*
D03*
X360000D02*
D03*
X350000D02*
D03*
X390000D02*
D03*
X380000D02*
D03*
X370000D02*
D03*
X400000D02*
D03*
X420000D02*
D03*
X410000D02*
D03*
Y340000D02*
D03*
X420000D02*
D03*
X400000D02*
D03*
X370000D02*
D03*
X380000D02*
D03*
X390000D02*
D03*
X350000D02*
D03*
X360000D02*
D03*
X340000D02*
D03*
X330000D02*
D03*
Y360000D02*
D03*
X340000D02*
D03*
X360000D02*
D03*
X350000D02*
D03*
X390000D02*
D03*
X380000D02*
D03*
X370000D02*
D03*
X400000D02*
D03*
X420000D02*
D03*
X410000D02*
D03*
Y370000D02*
D03*
X420000D02*
D03*
X400000D02*
D03*
X370000D02*
D03*
X380000D02*
D03*
X390000D02*
D03*
X350000D02*
D03*
X360000D02*
D03*
X340000D02*
D03*
X330000D02*
D03*
X110000Y420000D02*
D03*
X130000D02*
D03*
X140000Y220000D02*
D03*
Y240000D02*
D03*
X310000Y310000D02*
D03*
X270000Y170000D02*
D03*
X140000Y230000D02*
D03*
Y310000D02*
D03*
X190000Y170000D02*
D03*
X170000Y340000D02*
D03*
X210000Y170000D02*
D03*
X220000D02*
D03*
X230000D02*
D03*
X240000D02*
D03*
X250000D02*
D03*
X260016D02*
D03*
X310000Y300000D02*
D03*
X190000Y340000D02*
D03*
X200000Y340000D02*
D03*
X220000D02*
D03*
X230000Y340000D02*
D03*
X240000Y340000D02*
D03*
X260000D02*
D03*
X270000Y340000D02*
D03*
X280000D02*
D03*
X310000Y290000D02*
D03*
X310000Y280000D02*
D03*
Y270000D02*
D03*
X310000Y260000D02*
D03*
X310000Y250000D02*
D03*
X250000Y340000D02*
D03*
X310000Y240000D02*
D03*
X140000Y290000D02*
D03*
X310000Y220000D02*
D03*
Y210000D02*
D03*
X310000Y200000D02*
D03*
X210000Y340000D02*
D03*
X180000D02*
D03*
X140000Y300000D02*
D03*
Y280000D02*
D03*
Y270000D02*
D03*
Y260000D02*
D03*
Y210000D02*
D03*
Y200000D02*
D03*
X310000Y230000D02*
D03*
X170000Y170000D02*
D03*
X180000D02*
D03*
X200000D02*
D03*
X280000D02*
D03*
X140000Y250000D02*
D03*
X360000Y110000D02*
D03*
Y100000D02*
D03*
Y90000D02*
D03*
Y80000D02*
D03*
Y70000D02*
D03*
Y60000D02*
D03*
X260000Y110000D02*
D03*
Y100000D02*
D03*
Y90000D02*
D03*
Y80000D02*
D03*
Y70000D02*
D03*
Y60000D02*
D03*
X110000Y50000D02*
D03*
X120000D02*
D03*
X130000Y60000D02*
D03*
Y50000D02*
D03*
X140000Y60000D02*
D03*
Y50000D02*
D03*
X150000Y60000D02*
D03*
Y50000D02*
D03*
X160000Y60000D02*
D03*
Y50000D02*
D03*
X110000Y160000D02*
D03*
X120000D02*
D03*
X130000D02*
D03*
X140000D02*
D03*
X150000D02*
D03*
X160000D02*
D03*
X170000D02*
D03*
X110000Y60000D02*
D03*
X120000D02*
D03*
X170000D02*
D03*
Y50000D02*
D03*
X90000D02*
D03*
Y420000D02*
D03*
D29*
X120000Y295835D02*
D03*
Y300165D02*
D03*
D30*
X120000Y274606D02*
D03*
D31*
X120000Y255394D02*
D03*
D32*
X270000Y380000D02*
D03*
Y370000D02*
D03*
X260000Y380000D02*
D03*
Y370000D02*
D03*
X250000Y380000D02*
D03*
X280000Y370000D02*
D03*
Y380000D02*
D03*
X290000Y370000D02*
D03*
Y380000D02*
D03*
D33*
X250000Y370000D02*
D03*
D34*
X60000Y410000D02*
D03*
Y60000D02*
D03*
X410000D02*
D03*
Y410000D02*
D03*
D35*
X106000Y338063D02*
D03*
D36*
Y345937D02*
D03*
D37*
X187000Y250000D02*
D03*
X131000Y391000D02*
D03*
X75000Y393000D02*
D03*
X96000Y246000D02*
D03*
X322106Y64492D02*
D03*
X300106Y102492D02*
D03*
Y92492D02*
D03*
X300114Y82500D02*
D03*
X341098Y77500D02*
D03*
X217000Y256000D02*
D03*
X293000Y145000D02*
D03*
X75000Y378000D02*
D03*
X136000Y334000D02*
D03*
X98000Y317000D02*
D03*
X220000Y248000D02*
D03*
X224000Y263000D02*
D03*
X230000Y254000D02*
D03*
X234000Y259000D02*
D03*
M02*
