G04 Layer_Physical_Order=1*
G04 Layer_Color=25308*
%FSLAX25Y25*%
%MOIN*%
G70*
G01*
G75*
%ADD10R,0.04724X0.01969*%
%ADD11R,0.01969X0.04724*%
%ADD12O,0.02600X0.09000*%
%ADD13O,0.08661X0.02362*%
%ADD14O,0.06300X0.02400*%
%ADD15R,0.05118X0.05709*%
%ADD16R,0.04724X0.03150*%
%ADD17R,0.05118X0.04528*%
%ADD18R,0.05118X0.03937*%
%ADD19R,0.03937X0.05118*%
%ADD20R,0.07480X0.05906*%
%ADD21R,0.06102X0.05906*%
%ADD22R,0.06693X0.11811*%
%ADD23C,0.01000*%
%ADD24C,0.03000*%
%ADD25C,0.00600*%
%ADD26C,0.02500*%
%ADD27R,0.10300X0.13800*%
%ADD28C,0.08000*%
%ADD29C,0.04724*%
%ADD30R,0.04724X0.04724*%
%ADD31C,0.06000*%
%ADD32R,0.06000X0.06000*%
%ADD33C,0.25984*%
%ADD34R,0.05118X0.05118*%
%ADD35C,0.05118*%
%ADD36C,0.02000*%
G36*
X440000Y30000D02*
X30000D01*
Y440000D01*
X440000D01*
Y30000D01*
D02*
G37*
%LPC*%
G36*
X310409Y123854D02*
X303291D01*
Y121326D01*
X298520D01*
X298442Y121442D01*
X297780Y121884D01*
X297000Y122039D01*
X296220Y121884D01*
X295558Y121442D01*
X295116Y120780D01*
X294961Y120000D01*
X295116Y119220D01*
X295558Y118558D01*
X296220Y118116D01*
X297000Y117961D01*
X297780Y118116D01*
X298442Y118558D01*
X298520Y118675D01*
X303291D01*
Y116146D01*
X305321D01*
Y111201D01*
X305437Y110616D01*
X305769Y110119D01*
X306142Y109746D01*
X306093Y109249D01*
X305829Y109072D01*
X305347Y108351D01*
X305178Y107500D01*
X305347Y106649D01*
X305829Y105928D01*
X306551Y105446D01*
X307402Y105276D01*
X313701D01*
X314552Y105446D01*
X315273Y105928D01*
X315755Y106649D01*
X315925Y107500D01*
X315755Y108351D01*
X315273Y109072D01*
X314552Y109555D01*
X313701Y109724D01*
X310490D01*
X308380Y111834D01*
Y116146D01*
X310409D01*
Y123854D01*
D02*
G37*
G36*
X332598Y109724D02*
X326299D01*
X325448Y109555D01*
X324727Y109072D01*
X324245Y108351D01*
X324075Y107500D01*
X324245Y106649D01*
X324727Y105928D01*
X325448Y105446D01*
X326299Y105276D01*
X332598D01*
X333449Y105446D01*
X334171Y105928D01*
X334653Y106649D01*
X334822Y107500D01*
X334653Y108351D01*
X334171Y109072D01*
X333449Y109555D01*
X332598Y109724D01*
D02*
G37*
G36*
X313701Y104724D02*
X307402D01*
X306551Y104554D01*
X305829Y104072D01*
X305800Y104029D01*
X301405D01*
X300887Y104376D01*
X300106Y104531D01*
X299326Y104376D01*
X298664Y103934D01*
X298222Y103272D01*
X298067Y102492D01*
X298222Y101711D01*
X298664Y101050D01*
X299326Y100608D01*
X300106Y100453D01*
X300887Y100608D01*
X301430Y100971D01*
X305800D01*
X305829Y100927D01*
X306551Y100445D01*
X307402Y100276D01*
X313701D01*
X314552Y100445D01*
X315273Y100927D01*
X315755Y101649D01*
X315925Y102500D01*
X315755Y103351D01*
X315273Y104072D01*
X314552Y104554D01*
X313701Y104724D01*
D02*
G37*
G36*
X420000Y126531D02*
X418726Y126406D01*
X417500Y126034D01*
X416371Y125431D01*
X415382Y124618D01*
X415250Y124458D01*
X414750D01*
X414618Y124618D01*
X413629Y125431D01*
X412500Y126034D01*
X411274Y126406D01*
X410000Y126531D01*
X408726Y126406D01*
X407501Y126034D01*
X406371Y125431D01*
X405382Y124618D01*
X405250Y124458D01*
X404750D01*
X404618Y124618D01*
X403629Y125431D01*
X402499Y126034D01*
X401274Y126406D01*
X400000Y126531D01*
X398726Y126406D01*
X397500Y126034D01*
X396371Y125431D01*
X395382Y124618D01*
X394569Y123629D01*
X393966Y122500D01*
X393594Y121274D01*
X393469Y120000D01*
X393594Y118726D01*
X393966Y117500D01*
X394569Y116371D01*
X395382Y115382D01*
X395542Y115250D01*
Y114750D01*
X395382Y114618D01*
X394569Y113629D01*
X393966Y112499D01*
X393594Y111274D01*
X393469Y110000D01*
X393594Y108726D01*
X393966Y107501D01*
X394569Y106371D01*
X395382Y105382D01*
X395542Y105250D01*
Y104750D01*
X395382Y104618D01*
X394569Y103629D01*
X393966Y102499D01*
X393594Y101274D01*
X393469Y100000D01*
X393594Y98726D01*
X393966Y97500D01*
X394569Y96371D01*
X395382Y95382D01*
X395542Y95250D01*
Y94750D01*
X395382Y94618D01*
X394569Y93629D01*
X393966Y92500D01*
X393594Y91274D01*
X393469Y90000D01*
X393594Y88726D01*
X393966Y87501D01*
X394569Y86371D01*
X395382Y85382D01*
X395542Y85250D01*
Y84750D01*
X395382Y84618D01*
X394569Y83629D01*
X393966Y82499D01*
X393594Y81274D01*
X393469Y80000D01*
X393594Y78726D01*
X393966Y77500D01*
X394569Y76371D01*
X395382Y75382D01*
X396371Y74569D01*
X397500Y73966D01*
X398726Y73594D01*
X400000Y73469D01*
X401274Y73594D01*
X401873Y73776D01*
X402079Y73316D01*
X400866Y72572D01*
X399011Y70989D01*
X397428Y69134D01*
X396154Y67055D01*
X395221Y64802D01*
X394651Y62431D01*
X394460Y60000D01*
X394651Y57569D01*
X395221Y55198D01*
X396154Y52945D01*
X397428Y50866D01*
X399011Y49011D01*
X400866Y47428D01*
X402945Y46154D01*
X405198Y45221D01*
X407569Y44651D01*
X410000Y44460D01*
X412431Y44651D01*
X414802Y45221D01*
X417055Y46154D01*
X419134Y47428D01*
X420989Y49011D01*
X422572Y50866D01*
X423846Y52945D01*
X424779Y55198D01*
X425349Y57569D01*
X425540Y60000D01*
X425349Y62431D01*
X424779Y64802D01*
X423846Y67055D01*
X422572Y69134D01*
X420989Y70989D01*
X419134Y72572D01*
X417921Y73316D01*
X418127Y73776D01*
X418726Y73594D01*
X420000Y73469D01*
X421274Y73594D01*
X422500Y73966D01*
X423629Y74569D01*
X424618Y75382D01*
X425431Y76371D01*
X426034Y77500D01*
X426406Y78726D01*
X426532Y80000D01*
X426406Y81274D01*
X426034Y82499D01*
X425431Y83629D01*
X424618Y84618D01*
X424458Y84750D01*
Y85250D01*
X424618Y85382D01*
X425431Y86371D01*
X426034Y87501D01*
X426406Y88726D01*
X426532Y90000D01*
X426406Y91274D01*
X426034Y92500D01*
X425431Y93629D01*
X424618Y94618D01*
X424458Y94750D01*
Y95250D01*
X424618Y95382D01*
X425431Y96371D01*
X426034Y97500D01*
X426406Y98726D01*
X426532Y100000D01*
X426406Y101274D01*
X426034Y102499D01*
X425431Y103629D01*
X424618Y104618D01*
X424458Y104750D01*
Y105250D01*
X424618Y105382D01*
X425431Y106371D01*
X426034Y107501D01*
X426406Y108726D01*
X426532Y110000D01*
X426406Y111274D01*
X426034Y112499D01*
X425431Y113629D01*
X424618Y114618D01*
X424458Y114750D01*
Y115250D01*
X424618Y115382D01*
X425431Y116371D01*
X426034Y117500D01*
X426406Y118726D01*
X426532Y120000D01*
X426406Y121274D01*
X426034Y122500D01*
X425431Y123629D01*
X424618Y124618D01*
X423629Y125431D01*
X422500Y126034D01*
X421274Y126406D01*
X420000Y126531D01*
D02*
G37*
G36*
X183559Y154834D02*
X176441D01*
Y148307D01*
X178471D01*
Y147610D01*
X176441D01*
Y141673D01*
X183559D01*
Y147610D01*
X181529D01*
Y148307D01*
X183559D01*
Y154834D01*
D02*
G37*
G36*
X203559Y154835D02*
X196441D01*
Y148307D01*
X198471D01*
Y147610D01*
X196441D01*
Y141673D01*
X203559D01*
Y147610D01*
X201529D01*
Y148307D01*
X203559D01*
Y154835D01*
D02*
G37*
G36*
X193559D02*
X186441D01*
Y148307D01*
X188471D01*
Y147610D01*
X186441D01*
Y141673D01*
X193559D01*
Y147610D01*
X191529D01*
Y148307D01*
X193559D01*
Y154835D01*
D02*
G37*
G36*
X364106Y123021D02*
X360106D01*
X359521Y122905D01*
X359025Y122573D01*
X340481Y104029D01*
X334200D01*
X334171Y104072D01*
X333449Y104554D01*
X332598Y104724D01*
X326299D01*
X325448Y104554D01*
X324727Y104072D01*
X324245Y103351D01*
X324075Y102500D01*
X324245Y101649D01*
X324727Y100927D01*
X325448Y100445D01*
X326299Y100276D01*
X332598D01*
X333449Y100445D01*
X334171Y100927D01*
X334200Y100971D01*
X341114D01*
X341700Y101087D01*
X342196Y101419D01*
X353539Y112761D01*
X353966Y112499D01*
X353594Y111274D01*
X353469Y110000D01*
X353594Y108726D01*
X353966Y107501D01*
X354569Y106371D01*
X355382Y105382D01*
X355542Y105250D01*
Y104750D01*
X355382Y104618D01*
X354569Y103629D01*
X353966Y102499D01*
X353594Y101274D01*
X353469Y100000D01*
X353594Y98726D01*
X353966Y97500D01*
X354569Y96371D01*
X355382Y95382D01*
X355542Y95250D01*
Y94750D01*
X355382Y94618D01*
X354569Y93629D01*
X353966Y92500D01*
X353636Y91411D01*
X353136Y91486D01*
Y91492D01*
X353019Y92077D01*
X352688Y92573D01*
X346679Y98581D01*
X346183Y98913D01*
X345598Y99029D01*
X334200D01*
X334171Y99072D01*
X333449Y99555D01*
X332598Y99724D01*
X326299D01*
X325448Y99555D01*
X324727Y99072D01*
X324245Y98351D01*
X324075Y97500D01*
X324245Y96649D01*
X324727Y95928D01*
X325448Y95446D01*
X326299Y95276D01*
X332598D01*
X333449Y95446D01*
X334171Y95928D01*
X334200Y95971D01*
X344965D01*
X350077Y90858D01*
Y59625D01*
X338473Y48021D01*
X302240D01*
X300305Y49956D01*
X300624Y50344D01*
X301021Y50079D01*
X301606Y49962D01*
X336606D01*
X337192Y50079D01*
X337688Y50410D01*
X347688Y60410D01*
X348019Y60906D01*
X348136Y61492D01*
Y78992D01*
X348039Y79480D01*
X348019Y79577D01*
X347688Y80073D01*
X344180Y83581D01*
X343683Y83913D01*
X343098Y84029D01*
X334200D01*
X334171Y84073D01*
X333449Y84554D01*
X332598Y84724D01*
X326299D01*
X325448Y84554D01*
X324727Y84073D01*
X324245Y83351D01*
X324075Y82500D01*
X324245Y81649D01*
X324727Y80927D01*
X325448Y80445D01*
X326299Y80276D01*
X332598D01*
X333449Y80445D01*
X334171Y80927D01*
X334200Y80971D01*
X342465D01*
X345077Y78358D01*
Y62125D01*
X335973Y53021D01*
X302240D01*
X300305Y54956D01*
X300624Y55344D01*
X301021Y55079D01*
X301606Y54962D01*
X324106D01*
X324692Y55079D01*
X325188Y55410D01*
X330530Y60753D01*
X330862Y61249D01*
X330978Y61834D01*
Y70276D01*
X332598D01*
X333449Y70446D01*
X334171Y70928D01*
X334653Y71649D01*
X334822Y72500D01*
X334653Y73351D01*
X334171Y74072D01*
X333449Y74555D01*
X332598Y74724D01*
X326299D01*
X325448Y74555D01*
X324727Y74072D01*
X324245Y73351D01*
X324075Y72500D01*
X324245Y71649D01*
X324727Y70928D01*
X325448Y70446D01*
X326299Y70276D01*
X327919D01*
Y62468D01*
X323473Y58021D01*
X302240D01*
X279180Y81081D01*
X278683Y81413D01*
X278098Y81529D01*
X266329D01*
X266034Y82499D01*
X265431Y83629D01*
X264618Y84618D01*
X264458Y84750D01*
Y85250D01*
X264618Y85382D01*
X265431Y86371D01*
X266034Y87501D01*
X266329Y88471D01*
X284965D01*
X297017Y76419D01*
X297513Y76087D01*
X298098Y75971D01*
X305800D01*
X305829Y75928D01*
X306551Y75445D01*
X307402Y75276D01*
X313701D01*
X314552Y75445D01*
X315273Y75928D01*
X315755Y76649D01*
X315925Y77500D01*
X315755Y78351D01*
X315273Y79072D01*
X314552Y79554D01*
X313701Y79724D01*
X307402D01*
X306551Y79554D01*
X305829Y79072D01*
X305800Y79029D01*
X298732D01*
X286680Y91081D01*
X286183Y91413D01*
X285598Y91529D01*
X266329D01*
X266034Y92500D01*
X265431Y93629D01*
X264618Y94618D01*
X264458Y94750D01*
Y95250D01*
X264618Y95382D01*
X265431Y96371D01*
X266034Y97500D01*
X266329Y98471D01*
X284965D01*
X297017Y86419D01*
X297513Y86087D01*
X298098Y85971D01*
X305800D01*
X305829Y85927D01*
X306551Y85445D01*
X307402Y85276D01*
X313701D01*
X314552Y85445D01*
X315273Y85927D01*
X315755Y86649D01*
X315925Y87500D01*
X315755Y88351D01*
X315273Y89073D01*
X314552Y89555D01*
X313701Y89724D01*
X307402D01*
X306551Y89555D01*
X305829Y89073D01*
X305800Y89029D01*
X298732D01*
X286680Y101081D01*
X286183Y101413D01*
X285598Y101529D01*
X266329D01*
X266034Y102499D01*
X265431Y103629D01*
X264618Y104618D01*
X264458Y104750D01*
Y105250D01*
X264618Y105382D01*
X265431Y106371D01*
X266034Y107501D01*
X266329Y108471D01*
X284965D01*
X297017Y96419D01*
X297513Y96087D01*
X298098Y95971D01*
X305800D01*
X305829Y95928D01*
X306551Y95446D01*
X307402Y95276D01*
X313701D01*
X314552Y95446D01*
X315273Y95928D01*
X315755Y96649D01*
X315925Y97500D01*
X315755Y98351D01*
X315273Y99072D01*
X314552Y99555D01*
X313701Y99724D01*
X307402D01*
X306551Y99555D01*
X305829Y99072D01*
X305800Y99029D01*
X298732D01*
X286680Y111081D01*
X286183Y111413D01*
X285598Y111529D01*
X266329D01*
X266034Y112499D01*
X265431Y113629D01*
X264618Y114618D01*
X263629Y115431D01*
X262499Y116034D01*
X261274Y116406D01*
X260000Y116531D01*
X258726Y116406D01*
X257501Y116034D01*
X256371Y115431D01*
X255382Y114618D01*
X254569Y113629D01*
X253966Y112499D01*
X253672Y111529D01*
X246610D01*
Y113559D01*
X240673D01*
Y106441D01*
X246610D01*
Y108471D01*
X253672D01*
X253966Y107501D01*
X254569Y106371D01*
X255382Y105382D01*
X255542Y105250D01*
Y104750D01*
X255382Y104618D01*
X254569Y103629D01*
X253966Y102499D01*
X253672Y101529D01*
X246610D01*
Y103559D01*
X240673D01*
Y96441D01*
X246610D01*
Y98471D01*
X253672D01*
X253966Y97500D01*
X254569Y96371D01*
X255382Y95382D01*
X255542Y95250D01*
Y94750D01*
X255382Y94618D01*
X254569Y93629D01*
X253966Y92500D01*
X253672Y91529D01*
X246610D01*
Y93559D01*
X240673D01*
Y86441D01*
X246610D01*
Y88471D01*
X253672D01*
X253966Y87501D01*
X254569Y86371D01*
X255382Y85382D01*
X255542Y85250D01*
Y84750D01*
X255382Y84618D01*
X254569Y83629D01*
X253966Y82499D01*
X253672Y81529D01*
X246610D01*
Y83559D01*
X240673D01*
Y76441D01*
X246610D01*
Y78471D01*
X253672D01*
X253966Y77500D01*
X254569Y76371D01*
X255382Y75382D01*
X255542Y75250D01*
Y74750D01*
X255382Y74618D01*
X254569Y73629D01*
X253966Y72500D01*
X253672Y71529D01*
X246610D01*
Y73559D01*
X240673D01*
Y66441D01*
X246610D01*
Y68471D01*
X253672D01*
X253966Y67501D01*
X254569Y66371D01*
X255382Y65382D01*
X255542Y65250D01*
Y64750D01*
X255382Y64618D01*
X254569Y63629D01*
X253966Y62499D01*
X253672Y61529D01*
X246610D01*
Y63559D01*
X240673D01*
Y56441D01*
X246610D01*
Y58471D01*
X253672D01*
X253966Y57500D01*
X254569Y56371D01*
X255382Y55382D01*
X256371Y54569D01*
X257501Y53966D01*
X258726Y53594D01*
X260000Y53469D01*
X261274Y53594D01*
X262499Y53966D01*
X263629Y54569D01*
X264618Y55382D01*
X265431Y56371D01*
X266034Y57500D01*
X266329Y58471D01*
X287465D01*
X300525Y45410D01*
X301021Y45079D01*
X301606Y44962D01*
X339106D01*
X339691Y45079D01*
X340188Y45410D01*
X352688Y57910D01*
X353019Y58407D01*
X353089Y58756D01*
X353594Y58731D01*
X353594Y58726D01*
X353966Y57500D01*
X354569Y56371D01*
X355382Y55382D01*
X356371Y54569D01*
X357501Y53966D01*
X358726Y53594D01*
X360000Y53469D01*
X361274Y53594D01*
X362499Y53966D01*
X363629Y54569D01*
X364618Y55382D01*
X365431Y56371D01*
X366034Y57500D01*
X366329Y58471D01*
X368615D01*
X369200Y58587D01*
X369696Y58919D01*
X372188Y61410D01*
X372519Y61906D01*
X372636Y62492D01*
Y114492D01*
X372538Y114980D01*
X372519Y115077D01*
X372188Y115573D01*
X365188Y122573D01*
X364691Y122905D01*
X364106Y123021D01*
D02*
G37*
G36*
X313701Y84724D02*
X307402D01*
X306551Y84554D01*
X305829Y84073D01*
X305800Y84029D01*
X301426D01*
X300895Y84384D01*
X300114Y84539D01*
X299334Y84384D01*
X298673Y83942D01*
X298231Y83280D01*
X298075Y82500D01*
X298231Y81720D01*
X298673Y81058D01*
X299334Y80616D01*
X300114Y80461D01*
X300895Y80616D01*
X301426Y80971D01*
X305800D01*
X305829Y80927D01*
X306551Y80445D01*
X307402Y80276D01*
X313701D01*
X314552Y80445D01*
X315273Y80927D01*
X315755Y81649D01*
X315925Y82500D01*
X315755Y83351D01*
X315273Y84073D01*
X314552Y84554D01*
X313701Y84724D01*
D02*
G37*
G36*
X332598Y79724D02*
X326299D01*
X325448Y79554D01*
X324727Y79072D01*
X324245Y78351D01*
X324075Y77500D01*
X324245Y76649D01*
X324727Y75928D01*
X325448Y75445D01*
X326299Y75276D01*
X332598D01*
X333449Y75445D01*
X334171Y75928D01*
X334200Y75971D01*
X339787D01*
X340318Y75616D01*
X341098Y75461D01*
X341878Y75616D01*
X342540Y76058D01*
X342982Y76720D01*
X343137Y77500D01*
X342982Y78280D01*
X342540Y78942D01*
X341878Y79384D01*
X341098Y79539D01*
X340318Y79384D01*
X339787Y79029D01*
X334200D01*
X334171Y79072D01*
X333449Y79554D01*
X332598Y79724D01*
D02*
G37*
G36*
X60000Y75540D02*
X57569Y75349D01*
X55198Y74779D01*
X52945Y73846D01*
X50866Y72572D01*
X49011Y70989D01*
X47428Y69134D01*
X46154Y67055D01*
X45221Y64802D01*
X44651Y62431D01*
X44460Y60000D01*
X44651Y57569D01*
X45221Y55198D01*
X46154Y52945D01*
X47428Y50866D01*
X49011Y49011D01*
X50866Y47428D01*
X52945Y46154D01*
X55198Y45221D01*
X57569Y44651D01*
X60000Y44460D01*
X62431Y44651D01*
X64802Y45221D01*
X67055Y46154D01*
X69134Y47428D01*
X70989Y49011D01*
X72572Y50866D01*
X73846Y52945D01*
X74779Y55198D01*
X75349Y57569D01*
X75540Y60000D01*
X75349Y62431D01*
X74779Y64802D01*
X73846Y67055D01*
X72572Y69134D01*
X70989Y70989D01*
X69134Y72572D01*
X67055Y73846D01*
X64802Y74779D01*
X62431Y75349D01*
X60000Y75540D01*
D02*
G37*
G36*
X332598Y89724D02*
X326299D01*
X325448Y89555D01*
X324727Y89073D01*
X324698Y89029D01*
X323114D01*
X322529Y88913D01*
X322033Y88581D01*
X320025Y86573D01*
X319693Y86077D01*
X319577Y85492D01*
Y65492D01*
X319693Y64907D01*
X320025Y64410D01*
X320098Y64337D01*
X320222Y63711D01*
X320664Y63050D01*
X321326Y62608D01*
X322106Y62453D01*
X322887Y62608D01*
X323548Y63050D01*
X323990Y63711D01*
X324145Y64492D01*
X323990Y65272D01*
X323548Y65934D01*
X322887Y66376D01*
X322636Y66426D01*
Y84858D01*
X323748Y85971D01*
X324698D01*
X324727Y85927D01*
X325448Y85445D01*
X326299Y85276D01*
X332598D01*
X333449Y85445D01*
X334171Y85927D01*
X334653Y86649D01*
X334822Y87500D01*
X334653Y88351D01*
X334171Y89073D01*
X333449Y89555D01*
X332598Y89724D01*
D02*
G37*
G36*
X313701Y94724D02*
X307402D01*
X306551Y94555D01*
X305829Y94073D01*
X305800Y94029D01*
X301405D01*
X300887Y94376D01*
X300106Y94531D01*
X299326Y94376D01*
X298664Y93934D01*
X298222Y93272D01*
X298067Y92492D01*
X298222Y91711D01*
X298664Y91050D01*
X299326Y90608D01*
X300106Y90453D01*
X300887Y90608D01*
X301430Y90971D01*
X305800D01*
X305829Y90927D01*
X306551Y90446D01*
X307402Y90276D01*
X313701D01*
X314552Y90446D01*
X315273Y90927D01*
X315755Y91649D01*
X315925Y92500D01*
X315755Y93351D01*
X315273Y94073D01*
X314552Y94555D01*
X313701Y94724D01*
D02*
G37*
G36*
X157500Y94545D02*
X156603Y94367D01*
X155842Y93858D01*
X155333Y93097D01*
X155255Y92703D01*
X154745D01*
X154667Y93097D01*
X154158Y93858D01*
X153397Y94367D01*
X152500Y94545D01*
X151603Y94367D01*
X150842Y93858D01*
X150333Y93097D01*
X150255Y92703D01*
X149745D01*
X149667Y93097D01*
X149158Y93858D01*
X148397Y94367D01*
X147500Y94545D01*
X146603Y94367D01*
X145842Y93858D01*
X145333Y93097D01*
X145255Y92703D01*
X144745D01*
X144667Y93097D01*
X144158Y93858D01*
X143397Y94367D01*
X142500Y94545D01*
X141603Y94367D01*
X140842Y93858D01*
X140333Y93097D01*
X140255Y92703D01*
X139745D01*
X139667Y93097D01*
X139158Y93858D01*
X138397Y94367D01*
X137500Y94545D01*
X136603Y94367D01*
X135842Y93858D01*
X135333Y93097D01*
X135255Y92703D01*
X134745D01*
X134667Y93097D01*
X134158Y93858D01*
X133397Y94367D01*
X132500Y94545D01*
X131603Y94367D01*
X130842Y93858D01*
X130333Y93097D01*
X130255Y92703D01*
X129745D01*
X129667Y93097D01*
X129158Y93858D01*
X128397Y94367D01*
X127500Y94545D01*
X126603Y94367D01*
X125842Y93858D01*
X125333Y93097D01*
X125255Y92703D01*
X124745D01*
X124667Y93097D01*
X124158Y93858D01*
X123397Y94367D01*
X122500Y94545D01*
X121603Y94367D01*
X120842Y93858D01*
X120333Y93097D01*
X120155Y92200D01*
Y90529D01*
X103000D01*
X102415Y90413D01*
X101919Y90081D01*
X89919Y78081D01*
X89587Y77585D01*
X89471Y77000D01*
Y56479D01*
X88726Y56406D01*
X87501Y56034D01*
X86371Y55431D01*
X85382Y54618D01*
X84569Y53629D01*
X83966Y52500D01*
X83594Y51274D01*
X83469Y50000D01*
X83594Y48726D01*
X83966Y47501D01*
X84569Y46371D01*
X85382Y45382D01*
X86371Y44569D01*
X87501Y43966D01*
X88726Y43594D01*
X90000Y43468D01*
X91274Y43594D01*
X92500Y43966D01*
X93629Y44569D01*
X94618Y45382D01*
X95431Y46371D01*
X96034Y47501D01*
X96329Y48471D01*
X103672D01*
X103966Y47501D01*
X104569Y46371D01*
X105382Y45382D01*
X106371Y44569D01*
X107501Y43966D01*
X108726Y43594D01*
X110000Y43468D01*
X111274Y43594D01*
X112499Y43966D01*
X113629Y44569D01*
X114618Y45382D01*
X114750Y45542D01*
X115250D01*
X115382Y45382D01*
X116371Y44569D01*
X117500Y43966D01*
X118726Y43594D01*
X120000Y43468D01*
X121274Y43594D01*
X122500Y43966D01*
X123629Y44569D01*
X124618Y45382D01*
X124750Y45542D01*
X125250D01*
X125382Y45382D01*
X126371Y44569D01*
X127500Y43966D01*
X128726Y43594D01*
X130000Y43468D01*
X131274Y43594D01*
X132500Y43966D01*
X133629Y44569D01*
X134618Y45382D01*
X134750Y45542D01*
X135250D01*
X135382Y45382D01*
X136371Y44569D01*
X137501Y43966D01*
X138726Y43594D01*
X140000Y43468D01*
X141274Y43594D01*
X142499Y43966D01*
X143629Y44569D01*
X144618Y45382D01*
X144750Y45542D01*
X145250D01*
X145382Y45382D01*
X146371Y44569D01*
X147501Y43966D01*
X148726Y43594D01*
X150000Y43468D01*
X151274Y43594D01*
X152499Y43966D01*
X153629Y44569D01*
X154618Y45382D01*
X154750Y45542D01*
X155250D01*
X155382Y45382D01*
X156371Y44569D01*
X157501Y43966D01*
X158726Y43594D01*
X160000Y43468D01*
X161274Y43594D01*
X162499Y43966D01*
X163629Y44569D01*
X164618Y45382D01*
X164750Y45542D01*
X165250D01*
X165382Y45382D01*
X166371Y44569D01*
X167500Y43966D01*
X168726Y43594D01*
X170000Y43468D01*
X171274Y43594D01*
X172500Y43966D01*
X173629Y44569D01*
X174618Y45382D01*
X175431Y46371D01*
X176034Y47501D01*
X176406Y48726D01*
X176531Y50000D01*
X176406Y51274D01*
X176034Y52500D01*
X175431Y53629D01*
X174618Y54618D01*
X174458Y54750D01*
Y55250D01*
X174618Y55382D01*
X175431Y56371D01*
X176034Y57500D01*
X176406Y58726D01*
X176531Y60000D01*
X176406Y61274D01*
X176034Y62499D01*
X175431Y63629D01*
X174618Y64618D01*
X173629Y65431D01*
X172500Y66034D01*
X171529Y66329D01*
Y71000D01*
X171413Y71585D01*
X171081Y72081D01*
X159146Y84017D01*
X159158Y84142D01*
X159667Y84903D01*
X159845Y85800D01*
Y92200D01*
X159667Y93097D01*
X159158Y93858D01*
X158397Y94367D01*
X157500Y94545D01*
D02*
G37*
G36*
X332598Y94724D02*
X326299D01*
X325448Y94555D01*
X324727Y94073D01*
X324245Y93351D01*
X324075Y92500D01*
X324245Y91649D01*
X324727Y90927D01*
X325448Y90446D01*
X326299Y90276D01*
X332598D01*
X333449Y90446D01*
X334171Y90927D01*
X334653Y91649D01*
X334822Y92500D01*
X334653Y93351D01*
X334171Y94073D01*
X333449Y94555D01*
X332598Y94724D01*
D02*
G37*
G36*
X181610Y316559D02*
X175673D01*
Y309441D01*
X178471D01*
Y306329D01*
X177500Y306034D01*
X176371Y305431D01*
X175382Y304618D01*
X174569Y303629D01*
X173966Y302500D01*
X173594Y301274D01*
X173469Y300000D01*
X173594Y298726D01*
X173966Y297500D01*
X174569Y296371D01*
X175382Y295382D01*
X176371Y294569D01*
X177500Y293966D01*
X178726Y293594D01*
X180000Y293469D01*
X181274Y293594D01*
X182500Y293966D01*
X183394Y294444D01*
X195329Y282508D01*
Y255071D01*
X194874D01*
Y248346D01*
X217740D01*
Y255071D01*
X217285D01*
Y275122D01*
X236607Y294443D01*
X237501Y293966D01*
X238726Y293594D01*
X240000Y293468D01*
X241274Y293594D01*
X242499Y293966D01*
X243629Y294569D01*
X244618Y295381D01*
X245431Y296371D01*
X246034Y297500D01*
X246406Y298726D01*
X246531Y300000D01*
X246406Y301274D01*
X246034Y302499D01*
X245431Y303629D01*
X244618Y304618D01*
X243629Y305431D01*
X242499Y306034D01*
X241274Y306406D01*
X240000Y306531D01*
X238726Y306406D01*
X237501Y306034D01*
X236371Y305431D01*
X235382Y304618D01*
X235250Y304458D01*
X234750D01*
X234618Y304618D01*
X233629Y305431D01*
X232500Y306034D01*
X231274Y306406D01*
X230000Y306531D01*
X228726Y306406D01*
X227501Y306034D01*
X226371Y305431D01*
X225382Y304618D01*
X225250Y304458D01*
X224750D01*
X224619Y304618D01*
X223629Y305431D01*
X222500Y306034D01*
X221274Y306406D01*
X220000Y306531D01*
X218726Y306406D01*
X217501Y306034D01*
X216371Y305431D01*
X215382Y304618D01*
X215250Y304458D01*
X214750D01*
X214618Y304619D01*
X213629Y305431D01*
X212499Y306034D01*
X211274Y306406D01*
X210000Y306532D01*
X208726Y306406D01*
X207501Y306034D01*
X206371Y305431D01*
X205382Y304619D01*
X205250Y304458D01*
X204750D01*
X204618Y304618D01*
X203629Y305431D01*
X202500Y306034D01*
X201274Y306406D01*
X200000Y306531D01*
X198726Y306406D01*
X197501Y306034D01*
X196371Y305431D01*
X195382Y304618D01*
X195250Y304458D01*
X194750D01*
X194618Y304619D01*
X193629Y305431D01*
X192499Y306034D01*
X191274Y306406D01*
X190000Y306532D01*
X188726Y306406D01*
X187501Y306034D01*
X186371Y305431D01*
X185382Y304619D01*
X185250Y304458D01*
X184750D01*
X184618Y304618D01*
X183629Y305431D01*
X182500Y306034D01*
X181529Y306329D01*
Y309441D01*
X181610D01*
Y316559D01*
D02*
G37*
G36*
X90000Y316531D02*
X88726Y316406D01*
X87501Y316034D01*
X86371Y315431D01*
X85382Y314618D01*
X85250Y314458D01*
X84750D01*
X84618Y314618D01*
X83629Y315431D01*
X82499Y316034D01*
X81274Y316406D01*
X80000Y316531D01*
X78726Y316406D01*
X77500Y316034D01*
X76371Y315431D01*
X75382Y314618D01*
X75250Y314458D01*
X74750D01*
X74618Y314618D01*
X73629Y315431D01*
X72500Y316034D01*
X71274Y316406D01*
X70000Y316531D01*
X68726Y316406D01*
X67501Y316034D01*
X66371Y315431D01*
X65382Y314618D01*
X65250Y314458D01*
X64750D01*
X64618Y314618D01*
X63629Y315431D01*
X62499Y316034D01*
X61274Y316406D01*
X60000Y316531D01*
X58726Y316406D01*
X57500Y316034D01*
X56371Y315431D01*
X55382Y314618D01*
X55250Y314458D01*
X54750D01*
X54618Y314618D01*
X53629Y315431D01*
X52500Y316034D01*
X51274Y316406D01*
X50000Y316531D01*
X48726Y316406D01*
X47501Y316034D01*
X46371Y315431D01*
X45382Y314618D01*
X44569Y313629D01*
X43966Y312499D01*
X43594Y311274D01*
X43468Y310000D01*
X43594Y308726D01*
X43966Y307501D01*
X44569Y306371D01*
X45382Y305382D01*
X45542Y305250D01*
Y304750D01*
X45382Y304618D01*
X44569Y303629D01*
X43966Y302500D01*
X43594Y301274D01*
X43468Y300000D01*
X43594Y298726D01*
X43966Y297500D01*
X44569Y296371D01*
X45382Y295382D01*
X45542Y295250D01*
Y294750D01*
X45382Y294618D01*
X44569Y293629D01*
X43966Y292499D01*
X43594Y291274D01*
X43468Y290000D01*
X43594Y288726D01*
X43966Y287501D01*
X44569Y286371D01*
X45382Y285382D01*
X45542Y285250D01*
Y284750D01*
X45382Y284618D01*
X44569Y283629D01*
X43966Y282500D01*
X43594Y281274D01*
X43468Y280000D01*
X43594Y278726D01*
X43966Y277501D01*
X44569Y276371D01*
X45382Y275382D01*
X45542Y275250D01*
Y274750D01*
X45382Y274618D01*
X44569Y273629D01*
X43966Y272499D01*
X43594Y271274D01*
X43468Y270000D01*
X43594Y268726D01*
X43966Y267500D01*
X44569Y266371D01*
X45382Y265382D01*
X45542Y265250D01*
Y264750D01*
X45382Y264618D01*
X44569Y263629D01*
X43966Y262499D01*
X43594Y261274D01*
X43468Y260000D01*
X43594Y258726D01*
X43966Y257501D01*
X44569Y256371D01*
X45382Y255382D01*
X45542Y255250D01*
Y254750D01*
X45382Y254618D01*
X44569Y253629D01*
X43966Y252500D01*
X43594Y251274D01*
X43468Y250000D01*
X43594Y248726D01*
X43966Y247500D01*
X44569Y246371D01*
X45382Y245382D01*
X45542Y245250D01*
Y244750D01*
X45382Y244618D01*
X44569Y243629D01*
X43966Y242499D01*
X43594Y241274D01*
X43468Y240000D01*
X43594Y238726D01*
X43966Y237501D01*
X44569Y236371D01*
X45382Y235382D01*
X45542Y235250D01*
Y234750D01*
X45382Y234618D01*
X44569Y233629D01*
X43966Y232500D01*
X43594Y231274D01*
X43468Y230000D01*
X43594Y228726D01*
X43966Y227501D01*
X44569Y226371D01*
X45382Y225382D01*
X45542Y225250D01*
Y224750D01*
X45382Y224618D01*
X44569Y223629D01*
X43966Y222499D01*
X43594Y221274D01*
X43468Y220000D01*
X43594Y218726D01*
X43966Y217500D01*
X44569Y216371D01*
X45382Y215382D01*
X45542Y215250D01*
Y214750D01*
X45382Y214618D01*
X44569Y213629D01*
X43966Y212499D01*
X43594Y211274D01*
X43468Y210000D01*
X43594Y208726D01*
X43966Y207501D01*
X44569Y206371D01*
X45382Y205382D01*
X45542Y205250D01*
Y204750D01*
X45382Y204618D01*
X44569Y203629D01*
X43966Y202500D01*
X43594Y201274D01*
X43468Y200000D01*
X43594Y198726D01*
X43966Y197501D01*
X44569Y196371D01*
X45382Y195382D01*
X45542Y195250D01*
Y194750D01*
X45382Y194618D01*
X44569Y193629D01*
X43966Y192499D01*
X43594Y191274D01*
X43468Y190000D01*
X43594Y188726D01*
X43966Y187501D01*
X44569Y186371D01*
X45382Y185382D01*
X45542Y185250D01*
Y184750D01*
X45382Y184618D01*
X44569Y183629D01*
X43966Y182500D01*
X43594Y181274D01*
X43468Y180000D01*
X43594Y178726D01*
X43966Y177500D01*
X44569Y176371D01*
X45382Y175382D01*
X45542Y175250D01*
Y174750D01*
X45382Y174618D01*
X44569Y173629D01*
X43966Y172500D01*
X43594Y171274D01*
X43468Y170000D01*
X43594Y168726D01*
X43966Y167500D01*
X44569Y166371D01*
X45382Y165382D01*
X45542Y165250D01*
Y164750D01*
X45382Y164618D01*
X44569Y163629D01*
X43966Y162499D01*
X43594Y161274D01*
X43468Y160000D01*
X43594Y158726D01*
X43966Y157501D01*
X44569Y156371D01*
X45382Y155382D01*
X45542Y155250D01*
Y154750D01*
X45382Y154618D01*
X44569Y153629D01*
X43966Y152499D01*
X43594Y151274D01*
X43468Y150000D01*
X43594Y148726D01*
X43966Y147501D01*
X44569Y146371D01*
X45382Y145382D01*
X45542Y145250D01*
Y144750D01*
X45382Y144618D01*
X44569Y143629D01*
X43966Y142499D01*
X43594Y141274D01*
X43468Y140000D01*
X43594Y138726D01*
X43966Y137501D01*
X44569Y136371D01*
X45382Y135382D01*
X45542Y135250D01*
Y134750D01*
X45382Y134618D01*
X44569Y133629D01*
X43966Y132500D01*
X43594Y131274D01*
X43468Y130000D01*
X43594Y128726D01*
X43966Y127500D01*
X44569Y126371D01*
X45382Y125382D01*
X45542Y125250D01*
Y124750D01*
X45382Y124618D01*
X44569Y123629D01*
X43966Y122500D01*
X43594Y121274D01*
X43468Y120000D01*
X43594Y118726D01*
X43966Y117500D01*
X44569Y116371D01*
X45382Y115382D01*
X45542Y115250D01*
Y114750D01*
X45382Y114618D01*
X44569Y113629D01*
X43966Y112499D01*
X43594Y111274D01*
X43468Y110000D01*
X43594Y108726D01*
X43966Y107501D01*
X44569Y106371D01*
X45382Y105382D01*
X45542Y105250D01*
Y104750D01*
X45382Y104618D01*
X44569Y103629D01*
X43966Y102499D01*
X43594Y101274D01*
X43468Y100000D01*
X43594Y98726D01*
X43966Y97500D01*
X44569Y96371D01*
X45382Y95382D01*
X45542Y95250D01*
Y94750D01*
X45382Y94618D01*
X44569Y93629D01*
X43966Y92500D01*
X43594Y91274D01*
X43468Y90000D01*
X43594Y88726D01*
X43966Y87501D01*
X44569Y86371D01*
X45382Y85382D01*
X46371Y84569D01*
X47501Y83966D01*
X48726Y83594D01*
X50000Y83469D01*
X51274Y83594D01*
X52500Y83966D01*
X53629Y84569D01*
X54618Y85382D01*
X54750Y85542D01*
X55250D01*
X55382Y85382D01*
X56371Y84569D01*
X57500Y83966D01*
X58726Y83594D01*
X60000Y83469D01*
X61274Y83594D01*
X62499Y83966D01*
X63629Y84569D01*
X64618Y85382D01*
X64750Y85542D01*
X65250D01*
X65382Y85382D01*
X66371Y84569D01*
X67501Y83966D01*
X68726Y83594D01*
X70000Y83469D01*
X71274Y83594D01*
X72500Y83966D01*
X73629Y84569D01*
X74618Y85382D01*
X74750Y85542D01*
X75250D01*
X75382Y85382D01*
X76371Y84569D01*
X77500Y83966D01*
X78726Y83594D01*
X80000Y83469D01*
X81274Y83594D01*
X82499Y83966D01*
X83629Y84569D01*
X84618Y85382D01*
X84750Y85542D01*
X85250D01*
X85382Y85382D01*
X86371Y84569D01*
X87501Y83966D01*
X88726Y83594D01*
X90000Y83469D01*
X91274Y83594D01*
X92500Y83966D01*
X93629Y84569D01*
X94618Y85382D01*
X95431Y86371D01*
X96034Y87501D01*
X96406Y88726D01*
X96531Y90000D01*
X96406Y91274D01*
X96034Y92500D01*
X95431Y93629D01*
X94618Y94618D01*
X94458Y94750D01*
Y95250D01*
X94618Y95382D01*
X95431Y96371D01*
X96034Y97500D01*
X96406Y98726D01*
X96531Y100000D01*
X96406Y101274D01*
X96034Y102499D01*
X95431Y103629D01*
X94618Y104618D01*
X94458Y104750D01*
Y105250D01*
X94618Y105382D01*
X95431Y106371D01*
X96034Y107501D01*
X96406Y108726D01*
X96531Y110000D01*
X96406Y111274D01*
X96034Y112499D01*
X95431Y113629D01*
X94618Y114618D01*
X94458Y114750D01*
Y115250D01*
X94618Y115382D01*
X95431Y116371D01*
X96034Y117500D01*
X96406Y118726D01*
X96531Y120000D01*
X96406Y121274D01*
X96034Y122500D01*
X95431Y123629D01*
X94618Y124618D01*
X94458Y124750D01*
Y125250D01*
X94618Y125382D01*
X95431Y126371D01*
X96034Y127500D01*
X96406Y128726D01*
X96531Y130000D01*
X96406Y131274D01*
X96034Y132500D01*
X95431Y133629D01*
X94618Y134618D01*
X94458Y134750D01*
Y135250D01*
X94618Y135382D01*
X95431Y136371D01*
X96034Y137501D01*
X96406Y138726D01*
X96531Y140000D01*
X96406Y141274D01*
X96034Y142499D01*
X95431Y143629D01*
X94618Y144618D01*
X94458Y144750D01*
Y145250D01*
X94618Y145382D01*
X95431Y146371D01*
X96034Y147501D01*
X96406Y148726D01*
X96531Y150000D01*
X96406Y151274D01*
X96034Y152499D01*
X95431Y153629D01*
X94618Y154618D01*
X94458Y154750D01*
Y155250D01*
X94618Y155382D01*
X95431Y156371D01*
X96034Y157501D01*
X96406Y158726D01*
X96531Y160000D01*
X96406Y161274D01*
X96034Y162499D01*
X95431Y163629D01*
X94618Y164618D01*
X94458Y164750D01*
Y165250D01*
X94618Y165382D01*
X95431Y166371D01*
X96034Y167500D01*
X96406Y168726D01*
X96531Y170000D01*
X96406Y171274D01*
X96034Y172500D01*
X95431Y173629D01*
X94618Y174618D01*
X94458Y174750D01*
Y175250D01*
X94618Y175382D01*
X95431Y176371D01*
X96034Y177500D01*
X96406Y178726D01*
X96531Y180000D01*
X96406Y181274D01*
X96034Y182500D01*
X95431Y183629D01*
X94618Y184618D01*
X94458Y184750D01*
Y185250D01*
X94618Y185382D01*
X95431Y186371D01*
X96034Y187501D01*
X96406Y188726D01*
X96531Y190000D01*
X96406Y191274D01*
X96034Y192499D01*
X95431Y193629D01*
X94618Y194618D01*
X94458Y194750D01*
Y195250D01*
X94618Y195382D01*
X95431Y196371D01*
X96034Y197501D01*
X96406Y198726D01*
X96531Y200000D01*
X96406Y201274D01*
X96034Y202500D01*
X95431Y203629D01*
X94618Y204618D01*
X94458Y204750D01*
Y205250D01*
X94618Y205382D01*
X95431Y206371D01*
X96034Y207501D01*
X96406Y208726D01*
X96531Y210000D01*
X96406Y211274D01*
X96034Y212499D01*
X95431Y213629D01*
X94618Y214618D01*
X94458Y214750D01*
Y215250D01*
X94618Y215382D01*
X95431Y216371D01*
X96034Y217500D01*
X96406Y218726D01*
X96531Y220000D01*
X96406Y221274D01*
X96034Y222499D01*
X95431Y223629D01*
X94618Y224618D01*
X94458Y224750D01*
Y225250D01*
X94618Y225382D01*
X95431Y226371D01*
X96034Y227501D01*
X96406Y228726D01*
X96531Y230000D01*
X96406Y231274D01*
X96034Y232500D01*
X95431Y233629D01*
X94618Y234618D01*
X94458Y234750D01*
Y235250D01*
X94618Y235382D01*
X95431Y236371D01*
X96034Y237501D01*
X96406Y238726D01*
X96531Y240000D01*
X96406Y241274D01*
X96034Y242499D01*
X95431Y243629D01*
X94618Y244618D01*
X94458Y244750D01*
Y245250D01*
X94618Y245382D01*
X95431Y246371D01*
X96034Y247500D01*
X96406Y248726D01*
X96531Y250000D01*
X96406Y251274D01*
X96034Y252500D01*
X95431Y253629D01*
X94618Y254618D01*
X94458Y254750D01*
Y255250D01*
X94618Y255382D01*
X95431Y256371D01*
X96034Y257501D01*
X96406Y258726D01*
X96531Y260000D01*
X96406Y261274D01*
X96034Y262499D01*
X95431Y263629D01*
X94618Y264618D01*
X94458Y264750D01*
Y265250D01*
X94618Y265382D01*
X95431Y266371D01*
X96034Y267500D01*
X96406Y268726D01*
X96531Y270000D01*
X96406Y271274D01*
X96034Y272499D01*
X95431Y273629D01*
X94618Y274618D01*
X94458Y274750D01*
Y275250D01*
X94618Y275382D01*
X95431Y276371D01*
X96034Y277501D01*
X96406Y278726D01*
X96531Y280000D01*
X96406Y281274D01*
X96034Y282500D01*
X95431Y283629D01*
X94618Y284618D01*
X94458Y284750D01*
Y285250D01*
X94618Y285382D01*
X95431Y286371D01*
X96034Y287501D01*
X96406Y288726D01*
X96531Y290000D01*
X96406Y291274D01*
X96034Y292499D01*
X95431Y293629D01*
X94618Y294618D01*
X94458Y294750D01*
Y295250D01*
X94618Y295382D01*
X95431Y296371D01*
X96034Y297500D01*
X96406Y298726D01*
X96531Y300000D01*
X96406Y301274D01*
X96034Y302500D01*
X95431Y303629D01*
X94618Y304618D01*
X94458Y304750D01*
Y305250D01*
X94618Y305382D01*
X95431Y306371D01*
X96034Y307501D01*
X96406Y308726D01*
X96531Y310000D01*
X96406Y311274D01*
X96034Y312499D01*
X95431Y313629D01*
X94618Y314618D01*
X93629Y315431D01*
X92500Y316034D01*
X91274Y316406D01*
X90000Y316531D01*
D02*
G37*
G36*
Y426532D02*
X88726Y426406D01*
X87501Y426034D01*
X86371Y425431D01*
X85382Y424618D01*
X84569Y423629D01*
X83966Y422500D01*
X83594Y421274D01*
X83469Y420000D01*
X83594Y418726D01*
X83966Y417500D01*
X84569Y416371D01*
X85382Y415382D01*
X86371Y414569D01*
X87039Y414212D01*
X87113Y413718D01*
X83198Y409802D01*
X68198Y394802D01*
X67645Y393975D01*
X67451Y393000D01*
Y387000D01*
X67645Y386024D01*
X68198Y385198D01*
X71292Y382103D01*
X72119Y381551D01*
X73094Y381357D01*
X80906D01*
X81260Y381003D01*
Y380029D01*
X81260Y379953D01*
X81075Y379529D01*
X76985D01*
X76802Y379802D01*
X75976Y380355D01*
X75000Y380549D01*
X74024Y380355D01*
X73198Y379802D01*
X63198Y369802D01*
X62645Y368975D01*
X62451Y368000D01*
Y365905D01*
X60654D01*
Y352095D01*
X69346D01*
Y365905D01*
X67549D01*
Y366944D01*
X76802Y376198D01*
X76985Y376471D01*
X90367D01*
X94108Y372729D01*
X94126Y372642D01*
X94612Y371914D01*
X95340Y371428D01*
X96198Y371257D01*
X100098D01*
X100956Y371428D01*
X101684Y371914D01*
X101980Y372357D01*
X102480Y372206D01*
Y369000D01*
X102558Y368610D01*
X102779Y368279D01*
X103110Y368058D01*
X103500Y367980D01*
X113800D01*
X114190Y368058D01*
X114521Y368279D01*
X114742Y368610D01*
X115207Y368500D01*
X115378Y367642D01*
X115864Y366914D01*
X116592Y366428D01*
X117450Y366257D01*
X118038D01*
X118451Y365844D01*
Y344823D01*
X117638D01*
Y339673D01*
X124362D01*
Y339699D01*
X125638D01*
Y339673D01*
X132362D01*
Y344823D01*
X125638D01*
Y344797D01*
X124362D01*
Y344823D01*
X123549D01*
Y366900D01*
X123406Y367618D01*
X123422Y367642D01*
X123593Y368500D01*
X123422Y369358D01*
X122936Y370086D01*
X122390Y370451D01*
X122542Y370951D01*
X129988D01*
X136949Y363990D01*
Y360591D01*
Y353504D01*
X138451D01*
Y348661D01*
X137638D01*
Y343512D01*
X144362D01*
Y348661D01*
X143549D01*
Y353504D01*
X145051D01*
Y360591D01*
Y368496D01*
X139652D01*
X132846Y375302D01*
X132019Y375855D01*
X131043Y376049D01*
X127232D01*
X127080Y376549D01*
X127302Y376698D01*
X131894Y381290D01*
X137638D01*
Y380673D01*
X144362D01*
Y385823D01*
X142530D01*
X141975Y386193D01*
X141000Y386388D01*
X130839D01*
X129863Y386193D01*
X129036Y385641D01*
X124444Y381049D01*
X122542D01*
X122390Y381549D01*
X122936Y381914D01*
X123422Y382642D01*
X123593Y383500D01*
X123422Y384358D01*
X122936Y385086D01*
X122208Y385572D01*
X121350Y385743D01*
X120801D01*
Y389196D01*
X130599Y398994D01*
X136949D01*
Y397590D01*
X145051D01*
Y405496D01*
X136949D01*
Y404092D01*
X129543D01*
X128568Y403898D01*
X127741Y403346D01*
X116450Y392054D01*
X115897Y391227D01*
X115703Y390252D01*
Y384845D01*
X115378Y384358D01*
X115207Y383500D01*
X115378Y382642D01*
X115864Y381914D01*
X116592Y381428D01*
X117139Y381319D01*
X117190Y381146D01*
X117192Y380798D01*
X116965Y380646D01*
X116592Y380572D01*
X115864Y380086D01*
X115378Y379358D01*
X115320Y379066D01*
X114820Y379116D01*
Y382800D01*
X114742Y383190D01*
X114521Y383521D01*
X114190Y383742D01*
X113800Y383820D01*
X103500D01*
X103110Y383742D01*
X102822Y383550D01*
X102576Y383599D01*
X102300Y383705D01*
X102170Y384358D01*
X101684Y385086D01*
X101277Y385358D01*
Y387795D01*
X101161Y388381D01*
X100830Y388877D01*
X95709Y393998D01*
Y398854D01*
X82291D01*
Y396529D01*
X77788D01*
X77596Y396991D01*
X86802Y406198D01*
X87075Y406471D01*
X145367D01*
X148471Y403367D01*
Y380633D01*
X145528Y377691D01*
X144362D01*
Y379327D01*
X137638D01*
Y374177D01*
X144362D01*
Y374632D01*
X146161D01*
X146747Y374748D01*
X147243Y375080D01*
X151081Y378919D01*
X151413Y379415D01*
X151529Y380000D01*
Y404000D01*
X151432Y404488D01*
X151413Y404585D01*
X151081Y405081D01*
X147081Y409081D01*
X146585Y409413D01*
X146000Y409529D01*
X90788D01*
X90596Y409991D01*
X91802Y411198D01*
X92355Y412024D01*
X92549Y413000D01*
Y413992D01*
X93629Y414569D01*
X94618Y415382D01*
X95431Y416371D01*
X96034Y417500D01*
X96406Y418726D01*
X96531Y420000D01*
X96406Y421274D01*
X96034Y422500D01*
X95431Y423629D01*
X94618Y424618D01*
X93629Y425431D01*
X92500Y426034D01*
X91274Y426406D01*
X90000Y426532D01*
D02*
G37*
G36*
X60000Y425540D02*
X57569Y425349D01*
X55198Y424779D01*
X52945Y423846D01*
X50866Y422572D01*
X49011Y420989D01*
X47428Y419134D01*
X46154Y417055D01*
X45221Y414802D01*
X44651Y412431D01*
X44460Y410000D01*
X44651Y407569D01*
X45221Y405198D01*
X46154Y402945D01*
X47428Y400866D01*
X49011Y399011D01*
X50866Y397428D01*
X52945Y396154D01*
X55198Y395221D01*
X57569Y394651D01*
X60000Y394460D01*
X62431Y394651D01*
X64802Y395221D01*
X67055Y396154D01*
X69134Y397428D01*
X70989Y399011D01*
X72572Y400866D01*
X73846Y402945D01*
X74779Y405198D01*
X75349Y407569D01*
X75540Y410000D01*
X75349Y412431D01*
X74779Y414802D01*
X73846Y417055D01*
X72572Y419134D01*
X70989Y420989D01*
X69134Y422572D01*
X67055Y423846D01*
X64802Y424779D01*
X62431Y425349D01*
X60000Y425540D01*
D02*
G37*
G36*
X390000Y426532D02*
X388726Y426406D01*
X387501Y426034D01*
X386371Y425431D01*
X385382Y424618D01*
X385250Y424458D01*
X384750D01*
X384618Y424618D01*
X383629Y425431D01*
X382500Y426034D01*
X381274Y426406D01*
X380000Y426532D01*
X378726Y426406D01*
X377501Y426034D01*
X376371Y425431D01*
X375382Y424618D01*
X375250Y424458D01*
X374750D01*
X374618Y424618D01*
X373629Y425431D01*
X372499Y426034D01*
X371274Y426406D01*
X370000Y426532D01*
X368726Y426406D01*
X367500Y426034D01*
X366371Y425431D01*
X365382Y424618D01*
X365250Y424458D01*
X364750D01*
X364618Y424618D01*
X363629Y425431D01*
X362499Y426034D01*
X361274Y426406D01*
X360000Y426532D01*
X358726Y426406D01*
X357501Y426034D01*
X356371Y425431D01*
X355382Y424618D01*
X355250Y424458D01*
X354750D01*
X354618Y424618D01*
X353629Y425431D01*
X352500Y426034D01*
X351274Y426406D01*
X350000Y426532D01*
X348726Y426406D01*
X347500Y426034D01*
X346371Y425431D01*
X345382Y424618D01*
X345250Y424458D01*
X344750D01*
X344618Y424618D01*
X343629Y425431D01*
X342499Y426034D01*
X341274Y426406D01*
X340000Y426532D01*
X338726Y426406D01*
X337501Y426034D01*
X336371Y425431D01*
X335382Y424618D01*
X335250Y424458D01*
X334750D01*
X334618Y424618D01*
X333629Y425431D01*
X332500Y426034D01*
X331274Y426406D01*
X330000Y426532D01*
X328726Y426406D01*
X327501Y426034D01*
X326371Y425431D01*
X325382Y424618D01*
X325250Y424458D01*
X324750D01*
X324618Y424618D01*
X323629Y425431D01*
X322499Y426034D01*
X321274Y426406D01*
X320000Y426532D01*
X318726Y426406D01*
X317500Y426034D01*
X316371Y425431D01*
X315382Y424618D01*
X315250Y424458D01*
X314750D01*
X314618Y424618D01*
X313629Y425431D01*
X312499Y426034D01*
X311274Y426406D01*
X310000Y426532D01*
X308726Y426406D01*
X307501Y426034D01*
X306371Y425431D01*
X305382Y424618D01*
X305250Y424458D01*
X304750D01*
X304618Y424618D01*
X303629Y425431D01*
X302500Y426034D01*
X301274Y426406D01*
X300000Y426532D01*
X298726Y426406D01*
X297500Y426034D01*
X296371Y425431D01*
X295382Y424618D01*
X295250Y424458D01*
X294750D01*
X294618Y424618D01*
X293629Y425431D01*
X292499Y426034D01*
X291274Y426406D01*
X290000Y426532D01*
X288726Y426406D01*
X287501Y426034D01*
X286371Y425431D01*
X285382Y424618D01*
X285250Y424458D01*
X284750D01*
X284618Y424618D01*
X283629Y425431D01*
X282500Y426034D01*
X281274Y426406D01*
X280000Y426532D01*
X278726Y426406D01*
X277501Y426034D01*
X276371Y425431D01*
X275382Y424618D01*
X275250Y424458D01*
X274750D01*
X274618Y424618D01*
X273629Y425431D01*
X272499Y426034D01*
X271274Y426406D01*
X270000Y426532D01*
X268726Y426406D01*
X267500Y426034D01*
X266371Y425431D01*
X265382Y424618D01*
X265250Y424458D01*
X264750D01*
X264618Y424618D01*
X263629Y425431D01*
X262499Y426034D01*
X261274Y426406D01*
X260000Y426532D01*
X258726Y426406D01*
X257501Y426034D01*
X256371Y425431D01*
X255382Y424618D01*
X255250Y424458D01*
X254750D01*
X254618Y424618D01*
X253629Y425431D01*
X252500Y426034D01*
X251274Y426406D01*
X250000Y426532D01*
X248726Y426406D01*
X247500Y426034D01*
X246371Y425431D01*
X245382Y424618D01*
X245250Y424458D01*
X244750D01*
X244618Y424618D01*
X243629Y425431D01*
X242499Y426034D01*
X241274Y426406D01*
X240000Y426532D01*
X238726Y426406D01*
X237501Y426034D01*
X236371Y425431D01*
X235382Y424618D01*
X235250Y424458D01*
X234750D01*
X234618Y424618D01*
X233629Y425431D01*
X232500Y426034D01*
X231274Y426406D01*
X230000Y426532D01*
X228726Y426406D01*
X227501Y426034D01*
X226371Y425431D01*
X225382Y424618D01*
X225250Y424458D01*
X224750D01*
X224618Y424618D01*
X223629Y425431D01*
X222499Y426034D01*
X221274Y426406D01*
X220000Y426532D01*
X218726Y426406D01*
X217500Y426034D01*
X216371Y425431D01*
X215382Y424618D01*
X215250Y424458D01*
X214750D01*
X214618Y424618D01*
X213629Y425431D01*
X212499Y426034D01*
X211274Y426406D01*
X210000Y426532D01*
X208726Y426406D01*
X207501Y426034D01*
X206371Y425431D01*
X205382Y424618D01*
X205250Y424458D01*
X204750D01*
X204618Y424618D01*
X203629Y425431D01*
X202500Y426034D01*
X201274Y426406D01*
X200000Y426532D01*
X198726Y426406D01*
X197501Y426034D01*
X196371Y425431D01*
X195382Y424618D01*
X195250Y424458D01*
X194750D01*
X194618Y424618D01*
X193629Y425431D01*
X192499Y426034D01*
X191274Y426406D01*
X190000Y426532D01*
X188726Y426406D01*
X187501Y426034D01*
X186371Y425431D01*
X185382Y424618D01*
X185250Y424458D01*
X184750D01*
X184618Y424618D01*
X183629Y425431D01*
X182500Y426034D01*
X181274Y426406D01*
X180000Y426532D01*
X178726Y426406D01*
X177500Y426034D01*
X176371Y425431D01*
X175382Y424618D01*
X175250Y424458D01*
X174750D01*
X174618Y424618D01*
X173629Y425431D01*
X172500Y426034D01*
X171274Y426406D01*
X170000Y426532D01*
X168726Y426406D01*
X167500Y426034D01*
X166371Y425431D01*
X165382Y424618D01*
X164569Y423629D01*
X163966Y422500D01*
X163594Y421274D01*
X163469Y420000D01*
X163594Y418726D01*
X163966Y417500D01*
X164569Y416371D01*
X165382Y415382D01*
X165542Y415250D01*
Y414750D01*
X165382Y414618D01*
X164569Y413629D01*
X163966Y412500D01*
X163594Y411274D01*
X163469Y410000D01*
X163594Y408726D01*
X163966Y407501D01*
X164569Y406371D01*
X165382Y405382D01*
X165542Y405250D01*
Y404750D01*
X165382Y404618D01*
X164569Y403629D01*
X163966Y402499D01*
X163594Y401274D01*
X163469Y400000D01*
X163594Y398726D01*
X163966Y397500D01*
X164569Y396371D01*
X165382Y395382D01*
X165542Y395250D01*
Y394750D01*
X165382Y394618D01*
X164569Y393629D01*
X163966Y392499D01*
X163594Y391274D01*
X163469Y390000D01*
X163594Y388726D01*
X163966Y387501D01*
X164569Y386371D01*
X165382Y385382D01*
X165542Y385250D01*
Y384750D01*
X165382Y384618D01*
X164569Y383629D01*
X163966Y382500D01*
X163594Y381274D01*
X163469Y380000D01*
X163594Y378726D01*
X163966Y377501D01*
X164569Y376371D01*
X165382Y375382D01*
X165542Y375250D01*
Y374750D01*
X165382Y374618D01*
X164569Y373629D01*
X163966Y372499D01*
X163594Y371274D01*
X163469Y370000D01*
X163594Y368726D01*
X163966Y367500D01*
X164569Y366371D01*
X165382Y365382D01*
X165542Y365250D01*
Y364750D01*
X165382Y364618D01*
X164569Y363629D01*
X163966Y362499D01*
X163594Y361274D01*
X163469Y360000D01*
X163594Y358726D01*
X163966Y357501D01*
X164569Y356371D01*
X165382Y355382D01*
X165542Y355250D01*
Y354750D01*
X165382Y354618D01*
X164569Y353629D01*
X163966Y352500D01*
X163594Y351274D01*
X163469Y350000D01*
X163594Y348726D01*
X163966Y347500D01*
X164569Y346371D01*
X165382Y345382D01*
X165542Y345250D01*
Y344750D01*
X165382Y344618D01*
X164569Y343629D01*
X163966Y342499D01*
X163594Y341274D01*
X163469Y340000D01*
X163594Y338726D01*
X163966Y337501D01*
X164569Y336371D01*
X165382Y335382D01*
X165542Y335250D01*
Y334750D01*
X165382Y334618D01*
X164569Y333629D01*
X163966Y332500D01*
X163594Y331274D01*
X163469Y330000D01*
X163594Y328726D01*
X163966Y327501D01*
X164569Y326371D01*
X165382Y325382D01*
X166371Y324569D01*
X167500Y323966D01*
X168726Y323594D01*
X170000Y323469D01*
X171274Y323594D01*
X172500Y323966D01*
X173629Y324569D01*
X174618Y325382D01*
X174750Y325542D01*
X175250D01*
X175382Y325382D01*
X176371Y324569D01*
X177500Y323966D01*
X178726Y323594D01*
X180000Y323469D01*
X181274Y323594D01*
X182500Y323966D01*
X183629Y324569D01*
X184618Y325382D01*
X184750Y325542D01*
X185250D01*
X185382Y325382D01*
X186371Y324569D01*
X187501Y323966D01*
X188726Y323594D01*
X190000Y323469D01*
X191274Y323594D01*
X192499Y323966D01*
X193629Y324569D01*
X194618Y325382D01*
X194750Y325542D01*
X195250D01*
X195382Y325382D01*
X196371Y324569D01*
X197501Y323966D01*
X198726Y323594D01*
X200000Y323469D01*
X201274Y323594D01*
X202500Y323966D01*
X203629Y324569D01*
X204618Y325382D01*
X204750Y325542D01*
X205250D01*
X205382Y325382D01*
X206371Y324569D01*
X207501Y323966D01*
X208726Y323594D01*
X210000Y323469D01*
X211274Y323594D01*
X212499Y323966D01*
X213629Y324569D01*
X214618Y325382D01*
X214750Y325542D01*
X215250D01*
X215382Y325382D01*
X216371Y324569D01*
X217500Y323966D01*
X218726Y323594D01*
X220000Y323469D01*
X221274Y323594D01*
X222499Y323966D01*
X223629Y324569D01*
X224618Y325382D01*
X224750Y325542D01*
X225250D01*
X225382Y325382D01*
X226371Y324569D01*
X227501Y323966D01*
X228726Y323594D01*
X230000Y323469D01*
X231274Y323594D01*
X232500Y323966D01*
X233629Y324569D01*
X234618Y325382D01*
X234750Y325542D01*
X235250D01*
X235382Y325382D01*
X236371Y324569D01*
X237501Y323966D01*
X238726Y323594D01*
X240000Y323469D01*
X241274Y323594D01*
X242499Y323966D01*
X243629Y324569D01*
X244618Y325382D01*
X244750Y325542D01*
X245250D01*
X245382Y325382D01*
X246371Y324569D01*
X247500Y323966D01*
X248726Y323594D01*
X250000Y323469D01*
X251274Y323594D01*
X252500Y323966D01*
X253629Y324569D01*
X254618Y325382D01*
X254750Y325542D01*
X255250D01*
X255382Y325382D01*
X256371Y324569D01*
X257501Y323966D01*
X258726Y323594D01*
X260000Y323469D01*
X261274Y323594D01*
X262499Y323966D01*
X263629Y324569D01*
X264618Y325382D01*
X264750Y325542D01*
X265250D01*
X265382Y325382D01*
X266371Y324569D01*
X267500Y323966D01*
X268726Y323594D01*
X270000Y323469D01*
X271274Y323594D01*
X272499Y323966D01*
X273629Y324569D01*
X274618Y325382D01*
X274750Y325542D01*
X275250D01*
X275382Y325382D01*
X276371Y324569D01*
X277501Y323966D01*
X278726Y323594D01*
X280000Y323469D01*
X281274Y323594D01*
X282500Y323966D01*
X283629Y324569D01*
X284618Y325382D01*
X284750Y325542D01*
X285250D01*
X285382Y325382D01*
X286371Y324569D01*
X287501Y323966D01*
X288726Y323594D01*
X290000Y323469D01*
X291274Y323594D01*
X292499Y323966D01*
X293629Y324569D01*
X294618Y325382D01*
X294750Y325542D01*
X295250D01*
X295382Y325382D01*
X296371Y324569D01*
X297500Y323966D01*
X298726Y323594D01*
X300000Y323469D01*
X301274Y323594D01*
X302500Y323966D01*
X303629Y324569D01*
X304618Y325382D01*
X304750Y325542D01*
X305250D01*
X305382Y325382D01*
X306371Y324569D01*
X307501Y323966D01*
X308726Y323594D01*
X310000Y323469D01*
X311274Y323594D01*
X312499Y323966D01*
X313629Y324569D01*
X314618Y325382D01*
X314750Y325542D01*
X315250D01*
X315382Y325382D01*
X315542Y325250D01*
Y324750D01*
X315382Y324618D01*
X314569Y323629D01*
X313966Y322499D01*
X313594Y321274D01*
X313469Y320000D01*
X313594Y318726D01*
X313966Y317500D01*
X314569Y316371D01*
X315382Y315382D01*
X316371Y314569D01*
X317500Y313966D01*
X318726Y313594D01*
X320000Y313469D01*
X321274Y313594D01*
X322499Y313966D01*
X323629Y314569D01*
X324618Y315382D01*
X324750Y315542D01*
X325250D01*
X325382Y315382D01*
X326371Y314569D01*
X327501Y313966D01*
X328726Y313594D01*
X330000Y313469D01*
X331274Y313594D01*
X332500Y313966D01*
X333629Y314569D01*
X334618Y315382D01*
X334692Y315471D01*
X335216Y315488D01*
X335488Y315216D01*
X335471Y314692D01*
X335382Y314618D01*
X334569Y313629D01*
X333966Y312499D01*
X333594Y311274D01*
X333469Y310000D01*
X333594Y308726D01*
X333966Y307501D01*
X334569Y306371D01*
X335382Y305382D01*
X335542Y305250D01*
Y304750D01*
X335382Y304618D01*
X334569Y303629D01*
X333966Y302500D01*
X333594Y301274D01*
X333469Y300000D01*
X333594Y298726D01*
X333966Y297500D01*
X334569Y296371D01*
X335382Y295382D01*
X335542Y295250D01*
Y294750D01*
X335382Y294618D01*
X334569Y293629D01*
X333966Y292499D01*
X333594Y291274D01*
X333469Y290000D01*
X333594Y288726D01*
X333966Y287501D01*
X334569Y286371D01*
X335382Y285382D01*
X335542Y285250D01*
Y284750D01*
X335382Y284618D01*
X334569Y283629D01*
X333966Y282500D01*
X333594Y281274D01*
X333469Y280000D01*
X333594Y278726D01*
X333966Y277501D01*
X334569Y276371D01*
X335382Y275382D01*
X335542Y275250D01*
Y274750D01*
X335382Y274618D01*
X335250Y274458D01*
X334750D01*
X334618Y274618D01*
X333629Y275431D01*
X332500Y276034D01*
X331274Y276406D01*
X330000Y276531D01*
X328726Y276406D01*
X327501Y276034D01*
X326371Y275431D01*
X325382Y274618D01*
X325250Y274458D01*
X324750D01*
X324618Y274618D01*
X323629Y275431D01*
X322499Y276034D01*
X321274Y276406D01*
X320000Y276531D01*
X318726Y276406D01*
X317500Y276034D01*
X316371Y275431D01*
X315382Y274618D01*
X315250Y274458D01*
X314750D01*
X314618Y274618D01*
X313629Y275431D01*
X312499Y276034D01*
X311274Y276406D01*
X310000Y276531D01*
X308726Y276406D01*
X307501Y276034D01*
X306371Y275431D01*
X305382Y274618D01*
X305250Y274458D01*
X304750D01*
X304618Y274618D01*
X303629Y275431D01*
X302500Y276034D01*
X301274Y276406D01*
X300000Y276531D01*
X298726Y276406D01*
X297500Y276034D01*
X296371Y275431D01*
X295382Y274618D01*
X295250Y274458D01*
X294750D01*
X294618Y274618D01*
X293629Y275431D01*
X292499Y276034D01*
X291274Y276406D01*
X290000Y276531D01*
X288726Y276406D01*
X287501Y276034D01*
X286371Y275431D01*
X285382Y274618D01*
X284569Y273629D01*
X283966Y272499D01*
X283594Y271274D01*
X283469Y270000D01*
X283594Y268726D01*
X283966Y267500D01*
X284569Y266371D01*
X285382Y265382D01*
X285542Y265250D01*
Y264750D01*
X285382Y264618D01*
X285250Y264458D01*
X284750D01*
X284618Y264618D01*
X283629Y265431D01*
X282500Y266034D01*
X281274Y266406D01*
X280000Y266531D01*
X278925Y266426D01*
X278559Y266744D01*
X278502Y266860D01*
X278529Y267000D01*
Y284000D01*
X278413Y284585D01*
X278081Y285081D01*
X276529Y286633D01*
Y295000D01*
X276506Y295118D01*
X276959Y295400D01*
X277226Y295196D01*
X278564Y294642D01*
X280000Y294453D01*
X281436Y294642D01*
X282774Y295196D01*
X283923Y296077D01*
X284707Y297100D01*
X284873Y297143D01*
X285127D01*
X285293Y297100D01*
X286077Y296077D01*
X287226Y295196D01*
X288564Y294642D01*
X290000Y294453D01*
X291436Y294642D01*
X292774Y295196D01*
X293923Y296077D01*
X294707Y297100D01*
X294873Y297143D01*
X295127D01*
X295293Y297100D01*
X296077Y296077D01*
X297100Y295293D01*
X297143Y295127D01*
Y294873D01*
X297100Y294707D01*
X296077Y293923D01*
X295196Y292774D01*
X294642Y291436D01*
X294453Y290000D01*
X294642Y288564D01*
X295196Y287226D01*
X296077Y286077D01*
X297226Y285196D01*
X298564Y284642D01*
X300000Y284453D01*
X301436Y284642D01*
X302774Y285196D01*
X303923Y286077D01*
X304804Y287226D01*
X305358Y288564D01*
X305547Y290000D01*
X305358Y291436D01*
X304804Y292774D01*
X303923Y293923D01*
X302900Y294707D01*
X302857Y294873D01*
Y295127D01*
X302900Y295293D01*
X303923Y296077D01*
X304707Y297100D01*
X304873Y297143D01*
X305127D01*
X305293Y297100D01*
X306077Y296077D01*
X307226Y295196D01*
X308564Y294642D01*
X310000Y294453D01*
X311436Y294642D01*
X312774Y295196D01*
X313923Y296077D01*
X314804Y297226D01*
X315358Y298564D01*
X315547Y300000D01*
X315358Y301436D01*
X314804Y302774D01*
X313923Y303923D01*
X312774Y304804D01*
X311436Y305358D01*
X310000Y305547D01*
X308564Y305358D01*
X307226Y304804D01*
X306077Y303923D01*
X305293Y302900D01*
X305127Y302857D01*
X304873D01*
X304707Y302900D01*
X303923Y303923D01*
X302774Y304804D01*
X301436Y305358D01*
X300000Y305547D01*
X298564Y305358D01*
X297226Y304804D01*
X296077Y303923D01*
X295293Y302900D01*
X295127Y302857D01*
X294873D01*
X294707Y302900D01*
X293923Y303923D01*
X292774Y304804D01*
X291436Y305358D01*
X290000Y305547D01*
X288564Y305358D01*
X287226Y304804D01*
X286077Y303923D01*
X285293Y302900D01*
X285127Y302857D01*
X284873D01*
X284707Y302900D01*
X283923Y303923D01*
X282774Y304804D01*
X281460Y305348D01*
X281413Y305585D01*
X281081Y306081D01*
X279081Y308081D01*
X278585Y308413D01*
X278000Y308529D01*
X266000D01*
X265512Y308432D01*
X265415Y308413D01*
X264919Y308081D01*
X260919Y304081D01*
X260587Y303585D01*
X260471Y303000D01*
Y278000D01*
X260587Y277415D01*
X260919Y276919D01*
X264443Y273394D01*
X263966Y272499D01*
X263594Y271274D01*
X263468Y270000D01*
X263594Y268726D01*
X263966Y267500D01*
X264339Y266802D01*
X244958Y247421D01*
X224827D01*
Y247984D01*
X218102D01*
Y244016D01*
Y240866D01*
Y237717D01*
Y234567D01*
Y231417D01*
Y228268D01*
Y225937D01*
Y225482D01*
X214382D01*
X213780Y225884D01*
X213000Y226039D01*
X212220Y225884D01*
X211558Y225442D01*
X211116Y224780D01*
X210961Y224000D01*
X211116Y223220D01*
X211558Y222558D01*
X212220Y222116D01*
X212269Y222106D01*
X212220Y221606D01*
X191724D01*
Y214882D01*
X192215D01*
Y195578D01*
X172611Y175974D01*
X172500Y176034D01*
X171274Y176406D01*
X170000Y176531D01*
X168726Y176406D01*
X167500Y176034D01*
X166371Y175431D01*
X165382Y174618D01*
X164569Y173629D01*
X163966Y172500D01*
X163594Y171274D01*
X163469Y170000D01*
X163594Y168726D01*
X163966Y167500D01*
X164569Y166371D01*
X165382Y165382D01*
X165542Y165250D01*
Y164750D01*
X165382Y164618D01*
X165250Y164458D01*
X164750D01*
X164618Y164618D01*
X163629Y165431D01*
X162499Y166034D01*
X161274Y166406D01*
X160000Y166531D01*
X158726Y166406D01*
X157501Y166034D01*
X156371Y165431D01*
X155382Y164618D01*
X155250Y164458D01*
X154750D01*
X154618Y164618D01*
X153629Y165431D01*
X152499Y166034D01*
X151274Y166406D01*
X150000Y166531D01*
X148726Y166406D01*
X147501Y166034D01*
X146371Y165431D01*
X145382Y164618D01*
X145250Y164458D01*
X144750D01*
X144618Y164618D01*
X143629Y165431D01*
X142499Y166034D01*
X141274Y166406D01*
X140000Y166531D01*
X138726Y166406D01*
X137501Y166034D01*
X136371Y165431D01*
X135382Y164618D01*
X135250Y164458D01*
X134750D01*
X134618Y164618D01*
X133629Y165431D01*
X132500Y166034D01*
X131274Y166406D01*
X130000Y166531D01*
X128726Y166406D01*
X127500Y166034D01*
X126371Y165431D01*
X125382Y164618D01*
X125250Y164458D01*
X124750D01*
X124618Y164618D01*
X123629Y165431D01*
X122500Y166034D01*
X121274Y166406D01*
X120000Y166531D01*
X118726Y166406D01*
X117500Y166034D01*
X116371Y165431D01*
X115382Y164618D01*
X115250Y164458D01*
X114750D01*
X114618Y164618D01*
X113629Y165431D01*
X112499Y166034D01*
X111274Y166406D01*
X110000Y166531D01*
X108726Y166406D01*
X107501Y166034D01*
X106371Y165431D01*
X105382Y164618D01*
X104569Y163629D01*
X103966Y162499D01*
X103594Y161274D01*
X103469Y160000D01*
X103594Y158726D01*
X103966Y157501D01*
X104569Y156371D01*
X105382Y155382D01*
X106371Y154569D01*
X107501Y153966D01*
X108471Y153672D01*
Y137000D01*
X108587Y136415D01*
X108919Y135919D01*
X125971Y118867D01*
Y115944D01*
X125842Y115858D01*
X125333Y115097D01*
X125155Y114200D01*
Y107800D01*
X125333Y106903D01*
X125842Y106142D01*
X126603Y105633D01*
X127500Y105455D01*
X128397Y105633D01*
X129158Y106142D01*
X129667Y106903D01*
X129745Y107298D01*
X130255D01*
X130333Y106903D01*
X130842Y106142D01*
X131603Y105633D01*
X132500Y105455D01*
X133397Y105633D01*
X134158Y106142D01*
X134667Y106903D01*
X134745Y107298D01*
X135255D01*
X135333Y106903D01*
X135842Y106142D01*
X136603Y105633D01*
X137500Y105455D01*
X138397Y105633D01*
X139158Y106142D01*
X139667Y106903D01*
X139745Y107298D01*
X140255D01*
X140333Y106903D01*
X140842Y106142D01*
X141603Y105633D01*
X142500Y105455D01*
X143397Y105633D01*
X144158Y106142D01*
X144667Y106903D01*
X144745Y107298D01*
X145255D01*
X145333Y106903D01*
X145842Y106142D01*
X146603Y105633D01*
X147500Y105455D01*
X148397Y105633D01*
X149158Y106142D01*
X149667Y106903D01*
X149745Y107298D01*
X150255D01*
X150333Y106903D01*
X150842Y106142D01*
X151603Y105633D01*
X152500Y105455D01*
X153397Y105633D01*
X154158Y106142D01*
X154667Y106903D01*
X154745Y107298D01*
X155255D01*
X155333Y106903D01*
X155842Y106142D01*
X156603Y105633D01*
X157500Y105455D01*
X158397Y105633D01*
X159158Y106142D01*
X159667Y106903D01*
X159845Y107800D01*
Y109471D01*
X162000D01*
X162585Y109587D01*
X163081Y109919D01*
X171081Y117919D01*
X171413Y118415D01*
X171529Y119000D01*
Y153672D01*
X172500Y153966D01*
X173629Y154569D01*
X174618Y155382D01*
X175431Y156371D01*
X175941Y157326D01*
X176441Y157201D01*
Y157165D01*
X183559D01*
Y163693D01*
X183050D01*
X182924Y164193D01*
X183629Y164569D01*
X184618Y165382D01*
X184750Y165542D01*
X185250D01*
X185382Y165382D01*
X186371Y164569D01*
X187075Y164193D01*
X186950Y163693D01*
X186441D01*
Y157165D01*
X193559D01*
Y163693D01*
X193050D01*
X192924Y164193D01*
X193629Y164569D01*
X194618Y165382D01*
X194750Y165542D01*
X195250D01*
X195382Y165382D01*
X196371Y164569D01*
X197075Y164193D01*
X196950Y163693D01*
X196441D01*
Y157165D01*
X203559D01*
Y163693D01*
X203050D01*
X202924Y164193D01*
X203629Y164569D01*
X204618Y165382D01*
X204750Y165542D01*
X205250D01*
X205382Y165382D01*
X206371Y164569D01*
X207501Y163966D01*
X208726Y163594D01*
X210000Y163469D01*
X211274Y163594D01*
X212499Y163966D01*
X213629Y164569D01*
X214618Y165382D01*
X214750Y165542D01*
X215250D01*
X215381Y165382D01*
X216371Y164569D01*
X217500Y163966D01*
X218726Y163594D01*
X220000Y163469D01*
X221274Y163594D01*
X222499Y163966D01*
X223628Y164569D01*
X224618Y165382D01*
X224750Y165542D01*
X225250D01*
X225382Y165382D01*
X226371Y164569D01*
X227501Y163966D01*
X228726Y163594D01*
X230000Y163469D01*
X231274Y163594D01*
X232500Y163966D01*
X233629Y164569D01*
X234618Y165382D01*
X235431Y166371D01*
X236034Y167500D01*
X236406Y168726D01*
X236531Y170000D01*
X236406Y171274D01*
X236034Y172500D01*
X235431Y173629D01*
X234618Y174618D01*
X233629Y175431D01*
X232500Y176034D01*
X231274Y176406D01*
X230000Y176531D01*
X228726Y176406D01*
X227501Y176034D01*
X226737Y175626D01*
X214171Y188192D01*
Y214882D01*
X214591D01*
Y221606D01*
X213780D01*
X213731Y222106D01*
X213780Y222116D01*
X214240Y222423D01*
X218102D01*
Y221969D01*
X224827D01*
Y222315D01*
X244422D01*
X263688Y203049D01*
X263481Y202549D01*
X260000D01*
X259025Y202355D01*
X258198Y201802D01*
X248198Y191802D01*
X247645Y190975D01*
X247451Y190000D01*
Y146008D01*
X246371Y145431D01*
X245382Y144618D01*
X245250Y144458D01*
X244750D01*
X244618Y144618D01*
X243629Y145431D01*
X242499Y146034D01*
X241274Y146406D01*
X240000Y146531D01*
X238726Y146406D01*
X237501Y146034D01*
X236371Y145431D01*
X235382Y144618D01*
X234569Y143629D01*
X233966Y142499D01*
X233594Y141274D01*
X233469Y140000D01*
X233594Y138726D01*
X233966Y137501D01*
X234569Y136371D01*
X235382Y135382D01*
X236371Y134569D01*
X237501Y133966D01*
X238726Y133594D01*
X240000Y133469D01*
X241274Y133594D01*
X242499Y133966D01*
X243629Y134569D01*
X244618Y135382D01*
X244750Y135542D01*
X245250D01*
X245382Y135382D01*
X246371Y134569D01*
X247500Y133966D01*
X248726Y133594D01*
X250000Y133469D01*
X251274Y133594D01*
X252500Y133966D01*
X253629Y134569D01*
X254618Y135382D01*
X254750Y135542D01*
X255250D01*
X255382Y135382D01*
X256371Y134569D01*
X257501Y133966D01*
X258726Y133594D01*
X260000Y133469D01*
X261274Y133594D01*
X262499Y133966D01*
X263629Y134569D01*
X264618Y135382D01*
X264750Y135542D01*
X265250D01*
X265382Y135382D01*
X266371Y134569D01*
X267500Y133966D01*
X268726Y133594D01*
X270000Y133469D01*
X271274Y133594D01*
X272499Y133966D01*
X273629Y134569D01*
X274618Y135382D01*
X274750Y135542D01*
X275250D01*
X275382Y135382D01*
X276371Y134569D01*
X277501Y133966D01*
X278726Y133594D01*
X280000Y133469D01*
X281274Y133594D01*
X282500Y133966D01*
X283629Y134569D01*
X284618Y135382D01*
X284750Y135542D01*
X285250D01*
X285382Y135382D01*
X286371Y134569D01*
X287501Y133966D01*
X288726Y133594D01*
X290000Y133469D01*
X291274Y133594D01*
X292499Y133966D01*
X293629Y134569D01*
X294618Y135382D01*
X294750Y135542D01*
X295250D01*
X295382Y135382D01*
X296371Y134569D01*
X297500Y133966D01*
X298726Y133594D01*
X300000Y133469D01*
X301274Y133594D01*
X302500Y133966D01*
X303629Y134569D01*
X304618Y135382D01*
X304750Y135542D01*
X305250D01*
X305382Y135382D01*
X306371Y134569D01*
X307501Y133966D01*
X308726Y133594D01*
X310000Y133469D01*
X311274Y133594D01*
X312499Y133966D01*
X313629Y134569D01*
X314618Y135382D01*
X314750Y135542D01*
X315250D01*
X315382Y135382D01*
X316371Y134569D01*
X317500Y133966D01*
X318726Y133594D01*
X320000Y133469D01*
X321274Y133594D01*
X322499Y133966D01*
X323629Y134569D01*
X324618Y135382D01*
X324750Y135542D01*
X325250D01*
X325382Y135382D01*
X326371Y134569D01*
X327501Y133966D01*
X328726Y133594D01*
X330000Y133469D01*
X331274Y133594D01*
X332500Y133966D01*
X333629Y134569D01*
X334618Y135382D01*
X334750Y135542D01*
X335250D01*
X335382Y135382D01*
X336371Y134569D01*
X337501Y133966D01*
X338726Y133594D01*
X340000Y133469D01*
X341274Y133594D01*
X342499Y133966D01*
X343629Y134569D01*
X344618Y135382D01*
X344750Y135542D01*
X345250D01*
X345382Y135382D01*
X346371Y134569D01*
X347500Y133966D01*
X348726Y133594D01*
X350000Y133469D01*
X351274Y133594D01*
X352500Y133966D01*
X353629Y134569D01*
X354618Y135382D01*
X354750Y135542D01*
X355250D01*
X355382Y135382D01*
X356371Y134569D01*
X357501Y133966D01*
X358726Y133594D01*
X360000Y133469D01*
X361274Y133594D01*
X362499Y133966D01*
X363629Y134569D01*
X364618Y135382D01*
X364750Y135542D01*
X365250D01*
X365382Y135382D01*
X366371Y134569D01*
X367500Y133966D01*
X368726Y133594D01*
X370000Y133469D01*
X371274Y133594D01*
X372499Y133966D01*
X373629Y134569D01*
X374618Y135382D01*
X374750Y135542D01*
X375250D01*
X375382Y135382D01*
X376371Y134569D01*
X377501Y133966D01*
X378726Y133594D01*
X380000Y133469D01*
X381274Y133594D01*
X382500Y133966D01*
X383629Y134569D01*
X384618Y135382D01*
X384750Y135542D01*
X385250D01*
X385382Y135382D01*
X386371Y134569D01*
X387501Y133966D01*
X388726Y133594D01*
X390000Y133469D01*
X391274Y133594D01*
X392499Y133966D01*
X393629Y134569D01*
X394618Y135382D01*
X394750Y135542D01*
X395250D01*
X395382Y135382D01*
X396371Y134569D01*
X397500Y133966D01*
X398726Y133594D01*
X400000Y133469D01*
X401274Y133594D01*
X402499Y133966D01*
X403629Y134569D01*
X404618Y135382D01*
X404750Y135542D01*
X405250D01*
X405382Y135382D01*
X406371Y134569D01*
X407501Y133966D01*
X408726Y133594D01*
X410000Y133469D01*
X411274Y133594D01*
X412500Y133966D01*
X413629Y134569D01*
X414618Y135382D01*
X414750Y135542D01*
X415250D01*
X415382Y135382D01*
X416371Y134569D01*
X417500Y133966D01*
X418726Y133594D01*
X420000Y133469D01*
X421274Y133594D01*
X422500Y133966D01*
X423629Y134569D01*
X424618Y135382D01*
X425431Y136371D01*
X426034Y137501D01*
X426406Y138726D01*
X426532Y140000D01*
X426406Y141274D01*
X426034Y142499D01*
X425431Y143629D01*
X424618Y144618D01*
X424458Y144750D01*
Y145250D01*
X424618Y145382D01*
X425431Y146371D01*
X426034Y147501D01*
X426406Y148726D01*
X426532Y150000D01*
X426406Y151274D01*
X426034Y152499D01*
X425431Y153629D01*
X424618Y154618D01*
X424458Y154750D01*
Y155250D01*
X424618Y155382D01*
X425431Y156371D01*
X426034Y157501D01*
X426406Y158726D01*
X426532Y160000D01*
X426406Y161274D01*
X426034Y162499D01*
X425431Y163629D01*
X424618Y164618D01*
X424458Y164750D01*
Y165250D01*
X424618Y165382D01*
X425431Y166371D01*
X426034Y167500D01*
X426406Y168726D01*
X426532Y170000D01*
X426406Y171274D01*
X426034Y172500D01*
X425431Y173629D01*
X424618Y174618D01*
X424458Y174750D01*
Y175250D01*
X424618Y175382D01*
X425431Y176371D01*
X426034Y177500D01*
X426406Y178726D01*
X426532Y180000D01*
X426406Y181274D01*
X426034Y182500D01*
X425431Y183629D01*
X424618Y184618D01*
X424458Y184750D01*
Y185250D01*
X424618Y185382D01*
X425431Y186371D01*
X426034Y187501D01*
X426406Y188726D01*
X426532Y190000D01*
X426406Y191274D01*
X426034Y192499D01*
X425431Y193629D01*
X424618Y194618D01*
X424458Y194750D01*
Y195250D01*
X424618Y195382D01*
X425431Y196371D01*
X426034Y197501D01*
X426406Y198726D01*
X426532Y200000D01*
X426406Y201274D01*
X426034Y202500D01*
X425431Y203629D01*
X424618Y204618D01*
X424458Y204750D01*
Y205250D01*
X424618Y205382D01*
X425431Y206371D01*
X426034Y207501D01*
X426406Y208726D01*
X426532Y210000D01*
X426406Y211274D01*
X426034Y212499D01*
X425431Y213629D01*
X424618Y214618D01*
X424458Y214750D01*
Y215250D01*
X424618Y215382D01*
X425431Y216371D01*
X426034Y217500D01*
X426406Y218726D01*
X426532Y220000D01*
X426406Y221274D01*
X426034Y222499D01*
X425431Y223629D01*
X424618Y224618D01*
X424458Y224750D01*
Y225250D01*
X424618Y225382D01*
X425431Y226371D01*
X426034Y227501D01*
X426406Y228726D01*
X426532Y230000D01*
X426406Y231274D01*
X426034Y232500D01*
X425431Y233629D01*
X424618Y234618D01*
X424458Y234750D01*
Y235250D01*
X424618Y235382D01*
X425431Y236371D01*
X426034Y237501D01*
X426406Y238726D01*
X426532Y240000D01*
X426406Y241274D01*
X426034Y242499D01*
X425431Y243629D01*
X424618Y244618D01*
X424458Y244750D01*
Y245250D01*
X424618Y245382D01*
X425431Y246371D01*
X426034Y247500D01*
X426406Y248726D01*
X426532Y250000D01*
X426406Y251274D01*
X426034Y252500D01*
X425431Y253629D01*
X424618Y254618D01*
X424458Y254750D01*
Y255250D01*
X424618Y255382D01*
X425431Y256371D01*
X426034Y257501D01*
X426406Y258726D01*
X426532Y260000D01*
X426406Y261274D01*
X426034Y262499D01*
X425431Y263629D01*
X424618Y264618D01*
X424458Y264750D01*
Y265250D01*
X424618Y265382D01*
X425431Y266371D01*
X426034Y267500D01*
X426406Y268726D01*
X426532Y270000D01*
X426406Y271274D01*
X426034Y272499D01*
X425431Y273629D01*
X424618Y274618D01*
X424458Y274750D01*
Y275250D01*
X424618Y275382D01*
X425431Y276371D01*
X426034Y277501D01*
X426406Y278726D01*
X426532Y280000D01*
X426406Y281274D01*
X426034Y282500D01*
X425431Y283629D01*
X424618Y284618D01*
X424458Y284750D01*
Y285250D01*
X424618Y285382D01*
X425431Y286371D01*
X426034Y287501D01*
X426406Y288726D01*
X426532Y290000D01*
X426406Y291274D01*
X426034Y292499D01*
X425431Y293629D01*
X424618Y294618D01*
X424458Y294750D01*
Y295250D01*
X424618Y295382D01*
X425431Y296371D01*
X426034Y297500D01*
X426406Y298726D01*
X426532Y300000D01*
X426406Y301274D01*
X426034Y302500D01*
X425431Y303629D01*
X424618Y304618D01*
X424458Y304750D01*
Y305250D01*
X424618Y305382D01*
X425431Y306371D01*
X426034Y307501D01*
X426406Y308726D01*
X426532Y310000D01*
X426406Y311274D01*
X426034Y312499D01*
X425431Y313629D01*
X424618Y314618D01*
X424458Y314750D01*
Y315250D01*
X424618Y315382D01*
X425431Y316371D01*
X426034Y317500D01*
X426406Y318726D01*
X426532Y320000D01*
X426406Y321274D01*
X426034Y322499D01*
X425431Y323629D01*
X424618Y324618D01*
X424458Y324750D01*
Y325250D01*
X424618Y325382D01*
X425431Y326371D01*
X426034Y327501D01*
X426406Y328726D01*
X426532Y330000D01*
X426406Y331274D01*
X426034Y332500D01*
X425431Y333629D01*
X424618Y334618D01*
X424458Y334750D01*
Y335250D01*
X424618Y335382D01*
X425431Y336371D01*
X426034Y337501D01*
X426406Y338726D01*
X426532Y340000D01*
X426406Y341274D01*
X426034Y342499D01*
X425431Y343629D01*
X424618Y344618D01*
X424458Y344750D01*
Y345250D01*
X424618Y345382D01*
X425431Y346371D01*
X426034Y347500D01*
X426406Y348726D01*
X426532Y350000D01*
X426406Y351274D01*
X426034Y352500D01*
X425431Y353629D01*
X424618Y354618D01*
X424458Y354750D01*
Y355250D01*
X424618Y355382D01*
X425431Y356371D01*
X426034Y357501D01*
X426406Y358726D01*
X426532Y360000D01*
X426406Y361274D01*
X426034Y362499D01*
X425431Y363629D01*
X424618Y364618D01*
X424458Y364750D01*
Y365250D01*
X424618Y365382D01*
X425431Y366371D01*
X426034Y367500D01*
X426406Y368726D01*
X426532Y370000D01*
X426406Y371274D01*
X426034Y372499D01*
X425431Y373629D01*
X424618Y374618D01*
X424458Y374750D01*
Y375250D01*
X424618Y375382D01*
X425431Y376371D01*
X426034Y377501D01*
X426406Y378726D01*
X426532Y380000D01*
X426406Y381274D01*
X426034Y382500D01*
X425431Y383629D01*
X424618Y384618D01*
X424458Y384750D01*
Y385250D01*
X424618Y385382D01*
X425431Y386371D01*
X426034Y387501D01*
X426406Y388726D01*
X426532Y390000D01*
X426406Y391274D01*
X426034Y392499D01*
X425431Y393629D01*
X424618Y394618D01*
X423629Y395431D01*
X422500Y396034D01*
X421274Y396406D01*
X420000Y396531D01*
X418726Y396406D01*
X418127Y396224D01*
X417921Y396684D01*
X419134Y397428D01*
X420989Y399011D01*
X422572Y400866D01*
X423846Y402945D01*
X424779Y405198D01*
X425349Y407569D01*
X425540Y410000D01*
X425349Y412431D01*
X424779Y414802D01*
X423846Y417055D01*
X422572Y419134D01*
X420989Y420989D01*
X419134Y422572D01*
X417055Y423846D01*
X414802Y424779D01*
X412431Y425349D01*
X410000Y425540D01*
X407569Y425349D01*
X405198Y424779D01*
X402945Y423846D01*
X400866Y422572D01*
X399011Y420989D01*
X397428Y419134D01*
X396684Y417921D01*
X396224Y418127D01*
X396406Y418726D01*
X396531Y420000D01*
X396406Y421274D01*
X396034Y422500D01*
X395431Y423629D01*
X394618Y424618D01*
X393629Y425431D01*
X392499Y426034D01*
X391274Y426406D01*
X390000Y426532D01*
D02*
G37*
G36*
X149000Y430549D02*
X119000D01*
X118025Y430355D01*
X117198Y429802D01*
X113105Y425710D01*
X112499Y426034D01*
X111274Y426406D01*
X110000Y426532D01*
X108726Y426406D01*
X107501Y426034D01*
X106371Y425431D01*
X105382Y424618D01*
X104569Y423629D01*
X103966Y422500D01*
X103594Y421274D01*
X103469Y420000D01*
X103594Y418726D01*
X103966Y417500D01*
X104569Y416371D01*
X105382Y415382D01*
X106371Y414569D01*
X107501Y413966D01*
X108726Y413594D01*
X110000Y413469D01*
X111274Y413594D01*
X112499Y413966D01*
X113629Y414569D01*
X114618Y415382D01*
X115431Y416371D01*
X116034Y417500D01*
X116406Y418726D01*
X116531Y420000D01*
X116406Y421274D01*
X116283Y421678D01*
X120056Y425451D01*
X147944D01*
X155451Y417944D01*
Y337056D01*
X140944Y322549D01*
X131056D01*
X122891Y330713D01*
Y333177D01*
X124362D01*
Y338327D01*
X117638D01*
Y337644D01*
X111059D01*
Y343122D01*
X100941D01*
Y337644D01*
X94740D01*
Y339047D01*
X89530D01*
X89070Y339355D01*
X88095Y339549D01*
X69346D01*
Y343905D01*
X60654D01*
Y330095D01*
X69346D01*
Y334451D01*
X85260D01*
Y331142D01*
X94740D01*
Y332545D01*
X117794D01*
Y329658D01*
X117988Y328682D01*
X118540Y327855D01*
X128198Y318198D01*
X129025Y317645D01*
X130000Y317451D01*
X131451D01*
Y276000D01*
X131645Y275025D01*
X132198Y274198D01*
X133949Y272446D01*
X133594Y271274D01*
X133469Y270000D01*
X133594Y268726D01*
X133966Y267500D01*
X134569Y266371D01*
X135382Y265382D01*
X135542Y265250D01*
Y264750D01*
X135382Y264618D01*
X134569Y263629D01*
X133966Y262499D01*
X133671Y261529D01*
X127240D01*
X126355Y262414D01*
X126737Y263337D01*
X126904Y264606D01*
X126737Y265876D01*
X126247Y267058D01*
X125468Y268074D01*
X124452Y268853D01*
X123269Y269343D01*
X122000Y269511D01*
X120731Y269343D01*
X119548Y268853D01*
X118532Y268074D01*
X117753Y267058D01*
X117371Y266136D01*
X110709D01*
Y268854D01*
X103591D01*
Y261146D01*
X110709D01*
Y263077D01*
X117371D01*
X117753Y262154D01*
X118532Y261139D01*
X119548Y260359D01*
X120731Y259869D01*
X122000Y259702D01*
X123269Y259869D01*
X124192Y260251D01*
X125525Y258919D01*
X126021Y258587D01*
X126606Y258471D01*
X133671D01*
X133966Y257501D01*
X134569Y256371D01*
X135382Y255382D01*
X135542Y255250D01*
Y254750D01*
X135382Y254618D01*
X134569Y253629D01*
X133966Y252500D01*
X133671Y251529D01*
X126606D01*
X126021Y251413D01*
X125525Y251081D01*
X124699Y250256D01*
X117138D01*
Y246529D01*
X110709D01*
Y248854D01*
X103591D01*
Y241146D01*
X110709D01*
Y243471D01*
X117138D01*
Y240532D01*
X126862D01*
Y248093D01*
X127240Y248471D01*
X133671D01*
X133966Y247500D01*
X134569Y246371D01*
X135382Y245382D01*
X135542Y245250D01*
Y244750D01*
X135382Y244618D01*
X134569Y243629D01*
X133966Y242499D01*
X133594Y241274D01*
X133523Y240552D01*
X116825Y223854D01*
X110591D01*
Y216146D01*
X113112D01*
Y214559D01*
X111673D01*
Y207441D01*
X114625D01*
X114816Y206979D01*
X114366Y206529D01*
X110634D01*
X110150Y207013D01*
X110327Y207441D01*
X110327D01*
X110327Y207441D01*
Y214559D01*
X104390D01*
Y207441D01*
X105869D01*
X105945Y207057D01*
X106277Y206560D01*
X108919Y203919D01*
X109415Y203587D01*
X110000Y203471D01*
X115000D01*
X115585Y203587D01*
X116081Y203919D01*
X133054Y220891D01*
X133534Y220664D01*
X133468Y220000D01*
X133594Y218726D01*
X133966Y217500D01*
X134569Y216371D01*
X135381Y215382D01*
X135542Y215250D01*
Y214750D01*
X135381Y214618D01*
X134569Y213629D01*
X133966Y212499D01*
X133594Y211274D01*
X133468Y210000D01*
X133594Y208726D01*
X133966Y207501D01*
X134569Y206371D01*
X135381Y205382D01*
X135542Y205250D01*
Y204750D01*
X135381Y204618D01*
X134569Y203629D01*
X133966Y202500D01*
X133594Y201274D01*
X133468Y200000D01*
X133594Y198726D01*
X133966Y197501D01*
X134569Y196371D01*
X135381Y195382D01*
X136371Y194569D01*
X137501Y193966D01*
X138726Y193594D01*
X140000Y193469D01*
X141274Y193594D01*
X142499Y193966D01*
X143629Y194569D01*
X144618Y195382D01*
X145431Y196371D01*
X146034Y197501D01*
X146406Y198726D01*
X146531Y200000D01*
X146406Y201274D01*
X146034Y202500D01*
X145696Y203133D01*
X165042Y222479D01*
X184638D01*
Y221969D01*
X191362D01*
Y225118D01*
Y228268D01*
Y231417D01*
Y231872D01*
X197348D01*
X197558Y231558D01*
X198220Y231116D01*
X199000Y230961D01*
X199780Y231116D01*
X200442Y231558D01*
X200884Y232220D01*
X201039Y233000D01*
X200884Y233780D01*
X200442Y234442D01*
X199780Y234884D01*
X199685Y234903D01*
X199579Y235434D01*
X199633Y235470D01*
X201154Y236992D01*
X201780Y237116D01*
X202442Y237558D01*
X202884Y238220D01*
X203039Y239000D01*
X202884Y239780D01*
X202442Y240442D01*
X201780Y240884D01*
X201000Y241039D01*
X200220Y240884D01*
X199558Y240442D01*
X199116Y239780D01*
X198992Y239154D01*
X197918Y238081D01*
X191362D01*
Y238535D01*
Y240866D01*
Y244016D01*
Y247984D01*
X189529D01*
Y250000D01*
X189413Y250585D01*
X189081Y251081D01*
X188008Y252154D01*
X187884Y252780D01*
X187442Y253442D01*
X186780Y253884D01*
X186000Y254039D01*
X185220Y253884D01*
X184558Y253442D01*
X184116Y252780D01*
X183961Y252000D01*
X184116Y251220D01*
X184558Y250558D01*
X185220Y250116D01*
X185846Y249991D01*
X186471Y249366D01*
Y247984D01*
X184638D01*
Y247585D01*
X165578D01*
X145905Y267258D01*
X146034Y267500D01*
X146406Y268726D01*
X146531Y270000D01*
X146406Y271274D01*
X146034Y272499D01*
X145431Y273629D01*
X144618Y274618D01*
X143629Y275431D01*
X142499Y276034D01*
X141274Y276406D01*
X140000Y276531D01*
X138726Y276406D01*
X137554Y276051D01*
X136549Y277056D01*
Y317451D01*
X142000D01*
X142975Y317645D01*
X143802Y318198D01*
X159802Y334198D01*
X160355Y335024D01*
X160549Y336000D01*
Y419000D01*
X160355Y419976D01*
X159802Y420802D01*
X150802Y429802D01*
X149976Y430355D01*
X149000Y430549D01*
D02*
G37*
%LPD*%
G36*
X284399Y71536D02*
X284080Y71148D01*
X283683Y71413D01*
X283098Y71529D01*
X266329D01*
X266034Y72500D01*
X265431Y73629D01*
X264618Y74618D01*
X264458Y74750D01*
Y75250D01*
X264618Y75382D01*
X265431Y76371D01*
X266034Y77500D01*
X266329Y78471D01*
X277465D01*
X284399Y71536D01*
D02*
G37*
G36*
X82291Y391146D02*
X94235D01*
X98219Y387162D01*
Y385743D01*
X96198D01*
X95340Y385572D01*
X94612Y385086D01*
X94126Y384358D01*
X93955Y383500D01*
X94100Y382770D01*
X93668Y382494D01*
X91176Y384987D01*
X90740Y385278D01*
Y387858D01*
X81260D01*
Y386455D01*
X74150D01*
X72549Y388056D01*
Y391604D01*
X72835Y391853D01*
X73416Y391771D01*
X73558Y391558D01*
X74220Y391116D01*
X75000Y390961D01*
X75780Y391116D01*
X76442Y391558D01*
X76884Y392220D01*
X77008Y392846D01*
X77634Y393471D01*
X82291D01*
Y391146D01*
D02*
G37*
G36*
X227501Y293966D02*
X228726Y293594D01*
X230000Y293469D01*
X230664Y293534D01*
X230891Y293054D01*
X214674Y276837D01*
X214636Y276779D01*
X214136Y276931D01*
Y281973D01*
X226606Y294444D01*
X227501Y293966D01*
D02*
G37*
G36*
X217501Y293966D02*
X218726Y293594D01*
X220000Y293468D01*
X220664Y293534D01*
X220891Y293054D01*
X211525Y283688D01*
X211486Y283630D01*
X210986Y283781D01*
Y288823D01*
X216607Y294444D01*
X217501Y293966D01*
D02*
G37*
G36*
X198478Y289359D02*
Y284317D01*
X197978Y284165D01*
X197940Y284223D01*
X189109Y293054D01*
X189336Y293534D01*
X190000Y293469D01*
X191274Y293594D01*
X192499Y293966D01*
X193394Y294444D01*
X198478Y289359D01*
D02*
G37*
G36*
X369577Y113858D02*
Y63125D01*
X367981Y61529D01*
X366329D01*
X366034Y62499D01*
X365431Y63629D01*
X364618Y64618D01*
X364458Y64750D01*
Y65250D01*
X364618Y65382D01*
X365431Y66371D01*
X366034Y67501D01*
X366406Y68726D01*
X366531Y70000D01*
X366406Y71274D01*
X366034Y72500D01*
X365431Y73629D01*
X364618Y74618D01*
X364458Y74750D01*
Y75250D01*
X364618Y75382D01*
X365431Y76371D01*
X366034Y77500D01*
X366406Y78726D01*
X366531Y80000D01*
X366406Y81274D01*
X366034Y82499D01*
X365431Y83629D01*
X364618Y84618D01*
X364458Y84750D01*
Y85250D01*
X364618Y85382D01*
X365431Y86371D01*
X366034Y87501D01*
X366406Y88726D01*
X366531Y90000D01*
X366406Y91274D01*
X366034Y92500D01*
X365431Y93629D01*
X364618Y94618D01*
X364458Y94750D01*
Y95250D01*
X364618Y95382D01*
X365431Y96371D01*
X366034Y97500D01*
X366406Y98726D01*
X366531Y100000D01*
X366406Y101274D01*
X366034Y102499D01*
X365431Y103629D01*
X364618Y104618D01*
X364458Y104750D01*
Y105250D01*
X364618Y105382D01*
X365431Y106371D01*
X366034Y107501D01*
X366406Y108726D01*
X366531Y110000D01*
X366406Y111274D01*
X366034Y112499D01*
X365431Y113629D01*
X364618Y114618D01*
X363629Y115431D01*
X362499Y116034D01*
X361274Y116406D01*
X360000Y116531D01*
X358726Y116406D01*
X357501Y116034D01*
X357239Y116461D01*
X360740Y119962D01*
X363473D01*
X369577Y113858D01*
D02*
G37*
G36*
X124808Y77971D02*
X118919Y72081D01*
X118587Y71585D01*
X118471Y71000D01*
Y66329D01*
X117500Y66034D01*
X116371Y65431D01*
X115382Y64618D01*
X115250Y64458D01*
X114750D01*
X114618Y64618D01*
X113629Y65431D01*
X112499Y66034D01*
X111529Y66329D01*
Y75366D01*
X114634Y78471D01*
X124601D01*
X124808Y77971D01*
D02*
G37*
G36*
X120155Y85800D02*
X120333Y84903D01*
X120842Y84142D01*
X121603Y83634D01*
X122500Y83455D01*
X123397Y83634D01*
X124158Y84142D01*
X124667Y84903D01*
X124745Y85298D01*
X125255D01*
X125333Y84903D01*
X125842Y84142D01*
X125971Y84056D01*
Y83134D01*
X124366Y81529D01*
X114000D01*
X113512Y81432D01*
X113415Y81413D01*
X112919Y81081D01*
X108919Y77081D01*
X108587Y76585D01*
X108471Y76000D01*
Y66329D01*
X107501Y66034D01*
X106371Y65431D01*
X105382Y64618D01*
X104569Y63629D01*
X103966Y62499D01*
X103594Y61274D01*
X103469Y60000D01*
X103594Y58726D01*
X103966Y57500D01*
X104569Y56371D01*
X105382Y55382D01*
X105542Y55250D01*
Y54750D01*
X105382Y54618D01*
X104569Y53629D01*
X103966Y52500D01*
X103672Y51529D01*
X96329D01*
X96034Y52500D01*
X95431Y53629D01*
X94618Y54618D01*
X93629Y55431D01*
X92529Y56018D01*
Y76367D01*
X103633Y87471D01*
X120155D01*
Y85800D01*
D02*
G37*
G36*
X289399Y61536D02*
X289080Y61148D01*
X288683Y61413D01*
X288098Y61529D01*
X266329D01*
X266034Y62499D01*
X265431Y63629D01*
X264618Y64618D01*
X264458Y64750D01*
Y65250D01*
X264618Y65382D01*
X265431Y66371D01*
X266034Y67501D01*
X266329Y68471D01*
X282465D01*
X289399Y61536D01*
D02*
G37*
G36*
X128852Y76982D02*
X128587Y76585D01*
X128471Y76000D01*
Y66329D01*
X127500Y66034D01*
X126371Y65431D01*
X125382Y64618D01*
X125250Y64458D01*
X124750D01*
X124618Y64618D01*
X123629Y65431D01*
X122500Y66034D01*
X121529Y66329D01*
Y70367D01*
X128464Y77301D01*
X128852Y76982D01*
D02*
G37*
G36*
X158471Y72366D02*
Y66329D01*
X157501Y66034D01*
X156371Y65431D01*
X155382Y64618D01*
X155250Y64458D01*
X154750D01*
X154618Y64618D01*
X153629Y65431D01*
X152499Y66034D01*
X151529Y66329D01*
Y78000D01*
X151432Y78488D01*
X151413Y78585D01*
X151148Y78982D01*
X151536Y79301D01*
X158471Y72366D01*
D02*
G37*
G36*
X155333Y84903D02*
X155842Y84142D01*
X155971Y84056D01*
Y83500D01*
X156087Y82915D01*
X156419Y82419D01*
X168471Y70367D01*
Y66329D01*
X167500Y66034D01*
X166371Y65431D01*
X165382Y64618D01*
X165250Y64458D01*
X164750D01*
X164618Y64618D01*
X163629Y65431D01*
X162499Y66034D01*
X161529Y66329D01*
Y73000D01*
X161413Y73585D01*
X161081Y74081D01*
X154029Y81134D01*
Y84056D01*
X154158Y84142D01*
X154667Y84903D01*
X154745Y85298D01*
X155255D01*
X155333Y84903D01*
D02*
G37*
G36*
X140333D02*
X140842Y84142D01*
X140971Y84056D01*
Y80133D01*
X138919Y78081D01*
X138587Y77585D01*
X138471Y77000D01*
Y66329D01*
X137501Y66034D01*
X136371Y65431D01*
X135382Y64618D01*
X135250Y64458D01*
X134750D01*
X134618Y64618D01*
X133629Y65431D01*
X132500Y66034D01*
X131529Y66329D01*
Y75366D01*
X138581Y82419D01*
X138913Y82915D01*
X139029Y83500D01*
Y84056D01*
X139158Y84142D01*
X139667Y84903D01*
X139745Y85298D01*
X140255D01*
X140333Y84903D01*
D02*
G37*
G36*
X145333D02*
X145842Y84142D01*
X145971Y84056D01*
Y80500D01*
X146087Y79915D01*
X146419Y79419D01*
X148471Y77367D01*
Y66329D01*
X147501Y66034D01*
X146371Y65431D01*
X145382Y64618D01*
X145250Y64458D01*
X144750D01*
X144618Y64618D01*
X143629Y65431D01*
X142499Y66034D01*
X141529Y66329D01*
Y76367D01*
X143581Y78419D01*
X143913Y78915D01*
X143932Y79012D01*
X144029Y79500D01*
Y84056D01*
X144158Y84142D01*
X144667Y84903D01*
X144745Y85298D01*
X145255D01*
X145333Y84903D01*
D02*
G37*
G36*
X195364Y193769D02*
Y188727D01*
X182612Y175974D01*
X182500Y176034D01*
X181274Y176406D01*
X180000Y176531D01*
X178726Y176406D01*
X177793Y176123D01*
X177528Y176565D01*
X194825Y193863D01*
X194864Y193921D01*
X195364Y193769D01*
D02*
G37*
G36*
X198514Y186919D02*
Y181877D01*
X192611Y175974D01*
X192499Y176034D01*
X191274Y176406D01*
X190000Y176531D01*
X188726Y176406D01*
X187793Y176123D01*
X187528Y176565D01*
X197975Y187012D01*
X198014Y187070D01*
X198514Y186919D01*
D02*
G37*
G36*
X253538Y189294D02*
X253594Y188726D01*
X253966Y187501D01*
X254569Y186371D01*
X255382Y185382D01*
X255542Y185250D01*
Y184750D01*
X255382Y184618D01*
X254569Y183629D01*
X253966Y182500D01*
X253594Y181274D01*
X253469Y180000D01*
X253594Y178726D01*
X253966Y177500D01*
X254569Y176371D01*
X255382Y175382D01*
X255542Y175250D01*
Y174750D01*
X255382Y174618D01*
X254569Y173629D01*
X253966Y172500D01*
X253594Y171274D01*
X253469Y170000D01*
X253594Y168726D01*
X253966Y167500D01*
X254569Y166371D01*
X255382Y165382D01*
X255542Y165250D01*
Y164750D01*
X255382Y164618D01*
X254569Y163629D01*
X253966Y162499D01*
X253594Y161274D01*
X253469Y160000D01*
X253594Y158726D01*
X253966Y157501D01*
X254569Y156371D01*
X255382Y155382D01*
X255542Y155250D01*
Y154750D01*
X255382Y154618D01*
X254569Y153629D01*
X253966Y152499D01*
X253594Y151274D01*
X253469Y150000D01*
X253594Y148726D01*
X253966Y147501D01*
X254569Y146371D01*
X255382Y145382D01*
X255471Y145308D01*
X255488Y144783D01*
X255216Y144512D01*
X254692Y144529D01*
X254618Y144618D01*
X253629Y145431D01*
X252549Y146008D01*
Y188944D01*
X253067Y189462D01*
X253538Y189294D01*
D02*
G37*
G36*
X263567Y250997D02*
X263469Y250000D01*
X263594Y248726D01*
X263966Y247500D01*
X264339Y246802D01*
X258659Y241122D01*
X253617D01*
X253465Y241621D01*
X253523Y241660D01*
X263087Y251224D01*
X263567Y250997D01*
D02*
G37*
G36*
X156535Y228278D02*
X156477Y228240D01*
X146892Y218654D01*
X146422Y218892D01*
X146531Y220000D01*
X146406Y221274D01*
X146034Y222499D01*
X145696Y223133D01*
X151341Y228779D01*
X156383D01*
X156535Y228278D01*
D02*
G37*
G36*
X134453Y236589D02*
X134569Y236371D01*
X135382Y235382D01*
X135542Y235250D01*
Y234750D01*
X135382Y234618D01*
X134569Y233629D01*
X133966Y232500D01*
X133594Y231274D01*
X133469Y230000D01*
X133594Y228726D01*
X133966Y227501D01*
X134444Y226606D01*
X118072Y210235D01*
X117610Y210426D01*
Y214559D01*
X116171D01*
Y216146D01*
X117709D01*
Y220412D01*
X133959Y236662D01*
X134453Y236589D01*
D02*
G37*
G36*
X264060Y222676D02*
X263966Y222499D01*
X263594Y221274D01*
X263469Y220000D01*
X263594Y218726D01*
X263834Y217936D01*
X263391Y217671D01*
X252988Y228075D01*
X252930Y228114D01*
X253081Y228614D01*
X258123D01*
X264060Y222676D01*
D02*
G37*
G36*
X163385Y225129D02*
X163327Y225090D01*
X146892Y208654D01*
X146422Y208892D01*
X146531Y210000D01*
X146406Y211274D01*
X146034Y212499D01*
X145696Y213133D01*
X158192Y225629D01*
X163234D01*
X163385Y225129D01*
D02*
G37*
G36*
X211560Y186477D02*
X221113Y176924D01*
X220886Y176444D01*
X220000Y176531D01*
X218726Y176406D01*
X217500Y176034D01*
X216737Y175626D01*
X211021Y181341D01*
Y186383D01*
X211522Y186535D01*
X211560Y186477D01*
D02*
G37*
G36*
X264060Y212677D02*
X263966Y212499D01*
X263594Y211274D01*
X263469Y210000D01*
X263594Y208726D01*
X263834Y207936D01*
X263391Y207671D01*
X246137Y224925D01*
X246079Y224964D01*
X246231Y225464D01*
X251273D01*
X264060Y212677D01*
D02*
G37*
G36*
X125382Y155382D02*
X126371Y154569D01*
X127500Y153966D01*
X128471Y153672D01*
Y131000D01*
X128587Y130415D01*
X128919Y129919D01*
X135971Y122866D01*
Y115944D01*
X135842Y115858D01*
X135333Y115097D01*
X135255Y114702D01*
X134745D01*
X134667Y115097D01*
X134158Y115858D01*
X134029Y115944D01*
Y121500D01*
X133913Y122085D01*
X133581Y122581D01*
X121529Y134634D01*
Y153672D01*
X122500Y153966D01*
X123629Y154569D01*
X124618Y155382D01*
X124750Y155542D01*
X125250D01*
X125382Y155382D01*
D02*
G37*
G36*
X135382D02*
X136371Y154569D01*
X137501Y153966D01*
X138471Y153672D01*
Y130000D01*
X138587Y129415D01*
X138919Y128919D01*
X140971Y126866D01*
Y115944D01*
X140842Y115858D01*
X140333Y115097D01*
X140255Y114702D01*
X139745D01*
X139667Y115097D01*
X139158Y115858D01*
X139029Y115944D01*
Y123500D01*
X138913Y124085D01*
X138581Y124581D01*
X131529Y131633D01*
Y153672D01*
X132500Y153966D01*
X133629Y154569D01*
X134618Y155382D01*
X134750Y155542D01*
X135250D01*
X135382Y155382D01*
D02*
G37*
G36*
X115382D02*
X116371Y154569D01*
X117500Y153966D01*
X118471Y153672D01*
Y134000D01*
X118587Y133415D01*
X118919Y132919D01*
X130971Y120867D01*
Y115944D01*
X130842Y115858D01*
X130333Y115097D01*
X130255Y114702D01*
X129745D01*
X129667Y115097D01*
X129158Y115858D01*
X129029Y115944D01*
Y119500D01*
X128913Y120085D01*
X128581Y120581D01*
X111529Y137634D01*
Y153672D01*
X112499Y153966D01*
X113629Y154569D01*
X114618Y155382D01*
X114750Y155542D01*
X115250D01*
X115382Y155382D01*
D02*
G37*
G36*
X267628Y304971D02*
X267226Y304804D01*
X266077Y303923D01*
X265196Y302774D01*
X264642Y301436D01*
X264453Y300000D01*
X264642Y298564D01*
X265196Y297226D01*
X266077Y296077D01*
X266213Y295973D01*
X266052Y295500D01*
X264500D01*
Y284500D01*
X274337D01*
X275471Y283366D01*
Y274368D01*
X274971Y274189D01*
X274618Y274618D01*
X273629Y275431D01*
X272499Y276034D01*
X271274Y276406D01*
X270000Y276532D01*
X268726Y276406D01*
X267500Y276034D01*
X266606Y275556D01*
X263529Y278633D01*
Y302366D01*
X266634Y305471D01*
X267529D01*
X267628Y304971D01*
D02*
G37*
G36*
X165382Y155382D02*
X166371Y154569D01*
X167500Y153966D01*
X168471Y153672D01*
Y119633D01*
X161366Y112529D01*
X159845D01*
Y114200D01*
X159667Y115097D01*
X159158Y115858D01*
X158397Y116367D01*
X157500Y116545D01*
X156603Y116367D01*
X155842Y115858D01*
X155333Y115097D01*
X155255Y114702D01*
X154745D01*
X154667Y115097D01*
X154158Y115858D01*
X154029Y115944D01*
Y119867D01*
X161081Y126919D01*
X161413Y127415D01*
X161529Y128000D01*
Y153672D01*
X162499Y153966D01*
X163629Y154569D01*
X164618Y155382D01*
X164750Y155542D01*
X165250D01*
X165382Y155382D01*
D02*
G37*
G36*
X263567Y260997D02*
X263468Y260000D01*
X263594Y258726D01*
X263966Y257501D01*
X264339Y256802D01*
X251808Y244271D01*
X246766D01*
X246615Y244771D01*
X246673Y244810D01*
X263087Y261224D01*
X263567Y260997D01*
D02*
G37*
G36*
X157012Y241825D02*
X157070Y241786D01*
X156919Y241286D01*
X151877D01*
X145905Y247258D01*
X146034Y247500D01*
X146406Y248726D01*
X146531Y250000D01*
X146406Y251274D01*
X146210Y251920D01*
X146652Y252185D01*
X157012Y241825D01*
D02*
G37*
G36*
X163863Y244974D02*
X163921Y244936D01*
X163769Y244436D01*
X158727D01*
X145905Y257258D01*
X146034Y257501D01*
X146406Y258726D01*
X146531Y260000D01*
X146406Y261274D01*
X146210Y261920D01*
X146652Y262185D01*
X163863Y244974D01*
D02*
G37*
G36*
X145382Y155382D02*
X146371Y154569D01*
X147501Y153966D01*
X148471Y153672D01*
Y130633D01*
X146419Y128581D01*
X146087Y128085D01*
X145971Y127500D01*
Y115944D01*
X145842Y115858D01*
X145333Y115097D01*
X145255Y114702D01*
X144745D01*
X144667Y115097D01*
X144158Y115858D01*
X144029Y115944D01*
Y127500D01*
X143932Y127988D01*
X143913Y128085D01*
X143581Y128581D01*
X141529Y130633D01*
Y153672D01*
X142499Y153966D01*
X143629Y154569D01*
X144618Y155382D01*
X144750Y155542D01*
X145250D01*
X145382Y155382D01*
D02*
G37*
G36*
X155382D02*
X156371Y154569D01*
X157501Y153966D01*
X158471Y153672D01*
Y128633D01*
X151419Y121581D01*
X151087Y121085D01*
X150971Y120500D01*
Y115944D01*
X150842Y115858D01*
X150333Y115097D01*
X150255Y114702D01*
X149745D01*
X149667Y115097D01*
X149158Y115858D01*
X149029Y115944D01*
Y126866D01*
X151081Y128919D01*
X151413Y129415D01*
X151432Y129512D01*
X151529Y130000D01*
Y153672D01*
X152499Y153966D01*
X153629Y154569D01*
X154618Y155382D01*
X154750Y155542D01*
X155250D01*
X155382Y155382D01*
D02*
G37*
D10*
X188000Y246000D02*
D03*
Y242850D02*
D03*
Y239701D02*
D03*
Y236551D02*
D03*
Y233402D02*
D03*
Y230252D02*
D03*
Y227102D02*
D03*
Y223953D02*
D03*
X221465D02*
D03*
Y227102D02*
D03*
Y230252D02*
D03*
Y233402D02*
D03*
Y236551D02*
D03*
Y239701D02*
D03*
Y242850D02*
D03*
Y246000D02*
D03*
D11*
X193709Y218244D02*
D03*
X196858D02*
D03*
X200008D02*
D03*
X203157D02*
D03*
X206307D02*
D03*
X209457D02*
D03*
X212606D02*
D03*
X215756D02*
D03*
Y251709D02*
D03*
X212606D02*
D03*
X209457D02*
D03*
X206307D02*
D03*
X203157D02*
D03*
X200008D02*
D03*
X196858D02*
D03*
X193709D02*
D03*
D12*
X157500Y111000D02*
D03*
X152500D02*
D03*
X147500D02*
D03*
X142500D02*
D03*
X137500D02*
D03*
X132500D02*
D03*
X127500D02*
D03*
X122500D02*
D03*
Y89000D02*
D03*
X127500D02*
D03*
X132500D02*
D03*
X137500D02*
D03*
X142500D02*
D03*
X147500D02*
D03*
X152500D02*
D03*
X157500D02*
D03*
D13*
X310551Y107500D02*
D03*
Y102500D02*
D03*
Y97500D02*
D03*
Y92500D02*
D03*
Y87500D02*
D03*
Y82500D02*
D03*
Y77500D02*
D03*
Y72500D02*
D03*
X329449Y107500D02*
D03*
Y102500D02*
D03*
Y97500D02*
D03*
Y92500D02*
D03*
Y87500D02*
D03*
Y82500D02*
D03*
Y77500D02*
D03*
Y72500D02*
D03*
D14*
X98148Y383500D02*
D03*
Y378500D02*
D03*
Y373500D02*
D03*
Y368500D02*
D03*
X119400Y383500D02*
D03*
Y378500D02*
D03*
Y373500D02*
D03*
Y368500D02*
D03*
D15*
X85850Y395000D02*
D03*
X92150D02*
D03*
X100850Y265000D02*
D03*
X107150D02*
D03*
X100850Y245000D02*
D03*
X107150D02*
D03*
X107851Y220000D02*
D03*
X114150D02*
D03*
X306850Y120000D02*
D03*
X313150D02*
D03*
D16*
X129000Y335752D02*
D03*
Y342248D02*
D03*
X121000D02*
D03*
Y335752D02*
D03*
X141000Y346087D02*
D03*
Y339591D02*
D03*
Y383248D02*
D03*
Y376752D02*
D03*
D17*
X200000Y151571D02*
D03*
Y160429D02*
D03*
X190000Y151571D02*
D03*
Y160429D02*
D03*
X180000Y151571D02*
D03*
Y160429D02*
D03*
D18*
X190000Y144642D02*
D03*
Y137358D02*
D03*
X200000Y144642D02*
D03*
Y137358D02*
D03*
X180000Y144642D02*
D03*
X180000Y137358D02*
D03*
D19*
X114642Y211000D02*
D03*
X107358D02*
D03*
X236358Y60000D02*
D03*
X243642D02*
D03*
X236358Y70000D02*
D03*
X243642D02*
D03*
X236358Y80000D02*
D03*
X243642D02*
D03*
X236358Y90000D02*
D03*
X243642D02*
D03*
X236358Y100000D02*
D03*
X243642D02*
D03*
X236358Y110000D02*
D03*
X243642D02*
D03*
X171358Y313000D02*
D03*
X178642D02*
D03*
D20*
X86000Y383906D02*
D03*
Y372094D02*
D03*
X90000Y335094D02*
D03*
Y346905D02*
D03*
D21*
X141000Y401543D02*
D03*
Y394457D02*
D03*
Y364543D02*
D03*
Y357457D02*
D03*
D22*
X65000Y337000D02*
D03*
Y359000D02*
D03*
D23*
X245056Y223844D02*
X268900Y200000D01*
X306850Y111201D02*
Y120000D01*
Y111201D02*
X310551Y107500D01*
X177000Y262000D02*
X183417D01*
X193709Y251709D01*
X215791Y194409D02*
Y218991D01*
X104000Y220000D02*
X107851D01*
X100000Y216000D02*
X104000Y220000D01*
X100000Y124000D02*
Y216000D01*
X310000Y290000D02*
X315000Y295000D01*
Y306000D01*
X303642Y317358D02*
X315000Y306000D01*
X171358Y317358D02*
X303642D01*
X171358Y313000D02*
Y317358D01*
X221009Y223844D02*
X245056D01*
X213000Y224000D02*
X213047Y223953D01*
X221465D01*
X164944Y246056D02*
X188000D01*
Y250000D01*
Y246000D02*
Y246056D01*
X186000Y252000D02*
X188000Y250000D01*
X143858Y233457D02*
X188991D01*
X198598Y233402D02*
X199000Y233000D01*
X188000Y233402D02*
X198598D01*
X144393Y236607D02*
X188991D01*
X198551Y236551D02*
X201000Y239000D01*
X188000Y236551D02*
X198551D01*
X296000Y284000D02*
X304000D01*
X290000Y290000D02*
X296000Y284000D01*
X277000Y267000D02*
Y284000D01*
X270000Y260000D02*
X277000Y267000D01*
X304000Y284000D02*
X310000Y290000D01*
X252442Y242742D02*
X269300Y259600D01*
X280000Y290000D02*
X290000D01*
X270000Y300000D02*
X275000Y295000D01*
Y286000D02*
Y295000D01*
Y286000D02*
X277000Y284000D01*
X280000Y300000D02*
Y305000D01*
X278000Y307000D02*
X280000Y305000D01*
X266000Y307000D02*
X278000D01*
X262000Y303000D02*
X266000Y307000D01*
X262000Y278000D02*
Y303000D01*
Y278000D02*
X270000Y270000D01*
X170000Y311642D02*
X171358Y313000D01*
X170000Y300000D02*
Y311642D01*
X178642Y313000D02*
X180000Y311642D01*
Y300000D02*
Y311642D01*
X221009Y245891D02*
X245591D01*
X269300Y269600D01*
X221009Y242742D02*
X252442D01*
X221009Y239592D02*
X259292D01*
X269300Y249600D01*
X221009Y236442D02*
X266142D01*
X269300Y239600D01*
X221009Y233293D02*
X265607D01*
X269300Y229600D01*
X221009Y230143D02*
X258757D01*
X269300Y219600D01*
X221009Y226994D02*
X251906D01*
X269300Y209600D01*
X164409Y224009D02*
X188991D01*
X140700Y200300D02*
X164409Y224009D01*
X157558Y227158D02*
X188991D01*
X140700Y210300D02*
X157558Y227158D01*
X150708Y230308D02*
X188991D01*
X140700Y220300D02*
X150708Y230308D01*
X140700Y230300D02*
X143858Y233457D01*
X140700Y240300D02*
X144393Y236607D01*
X151243Y239757D02*
X188991D01*
X140700Y250300D02*
X151243Y239757D01*
X158094Y242906D02*
X188991D01*
X140700Y260300D02*
X158094Y242906D01*
X140700Y270300D02*
X164944Y246056D01*
X215791Y194409D02*
X239500Y170700D01*
X212642Y187558D02*
Y218991D01*
Y187558D02*
X229500Y170700D01*
X209492Y180708D02*
Y218991D01*
Y180708D02*
X219500Y170700D01*
X206343Y173858D02*
Y218991D01*
Y173858D02*
X209500Y170700D01*
X203193Y174393D02*
Y218991D01*
X199500Y170700D02*
X203193Y174393D01*
X200043Y181243D02*
Y218991D01*
X189500Y170700D02*
X200043Y181243D01*
X196894Y188094D02*
Y218991D01*
X179500Y170700D02*
X196894Y188094D01*
X193744Y194944D02*
Y218991D01*
X169500Y170700D02*
X193744Y194944D01*
X215756Y275756D02*
X240000Y300000D01*
X215756Y251709D02*
Y275756D01*
X212606Y282606D02*
X230000Y300000D01*
X212606Y251709D02*
Y282606D01*
X209457Y289457D02*
X220000Y300000D01*
X209457Y251709D02*
Y289457D01*
X206307Y296307D02*
X210000Y300000D01*
X206307Y251709D02*
Y296307D01*
X200000Y300000D02*
X203157Y296842D01*
Y251709D02*
Y296842D01*
X190000Y300000D02*
X200008Y289992D01*
Y251709D02*
Y289992D01*
X180000Y300000D02*
X196858Y283142D01*
Y251709D02*
Y283142D01*
X170000Y300000D02*
X193709Y276291D01*
Y251709D02*
Y276291D01*
X200000Y160429D02*
Y170000D01*
X190000Y160429D02*
Y170000D01*
X180000Y160429D02*
Y170000D01*
X107358Y207642D02*
Y211000D01*
Y207642D02*
X110000Y205000D01*
X115000D01*
X140000Y230000D01*
X100850Y239149D02*
Y245000D01*
Y239149D02*
X107851Y232150D01*
Y220000D02*
Y232150D01*
X114642Y219508D02*
X135134Y240000D01*
X140000D01*
X114642Y211000D02*
Y219508D01*
X107150Y245000D02*
X121606D01*
X122000Y245394D01*
X126606Y250000D01*
X140000D01*
X107150Y265000D02*
X107543Y264606D01*
X122000D01*
X126606Y260000D01*
X140000D01*
X236358Y100000D02*
Y110000D01*
Y60000D02*
Y70000D01*
Y80000D01*
Y90000D01*
X243642Y80000D02*
X260000D01*
X236358Y90000D02*
Y100000D01*
X85000Y408000D02*
X146000D01*
X150000Y404000D01*
Y380000D02*
Y404000D01*
X146161Y376161D02*
X150000Y380000D01*
X77000Y395000D02*
X85457D01*
X75000Y393000D02*
X77000Y395000D01*
X141000Y376161D02*
X146161D01*
X92543Y395000D02*
X99748Y387795D01*
Y383500D02*
Y387795D01*
X200000Y144642D02*
Y151571D01*
X190000Y144642D02*
Y151571D01*
X180000Y144642D02*
Y151571D01*
X321106Y65492D02*
X322106Y64492D01*
X321106Y65492D02*
Y85492D01*
X323114Y87500D01*
X318114Y72500D02*
X319106Y73492D01*
Y113492D01*
X323114Y87500D02*
X329449D01*
Y61834D02*
Y72500D01*
X351606Y58992D02*
Y91492D01*
X346606Y61492D02*
Y78992D01*
X336606Y51492D02*
X346606Y61492D01*
X324106Y56492D02*
X329449Y61834D01*
X360000Y60000D02*
X368615D01*
X371106Y62492D01*
Y114492D01*
X364106Y121492D02*
X371106Y114492D01*
X360106Y121492D02*
X364106D01*
X341114Y102500D02*
X360106Y121492D01*
X329449Y102500D02*
X341114D01*
X345598Y97500D02*
X351606Y91492D01*
X329449Y97500D02*
X345598D01*
X300106Y102492D02*
X300114Y102500D01*
X300106Y92492D02*
X300114Y92500D01*
X310551D01*
X300114Y82500D02*
X310551D01*
X329449Y77500D02*
X341098D01*
X343098Y82500D02*
X346606Y78992D01*
X300114Y102500D02*
X310551D01*
Y72500D02*
X318114D01*
X298098Y97500D02*
X310551D01*
X285598Y110000D02*
X298098Y97500D01*
X243642Y60000D02*
X260000D01*
X243642Y70000D02*
X260000D01*
X243642Y90000D02*
X260000D01*
X243642Y100000D02*
X260000D01*
X243642Y110000D02*
X260000D01*
X339106Y46492D02*
X351606Y58992D01*
X301606Y46492D02*
X339106D01*
X288098Y60000D02*
X301606Y46492D01*
X260000Y60000D02*
X288098D01*
X329449Y82500D02*
X343098D01*
X301606Y51492D02*
X336606D01*
X283098Y70000D02*
X301606Y51492D01*
X260000Y70000D02*
X283098D01*
X301606Y56492D02*
X324106D01*
X278098Y80000D02*
X301606Y56492D01*
X260000Y80000D02*
X278098D01*
X298098Y77500D02*
X310551D01*
X285598Y90000D02*
X298098Y77500D01*
X260000Y90000D02*
X285598D01*
X298098Y87500D02*
X310551D01*
X285598Y100000D02*
X298098Y87500D01*
X260000Y100000D02*
X285598D01*
X260000Y110000D02*
X285598D01*
X110000Y50000D02*
X120000D01*
X130000D01*
X140000D01*
X150000D01*
X160000D01*
X170000D01*
X103000Y89000D02*
X122500D01*
X91000Y77000D02*
X103000Y89000D01*
X90000Y50000D02*
X91000D01*
Y77000D01*
Y50000D02*
X110000D01*
X127500Y82500D02*
Y89000D01*
X125000Y80000D02*
X127500Y82500D01*
X114000Y80000D02*
X125000D01*
X110000Y76000D02*
X114000Y80000D01*
X110000Y60000D02*
Y76000D01*
X132500Y83500D02*
Y89000D01*
X120000Y71000D02*
X132500Y83500D01*
X120000Y60000D02*
Y71000D01*
X137500Y83500D02*
Y89000D01*
X130000Y76000D02*
X137500Y83500D01*
X130000Y60000D02*
Y76000D01*
X140000Y60000D02*
Y77000D01*
X142500Y79500D01*
Y89000D01*
X147500Y80500D02*
Y89000D01*
Y80500D02*
X150000Y78000D01*
Y60000D02*
Y78000D01*
X152500Y80500D02*
Y89000D01*
Y80500D02*
X160000Y73000D01*
Y60000D02*
Y73000D01*
X157500Y83500D02*
Y89000D01*
Y83500D02*
X170000Y71000D01*
Y60000D02*
Y71000D01*
X157500Y111000D02*
X162000D01*
X170000Y119000D01*
Y160000D01*
X152500Y111000D02*
Y120500D01*
X160000Y128000D01*
Y160000D01*
X147500Y111000D02*
Y127500D01*
X150000Y130000D01*
Y160000D01*
X142500Y111000D02*
Y127500D01*
X140000Y130000D02*
X142500Y127500D01*
X140000Y130000D02*
Y160000D01*
X137500Y111000D02*
Y123500D01*
X130000Y131000D02*
X137500Y123500D01*
X130000Y131000D02*
Y160000D01*
X132500Y111000D02*
Y121500D01*
X120000Y134000D02*
X132500Y121500D01*
X120000Y134000D02*
Y160000D01*
X127500Y111000D02*
Y119500D01*
X110000Y137000D02*
X127500Y119500D01*
X110000Y137000D02*
Y160000D01*
X100000Y124000D02*
X113000Y111000D01*
X122500D01*
X86000Y383906D02*
X90095D01*
X95500Y378500D01*
X99748D01*
X75000Y378000D02*
X91000D01*
X95500Y373500D01*
X99748D01*
X313052Y119546D02*
X319106Y113492D01*
D24*
X268900Y200000D02*
X270000D01*
X260000D02*
X268900D01*
X250000Y140000D02*
Y190000D01*
X260000Y200000D01*
X236358Y126358D02*
X240000Y130000D01*
X236358Y110000D02*
Y126358D01*
X312000Y130000D02*
X320000D01*
X310000D02*
X312000D01*
X313150Y128850D01*
Y120000D02*
Y128850D01*
X280000Y130000D02*
X290000D01*
X250000D02*
X260000D01*
X217358Y137358D02*
X240000Y160000D01*
X200000Y137358D02*
X217358D01*
X240000Y160000D02*
Y170000D01*
Y130000D02*
X250000D01*
X260000D02*
X270000D01*
X280000D01*
X290000D02*
X300000D01*
X310000D01*
X157000Y313000D02*
X171358D01*
X142000Y320000D02*
X158000Y336000D01*
X134000Y320000D02*
X142000D01*
X134000Y276000D02*
X140000Y270000D01*
X134000Y276000D02*
Y320000D01*
X100850Y245000D02*
Y265000D01*
X100000Y265850D02*
X100850Y265000D01*
X100000Y265850D02*
Y280000D01*
X180000Y137358D02*
X200000D01*
X227358Y110000D02*
X236358D01*
X200000Y137358D02*
X227358Y110000D01*
X129000Y335752D02*
X130752Y334000D01*
X136000D01*
X410000Y130000D02*
X420000D01*
X400000D02*
X410000D01*
X390000D02*
X400000D01*
X380000D02*
X390000D01*
X370000D02*
X380000D01*
X360000D02*
X370000D01*
X350000D02*
X360000D01*
X340000D02*
X350000D01*
X330000D02*
X340000D01*
X320000D02*
X330000D01*
X149000Y428000D02*
X158000Y419000D01*
X119000Y428000D02*
X149000D01*
X111000Y420000D02*
X119000Y428000D01*
X129543Y401543D02*
X141000D01*
X118252Y390252D02*
X129543Y401543D01*
X118252Y384000D02*
Y390252D01*
X131000Y391000D02*
X134457Y394457D01*
X141000D01*
X70000Y393000D02*
X85000Y408000D01*
X70000Y387000D02*
Y393000D01*
Y387000D02*
X73094Y383906D01*
X85000Y408000D02*
X90000Y413000D01*
Y420000D01*
X73094Y383906D02*
X86000D01*
X65000Y337000D02*
X88095D01*
X90000Y335094D01*
X65000Y359000D02*
Y368000D01*
X75000Y378000D01*
X140000Y364543D02*
X141000D01*
X130839Y383839D02*
X141000D01*
X118252Y373500D02*
X131043D01*
X118252Y378500D02*
X125500D01*
X130839Y383839D01*
X141000Y346677D02*
Y357457D01*
X136000Y334000D02*
X141000Y339000D01*
X119800Y368100D02*
X120600Y367300D01*
X121000Y342248D02*
Y366900D01*
Y342248D02*
X129000D01*
X106000Y335094D02*
Y338063D01*
X105032Y346905D02*
X106000Y345937D01*
X90000Y346905D02*
X105032D01*
X90000Y335094D02*
X106000D01*
X120343D02*
X121000Y335752D01*
X106000Y335094D02*
X120343D01*
Y329658D02*
Y335094D01*
X89595Y347311D02*
X90000Y346905D01*
X89595Y364595D02*
X93500Y368500D01*
X89595Y347311D02*
Y364595D01*
X86000Y372094D02*
X89906D01*
X93500Y368500D01*
X120600Y367300D02*
X121000Y366900D01*
X120343Y329658D02*
X130000Y320000D01*
X134000D01*
X131043Y373500D02*
X140000Y364543D01*
X158000Y336000D02*
Y419000D01*
X180000Y137358D02*
X180000Y137358D01*
D25*
X297000Y120000D02*
X306850D01*
D26*
X93500Y368500D02*
X98148D01*
D27*
X108650Y375900D02*
D03*
D28*
X190000Y330000D02*
D03*
X170000D02*
D03*
X180000D02*
D03*
X170000Y410000D02*
D03*
Y400000D02*
D03*
Y390000D02*
D03*
Y380000D02*
D03*
X180000D02*
D03*
Y390000D02*
D03*
Y400000D02*
D03*
X190000Y390000D02*
D03*
Y380000D02*
D03*
Y370000D02*
D03*
Y360000D02*
D03*
Y350000D02*
D03*
Y340000D02*
D03*
X170000D02*
D03*
Y360000D02*
D03*
Y370000D02*
D03*
Y350000D02*
D03*
X180000Y340000D02*
D03*
Y360000D02*
D03*
Y370000D02*
D03*
Y350000D02*
D03*
X170000Y420000D02*
D03*
X180000Y410000D02*
D03*
Y420000D02*
D03*
X190000D02*
D03*
Y410000D02*
D03*
Y400000D02*
D03*
X250000D02*
D03*
X240000D02*
D03*
Y410000D02*
D03*
X250000D02*
D03*
X230000Y400000D02*
D03*
X220000D02*
D03*
Y410000D02*
D03*
X230000D02*
D03*
Y420000D02*
D03*
X220000D02*
D03*
X250000D02*
D03*
X240000D02*
D03*
X210000D02*
D03*
X250000Y390000D02*
D03*
X240000D02*
D03*
X250000Y380000D02*
D03*
X210000Y410000D02*
D03*
X200000Y420000D02*
D03*
X230000Y390000D02*
D03*
X240000Y380000D02*
D03*
X250000Y370000D02*
D03*
X210000Y350000D02*
D03*
Y370000D02*
D03*
Y360000D02*
D03*
Y340000D02*
D03*
X200000Y350000D02*
D03*
Y370000D02*
D03*
Y360000D02*
D03*
Y340000D02*
D03*
X250000D02*
D03*
Y350000D02*
D03*
Y360000D02*
D03*
X240000Y370000D02*
D03*
X230000Y380000D02*
D03*
X240000Y360000D02*
D03*
Y350000D02*
D03*
Y340000D02*
D03*
X230000D02*
D03*
X220000D02*
D03*
Y350000D02*
D03*
X230000D02*
D03*
Y360000D02*
D03*
X220000D02*
D03*
X230000Y370000D02*
D03*
X220000D02*
D03*
Y380000D02*
D03*
Y390000D02*
D03*
X210000Y400000D02*
D03*
Y390000D02*
D03*
Y380000D02*
D03*
X200000D02*
D03*
Y390000D02*
D03*
Y400000D02*
D03*
Y410000D02*
D03*
X310000Y400000D02*
D03*
X300000D02*
D03*
Y410000D02*
D03*
X310000D02*
D03*
X290000Y400000D02*
D03*
X280000D02*
D03*
Y410000D02*
D03*
X290000D02*
D03*
Y420000D02*
D03*
X280000D02*
D03*
X310000D02*
D03*
X300000D02*
D03*
X270000D02*
D03*
X310000Y390000D02*
D03*
X300000D02*
D03*
X310000Y380000D02*
D03*
X270000Y410000D02*
D03*
X260000Y420000D02*
D03*
X290000Y390000D02*
D03*
X300000Y380000D02*
D03*
X310000Y370000D02*
D03*
X270000Y350000D02*
D03*
Y370000D02*
D03*
Y360000D02*
D03*
Y340000D02*
D03*
X260000Y350000D02*
D03*
Y370000D02*
D03*
Y360000D02*
D03*
Y340000D02*
D03*
X310000D02*
D03*
Y350000D02*
D03*
Y360000D02*
D03*
X300000Y370000D02*
D03*
X290000Y380000D02*
D03*
X300000Y360000D02*
D03*
Y350000D02*
D03*
Y340000D02*
D03*
X290000D02*
D03*
X280000D02*
D03*
Y350000D02*
D03*
X290000D02*
D03*
Y360000D02*
D03*
X280000D02*
D03*
X290000Y370000D02*
D03*
X280000D02*
D03*
Y380000D02*
D03*
Y390000D02*
D03*
X270000Y400000D02*
D03*
Y390000D02*
D03*
Y380000D02*
D03*
X260000D02*
D03*
Y390000D02*
D03*
Y400000D02*
D03*
Y410000D02*
D03*
X320000D02*
D03*
Y400000D02*
D03*
Y390000D02*
D03*
Y380000D02*
D03*
X330000D02*
D03*
Y390000D02*
D03*
Y400000D02*
D03*
X340000Y390000D02*
D03*
Y380000D02*
D03*
Y370000D02*
D03*
X350000D02*
D03*
X340000Y360000D02*
D03*
X350000D02*
D03*
Y350000D02*
D03*
X340000D02*
D03*
Y340000D02*
D03*
X350000D02*
D03*
X360000D02*
D03*
Y350000D02*
D03*
Y360000D02*
D03*
X350000Y380000D02*
D03*
X360000Y370000D02*
D03*
X370000Y360000D02*
D03*
Y350000D02*
D03*
Y340000D02*
D03*
X380000Y350000D02*
D03*
Y330000D02*
D03*
Y340000D02*
D03*
X260000Y190000D02*
D03*
Y180000D02*
D03*
X270000Y190000D02*
D03*
Y180000D02*
D03*
X260000Y150000D02*
D03*
Y160000D02*
D03*
Y170000D02*
D03*
X230000Y330000D02*
D03*
X240000D02*
D03*
X210000D02*
D03*
X200000D02*
D03*
X220000D02*
D03*
X250000D02*
D03*
X290000D02*
D03*
X300000D02*
D03*
X270000D02*
D03*
X260000D02*
D03*
X280000D02*
D03*
X310000D02*
D03*
X320000Y340000D02*
D03*
Y330000D02*
D03*
Y360000D02*
D03*
Y370000D02*
D03*
Y350000D02*
D03*
Y320000D02*
D03*
X330000Y340000D02*
D03*
Y330000D02*
D03*
Y360000D02*
D03*
Y370000D02*
D03*
Y350000D02*
D03*
Y320000D02*
D03*
X370000Y300000D02*
D03*
Y290000D02*
D03*
Y320000D02*
D03*
Y330000D02*
D03*
Y310000D02*
D03*
Y280000D02*
D03*
X360000Y300000D02*
D03*
Y290000D02*
D03*
Y320000D02*
D03*
Y330000D02*
D03*
Y310000D02*
D03*
Y280000D02*
D03*
X350000Y300000D02*
D03*
Y290000D02*
D03*
Y320000D02*
D03*
Y330000D02*
D03*
Y310000D02*
D03*
Y280000D02*
D03*
X340000Y300000D02*
D03*
Y290000D02*
D03*
Y320000D02*
D03*
Y330000D02*
D03*
Y310000D02*
D03*
Y280000D02*
D03*
X310000Y180000D02*
D03*
X300000D02*
D03*
X330000D02*
D03*
X340000D02*
D03*
X320000D02*
D03*
X290000D02*
D03*
X280000D02*
D03*
Y190000D02*
D03*
Y200000D02*
D03*
Y210000D02*
D03*
Y220000D02*
D03*
Y230000D02*
D03*
Y240000D02*
D03*
Y250000D02*
D03*
Y260000D02*
D03*
X290000Y190000D02*
D03*
Y200000D02*
D03*
Y210000D02*
D03*
Y220000D02*
D03*
Y230000D02*
D03*
Y240000D02*
D03*
Y250000D02*
D03*
Y260000D02*
D03*
Y270000D02*
D03*
X350000D02*
D03*
X370000D02*
D03*
X360000D02*
D03*
X350000Y250000D02*
D03*
X370000D02*
D03*
X360000D02*
D03*
Y260000D02*
D03*
X370000D02*
D03*
X350000D02*
D03*
X320000Y250000D02*
D03*
X340000D02*
D03*
X330000D02*
D03*
Y260000D02*
D03*
X340000D02*
D03*
X320000D02*
D03*
Y270000D02*
D03*
X340000D02*
D03*
X330000D02*
D03*
X300000D02*
D03*
X310000D02*
D03*
X300000Y260000D02*
D03*
X310000D02*
D03*
X300000Y250000D02*
D03*
X310000D02*
D03*
X350000Y240000D02*
D03*
X370000D02*
D03*
X360000D02*
D03*
X350000Y220000D02*
D03*
X370000D02*
D03*
X360000D02*
D03*
Y230000D02*
D03*
X370000D02*
D03*
X350000D02*
D03*
X320000Y220000D02*
D03*
X340000D02*
D03*
X330000D02*
D03*
Y230000D02*
D03*
X340000D02*
D03*
X320000D02*
D03*
Y240000D02*
D03*
X340000D02*
D03*
X330000D02*
D03*
X300000D02*
D03*
X310000D02*
D03*
X300000Y230000D02*
D03*
X310000D02*
D03*
X300000Y220000D02*
D03*
X310000D02*
D03*
X350000Y210000D02*
D03*
X370000D02*
D03*
X360000D02*
D03*
X350000Y190000D02*
D03*
X370000D02*
D03*
X360000D02*
D03*
Y200000D02*
D03*
X370000D02*
D03*
X350000D02*
D03*
X320000Y190000D02*
D03*
X340000D02*
D03*
X330000D02*
D03*
Y200000D02*
D03*
X340000D02*
D03*
X320000D02*
D03*
Y210000D02*
D03*
X340000D02*
D03*
X330000D02*
D03*
X300000D02*
D03*
X310000D02*
D03*
X300000Y200000D02*
D03*
X310000D02*
D03*
X300000Y190000D02*
D03*
X310000D02*
D03*
X320000Y170000D02*
D03*
X340000D02*
D03*
X330000D02*
D03*
X320000Y150000D02*
D03*
X340000D02*
D03*
X330000D02*
D03*
Y160000D02*
D03*
X340000D02*
D03*
X320000D02*
D03*
X290000Y150000D02*
D03*
X310000D02*
D03*
X300000D02*
D03*
Y160000D02*
D03*
X310000D02*
D03*
X290000D02*
D03*
Y170000D02*
D03*
X310000D02*
D03*
X300000D02*
D03*
X270000D02*
D03*
X280000D02*
D03*
X270000Y160000D02*
D03*
X280000D02*
D03*
X270000Y150000D02*
D03*
X280000D02*
D03*
X240000Y130000D02*
D03*
X250000D02*
D03*
Y140000D02*
D03*
X240000D02*
D03*
X270000D02*
D03*
X280000D02*
D03*
Y130000D02*
D03*
X270000D02*
D03*
X260000D02*
D03*
Y140000D02*
D03*
X300000D02*
D03*
X310000D02*
D03*
Y130000D02*
D03*
X300000D02*
D03*
X290000D02*
D03*
Y140000D02*
D03*
X90000Y230000D02*
D03*
Y220000D02*
D03*
Y240000D02*
D03*
Y250000D02*
D03*
X80000Y230000D02*
D03*
Y220000D02*
D03*
Y240000D02*
D03*
Y250000D02*
D03*
X70000Y230000D02*
D03*
Y220000D02*
D03*
Y240000D02*
D03*
Y250000D02*
D03*
X90000Y300000D02*
D03*
Y290000D02*
D03*
Y310000D02*
D03*
Y270000D02*
D03*
Y280000D02*
D03*
Y260000D02*
D03*
Y210000D02*
D03*
Y200000D02*
D03*
Y190000D02*
D03*
X80000Y210000D02*
D03*
X70000D02*
D03*
X80000Y200000D02*
D03*
X70000D02*
D03*
X80000Y190000D02*
D03*
X70000D02*
D03*
X60000D02*
D03*
X50000D02*
D03*
X60000Y200000D02*
D03*
X50000D02*
D03*
X60000Y210000D02*
D03*
X50000D02*
D03*
X80000Y260000D02*
D03*
X70000D02*
D03*
X60000Y250000D02*
D03*
Y240000D02*
D03*
Y260000D02*
D03*
Y220000D02*
D03*
Y230000D02*
D03*
X50000Y250000D02*
D03*
Y240000D02*
D03*
Y260000D02*
D03*
Y220000D02*
D03*
Y230000D02*
D03*
X360000Y150000D02*
D03*
X350000D02*
D03*
X360000Y160000D02*
D03*
X350000D02*
D03*
X360000Y170000D02*
D03*
X350000D02*
D03*
X360000Y180000D02*
D03*
X350000D02*
D03*
X380000Y360000D02*
D03*
X370000Y370000D02*
D03*
X360000Y380000D02*
D03*
X350000Y390000D02*
D03*
X320000Y420000D02*
D03*
X330000Y410000D02*
D03*
X390000Y330000D02*
D03*
Y340000D02*
D03*
Y350000D02*
D03*
X380000Y370000D02*
D03*
X390000Y360000D02*
D03*
Y370000D02*
D03*
X370000Y380000D02*
D03*
X360000Y390000D02*
D03*
X370000D02*
D03*
X330000Y420000D02*
D03*
X380000D02*
D03*
X390000D02*
D03*
X360000D02*
D03*
X370000D02*
D03*
X340000D02*
D03*
X350000D02*
D03*
Y410000D02*
D03*
X340000D02*
D03*
Y400000D02*
D03*
X350000D02*
D03*
X370000Y410000D02*
D03*
X360000D02*
D03*
Y400000D02*
D03*
X370000D02*
D03*
X390000Y410000D02*
D03*
X380000D02*
D03*
Y400000D02*
D03*
X390000D02*
D03*
Y390000D02*
D03*
X380000D02*
D03*
Y380000D02*
D03*
X390000D02*
D03*
Y290000D02*
D03*
X380000D02*
D03*
Y280000D02*
D03*
X390000D02*
D03*
Y310000D02*
D03*
X380000D02*
D03*
Y300000D02*
D03*
X390000D02*
D03*
Y320000D02*
D03*
X380000D02*
D03*
Y270000D02*
D03*
X390000D02*
D03*
Y250000D02*
D03*
X380000D02*
D03*
Y260000D02*
D03*
X390000D02*
D03*
Y230000D02*
D03*
X380000D02*
D03*
Y240000D02*
D03*
X390000D02*
D03*
X380000Y220000D02*
D03*
X390000D02*
D03*
X380000Y200000D02*
D03*
Y210000D02*
D03*
Y190000D02*
D03*
X390000Y200000D02*
D03*
Y210000D02*
D03*
Y190000D02*
D03*
X410000Y150000D02*
D03*
X420000D02*
D03*
X400000D02*
D03*
X380000D02*
D03*
X390000D02*
D03*
X370000D02*
D03*
X380000Y180000D02*
D03*
X390000D02*
D03*
X370000D02*
D03*
Y170000D02*
D03*
X390000D02*
D03*
X380000D02*
D03*
Y160000D02*
D03*
X390000D02*
D03*
X370000D02*
D03*
X400000Y170000D02*
D03*
X420000D02*
D03*
X410000D02*
D03*
Y160000D02*
D03*
X420000D02*
D03*
X400000D02*
D03*
Y190000D02*
D03*
X420000D02*
D03*
X410000D02*
D03*
Y180000D02*
D03*
X420000D02*
D03*
X400000D02*
D03*
Y210000D02*
D03*
X420000D02*
D03*
X410000D02*
D03*
Y200000D02*
D03*
X420000D02*
D03*
X400000D02*
D03*
Y250000D02*
D03*
X420000D02*
D03*
X410000D02*
D03*
Y240000D02*
D03*
X420000D02*
D03*
X400000D02*
D03*
Y220000D02*
D03*
X420000D02*
D03*
X410000D02*
D03*
Y230000D02*
D03*
X420000D02*
D03*
X400000D02*
D03*
Y260000D02*
D03*
X420000D02*
D03*
X410000D02*
D03*
Y270000D02*
D03*
X420000D02*
D03*
X400000D02*
D03*
Y310000D02*
D03*
X420000D02*
D03*
X410000D02*
D03*
Y300000D02*
D03*
X420000D02*
D03*
X400000D02*
D03*
Y280000D02*
D03*
X420000D02*
D03*
X410000D02*
D03*
Y290000D02*
D03*
X420000D02*
D03*
X400000D02*
D03*
Y320000D02*
D03*
X420000D02*
D03*
X410000D02*
D03*
Y330000D02*
D03*
X420000D02*
D03*
X400000D02*
D03*
X50000Y280000D02*
D03*
X60000D02*
D03*
X80000D02*
D03*
X70000D02*
D03*
Y270000D02*
D03*
X80000D02*
D03*
X60000D02*
D03*
X50000D02*
D03*
Y310000D02*
D03*
X60000D02*
D03*
X80000D02*
D03*
X70000D02*
D03*
X50000Y290000D02*
D03*
X60000D02*
D03*
X80000D02*
D03*
X70000D02*
D03*
Y300000D02*
D03*
X80000D02*
D03*
X60000D02*
D03*
X50000D02*
D03*
X60000Y130000D02*
D03*
X50000D02*
D03*
X70000D02*
D03*
X90000D02*
D03*
X80000D02*
D03*
Y120000D02*
D03*
X90000D02*
D03*
X70000D02*
D03*
X50000D02*
D03*
X60000D02*
D03*
Y150000D02*
D03*
X50000D02*
D03*
X70000D02*
D03*
X90000D02*
D03*
X80000D02*
D03*
Y140000D02*
D03*
X90000D02*
D03*
X70000D02*
D03*
X50000D02*
D03*
X60000D02*
D03*
Y170000D02*
D03*
X50000D02*
D03*
X70000D02*
D03*
X90000D02*
D03*
X80000D02*
D03*
Y160000D02*
D03*
X90000D02*
D03*
X70000D02*
D03*
X50000D02*
D03*
X60000D02*
D03*
X80000Y180000D02*
D03*
X90000D02*
D03*
X70000D02*
D03*
X50000D02*
D03*
X60000D02*
D03*
Y100000D02*
D03*
X50000D02*
D03*
X70000D02*
D03*
X90000D02*
D03*
X80000D02*
D03*
Y110000D02*
D03*
X90000D02*
D03*
X70000D02*
D03*
X50000D02*
D03*
X60000D02*
D03*
X80000Y90000D02*
D03*
X90000D02*
D03*
X70000D02*
D03*
X50000D02*
D03*
X60000D02*
D03*
X400000Y120000D02*
D03*
X420000D02*
D03*
X410000D02*
D03*
X400000Y100000D02*
D03*
X420000D02*
D03*
X410000D02*
D03*
Y110000D02*
D03*
X420000D02*
D03*
X400000D02*
D03*
Y80000D02*
D03*
X420000D02*
D03*
X410000D02*
D03*
Y90000D02*
D03*
X420000D02*
D03*
X400000D02*
D03*
X320000Y140000D02*
D03*
Y130000D02*
D03*
X330000D02*
D03*
X340000D02*
D03*
X360000D02*
D03*
X350000D02*
D03*
X390000D02*
D03*
X380000D02*
D03*
X370000D02*
D03*
X400000D02*
D03*
X420000D02*
D03*
X410000D02*
D03*
Y140000D02*
D03*
X420000D02*
D03*
X400000D02*
D03*
X370000D02*
D03*
X380000D02*
D03*
X390000D02*
D03*
X350000D02*
D03*
X360000D02*
D03*
X340000D02*
D03*
X330000D02*
D03*
X400000Y390000D02*
D03*
X420000D02*
D03*
X410000D02*
D03*
Y380000D02*
D03*
X420000D02*
D03*
X400000D02*
D03*
X110000Y420000D02*
D03*
X130000D02*
D03*
X140000Y220000D02*
D03*
X140000Y230000D02*
D03*
Y270000D02*
D03*
X190000Y170000D02*
D03*
X210000D02*
D03*
X220000D02*
D03*
X230000D02*
D03*
X170000Y300000D02*
D03*
X190000Y300000D02*
D03*
X200000Y300000D02*
D03*
X210000Y300000D02*
D03*
X230000Y300000D02*
D03*
X240000Y300000D02*
D03*
X270000Y270000D02*
D03*
Y260000D02*
D03*
X270000Y250000D02*
D03*
Y240000D02*
D03*
X270000Y230000D02*
D03*
X270000Y220000D02*
D03*
X220000Y300000D02*
D03*
X270000Y210000D02*
D03*
X180000Y300000D02*
D03*
X140000Y260000D02*
D03*
Y250000D02*
D03*
X140000Y210000D02*
D03*
Y200000D02*
D03*
X170000Y170000D02*
D03*
X180000D02*
D03*
X200000D02*
D03*
X140000Y240000D02*
D03*
X360000Y110000D02*
D03*
Y100000D02*
D03*
Y90000D02*
D03*
Y80000D02*
D03*
Y70000D02*
D03*
Y60000D02*
D03*
X260000Y110000D02*
D03*
Y100000D02*
D03*
Y90000D02*
D03*
Y80000D02*
D03*
Y70000D02*
D03*
Y60000D02*
D03*
X110000Y50000D02*
D03*
X120000D02*
D03*
X130000Y60000D02*
D03*
Y50000D02*
D03*
X140000Y60000D02*
D03*
Y50000D02*
D03*
X150000Y60000D02*
D03*
Y50000D02*
D03*
X160000Y60000D02*
D03*
Y50000D02*
D03*
X110000Y160000D02*
D03*
X120000D02*
D03*
X130000D02*
D03*
X140000D02*
D03*
X150000D02*
D03*
X160000D02*
D03*
X170000D02*
D03*
X110000Y60000D02*
D03*
X120000D02*
D03*
X170000D02*
D03*
Y50000D02*
D03*
X90000D02*
D03*
Y420000D02*
D03*
X240000Y170000D02*
D03*
X270000Y200000D02*
D03*
X400000Y350000D02*
D03*
X420000D02*
D03*
X410000D02*
D03*
Y340000D02*
D03*
X420000D02*
D03*
X400000D02*
D03*
Y360000D02*
D03*
X420000D02*
D03*
X410000D02*
D03*
Y370000D02*
D03*
X420000D02*
D03*
X400000D02*
D03*
D29*
X122000Y264606D02*
D03*
D30*
X122000Y245394D02*
D03*
D31*
X290000Y300000D02*
D03*
Y290000D02*
D03*
X280000Y300000D02*
D03*
Y290000D02*
D03*
X270000Y300000D02*
D03*
X300000Y290000D02*
D03*
Y300000D02*
D03*
X310000Y290000D02*
D03*
Y300000D02*
D03*
D32*
X270000Y290000D02*
D03*
D33*
X60000Y410000D02*
D03*
Y60000D02*
D03*
X410000D02*
D03*
Y410000D02*
D03*
D34*
X106000Y338063D02*
D03*
D35*
Y345937D02*
D03*
D36*
X297000Y120000D02*
D03*
X177000Y262000D02*
D03*
X157000Y313000D02*
D03*
X213000Y224000D02*
D03*
X186000Y252000D02*
D03*
X199000Y233000D02*
D03*
X201000Y239000D02*
D03*
X100000Y280000D02*
D03*
X131000Y391000D02*
D03*
X75000Y393000D02*
D03*
X322106Y64492D02*
D03*
X300106Y102492D02*
D03*
Y92492D02*
D03*
X300114Y82500D02*
D03*
X341098Y77500D02*
D03*
X75000Y378000D02*
D03*
X136000Y334000D02*
D03*
M02*
