G04 Layer_Color=20142*
%FSLAX25Y25*%
%MOIN*%
G70*
G01*
G75*
%ADD27R,0.10300X0.13800*%
%ADD42R,0.05524X0.02769*%
%ADD43R,0.02769X0.05524*%
%ADD44O,0.03400X0.09800*%
%ADD45O,0.09461X0.03162*%
%ADD46O,0.07100X0.03200*%
%ADD47R,0.05918X0.06509*%
%ADD48R,0.05524X0.03950*%
%ADD49R,0.05918X0.05328*%
%ADD50R,0.05918X0.04737*%
%ADD51R,0.04737X0.05918*%
%ADD52R,0.08280X0.06706*%
%ADD53R,0.06902X0.06706*%
%ADD54R,0.07493X0.12611*%
%ADD55C,0.08800*%
%ADD56C,0.05524*%
%ADD57R,0.05524X0.05524*%
%ADD58C,0.06800*%
%ADD59R,0.06800X0.06800*%
%ADD60C,0.26784*%
%ADD61R,0.05918X0.05918*%
%ADD62C,0.05918*%
%ADD63C,0.02800*%
D27*
X108650Y375900D02*
D03*
D42*
X188000Y246000D02*
D03*
Y242850D02*
D03*
Y239701D02*
D03*
Y236551D02*
D03*
Y233402D02*
D03*
Y230252D02*
D03*
Y227102D02*
D03*
Y223953D02*
D03*
X221465D02*
D03*
Y227102D02*
D03*
Y230252D02*
D03*
Y233402D02*
D03*
Y236551D02*
D03*
Y239701D02*
D03*
Y242850D02*
D03*
Y246000D02*
D03*
D43*
X193709Y218244D02*
D03*
X196858D02*
D03*
X200008D02*
D03*
X203157D02*
D03*
X206307D02*
D03*
X209457D02*
D03*
X212606D02*
D03*
X215756D02*
D03*
Y251709D02*
D03*
X212606D02*
D03*
X209457D02*
D03*
X206307D02*
D03*
X203157D02*
D03*
X200008D02*
D03*
X196858D02*
D03*
X193709D02*
D03*
D44*
X157500Y111000D02*
D03*
X152500D02*
D03*
X147500D02*
D03*
X142500D02*
D03*
X137500D02*
D03*
X132500D02*
D03*
X127500D02*
D03*
X122500D02*
D03*
Y89000D02*
D03*
X127500D02*
D03*
X132500D02*
D03*
X137500D02*
D03*
X142500D02*
D03*
X147500D02*
D03*
X152500D02*
D03*
X157500D02*
D03*
D45*
X310551Y107500D02*
D03*
Y102500D02*
D03*
Y97500D02*
D03*
Y92500D02*
D03*
Y87500D02*
D03*
Y82500D02*
D03*
Y77500D02*
D03*
Y72500D02*
D03*
X329449Y107500D02*
D03*
Y102500D02*
D03*
Y97500D02*
D03*
Y92500D02*
D03*
Y87500D02*
D03*
Y82500D02*
D03*
Y77500D02*
D03*
Y72500D02*
D03*
D46*
X98148Y383500D02*
D03*
Y378500D02*
D03*
Y373500D02*
D03*
Y368500D02*
D03*
X119400Y383500D02*
D03*
Y378500D02*
D03*
Y373500D02*
D03*
Y368500D02*
D03*
D47*
X85850Y395000D02*
D03*
X92150D02*
D03*
X100850Y265000D02*
D03*
X107150D02*
D03*
X100850Y245000D02*
D03*
X107150D02*
D03*
X107851Y220000D02*
D03*
X114150D02*
D03*
X306850Y120000D02*
D03*
X313150D02*
D03*
D48*
X129000Y335752D02*
D03*
Y342248D02*
D03*
X121000D02*
D03*
Y335752D02*
D03*
X141000Y346087D02*
D03*
Y339591D02*
D03*
Y383248D02*
D03*
Y376752D02*
D03*
D49*
X200000Y151571D02*
D03*
Y160429D02*
D03*
X190000Y151571D02*
D03*
Y160429D02*
D03*
X180000Y151571D02*
D03*
Y160429D02*
D03*
D50*
X190000Y144642D02*
D03*
Y137358D02*
D03*
X200000Y144642D02*
D03*
Y137358D02*
D03*
X180000Y144642D02*
D03*
X180000Y137358D02*
D03*
D51*
X114642Y211000D02*
D03*
X107358D02*
D03*
X236358Y60000D02*
D03*
X243642D02*
D03*
X236358Y70000D02*
D03*
X243642D02*
D03*
X236358Y80000D02*
D03*
X243642D02*
D03*
X236358Y90000D02*
D03*
X243642D02*
D03*
X236358Y100000D02*
D03*
X243642D02*
D03*
X236358Y110000D02*
D03*
X243642D02*
D03*
X171358Y313000D02*
D03*
X178642D02*
D03*
D52*
X86000Y383906D02*
D03*
Y372094D02*
D03*
X90000Y335094D02*
D03*
Y346905D02*
D03*
D53*
X141000Y401543D02*
D03*
Y394457D02*
D03*
Y364543D02*
D03*
Y357457D02*
D03*
D54*
X65000Y337000D02*
D03*
Y359000D02*
D03*
D55*
X190000Y330000D02*
D03*
X170000D02*
D03*
X180000D02*
D03*
X170000Y410000D02*
D03*
Y400000D02*
D03*
Y390000D02*
D03*
Y380000D02*
D03*
X180000D02*
D03*
Y390000D02*
D03*
Y400000D02*
D03*
X190000Y390000D02*
D03*
Y380000D02*
D03*
Y370000D02*
D03*
Y360000D02*
D03*
Y350000D02*
D03*
Y340000D02*
D03*
X170000D02*
D03*
Y360000D02*
D03*
Y370000D02*
D03*
Y350000D02*
D03*
X180000Y340000D02*
D03*
Y360000D02*
D03*
Y370000D02*
D03*
Y350000D02*
D03*
X170000Y420000D02*
D03*
X180000Y410000D02*
D03*
Y420000D02*
D03*
X190000D02*
D03*
Y410000D02*
D03*
Y400000D02*
D03*
X250000D02*
D03*
X240000D02*
D03*
Y410000D02*
D03*
X250000D02*
D03*
X230000Y400000D02*
D03*
X220000D02*
D03*
Y410000D02*
D03*
X230000D02*
D03*
Y420000D02*
D03*
X220000D02*
D03*
X250000D02*
D03*
X240000D02*
D03*
X210000D02*
D03*
X250000Y390000D02*
D03*
X240000D02*
D03*
X250000Y380000D02*
D03*
X210000Y410000D02*
D03*
X200000Y420000D02*
D03*
X230000Y390000D02*
D03*
X240000Y380000D02*
D03*
X250000Y370000D02*
D03*
X210000Y350000D02*
D03*
Y370000D02*
D03*
Y360000D02*
D03*
Y340000D02*
D03*
X200000Y350000D02*
D03*
Y370000D02*
D03*
Y360000D02*
D03*
Y340000D02*
D03*
X250000D02*
D03*
Y350000D02*
D03*
Y360000D02*
D03*
X240000Y370000D02*
D03*
X230000Y380000D02*
D03*
X240000Y360000D02*
D03*
Y350000D02*
D03*
Y340000D02*
D03*
X230000D02*
D03*
X220000D02*
D03*
Y350000D02*
D03*
X230000D02*
D03*
Y360000D02*
D03*
X220000D02*
D03*
X230000Y370000D02*
D03*
X220000D02*
D03*
Y380000D02*
D03*
Y390000D02*
D03*
X210000Y400000D02*
D03*
Y390000D02*
D03*
Y380000D02*
D03*
X200000D02*
D03*
Y390000D02*
D03*
Y400000D02*
D03*
Y410000D02*
D03*
X310000Y400000D02*
D03*
X300000D02*
D03*
Y410000D02*
D03*
X310000D02*
D03*
X290000Y400000D02*
D03*
X280000D02*
D03*
Y410000D02*
D03*
X290000D02*
D03*
Y420000D02*
D03*
X280000D02*
D03*
X310000D02*
D03*
X300000D02*
D03*
X270000D02*
D03*
X310000Y390000D02*
D03*
X300000D02*
D03*
X310000Y380000D02*
D03*
X270000Y410000D02*
D03*
X260000Y420000D02*
D03*
X290000Y390000D02*
D03*
X300000Y380000D02*
D03*
X310000Y370000D02*
D03*
X270000Y350000D02*
D03*
Y370000D02*
D03*
Y360000D02*
D03*
Y340000D02*
D03*
X260000Y350000D02*
D03*
Y370000D02*
D03*
Y360000D02*
D03*
Y340000D02*
D03*
X310000D02*
D03*
Y350000D02*
D03*
Y360000D02*
D03*
X300000Y370000D02*
D03*
X290000Y380000D02*
D03*
X300000Y360000D02*
D03*
Y350000D02*
D03*
Y340000D02*
D03*
X290000D02*
D03*
X280000D02*
D03*
Y350000D02*
D03*
X290000D02*
D03*
Y360000D02*
D03*
X280000D02*
D03*
X290000Y370000D02*
D03*
X280000D02*
D03*
Y380000D02*
D03*
Y390000D02*
D03*
X270000Y400000D02*
D03*
Y390000D02*
D03*
Y380000D02*
D03*
X260000D02*
D03*
Y390000D02*
D03*
Y400000D02*
D03*
Y410000D02*
D03*
X320000D02*
D03*
Y400000D02*
D03*
Y390000D02*
D03*
Y380000D02*
D03*
X330000D02*
D03*
Y390000D02*
D03*
Y400000D02*
D03*
X340000Y390000D02*
D03*
Y380000D02*
D03*
Y370000D02*
D03*
X350000D02*
D03*
X340000Y360000D02*
D03*
X350000D02*
D03*
Y350000D02*
D03*
X340000D02*
D03*
Y340000D02*
D03*
X350000D02*
D03*
X360000D02*
D03*
Y350000D02*
D03*
Y360000D02*
D03*
X350000Y380000D02*
D03*
X360000Y370000D02*
D03*
X370000Y360000D02*
D03*
Y350000D02*
D03*
Y340000D02*
D03*
X380000Y350000D02*
D03*
Y330000D02*
D03*
Y340000D02*
D03*
X260000Y190000D02*
D03*
Y180000D02*
D03*
X270000Y190000D02*
D03*
Y180000D02*
D03*
X260000Y150000D02*
D03*
Y160000D02*
D03*
Y170000D02*
D03*
X230000Y330000D02*
D03*
X240000D02*
D03*
X210000D02*
D03*
X200000D02*
D03*
X220000D02*
D03*
X250000D02*
D03*
X290000D02*
D03*
X300000D02*
D03*
X270000D02*
D03*
X260000D02*
D03*
X280000D02*
D03*
X310000D02*
D03*
X320000Y340000D02*
D03*
Y330000D02*
D03*
Y360000D02*
D03*
Y370000D02*
D03*
Y350000D02*
D03*
Y320000D02*
D03*
X330000Y340000D02*
D03*
Y330000D02*
D03*
Y360000D02*
D03*
Y370000D02*
D03*
Y350000D02*
D03*
Y320000D02*
D03*
X370000Y300000D02*
D03*
Y290000D02*
D03*
Y320000D02*
D03*
Y330000D02*
D03*
Y310000D02*
D03*
Y280000D02*
D03*
X360000Y300000D02*
D03*
Y290000D02*
D03*
Y320000D02*
D03*
Y330000D02*
D03*
Y310000D02*
D03*
Y280000D02*
D03*
X350000Y300000D02*
D03*
Y290000D02*
D03*
Y320000D02*
D03*
Y330000D02*
D03*
Y310000D02*
D03*
Y280000D02*
D03*
X340000Y300000D02*
D03*
Y290000D02*
D03*
Y320000D02*
D03*
Y330000D02*
D03*
Y310000D02*
D03*
Y280000D02*
D03*
X310000Y180000D02*
D03*
X300000D02*
D03*
X330000D02*
D03*
X340000D02*
D03*
X320000D02*
D03*
X290000D02*
D03*
X280000D02*
D03*
Y190000D02*
D03*
Y200000D02*
D03*
Y210000D02*
D03*
Y220000D02*
D03*
Y230000D02*
D03*
Y240000D02*
D03*
Y250000D02*
D03*
Y260000D02*
D03*
X290000Y190000D02*
D03*
Y200000D02*
D03*
Y210000D02*
D03*
Y220000D02*
D03*
Y230000D02*
D03*
Y240000D02*
D03*
Y250000D02*
D03*
Y260000D02*
D03*
Y270000D02*
D03*
X350000D02*
D03*
X370000D02*
D03*
X360000D02*
D03*
X350000Y250000D02*
D03*
X370000D02*
D03*
X360000D02*
D03*
Y260000D02*
D03*
X370000D02*
D03*
X350000D02*
D03*
X320000Y250000D02*
D03*
X340000D02*
D03*
X330000D02*
D03*
Y260000D02*
D03*
X340000D02*
D03*
X320000D02*
D03*
Y270000D02*
D03*
X340000D02*
D03*
X330000D02*
D03*
X300000D02*
D03*
X310000D02*
D03*
X300000Y260000D02*
D03*
X310000D02*
D03*
X300000Y250000D02*
D03*
X310000D02*
D03*
X350000Y240000D02*
D03*
X370000D02*
D03*
X360000D02*
D03*
X350000Y220000D02*
D03*
X370000D02*
D03*
X360000D02*
D03*
Y230000D02*
D03*
X370000D02*
D03*
X350000D02*
D03*
X320000Y220000D02*
D03*
X340000D02*
D03*
X330000D02*
D03*
Y230000D02*
D03*
X340000D02*
D03*
X320000D02*
D03*
Y240000D02*
D03*
X340000D02*
D03*
X330000D02*
D03*
X300000D02*
D03*
X310000D02*
D03*
X300000Y230000D02*
D03*
X310000D02*
D03*
X300000Y220000D02*
D03*
X310000D02*
D03*
X350000Y210000D02*
D03*
X370000D02*
D03*
X360000D02*
D03*
X350000Y190000D02*
D03*
X370000D02*
D03*
X360000D02*
D03*
Y200000D02*
D03*
X370000D02*
D03*
X350000D02*
D03*
X320000Y190000D02*
D03*
X340000D02*
D03*
X330000D02*
D03*
Y200000D02*
D03*
X340000D02*
D03*
X320000D02*
D03*
Y210000D02*
D03*
X340000D02*
D03*
X330000D02*
D03*
X300000D02*
D03*
X310000D02*
D03*
X300000Y200000D02*
D03*
X310000D02*
D03*
X300000Y190000D02*
D03*
X310000D02*
D03*
X320000Y170000D02*
D03*
X340000D02*
D03*
X330000D02*
D03*
X320000Y150000D02*
D03*
X340000D02*
D03*
X330000D02*
D03*
Y160000D02*
D03*
X340000D02*
D03*
X320000D02*
D03*
X290000Y150000D02*
D03*
X310000D02*
D03*
X300000D02*
D03*
Y160000D02*
D03*
X310000D02*
D03*
X290000D02*
D03*
Y170000D02*
D03*
X310000D02*
D03*
X300000D02*
D03*
X270000D02*
D03*
X280000D02*
D03*
X270000Y160000D02*
D03*
X280000D02*
D03*
X270000Y150000D02*
D03*
X280000D02*
D03*
X240000Y130000D02*
D03*
X250000D02*
D03*
Y140000D02*
D03*
X240000D02*
D03*
X270000D02*
D03*
X280000D02*
D03*
Y130000D02*
D03*
X270000D02*
D03*
X260000D02*
D03*
Y140000D02*
D03*
X300000D02*
D03*
X310000D02*
D03*
Y130000D02*
D03*
X300000D02*
D03*
X290000D02*
D03*
Y140000D02*
D03*
X90000Y230000D02*
D03*
Y220000D02*
D03*
Y240000D02*
D03*
Y250000D02*
D03*
X80000Y230000D02*
D03*
Y220000D02*
D03*
Y240000D02*
D03*
Y250000D02*
D03*
X70000Y230000D02*
D03*
Y220000D02*
D03*
Y240000D02*
D03*
Y250000D02*
D03*
X90000Y300000D02*
D03*
Y290000D02*
D03*
Y310000D02*
D03*
Y270000D02*
D03*
Y280000D02*
D03*
Y260000D02*
D03*
Y210000D02*
D03*
Y200000D02*
D03*
Y190000D02*
D03*
X80000Y210000D02*
D03*
X70000D02*
D03*
X80000Y200000D02*
D03*
X70000D02*
D03*
X80000Y190000D02*
D03*
X70000D02*
D03*
X60000D02*
D03*
X50000D02*
D03*
X60000Y200000D02*
D03*
X50000D02*
D03*
X60000Y210000D02*
D03*
X50000D02*
D03*
X80000Y260000D02*
D03*
X70000D02*
D03*
X60000Y250000D02*
D03*
Y240000D02*
D03*
Y260000D02*
D03*
Y220000D02*
D03*
Y230000D02*
D03*
X50000Y250000D02*
D03*
Y240000D02*
D03*
Y260000D02*
D03*
Y220000D02*
D03*
Y230000D02*
D03*
X360000Y150000D02*
D03*
X350000D02*
D03*
X360000Y160000D02*
D03*
X350000D02*
D03*
X360000Y170000D02*
D03*
X350000D02*
D03*
X360000Y180000D02*
D03*
X350000D02*
D03*
X380000Y360000D02*
D03*
X370000Y370000D02*
D03*
X360000Y380000D02*
D03*
X350000Y390000D02*
D03*
X320000Y420000D02*
D03*
X330000Y410000D02*
D03*
X390000Y330000D02*
D03*
Y340000D02*
D03*
Y350000D02*
D03*
X380000Y370000D02*
D03*
X390000Y360000D02*
D03*
Y370000D02*
D03*
X370000Y380000D02*
D03*
X360000Y390000D02*
D03*
X370000D02*
D03*
X330000Y420000D02*
D03*
X380000D02*
D03*
X390000D02*
D03*
X360000D02*
D03*
X370000D02*
D03*
X340000D02*
D03*
X350000D02*
D03*
Y410000D02*
D03*
X340000D02*
D03*
Y400000D02*
D03*
X350000D02*
D03*
X370000Y410000D02*
D03*
X360000D02*
D03*
Y400000D02*
D03*
X370000D02*
D03*
X390000Y410000D02*
D03*
X380000D02*
D03*
Y400000D02*
D03*
X390000D02*
D03*
Y390000D02*
D03*
X380000D02*
D03*
Y380000D02*
D03*
X390000D02*
D03*
Y290000D02*
D03*
X380000D02*
D03*
Y280000D02*
D03*
X390000D02*
D03*
Y310000D02*
D03*
X380000D02*
D03*
Y300000D02*
D03*
X390000D02*
D03*
Y320000D02*
D03*
X380000D02*
D03*
Y270000D02*
D03*
X390000D02*
D03*
Y250000D02*
D03*
X380000D02*
D03*
Y260000D02*
D03*
X390000D02*
D03*
Y230000D02*
D03*
X380000D02*
D03*
Y240000D02*
D03*
X390000D02*
D03*
X380000Y220000D02*
D03*
X390000D02*
D03*
X380000Y200000D02*
D03*
Y210000D02*
D03*
Y190000D02*
D03*
X390000Y200000D02*
D03*
Y210000D02*
D03*
Y190000D02*
D03*
X410000Y150000D02*
D03*
X420000D02*
D03*
X400000D02*
D03*
X380000D02*
D03*
X390000D02*
D03*
X370000D02*
D03*
X380000Y180000D02*
D03*
X390000D02*
D03*
X370000D02*
D03*
Y170000D02*
D03*
X390000D02*
D03*
X380000D02*
D03*
Y160000D02*
D03*
X390000D02*
D03*
X370000D02*
D03*
X400000Y170000D02*
D03*
X420000D02*
D03*
X410000D02*
D03*
Y160000D02*
D03*
X420000D02*
D03*
X400000D02*
D03*
Y190000D02*
D03*
X420000D02*
D03*
X410000D02*
D03*
Y180000D02*
D03*
X420000D02*
D03*
X400000D02*
D03*
Y210000D02*
D03*
X420000D02*
D03*
X410000D02*
D03*
Y200000D02*
D03*
X420000D02*
D03*
X400000D02*
D03*
Y250000D02*
D03*
X420000D02*
D03*
X410000D02*
D03*
Y240000D02*
D03*
X420000D02*
D03*
X400000D02*
D03*
Y220000D02*
D03*
X420000D02*
D03*
X410000D02*
D03*
Y230000D02*
D03*
X420000D02*
D03*
X400000D02*
D03*
Y260000D02*
D03*
X420000D02*
D03*
X410000D02*
D03*
Y270000D02*
D03*
X420000D02*
D03*
X400000D02*
D03*
Y310000D02*
D03*
X420000D02*
D03*
X410000D02*
D03*
Y300000D02*
D03*
X420000D02*
D03*
X400000D02*
D03*
Y280000D02*
D03*
X420000D02*
D03*
X410000D02*
D03*
Y290000D02*
D03*
X420000D02*
D03*
X400000D02*
D03*
Y320000D02*
D03*
X420000D02*
D03*
X410000D02*
D03*
Y330000D02*
D03*
X420000D02*
D03*
X400000D02*
D03*
X50000Y280000D02*
D03*
X60000D02*
D03*
X80000D02*
D03*
X70000D02*
D03*
Y270000D02*
D03*
X80000D02*
D03*
X60000D02*
D03*
X50000D02*
D03*
Y310000D02*
D03*
X60000D02*
D03*
X80000D02*
D03*
X70000D02*
D03*
X50000Y290000D02*
D03*
X60000D02*
D03*
X80000D02*
D03*
X70000D02*
D03*
Y300000D02*
D03*
X80000D02*
D03*
X60000D02*
D03*
X50000D02*
D03*
X60000Y130000D02*
D03*
X50000D02*
D03*
X70000D02*
D03*
X90000D02*
D03*
X80000D02*
D03*
Y120000D02*
D03*
X90000D02*
D03*
X70000D02*
D03*
X50000D02*
D03*
X60000D02*
D03*
Y150000D02*
D03*
X50000D02*
D03*
X70000D02*
D03*
X90000D02*
D03*
X80000D02*
D03*
Y140000D02*
D03*
X90000D02*
D03*
X70000D02*
D03*
X50000D02*
D03*
X60000D02*
D03*
Y170000D02*
D03*
X50000D02*
D03*
X70000D02*
D03*
X90000D02*
D03*
X80000D02*
D03*
Y160000D02*
D03*
X90000D02*
D03*
X70000D02*
D03*
X50000D02*
D03*
X60000D02*
D03*
X80000Y180000D02*
D03*
X90000D02*
D03*
X70000D02*
D03*
X50000D02*
D03*
X60000D02*
D03*
Y100000D02*
D03*
X50000D02*
D03*
X70000D02*
D03*
X90000D02*
D03*
X80000D02*
D03*
Y110000D02*
D03*
X90000D02*
D03*
X70000D02*
D03*
X50000D02*
D03*
X60000D02*
D03*
X80000Y90000D02*
D03*
X90000D02*
D03*
X70000D02*
D03*
X50000D02*
D03*
X60000D02*
D03*
X400000Y120000D02*
D03*
X420000D02*
D03*
X410000D02*
D03*
X400000Y100000D02*
D03*
X420000D02*
D03*
X410000D02*
D03*
Y110000D02*
D03*
X420000D02*
D03*
X400000D02*
D03*
Y80000D02*
D03*
X420000D02*
D03*
X410000D02*
D03*
Y90000D02*
D03*
X420000D02*
D03*
X400000D02*
D03*
X320000Y140000D02*
D03*
Y130000D02*
D03*
X330000D02*
D03*
X340000D02*
D03*
X360000D02*
D03*
X350000D02*
D03*
X390000D02*
D03*
X380000D02*
D03*
X370000D02*
D03*
X400000D02*
D03*
X420000D02*
D03*
X410000D02*
D03*
Y140000D02*
D03*
X420000D02*
D03*
X400000D02*
D03*
X370000D02*
D03*
X380000D02*
D03*
X390000D02*
D03*
X350000D02*
D03*
X360000D02*
D03*
X340000D02*
D03*
X330000D02*
D03*
X400000Y390000D02*
D03*
X420000D02*
D03*
X410000D02*
D03*
Y380000D02*
D03*
X420000D02*
D03*
X400000D02*
D03*
X110000Y420000D02*
D03*
X130000D02*
D03*
X140000Y220000D02*
D03*
X140000Y230000D02*
D03*
Y270000D02*
D03*
X190000Y170000D02*
D03*
X210000D02*
D03*
X220000D02*
D03*
X230000D02*
D03*
X170000Y300000D02*
D03*
X190000Y300000D02*
D03*
X200000Y300000D02*
D03*
X210000Y300000D02*
D03*
X230000Y300000D02*
D03*
X240000Y300000D02*
D03*
X270000Y270000D02*
D03*
Y260000D02*
D03*
X270000Y250000D02*
D03*
Y240000D02*
D03*
X270000Y230000D02*
D03*
X270000Y220000D02*
D03*
X220000Y300000D02*
D03*
X270000Y210000D02*
D03*
X180000Y300000D02*
D03*
X140000Y260000D02*
D03*
Y250000D02*
D03*
X140000Y210000D02*
D03*
Y200000D02*
D03*
X170000Y170000D02*
D03*
X180000D02*
D03*
X200000D02*
D03*
X140000Y240000D02*
D03*
X360000Y110000D02*
D03*
Y100000D02*
D03*
Y90000D02*
D03*
Y80000D02*
D03*
Y70000D02*
D03*
Y60000D02*
D03*
X260000Y110000D02*
D03*
Y100000D02*
D03*
Y90000D02*
D03*
Y80000D02*
D03*
Y70000D02*
D03*
Y60000D02*
D03*
X110000Y50000D02*
D03*
X120000D02*
D03*
X130000Y60000D02*
D03*
Y50000D02*
D03*
X140000Y60000D02*
D03*
Y50000D02*
D03*
X150000Y60000D02*
D03*
Y50000D02*
D03*
X160000Y60000D02*
D03*
Y50000D02*
D03*
X110000Y160000D02*
D03*
X120000D02*
D03*
X130000D02*
D03*
X140000D02*
D03*
X150000D02*
D03*
X160000D02*
D03*
X170000D02*
D03*
X110000Y60000D02*
D03*
X120000D02*
D03*
X170000D02*
D03*
Y50000D02*
D03*
X90000D02*
D03*
Y420000D02*
D03*
X240000Y170000D02*
D03*
X270000Y200000D02*
D03*
X400000Y350000D02*
D03*
X420000D02*
D03*
X410000D02*
D03*
Y340000D02*
D03*
X420000D02*
D03*
X400000D02*
D03*
Y360000D02*
D03*
X420000D02*
D03*
X410000D02*
D03*
Y370000D02*
D03*
X420000D02*
D03*
X400000D02*
D03*
D56*
X122000Y264606D02*
D03*
D57*
X122000Y245394D02*
D03*
D58*
X290000Y300000D02*
D03*
Y290000D02*
D03*
X280000Y300000D02*
D03*
Y290000D02*
D03*
X270000Y300000D02*
D03*
X300000Y290000D02*
D03*
Y300000D02*
D03*
X310000Y290000D02*
D03*
Y300000D02*
D03*
D59*
X270000Y290000D02*
D03*
D60*
X60000Y410000D02*
D03*
Y60000D02*
D03*
X410000D02*
D03*
Y410000D02*
D03*
D61*
X106000Y338063D02*
D03*
D62*
Y345937D02*
D03*
D63*
X297000Y120000D02*
D03*
X177000Y262000D02*
D03*
X157000Y313000D02*
D03*
X213000Y224000D02*
D03*
X186000Y252000D02*
D03*
X199000Y233000D02*
D03*
X201000Y239000D02*
D03*
X100000Y280000D02*
D03*
X131000Y391000D02*
D03*
X75000Y393000D02*
D03*
X322106Y64492D02*
D03*
X300106Y102492D02*
D03*
Y92492D02*
D03*
X300114Y82500D02*
D03*
X341098Y77500D02*
D03*
X75000Y378000D02*
D03*
X136000Y334000D02*
D03*
M02*
