G04 Layer_Color=7318015*
%FSLAX25Y25*%
%MOIN*%
G70*
G01*
G75*
%ADD10R,0.04724X0.01969*%
%ADD11R,0.01969X0.04724*%
%ADD12O,0.02600X0.09000*%
%ADD13O,0.08661X0.02362*%
%ADD14O,0.06300X0.02400*%
%ADD15R,0.05118X0.05709*%
%ADD16R,0.04724X0.03150*%
%ADD17R,0.05118X0.04528*%
%ADD18R,0.05118X0.03937*%
%ADD19R,0.03937X0.05118*%
%ADD20R,0.07480X0.05906*%
%ADD21R,0.06102X0.05906*%
%ADD22R,0.06693X0.11811*%
%ADD27R,0.10300X0.13800*%
D10*
X188000Y246000D02*
D03*
Y242850D02*
D03*
Y239701D02*
D03*
Y236551D02*
D03*
Y233402D02*
D03*
Y230252D02*
D03*
Y227102D02*
D03*
Y223953D02*
D03*
X221465D02*
D03*
Y227102D02*
D03*
Y230252D02*
D03*
Y233402D02*
D03*
Y236551D02*
D03*
Y239701D02*
D03*
Y242850D02*
D03*
Y246000D02*
D03*
D11*
X193709Y218244D02*
D03*
X196858D02*
D03*
X200008D02*
D03*
X203157D02*
D03*
X206307D02*
D03*
X209457D02*
D03*
X212606D02*
D03*
X215756D02*
D03*
Y251709D02*
D03*
X212606D02*
D03*
X209457D02*
D03*
X206307D02*
D03*
X203157D02*
D03*
X200008D02*
D03*
X196858D02*
D03*
X193709D02*
D03*
D12*
X157500Y111000D02*
D03*
X152500D02*
D03*
X147500D02*
D03*
X142500D02*
D03*
X137500D02*
D03*
X132500D02*
D03*
X127500D02*
D03*
X122500D02*
D03*
Y89000D02*
D03*
X127500D02*
D03*
X132500D02*
D03*
X137500D02*
D03*
X142500D02*
D03*
X147500D02*
D03*
X152500D02*
D03*
X157500D02*
D03*
D13*
X310551Y107500D02*
D03*
Y102500D02*
D03*
Y97500D02*
D03*
Y92500D02*
D03*
Y87500D02*
D03*
Y82500D02*
D03*
Y77500D02*
D03*
Y72500D02*
D03*
X329449Y107500D02*
D03*
Y102500D02*
D03*
Y97500D02*
D03*
Y92500D02*
D03*
Y87500D02*
D03*
Y82500D02*
D03*
Y77500D02*
D03*
Y72500D02*
D03*
D14*
X98148Y383500D02*
D03*
Y378500D02*
D03*
Y373500D02*
D03*
Y368500D02*
D03*
X119400Y383500D02*
D03*
Y378500D02*
D03*
Y373500D02*
D03*
Y368500D02*
D03*
D15*
X85850Y395000D02*
D03*
X92150D02*
D03*
X100850Y265000D02*
D03*
X107150D02*
D03*
X100850Y245000D02*
D03*
X107150D02*
D03*
X107851Y220000D02*
D03*
X114150D02*
D03*
X306850Y120000D02*
D03*
X313150D02*
D03*
D16*
X129000Y335752D02*
D03*
Y342248D02*
D03*
X121000D02*
D03*
Y335752D02*
D03*
X141000Y346087D02*
D03*
Y339591D02*
D03*
Y383248D02*
D03*
Y376752D02*
D03*
D17*
X200000Y151571D02*
D03*
Y160429D02*
D03*
X190000Y151571D02*
D03*
Y160429D02*
D03*
X180000Y151571D02*
D03*
Y160429D02*
D03*
D18*
X190000Y144642D02*
D03*
Y137358D02*
D03*
X200000Y144642D02*
D03*
Y137358D02*
D03*
X180000Y144642D02*
D03*
X180000Y137358D02*
D03*
D19*
X114642Y211000D02*
D03*
X107358D02*
D03*
X236358Y60000D02*
D03*
X243642D02*
D03*
X236358Y70000D02*
D03*
X243642D02*
D03*
X236358Y80000D02*
D03*
X243642D02*
D03*
X236358Y90000D02*
D03*
X243642D02*
D03*
X236358Y100000D02*
D03*
X243642D02*
D03*
X236358Y110000D02*
D03*
X243642D02*
D03*
X171358Y313000D02*
D03*
X178642D02*
D03*
D20*
X86000Y383906D02*
D03*
Y372094D02*
D03*
X90000Y335094D02*
D03*
Y346905D02*
D03*
D21*
X141000Y401543D02*
D03*
Y394457D02*
D03*
Y364543D02*
D03*
Y357457D02*
D03*
D22*
X65000Y337000D02*
D03*
Y359000D02*
D03*
D27*
X108650Y375900D02*
D03*
M02*
