M48
;Layer_Color=6321
;FILE_FORMAT=2:5
INCH,LZ
;TYPE=PLATED
T1F00S00C0.02000
T2F00S00C0.02756
T3F00S00C0.03150
T4F00S00C0.03900
T5F00S00C0.04000
T6F00S00C0.12205
%
T01
X0300114Y00825
X0300106Y0092492
Y0102492
X0297Y012
X0322106Y0064492
X0341098Y00775
X0213Y0224
X0199Y0233
X0201Y0239
X0186Y0252
X0177Y0262
X01Y028
X0136Y0334
X0131Y0391
X0075Y0393
Y0378
X0157Y0313
T02
X0122Y0245394
X0122Y0264606
T03
X0106Y0338063
Y0345937
T04
X027Y029
X028
X029
Y03
X028
X027
X03
Y029
X031
Y03
T05
X005Y009
Y01
X006
X007
X008
X009
Y011
Y012
Y013
X008
X007
X006
X005
Y012
X006
X007
X008
Y011
X007
X006
X005
Y014
Y015
X006
X007
X008
X009
Y014
X008
X007
X006
Y009
X007
X008
X009
Y005
X011
X012
X013
Y006
X014
Y005
X015
Y006
X012
X011
X016
Y005
X017
Y006
X026
Y007
Y008
Y009
Y01
Y011
Y013
X025
X024
Y014
X025
X026
Y015
X027
X028
X029
X03
X031
Y014
X03
Y013
X031
X029
X028
Y014
X027
Y013
X029Y014
X032
Y015
X033
X034
X035
X036
X037
X038
X039
X04
X041
X042
Y014
Y013
Y012
X041
X04
Y011
Y01
X041
X042
Y011
X041
Y009
Y008
X04
Y009
X042
Y008
X041Y013
X04
X039
X038
X037
X036
X035
X034
X033
X032
X033Y014
X034
X035
X036
X037
X038
X039
X04
X041
X036Y011
Y01
Y009
Y008
Y007
Y006
Y016
X035
X034
Y017
Y018
X033
X032
Y019
X033
X034
X035
X036
X037
Y02
Y021
Y022
X036
X035
Y023
Y024
Y025
X036
X037
Y026
Y027
Y028
Y029
Y03
Y031
X036
Y03
Y029
Y028
X035
Y029
Y03
Y031
X034
Y03
Y029
Y028
Y027
X035
X036
Y026
X035
X034
Y025
X033
X032
Y026
X033
Y027
X032
Y024
Y023
Y022
X033
X034
Y023
X033
Y024
X034
X036
X037
Y023
X036
Y021
X035
Y02
X036
X034
X033
X032
Y021
X033
X034
X035Y018
Y017
X036
Y018
X037
X038
Y019
Y02
Y021
Y022
Y023
X039
Y024
Y025
X038
Y026
Y027
Y028
Y029
X039
Y028
Y027
Y026
X04
Y025
X041
X042
Y024
X041
X04
Y023
Y022
X039
Y021
Y02
Y019
Y018
Y017
X038
X037
Y016
X038
X039
X04
Y017
X041
X042
Y016
X041
Y018
Y019
X04
Y018
X042
Y019
Y02
Y021
X041
X04
Y02
X041
Y022
X042
Y023
X041
Y026
X042
Y027
X041
X04
Y028
X041
X042
Y029
Y03
Y031
X041
X04
X039
X038
Y03
X039
X04
X041
Y029
X04
X038Y024
X033Y017
X032
Y016
X033
X031
X03
X029
Y017
Y018
X03
X031
Y019
Y02
Y021
Y022
Y023
Y024
Y025
Y026
Y027
X03
X029
Y026
X028
Y025
X027Y025
Y024
X028Y024
Y023
Y022
X027Y022
Y021
X028Y021
Y02
Y019
X027
X026
Y018
X027
X028
Y017
X027
X026
Y016
X027
X028
X03Y017
X031
X03Y019
X029
Y02
Y021
Y022
Y023
Y024
Y025
X03
Y026
Y024
Y023
Y022
Y021
Y02
X027
X027Y023
Y026
Y027
X024Y03
X023Y03
X022Y03
X021Y03
X02Y03
X019Y03
X018Y03
X017
Y017
X018
X019
X02
X021
X022
X023
X024
X017Y016
X016
X015
X014
X013
X012
X011
X009
Y017
X008
X007
X006
X005
Y016
X006
X007
X008
Y018
Y019
X009
Y02
Y021
Y022
Y023
Y024
Y025
X008
Y024
Y023
Y022
X007
Y023
Y024
Y025
Y026
X008
X009
Y027
Y028
Y029
Y03
Y031
X008
X007
X006
X005
Y03
Y029
Y028
X006
X007
X008
Y027
X007
X006
Y026
Y025
Y024
Y023
Y022
Y021
X007
X008
Y02
X007
Y019
X006
X005
Y02
X006
X005Y021
Y022
Y023
Y024
Y025
Y026
Y027
X006Y029
X007
X008
Y03
X007
X006
X014Y027
Y026
Y025
Y024
Y023
X014Y022
Y021
Y02
X009Y018
X007
X006
X005
X009Y042
X011
X013
X017
Y041
Y04
Y039
Y038
X018
Y039
Y04
Y041
Y042
X019
Y041
Y04
Y039
Y038
Y037
Y036
Y035
Y034
Y033
X018
X017
Y034
Y035
Y036
Y037
X018
Y036
Y035
Y034
X02
X021
Y035
Y036
Y037
X02
Y036
Y035
X022
Y034
X023
X024
X025
Y035
Y036
Y037
Y038
Y039
Y04
X024
Y041
X025
Y042
X024
X023
Y041
Y04
X022
Y041
Y042
X021
Y041
Y04
Y039
X022
X023
X024
Y038
Y037
Y036
Y035
X023
Y036
X022
Y037
X023
Y038
X022
X021
X02
Y039
Y04
Y041
Y042
X026
X027
X028
Y041
Y04
X029
X03
X031
Y041
X03
X029
Y042
X03
X031
Y039
X03
X029
Y038
X03
X031
Y037
Y036
Y035
Y034
X03
Y035
Y036
Y037
X029
Y036
Y035
Y034
X028
X027
Y035
Y036
Y037
X026
Y036
Y035
Y034
Y033
X025
X024
X023
X022
X021
X02
X027
X028
X029
X03
X031
X028Y035
Y036
Y037
Y038
Y039
X027
Y04
Y041
X026
Y04
Y039
Y038
X027
X032
Y039
Y04
Y041
Y042
X033
Y041
Y04
Y039
Y038
X034
Y039
X035
Y038
Y037
X034
Y036
X035
Y035
X034
Y034
X035
X036
Y035
Y036
Y037
X037
Y036
Y035
Y034
X038
Y035
Y036
Y037
X039
Y036
Y035
Y034
Y033
X038
X037
Y032
X036
Y033
X035
Y032
X034
X033
X032
Y033
Y034
Y035
Y036
Y037
X033
Y036
Y035
Y034
Y033
X034
X038Y032
X039
X04
X041
X042
Y033
X041
X04
Y034
Y035
X041
X042
Y034
X041
Y036
X04
Y037
Y038
X039
Y039
Y04
Y041
Y042
X038
X037
X036
X035
X034
Y041
X035
Y04
X034
X036
Y039
Y038
X037
Y039
Y04
Y041
X036
X038
Y04
Y039
Y038
X04Y039
X041
X042
Y038
X041
Y037
X042
Y036
T06
X006Y006
X041
X006Y041
X041
M30
