M48
;Layer_Color=6321
;FILE_FORMAT=2:5
INCH,LZ
;TYPE=PLATED
T1F00S00C0.01968
T2F00S00C0.02000
T3F00S00C0.02756
T4F00S00C0.03150
T5F00S00C0.03900
T6F00S00C0.04000
T7F00S00C0.12205
%
T01
X012Y0295835
Y0300165
T02
X0300114Y00825
X0300106Y0092492
Y0102492
X0293Y0145
X0322106Y0064492
X0341098Y00775
X023Y0254
X0234Y0259
X0224Y0263
X0217Y0256
X022Y0248
X0187Y025
X0096Y0246
X0098Y0317
X0136Y0334
X0131Y0391
X0075Y0393
Y0378
T03
X012Y0255394
X012Y0274606
T04
X0106Y0338063
Y0345937
T05
X025Y037
Y038
X026
Y037
X027
X028
X029
Y038
X028
X027
T06
X009Y005
X011
Y006
X012
X013
X014
X015
Y005
X014
X013
X012
X009Y009
X008
X007
X006
X005
Y01
Y011
X006
X007
X008
X009
Y01
X008
X007
X006
Y012
X005
Y013
Y014
X006
X007
X008
X009
Y015
X008
X007
X006
X005
X006Y013
X007
Y012
X008
X009
Y013
X008
X016Y006
X017
Y005
X016
X026Y006
Y007
Y008
Y009
Y01
Y011
X032Y013
X033
Y014
X034
X035
X036
X037
X038
X039
X04
X041
X042
Y013
X041
X04
X039
X038
X037
X036
X035
X034
Y015
X035
X036
X037
X038
X039
X04
X041
X042
Y012
Y011
X041
X04
Y01
Y009
X041
X042
Y008
X041
X04
X041Y01
X042
X041Y012
X04
X036Y011
Y01
Y009
Y008
Y007
Y006
X033Y015
X032
Y014
Y016
X033
X034
X035
X036
X037
X038
X039
X04
X041
X042
Y017
Y018
X041
X04
X039
X038
X037
X036
X035
X034
X033
Y019
Y02
Y021
X034
X035
X036
X037
X038
X039
X04
X041
X042
Y02
X041
X04
X039
X038
X037
X036
X035
X034
Y019
X035
X036
X037
X038
X039
X04
X041
X042
Y022
Y023
X041
X04
X039
X038
X037
X036
X035
X034
X033
Y022
X034
X035
X036
X037
X038
X039
X04
X041
Y024
Y025
X04
X039
X038
X037
X036
X035
X034
X033
Y024
X034
X035
X036
X037
X038
X039
X04
X042
Y025
Y026
Y027
Y028
X041
X04
X039
X038
X037
X036
X035
X034
X033
Y029
Y03
X034
X035
X036
X037
X038
X039
X04
X041
X042
Y031
X041
X04
X039
X038
X037
X036
X035
X034
X033
X034Y029
X035
X036
X037
X038
X039
X04
X041
X042
X041Y027
X04
X039
X038
X037
X036
X035
X034
X033
Y026
X034
X035
X036
X037
X038
X039
X04
X041
Y017
X04
X039
X038
X037
X036
X035
X034
X033
X032
Y018
Y019
Y02
Y021
Y022
Y023
Y024
Y025
Y026
Y027
Y028
Y029
X031Y029
X031Y03
Y031
X031Y028
Y027
X031Y026
X031Y025
Y024
X031Y023
X031Y022
Y021
X031Y02
X031Y019
Y018
Y017
Y016
X03Y017
Y018
Y019
X028Y017
X027
X0260016
X025
X024
X023
X022
X021
X02
X019
X018
X017
Y016
X016
X015
X014
X013
X012
X011
X009
X008
X007
X006
X005
Y017
Y018
X006
X007
X008
X009
Y017
X008
X007
X006
Y027
X005
Y028
Y029
Y03
X006
X007
X008
Y029
X007
X006
Y028
X007
Y027
X008
Y028
Y031
X007
X006
X005
X014
Y03
X014Y029
X014Y028
Y027
Y026
Y025
Y024
Y023
Y022
Y021
Y02
X013Y042
X011
X009
X017
X018
X019
Y041
X02
X021
X022
X023
X024
X025
X026
X027
X028
X029
X03
X031
Y042
X03
X029
X028
X027
X026
X025
X024
X023
X022
X021
X02
Y04
Y039
X019
X018
X017
Y04
X018
X019
X021
Y039
X022
Y04
X021Y038
X02
X019
X018
X017
Y041
X018
Y034
X017
X019Y034
X02Y034
X021Y034
X022Y034
X023Y034
X024Y034
X025Y034
X026Y034
X027Y034
X028
X033Y034
X034
X035
X036
X037
X038
X039
X04
X041
X042
Y035
Y036
Y037
X041
X04
X039
X038
X037
X036
X035
X034
X033
Y036
X034
X035
X036
X037
X038
X039
X04
X041
Y035
X04
X039
X038
X037
X036
X035
X034
X033
X032
Y036
Y037
Y038
X033
X034
X035
X036
X037
X038
X039
X04
X041
X042
Y039
X041
X04
X039
X038
X037
X036
X035
X034
X033
Y04
Y041
Y042
X034
X035
X036
X037
X038
X039
Y041
X038
X037
X036
X035
X034
Y04
X035
X036
X037
X038
X039
Y033
Y032
X038
X037
X036
X035
X034
X033
Y033
X034
X035
X036
X037
X038
X04
Y032
X041
X042
Y033
X041
X032Y039
Y04
Y041
Y042
T07
X006Y006
X041
X006Y041
X041
M30
