M48
;Layer_Color=6321
;FILE_FORMAT=2:5
INCH,LZ
;TYPE=PLATED
T1F00S00C0.01968
T2F00S00C0.02000
T3F00S00C0.02756
T4F00S00C0.03150
T5F00S00C0.03900
T6F00S00C0.04000
T7F00S00C0.12205
%
T01
X018Y0355835
Y0360165
T02
X0360115Y01425
X0360106Y0152492
X0382106Y0124492
X0401098Y01375
X0360106Y0162492
X0353Y0205
X028Y0308
X0247Y031
X0156Y0306
X015Y0418
X0135Y0438
Y0453
X0191Y0451
X0186Y0387
X016Y0401
X0277Y0316
X0284Y0323
X029Y0314
T03
X018Y0315394
X018Y0334606
T04
X0164Y0379063
Y0386937
T05
X031Y043
Y044
X032
Y043
X033
X034
X035
Y044
X034
X033
T06
X015Y011
Y015
X014
X013
X012
X011
X017Y012
X018
X019
X02
X021
X022
X023
Y011
X022
X021
X02
X019
X018
X017
X032Y012
Y013
Y014
Y015
X042
Y014
Y013
Y012
X046Y014
Y015
X047
X048
Y014
X047
Y016
Y017
X048
Y016
Y018
Y019
Y02
X047
Y019
Y018
Y021
Y022
X048
Y023
Y024
X047
Y025
Y026
Y027
X048
Y026
Y025
Y028
Y029
X047
Y028
Y03
Y031
X048
Y03
X047Y023
X048Y021
X046
Y022
X045
X044
X043
X042
X041
X04
X039
Y023
Y024
X04
X041
X042
X043
X044
X045
X046
Y025
Y026
Y027
X045
X044
X043
X042
X041
X04
X039
Y026
X04
X041
X042
X043
X044
X045
Y025
X044
X043
X042
X041
X04
X039
X038
Y024
Y023
Y022
Y021
X039
Y02
X04
X041
X042
X043
X044
X045
X046
Y019
X045
X044
X043
X042
X041
X04
X039
X038
Y02
X04Y021
X041
X042
X043
X044
X045
Y023
X046
X044
X043
X042
X041
X04
X037
Y024
Y025
X036
Y024
Y023
X034
X033
X0320016
X037Y022
X037Y026
X038Y026
Y027
X037Y027
Y028
X038Y028
X039
Y029
X04
X041
X042
X043
X044
X045
X046
Y028
X045
X044
X043
X042
X041
X04
Y03
Y031
X039
Y03
X038
X037Y03
Y031
X038Y031
Y029
X037
X041Y03
Y031
X042
X043
X044
X045
X046
Y03
X045
X044
X043
X042
Y017
Y016
X046
Y017
Y018
X032Y017
Y016
X031Y023
X03
X029
X028
X027
X026
X025
X024
X023
Y022
X022
X021
X02
X019
X018
X017
X02Y026
Y027
Y028
Y029
Y03
Y031
X015Y024
X014
X013
X012
X011
Y023
Y022
X012
X013
X014
X015
Y023
X014
X013
X012
Y021
Y02
X011
Y021
X013
Y02
X014
X015
Y021
X014
Y019
Y018
Y017
X013
X012
X011
Y016
X012
X013
X014
X015
Y017
Y018
Y019
X013
Y018
X012
X011
Y019
X012
Y033
X011
Y034
Y035
Y036
X012
X013
X014
Y035
X013
X012
Y034
X013
Y033
X014
Y034
Y037
X013
X012
X011
X02
Y036
X02Y035
X02Y034
Y033
Y032
X023Y04
X024
X025Y04
X026Y04
X027Y04
X028Y04
X029Y04
X03Y04
X031Y04
X028Y045
X027
X026
X025
X024
X023
Y046
X024
X025
X026
X027
X028
X027Y044
X026
X025
X024
X023
X032Y04
X033Y04
X034
X039Y04
X04
X041
X042
X043
X044
X045
X046
Y041
Y042
Y043
X045
X044
X043
X042
X041
X04
X039
Y042
X04
X041
X042
X043
X044
X045
Y041
X044
X043
X042
X041
X04
X039
X038
Y042
Y043
Y044
X039
X04
X041
X042
X043
X044
X045
X046
Y045
X045
X044
X043
X042
X041
X04
X039
Y046
X04
X041
X042
X043
X044
X045
Y039
Y038
X044
X043
X042
X041
X04
X039
Y039
X04
X041
X042
X043
X044
X046
Y038
Y037
Y036
X045
X044
X043
X042
X041
X04
X039
Y037
X04
X041
X042
X043
X044
X045
Y035
Y034
X044
X043
X042
X041
X04
X039
Y035
X04
X041
X042
X043
X044
X046
Y034
Y033
X045
X044
X043
X042
X041
X04
X039
Y032
X04
X041
X042
X043
X044
X045
X046
X038
Y033
X037Y033
Y034
X038Y034
Y035
X037Y035
X037Y036
Y037
X037Y032
X038Y045
Y046
X047Y045
Y044
Y043
X048
Y042
X047
Y041
Y04
X048
Y041
Y039
Y038
X047
Y039
Y037
Y036
X048
Y037
Y035
Y034
X047
Y035
Y033
X048
Y032
X047
X048Y044
Y045
X045Y047
Y048
X044
X043
X042
X041
X04
X039
Y047
X04
X041
X042
X043
X044
X038
X037
X036
X035
X034
X033
X032
Y048
X033
X034
X035
X036
X037
X038
X031
Y047
X03
X029
X028
X027
X026
X025
Y048
X026
X027
X028
X029
X03
X024
X023
Y047
X024
X019Y048
X017
X015
T07
X012Y012
X047
Y047
X012
M30
