M48
;Layer_Color=6321
;FILE_FORMAT=2:5
INCH,LZ
;TYPE=PLATED
T1F00S00C0.01968
T2F00S00C0.02000
T3F00S00C0.02756
T4F00S00C0.03150
T5F00S00C0.03900
T6F00S00C0.04000
T7F00S00C0.12205
%
T01
X012Y0295835
Y0300165
T02
X0300114Y00825
X0300106Y0092492
Y0102492
X0293Y0145
X0322106Y0064492
X0341098Y00775
X023Y0254
X0224Y0263
X0217Y0256
X022Y0248
X0187Y025
X0096Y0246
X01Y0341
X009Y0358
X0075Y0378
Y0393
X0131Y0391
X0126Y0327
T03
X012Y0255394
X012Y0274606
T04
X0104Y0319063
Y0326937
T05
X025Y037
X026
X027
Y038
X026
X025
X028
Y037
X029
Y038
T06
X005Y009
Y01
X006
X007
X008
X009
Y011
Y012
Y013
X008
X007
X006
X005
Y012
X006
X007
X008
Y011
X007
X006
X005
Y014
Y015
X006
X007
X008
X009
Y014
X008
X007
X006
Y009
X007
X008
X009
Y005
X011
X012
X013
Y006
X014
Y005
X015
Y006
X012
X011
X016
Y005
X017
Y006
X026
Y007
Y008
Y009
Y01
Y011
X032Y013
Y014
Y015
X033
X034
X035
X036
X037
X038
X039
X04
X041
X042
Y014
Y013
Y012
X041
X04
Y011
Y01
X041
X042
Y011
X041
Y009
Y008
X04
Y009
X042
Y008
X041Y013
X04
X039
X038
X037
X036
X035
X034
X033
Y014
X034
X035
X036
X037
X038
X039
X04
X041
X036Y011
Y01
Y009
Y008
Y007
Y006
Y016
Y017
X035
X034
X033
X032
Y018
Y019
Y02
Y021
Y022
Y023
Y024
Y025
Y026
Y027
Y028
Y029
X033
X034
X035
X036
X037
X038
X039
X04
X041
X042
Y028
Y027
Y026
X041
X04
X039
X038
X037
X036
X035
X034
X033
Y027
X034
X035
X036
X037
X038
X039
X04
X041
Y028
X04
X039
X038
X037
X036
X035
X034
X033
Y03
Y031
X034
X035
X036
X037
X038
X039
X04
X041
X042
Y03
X041
X04
X039
X038
X037
X036
X035
X034
Y025
Y024
X033
Y025
X035
Y024
X036
X037
X038
X039
X04
X041
X042
Y025
X041
X04
X039
X038
X037
X036
Y023
Y022
X035
X034
X033
Y023
X034
X035
X037
Y022
X038
X039
X04
X041
X042
Y023
X041
X04
X039
X038
Y021
Y02
Y019
X039
X04
X041
X042
Y018
Y017
X041
X04
X039
X038
X037
Y016
X038
X039
X04
X041
X042
X041Y018
X04
X039
X038
X037
Y019
X036
X035
X034
X033
Y018
X034
X035
X036
Y02
X035
X034
X033
Y021
X034
X035
X036
X037
Y02
X039
X04
X041
X042
Y021
X041
X04
X039
X035Y016
X034
X033
X032
X031
Y017
X03
Y018
Y019
X031
Y018
X031Y02
X031Y021
Y022
X031Y023
X031Y024
Y025
X031Y026
X031Y027
Y028
X031Y029
X031Y03
Y031
X028Y017
X027
X0260016
X025
X024
X023
X022
X021
X02
X019
X018
X017
Y016
X016
X015
X014
X013
X012
X011
X009
Y017
X008
X007
X006
X005
Y016
X006
X007
X008
Y018
X009
X007
X006
X005
Y027
Y028
X006
X007
X008
Y027
X007
X006
Y029
X005
Y03
Y031
X006
X007
X008
Y03
Y029
X007
Y03
X006
X014
Y031
X014Y029
X014Y028
Y027
Y026
Y025
Y024
Y023
Y022
Y021
Y02
X013Y042
X011
X009
X017
Y041
X018
Y042
X019
X02
X021
X022
X023
X024
X025
Y041
X024
X023
X022
Y04
X021
X02
X019
X018
X017
Y039
Y038
X018
X019
X02
X021
Y039
X02
X019
X018
X019Y041
X02
X021
X022Y039
X022Y034
X021Y034
X02Y034
X019Y034
X018Y034
X017
X023Y034
X024Y034
X025Y034
X026Y034
X027Y034
X028
X028Y041
Y042
X027
X026
Y041
X027
X029
Y042
X03
X031
Y041
X03
X032
Y04
Y039
Y038
Y037
Y036
Y035
X033
X034
X035
X036
X037
X038
X039
X04
X041
X042
Y034
Y033
X041
X04
X039
X038
X037
X036
X035
X034
X033
Y032
X034
X035
X036
X037
X038
X039
X04
X041
X042
X041Y034
X04
X039
X038
X037
X036
X035
X034
X033
Y036
X034
X035
X036
X037
X038
X039
X04
X041
X042
Y037
Y038
Y039
X041
X04
X039
Y04
X038
X037
X036
X035
X034
X033
Y041
X034
X035
X036
X037
X038
X039
Y042
X038
X037
X036
X035
X034
X033
X032
X033Y039
X034
X035
X036
X037
X038
Y038
X037
X036
X035
X034
X033
Y037
X034
X035
X036
X037
X038
X039
Y038
X04
X041
Y037
X04
T07
X006Y006
X041
X006Y041
X041
M30
