M48
;Layer_Color=6321
;FILE_FORMAT=2:5
INCH,LZ
;TYPE=PLATED
T1F00S00C0.02800
T2F00S00C0.03543
T3F00S00C0.03900
T4F00S00C0.03937
T5F00S00C0.04000
T6F00S00C0.12205
%
T01
X01092Y00242
X01442Y00159
X0137Y0056
X00839
X0074Y00814
X00936Y009
X0104059Y0088459
X01Y00763
X01315Y00785
X00425Y0082
X00329Y009
T02
X0125Y00225
X013
X0135
T03
X00975Y01125
X01075
X01175
X01275
X01375
X01475
T04
X0015Y00625
Y00725
Y00825
T05
X004Y004
X005
X006
X007
X008
X009
X01
T06
X002Y002
X017Y01
M30
