G04 Layer_Color=8150272*
%FSLAX25Y25*%
%MOIN*%
G70*
G01*
G75*
%ADD48R,0.05918X0.06509*%
%ADD58C,0.05918*%
%ADD59R,0.05918X0.05918*%
%ADD60C,0.08800*%
%ADD61C,0.26784*%
%ADD62C,0.06800*%
%ADD63R,0.06800X0.06800*%
%ADD64R,0.05524X0.05524*%
%ADD65C,0.05524*%
%ADD66O,0.04737X0.03753*%
%ADD67C,0.02800*%
D48*
X231850Y246800D02*
D03*
X225550D02*
D03*
D58*
X106000Y345937D02*
D03*
D59*
Y338063D02*
D03*
D60*
X90000Y420000D02*
D03*
Y50000D02*
D03*
X170000D02*
D03*
Y60000D02*
D03*
X120000D02*
D03*
X110000D02*
D03*
X170000Y160000D02*
D03*
X160000D02*
D03*
X150000D02*
D03*
X140000D02*
D03*
X130000D02*
D03*
X120000D02*
D03*
X110000D02*
D03*
X160000Y50000D02*
D03*
Y60000D02*
D03*
X150000Y50000D02*
D03*
Y60000D02*
D03*
X140000Y50000D02*
D03*
Y60000D02*
D03*
X130000Y50000D02*
D03*
Y60000D02*
D03*
X120000Y50000D02*
D03*
X110000D02*
D03*
X260000Y60000D02*
D03*
Y70000D02*
D03*
Y80000D02*
D03*
Y90000D02*
D03*
Y100000D02*
D03*
Y110000D02*
D03*
X360000Y60000D02*
D03*
Y70000D02*
D03*
Y80000D02*
D03*
Y90000D02*
D03*
Y100000D02*
D03*
Y110000D02*
D03*
X140000Y250000D02*
D03*
X280000Y170000D02*
D03*
X200000D02*
D03*
X180000D02*
D03*
X170000D02*
D03*
X310000Y230000D02*
D03*
X140000Y200000D02*
D03*
Y210000D02*
D03*
Y260000D02*
D03*
Y270000D02*
D03*
Y280000D02*
D03*
Y300000D02*
D03*
X180000Y340000D02*
D03*
X210000D02*
D03*
X310000Y200000D02*
D03*
X310000Y210000D02*
D03*
Y220000D02*
D03*
X140000Y290000D02*
D03*
X310000Y240000D02*
D03*
X250000Y340000D02*
D03*
X310000Y250000D02*
D03*
X310000Y260000D02*
D03*
X310000Y270000D02*
D03*
Y280000D02*
D03*
X310000Y290000D02*
D03*
X280000Y340000D02*
D03*
X270000D02*
D03*
X260000Y340000D02*
D03*
X240000D02*
D03*
X230000Y340000D02*
D03*
X220000Y340000D02*
D03*
X200000D02*
D03*
X190000Y340000D02*
D03*
X310000Y300000D02*
D03*
X260016Y170000D02*
D03*
X250000D02*
D03*
X240000D02*
D03*
X230000D02*
D03*
X220000D02*
D03*
X210000D02*
D03*
X170000Y340000D02*
D03*
X190000Y170000D02*
D03*
X140000Y310000D02*
D03*
Y230000D02*
D03*
X270000Y170000D02*
D03*
X310000Y310000D02*
D03*
X140000Y240000D02*
D03*
Y220000D02*
D03*
X130000Y420000D02*
D03*
X110000D02*
D03*
X330000Y370000D02*
D03*
X340000D02*
D03*
X360000D02*
D03*
X350000D02*
D03*
X390000D02*
D03*
X380000D02*
D03*
X370000D02*
D03*
X400000D02*
D03*
X420000D02*
D03*
X410000D02*
D03*
Y360000D02*
D03*
X420000D02*
D03*
X400000D02*
D03*
X370000D02*
D03*
X380000D02*
D03*
X390000D02*
D03*
X350000D02*
D03*
X360000D02*
D03*
X340000D02*
D03*
X330000D02*
D03*
Y340000D02*
D03*
X340000D02*
D03*
X360000D02*
D03*
X350000D02*
D03*
X390000D02*
D03*
X380000D02*
D03*
X370000D02*
D03*
X400000D02*
D03*
X420000D02*
D03*
X410000D02*
D03*
Y350000D02*
D03*
X420000D02*
D03*
X400000D02*
D03*
X370000D02*
D03*
X380000D02*
D03*
X390000D02*
D03*
X350000D02*
D03*
X360000D02*
D03*
X340000D02*
D03*
X330000D02*
D03*
Y320000D02*
D03*
X340000D02*
D03*
X360000D02*
D03*
X350000D02*
D03*
X390000D02*
D03*
X380000D02*
D03*
X370000D02*
D03*
X400000D02*
D03*
X420000D02*
D03*
X410000D02*
D03*
Y330000D02*
D03*
X420000D02*
D03*
X400000D02*
D03*
X370000D02*
D03*
X380000D02*
D03*
X390000D02*
D03*
X350000D02*
D03*
X360000D02*
D03*
X340000D02*
D03*
X330000D02*
D03*
Y300000D02*
D03*
X340000D02*
D03*
X360000D02*
D03*
X350000D02*
D03*
X390000D02*
D03*
X380000D02*
D03*
X370000D02*
D03*
X400000D02*
D03*
X420000D02*
D03*
X410000D02*
D03*
Y310000D02*
D03*
X420000D02*
D03*
X400000D02*
D03*
X370000D02*
D03*
X380000D02*
D03*
X390000D02*
D03*
X350000D02*
D03*
X360000D02*
D03*
X340000D02*
D03*
X330000D02*
D03*
Y280000D02*
D03*
X340000D02*
D03*
X360000D02*
D03*
X350000D02*
D03*
X390000D02*
D03*
X380000D02*
D03*
X370000D02*
D03*
X400000D02*
D03*
X420000D02*
D03*
X410000D02*
D03*
Y290000D02*
D03*
X420000D02*
D03*
X400000D02*
D03*
X370000D02*
D03*
X380000D02*
D03*
X390000D02*
D03*
X350000D02*
D03*
X360000D02*
D03*
X340000D02*
D03*
X330000D02*
D03*
Y380000D02*
D03*
X340000D02*
D03*
X360000D02*
D03*
X350000D02*
D03*
X390000D02*
D03*
X380000D02*
D03*
X370000D02*
D03*
X400000D02*
D03*
X420000D02*
D03*
X410000D02*
D03*
Y390000D02*
D03*
X420000D02*
D03*
X400000D02*
D03*
X370000D02*
D03*
X380000D02*
D03*
X390000D02*
D03*
X350000D02*
D03*
X360000D02*
D03*
X340000D02*
D03*
X330000D02*
D03*
Y210000D02*
D03*
X340000D02*
D03*
X360000D02*
D03*
X350000D02*
D03*
X390000D02*
D03*
X380000D02*
D03*
X370000D02*
D03*
X400000D02*
D03*
X420000D02*
D03*
X410000D02*
D03*
Y200000D02*
D03*
X420000D02*
D03*
X400000D02*
D03*
X370000D02*
D03*
X380000D02*
D03*
X390000D02*
D03*
X350000D02*
D03*
X360000D02*
D03*
X340000D02*
D03*
X330000D02*
D03*
Y230000D02*
D03*
X340000D02*
D03*
X360000D02*
D03*
X350000D02*
D03*
X390000D02*
D03*
X380000D02*
D03*
X370000D02*
D03*
X400000D02*
D03*
X420000D02*
D03*
X410000D02*
D03*
Y220000D02*
D03*
X420000D02*
D03*
X400000D02*
D03*
X370000D02*
D03*
X380000D02*
D03*
X390000D02*
D03*
X350000D02*
D03*
X360000D02*
D03*
X340000D02*
D03*
X330000D02*
D03*
Y250000D02*
D03*
X340000D02*
D03*
X360000D02*
D03*
X350000D02*
D03*
X390000D02*
D03*
X380000D02*
D03*
X370000D02*
D03*
X400000D02*
D03*
X420000D02*
D03*
X410000D02*
D03*
Y240000D02*
D03*
X420000D02*
D03*
X400000D02*
D03*
X370000D02*
D03*
X380000D02*
D03*
X390000D02*
D03*
X350000D02*
D03*
X360000D02*
D03*
X340000D02*
D03*
X330000D02*
D03*
Y270000D02*
D03*
X340000D02*
D03*
X360000D02*
D03*
X350000D02*
D03*
X390000D02*
D03*
X380000D02*
D03*
X370000D02*
D03*
X400000D02*
D03*
X420000D02*
D03*
X410000D02*
D03*
Y260000D02*
D03*
X420000D02*
D03*
X400000D02*
D03*
X370000D02*
D03*
X380000D02*
D03*
X390000D02*
D03*
X350000D02*
D03*
X360000D02*
D03*
X340000D02*
D03*
X330000D02*
D03*
Y180000D02*
D03*
X340000D02*
D03*
X360000D02*
D03*
X350000D02*
D03*
X390000D02*
D03*
X380000D02*
D03*
X370000D02*
D03*
X400000D02*
D03*
X420000D02*
D03*
X410000D02*
D03*
Y190000D02*
D03*
X420000D02*
D03*
X400000D02*
D03*
X370000D02*
D03*
X380000D02*
D03*
X390000D02*
D03*
X350000D02*
D03*
X360000D02*
D03*
X340000D02*
D03*
X330000D02*
D03*
Y160000D02*
D03*
X340000D02*
D03*
X360000D02*
D03*
X350000D02*
D03*
X390000D02*
D03*
X380000D02*
D03*
X370000D02*
D03*
X400000D02*
D03*
X420000D02*
D03*
X410000D02*
D03*
Y170000D02*
D03*
X420000D02*
D03*
X400000D02*
D03*
X370000D02*
D03*
X380000D02*
D03*
X390000D02*
D03*
X350000D02*
D03*
X360000D02*
D03*
X340000D02*
D03*
X330000D02*
D03*
Y140000D02*
D03*
X340000D02*
D03*
X360000D02*
D03*
X350000D02*
D03*
X390000D02*
D03*
X380000D02*
D03*
X370000D02*
D03*
X400000D02*
D03*
X420000D02*
D03*
X410000D02*
D03*
Y130000D02*
D03*
X420000D02*
D03*
X400000D02*
D03*
X370000D02*
D03*
X380000D02*
D03*
X390000D02*
D03*
X350000D02*
D03*
X360000D02*
D03*
X340000D02*
D03*
X330000D02*
D03*
X410000Y150000D02*
D03*
X420000D02*
D03*
X400000D02*
D03*
X370000D02*
D03*
X380000D02*
D03*
X390000D02*
D03*
X350000D02*
D03*
X360000D02*
D03*
X340000D02*
D03*
X330000D02*
D03*
X320000D02*
D03*
Y130000D02*
D03*
Y140000D02*
D03*
Y170000D02*
D03*
Y160000D02*
D03*
Y190000D02*
D03*
Y180000D02*
D03*
Y260000D02*
D03*
Y270000D02*
D03*
Y240000D02*
D03*
Y250000D02*
D03*
Y220000D02*
D03*
Y230000D02*
D03*
Y200000D02*
D03*
Y210000D02*
D03*
Y290000D02*
D03*
Y280000D02*
D03*
X330000Y420000D02*
D03*
X340000D02*
D03*
X360000D02*
D03*
X350000D02*
D03*
X390000D02*
D03*
X380000D02*
D03*
X370000D02*
D03*
Y410000D02*
D03*
X380000D02*
D03*
X390000D02*
D03*
X350000D02*
D03*
X360000D02*
D03*
X340000D02*
D03*
X330000D02*
D03*
X370000Y400000D02*
D03*
X380000D02*
D03*
X390000D02*
D03*
X350000D02*
D03*
X360000D02*
D03*
X340000D02*
D03*
X330000D02*
D03*
X400000Y90000D02*
D03*
X420000D02*
D03*
X410000D02*
D03*
Y80000D02*
D03*
X420000D02*
D03*
X400000D02*
D03*
Y110000D02*
D03*
X420000D02*
D03*
X410000D02*
D03*
Y100000D02*
D03*
X420000D02*
D03*
X400000D02*
D03*
X410000Y120000D02*
D03*
X420000D02*
D03*
X400000D02*
D03*
X260000Y410000D02*
D03*
X270000D02*
D03*
X290000D02*
D03*
X280000D02*
D03*
X320000D02*
D03*
X310000D02*
D03*
X300000D02*
D03*
Y420000D02*
D03*
X310000D02*
D03*
X320000D02*
D03*
X280000D02*
D03*
X290000D02*
D03*
X270000D02*
D03*
X260000D02*
D03*
X190000Y410000D02*
D03*
X200000D02*
D03*
X220000D02*
D03*
X210000D02*
D03*
X250000D02*
D03*
X240000D02*
D03*
X230000D02*
D03*
Y420000D02*
D03*
X240000D02*
D03*
X250000D02*
D03*
X210000D02*
D03*
X220000D02*
D03*
X200000D02*
D03*
X190000D02*
D03*
X170000Y390000D02*
D03*
X190000D02*
D03*
X180000D02*
D03*
X220000D02*
D03*
X210000D02*
D03*
X200000D02*
D03*
Y400000D02*
D03*
X210000D02*
D03*
X220000D02*
D03*
X180000D02*
D03*
X190000D02*
D03*
X170000D02*
D03*
Y420000D02*
D03*
X180000D02*
D03*
Y410000D02*
D03*
X170000D02*
D03*
X200000Y380000D02*
D03*
X210000D02*
D03*
X180000D02*
D03*
X190000D02*
D03*
X170000D02*
D03*
X320000Y400000D02*
D03*
Y390000D02*
D03*
Y360000D02*
D03*
Y370000D02*
D03*
Y380000D02*
D03*
Y350000D02*
D03*
X310000Y180000D02*
D03*
Y190000D02*
D03*
Y160000D02*
D03*
Y170000D02*
D03*
X300000Y180000D02*
D03*
Y190000D02*
D03*
Y170000D02*
D03*
X60000Y90000D02*
D03*
X50000D02*
D03*
X70000D02*
D03*
X90000D02*
D03*
X80000D02*
D03*
X60000Y110000D02*
D03*
X50000D02*
D03*
X70000D02*
D03*
X90000D02*
D03*
X80000D02*
D03*
Y100000D02*
D03*
X90000D02*
D03*
X70000D02*
D03*
X50000D02*
D03*
X60000D02*
D03*
Y180000D02*
D03*
X50000D02*
D03*
X70000D02*
D03*
X90000D02*
D03*
X80000D02*
D03*
X60000Y160000D02*
D03*
X50000D02*
D03*
X70000D02*
D03*
X90000D02*
D03*
X80000D02*
D03*
Y170000D02*
D03*
X90000D02*
D03*
X70000D02*
D03*
X50000D02*
D03*
X60000D02*
D03*
Y140000D02*
D03*
X50000D02*
D03*
X70000D02*
D03*
X90000D02*
D03*
X80000D02*
D03*
Y150000D02*
D03*
X90000D02*
D03*
X70000D02*
D03*
X50000D02*
D03*
X60000D02*
D03*
Y120000D02*
D03*
X50000D02*
D03*
X70000D02*
D03*
X90000D02*
D03*
X80000D02*
D03*
Y130000D02*
D03*
X90000D02*
D03*
X70000D02*
D03*
X50000D02*
D03*
X60000D02*
D03*
X50000Y300000D02*
D03*
X60000D02*
D03*
X80000D02*
D03*
X70000D02*
D03*
Y290000D02*
D03*
X80000D02*
D03*
X60000D02*
D03*
X50000D02*
D03*
X70000Y310000D02*
D03*
X80000D02*
D03*
X60000D02*
D03*
X50000D02*
D03*
Y270000D02*
D03*
X60000D02*
D03*
X80000D02*
D03*
X70000D02*
D03*
Y280000D02*
D03*
X80000D02*
D03*
X60000D02*
D03*
X50000D02*
D03*
D61*
X410000Y410000D02*
D03*
Y60000D02*
D03*
X60000D02*
D03*
Y410000D02*
D03*
D62*
X290000Y380000D02*
D03*
Y370000D02*
D03*
X280000Y380000D02*
D03*
Y370000D02*
D03*
X250000Y380000D02*
D03*
X260000Y370000D02*
D03*
Y380000D02*
D03*
X270000Y370000D02*
D03*
Y380000D02*
D03*
D63*
X250000Y370000D02*
D03*
D64*
X120000Y255394D02*
D03*
D65*
X120000Y274606D02*
D03*
D66*
X120000Y300165D02*
D03*
Y295835D02*
D03*
D67*
X234000Y259000D02*
D03*
X230000Y254000D02*
D03*
X224000Y263000D02*
D03*
X220000Y248000D02*
D03*
X98000Y317000D02*
D03*
X136000Y334000D02*
D03*
X75000Y378000D02*
D03*
X293000Y145000D02*
D03*
X217000Y256000D02*
D03*
X341098Y77500D02*
D03*
X300114Y82500D02*
D03*
X300106Y92492D02*
D03*
Y102492D02*
D03*
X322106Y64492D02*
D03*
X96000Y246000D02*
D03*
X75000Y393000D02*
D03*
X131000Y391000D02*
D03*
X187000Y250000D02*
D03*
M02*
