G04 Layer_Physical_Order=2*
G04 Layer_Color=11436288*
%FSLAX25Y25*%
%MOIN*%
G70*
G01*
G75*
%ADD25C,0.01000*%
%ADD26C,0.03000*%
%ADD28C,0.05118*%
%ADD29R,0.05118X0.05118*%
%ADD30C,0.08000*%
%ADD31C,0.25984*%
%ADD32C,0.06000*%
%ADD33R,0.06000X0.06000*%
%ADD34R,0.04724X0.04724*%
%ADD35C,0.04724*%
%ADD36O,0.03937X0.02953*%
%ADD37C,0.02000*%
G36*
X500000Y100000D02*
X100000D01*
Y500000D01*
X500000D01*
Y100000D01*
D02*
G37*
%LPC*%
G36*
X150000Y246531D02*
X148726Y246406D01*
X147501Y246034D01*
X146371Y245431D01*
X145382Y244618D01*
X145250Y244458D01*
X144750D01*
X144618Y244618D01*
X143629Y245431D01*
X142499Y246034D01*
X141274Y246406D01*
X140000Y246531D01*
X138726Y246406D01*
X137501Y246034D01*
X136371Y245431D01*
X135382Y244618D01*
X135250Y244458D01*
X134750D01*
X134618Y244618D01*
X133629Y245431D01*
X132500Y246034D01*
X131274Y246406D01*
X130000Y246531D01*
X128726Y246406D01*
X127500Y246034D01*
X126371Y245431D01*
X125382Y244618D01*
X125250Y244458D01*
X124750D01*
X124618Y244618D01*
X123629Y245431D01*
X122500Y246034D01*
X121274Y246406D01*
X120000Y246531D01*
X118726Y246406D01*
X117500Y246034D01*
X116371Y245431D01*
X115382Y244618D01*
X115250Y244458D01*
X114750D01*
X114618Y244618D01*
X113629Y245431D01*
X112499Y246034D01*
X111274Y246406D01*
X110000Y246531D01*
X108726Y246406D01*
X107501Y246034D01*
X106371Y245431D01*
X105382Y244618D01*
X104569Y243629D01*
X103966Y242499D01*
X103594Y241274D01*
X103469Y240000D01*
X103594Y238726D01*
X103966Y237501D01*
X104569Y236371D01*
X105382Y235382D01*
X105542Y235250D01*
Y234750D01*
X105382Y234618D01*
X104569Y233629D01*
X103966Y232500D01*
X103594Y231274D01*
X103469Y230000D01*
X103594Y228726D01*
X103966Y227501D01*
X104569Y226371D01*
X105382Y225382D01*
X105542Y225250D01*
Y224750D01*
X105382Y224618D01*
X104569Y223629D01*
X103966Y222499D01*
X103594Y221274D01*
X103469Y220000D01*
X103594Y218726D01*
X103966Y217500D01*
X104569Y216371D01*
X105382Y215382D01*
X105542Y215250D01*
Y214750D01*
X105382Y214618D01*
X104569Y213629D01*
X103966Y212499D01*
X103594Y211274D01*
X103469Y210000D01*
X103594Y208726D01*
X103966Y207501D01*
X104569Y206371D01*
X105382Y205382D01*
X105542Y205250D01*
Y204750D01*
X105382Y204618D01*
X104569Y203629D01*
X103966Y202500D01*
X103594Y201274D01*
X103469Y200000D01*
X103594Y198726D01*
X103966Y197501D01*
X104569Y196371D01*
X105382Y195382D01*
X105542Y195250D01*
Y194750D01*
X105382Y194618D01*
X104569Y193629D01*
X103966Y192499D01*
X103594Y191274D01*
X103469Y190000D01*
X103594Y188726D01*
X103966Y187501D01*
X104569Y186371D01*
X105382Y185382D01*
X105542Y185250D01*
Y184750D01*
X105382Y184618D01*
X104569Y183629D01*
X103966Y182500D01*
X103594Y181274D01*
X103469Y180000D01*
X103594Y178726D01*
X103966Y177500D01*
X104569Y176371D01*
X105382Y175382D01*
X105542Y175250D01*
Y174750D01*
X105382Y174618D01*
X104569Y173629D01*
X103966Y172500D01*
X103594Y171274D01*
X103469Y170000D01*
X103594Y168726D01*
X103966Y167500D01*
X104569Y166371D01*
X105382Y165382D01*
X105542Y165250D01*
Y164750D01*
X105382Y164618D01*
X104569Y163629D01*
X103966Y162499D01*
X103594Y161274D01*
X103469Y160000D01*
X103594Y158726D01*
X103966Y157501D01*
X104569Y156371D01*
X105382Y155382D01*
X105542Y155250D01*
Y154750D01*
X105382Y154618D01*
X104569Y153629D01*
X103966Y152499D01*
X103594Y151274D01*
X103469Y150000D01*
X103594Y148726D01*
X103966Y147501D01*
X104569Y146371D01*
X105382Y145382D01*
X106371Y144569D01*
X107501Y143966D01*
X108726Y143594D01*
X110000Y143469D01*
X111274Y143594D01*
X112499Y143966D01*
X113629Y144569D01*
X114618Y145382D01*
X114750Y145542D01*
X115250D01*
X115382Y145382D01*
X116371Y144569D01*
X117500Y143966D01*
X118726Y143594D01*
X120000Y143469D01*
X121274Y143594D01*
X122500Y143966D01*
X123629Y144569D01*
X124618Y145382D01*
X124750Y145542D01*
X125250D01*
X125382Y145382D01*
X126371Y144569D01*
X127500Y143966D01*
X128726Y143594D01*
X130000Y143469D01*
X131274Y143594D01*
X132500Y143966D01*
X133629Y144569D01*
X134618Y145382D01*
X134750Y145542D01*
X135250D01*
X135382Y145382D01*
X136371Y144569D01*
X137501Y143966D01*
X138726Y143594D01*
X140000Y143469D01*
X141274Y143594D01*
X142499Y143966D01*
X143629Y144569D01*
X144618Y145382D01*
X144750Y145542D01*
X145250D01*
X145382Y145382D01*
X146371Y144569D01*
X147501Y143966D01*
X148726Y143594D01*
X150000Y143469D01*
X151274Y143594D01*
X152499Y143966D01*
X153629Y144569D01*
X154618Y145382D01*
X155431Y146371D01*
X156034Y147501D01*
X156406Y148726D01*
X156531Y150000D01*
X156406Y151274D01*
X156034Y152499D01*
X155431Y153629D01*
X154618Y154618D01*
X154458Y154750D01*
Y155250D01*
X154618Y155382D01*
X155431Y156371D01*
X156034Y157501D01*
X156406Y158726D01*
X156531Y160000D01*
X156406Y161274D01*
X156034Y162499D01*
X155431Y163629D01*
X154618Y164618D01*
X154458Y164750D01*
Y165250D01*
X154618Y165382D01*
X155431Y166371D01*
X156034Y167500D01*
X156406Y168726D01*
X156531Y170000D01*
X156406Y171274D01*
X156034Y172500D01*
X155431Y173629D01*
X154618Y174618D01*
X154458Y174750D01*
Y175250D01*
X154618Y175382D01*
X155431Y176371D01*
X156034Y177500D01*
X156406Y178726D01*
X156531Y180000D01*
X156406Y181274D01*
X156034Y182500D01*
X155431Y183629D01*
X154618Y184618D01*
X154458Y184750D01*
Y185250D01*
X154618Y185382D01*
X155431Y186371D01*
X156034Y187501D01*
X156406Y188726D01*
X156531Y190000D01*
X156406Y191274D01*
X156034Y192499D01*
X155431Y193629D01*
X154618Y194618D01*
X154458Y194750D01*
Y195250D01*
X154618Y195382D01*
X155431Y196371D01*
X156034Y197501D01*
X156406Y198726D01*
X156531Y200000D01*
X156406Y201274D01*
X156034Y202500D01*
X155431Y203629D01*
X154618Y204618D01*
X154458Y204750D01*
Y205250D01*
X154618Y205382D01*
X155431Y206371D01*
X156034Y207501D01*
X156406Y208726D01*
X156531Y210000D01*
X156406Y211274D01*
X156034Y212499D01*
X155431Y213629D01*
X154618Y214618D01*
X154458Y214750D01*
Y215250D01*
X154618Y215382D01*
X155431Y216371D01*
X156034Y217500D01*
X156406Y218726D01*
X156531Y220000D01*
X156406Y221274D01*
X156034Y222499D01*
X155431Y223629D01*
X154618Y224618D01*
X154458Y224750D01*
Y225250D01*
X154618Y225382D01*
X155431Y226371D01*
X156034Y227501D01*
X156406Y228726D01*
X156531Y230000D01*
X156406Y231274D01*
X156034Y232500D01*
X155431Y233629D01*
X154618Y234618D01*
X154458Y234750D01*
Y235250D01*
X154618Y235382D01*
X155431Y236371D01*
X156034Y237501D01*
X156406Y238726D01*
X156531Y240000D01*
X156406Y241274D01*
X156034Y242499D01*
X155431Y243629D01*
X154618Y244618D01*
X153629Y245431D01*
X152499Y246034D01*
X151274Y246406D01*
X150000Y246531D01*
D02*
G37*
G36*
X320016Y236531D02*
X318742Y236406D01*
X317516Y236034D01*
X316387Y235431D01*
X315397Y234618D01*
X315258Y234449D01*
X314758D01*
X314619Y234618D01*
X313629Y235431D01*
X312500Y236034D01*
X311274Y236406D01*
X310000Y236531D01*
X308726Y236406D01*
X307501Y236034D01*
X306371Y235431D01*
X305382Y234618D01*
X305250Y234458D01*
X304750D01*
X304618Y234618D01*
X303629Y235431D01*
X302500Y236034D01*
X301274Y236406D01*
X300000Y236531D01*
X298726Y236406D01*
X297500Y236034D01*
X296371Y235431D01*
X295382Y234618D01*
X295250Y234458D01*
X294750D01*
X294618Y234618D01*
X293629Y235431D01*
X292499Y236034D01*
X291274Y236406D01*
X290000Y236531D01*
X288726Y236406D01*
X287501Y236034D01*
X286371Y235431D01*
X285382Y234618D01*
X285250Y234458D01*
X284750D01*
X284618Y234618D01*
X283629Y235431D01*
X282499Y236034D01*
X281274Y236406D01*
X280000Y236531D01*
X278726Y236406D01*
X277500Y236034D01*
X276371Y235431D01*
X275381Y234618D01*
X275250Y234458D01*
X274750D01*
X274618Y234618D01*
X273629Y235431D01*
X272499Y236034D01*
X271274Y236406D01*
X270000Y236531D01*
X268726Y236406D01*
X267500Y236034D01*
X266371Y235431D01*
X265382Y234618D01*
X265250Y234458D01*
X264750D01*
X264618Y234618D01*
X263629Y235431D01*
X262499Y236034D01*
X261274Y236406D01*
X260000Y236531D01*
X258726Y236406D01*
X257501Y236034D01*
X256371Y235431D01*
X255382Y234618D01*
X255250Y234458D01*
X254750D01*
X254618Y234618D01*
X253629Y235431D01*
X252500Y236034D01*
X251274Y236406D01*
X250000Y236531D01*
X248726Y236406D01*
X247500Y236034D01*
X246371Y235431D01*
X245382Y234618D01*
X245250Y234458D01*
X244750D01*
X244618Y234618D01*
X243629Y235431D01*
X242499Y236034D01*
X241274Y236406D01*
X240000Y236531D01*
X238726Y236406D01*
X237501Y236034D01*
X236371Y235431D01*
X235382Y234618D01*
X235250Y234458D01*
X234750D01*
X234618Y234618D01*
X233629Y235431D01*
X232500Y236034D01*
X231274Y236406D01*
X230000Y236531D01*
X228726Y236406D01*
X227501Y236034D01*
X226371Y235431D01*
X225382Y234618D01*
X224569Y233629D01*
X223966Y232500D01*
X223594Y231274D01*
X223469Y230000D01*
X223594Y228726D01*
X223966Y227501D01*
X224569Y226371D01*
X225382Y225382D01*
X225542Y225250D01*
Y224750D01*
X225382Y224618D01*
X225250Y224458D01*
X224750D01*
X224618Y224618D01*
X223629Y225431D01*
X222499Y226034D01*
X221274Y226406D01*
X220000Y226531D01*
X218726Y226406D01*
X217500Y226034D01*
X216371Y225431D01*
X215382Y224618D01*
X215250Y224458D01*
X214750D01*
X214618Y224618D01*
X213629Y225431D01*
X212499Y226034D01*
X211274Y226406D01*
X210000Y226531D01*
X208726Y226406D01*
X207501Y226034D01*
X206371Y225431D01*
X205382Y224618D01*
X205250Y224458D01*
X204750D01*
X204618Y224618D01*
X203629Y225431D01*
X202500Y226034D01*
X201274Y226406D01*
X200000Y226531D01*
X198726Y226406D01*
X197501Y226034D01*
X196371Y225431D01*
X195382Y224618D01*
X195250Y224458D01*
X194750D01*
X194618Y224618D01*
X193629Y225431D01*
X192499Y226034D01*
X191274Y226406D01*
X190000Y226531D01*
X188726Y226406D01*
X187501Y226034D01*
X186371Y225431D01*
X185382Y224618D01*
X185250Y224458D01*
X184750D01*
X184618Y224618D01*
X183629Y225431D01*
X182500Y226034D01*
X181274Y226406D01*
X180000Y226531D01*
X178726Y226406D01*
X177500Y226034D01*
X176371Y225431D01*
X175382Y224618D01*
X175250Y224458D01*
X174750D01*
X174618Y224618D01*
X173629Y225431D01*
X172500Y226034D01*
X171274Y226406D01*
X170000Y226531D01*
X168726Y226406D01*
X167500Y226034D01*
X166371Y225431D01*
X165382Y224618D01*
X164569Y223629D01*
X163966Y222499D01*
X163594Y221274D01*
X163469Y220000D01*
X163594Y218726D01*
X163966Y217500D01*
X164569Y216371D01*
X165382Y215382D01*
X166371Y214569D01*
X167500Y213966D01*
X168726Y213594D01*
X170000Y213469D01*
X171274Y213594D01*
X172500Y213966D01*
X173629Y214569D01*
X174618Y215382D01*
X174750Y215542D01*
X175250D01*
X175382Y215382D01*
X176371Y214569D01*
X177500Y213966D01*
X178726Y213594D01*
X180000Y213469D01*
X181274Y213594D01*
X182500Y213966D01*
X183629Y214569D01*
X184618Y215382D01*
X184750Y215542D01*
X185250D01*
X185382Y215382D01*
X186371Y214569D01*
X187501Y213966D01*
X188726Y213594D01*
X190000Y213469D01*
X191274Y213594D01*
X192499Y213966D01*
X193629Y214569D01*
X194618Y215382D01*
X194750Y215542D01*
X195250D01*
X195382Y215382D01*
X196371Y214569D01*
X197501Y213966D01*
X198726Y213594D01*
X200000Y213469D01*
X201274Y213594D01*
X202500Y213966D01*
X203629Y214569D01*
X204618Y215382D01*
X204750Y215542D01*
X205250D01*
X205382Y215382D01*
X206371Y214569D01*
X207501Y213966D01*
X208726Y213594D01*
X210000Y213469D01*
X211274Y213594D01*
X212499Y213966D01*
X213629Y214569D01*
X214618Y215382D01*
X214750Y215542D01*
X215250D01*
X215382Y215382D01*
X216371Y214569D01*
X217500Y213966D01*
X218726Y213594D01*
X220000Y213469D01*
X221274Y213594D01*
X222499Y213966D01*
X223629Y214569D01*
X224618Y215382D01*
X224750Y215542D01*
X225250D01*
X225382Y215382D01*
X226371Y214569D01*
X227501Y213966D01*
X228726Y213594D01*
X230000Y213469D01*
X231274Y213594D01*
X232500Y213966D01*
X233629Y214569D01*
X234618Y215382D01*
X235431Y216371D01*
X236034Y217500D01*
X236406Y218726D01*
X236531Y220000D01*
X236406Y221274D01*
X236034Y222499D01*
X235431Y223629D01*
X234618Y224618D01*
X234458Y224750D01*
Y225250D01*
X234618Y225382D01*
X234750Y225542D01*
X235250D01*
X235382Y225382D01*
X236371Y224569D01*
X237501Y223966D01*
X238726Y223594D01*
X240000Y223469D01*
X241274Y223594D01*
X242499Y223966D01*
X243629Y224569D01*
X244618Y225382D01*
X244750Y225542D01*
X245250D01*
X245382Y225382D01*
X246371Y224569D01*
X247500Y223966D01*
X248726Y223594D01*
X250000Y223469D01*
X251274Y223594D01*
X252500Y223966D01*
X253629Y224569D01*
X254618Y225382D01*
X254750Y225542D01*
X255250D01*
X255382Y225382D01*
X256371Y224569D01*
X257501Y223966D01*
X258726Y223594D01*
X260000Y223469D01*
X261274Y223594D01*
X262499Y223966D01*
X263629Y224569D01*
X264618Y225382D01*
X264750Y225542D01*
X265250D01*
X265382Y225382D01*
X266371Y224569D01*
X267500Y223966D01*
X268726Y223594D01*
X270000Y223469D01*
X271274Y223594D01*
X272499Y223966D01*
X273629Y224569D01*
X274618Y225382D01*
X274750Y225542D01*
X275250D01*
X275381Y225382D01*
X276371Y224569D01*
X277500Y223966D01*
X278726Y223594D01*
X280000Y223469D01*
X281274Y223594D01*
X282499Y223966D01*
X283629Y224569D01*
X284618Y225382D01*
X284750Y225542D01*
X285250D01*
X285382Y225382D01*
X286371Y224569D01*
X287501Y223966D01*
X288726Y223594D01*
X290000Y223469D01*
X291274Y223594D01*
X292499Y223966D01*
X293629Y224569D01*
X294618Y225382D01*
X294750Y225542D01*
X295250D01*
X295382Y225382D01*
X296371Y224569D01*
X297500Y223966D01*
X298726Y223594D01*
X300000Y223469D01*
X301274Y223594D01*
X302500Y223966D01*
X303629Y224569D01*
X304618Y225382D01*
X304750Y225542D01*
X305250D01*
X305382Y225382D01*
X306371Y224569D01*
X307501Y223966D01*
X308726Y223594D01*
X310000Y223469D01*
X311274Y223594D01*
X312500Y223966D01*
X313629Y224569D01*
X314619Y225382D01*
X314758Y225551D01*
X315258D01*
X315397Y225382D01*
X316387Y224569D01*
X317516Y223966D01*
X318742Y223594D01*
X320016Y223469D01*
X321290Y223594D01*
X322515Y223966D01*
X323644Y224569D01*
X324634Y225382D01*
X325447Y226371D01*
X326050Y227501D01*
X326422Y228726D01*
X326547Y230000D01*
X326422Y231274D01*
X326050Y232500D01*
X325447Y233629D01*
X324634Y234618D01*
X323644Y235431D01*
X322515Y236034D01*
X321290Y236406D01*
X320016Y236531D01*
D02*
G37*
G36*
X200000Y296531D02*
X198726Y296406D01*
X197501Y296034D01*
X196371Y295431D01*
X195382Y294618D01*
X194569Y293629D01*
X193966Y292499D01*
X193594Y291274D01*
X193469Y290000D01*
X193594Y288726D01*
X193966Y287501D01*
X194569Y286371D01*
X195382Y285382D01*
X195542Y285250D01*
Y284750D01*
X195382Y284618D01*
X194569Y283629D01*
X193966Y282500D01*
X193594Y281274D01*
X193469Y280000D01*
X193594Y278726D01*
X193966Y277501D01*
X194569Y276371D01*
X195382Y275382D01*
X195542Y275250D01*
Y274750D01*
X195382Y274618D01*
X194569Y273629D01*
X193966Y272499D01*
X193594Y271274D01*
X193469Y270000D01*
X193594Y268726D01*
X193966Y267500D01*
X194569Y266371D01*
X195382Y265382D01*
X195542Y265250D01*
Y264750D01*
X195382Y264618D01*
X194569Y263629D01*
X193966Y262499D01*
X193594Y261274D01*
X193469Y260000D01*
X193594Y258726D01*
X193966Y257501D01*
X194569Y256371D01*
X195382Y255382D01*
X196371Y254569D01*
X197501Y253966D01*
X198726Y253594D01*
X200000Y253469D01*
X201274Y253594D01*
X202500Y253966D01*
X203629Y254569D01*
X204618Y255382D01*
X205431Y256371D01*
X206034Y257501D01*
X206406Y258726D01*
X206531Y260000D01*
X206406Y261274D01*
X206034Y262499D01*
X205431Y263629D01*
X204618Y264618D01*
X204458Y264750D01*
Y265250D01*
X204618Y265382D01*
X205431Y266371D01*
X206034Y267500D01*
X206406Y268726D01*
X206531Y270000D01*
X206406Y271274D01*
X206034Y272499D01*
X205431Y273629D01*
X204618Y274618D01*
X204458Y274750D01*
Y275250D01*
X204618Y275382D01*
X205431Y276371D01*
X206034Y277501D01*
X206406Y278726D01*
X206531Y280000D01*
X206406Y281274D01*
X206034Y282500D01*
X205431Y283629D01*
X204618Y284618D01*
X204458Y284750D01*
Y285250D01*
X204618Y285382D01*
X205431Y286371D01*
X206034Y287501D01*
X206406Y288726D01*
X206531Y290000D01*
X206406Y291274D01*
X206034Y292499D01*
X205431Y293629D01*
X204618Y294618D01*
X203629Y295431D01*
X202500Y296034D01*
X201274Y296406D01*
X200000Y296531D01*
D02*
G37*
G36*
Y376531D02*
X198726Y376406D01*
X197501Y376034D01*
X196371Y375431D01*
X195382Y374618D01*
X194569Y373629D01*
X193966Y372499D01*
X193594Y371274D01*
X193469Y370000D01*
X193594Y368726D01*
X193966Y367500D01*
X194569Y366371D01*
X195382Y365382D01*
X195542Y365250D01*
Y364750D01*
X195382Y364618D01*
X194569Y363629D01*
X193966Y362499D01*
X193594Y361274D01*
X193469Y360000D01*
X193594Y358726D01*
X193966Y357501D01*
X194569Y356371D01*
X195382Y355382D01*
X195542Y355250D01*
Y354750D01*
X195381Y354618D01*
X194569Y353629D01*
X193966Y352500D01*
X193594Y351274D01*
X193468Y350000D01*
X193594Y348726D01*
X193966Y347500D01*
X194569Y346371D01*
X195381Y345382D01*
X195542Y345250D01*
Y344750D01*
X195382Y344618D01*
X194569Y343629D01*
X193966Y342499D01*
X193594Y341274D01*
X193469Y340000D01*
X193594Y338726D01*
X193966Y337501D01*
X194569Y336371D01*
X195382Y335382D01*
X195542Y335250D01*
Y334750D01*
X195382Y334618D01*
X194569Y333629D01*
X193966Y332500D01*
X193594Y331274D01*
X193469Y330000D01*
X193594Y328726D01*
X193966Y327501D01*
X194569Y326371D01*
X195382Y325382D01*
X195542Y325250D01*
Y324750D01*
X195382Y324618D01*
X194569Y323629D01*
X193966Y322499D01*
X193594Y321274D01*
X193469Y320000D01*
X193594Y318726D01*
X193966Y317500D01*
X194569Y316371D01*
X195382Y315382D01*
X195542Y315250D01*
Y314750D01*
X195382Y314618D01*
X194569Y313629D01*
X193966Y312499D01*
X193594Y311274D01*
X193469Y310000D01*
X193594Y308726D01*
X193966Y307501D01*
X194569Y306371D01*
X195382Y305382D01*
X196371Y304569D01*
X197501Y303966D01*
X198726Y303594D01*
X200000Y303469D01*
X201274Y303594D01*
X202500Y303966D01*
X203629Y304569D01*
X204618Y305382D01*
X205431Y306371D01*
X206034Y307501D01*
X206406Y308726D01*
X206531Y310000D01*
X206406Y311274D01*
X206034Y312499D01*
X205431Y313629D01*
X204618Y314618D01*
X204458Y314750D01*
Y315250D01*
X204618Y315382D01*
X205431Y316371D01*
X206034Y317500D01*
X206406Y318726D01*
X206531Y320000D01*
X206406Y321274D01*
X206034Y322499D01*
X205431Y323629D01*
X204618Y324618D01*
X204458Y324750D01*
Y325250D01*
X204618Y325382D01*
X205431Y326371D01*
X206034Y327501D01*
X206406Y328726D01*
X206531Y330000D01*
X206406Y331274D01*
X206034Y332500D01*
X205431Y333629D01*
X204618Y334618D01*
X204458Y334750D01*
Y335250D01*
X204618Y335382D01*
X205431Y336371D01*
X206034Y337501D01*
X206406Y338726D01*
X206531Y340000D01*
X206406Y341274D01*
X206034Y342499D01*
X205431Y343629D01*
X204618Y344618D01*
X204458Y344750D01*
Y345250D01*
X204618Y345382D01*
X205431Y346371D01*
X206034Y347500D01*
X206406Y348726D01*
X206531Y350000D01*
X206406Y351274D01*
X206034Y352500D01*
X205431Y353629D01*
X204618Y354618D01*
X204458Y354750D01*
Y355250D01*
X204618Y355382D01*
X205431Y356371D01*
X206034Y357501D01*
X206406Y358726D01*
X206531Y360000D01*
X206406Y361274D01*
X206034Y362499D01*
X205431Y363629D01*
X204618Y364618D01*
X204458Y364750D01*
Y365250D01*
X204618Y365382D01*
X205431Y366371D01*
X206034Y367500D01*
X206406Y368726D01*
X206531Y370000D01*
X206406Y371274D01*
X206034Y372499D01*
X205431Y373629D01*
X204618Y374618D01*
X203629Y375431D01*
X202500Y376034D01*
X201274Y376406D01*
X200000Y376531D01*
D02*
G37*
G36*
X156000Y307529D02*
X155415Y307413D01*
X154919Y307081D01*
X154587Y306585D01*
X154471Y306000D01*
X154587Y305415D01*
X154919Y304919D01*
X160919Y298919D01*
X161415Y298587D01*
X162000Y298471D01*
X200000D01*
X200585Y298587D01*
X201081Y298919D01*
X201413Y299415D01*
X201529Y300000D01*
X201413Y300585D01*
X201081Y301081D01*
X200585Y301413D01*
X200000Y301529D01*
X162634D01*
X157081Y307081D01*
X156585Y307413D01*
X156000Y307529D01*
D02*
G37*
G36*
X480000Y186531D02*
X478726Y186406D01*
X477500Y186034D01*
X476371Y185431D01*
X475382Y184618D01*
X475250Y184458D01*
X474750D01*
X474618Y184618D01*
X473629Y185431D01*
X472500Y186034D01*
X471274Y186406D01*
X470000Y186531D01*
X468726Y186406D01*
X467500Y186034D01*
X466371Y185431D01*
X465382Y184618D01*
X465250Y184458D01*
X464750D01*
X464618Y184618D01*
X463629Y185431D01*
X462500Y186034D01*
X461274Y186406D01*
X460000Y186531D01*
X458726Y186406D01*
X457501Y186034D01*
X456371Y185431D01*
X455382Y184618D01*
X454569Y183629D01*
X453966Y182500D01*
X453594Y181274D01*
X453469Y180000D01*
X453594Y178726D01*
X453966Y177500D01*
X454569Y176371D01*
X455382Y175382D01*
X455542Y175250D01*
Y174750D01*
X455382Y174618D01*
X454569Y173629D01*
X453966Y172500D01*
X453594Y171274D01*
X453469Y170000D01*
X453594Y168726D01*
X453966Y167500D01*
X454569Y166371D01*
X455382Y165382D01*
X455542Y165250D01*
Y164750D01*
X455382Y164618D01*
X454569Y163629D01*
X453966Y162499D01*
X453594Y161274D01*
X453469Y160000D01*
X453594Y158726D01*
X453966Y157501D01*
X454569Y156371D01*
X455382Y155382D01*
X455542Y155250D01*
Y154750D01*
X455382Y154618D01*
X454569Y153629D01*
X453966Y152499D01*
X453594Y151274D01*
X453469Y150000D01*
X453594Y148726D01*
X453966Y147501D01*
X454569Y146371D01*
X455382Y145382D01*
X455542Y145250D01*
Y144750D01*
X455382Y144618D01*
X454569Y143629D01*
X453966Y142499D01*
X453594Y141274D01*
X453469Y140000D01*
X453594Y138726D01*
X453966Y137501D01*
X454569Y136371D01*
X455382Y135382D01*
X456371Y134569D01*
X457501Y133966D01*
X458726Y133594D01*
X460000Y133469D01*
X461274Y133594D01*
X461873Y133776D01*
X462079Y133316D01*
X460866Y132572D01*
X459012Y130988D01*
X457428Y129134D01*
X456154Y127055D01*
X455221Y124802D01*
X454651Y122431D01*
X454460Y120000D01*
X454651Y117569D01*
X455221Y115198D01*
X456154Y112945D01*
X457428Y110866D01*
X459012Y109012D01*
X460866Y107428D01*
X462945Y106154D01*
X465198Y105221D01*
X467569Y104651D01*
X470000Y104460D01*
X472431Y104651D01*
X474802Y105221D01*
X477055Y106154D01*
X479134Y107428D01*
X480989Y109012D01*
X482572Y110866D01*
X483846Y112945D01*
X484779Y115198D01*
X485349Y117569D01*
X485540Y120000D01*
X485349Y122431D01*
X484779Y124802D01*
X483846Y127055D01*
X482572Y129134D01*
X480989Y130988D01*
X479134Y132572D01*
X477921Y133316D01*
X478127Y133776D01*
X478726Y133594D01*
X480000Y133469D01*
X481274Y133594D01*
X482500Y133966D01*
X483629Y134569D01*
X484618Y135382D01*
X485431Y136371D01*
X486034Y137501D01*
X486406Y138726D01*
X486531Y140000D01*
X486406Y141274D01*
X486034Y142499D01*
X485431Y143629D01*
X484618Y144618D01*
X484458Y144750D01*
Y145250D01*
X484618Y145382D01*
X485431Y146371D01*
X486034Y147501D01*
X486406Y148726D01*
X486531Y150000D01*
X486406Y151274D01*
X486034Y152499D01*
X485431Y153629D01*
X484618Y154618D01*
X484458Y154750D01*
Y155250D01*
X484618Y155382D01*
X485431Y156371D01*
X486034Y157501D01*
X486406Y158726D01*
X486531Y160000D01*
X486406Y161274D01*
X486034Y162499D01*
X485431Y163629D01*
X484618Y164618D01*
X484458Y164750D01*
Y165250D01*
X484618Y165382D01*
X485431Y166371D01*
X486034Y167500D01*
X486406Y168726D01*
X486531Y170000D01*
X486406Y171274D01*
X486034Y172500D01*
X485431Y173629D01*
X484618Y174618D01*
X484458Y174750D01*
Y175250D01*
X484618Y175382D01*
X485431Y176371D01*
X486034Y177500D01*
X486406Y178726D01*
X486531Y180000D01*
X486406Y181274D01*
X486034Y182500D01*
X485431Y183629D01*
X484618Y184618D01*
X483629Y185431D01*
X482500Y186034D01*
X481274Y186406D01*
X480000Y186531D01*
D02*
G37*
G36*
X120000Y135540D02*
X117569Y135349D01*
X115198Y134779D01*
X112945Y133846D01*
X110866Y132572D01*
X109012Y130988D01*
X107428Y129134D01*
X106154Y127055D01*
X105221Y124802D01*
X104651Y122431D01*
X104460Y120000D01*
X104651Y117569D01*
X105221Y115198D01*
X106154Y112945D01*
X107428Y110866D01*
X109012Y109012D01*
X110866Y107428D01*
X112945Y106154D01*
X115198Y105221D01*
X117569Y104651D01*
X120000Y104460D01*
X122431Y104651D01*
X124802Y105221D01*
X127055Y106154D01*
X129134Y107428D01*
X130988Y109012D01*
X132572Y110866D01*
X133846Y112945D01*
X134779Y115198D01*
X135349Y117569D01*
X135540Y120000D01*
X135349Y122431D01*
X134779Y124802D01*
X133846Y127055D01*
X132572Y129134D01*
X130988Y130988D01*
X129134Y132572D01*
X127055Y133846D01*
X124802Y134779D01*
X122431Y135349D01*
X120000Y135540D01*
D02*
G37*
G36*
X150000Y116531D02*
X148726Y116406D01*
X147501Y116034D01*
X146371Y115431D01*
X145382Y114618D01*
X144569Y113629D01*
X143966Y112499D01*
X143594Y111274D01*
X143469Y110000D01*
X143594Y108726D01*
X143966Y107501D01*
X144569Y106371D01*
X145382Y105382D01*
X146371Y104569D01*
X147501Y103966D01*
X148726Y103594D01*
X150000Y103469D01*
X151274Y103594D01*
X152499Y103966D01*
X153629Y104569D01*
X154618Y105382D01*
X155431Y106371D01*
X156034Y107501D01*
X156406Y108726D01*
X156531Y110000D01*
X156406Y111274D01*
X156034Y112499D01*
X155431Y113629D01*
X154618Y114618D01*
X153629Y115431D01*
X152499Y116034D01*
X151274Y116406D01*
X150000Y116531D01*
D02*
G37*
G36*
X320000Y176531D02*
X318726Y176406D01*
X317500Y176034D01*
X316371Y175431D01*
X315382Y174618D01*
X314569Y173629D01*
X313966Y172500D01*
X313594Y171274D01*
X313469Y170000D01*
X313594Y168726D01*
X313966Y167500D01*
X314569Y166371D01*
X315382Y165382D01*
X315542Y165250D01*
Y164750D01*
X315382Y164618D01*
X314569Y163629D01*
X313966Y162499D01*
X313594Y161274D01*
X313469Y160000D01*
X313594Y158726D01*
X313966Y157501D01*
X314569Y156371D01*
X315382Y155382D01*
X315542Y155250D01*
Y154750D01*
X315382Y154618D01*
X314569Y153629D01*
X313966Y152499D01*
X313594Y151274D01*
X313469Y150000D01*
X313594Y148726D01*
X313966Y147501D01*
X314569Y146371D01*
X315382Y145382D01*
X315542Y145250D01*
Y144750D01*
X315382Y144618D01*
X314569Y143629D01*
X313966Y142499D01*
X313594Y141274D01*
X313469Y140000D01*
X313594Y138726D01*
X313966Y137501D01*
X314569Y136371D01*
X315382Y135382D01*
X315542Y135250D01*
Y134750D01*
X315382Y134618D01*
X314569Y133629D01*
X313966Y132500D01*
X313594Y131274D01*
X313469Y130000D01*
X313594Y128726D01*
X313966Y127500D01*
X314569Y126371D01*
X315382Y125382D01*
X315542Y125250D01*
Y124750D01*
X315382Y124618D01*
X314569Y123629D01*
X313966Y122500D01*
X313594Y121274D01*
X313469Y120000D01*
X313594Y118726D01*
X313966Y117500D01*
X314569Y116371D01*
X315382Y115382D01*
X316371Y114569D01*
X317500Y113966D01*
X318726Y113594D01*
X320000Y113469D01*
X321274Y113594D01*
X322499Y113966D01*
X323629Y114569D01*
X324618Y115382D01*
X325431Y116371D01*
X326034Y117500D01*
X326406Y118726D01*
X326531Y120000D01*
X326406Y121274D01*
X326034Y122500D01*
X325431Y123629D01*
X324618Y124618D01*
X324458Y124750D01*
Y125250D01*
X324618Y125382D01*
X325431Y126371D01*
X326034Y127500D01*
X326406Y128726D01*
X326531Y130000D01*
X326406Y131274D01*
X326034Y132500D01*
X325431Y133629D01*
X324618Y134618D01*
X324458Y134750D01*
Y135250D01*
X324618Y135382D01*
X325431Y136371D01*
X326034Y137501D01*
X326406Y138726D01*
X326531Y140000D01*
X326406Y141274D01*
X326034Y142499D01*
X325431Y143629D01*
X324618Y144618D01*
X324458Y144750D01*
Y145250D01*
X324618Y145382D01*
X325431Y146371D01*
X326034Y147501D01*
X326406Y148726D01*
X326531Y150000D01*
X326406Y151274D01*
X326034Y152499D01*
X325431Y153629D01*
X324618Y154618D01*
X324458Y154750D01*
Y155250D01*
X324618Y155382D01*
X325431Y156371D01*
X326034Y157501D01*
X326406Y158726D01*
X326531Y160000D01*
X326406Y161274D01*
X326034Y162499D01*
X325431Y163629D01*
X324618Y164618D01*
X324458Y164750D01*
Y165250D01*
X324618Y165382D01*
X325431Y166371D01*
X326034Y167500D01*
X326406Y168726D01*
X326531Y170000D01*
X326406Y171274D01*
X326034Y172500D01*
X325431Y173629D01*
X324618Y174618D01*
X323629Y175431D01*
X322499Y176034D01*
X321274Y176406D01*
X320000Y176531D01*
D02*
G37*
G36*
X420000D02*
X418726Y176406D01*
X417500Y176034D01*
X416371Y175431D01*
X415382Y174618D01*
X414569Y173629D01*
X413966Y172500D01*
X413671Y171529D01*
X385614D01*
X385029Y171413D01*
X384533Y171081D01*
X377473Y164021D01*
X361417D01*
X360887Y164376D01*
X360106Y164531D01*
X359326Y164376D01*
X358664Y163934D01*
X358222Y163272D01*
X358067Y162492D01*
X358222Y161711D01*
X358664Y161050D01*
X359326Y160608D01*
X360106Y160453D01*
X360887Y160608D01*
X361417Y160962D01*
X378106D01*
X378692Y161079D01*
X379188Y161410D01*
X386248Y168471D01*
X413671D01*
X413966Y167500D01*
X414569Y166371D01*
X415382Y165382D01*
X415542Y165250D01*
Y164750D01*
X415382Y164618D01*
X414569Y163629D01*
X413966Y162499D01*
X413671Y161529D01*
X409615D01*
X409029Y161413D01*
X408533Y161081D01*
X406473Y159021D01*
X383106D01*
X382521Y158905D01*
X382025Y158573D01*
X377473Y154021D01*
X361417D01*
X360887Y154376D01*
X360106Y154531D01*
X359326Y154376D01*
X358664Y153934D01*
X358222Y153272D01*
X358067Y152492D01*
X358222Y151711D01*
X358664Y151050D01*
X359326Y150608D01*
X360106Y150453D01*
X360887Y150608D01*
X361417Y150962D01*
X378106D01*
X378692Y151079D01*
X379188Y151410D01*
X383740Y155962D01*
X407106D01*
X407691Y156079D01*
X408188Y156410D01*
X410248Y158471D01*
X413671D01*
X413966Y157501D01*
X414569Y156371D01*
X415382Y155382D01*
X415542Y155250D01*
Y154750D01*
X415382Y154618D01*
X414569Y153629D01*
X413966Y152499D01*
X413671Y151529D01*
X410614D01*
X410029Y151413D01*
X409533Y151081D01*
X402473Y144021D01*
X361438D01*
X360895Y144384D01*
X360115Y144539D01*
X359334Y144384D01*
X358672Y143942D01*
X358230Y143280D01*
X358075Y142500D01*
X358230Y141720D01*
X358672Y141058D01*
X359334Y140616D01*
X360115Y140461D01*
X360895Y140616D01*
X361413Y140962D01*
X403106D01*
X403691Y141079D01*
X404188Y141410D01*
X411248Y148471D01*
X413671D01*
X413966Y147501D01*
X414569Y146371D01*
X415382Y145382D01*
X415542Y145250D01*
Y144750D01*
X415382Y144618D01*
X414569Y143629D01*
X413966Y142499D01*
X413671Y141529D01*
X413615D01*
X413126Y141432D01*
X413029Y141413D01*
X412533Y141081D01*
X410481Y139029D01*
X402409D01*
X401878Y139384D01*
X401098Y139539D01*
X400318Y139384D01*
X399656Y138942D01*
X399214Y138280D01*
X399059Y137500D01*
X399214Y136720D01*
X399656Y136058D01*
X400318Y135616D01*
X401098Y135461D01*
X401878Y135616D01*
X402409Y135971D01*
X411115D01*
X411700Y136087D01*
X412196Y136419D01*
X413462Y137684D01*
X413947Y137563D01*
X413966Y137501D01*
X414569Y136371D01*
X415382Y135382D01*
X415542Y135250D01*
Y134750D01*
X415382Y134618D01*
X414569Y133629D01*
X413966Y132500D01*
X413671Y131529D01*
X405615D01*
X405029Y131413D01*
X404533Y131081D01*
X399473Y126021D01*
X383417D01*
X382887Y126376D01*
X382106Y126531D01*
X381326Y126376D01*
X380664Y125934D01*
X380222Y125272D01*
X380067Y124492D01*
X380222Y123711D01*
X380664Y123050D01*
X381326Y122608D01*
X382106Y122453D01*
X382887Y122608D01*
X383417Y122962D01*
X400106D01*
X400692Y123079D01*
X401188Y123410D01*
X406248Y128471D01*
X413671D01*
X413966Y127500D01*
X414569Y126371D01*
X415382Y125382D01*
X415542Y125250D01*
Y124750D01*
X415382Y124618D01*
X414569Y123629D01*
X413966Y122500D01*
X413594Y121274D01*
X413469Y120000D01*
X413594Y118726D01*
X413966Y117500D01*
X414569Y116371D01*
X415382Y115382D01*
X416371Y114569D01*
X417500Y113966D01*
X418726Y113594D01*
X420000Y113469D01*
X421274Y113594D01*
X422500Y113966D01*
X423629Y114569D01*
X424618Y115382D01*
X425431Y116371D01*
X426034Y117500D01*
X426406Y118726D01*
X426532Y120000D01*
X426406Y121274D01*
X426034Y122500D01*
X425431Y123629D01*
X424618Y124618D01*
X424458Y124750D01*
Y125250D01*
X424618Y125382D01*
X425431Y126371D01*
X426034Y127500D01*
X426406Y128726D01*
X426532Y130000D01*
X426406Y131274D01*
X426034Y132500D01*
X425431Y133629D01*
X424618Y134618D01*
X424458Y134750D01*
Y135250D01*
X424618Y135382D01*
X425431Y136371D01*
X426034Y137501D01*
X426406Y138726D01*
X426532Y140000D01*
X426406Y141274D01*
X426034Y142499D01*
X425431Y143629D01*
X424618Y144618D01*
X424458Y144750D01*
Y145250D01*
X424618Y145382D01*
X425431Y146371D01*
X426034Y147501D01*
X426406Y148726D01*
X426532Y150000D01*
X426406Y151274D01*
X426034Y152499D01*
X425431Y153629D01*
X424618Y154618D01*
X424458Y154750D01*
Y155250D01*
X424618Y155382D01*
X425431Y156371D01*
X426034Y157501D01*
X426406Y158726D01*
X426532Y160000D01*
X426406Y161274D01*
X426034Y162499D01*
X425431Y163629D01*
X424618Y164618D01*
X424458Y164750D01*
Y165250D01*
X424618Y165382D01*
X425431Y166371D01*
X426034Y167500D01*
X426406Y168726D01*
X426532Y170000D01*
X426406Y171274D01*
X426034Y172500D01*
X425431Y173629D01*
X424618Y174618D01*
X423629Y175431D01*
X422500Y176034D01*
X421274Y176406D01*
X420000Y176531D01*
D02*
G37*
G36*
X230000Y126531D02*
X228726Y126406D01*
X227501Y126034D01*
X226371Y125431D01*
X225382Y124618D01*
X225250Y124458D01*
X224750D01*
X224618Y124618D01*
X223629Y125431D01*
X222499Y126034D01*
X221274Y126406D01*
X220000Y126531D01*
X218726Y126406D01*
X217500Y126034D01*
X216371Y125431D01*
X215382Y124618D01*
X215250Y124458D01*
X214750D01*
X214618Y124618D01*
X213629Y125431D01*
X212499Y126034D01*
X211274Y126406D01*
X210000Y126531D01*
X208726Y126406D01*
X207501Y126034D01*
X206371Y125431D01*
X205382Y124618D01*
X205250Y124458D01*
X204750D01*
X204618Y124618D01*
X203629Y125431D01*
X202500Y126034D01*
X201274Y126406D01*
X200000Y126531D01*
X198726Y126406D01*
X197501Y126034D01*
X196371Y125431D01*
X195382Y124618D01*
X195250Y124458D01*
X194750D01*
X194618Y124618D01*
X193629Y125431D01*
X192499Y126034D01*
X191274Y126406D01*
X190000Y126531D01*
X188726Y126406D01*
X187501Y126034D01*
X186371Y125431D01*
X185382Y124618D01*
X185250Y124458D01*
X184750D01*
X184618Y124618D01*
X183629Y125431D01*
X182500Y126034D01*
X181274Y126406D01*
X180000Y126531D01*
X178726Y126406D01*
X177500Y126034D01*
X176371Y125431D01*
X175382Y124618D01*
X175250Y124458D01*
X174750D01*
X174618Y124618D01*
X173629Y125431D01*
X172500Y126034D01*
X171274Y126406D01*
X170000Y126531D01*
X168726Y126406D01*
X167500Y126034D01*
X166371Y125431D01*
X165382Y124618D01*
X164569Y123629D01*
X163966Y122500D01*
X163594Y121274D01*
X163469Y120000D01*
X163594Y118726D01*
X163966Y117500D01*
X164569Y116371D01*
X165382Y115382D01*
X165542Y115250D01*
Y114750D01*
X165382Y114618D01*
X164569Y113629D01*
X163966Y112499D01*
X163594Y111274D01*
X163469Y110000D01*
X163594Y108726D01*
X163966Y107501D01*
X164569Y106371D01*
X165382Y105382D01*
X166371Y104569D01*
X167500Y103966D01*
X168726Y103594D01*
X170000Y103469D01*
X171274Y103594D01*
X172500Y103966D01*
X173629Y104569D01*
X174618Y105382D01*
X174750Y105542D01*
X175250D01*
X175382Y105382D01*
X176371Y104569D01*
X177500Y103966D01*
X178726Y103594D01*
X180000Y103469D01*
X181274Y103594D01*
X182500Y103966D01*
X183629Y104569D01*
X184618Y105382D01*
X184750Y105542D01*
X185250D01*
X185382Y105382D01*
X186371Y104569D01*
X187501Y103966D01*
X188726Y103594D01*
X190000Y103469D01*
X191274Y103594D01*
X192499Y103966D01*
X193629Y104569D01*
X194618Y105382D01*
X194750Y105542D01*
X195250D01*
X195382Y105382D01*
X196371Y104569D01*
X197501Y103966D01*
X198726Y103594D01*
X200000Y103469D01*
X201274Y103594D01*
X202500Y103966D01*
X203629Y104569D01*
X204618Y105382D01*
X204750Y105542D01*
X205250D01*
X205382Y105382D01*
X206371Y104569D01*
X207501Y103966D01*
X208726Y103594D01*
X210000Y103469D01*
X211274Y103594D01*
X212499Y103966D01*
X213629Y104569D01*
X214618Y105382D01*
X214750Y105542D01*
X215250D01*
X215382Y105382D01*
X216371Y104569D01*
X217500Y103966D01*
X218726Y103594D01*
X220000Y103469D01*
X221274Y103594D01*
X222499Y103966D01*
X223629Y104569D01*
X224618Y105382D01*
X224750Y105542D01*
X225250D01*
X225382Y105382D01*
X226371Y104569D01*
X227501Y103966D01*
X228726Y103594D01*
X230000Y103469D01*
X231274Y103594D01*
X232500Y103966D01*
X233629Y104569D01*
X234618Y105382D01*
X235431Y106371D01*
X236034Y107501D01*
X236406Y108726D01*
X236531Y110000D01*
X236406Y111274D01*
X236034Y112499D01*
X235431Y113629D01*
X234618Y114618D01*
X234458Y114750D01*
Y115250D01*
X234618Y115382D01*
X235431Y116371D01*
X236034Y117500D01*
X236406Y118726D01*
X236531Y120000D01*
X236406Y121274D01*
X236034Y122500D01*
X235431Y123629D01*
X234618Y124618D01*
X233629Y125431D01*
X232500Y126034D01*
X231274Y126406D01*
X230000Y126531D01*
D02*
G37*
G36*
X284000Y325039D02*
X283220Y324884D01*
X282558Y324442D01*
X282116Y323780D01*
X281992Y323154D01*
X276846Y318008D01*
X276220Y317884D01*
X275558Y317442D01*
X275116Y316780D01*
X274961Y316000D01*
X275116Y315220D01*
X275558Y314558D01*
X276220Y314116D01*
X277000Y313961D01*
X277780Y314116D01*
X278442Y314558D01*
X278884Y315220D01*
X279009Y315846D01*
X284000Y320837D01*
X288471Y316367D01*
Y315311D01*
X288116Y314780D01*
X287991Y314154D01*
X283366Y309529D01*
X281311D01*
X280780Y309884D01*
X280000Y310039D01*
X279220Y309884D01*
X278558Y309442D01*
X278116Y308780D01*
X277961Y308000D01*
X278116Y307220D01*
X278558Y306558D01*
X279220Y306116D01*
X280000Y305961D01*
X280780Y306116D01*
X281311Y306471D01*
X284000D01*
X284585Y306587D01*
X285081Y306919D01*
X290154Y311992D01*
X290780Y312116D01*
X291442Y312558D01*
X291884Y313220D01*
X292039Y314000D01*
X291884Y314780D01*
X291529Y315311D01*
Y317000D01*
X291413Y317585D01*
X291081Y318081D01*
X286009Y323154D01*
X285884Y323780D01*
X285442Y324442D01*
X284780Y324884D01*
X284000Y325039D01*
D02*
G37*
G36*
X120000Y485540D02*
X117569Y485349D01*
X115198Y484779D01*
X112945Y483846D01*
X110866Y482572D01*
X109012Y480989D01*
X107428Y479134D01*
X106154Y477055D01*
X105221Y474802D01*
X104651Y472431D01*
X104460Y470000D01*
X104651Y467569D01*
X105221Y465198D01*
X106154Y462945D01*
X107428Y460866D01*
X109012Y459012D01*
X110866Y457428D01*
X112945Y456154D01*
X115198Y455221D01*
X117569Y454651D01*
X120000Y454460D01*
X122431Y454651D01*
X124802Y455221D01*
X127055Y456154D01*
X129134Y457428D01*
X130988Y459012D01*
X132572Y460866D01*
X133846Y462945D01*
X134779Y465198D01*
X135349Y467569D01*
X135540Y470000D01*
X135349Y472431D01*
X134779Y474802D01*
X133846Y477055D01*
X132572Y479134D01*
X130988Y480989D01*
X129134Y482572D01*
X127055Y483846D01*
X124802Y484779D01*
X122431Y485349D01*
X120000Y485540D01*
D02*
G37*
G36*
X135000Y455039D02*
X134220Y454884D01*
X133558Y454442D01*
X133116Y453780D01*
X132961Y453000D01*
X133116Y452220D01*
X133471Y451689D01*
Y439311D01*
X133116Y438780D01*
X132961Y438000D01*
X133116Y437220D01*
X133558Y436558D01*
X134220Y436116D01*
X135000Y435961D01*
X135780Y436116D01*
X136442Y436558D01*
X136884Y437220D01*
X137039Y438000D01*
X136884Y438780D01*
X136529Y439311D01*
Y451689D01*
X136884Y452220D01*
X137039Y453000D01*
X136884Y453780D01*
X136442Y454442D01*
X135780Y454884D01*
X135000Y455039D01*
D02*
G37*
G36*
X190000Y482549D02*
X189024Y482355D01*
X188198Y481802D01*
X187645Y480975D01*
X187451Y480000D01*
X187645Y479025D01*
X188198Y478198D01*
X188451Y477944D01*
Y453549D01*
X183000D01*
X182025Y453355D01*
X181198Y452802D01*
X148198Y419802D01*
X147645Y418975D01*
X147451Y418000D01*
X147645Y417025D01*
X148198Y416198D01*
X149024Y415645D01*
X150000Y415451D01*
X150976Y415645D01*
X151802Y416198D01*
X184056Y448451D01*
X191000D01*
X191975Y448645D01*
X192802Y449198D01*
X193355Y450025D01*
X193549Y451000D01*
Y479000D01*
X193355Y479976D01*
X192802Y480802D01*
X191802Y481802D01*
X190975Y482355D01*
X190000Y482549D01*
D02*
G37*
G36*
X450000Y486531D02*
X448726Y486406D01*
X447501Y486034D01*
X446371Y485431D01*
X445382Y484618D01*
X445250Y484458D01*
X444750D01*
X444618Y484618D01*
X443629Y485431D01*
X442499Y486034D01*
X441274Y486406D01*
X440000Y486531D01*
X438726Y486406D01*
X437500Y486034D01*
X436371Y485431D01*
X435382Y484618D01*
X435250Y484458D01*
X434750D01*
X434618Y484618D01*
X433629Y485431D01*
X432500Y486034D01*
X431274Y486406D01*
X430000Y486531D01*
X428726Y486406D01*
X427500Y486034D01*
X426371Y485431D01*
X425382Y484618D01*
X425250Y484458D01*
X424750D01*
X424618Y484618D01*
X423629Y485431D01*
X422500Y486034D01*
X421274Y486406D01*
X420000Y486531D01*
X418726Y486406D01*
X417500Y486034D01*
X416371Y485431D01*
X415382Y484618D01*
X415250Y484458D01*
X414750D01*
X414618Y484618D01*
X413629Y485431D01*
X412500Y486034D01*
X411274Y486406D01*
X410000Y486531D01*
X408726Y486406D01*
X407501Y486034D01*
X406371Y485431D01*
X405382Y484618D01*
X405250Y484458D01*
X404750D01*
X404618Y484618D01*
X403629Y485431D01*
X402499Y486034D01*
X401274Y486406D01*
X400000Y486531D01*
X398726Y486406D01*
X397500Y486034D01*
X396371Y485431D01*
X395382Y484618D01*
X395250Y484458D01*
X394750D01*
X394618Y484618D01*
X393629Y485431D01*
X392499Y486034D01*
X391274Y486406D01*
X390000Y486531D01*
X388726Y486406D01*
X387501Y486034D01*
X386371Y485431D01*
X385382Y484618D01*
X385250Y484458D01*
X384750D01*
X384618Y484618D01*
X383629Y485431D01*
X382500Y486034D01*
X381274Y486406D01*
X380000Y486531D01*
X378726Y486406D01*
X377501Y486034D01*
X376371Y485431D01*
X375382Y484618D01*
X375250Y484458D01*
X374750D01*
X374618Y484618D01*
X373629Y485431D01*
X372499Y486034D01*
X371274Y486406D01*
X370000Y486531D01*
X368726Y486406D01*
X367500Y486034D01*
X366371Y485431D01*
X365382Y484618D01*
X365250Y484458D01*
X364750D01*
X364618Y484618D01*
X363629Y485431D01*
X362499Y486034D01*
X361274Y486406D01*
X360000Y486531D01*
X358726Y486406D01*
X357501Y486034D01*
X356371Y485431D01*
X355382Y484618D01*
X355250Y484458D01*
X354750D01*
X354618Y484618D01*
X353629Y485431D01*
X352500Y486034D01*
X351274Y486406D01*
X350000Y486531D01*
X348726Y486406D01*
X347500Y486034D01*
X346371Y485431D01*
X345382Y484618D01*
X345250Y484458D01*
X344750D01*
X344618Y484618D01*
X343629Y485431D01*
X342499Y486034D01*
X341274Y486406D01*
X340000Y486531D01*
X338726Y486406D01*
X337501Y486034D01*
X336371Y485431D01*
X335382Y484618D01*
X335250Y484458D01*
X334750D01*
X334618Y484618D01*
X333629Y485431D01*
X332500Y486034D01*
X331274Y486406D01*
X330000Y486531D01*
X328726Y486406D01*
X327501Y486034D01*
X326371Y485431D01*
X325382Y484618D01*
X325250Y484458D01*
X324750D01*
X324618Y484618D01*
X323629Y485431D01*
X322499Y486034D01*
X321274Y486406D01*
X320000Y486531D01*
X318726Y486406D01*
X317500Y486034D01*
X316371Y485431D01*
X315382Y484618D01*
X315250Y484458D01*
X314750D01*
X314618Y484618D01*
X313629Y485431D01*
X312499Y486034D01*
X311274Y486406D01*
X310000Y486531D01*
X308726Y486406D01*
X307501Y486034D01*
X306371Y485431D01*
X305382Y484618D01*
X305250Y484458D01*
X304750D01*
X304618Y484618D01*
X303629Y485431D01*
X302500Y486034D01*
X301274Y486406D01*
X300000Y486531D01*
X298726Y486406D01*
X297500Y486034D01*
X296371Y485431D01*
X295382Y484618D01*
X295250Y484458D01*
X294750D01*
X294618Y484618D01*
X293629Y485431D01*
X292499Y486034D01*
X291274Y486406D01*
X290000Y486531D01*
X288726Y486406D01*
X287501Y486034D01*
X286371Y485431D01*
X285382Y484618D01*
X285250Y484458D01*
X284750D01*
X284618Y484618D01*
X283629Y485431D01*
X282500Y486034D01*
X281274Y486406D01*
X280000Y486531D01*
X278726Y486406D01*
X277501Y486034D01*
X276371Y485431D01*
X275382Y484618D01*
X275250Y484458D01*
X274750D01*
X274618Y484618D01*
X273629Y485431D01*
X272499Y486034D01*
X271274Y486406D01*
X270000Y486531D01*
X268726Y486406D01*
X267500Y486034D01*
X266371Y485431D01*
X265382Y484618D01*
X265250Y484458D01*
X264750D01*
X264618Y484618D01*
X263629Y485431D01*
X262499Y486034D01*
X261274Y486406D01*
X260000Y486531D01*
X258726Y486406D01*
X257501Y486034D01*
X256371Y485431D01*
X255382Y484618D01*
X255250Y484458D01*
X254750D01*
X254618Y484618D01*
X253629Y485431D01*
X252500Y486034D01*
X251274Y486406D01*
X250000Y486531D01*
X248726Y486406D01*
X247500Y486034D01*
X246371Y485431D01*
X245382Y484618D01*
X245250Y484458D01*
X244750D01*
X244618Y484618D01*
X243629Y485431D01*
X242499Y486034D01*
X241274Y486406D01*
X240000Y486531D01*
X238726Y486406D01*
X237501Y486034D01*
X236371Y485431D01*
X235382Y484618D01*
X235250Y484458D01*
X234750D01*
X234618Y484618D01*
X233629Y485431D01*
X232500Y486034D01*
X231274Y486406D01*
X230000Y486531D01*
X228726Y486406D01*
X227501Y486034D01*
X226371Y485431D01*
X225382Y484618D01*
X224569Y483629D01*
X223966Y482500D01*
X223594Y481274D01*
X223469Y480000D01*
X223594Y478726D01*
X223966Y477500D01*
X224569Y476371D01*
X225382Y475382D01*
X225542Y475250D01*
Y474750D01*
X225382Y474618D01*
X224569Y473629D01*
X223966Y472500D01*
X223594Y471274D01*
X223469Y470000D01*
X223594Y468726D01*
X223966Y467500D01*
X224569Y466371D01*
X225382Y465382D01*
X225542Y465250D01*
Y464750D01*
X225382Y464618D01*
X224569Y463629D01*
X223966Y462500D01*
X223594Y461274D01*
X223469Y460000D01*
X223594Y458726D01*
X223966Y457501D01*
X224569Y456371D01*
X225382Y455382D01*
X225542Y455250D01*
Y454750D01*
X225382Y454618D01*
X224569Y453629D01*
X223966Y452499D01*
X223594Y451274D01*
X223469Y450000D01*
X223594Y448726D01*
X223966Y447501D01*
X224569Y446371D01*
X225382Y445382D01*
X225542Y445250D01*
Y444750D01*
X225382Y444618D01*
X224569Y443629D01*
X223966Y442499D01*
X223594Y441274D01*
X223469Y440000D01*
X223594Y438726D01*
X223966Y437500D01*
X224569Y436371D01*
X225382Y435382D01*
X226371Y434569D01*
X227501Y433966D01*
X228726Y433594D01*
X230000Y433468D01*
X231274Y433594D01*
X232500Y433966D01*
X233629Y434569D01*
X234618Y435382D01*
X234750Y435542D01*
X235250D01*
X235382Y435382D01*
X236371Y434569D01*
X237501Y433966D01*
X238726Y433594D01*
X240000Y433468D01*
X241274Y433594D01*
X242499Y433966D01*
X243629Y434569D01*
X244618Y435382D01*
X244750Y435542D01*
X245250D01*
X245382Y435382D01*
X246371Y434569D01*
X247500Y433966D01*
X248726Y433594D01*
X250000Y433468D01*
X251274Y433594D01*
X252500Y433966D01*
X253629Y434569D01*
X254618Y435382D01*
X254750Y435542D01*
X255250D01*
X255382Y435382D01*
X256371Y434569D01*
X257501Y433966D01*
X258726Y433594D01*
X260000Y433468D01*
X261274Y433594D01*
X262499Y433966D01*
X263629Y434569D01*
X264618Y435382D01*
X264750Y435542D01*
X265250D01*
X265382Y435382D01*
X266371Y434569D01*
X267500Y433966D01*
X268726Y433594D01*
X270000Y433468D01*
X271274Y433594D01*
X272499Y433966D01*
X273629Y434569D01*
X274618Y435382D01*
X275431Y436371D01*
X276034Y437500D01*
X276406Y438726D01*
X276531Y440000D01*
X276406Y441274D01*
X276034Y442499D01*
X275431Y443629D01*
X274618Y444618D01*
X274529Y444692D01*
X274512Y445216D01*
X274784Y445488D01*
X275308Y445471D01*
X275382Y445382D01*
X276371Y444569D01*
X277501Y443966D01*
X278726Y443594D01*
X280000Y443469D01*
X281274Y443594D01*
X282500Y443966D01*
X283629Y444569D01*
X284618Y445382D01*
X285431Y446371D01*
X286034Y447501D01*
X286406Y448726D01*
X286531Y450000D01*
X286406Y451274D01*
X286034Y452499D01*
X285431Y453629D01*
X284618Y454618D01*
X284458Y454750D01*
Y455250D01*
X284618Y455382D01*
X285431Y456371D01*
X286034Y457501D01*
X286406Y458726D01*
X286531Y460000D01*
X286406Y461274D01*
X286034Y462500D01*
X285431Y463629D01*
X284618Y464618D01*
X284529Y464692D01*
X284512Y465216D01*
X284784Y465488D01*
X285308Y465471D01*
X285382Y465382D01*
X286371Y464569D01*
X287501Y463966D01*
X288726Y463594D01*
X290000Y463469D01*
X291274Y463594D01*
X292499Y463966D01*
X293629Y464569D01*
X294618Y465382D01*
X294750Y465542D01*
X295250D01*
X295382Y465382D01*
X296371Y464569D01*
X297500Y463966D01*
X298726Y463594D01*
X300000Y463469D01*
X301274Y463594D01*
X302500Y463966D01*
X303629Y464569D01*
X304618Y465382D01*
X304750Y465542D01*
X305250D01*
X305382Y465382D01*
X306371Y464569D01*
X307501Y463966D01*
X308726Y463594D01*
X310000Y463469D01*
X311274Y463594D01*
X312499Y463966D01*
X313629Y464569D01*
X314618Y465382D01*
X314750Y465542D01*
X315250D01*
X315382Y465382D01*
X316371Y464569D01*
X317500Y463966D01*
X318726Y463594D01*
X320000Y463469D01*
X321274Y463594D01*
X322499Y463966D01*
X323629Y464569D01*
X324618Y465382D01*
X324750Y465542D01*
X325250D01*
X325382Y465382D01*
X326371Y464569D01*
X327501Y463966D01*
X328726Y463594D01*
X330000Y463469D01*
X331274Y463594D01*
X332500Y463966D01*
X333629Y464569D01*
X334618Y465382D01*
X334750Y465542D01*
X335250D01*
X335382Y465382D01*
X336371Y464569D01*
X337501Y463966D01*
X338726Y463594D01*
X340000Y463469D01*
X341274Y463594D01*
X342499Y463966D01*
X343629Y464569D01*
X344618Y465382D01*
X344750Y465542D01*
X345250D01*
X345382Y465382D01*
X346371Y464569D01*
X347500Y463966D01*
X348726Y463594D01*
X350000Y463469D01*
X351274Y463594D01*
X352500Y463966D01*
X353629Y464569D01*
X354618Y465382D01*
X354750Y465542D01*
X355250D01*
X355382Y465382D01*
X356371Y464569D01*
X357501Y463966D01*
X358726Y463594D01*
X360000Y463469D01*
X361274Y463594D01*
X362499Y463966D01*
X363629Y464569D01*
X364618Y465382D01*
X364750Y465542D01*
X365250D01*
X365382Y465382D01*
X366371Y464569D01*
X367500Y463966D01*
X368726Y463594D01*
X370000Y463469D01*
X371274Y463594D01*
X372499Y463966D01*
X373629Y464569D01*
X374618Y465382D01*
X374692Y465471D01*
X375216Y465488D01*
X375488Y465216D01*
X375471Y464692D01*
X375382Y464618D01*
X374569Y463629D01*
X373966Y462500D01*
X373594Y461274D01*
X373469Y460000D01*
X373594Y458726D01*
X373966Y457501D01*
X374569Y456371D01*
X375382Y455382D01*
X375542Y455250D01*
Y454750D01*
X375382Y454618D01*
X374569Y453629D01*
X373966Y452499D01*
X373594Y451274D01*
X373469Y450000D01*
X373594Y448726D01*
X373966Y447501D01*
X374569Y446371D01*
X375382Y445382D01*
X375542Y445250D01*
Y444750D01*
X375382Y444618D01*
X374569Y443629D01*
X373966Y442499D01*
X373594Y441274D01*
X373469Y440000D01*
X373594Y438726D01*
X373966Y437500D01*
X374569Y436371D01*
X375382Y435382D01*
X375542Y435250D01*
Y434750D01*
X375382Y434618D01*
X374569Y433629D01*
X373966Y432500D01*
X373594Y431274D01*
X373469Y430000D01*
X373594Y428726D01*
X373966Y427500D01*
X374569Y426371D01*
X375382Y425382D01*
X375542Y425250D01*
Y424750D01*
X375382Y424618D01*
X374569Y423629D01*
X373966Y422500D01*
X373594Y421274D01*
X373469Y420000D01*
X373594Y418726D01*
X373966Y417500D01*
X374569Y416371D01*
X375382Y415382D01*
X375542Y415250D01*
Y414750D01*
X375382Y414618D01*
X374569Y413629D01*
X373966Y412500D01*
X373594Y411274D01*
X373469Y410000D01*
X373594Y408726D01*
X373966Y407501D01*
X374569Y406371D01*
X375382Y405382D01*
X376371Y404569D01*
X377501Y403966D01*
X378726Y403594D01*
X380000Y403469D01*
X381274Y403594D01*
X382500Y403966D01*
X383629Y404569D01*
X384618Y405382D01*
X384750Y405542D01*
X385250D01*
X385382Y405382D01*
X385542Y405250D01*
Y404750D01*
X385382Y404618D01*
X384569Y403629D01*
X383966Y402499D01*
X383594Y401274D01*
X383469Y400000D01*
X383594Y398726D01*
X383966Y397500D01*
X384569Y396371D01*
X385382Y395382D01*
X385542Y395250D01*
Y394750D01*
X385382Y394618D01*
X384569Y393629D01*
X383966Y392499D01*
X383594Y391274D01*
X383469Y390000D01*
X383594Y388726D01*
X383966Y387501D01*
X384569Y386371D01*
X385382Y385382D01*
X385542Y385250D01*
Y384750D01*
X385382Y384618D01*
X384569Y383629D01*
X383966Y382500D01*
X383594Y381274D01*
X383469Y380000D01*
X383594Y378726D01*
X383966Y377501D01*
X384569Y376371D01*
X385382Y375382D01*
X385542Y375250D01*
Y374750D01*
X385382Y374618D01*
X384569Y373629D01*
X383966Y372499D01*
X383594Y371274D01*
X383469Y370000D01*
X383594Y368726D01*
X383966Y367500D01*
X384569Y366371D01*
X385382Y365382D01*
X385542Y365250D01*
Y364750D01*
X385382Y364618D01*
X384569Y363629D01*
X383966Y362499D01*
X383594Y361274D01*
X383469Y360000D01*
X383594Y358726D01*
X383966Y357501D01*
X384569Y356371D01*
X385382Y355382D01*
X385542Y355250D01*
Y354750D01*
X385382Y354618D01*
X385250Y354458D01*
X384750D01*
X384618Y354618D01*
X383629Y355431D01*
X382500Y356034D01*
X381274Y356406D01*
X380000Y356531D01*
X378726Y356406D01*
X377501Y356034D01*
X376371Y355431D01*
X375382Y354618D01*
X375250Y354458D01*
X374750D01*
X374618Y354618D01*
X373629Y355431D01*
X372499Y356034D01*
X371274Y356406D01*
X370000Y356531D01*
X368726Y356406D01*
X367500Y356034D01*
X366371Y355431D01*
X365382Y354618D01*
X365240Y354447D01*
X364741Y354422D01*
X361529Y357633D01*
Y447000D01*
X361432Y447488D01*
X361413Y447585D01*
X361081Y448081D01*
X357081Y452081D01*
X356585Y452413D01*
X356000Y452529D01*
X313000D01*
X312415Y452413D01*
X311919Y452081D01*
X308919Y449081D01*
X308587Y448585D01*
X308471Y448000D01*
Y445320D01*
X307226Y444804D01*
X306077Y443923D01*
X305196Y442774D01*
X304642Y441436D01*
X304452Y440000D01*
X304642Y438564D01*
X305196Y437226D01*
X306077Y436077D01*
X306213Y435974D01*
X306052Y435500D01*
X304500D01*
Y431529D01*
X260000D01*
X259415Y431413D01*
X258919Y431081D01*
X233394Y405556D01*
X232500Y406034D01*
X231274Y406406D01*
X230000Y406531D01*
X228726Y406406D01*
X227501Y406034D01*
X226371Y405431D01*
X225382Y404618D01*
X224569Y403629D01*
X223966Y402499D01*
X223594Y401274D01*
X223469Y400000D01*
X223594Y398726D01*
X223966Y397500D01*
X224569Y396371D01*
X225382Y395382D01*
X226371Y394569D01*
X227501Y393966D01*
X228726Y393594D01*
X230000Y393469D01*
X231274Y393594D01*
X232500Y393966D01*
X233629Y394569D01*
X234618Y395382D01*
X235431Y396371D01*
X236034Y397500D01*
X236406Y398726D01*
X236531Y400000D01*
X236406Y401274D01*
X236034Y402499D01*
X235556Y403394D01*
X260633Y428471D01*
X304500D01*
Y424500D01*
X313471D01*
Y421000D01*
X313587Y420415D01*
X313919Y419919D01*
X319919Y413919D01*
X320415Y413587D01*
X321000Y413471D01*
X333366D01*
X338471Y408366D01*
Y406328D01*
X337501Y406034D01*
X336371Y405431D01*
X335382Y404618D01*
X335250Y404458D01*
X334750D01*
X334618Y404618D01*
X333629Y405431D01*
X332500Y406034D01*
X331274Y406406D01*
X330000Y406531D01*
X328726Y406406D01*
X327501Y406034D01*
X326371Y405431D01*
X325382Y404618D01*
X325250Y404458D01*
X324750D01*
X324618Y404619D01*
X323629Y405431D01*
X322499Y406034D01*
X321274Y406406D01*
X320000Y406532D01*
X318726Y406406D01*
X317500Y406034D01*
X316371Y405431D01*
X315382Y404619D01*
X315250Y404458D01*
X314750D01*
X314618Y404618D01*
X313629Y405431D01*
X312500Y406034D01*
X311274Y406406D01*
X310000Y406531D01*
X308726Y406406D01*
X307501Y406034D01*
X306371Y405431D01*
X305382Y404618D01*
X305250Y404458D01*
X304750D01*
X304618Y404619D01*
X303629Y405431D01*
X302500Y406034D01*
X301274Y406406D01*
X300000Y406532D01*
X298726Y406406D01*
X297500Y406034D01*
X296371Y405431D01*
X295382Y404619D01*
X295250Y404458D01*
X294750D01*
X294618Y404618D01*
X293629Y405431D01*
X292499Y406034D01*
X291274Y406406D01*
X290000Y406531D01*
X288726Y406406D01*
X287501Y406034D01*
X286371Y405431D01*
X285382Y404618D01*
X285250Y404458D01*
X284750D01*
X284618Y404619D01*
X283629Y405431D01*
X282500Y406034D01*
X281274Y406406D01*
X280000Y406532D01*
X278726Y406406D01*
X277501Y406034D01*
X276371Y405431D01*
X275382Y404619D01*
X275250Y404458D01*
X274750D01*
X274618Y404618D01*
X273629Y405431D01*
X272499Y406034D01*
X271274Y406406D01*
X270000Y406531D01*
X268726Y406406D01*
X267500Y406034D01*
X266371Y405431D01*
X265382Y404618D01*
X265250Y404458D01*
X264750D01*
X264618Y404619D01*
X263629Y405431D01*
X262499Y406034D01*
X261274Y406406D01*
X260000Y406532D01*
X258726Y406406D01*
X257501Y406034D01*
X256371Y405431D01*
X255382Y404619D01*
X255250Y404458D01*
X254750D01*
X254618Y404618D01*
X253629Y405431D01*
X252500Y406034D01*
X251274Y406406D01*
X250000Y406531D01*
X248726Y406406D01*
X247500Y406034D01*
X246371Y405431D01*
X245382Y404618D01*
X244569Y403629D01*
X243966Y402499D01*
X243594Y401274D01*
X243469Y400000D01*
X243594Y398726D01*
X243966Y397500D01*
X244569Y396371D01*
X245382Y395381D01*
X246371Y394569D01*
X247500Y393966D01*
X248726Y393594D01*
X250000Y393468D01*
X251274Y393594D01*
X252500Y393966D01*
X253629Y394569D01*
X254618Y395381D01*
X254750Y395542D01*
X255250D01*
X255382Y395382D01*
X256371Y394569D01*
X257501Y393966D01*
X258726Y393594D01*
X260000Y393469D01*
X261274Y393594D01*
X262499Y393966D01*
X263629Y394569D01*
X264618Y395382D01*
X264750Y395542D01*
X265250D01*
X265382Y395382D01*
X266371Y394569D01*
X267500Y393966D01*
X268726Y393594D01*
X270000Y393469D01*
X271274Y393594D01*
X272499Y393966D01*
X273629Y394569D01*
X274618Y395382D01*
X274750Y395542D01*
X275250D01*
X275382Y395382D01*
X276371Y394569D01*
X277501Y393966D01*
X278726Y393594D01*
X280000Y393469D01*
X281274Y393594D01*
X282500Y393966D01*
X283629Y394569D01*
X284618Y395382D01*
X284750Y395542D01*
X285250D01*
X285382Y395381D01*
X286371Y394569D01*
X287501Y393966D01*
X288726Y393594D01*
X290000Y393468D01*
X291274Y393594D01*
X292499Y393966D01*
X293629Y394569D01*
X294618Y395381D01*
X294750Y395542D01*
X295250D01*
X295382Y395382D01*
X296371Y394569D01*
X297500Y393966D01*
X298726Y393594D01*
X300000Y393469D01*
X301274Y393594D01*
X302500Y393966D01*
X303629Y394569D01*
X304618Y395382D01*
X304750Y395542D01*
X305250D01*
X305382Y395382D01*
X306371Y394569D01*
X307501Y393966D01*
X308726Y393594D01*
X310000Y393468D01*
X311274Y393594D01*
X312500Y393966D01*
X313629Y394569D01*
X314618Y395382D01*
X314750Y395542D01*
X315250D01*
X315382Y395382D01*
X316371Y394569D01*
X317500Y393966D01*
X318726Y393594D01*
X320000Y393469D01*
X321274Y393594D01*
X322499Y393966D01*
X323629Y394569D01*
X324618Y395382D01*
X324750Y395542D01*
X325250D01*
X325382Y395381D01*
X326371Y394569D01*
X327501Y393966D01*
X328726Y393594D01*
X330000Y393468D01*
X331274Y393594D01*
X332500Y393966D01*
X333629Y394569D01*
X334618Y395381D01*
X334750Y395542D01*
X335250D01*
X335382Y395381D01*
X336371Y394569D01*
X337501Y393966D01*
X338726Y393594D01*
X340000Y393468D01*
X341274Y393594D01*
X342499Y393966D01*
X343629Y394569D01*
X344618Y395381D01*
X345431Y396371D01*
X346034Y397500D01*
X346406Y398726D01*
X346531Y400000D01*
X346406Y401274D01*
X346034Y402499D01*
X345431Y403629D01*
X344618Y404618D01*
X343629Y405431D01*
X342499Y406034D01*
X341529Y406328D01*
Y409000D01*
X341413Y409585D01*
X341081Y410081D01*
X335081Y416081D01*
X334585Y416413D01*
X334000Y416529D01*
X321634D01*
X316529Y421633D01*
Y434367D01*
X317320Y435157D01*
X318564Y434642D01*
X320000Y434452D01*
X321436Y434642D01*
X322774Y435196D01*
X323923Y436077D01*
X324707Y437100D01*
X324873Y437143D01*
X325127D01*
X325293Y437100D01*
X326077Y436077D01*
X327226Y435196D01*
X328564Y434642D01*
X330000Y434452D01*
X331436Y434642D01*
X332774Y435196D01*
X333923Y436077D01*
X334707Y437100D01*
X334873Y437143D01*
X335127D01*
X335293Y437100D01*
X336077Y436077D01*
X337100Y435293D01*
X337142Y435127D01*
Y434873D01*
X337100Y434707D01*
X336077Y433923D01*
X335196Y432774D01*
X334642Y431436D01*
X334453Y430000D01*
X334642Y428564D01*
X335196Y427226D01*
X336077Y426077D01*
X337226Y425196D01*
X338564Y424642D01*
X340000Y424452D01*
X341436Y424642D01*
X342774Y425196D01*
X343923Y426077D01*
X344804Y427226D01*
X345358Y428564D01*
X345548Y430000D01*
X345358Y431436D01*
X344804Y432774D01*
X343923Y433923D01*
X342900Y434707D01*
X342858Y434873D01*
Y435127D01*
X342900Y435293D01*
X343923Y436077D01*
X344707Y437100D01*
X344873Y437143D01*
X345127D01*
X345293Y437100D01*
X346077Y436077D01*
X347226Y435196D01*
X348564Y434642D01*
X350000Y434452D01*
X351436Y434642D01*
X352680Y435157D01*
X354471Y433366D01*
Y395634D01*
X340367Y381529D01*
X317000D01*
X316415Y381413D01*
X315919Y381081D01*
X246846Y312009D01*
X246220Y311884D01*
X245558Y311442D01*
X245116Y310780D01*
X244961Y310000D01*
X245116Y309220D01*
X245558Y308558D01*
X246220Y308116D01*
X247000Y307961D01*
X247780Y308116D01*
X248442Y308558D01*
X248884Y309220D01*
X249008Y309846D01*
X317634Y378471D01*
X341000D01*
X341585Y378587D01*
X342081Y378919D01*
X357081Y393919D01*
X357413Y394415D01*
X357529Y395000D01*
Y434000D01*
X357413Y434585D01*
X357081Y435081D01*
X354843Y437320D01*
X355358Y438564D01*
X355547Y440000D01*
X355358Y441436D01*
X354804Y442774D01*
X353923Y443923D01*
X352774Y444804D01*
X351436Y445358D01*
X350000Y445547D01*
X348564Y445358D01*
X347226Y444804D01*
X346077Y443923D01*
X345293Y442900D01*
X345127Y442858D01*
X344873D01*
X344707Y442900D01*
X343923Y443923D01*
X342774Y444804D01*
X341436Y445358D01*
X340000Y445547D01*
X338564Y445358D01*
X337226Y444804D01*
X336077Y443923D01*
X335293Y442900D01*
X335127Y442858D01*
X334873D01*
X334707Y442900D01*
X333923Y443923D01*
X332774Y444804D01*
X331436Y445358D01*
X330000Y445547D01*
X328564Y445358D01*
X327226Y444804D01*
X326077Y443923D01*
X325293Y442900D01*
X325127Y442858D01*
X324873D01*
X324707Y442900D01*
X323923Y443923D01*
X322774Y444804D01*
X321436Y445358D01*
X320000Y445547D01*
X318564Y445358D01*
X317226Y444804D01*
X316077Y443923D01*
X315293Y442900D01*
X315127Y442858D01*
X314873D01*
X314707Y442900D01*
X313923Y443923D01*
X312774Y444804D01*
X311529Y445320D01*
Y447367D01*
X313633Y449471D01*
X355366D01*
X358471Y446367D01*
Y357000D01*
X358587Y356415D01*
X358919Y355919D01*
X363591Y351246D01*
X363468Y350000D01*
X363594Y348726D01*
X363966Y347500D01*
X364569Y346371D01*
X365382Y345382D01*
X365542Y345250D01*
Y344750D01*
X365382Y344618D01*
X364569Y343629D01*
X363966Y342499D01*
X363594Y341274D01*
X363469Y340000D01*
X363594Y338726D01*
X363966Y337501D01*
X364569Y336371D01*
X365382Y335382D01*
X365542Y335250D01*
Y334750D01*
X365382Y334618D01*
X364569Y333629D01*
X363966Y332500D01*
X363594Y331274D01*
X363469Y330000D01*
X363594Y328726D01*
X363966Y327501D01*
X364569Y326371D01*
X365382Y325382D01*
X365542Y325250D01*
Y324750D01*
X365382Y324618D01*
X364569Y323629D01*
X363966Y322499D01*
X363594Y321274D01*
X363468Y320000D01*
X363594Y318726D01*
X363966Y317500D01*
X364569Y316371D01*
X365382Y315382D01*
X365542Y315250D01*
Y314750D01*
X365382Y314618D01*
X364569Y313629D01*
X363966Y312499D01*
X363594Y311274D01*
X363469Y310000D01*
X363594Y308726D01*
X363966Y307501D01*
X364569Y306371D01*
X365382Y305382D01*
X365542Y305250D01*
Y304750D01*
X365382Y304618D01*
X364569Y303629D01*
X363966Y302500D01*
X363594Y301274D01*
X363469Y300000D01*
X363594Y298726D01*
X363966Y297500D01*
X364569Y296371D01*
X365382Y295382D01*
X365542Y295250D01*
Y294750D01*
X365382Y294618D01*
X364569Y293629D01*
X363966Y292499D01*
X363594Y291274D01*
X363469Y290000D01*
X363594Y288726D01*
X363966Y287501D01*
X364569Y286371D01*
X365382Y285382D01*
X365542Y285250D01*
Y284750D01*
X365382Y284618D01*
X364569Y283629D01*
X363966Y282500D01*
X363594Y281274D01*
X363469Y280000D01*
X363594Y278726D01*
X363966Y277501D01*
X364569Y276371D01*
X365382Y275382D01*
X365542Y275250D01*
Y274750D01*
X365382Y274618D01*
X364569Y273629D01*
X363966Y272499D01*
X363594Y271274D01*
X363469Y270000D01*
X363594Y268726D01*
X363966Y267500D01*
X364569Y266371D01*
X365382Y265382D01*
X365542Y265250D01*
Y264750D01*
X365382Y264618D01*
X364569Y263629D01*
X363966Y262499D01*
X363594Y261274D01*
X363468Y260000D01*
X363594Y258726D01*
X363966Y257501D01*
X364569Y256371D01*
X365382Y255382D01*
X365542Y255250D01*
Y254750D01*
X365382Y254618D01*
X365250Y254458D01*
X364750D01*
X364618Y254618D01*
X363629Y255431D01*
X362499Y256034D01*
X361274Y256406D01*
X360000Y256531D01*
X358726Y256406D01*
X357501Y256034D01*
X356371Y255431D01*
X355382Y254618D01*
X354569Y253629D01*
X353966Y252500D01*
X353594Y251274D01*
X353469Y250000D01*
X353594Y248726D01*
X353966Y247500D01*
X354569Y246371D01*
X355382Y245382D01*
X355542Y245250D01*
Y244750D01*
X355382Y244618D01*
X354569Y243629D01*
X353966Y242499D01*
X353594Y241274D01*
X353469Y240000D01*
X353594Y238726D01*
X353966Y237501D01*
X354569Y236371D01*
X355382Y235382D01*
X355542Y235250D01*
Y234750D01*
X355382Y234618D01*
X354569Y233629D01*
X353966Y232500D01*
X353594Y231274D01*
X353469Y230000D01*
X353594Y228726D01*
X353966Y227501D01*
X354569Y226371D01*
X355382Y225382D01*
X356371Y224569D01*
X357501Y223966D01*
X358726Y223594D01*
X360000Y223469D01*
X361274Y223594D01*
X362499Y223966D01*
X363629Y224569D01*
X364618Y225382D01*
X364692Y225471D01*
X365216Y225488D01*
X365488Y225216D01*
X365471Y224692D01*
X365382Y224618D01*
X364569Y223629D01*
X363966Y222499D01*
X363594Y221274D01*
X363469Y220000D01*
X363594Y218726D01*
X363966Y217500D01*
X364569Y216371D01*
X365382Y215382D01*
X366371Y214569D01*
X367500Y213966D01*
X368726Y213594D01*
X370000Y213469D01*
X371274Y213594D01*
X372499Y213966D01*
X373629Y214569D01*
X374618Y215382D01*
X374750Y215542D01*
X375250D01*
X375382Y215382D01*
X375542Y215250D01*
Y214750D01*
X375382Y214618D01*
X374569Y213629D01*
X373966Y212499D01*
X373594Y211274D01*
X373469Y210000D01*
X373594Y208726D01*
X373966Y207501D01*
X374569Y206371D01*
X375382Y205382D01*
X375542Y205250D01*
Y204750D01*
X375382Y204618D01*
X374569Y203629D01*
X373992Y202549D01*
X371056D01*
X354802Y218802D01*
X346051Y227554D01*
X346406Y228726D01*
X346531Y230000D01*
X346406Y231274D01*
X346034Y232500D01*
X345431Y233629D01*
X344618Y234618D01*
X343629Y235431D01*
X342499Y236034D01*
X341274Y236406D01*
X340000Y236531D01*
X338726Y236406D01*
X337501Y236034D01*
X336371Y235431D01*
X335382Y234618D01*
X334569Y233629D01*
X333966Y232500D01*
X333594Y231274D01*
X333469Y230000D01*
X333594Y228726D01*
X333966Y227501D01*
X334569Y226371D01*
X335382Y225382D01*
X336371Y224569D01*
X337501Y223966D01*
X338726Y223594D01*
X340000Y223469D01*
X341274Y223594D01*
X342446Y223949D01*
X351198Y215198D01*
X351471Y214925D01*
Y206311D01*
X351116Y205780D01*
X350961Y205000D01*
X351116Y204220D01*
X351558Y203558D01*
X352220Y203116D01*
X353000Y202961D01*
X353780Y203116D01*
X354442Y203558D01*
X354884Y204220D01*
X355039Y205000D01*
X354884Y205780D01*
X354529Y206311D01*
Y211212D01*
X354991Y211404D01*
X368198Y198198D01*
X369024Y197645D01*
X370000Y197451D01*
X373992D01*
X374569Y196371D01*
X375382Y195382D01*
X376371Y194569D01*
X377501Y193966D01*
X378726Y193594D01*
X380000Y193469D01*
X381274Y193594D01*
X382500Y193966D01*
X383629Y194569D01*
X384618Y195382D01*
X384750Y195542D01*
X385250D01*
X385382Y195382D01*
X386371Y194569D01*
X387501Y193966D01*
X388726Y193594D01*
X390000Y193469D01*
X391274Y193594D01*
X392499Y193966D01*
X393629Y194569D01*
X394618Y195382D01*
X394750Y195542D01*
X395250D01*
X395382Y195382D01*
X396371Y194569D01*
X397500Y193966D01*
X398726Y193594D01*
X400000Y193469D01*
X401274Y193594D01*
X402499Y193966D01*
X403629Y194569D01*
X404618Y195382D01*
X404750Y195542D01*
X405250D01*
X405382Y195382D01*
X406371Y194569D01*
X407501Y193966D01*
X408726Y193594D01*
X410000Y193469D01*
X411274Y193594D01*
X412500Y193966D01*
X413629Y194569D01*
X414618Y195382D01*
X414750Y195542D01*
X415250D01*
X415382Y195382D01*
X416371Y194569D01*
X417500Y193966D01*
X418726Y193594D01*
X420000Y193469D01*
X421274Y193594D01*
X422500Y193966D01*
X423629Y194569D01*
X424618Y195382D01*
X424750Y195542D01*
X425250D01*
X425382Y195382D01*
X426371Y194569D01*
X427500Y193966D01*
X428726Y193594D01*
X430000Y193469D01*
X431274Y193594D01*
X432500Y193966D01*
X433629Y194569D01*
X434618Y195382D01*
X434750Y195542D01*
X435250D01*
X435382Y195382D01*
X436371Y194569D01*
X437500Y193966D01*
X438726Y193594D01*
X440000Y193469D01*
X441274Y193594D01*
X442499Y193966D01*
X443629Y194569D01*
X444618Y195382D01*
X444750Y195542D01*
X445250D01*
X445382Y195382D01*
X446371Y194569D01*
X447501Y193966D01*
X448726Y193594D01*
X450000Y193469D01*
X451274Y193594D01*
X452499Y193966D01*
X453629Y194569D01*
X454618Y195382D01*
X454750Y195542D01*
X455250D01*
X455382Y195382D01*
X456371Y194569D01*
X457501Y193966D01*
X458726Y193594D01*
X460000Y193469D01*
X461274Y193594D01*
X462500Y193966D01*
X463629Y194569D01*
X464618Y195382D01*
X464750Y195542D01*
X465250D01*
X465382Y195382D01*
X466371Y194569D01*
X467500Y193966D01*
X468726Y193594D01*
X470000Y193469D01*
X471274Y193594D01*
X472500Y193966D01*
X473629Y194569D01*
X474618Y195382D01*
X474750Y195542D01*
X475250D01*
X475382Y195382D01*
X476371Y194569D01*
X477500Y193966D01*
X478726Y193594D01*
X480000Y193469D01*
X481274Y193594D01*
X482500Y193966D01*
X483629Y194569D01*
X484618Y195382D01*
X485431Y196371D01*
X486034Y197501D01*
X486406Y198726D01*
X486531Y200000D01*
X486406Y201274D01*
X486034Y202500D01*
X485431Y203629D01*
X484618Y204618D01*
X484458Y204750D01*
Y205250D01*
X484618Y205382D01*
X485431Y206371D01*
X486034Y207501D01*
X486406Y208726D01*
X486531Y210000D01*
X486406Y211274D01*
X486034Y212499D01*
X485431Y213629D01*
X484618Y214618D01*
X484458Y214750D01*
Y215250D01*
X484618Y215382D01*
X485431Y216371D01*
X486034Y217500D01*
X486406Y218726D01*
X486531Y220000D01*
X486406Y221274D01*
X486034Y222499D01*
X485431Y223629D01*
X484618Y224618D01*
X484458Y224750D01*
Y225250D01*
X484618Y225382D01*
X485431Y226371D01*
X486034Y227501D01*
X486406Y228726D01*
X486531Y230000D01*
X486406Y231274D01*
X486034Y232500D01*
X485431Y233629D01*
X484618Y234618D01*
X484458Y234750D01*
Y235250D01*
X484618Y235382D01*
X485431Y236371D01*
X486034Y237501D01*
X486406Y238726D01*
X486531Y240000D01*
X486406Y241274D01*
X486034Y242499D01*
X485431Y243629D01*
X484618Y244618D01*
X484458Y244750D01*
Y245250D01*
X484618Y245382D01*
X485431Y246371D01*
X486034Y247500D01*
X486406Y248726D01*
X486531Y250000D01*
X486406Y251274D01*
X486034Y252500D01*
X485431Y253629D01*
X484618Y254618D01*
X484458Y254750D01*
Y255250D01*
X484618Y255382D01*
X485431Y256371D01*
X486034Y257501D01*
X486406Y258726D01*
X486531Y260000D01*
X486406Y261274D01*
X486034Y262499D01*
X485431Y263629D01*
X484618Y264618D01*
X484458Y264750D01*
Y265250D01*
X484618Y265382D01*
X485431Y266371D01*
X486034Y267500D01*
X486406Y268726D01*
X486531Y270000D01*
X486406Y271274D01*
X486034Y272499D01*
X485431Y273629D01*
X484618Y274618D01*
X484458Y274750D01*
Y275250D01*
X484618Y275382D01*
X485431Y276371D01*
X486034Y277501D01*
X486406Y278726D01*
X486531Y280000D01*
X486406Y281274D01*
X486034Y282500D01*
X485431Y283629D01*
X484618Y284618D01*
X484458Y284750D01*
Y285250D01*
X484618Y285382D01*
X485431Y286371D01*
X486034Y287501D01*
X486406Y288726D01*
X486531Y290000D01*
X486406Y291274D01*
X486034Y292499D01*
X485431Y293629D01*
X484618Y294618D01*
X484458Y294750D01*
Y295250D01*
X484618Y295382D01*
X485431Y296371D01*
X486034Y297500D01*
X486406Y298726D01*
X486531Y300000D01*
X486406Y301274D01*
X486034Y302500D01*
X485431Y303629D01*
X484618Y304618D01*
X484458Y304750D01*
Y305250D01*
X484618Y305382D01*
X485431Y306371D01*
X486034Y307501D01*
X486406Y308726D01*
X486531Y310000D01*
X486406Y311274D01*
X486034Y312499D01*
X485431Y313629D01*
X484618Y314618D01*
X484458Y314750D01*
Y315250D01*
X484618Y315382D01*
X485431Y316371D01*
X486034Y317500D01*
X486406Y318726D01*
X486531Y320000D01*
X486406Y321274D01*
X486034Y322499D01*
X485431Y323629D01*
X484618Y324618D01*
X484458Y324750D01*
Y325250D01*
X484618Y325382D01*
X485431Y326371D01*
X486034Y327501D01*
X486406Y328726D01*
X486531Y330000D01*
X486406Y331274D01*
X486034Y332500D01*
X485431Y333629D01*
X484618Y334618D01*
X484458Y334750D01*
Y335250D01*
X484618Y335382D01*
X485431Y336371D01*
X486034Y337501D01*
X486406Y338726D01*
X486531Y340000D01*
X486406Y341274D01*
X486034Y342499D01*
X485431Y343629D01*
X484618Y344618D01*
X484458Y344750D01*
Y345250D01*
X484618Y345382D01*
X485431Y346371D01*
X486034Y347500D01*
X486406Y348726D01*
X486531Y350000D01*
X486406Y351274D01*
X486034Y352500D01*
X485431Y353629D01*
X484618Y354618D01*
X484458Y354750D01*
Y355250D01*
X484618Y355382D01*
X485431Y356371D01*
X486034Y357501D01*
X486406Y358726D01*
X486531Y360000D01*
X486406Y361274D01*
X486034Y362499D01*
X485431Y363629D01*
X484618Y364618D01*
X484458Y364750D01*
Y365250D01*
X484618Y365382D01*
X485431Y366371D01*
X486034Y367500D01*
X486406Y368726D01*
X486531Y370000D01*
X486406Y371274D01*
X486034Y372499D01*
X485431Y373629D01*
X484618Y374618D01*
X484458Y374750D01*
Y375250D01*
X484618Y375382D01*
X485431Y376371D01*
X486034Y377501D01*
X486406Y378726D01*
X486531Y380000D01*
X486406Y381274D01*
X486034Y382500D01*
X485431Y383629D01*
X484618Y384618D01*
X484458Y384750D01*
Y385250D01*
X484618Y385382D01*
X485431Y386371D01*
X486034Y387501D01*
X486406Y388726D01*
X486531Y390000D01*
X486406Y391274D01*
X486034Y392499D01*
X485431Y393629D01*
X484618Y394618D01*
X484458Y394750D01*
Y395250D01*
X484618Y395382D01*
X485431Y396371D01*
X486034Y397500D01*
X486406Y398726D01*
X486531Y400000D01*
X486406Y401274D01*
X486034Y402499D01*
X485431Y403629D01*
X484618Y404618D01*
X484458Y404750D01*
Y405250D01*
X484618Y405382D01*
X485431Y406371D01*
X486034Y407501D01*
X486406Y408726D01*
X486531Y410000D01*
X486406Y411274D01*
X486034Y412500D01*
X485431Y413629D01*
X484618Y414618D01*
X484458Y414750D01*
Y415250D01*
X484618Y415382D01*
X485431Y416371D01*
X486034Y417500D01*
X486406Y418726D01*
X486531Y420000D01*
X486406Y421274D01*
X486034Y422500D01*
X485431Y423629D01*
X484618Y424618D01*
X484458Y424750D01*
Y425250D01*
X484618Y425382D01*
X485431Y426371D01*
X486034Y427500D01*
X486406Y428726D01*
X486531Y430000D01*
X486406Y431274D01*
X486034Y432500D01*
X485431Y433629D01*
X484618Y434618D01*
X484458Y434750D01*
Y435250D01*
X484618Y435382D01*
X485431Y436371D01*
X486034Y437500D01*
X486406Y438726D01*
X486531Y440000D01*
X486406Y441274D01*
X486034Y442499D01*
X485431Y443629D01*
X484618Y444618D01*
X484458Y444750D01*
Y445250D01*
X484618Y445382D01*
X485431Y446371D01*
X486034Y447501D01*
X486406Y448726D01*
X486531Y450000D01*
X486406Y451274D01*
X486034Y452499D01*
X485431Y453629D01*
X484618Y454618D01*
X483629Y455431D01*
X482500Y456034D01*
X481274Y456406D01*
X480000Y456531D01*
X478726Y456406D01*
X478127Y456224D01*
X477921Y456684D01*
X479134Y457428D01*
X480989Y459012D01*
X482572Y460866D01*
X483846Y462945D01*
X484779Y465198D01*
X485349Y467569D01*
X485540Y470000D01*
X485349Y472431D01*
X484779Y474802D01*
X483846Y477055D01*
X482572Y479134D01*
X480989Y480989D01*
X479134Y482572D01*
X477055Y483846D01*
X474802Y484779D01*
X472431Y485349D01*
X470000Y485540D01*
X467569Y485349D01*
X465198Y484779D01*
X462945Y483846D01*
X460866Y482572D01*
X459012Y480989D01*
X457428Y479134D01*
X456684Y477921D01*
X456224Y478127D01*
X456406Y478726D01*
X456531Y480000D01*
X456406Y481274D01*
X456034Y482500D01*
X455431Y483629D01*
X454618Y484618D01*
X453629Y485431D01*
X452499Y486034D01*
X451274Y486406D01*
X450000Y486531D01*
D02*
G37*
G36*
X170000D02*
X168726Y486406D01*
X167500Y486034D01*
X166371Y485431D01*
X165382Y484618D01*
X164569Y483629D01*
X163966Y482500D01*
X163594Y481274D01*
X163469Y480000D01*
X163594Y478726D01*
X163966Y477500D01*
X164569Y476371D01*
X165382Y475382D01*
X166371Y474569D01*
X167500Y473966D01*
X168726Y473594D01*
X170000Y473468D01*
X171274Y473594D01*
X172500Y473966D01*
X173629Y474569D01*
X174618Y475382D01*
X175431Y476371D01*
X176034Y477500D01*
X176406Y478726D01*
X176531Y480000D01*
X176406Y481274D01*
X176034Y482500D01*
X175431Y483629D01*
X174618Y484618D01*
X173629Y485431D01*
X172500Y486034D01*
X171274Y486406D01*
X170000Y486531D01*
D02*
G37*
G36*
X150000D02*
X148726Y486406D01*
X147501Y486034D01*
X146371Y485431D01*
X145382Y484618D01*
X144569Y483629D01*
X143966Y482500D01*
X143594Y481274D01*
X143469Y480000D01*
X143594Y478726D01*
X143966Y477500D01*
X144569Y476371D01*
X145382Y475382D01*
X146371Y474569D01*
X147501Y473966D01*
X148726Y473594D01*
X150000Y473468D01*
X151274Y473594D01*
X152499Y473966D01*
X153629Y474569D01*
X154618Y475382D01*
X155431Y476371D01*
X156034Y477500D01*
X156406Y478726D01*
X156531Y480000D01*
X156406Y481274D01*
X156034Y482500D01*
X155431Y483629D01*
X154618Y484618D01*
X153629Y485431D01*
X152499Y486034D01*
X151274Y486406D01*
X150000Y486531D01*
D02*
G37*
G36*
X180492Y364176D02*
X179508D01*
X178470Y364039D01*
X177503Y363639D01*
X176672Y363001D01*
X176034Y362171D01*
X175634Y361203D01*
X175497Y360165D01*
X175634Y359127D01*
X176034Y358160D01*
X176157Y358000D01*
X176034Y357840D01*
X175634Y356873D01*
X175497Y355835D01*
X175634Y354797D01*
X176034Y353829D01*
X176672Y352999D01*
X177503Y352361D01*
X178470Y351961D01*
X179508Y351824D01*
X180492D01*
X181530Y351961D01*
X182498Y352361D01*
X183328Y352999D01*
X183966Y353829D01*
X184366Y354797D01*
X184503Y355835D01*
X184366Y356873D01*
X183966Y357840D01*
X183843Y358000D01*
X183966Y358160D01*
X184366Y359127D01*
X184503Y360165D01*
X184366Y361203D01*
X183966Y362171D01*
X183328Y363001D01*
X182498Y363639D01*
X181530Y364039D01*
X180492Y364176D01*
D02*
G37*
G36*
X180000Y339510D02*
X178731Y339343D01*
X177548Y338854D01*
X176532Y338074D01*
X175753Y337058D01*
X175263Y335876D01*
X175096Y334606D01*
X175263Y333337D01*
X175753Y332154D01*
X176532Y331139D01*
X177548Y330359D01*
X178731Y329869D01*
X180000Y329702D01*
X181269Y329869D01*
X182452Y330359D01*
X183468Y331139D01*
X184247Y332154D01*
X184737Y333337D01*
X184904Y334606D01*
X184737Y335876D01*
X184247Y337058D01*
X183468Y338074D01*
X182452Y338854D01*
X181269Y339343D01*
X180000Y339510D01*
D02*
G37*
G36*
X184862Y320256D02*
X175138D01*
Y310532D01*
X184862D01*
Y320256D01*
D02*
G37*
G36*
X160000Y402529D02*
X159415Y402413D01*
X158919Y402081D01*
X158587Y401585D01*
X158471Y401000D01*
X158587Y400415D01*
X158919Y399919D01*
X166379Y392458D01*
X166188Y391996D01*
X158941D01*
Y381878D01*
X169059D01*
Y389125D01*
X169521Y389316D01*
X172919Y385919D01*
X173415Y385587D01*
X174000Y385471D01*
X181654D01*
X181846Y385009D01*
X177429Y380592D01*
X164000D01*
X163415Y380476D01*
X162919Y380144D01*
X162587Y379648D01*
X162471Y379063D01*
X162587Y378478D01*
X162919Y377982D01*
X163415Y377650D01*
X164000Y377534D01*
X178063D01*
X178648Y377650D01*
X179144Y377982D01*
X187081Y385919D01*
X187413Y386415D01*
X187529Y387000D01*
X187413Y387585D01*
X187081Y388081D01*
X186585Y388413D01*
X186000Y388529D01*
X174634D01*
X161081Y402081D01*
X160585Y402413D01*
X160000Y402529D01*
D02*
G37*
G36*
X140000Y376531D02*
X138726Y376406D01*
X137501Y376034D01*
X136371Y375431D01*
X135382Y374618D01*
X135250Y374458D01*
X134750D01*
X134618Y374618D01*
X133629Y375431D01*
X132500Y376034D01*
X131274Y376406D01*
X130000Y376531D01*
X128726Y376406D01*
X127500Y376034D01*
X126371Y375431D01*
X125382Y374618D01*
X125250Y374458D01*
X124750D01*
X124618Y374618D01*
X123629Y375431D01*
X122500Y376034D01*
X121274Y376406D01*
X120000Y376531D01*
X118726Y376406D01*
X117500Y376034D01*
X116371Y375431D01*
X115382Y374618D01*
X115250Y374458D01*
X114750D01*
X114618Y374618D01*
X113629Y375431D01*
X112499Y376034D01*
X111274Y376406D01*
X110000Y376531D01*
X108726Y376406D01*
X107501Y376034D01*
X106371Y375431D01*
X105382Y374618D01*
X104569Y373629D01*
X103966Y372499D01*
X103594Y371274D01*
X103469Y370000D01*
X103594Y368726D01*
X103966Y367500D01*
X104569Y366371D01*
X105382Y365382D01*
X105542Y365250D01*
Y364750D01*
X105382Y364618D01*
X104569Y363629D01*
X103966Y362499D01*
X103594Y361274D01*
X103469Y360000D01*
X103594Y358726D01*
X103966Y357501D01*
X104569Y356371D01*
X105382Y355382D01*
X105542Y355250D01*
Y354750D01*
X105382Y354618D01*
X104569Y353629D01*
X103966Y352500D01*
X103594Y351274D01*
X103469Y350000D01*
X103594Y348726D01*
X103966Y347500D01*
X104569Y346371D01*
X105382Y345382D01*
X105542Y345250D01*
Y344750D01*
X105382Y344618D01*
X104569Y343629D01*
X103966Y342499D01*
X103594Y341274D01*
X103469Y340000D01*
X103594Y338726D01*
X103966Y337501D01*
X104569Y336371D01*
X105382Y335382D01*
X105542Y335250D01*
Y334750D01*
X105382Y334618D01*
X104569Y333629D01*
X103966Y332500D01*
X103594Y331274D01*
X103469Y330000D01*
X103594Y328726D01*
X103966Y327501D01*
X104569Y326371D01*
X105382Y325382D01*
X106371Y324569D01*
X107501Y323966D01*
X108726Y323594D01*
X110000Y323469D01*
X111274Y323594D01*
X112499Y323966D01*
X113629Y324569D01*
X114618Y325382D01*
X114750Y325542D01*
X115250D01*
X115382Y325382D01*
X116371Y324569D01*
X117500Y323966D01*
X118726Y323594D01*
X120000Y323469D01*
X121274Y323594D01*
X122500Y323966D01*
X123629Y324569D01*
X124618Y325382D01*
X124750Y325542D01*
X125250D01*
X125382Y325382D01*
X126371Y324569D01*
X127500Y323966D01*
X128726Y323594D01*
X130000Y323469D01*
X131274Y323594D01*
X132500Y323966D01*
X133629Y324569D01*
X134618Y325382D01*
X134750Y325542D01*
X135250D01*
X135382Y325382D01*
X136371Y324569D01*
X137501Y323966D01*
X138726Y323594D01*
X140000Y323469D01*
X141274Y323594D01*
X142499Y323966D01*
X143629Y324569D01*
X144618Y325382D01*
X145431Y326371D01*
X146034Y327501D01*
X146406Y328726D01*
X146531Y330000D01*
X146406Y331274D01*
X146034Y332500D01*
X145431Y333629D01*
X144618Y334618D01*
X144458Y334750D01*
Y335250D01*
X144618Y335382D01*
X145431Y336371D01*
X146034Y337501D01*
X146406Y338726D01*
X146531Y340000D01*
X146406Y341274D01*
X146034Y342499D01*
X145431Y343629D01*
X144618Y344618D01*
X144458Y344750D01*
Y345250D01*
X144618Y345382D01*
X145431Y346371D01*
X146034Y347500D01*
X146406Y348726D01*
X146531Y350000D01*
X146406Y351274D01*
X146034Y352500D01*
X145431Y353629D01*
X144618Y354618D01*
X144458Y354750D01*
Y355250D01*
X144618Y355382D01*
X145431Y356371D01*
X146034Y357501D01*
X146406Y358726D01*
X146531Y360000D01*
X146406Y361274D01*
X146034Y362499D01*
X145431Y363629D01*
X144618Y364618D01*
X144458Y364750D01*
Y365250D01*
X144618Y365382D01*
X145431Y366371D01*
X146034Y367500D01*
X146406Y368726D01*
X146531Y370000D01*
X146406Y371274D01*
X146034Y372499D01*
X145431Y373629D01*
X144618Y374618D01*
X143629Y375431D01*
X142499Y376034D01*
X141274Y376406D01*
X140000Y376531D01*
D02*
G37*
G36*
X370000D02*
X368726Y376406D01*
X367500Y376034D01*
X366371Y375431D01*
X365382Y374618D01*
X364569Y373629D01*
X363966Y372499D01*
X363594Y371274D01*
X363469Y370000D01*
X363594Y368726D01*
X363966Y367500D01*
X364569Y366371D01*
X365382Y365382D01*
X366371Y364569D01*
X367500Y363966D01*
X368726Y363594D01*
X370000Y363469D01*
X371274Y363594D01*
X372499Y363966D01*
X373629Y364569D01*
X374618Y365382D01*
X375431Y366371D01*
X376034Y367500D01*
X376406Y368726D01*
X376531Y370000D01*
X376406Y371274D01*
X376034Y372499D01*
X375431Y373629D01*
X374618Y374618D01*
X373629Y375431D01*
X372499Y376034D01*
X371274Y376406D01*
X370000Y376531D01*
D02*
G37*
%LPD*%
D25*
X174000Y387000D02*
X186000D01*
X160000Y401000D02*
X174000Y387000D01*
X178063Y379063D02*
X186000Y387000D01*
X164000Y379063D02*
X178063D01*
X353000Y205000D02*
Y217000D01*
X284000Y323000D02*
X290000Y317000D01*
Y314000D02*
Y317000D01*
X284000Y308000D02*
X290000Y314000D01*
X277000Y316000D02*
X284000Y323000D01*
X280000Y308000D02*
X284000D01*
X360115Y142500D02*
X360123Y142492D01*
X360106Y152492D02*
X378106D01*
X407106Y157492D02*
X409615Y160000D01*
X420000D01*
X360106Y162492D02*
X378106D01*
X385614Y170000D01*
X420000D01*
X413615Y140000D02*
X420000D01*
X411115Y137500D02*
X413615Y140000D01*
X410614Y150000D02*
X420000D01*
X378106Y152492D02*
X383106Y157492D01*
X407106D01*
X403106Y142492D02*
X410614Y150000D01*
X401098Y137500D02*
X411115D01*
X360123Y142492D02*
X403106D01*
X405615Y130000D02*
X420000D01*
X400106Y124492D02*
X405615Y130000D01*
X382106Y124492D02*
X400106D01*
X370000Y350000D02*
X370000Y350000D01*
X367000Y350000D02*
X370000D01*
X313000Y451000D02*
X356000D01*
X310000Y448000D02*
X313000Y451000D01*
X310000Y440000D02*
Y448000D01*
X340000Y400000D02*
Y409000D01*
X334000Y415000D02*
X340000Y409000D01*
X321000Y415000D02*
X334000D01*
X315000Y421000D02*
X321000Y415000D01*
X315000Y421000D02*
Y435000D01*
X320000Y440000D01*
X230000Y400000D02*
X260000Y430000D01*
X310000D01*
X162000Y300000D02*
X200000D01*
X156000Y306000D02*
X162000Y300000D01*
X135000Y438000D02*
Y453000D01*
X356000Y451000D02*
X360000Y447000D01*
Y357000D02*
X367000Y350000D01*
X360000Y357000D02*
Y447000D01*
X247000Y310000D02*
X317000Y380000D01*
X341000D01*
X356000Y395000D01*
Y434000D01*
X350000Y440000D02*
X356000Y434000D01*
D26*
X191000Y451000D02*
Y479000D01*
X190000Y480000D02*
X191000Y479000D01*
X170000Y480000D02*
X171000D01*
X150000Y418000D02*
X183000Y451000D01*
X191000D01*
X340000Y230000D02*
X353000Y217000D01*
X370000Y200000D01*
X380000D01*
X390000D01*
X400000D01*
X410000D01*
X420000D01*
X430000D01*
X440000D01*
X450000D01*
X460000D01*
X470000D01*
X480000D01*
D28*
X164000Y379063D02*
D03*
D29*
Y386937D02*
D03*
D30*
X150000Y480000D02*
D03*
Y110000D02*
D03*
X230000D02*
D03*
Y120000D02*
D03*
X180000D02*
D03*
X170000D02*
D03*
X230000Y220000D02*
D03*
X220000D02*
D03*
X210000D02*
D03*
X200000D02*
D03*
X190000D02*
D03*
X180000D02*
D03*
X170000D02*
D03*
X220000Y110000D02*
D03*
Y120000D02*
D03*
X210000Y110000D02*
D03*
Y120000D02*
D03*
X200000Y110000D02*
D03*
Y120000D02*
D03*
X190000Y110000D02*
D03*
Y120000D02*
D03*
X180000Y110000D02*
D03*
X170000D02*
D03*
X320000Y120000D02*
D03*
Y130000D02*
D03*
Y140000D02*
D03*
Y150000D02*
D03*
Y160000D02*
D03*
Y170000D02*
D03*
X420000Y120000D02*
D03*
Y130000D02*
D03*
Y140000D02*
D03*
Y150000D02*
D03*
Y160000D02*
D03*
Y170000D02*
D03*
X200000Y310000D02*
D03*
X340000Y230000D02*
D03*
X260000D02*
D03*
X240000D02*
D03*
X230000D02*
D03*
X370000Y290000D02*
D03*
X200000Y260000D02*
D03*
Y270000D02*
D03*
Y320000D02*
D03*
Y330000D02*
D03*
Y340000D02*
D03*
Y360000D02*
D03*
X240000Y400000D02*
D03*
X270000D02*
D03*
X370000Y260000D02*
D03*
X370000Y270000D02*
D03*
Y280000D02*
D03*
X200000Y350000D02*
D03*
X370000Y300000D02*
D03*
X310000Y400000D02*
D03*
X370000Y310000D02*
D03*
X370000Y320000D02*
D03*
X370000Y330000D02*
D03*
Y340000D02*
D03*
X370000Y350000D02*
D03*
X340000Y400000D02*
D03*
X330000D02*
D03*
X320000Y400000D02*
D03*
X300000D02*
D03*
X290000Y400000D02*
D03*
X280000Y400000D02*
D03*
X260000D02*
D03*
X250000Y400000D02*
D03*
X370000Y360000D02*
D03*
X320016Y230000D02*
D03*
X310000D02*
D03*
X300000D02*
D03*
X290000D02*
D03*
X280000D02*
D03*
X270000D02*
D03*
X230000Y400000D02*
D03*
X250000Y230000D02*
D03*
X200000Y370000D02*
D03*
Y290000D02*
D03*
X330000Y230000D02*
D03*
X370000Y370000D02*
D03*
X200000Y300000D02*
D03*
Y280000D02*
D03*
X190000Y480000D02*
D03*
X170000D02*
D03*
X390000Y430000D02*
D03*
X400000D02*
D03*
X420000D02*
D03*
X410000D02*
D03*
X450000D02*
D03*
X440000D02*
D03*
X430000D02*
D03*
X460000D02*
D03*
X480000D02*
D03*
X470000D02*
D03*
Y420000D02*
D03*
X480000D02*
D03*
X460000D02*
D03*
X430000D02*
D03*
X440000D02*
D03*
X450000D02*
D03*
X410000D02*
D03*
X420000D02*
D03*
X400000D02*
D03*
X390000D02*
D03*
Y400000D02*
D03*
X400000D02*
D03*
X420000D02*
D03*
X410000D02*
D03*
X450000D02*
D03*
X440000D02*
D03*
X430000D02*
D03*
X460000D02*
D03*
X480000D02*
D03*
X470000D02*
D03*
Y410000D02*
D03*
X480000D02*
D03*
X460000D02*
D03*
X430000D02*
D03*
X440000D02*
D03*
X450000D02*
D03*
X410000D02*
D03*
X420000D02*
D03*
X400000D02*
D03*
X390000D02*
D03*
Y380000D02*
D03*
X400000D02*
D03*
X420000D02*
D03*
X410000D02*
D03*
X450000D02*
D03*
X440000D02*
D03*
X430000D02*
D03*
X460000D02*
D03*
X480000D02*
D03*
X470000D02*
D03*
Y390000D02*
D03*
X480000D02*
D03*
X460000D02*
D03*
X430000D02*
D03*
X440000D02*
D03*
X450000D02*
D03*
X410000D02*
D03*
X420000D02*
D03*
X400000D02*
D03*
X390000D02*
D03*
Y360000D02*
D03*
X400000D02*
D03*
X420000D02*
D03*
X410000D02*
D03*
X450000D02*
D03*
X440000D02*
D03*
X430000D02*
D03*
X460000D02*
D03*
X480000D02*
D03*
X470000D02*
D03*
Y370000D02*
D03*
X480000D02*
D03*
X460000D02*
D03*
X430000D02*
D03*
X440000D02*
D03*
X450000D02*
D03*
X410000D02*
D03*
X420000D02*
D03*
X400000D02*
D03*
X390000D02*
D03*
Y340000D02*
D03*
X400000D02*
D03*
X420000D02*
D03*
X410000D02*
D03*
X450000D02*
D03*
X440000D02*
D03*
X430000D02*
D03*
X460000D02*
D03*
X480000D02*
D03*
X470000D02*
D03*
Y350000D02*
D03*
X480000D02*
D03*
X460000D02*
D03*
X430000D02*
D03*
X440000D02*
D03*
X450000D02*
D03*
X410000D02*
D03*
X420000D02*
D03*
X400000D02*
D03*
X390000D02*
D03*
Y440000D02*
D03*
X400000D02*
D03*
X420000D02*
D03*
X410000D02*
D03*
X450000D02*
D03*
X440000D02*
D03*
X430000D02*
D03*
X460000D02*
D03*
X480000D02*
D03*
X470000D02*
D03*
Y450000D02*
D03*
X480000D02*
D03*
X460000D02*
D03*
X430000D02*
D03*
X440000D02*
D03*
X450000D02*
D03*
X410000D02*
D03*
X420000D02*
D03*
X400000D02*
D03*
X390000D02*
D03*
Y270000D02*
D03*
X400000D02*
D03*
X420000D02*
D03*
X410000D02*
D03*
X450000D02*
D03*
X440000D02*
D03*
X430000D02*
D03*
X460000D02*
D03*
X480000D02*
D03*
X470000D02*
D03*
Y260000D02*
D03*
X480000D02*
D03*
X460000D02*
D03*
X430000D02*
D03*
X440000D02*
D03*
X450000D02*
D03*
X410000D02*
D03*
X420000D02*
D03*
X400000D02*
D03*
X390000D02*
D03*
Y290000D02*
D03*
X400000D02*
D03*
X420000D02*
D03*
X410000D02*
D03*
X450000D02*
D03*
X440000D02*
D03*
X430000D02*
D03*
X460000D02*
D03*
X480000D02*
D03*
X470000D02*
D03*
Y280000D02*
D03*
X480000D02*
D03*
X460000D02*
D03*
X430000D02*
D03*
X440000D02*
D03*
X450000D02*
D03*
X410000D02*
D03*
X420000D02*
D03*
X400000D02*
D03*
X390000D02*
D03*
Y310000D02*
D03*
X400000D02*
D03*
X420000D02*
D03*
X410000D02*
D03*
X450000D02*
D03*
X440000D02*
D03*
X430000D02*
D03*
X460000D02*
D03*
X480000D02*
D03*
X470000D02*
D03*
Y300000D02*
D03*
X480000D02*
D03*
X460000D02*
D03*
X430000D02*
D03*
X440000D02*
D03*
X450000D02*
D03*
X410000D02*
D03*
X420000D02*
D03*
X400000D02*
D03*
X390000D02*
D03*
Y330000D02*
D03*
X400000D02*
D03*
X420000D02*
D03*
X410000D02*
D03*
X450000D02*
D03*
X440000D02*
D03*
X430000D02*
D03*
X460000D02*
D03*
X480000D02*
D03*
X470000D02*
D03*
Y320000D02*
D03*
X480000D02*
D03*
X460000D02*
D03*
X430000D02*
D03*
X440000D02*
D03*
X450000D02*
D03*
X410000D02*
D03*
X420000D02*
D03*
X400000D02*
D03*
X390000D02*
D03*
Y240000D02*
D03*
X400000D02*
D03*
X420000D02*
D03*
X410000D02*
D03*
X450000D02*
D03*
X440000D02*
D03*
X430000D02*
D03*
X460000D02*
D03*
X480000D02*
D03*
X470000D02*
D03*
Y250000D02*
D03*
X480000D02*
D03*
X460000D02*
D03*
X430000D02*
D03*
X440000D02*
D03*
X450000D02*
D03*
X410000D02*
D03*
X420000D02*
D03*
X400000D02*
D03*
X390000D02*
D03*
Y220000D02*
D03*
X400000D02*
D03*
X420000D02*
D03*
X410000D02*
D03*
X450000D02*
D03*
X440000D02*
D03*
X430000D02*
D03*
X460000D02*
D03*
X480000D02*
D03*
X470000D02*
D03*
Y230000D02*
D03*
X480000D02*
D03*
X460000D02*
D03*
X430000D02*
D03*
X440000D02*
D03*
X450000D02*
D03*
X410000D02*
D03*
X420000D02*
D03*
X400000D02*
D03*
X390000D02*
D03*
Y200000D02*
D03*
X400000D02*
D03*
X420000D02*
D03*
X410000D02*
D03*
X450000D02*
D03*
X440000D02*
D03*
X430000D02*
D03*
X460000D02*
D03*
X480000D02*
D03*
X470000D02*
D03*
Y190000D02*
D03*
X480000D02*
D03*
X460000D02*
D03*
X430000D02*
D03*
X440000D02*
D03*
X450000D02*
D03*
X410000D02*
D03*
X420000D02*
D03*
X400000D02*
D03*
X390000D02*
D03*
X470000Y210000D02*
D03*
X480000D02*
D03*
X460000D02*
D03*
X430000D02*
D03*
X440000D02*
D03*
X450000D02*
D03*
X410000D02*
D03*
X420000D02*
D03*
X400000D02*
D03*
X390000D02*
D03*
X380000D02*
D03*
Y190000D02*
D03*
Y200000D02*
D03*
Y230000D02*
D03*
Y220000D02*
D03*
Y250000D02*
D03*
Y240000D02*
D03*
Y320000D02*
D03*
Y330000D02*
D03*
Y300000D02*
D03*
Y310000D02*
D03*
Y280000D02*
D03*
Y290000D02*
D03*
Y260000D02*
D03*
Y270000D02*
D03*
Y350000D02*
D03*
Y340000D02*
D03*
X390000Y480000D02*
D03*
X400000D02*
D03*
X420000D02*
D03*
X410000D02*
D03*
X450000D02*
D03*
X440000D02*
D03*
X430000D02*
D03*
Y470000D02*
D03*
X440000D02*
D03*
X450000D02*
D03*
X410000D02*
D03*
X420000D02*
D03*
X400000D02*
D03*
X390000D02*
D03*
X430000Y460000D02*
D03*
X440000D02*
D03*
X450000D02*
D03*
X410000D02*
D03*
X420000D02*
D03*
X400000D02*
D03*
X390000D02*
D03*
X460000Y150000D02*
D03*
X480000D02*
D03*
X470000D02*
D03*
Y140000D02*
D03*
X480000D02*
D03*
X460000D02*
D03*
Y170000D02*
D03*
X480000D02*
D03*
X470000D02*
D03*
Y160000D02*
D03*
X480000D02*
D03*
X460000D02*
D03*
X470000Y180000D02*
D03*
X480000D02*
D03*
X460000D02*
D03*
X320000Y470000D02*
D03*
X330000D02*
D03*
X350000D02*
D03*
X340000D02*
D03*
X380000D02*
D03*
X370000D02*
D03*
X360000D02*
D03*
Y480000D02*
D03*
X370000D02*
D03*
X380000D02*
D03*
X340000D02*
D03*
X350000D02*
D03*
X330000D02*
D03*
X320000D02*
D03*
X250000Y470000D02*
D03*
X260000D02*
D03*
X280000D02*
D03*
X270000D02*
D03*
X310000D02*
D03*
X300000D02*
D03*
X290000D02*
D03*
Y480000D02*
D03*
X300000D02*
D03*
X310000D02*
D03*
X270000D02*
D03*
X280000D02*
D03*
X260000D02*
D03*
X250000D02*
D03*
X230000Y450000D02*
D03*
X250000D02*
D03*
X240000D02*
D03*
X280000D02*
D03*
X270000D02*
D03*
X260000D02*
D03*
Y460000D02*
D03*
X270000D02*
D03*
X280000D02*
D03*
X240000D02*
D03*
X250000D02*
D03*
X230000D02*
D03*
Y480000D02*
D03*
X240000D02*
D03*
Y470000D02*
D03*
X230000D02*
D03*
X260000Y440000D02*
D03*
X270000D02*
D03*
X240000D02*
D03*
X250000D02*
D03*
X230000D02*
D03*
X380000Y460000D02*
D03*
Y450000D02*
D03*
Y420000D02*
D03*
Y430000D02*
D03*
Y440000D02*
D03*
Y410000D02*
D03*
X370000Y240000D02*
D03*
Y250000D02*
D03*
Y220000D02*
D03*
Y230000D02*
D03*
X360000Y240000D02*
D03*
Y250000D02*
D03*
Y230000D02*
D03*
X120000Y150000D02*
D03*
X110000D02*
D03*
X130000D02*
D03*
X150000D02*
D03*
X140000D02*
D03*
X120000Y170000D02*
D03*
X110000D02*
D03*
X130000D02*
D03*
X150000D02*
D03*
X140000D02*
D03*
Y160000D02*
D03*
X150000D02*
D03*
X130000D02*
D03*
X110000D02*
D03*
X120000D02*
D03*
Y240000D02*
D03*
X110000D02*
D03*
X130000D02*
D03*
X150000D02*
D03*
X140000D02*
D03*
X120000Y220000D02*
D03*
X110000D02*
D03*
X130000D02*
D03*
X150000D02*
D03*
X140000D02*
D03*
Y230000D02*
D03*
X150000D02*
D03*
X130000D02*
D03*
X110000D02*
D03*
X120000D02*
D03*
Y200000D02*
D03*
X110000D02*
D03*
X130000D02*
D03*
X150000D02*
D03*
X140000D02*
D03*
Y210000D02*
D03*
X150000D02*
D03*
X130000D02*
D03*
X110000D02*
D03*
X120000D02*
D03*
Y180000D02*
D03*
X110000D02*
D03*
X130000D02*
D03*
X150000D02*
D03*
X140000D02*
D03*
Y190000D02*
D03*
X150000D02*
D03*
X130000D02*
D03*
X110000D02*
D03*
X120000D02*
D03*
X110000Y360000D02*
D03*
X120000D02*
D03*
X140000D02*
D03*
X130000D02*
D03*
Y350000D02*
D03*
X140000D02*
D03*
X120000D02*
D03*
X110000D02*
D03*
X130000Y370000D02*
D03*
X140000D02*
D03*
X120000D02*
D03*
X110000D02*
D03*
Y330000D02*
D03*
X120000D02*
D03*
X140000D02*
D03*
X130000D02*
D03*
Y340000D02*
D03*
X140000D02*
D03*
X120000D02*
D03*
X110000D02*
D03*
D31*
X470000Y470000D02*
D03*
Y120000D02*
D03*
X120000D02*
D03*
Y470000D02*
D03*
D32*
X350000Y440000D02*
D03*
Y430000D02*
D03*
X340000Y440000D02*
D03*
Y430000D02*
D03*
X310000Y440000D02*
D03*
X320000Y430000D02*
D03*
Y440000D02*
D03*
X330000Y430000D02*
D03*
Y440000D02*
D03*
D33*
X310000Y430000D02*
D03*
D34*
X180000Y315394D02*
D03*
D35*
X180000Y334606D02*
D03*
D36*
X180000Y360165D02*
D03*
Y355835D02*
D03*
D37*
X135000Y438000D02*
D03*
X160000Y401000D02*
D03*
X186000Y387000D02*
D03*
X353000Y205000D02*
D03*
X277000Y316000D02*
D03*
X284000Y323000D02*
D03*
X280000Y308000D02*
D03*
X290000Y314000D02*
D03*
X401098Y137500D02*
D03*
X360115Y142500D02*
D03*
X360106Y152492D02*
D03*
Y162492D02*
D03*
X382106Y124492D02*
D03*
X156000Y306000D02*
D03*
X135000Y453000D02*
D03*
X191000Y451000D02*
D03*
X150000Y418000D02*
D03*
X247000Y310000D02*
D03*
M02*
