G04 Layer_Color=15132400*
%FSLAX25Y25*%
%MOIN*%
G70*
G01*
G75*
%ADD25C,0.01000*%
%ADD38C,0.00787*%
%ADD39C,0.00984*%
%ADD40C,0.02362*%
%ADD41C,0.00500*%
%ADD42C,0.00394*%
%ADD43C,0.00591*%
G36*
X313000Y417000D02*
X307000D01*
X310000Y422000D01*
X313000Y417000D01*
D02*
G37*
D25*
X186299Y358000D02*
G03*
X186299Y358000I-6299J0D01*
G01*
X339000Y417000D02*
Y420000D01*
X321000D02*
X339000D01*
X321000Y417000D02*
Y420000D01*
X289500Y417000D02*
X327500D01*
X289500D02*
Y454500D01*
X370000D01*
Y417000D02*
Y454500D01*
X321000Y417000D02*
X370000D01*
X192000Y378999D02*
Y375000D01*
X188001Y378999D01*
X187002D01*
X186002Y377999D01*
Y376000D01*
X187002Y375000D01*
X192000Y384997D02*
Y380998D01*
X188001Y384997D01*
X187002D01*
X186002Y383997D01*
Y381998D01*
X187002Y380998D01*
X192000Y386996D02*
X186002D01*
X190001D02*
X188001Y389995D01*
X190001Y386996D02*
X192000Y389995D01*
X144000Y115000D02*
Y120998D01*
X146999D01*
X147999Y119998D01*
Y117999D01*
X146999Y116999D01*
X144000D01*
X149998Y118999D02*
Y116000D01*
X150998Y115000D01*
X151997Y116000D01*
X152997Y115000D01*
X153997Y116000D01*
Y118999D01*
X155996D02*
Y115000D01*
Y116999D01*
X156996Y117999D01*
X157995Y118999D01*
X158995D01*
X166502Y197500D02*
Y199499D01*
Y198500D01*
X172500D01*
Y197500D01*
Y199499D01*
Y202498D02*
X168501D01*
Y205497D01*
X169501Y206497D01*
X172500D01*
X166502Y208496D02*
Y212495D01*
X167502D01*
X171500Y208496D01*
X172500D01*
X176502Y197500D02*
Y199499D01*
Y198500D01*
X182500D01*
Y197500D01*
Y199499D01*
Y202498D02*
X178501D01*
Y205497D01*
X179501Y206497D01*
X182500D01*
X176502Y212495D02*
X177502Y210496D01*
X179501Y208496D01*
X181500D01*
X182500Y209496D01*
Y211495D01*
X181500Y212495D01*
X180501D01*
X179501Y211495D01*
Y208496D01*
X186502Y197500D02*
Y199499D01*
Y198500D01*
X192500D01*
Y197500D01*
Y199499D01*
Y202498D02*
X188501D01*
Y205497D01*
X189501Y206497D01*
X192500D01*
X186502Y212495D02*
Y208496D01*
X189501D01*
X188501Y210496D01*
Y211495D01*
X189501Y212495D01*
X191500D01*
X192500Y211495D01*
Y209496D01*
X191500Y208496D01*
X196502Y197500D02*
Y199499D01*
Y198500D01*
X202500D01*
Y197500D01*
Y199499D01*
Y202498D02*
X198501D01*
Y205497D01*
X199501Y206497D01*
X202500D01*
Y211495D02*
X196502D01*
X199501Y208496D01*
Y212495D01*
X206502Y197500D02*
Y199499D01*
Y198500D01*
X212500D01*
Y197500D01*
Y199499D01*
Y202498D02*
X208501D01*
Y205497D01*
X209501Y206497D01*
X212500D01*
X207502Y208496D02*
X206502Y209496D01*
Y211495D01*
X207502Y212495D01*
X208501D01*
X209501Y211495D01*
Y210496D01*
Y211495D01*
X210501Y212495D01*
X211500D01*
X212500Y211495D01*
Y209496D01*
X211500Y208496D01*
X216502Y197500D02*
Y199499D01*
Y198500D01*
X222500D01*
Y197500D01*
Y199499D01*
Y202498D02*
X218501D01*
Y205497D01*
X219501Y206497D01*
X222500D01*
Y212495D02*
Y208496D01*
X218501Y212495D01*
X217502D01*
X216502Y211495D01*
Y209496D01*
X217502Y208496D01*
X242999Y115998D02*
X241000D01*
X240000Y114998D01*
Y111000D01*
X241000Y110000D01*
X242999D01*
X243999Y111000D01*
Y114998D01*
X242999Y115998D01*
X245998Y113999D02*
Y111000D01*
X246998Y110000D01*
X249997D01*
Y113999D01*
X252996Y114998D02*
Y113999D01*
X251996D01*
X253995D01*
X252996D01*
Y111000D01*
X253995Y110000D01*
X256995D02*
X258994D01*
X257994D01*
Y115998D01*
X256995Y114998D01*
X261993Y112999D02*
X265992D01*
X263992Y114998D02*
Y111000D01*
X242999Y125998D02*
X241000D01*
X240000Y124998D01*
Y121000D01*
X241000Y120000D01*
X242999D01*
X243999Y121000D01*
Y124998D01*
X242999Y125998D01*
X245998Y123999D02*
Y121000D01*
X246998Y120000D01*
X249997D01*
Y123999D01*
X252996Y124998D02*
Y123999D01*
X251996D01*
X253995D01*
X252996D01*
Y121000D01*
X253995Y120000D01*
X256995D02*
X258994D01*
X257994D01*
Y125998D01*
X256995Y124998D01*
X261993Y122999D02*
X265992D01*
X226502Y199499D02*
Y201499D01*
Y200499D01*
X232500D01*
Y199499D01*
Y201499D01*
Y204498D02*
X228501D01*
Y207497D01*
X229501Y208496D01*
X232500D01*
Y210496D02*
Y212495D01*
Y211495D01*
X226502D01*
X227502Y210496D01*
X174000Y140998D02*
Y136000D01*
X175000Y135000D01*
X176999D01*
X177999Y136000D01*
Y140998D01*
X179998D02*
Y135000D01*
X183997D01*
X185996D02*
Y140998D01*
X189995Y135000D01*
Y140998D01*
X195993Y135000D02*
X191994D01*
X195993Y138999D01*
Y139998D01*
X194993Y140998D01*
X192994D01*
X191994Y139998D01*
X197992D02*
X198992Y140998D01*
X200991D01*
X201991Y139998D01*
Y136000D01*
X200991Y135000D01*
X198992D01*
X197992Y136000D01*
Y139998D01*
X203990D02*
X204990Y140998D01*
X206989D01*
X207989Y139998D01*
Y136000D01*
X206989Y135000D01*
X204990D01*
X203990Y136000D01*
Y139998D01*
X209988D02*
X210988Y140998D01*
X212987D01*
X213987Y139998D01*
Y138999D01*
X212987Y137999D01*
X211988D01*
X212987D01*
X213987Y136999D01*
Y136000D01*
X212987Y135000D01*
X210988D01*
X209988Y136000D01*
X215986Y135000D02*
Y138999D01*
X217986Y140998D01*
X219985Y138999D01*
Y135000D01*
Y137999D01*
X215986D01*
X221985Y140998D02*
Y135000D01*
X224984D01*
X225983Y136000D01*
Y139998D01*
X224984Y140998D01*
X221985D01*
X327500Y123498D02*
X329499D01*
X328500D01*
Y117500D01*
X327500D01*
X329499D01*
X332498D02*
Y121499D01*
X335497D01*
X336497Y120499D01*
Y117500D01*
X342495Y123498D02*
X340496Y122498D01*
X338496Y120499D01*
Y118500D01*
X339496Y117500D01*
X341495D01*
X342495Y118500D01*
Y119499D01*
X341495Y120499D01*
X338496D01*
X430499Y123498D02*
X428500D01*
X427500Y122498D01*
Y118500D01*
X428500Y117500D01*
X430499D01*
X431499Y118500D01*
Y122498D01*
X430499Y123498D01*
X433498Y121499D02*
Y118500D01*
X434498Y117500D01*
X437497D01*
Y121499D01*
X440496Y122498D02*
Y121499D01*
X439496D01*
X441496D01*
X440496D01*
Y118500D01*
X441496Y117500D01*
X448493Y123498D02*
X446494Y122498D01*
X444494Y120499D01*
Y118500D01*
X445494Y117500D01*
X447494D01*
X448493Y118500D01*
Y119499D01*
X447494Y120499D01*
X444494D01*
X327500Y133498D02*
X329499D01*
X328500D01*
Y127500D01*
X327500D01*
X329499D01*
X332498D02*
Y131499D01*
X335497D01*
X336497Y130499D01*
Y127500D01*
X342495Y133498D02*
X338496D01*
Y130499D01*
X340496Y131499D01*
X341495D01*
X342495Y130499D01*
Y128500D01*
X341495Y127500D01*
X339496D01*
X338496Y128500D01*
X430499Y133498D02*
X428500D01*
X427500Y132498D01*
Y128500D01*
X428500Y127500D01*
X430499D01*
X431499Y128500D01*
Y132498D01*
X430499Y133498D01*
X433498Y131499D02*
Y128500D01*
X434498Y127500D01*
X437497D01*
Y131499D01*
X440496Y132498D02*
Y131499D01*
X439496D01*
X441496D01*
X440496D01*
Y128500D01*
X441496Y127500D01*
X448493Y133498D02*
X444494D01*
Y130499D01*
X446494Y131499D01*
X447494D01*
X448493Y130499D01*
Y128500D01*
X447494Y127500D01*
X445494D01*
X444494Y128500D01*
X327500Y143498D02*
X329499D01*
X328500D01*
Y137500D01*
X327500D01*
X329499D01*
X332498D02*
Y141499D01*
X335497D01*
X336497Y140499D01*
Y137500D01*
X341495D02*
Y143498D01*
X338496Y140499D01*
X342495D01*
X430499Y143498D02*
X428500D01*
X427500Y142498D01*
Y138500D01*
X428500Y137500D01*
X430499D01*
X431499Y138500D01*
Y142498D01*
X430499Y143498D01*
X433498Y141499D02*
Y138500D01*
X434498Y137500D01*
X437497D01*
Y141499D01*
X440496Y142498D02*
Y141499D01*
X439496D01*
X441496D01*
X440496D01*
Y138500D01*
X441496Y137500D01*
X447494D02*
Y143498D01*
X444494Y140499D01*
X448493D01*
X327500Y153498D02*
X329499D01*
X328500D01*
Y147500D01*
X327500D01*
X329499D01*
X332498D02*
Y151499D01*
X335497D01*
X336497Y150499D01*
Y147500D01*
X338496Y152498D02*
X339496Y153498D01*
X341495D01*
X342495Y152498D01*
Y151499D01*
X341495Y150499D01*
X340496D01*
X341495D01*
X342495Y149499D01*
Y148500D01*
X341495Y147500D01*
X339496D01*
X338496Y148500D01*
X430499Y153498D02*
X428500D01*
X427500Y152498D01*
Y148500D01*
X428500Y147500D01*
X430499D01*
X431499Y148500D01*
Y152498D01*
X430499Y153498D01*
X433498Y151499D02*
Y148500D01*
X434498Y147500D01*
X437497D01*
Y151499D01*
X440496Y152498D02*
Y151499D01*
X439496D01*
X441496D01*
X440496D01*
Y148500D01*
X441496Y147500D01*
X444494Y152498D02*
X445494Y153498D01*
X447494D01*
X448493Y152498D01*
Y151499D01*
X447494Y150499D01*
X446494D01*
X447494D01*
X448493Y149499D01*
Y148500D01*
X447494Y147500D01*
X445494D01*
X444494Y148500D01*
X327500Y163498D02*
X329499D01*
X328500D01*
Y157500D01*
X327500D01*
X329499D01*
X332498D02*
Y161499D01*
X335497D01*
X336497Y160499D01*
Y157500D01*
X342495D02*
X338496D01*
X342495Y161499D01*
Y162498D01*
X341495Y163498D01*
X339496D01*
X338496Y162498D01*
X430499Y163498D02*
X428500D01*
X427500Y162498D01*
Y158500D01*
X428500Y157500D01*
X430499D01*
X431499Y158500D01*
Y162498D01*
X430499Y163498D01*
X433498Y161499D02*
Y158500D01*
X434498Y157500D01*
X437497D01*
Y161499D01*
X440496Y162498D02*
Y161499D01*
X439496D01*
X441496D01*
X440496D01*
Y158500D01*
X441496Y157500D01*
X448493D02*
X444494D01*
X448493Y161499D01*
Y162498D01*
X447494Y163498D01*
X445494D01*
X444494Y162498D01*
X327500Y173498D02*
X329499D01*
X328500D01*
Y167500D01*
X327500D01*
X329499D01*
X332498D02*
Y171499D01*
X335497D01*
X336497Y170499D01*
Y167500D01*
X338496D02*
X340496D01*
X339496D01*
Y173498D01*
X338496Y172498D01*
X430499Y173498D02*
X428500D01*
X427500Y172498D01*
Y168500D01*
X428500Y167500D01*
X430499D01*
X431499Y168500D01*
Y172498D01*
X430499Y173498D01*
X433498Y171499D02*
Y168500D01*
X434498Y167500D01*
X437497D01*
Y171499D01*
X440496Y172498D02*
Y171499D01*
X439496D01*
X441496D01*
X440496D01*
Y168500D01*
X441496Y167500D01*
X444494D02*
X446494D01*
X445494D01*
Y173498D01*
X444494Y172498D01*
X357500Y125998D02*
X361499D01*
Y124998D01*
X357500Y121000D01*
Y120000D01*
X366497D02*
Y125998D01*
X363498Y122999D01*
X367497D01*
X369496Y125998D02*
Y120000D01*
Y122999D01*
X373495D01*
Y125998D01*
Y120000D01*
X379493Y124998D02*
X378493Y125998D01*
X376494D01*
X375494Y124998D01*
Y121000D01*
X376494Y120000D01*
X378493D01*
X379493Y121000D01*
X384491Y120000D02*
Y125998D01*
X381492Y122999D01*
X385491D01*
X387490Y124998D02*
X388490Y125998D01*
X390489D01*
X391489Y124998D01*
Y121000D01*
X390489Y120000D01*
X388490D01*
X387490Y121000D01*
Y124998D01*
X397487Y125998D02*
X393488D01*
Y122999D01*
X395488Y123999D01*
X396487D01*
X397487Y122999D01*
Y121000D01*
X396487Y120000D01*
X394488D01*
X393488Y121000D01*
X399486Y124998D02*
X400486Y125998D01*
X402485D01*
X403485Y124998D01*
Y121000D01*
X402485Y120000D01*
X400486D01*
X399486Y121000D01*
Y124998D01*
X379106Y176492D02*
X381106D01*
X380106D01*
Y182490D01*
X379106Y181490D01*
X384105D02*
X385104Y182490D01*
X387104D01*
X388103Y181490D01*
Y177491D01*
X387104Y176492D01*
X385104D01*
X384105Y177491D01*
Y181490D01*
X390103D02*
X391102Y182490D01*
X393102D01*
X394101Y181490D01*
Y177491D01*
X393102Y176492D01*
X391102D01*
X390103Y177491D01*
Y181490D01*
X396101Y176492D02*
Y180491D01*
X399100D01*
X400100Y179491D01*
Y176492D01*
X342500Y287500D02*
Y293498D01*
X345499D01*
X346499Y292498D01*
Y290499D01*
X345499Y289499D01*
X342500D01*
X348498Y293498D02*
Y287500D01*
X351497D01*
X352497Y288500D01*
Y289499D01*
X351497Y290499D01*
X348498D01*
X351497D01*
X352497Y291499D01*
Y292498D01*
X351497Y293498D01*
X348498D01*
X354496Y287500D02*
X356495D01*
X355496D01*
Y293498D01*
X354496Y292498D01*
X363493Y293498D02*
X359494D01*
Y290499D01*
X361494Y291499D01*
X362493D01*
X363493Y290499D01*
Y288500D01*
X362493Y287500D01*
X360494D01*
X359494Y288500D01*
X207500Y327500D02*
Y333498D01*
X210499D01*
X211499Y332498D01*
Y330499D01*
X210499Y329499D01*
X207500D01*
X213498Y333498D02*
Y327500D01*
X216497D01*
X217497Y328500D01*
Y332498D01*
X216497Y333498D01*
X213498D01*
X219496Y332498D02*
X220496Y333498D01*
X222495D01*
X223495Y332498D01*
Y328500D01*
X222495Y327500D01*
X220496D01*
X219496Y328500D01*
Y332498D01*
X207500Y337500D02*
Y343498D01*
X210499D01*
X211499Y342498D01*
Y340499D01*
X210499Y339499D01*
X207500D01*
X217497Y342498D02*
X216497Y343498D01*
X214498D01*
X213498Y342498D01*
Y338500D01*
X214498Y337500D01*
X216497D01*
X217497Y338500D01*
X219496Y337500D02*
X221496D01*
X220496D01*
Y343498D01*
X219496Y342498D01*
X228493Y343498D02*
X224495D01*
Y340499D01*
X226494Y341499D01*
X227494D01*
X228493Y340499D01*
Y338500D01*
X227494Y337500D01*
X225494D01*
X224495Y338500D01*
X262500Y237500D02*
X256502D01*
Y240499D01*
X257502Y241499D01*
X259501D01*
X260501Y240499D01*
Y237500D01*
X262500Y243498D02*
X258501D01*
X256502Y245497D01*
X258501Y247497D01*
X262500D01*
X259501D01*
Y243498D01*
X256502Y253495D02*
X257502Y251496D01*
X259501Y249496D01*
X261500D01*
X262500Y250496D01*
Y252495D01*
X261500Y253495D01*
X260501D01*
X259501Y252495D01*
Y249496D01*
X242500Y237500D02*
X236502D01*
Y240499D01*
X237502Y241499D01*
X239501D01*
X240501Y240499D01*
Y237500D01*
X242500Y243498D02*
X238501D01*
X236502Y245497D01*
X238501Y247497D01*
X242500D01*
X239501D01*
Y243498D01*
X242500Y252495D02*
X236502D01*
X239501Y249496D01*
Y253495D01*
X232500Y237500D02*
X226502D01*
Y240499D01*
X227502Y241499D01*
X229501D01*
X230501Y240499D01*
Y237500D01*
X232500Y243498D02*
X228501D01*
X226502Y245497D01*
X228501Y247497D01*
X232500D01*
X229501D01*
Y243498D01*
X227502Y249496D02*
X226502Y250496D01*
Y252495D01*
X227502Y253495D01*
X228501D01*
X229501Y252495D01*
Y251496D01*
Y252495D01*
X230501Y253495D01*
X231500D01*
X232500Y252495D01*
Y250496D01*
X231500Y249496D01*
X207500Y257500D02*
Y263498D01*
X210499D01*
X211499Y262498D01*
Y260499D01*
X210499Y259499D01*
X207500D01*
X213498Y257500D02*
Y261499D01*
X215497Y263498D01*
X217497Y261499D01*
Y257500D01*
Y260499D01*
X213498D01*
X223495Y257500D02*
X219496D01*
X223495Y261499D01*
Y262498D01*
X222495Y263498D01*
X220496D01*
X219496Y262498D01*
X207500Y267500D02*
Y273498D01*
X210499D01*
X211499Y272498D01*
Y270499D01*
X210499Y269499D01*
X207500D01*
X213498Y267500D02*
Y271499D01*
X215497Y273498D01*
X217497Y271499D01*
Y267500D01*
Y270499D01*
X213498D01*
X219496Y267500D02*
X221496D01*
X220496D01*
Y273498D01*
X219496Y272498D01*
X336502Y237500D02*
X340501D01*
X342500Y239499D01*
X340501Y241499D01*
X336502D01*
X338501Y247497D02*
Y244498D01*
X339501Y243498D01*
X341500D01*
X342500Y244498D01*
Y247497D01*
X338501Y253495D02*
Y250496D01*
X339501Y249496D01*
X341500D01*
X342500Y250496D01*
Y253495D01*
X237502Y381499D02*
X236502Y380499D01*
Y378500D01*
X237502Y377500D01*
X241500D01*
X242500Y378500D01*
Y380499D01*
X241500Y381499D01*
X239501D01*
Y379499D01*
X242500Y383498D02*
X236502D01*
X242500Y387497D01*
X236502D01*
Y389496D02*
X242500D01*
Y392495D01*
X241500Y393495D01*
X237502D01*
X236502Y392495D01*
Y389496D01*
X342500Y185000D02*
Y186999D01*
Y186000D01*
X336502D01*
X337502Y185000D01*
Y189998D02*
X336502Y190998D01*
Y192997D01*
X337502Y193997D01*
X341500D01*
X342500Y192997D01*
Y190998D01*
X341500Y189998D01*
X337502D01*
Y195996D02*
X336502Y196996D01*
Y198995D01*
X337502Y199995D01*
X341500D01*
X342500Y198995D01*
Y196996D01*
X341500Y195996D01*
X337502D01*
X342500Y201994D02*
X338501D01*
Y204994D01*
X339501Y205993D01*
X342500D01*
X360000Y394000D02*
X361999D01*
X361000D01*
Y399998D01*
X360000Y398998D01*
X364998D02*
X365998Y399998D01*
X367997D01*
X368997Y398998D01*
Y395000D01*
X367997Y394000D01*
X365998D01*
X364998Y395000D01*
Y398998D01*
X370996D02*
X371996Y399998D01*
X373995D01*
X374995Y398998D01*
Y395000D01*
X373995Y394000D01*
X371996D01*
X370996Y395000D01*
Y398998D01*
X376994Y394000D02*
Y397999D01*
X379994D01*
X380993Y396999D01*
Y394000D01*
X207500Y357500D02*
Y363498D01*
X210499D01*
X211499Y362498D01*
Y360499D01*
X210499Y359499D01*
X207500D01*
X217497Y362498D02*
X216497Y363498D01*
X214498D01*
X213498Y362498D01*
Y358500D01*
X214498Y357500D01*
X216497D01*
X217497Y358500D01*
X219496Y357500D02*
X221496D01*
X220496D01*
Y363498D01*
X219496Y362498D01*
X224495D02*
X225494Y363498D01*
X227494D01*
X228493Y362498D01*
Y361499D01*
X227494Y360499D01*
X226494D01*
X227494D01*
X228493Y359499D01*
Y358500D01*
X227494Y357500D01*
X225494D01*
X224495Y358500D01*
X207500Y317500D02*
Y323498D01*
X210499D01*
X211499Y322498D01*
Y320499D01*
X210499Y319499D01*
X207500D01*
X213498Y323498D02*
Y317500D01*
X216497D01*
X217497Y318500D01*
Y322498D01*
X216497Y323498D01*
X213498D01*
X219496Y317500D02*
X221496D01*
X220496D01*
Y323498D01*
X219496Y322498D01*
X207500Y347500D02*
Y353498D01*
X210499D01*
X211499Y352498D01*
Y350499D01*
X210499Y349499D01*
X207500D01*
X217497Y352498D02*
X216497Y353498D01*
X214498D01*
X213498Y352498D01*
Y348500D01*
X214498Y347500D01*
X216497D01*
X217497Y348500D01*
X219496Y347500D02*
X221496D01*
X220496D01*
Y353498D01*
X219496Y352498D01*
X227494Y347500D02*
Y353498D01*
X224495Y350499D01*
X228493D01*
X342500Y277500D02*
Y283498D01*
X345499D01*
X346499Y282498D01*
Y280499D01*
X345499Y279499D01*
X342500D01*
X348498Y283498D02*
Y277500D01*
X351497D01*
X352497Y278500D01*
Y279499D01*
X351497Y280499D01*
X348498D01*
X351497D01*
X352497Y281499D01*
Y282498D01*
X351497Y283498D01*
X348498D01*
X354496Y277500D02*
X356495D01*
X355496D01*
Y283498D01*
X354496Y282498D01*
X362493Y277500D02*
Y283498D01*
X359494Y280499D01*
X363493D01*
X342500Y267500D02*
Y273498D01*
X345499D01*
X346499Y272498D01*
Y270499D01*
X345499Y269499D01*
X342500D01*
X348498Y273498D02*
Y267500D01*
X351497D01*
X352497Y268500D01*
Y269499D01*
X351497Y270499D01*
X348498D01*
X351497D01*
X352497Y271499D01*
Y272498D01*
X351497Y273498D01*
X348498D01*
X354496Y267500D02*
X356495D01*
X355496D01*
Y273498D01*
X354496Y272498D01*
X359494D02*
X360494Y273498D01*
X362493D01*
X363493Y272498D01*
Y271499D01*
X362493Y270499D01*
X361494D01*
X362493D01*
X363493Y269499D01*
Y268500D01*
X362493Y267500D01*
X360494D01*
X359494Y268500D01*
X342500Y257500D02*
Y263498D01*
X345499D01*
X346499Y262498D01*
Y260499D01*
X345499Y259499D01*
X342500D01*
X348498Y263498D02*
Y257500D01*
X351497D01*
X352497Y258500D01*
Y259499D01*
X351497Y260499D01*
X348498D01*
X351497D01*
X352497Y261499D01*
Y262498D01*
X351497Y263498D01*
X348498D01*
X354496Y257500D02*
X356495D01*
X355496D01*
Y263498D01*
X354496Y262498D01*
X363493Y257500D02*
X359494D01*
X363493Y261499D01*
Y262498D01*
X362493Y263498D01*
X360494D01*
X359494Y262498D01*
X322500Y237500D02*
X316502D01*
Y240499D01*
X317502Y241499D01*
X319501D01*
X320501Y240499D01*
Y237500D01*
X316502Y243498D02*
X322500D01*
Y246497D01*
X321500Y247497D01*
X320501D01*
X319501Y246497D01*
Y243498D01*
Y246497D01*
X318501Y247497D01*
X317502D01*
X316502Y246497D01*
Y243498D01*
X322500Y249496D02*
Y251496D01*
Y250496D01*
X316502D01*
X317502Y249496D01*
X322500Y254495D02*
Y256494D01*
Y255494D01*
X316502D01*
X317502Y254495D01*
X312500Y237500D02*
X306502D01*
Y240499D01*
X307502Y241499D01*
X309501D01*
X310501Y240499D01*
Y237500D01*
X306502Y243498D02*
X312500D01*
Y246497D01*
X311500Y247497D01*
X310501D01*
X309501Y246497D01*
Y243498D01*
Y246497D01*
X308501Y247497D01*
X307502D01*
X306502Y246497D01*
Y243498D01*
X312500Y249496D02*
Y251496D01*
Y250496D01*
X306502D01*
X307502Y249496D01*
Y254495D02*
X306502Y255494D01*
Y257493D01*
X307502Y258493D01*
X311500D01*
X312500Y257493D01*
Y255494D01*
X311500Y254495D01*
X307502D01*
X252500Y377500D02*
X246502D01*
Y380499D01*
X247502Y381499D01*
X249501D01*
X250501Y380499D01*
Y377500D01*
X246502Y383498D02*
X252500D01*
Y386497D01*
X251500Y387497D01*
X250501D01*
X249501Y386497D01*
Y383498D01*
Y386497D01*
X248501Y387497D01*
X247502D01*
X246502Y386497D01*
Y383498D01*
X251500Y389496D02*
X252500Y390496D01*
Y392495D01*
X251500Y393495D01*
X247502D01*
X246502Y392495D01*
Y390496D01*
X247502Y389496D01*
X248501D01*
X249501Y390496D01*
Y393495D01*
X262500Y377500D02*
X256502D01*
Y380499D01*
X257502Y381499D01*
X259501D01*
X260501Y380499D01*
Y377500D01*
X256502Y383498D02*
X262500D01*
Y386497D01*
X261500Y387497D01*
X260501D01*
X259501Y386497D01*
Y383498D01*
Y386497D01*
X258501Y387497D01*
X257502D01*
X256502Y386497D01*
Y383498D01*
X257502Y389496D02*
X256502Y390496D01*
Y392495D01*
X257502Y393495D01*
X258501D01*
X259501Y392495D01*
X260501Y393495D01*
X261500D01*
X262500Y392495D01*
Y390496D01*
X261500Y389496D01*
X260501D01*
X259501Y390496D01*
X258501Y389496D01*
X257502D01*
X259501Y390496D02*
Y392495D01*
X282500Y377500D02*
X276502D01*
Y380499D01*
X277502Y381499D01*
X279501D01*
X280501Y380499D01*
Y377500D01*
X276502Y383498D02*
X282500D01*
Y386497D01*
X281500Y387497D01*
X280501D01*
X279501Y386497D01*
Y383498D01*
Y386497D01*
X278501Y387497D01*
X277502D01*
X276502Y386497D01*
Y383498D01*
Y389496D02*
Y393495D01*
X277502D01*
X281500Y389496D01*
X282500D01*
X292500Y377500D02*
X286502D01*
Y380499D01*
X287502Y381499D01*
X289501D01*
X290501Y380499D01*
Y377500D01*
X286502Y383498D02*
X292500D01*
Y386497D01*
X291500Y387497D01*
X290501D01*
X289501Y386497D01*
Y383498D01*
Y386497D01*
X288501Y387497D01*
X287502D01*
X286502Y386497D01*
Y383498D01*
Y393495D02*
X287502Y391495D01*
X289501Y389496D01*
X291500D01*
X292500Y390496D01*
Y392495D01*
X291500Y393495D01*
X290501D01*
X289501Y392495D01*
Y389496D01*
X302500Y377500D02*
X296502D01*
Y380499D01*
X297502Y381499D01*
X299501D01*
X300501Y380499D01*
Y377500D01*
X296502Y383498D02*
X302500D01*
Y386497D01*
X301500Y387497D01*
X300501D01*
X299501Y386497D01*
Y383498D01*
Y386497D01*
X298501Y387497D01*
X297502D01*
X296502Y386497D01*
Y383498D01*
Y393495D02*
Y389496D01*
X299501D01*
X298501Y391495D01*
Y392495D01*
X299501Y393495D01*
X301500D01*
X302500Y392495D01*
Y390496D01*
X301500Y389496D01*
X312500Y377500D02*
X306502D01*
Y380499D01*
X307502Y381499D01*
X309501D01*
X310501Y380499D01*
Y377500D01*
X306502Y383498D02*
X312500D01*
Y386497D01*
X311500Y387497D01*
X310501D01*
X309501Y386497D01*
Y383498D01*
Y386497D01*
X308501Y387497D01*
X307502D01*
X306502Y386497D01*
Y383498D01*
X312500Y392495D02*
X306502D01*
X309501Y389496D01*
Y393495D01*
X322500Y370502D02*
X320501Y368503D01*
X318501D01*
X316502Y370502D01*
X322500Y373501D02*
X316502D01*
Y376500D01*
X317502Y377500D01*
X319501D01*
X320501Y376500D01*
Y373501D01*
X316502Y379499D02*
X322500D01*
Y382498D01*
X321500Y383498D01*
X320501D01*
X319501Y382498D01*
Y379499D01*
Y382498D01*
X318501Y383498D01*
X317502D01*
X316502Y382498D01*
Y379499D01*
X317502Y385497D02*
X316502Y386497D01*
Y388496D01*
X317502Y389496D01*
X318501D01*
X319501Y388496D01*
Y387497D01*
Y388496D01*
X320501Y389496D01*
X321500D01*
X322500Y388496D01*
Y386497D01*
X321500Y385497D01*
X322500Y391495D02*
X320501Y393495D01*
X318501D01*
X316502Y391495D01*
X302500Y237500D02*
X296502D01*
Y240499D01*
X297502Y241499D01*
X299501D01*
X300501Y240499D01*
Y237500D01*
X296502Y243498D02*
X302500D01*
Y246497D01*
X301500Y247497D01*
X300501D01*
X299501Y246497D01*
Y243498D01*
Y246497D01*
X298501Y247497D01*
X297502D01*
X296502Y246497D01*
Y243498D01*
X302500Y253495D02*
Y249496D01*
X298501Y253495D01*
X297502D01*
X296502Y252495D01*
Y250496D01*
X297502Y249496D01*
X292500Y237500D02*
X286502D01*
Y240499D01*
X287502Y241499D01*
X289501D01*
X290501Y240499D01*
Y237500D01*
X286502Y243498D02*
X292500D01*
Y246497D01*
X291500Y247497D01*
X290501D01*
X289501Y246497D01*
Y243498D01*
Y246497D01*
X288501Y247497D01*
X287502D01*
X286502Y246497D01*
Y243498D01*
X292500Y249496D02*
Y251496D01*
Y250496D01*
X286502D01*
X287502Y249496D01*
X282500Y237500D02*
X276502D01*
Y240499D01*
X277502Y241499D01*
X279501D01*
X280501Y240499D01*
Y237500D01*
X276502Y243498D02*
X282500D01*
Y246497D01*
X281500Y247497D01*
X280501D01*
X279501Y246497D01*
Y243498D01*
Y246497D01*
X278501Y247497D01*
X277502D01*
X276502Y246497D01*
Y243498D01*
X277502Y249496D02*
X276502Y250496D01*
Y252495D01*
X277502Y253495D01*
X281500D01*
X282500Y252495D01*
Y250496D01*
X281500Y249496D01*
X277502D01*
X332500Y365504D02*
X330501Y363505D01*
X328501D01*
X326502Y365504D01*
X332500Y368503D02*
X326502D01*
Y371502D01*
X327502Y372502D01*
X329501D01*
X330501Y371502D01*
Y368503D01*
X332500Y374501D02*
X328501D01*
X326502Y376500D01*
X328501Y378500D01*
X332500D01*
X329501D01*
Y374501D01*
X332500Y380499D02*
Y382498D01*
Y381499D01*
X326502D01*
X327502Y380499D01*
X326502Y389496D02*
Y385497D01*
X329501D01*
X328501Y387497D01*
Y388496D01*
X329501Y389496D01*
X331500D01*
X332500Y388496D01*
Y386497D01*
X331500Y385497D01*
X332500Y391495D02*
X330501Y393495D01*
X328501D01*
X326502Y391495D01*
X342500Y365504D02*
X340501Y363505D01*
X338501D01*
X336502Y365504D01*
X342500Y368503D02*
X336502D01*
Y371502D01*
X337502Y372502D01*
X339501D01*
X340501Y371502D01*
Y368503D01*
X342500Y374501D02*
X338501D01*
X336502Y376500D01*
X338501Y378500D01*
X342500D01*
X339501D01*
Y374501D01*
X342500Y380499D02*
Y382498D01*
Y381499D01*
X336502D01*
X337502Y380499D01*
X342500Y388496D02*
X336502D01*
X339501Y385497D01*
Y389496D01*
X342500Y391495D02*
X340501Y393495D01*
X338501D01*
X336502Y391495D01*
X335502Y347500D02*
X333503Y349499D01*
Y351499D01*
X335502Y353498D01*
X338501Y347500D02*
Y353498D01*
X341500D01*
X342500Y352498D01*
Y350499D01*
X341500Y349499D01*
X338501D01*
X344499Y347500D02*
Y351499D01*
X346499Y353498D01*
X348498Y351499D01*
Y347500D01*
Y350499D01*
X344499D01*
X350497Y347500D02*
X352497D01*
X351497D01*
Y353498D01*
X350497Y352498D01*
X355496D02*
X356495Y353498D01*
X358495D01*
X359494Y352498D01*
Y351499D01*
X358495Y350499D01*
X357495D01*
X358495D01*
X359494Y349499D01*
Y348500D01*
X358495Y347500D01*
X356495D01*
X355496Y348500D01*
X361494Y347500D02*
X363493Y349499D01*
Y351499D01*
X361494Y353498D01*
X342500Y337500D02*
Y343498D01*
X345499D01*
X346499Y342498D01*
Y340499D01*
X345499Y339499D01*
X342500D01*
X348498Y337500D02*
Y341499D01*
X350497Y343498D01*
X352497Y341499D01*
Y337500D01*
Y340499D01*
X348498D01*
X354496Y337500D02*
X356495D01*
X355496D01*
Y343498D01*
X354496Y342498D01*
X363493Y337500D02*
X359494D01*
X363493Y341499D01*
Y342498D01*
X362493Y343498D01*
X360494D01*
X359494Y342498D01*
X344499Y327500D02*
Y333498D01*
X347498D01*
X348498Y332498D01*
Y330499D01*
X347498Y329499D01*
X344499D01*
X350497Y327500D02*
Y331499D01*
X352497Y333498D01*
X354496Y331499D01*
Y327500D01*
Y330499D01*
X350497D01*
X356495Y327500D02*
X358495D01*
X357495D01*
Y333498D01*
X356495Y332498D01*
X361494Y327500D02*
X363493D01*
X362493D01*
Y333498D01*
X361494Y332498D01*
X342500Y317500D02*
Y323498D01*
X345499D01*
X346499Y322498D01*
Y320499D01*
X345499Y319499D01*
X342500D01*
X348498Y317500D02*
Y321499D01*
X350497Y323498D01*
X352497Y321499D01*
Y317500D01*
Y320499D01*
X348498D01*
X354496Y317500D02*
X356495D01*
X355496D01*
Y323498D01*
X354496Y322498D01*
X359494D02*
X360494Y323498D01*
X362493D01*
X363493Y322498D01*
Y318500D01*
X362493Y317500D01*
X360494D01*
X359494Y318500D01*
Y322498D01*
X347498Y307500D02*
Y313498D01*
X350497D01*
X351497Y312498D01*
Y310499D01*
X350497Y309499D01*
X347498D01*
X353496Y307500D02*
Y311499D01*
X355496Y313498D01*
X357495Y311499D01*
Y307500D01*
Y310499D01*
X353496D01*
X359494Y308500D02*
X360494Y307500D01*
X362493D01*
X363493Y308500D01*
Y312498D01*
X362493Y313498D01*
X360494D01*
X359494Y312498D01*
Y311499D01*
X360494Y310499D01*
X363493D01*
X347498Y297500D02*
Y303498D01*
X350497D01*
X351497Y302498D01*
Y300499D01*
X350497Y299499D01*
X347498D01*
X353496Y297500D02*
Y301499D01*
X355496Y303498D01*
X357495Y301499D01*
Y297500D01*
Y300499D01*
X353496D01*
X359494Y302498D02*
X360494Y303498D01*
X362493D01*
X363493Y302498D01*
Y301499D01*
X362493Y300499D01*
X363493Y299499D01*
Y298500D01*
X362493Y297500D01*
X360494D01*
X359494Y298500D01*
Y299499D01*
X360494Y300499D01*
X359494Y301499D01*
Y302498D01*
X360494Y300499D02*
X362493D01*
X272500Y237500D02*
X266502D01*
Y240499D01*
X267502Y241499D01*
X269501D01*
X270501Y240499D01*
Y237500D01*
X272500Y243498D02*
X268501D01*
X266502Y245497D01*
X268501Y247497D01*
X272500D01*
X269501D01*
Y243498D01*
X266502Y249496D02*
Y253495D01*
X267502D01*
X271500Y249496D01*
X272500D01*
X226486Y377500D02*
X230485D01*
X232484Y379499D01*
X230485Y381499D01*
X226486D01*
X228485Y387497D02*
Y384498D01*
X229485Y383498D01*
X231485D01*
X232484Y384498D01*
Y387497D01*
X228485Y393495D02*
Y390496D01*
X229485Y389496D01*
X231485D01*
X232484Y390496D01*
Y393495D01*
X252500Y237500D02*
X246502D01*
Y240499D01*
X247502Y241499D01*
X249501D01*
X250501Y240499D01*
Y237500D01*
X252500Y243498D02*
X248501D01*
X246502Y245497D01*
X248501Y247497D01*
X252500D01*
X249501D01*
Y243498D01*
X246502Y253495D02*
Y249496D01*
X249501D01*
X248501Y251496D01*
Y252495D01*
X249501Y253495D01*
X251500D01*
X252500Y252495D01*
Y250496D01*
X251500Y249496D01*
X207500Y373498D02*
Y369499D01*
X209499Y367500D01*
X211499Y369499D01*
Y373498D01*
X217497Y371499D02*
X214498D01*
X213498Y370499D01*
Y368500D01*
X214498Y367500D01*
X217497D01*
X223495Y371499D02*
X220496D01*
X219496Y370499D01*
Y368500D01*
X220496Y367500D01*
X223495D01*
X207500Y293498D02*
Y289499D01*
X209499Y287500D01*
X211499Y289499D01*
Y293498D01*
X217497Y291499D02*
X214498D01*
X213498Y290499D01*
Y288500D01*
X214498Y287500D01*
X217497D01*
X223495Y291499D02*
X220496D01*
X219496Y290499D01*
Y288500D01*
X220496Y287500D01*
X223495D01*
X347498Y373498D02*
Y369499D01*
X349498Y367500D01*
X351497Y369499D01*
Y373498D01*
X357495Y371499D02*
X354496D01*
X353496Y370499D01*
Y368500D01*
X354496Y367500D01*
X357495D01*
X363493Y371499D02*
X360494D01*
X359494Y370499D01*
Y368500D01*
X360494Y367500D01*
X363493D01*
X211499Y302498D02*
X210499Y303498D01*
X208500D01*
X207500Y302498D01*
Y298500D01*
X208500Y297500D01*
X210499D01*
X211499Y298500D01*
Y300499D01*
X209499D01*
X213498Y297500D02*
Y303498D01*
X217497Y297500D01*
Y303498D01*
X219496D02*
Y297500D01*
X222495D01*
X223495Y298500D01*
Y302498D01*
X222495Y303498D01*
X219496D01*
X207500Y277500D02*
Y283498D01*
X210499D01*
X211499Y282498D01*
Y280499D01*
X210499Y279499D01*
X207500D01*
X213498Y277500D02*
Y281499D01*
X215497Y283498D01*
X217497Y281499D01*
Y277500D01*
Y280499D01*
X213498D01*
X219496Y282498D02*
X220496Y283498D01*
X222495D01*
X223495Y282498D01*
Y278500D01*
X222495Y277500D01*
X220496D01*
X219496Y278500D01*
Y282498D01*
X351497Y362498D02*
X350497Y363498D01*
X348498D01*
X347498Y362498D01*
Y358500D01*
X348498Y357500D01*
X350497D01*
X351497Y358500D01*
Y360499D01*
X349498D01*
X353496Y357500D02*
Y363498D01*
X357495Y357500D01*
Y363498D01*
X359494D02*
Y357500D01*
X362493D01*
X363493Y358500D01*
Y362498D01*
X362493Y363498D01*
X359494D01*
X327502Y241499D02*
X326502Y240499D01*
Y238500D01*
X327502Y237500D01*
X331500D01*
X332500Y238500D01*
Y240499D01*
X331500Y241499D01*
X329501D01*
Y239499D01*
X332500Y243498D02*
X326502D01*
X332500Y247497D01*
X326502D01*
Y249496D02*
X332500D01*
Y252495D01*
X331500Y253495D01*
X327502D01*
X326502Y252495D01*
Y249496D01*
X127500Y310000D02*
X129499D01*
X128500D01*
Y315998D01*
X127500Y314998D01*
X132498D02*
X133498Y315998D01*
X135497D01*
X136497Y314998D01*
Y311000D01*
X135497Y310000D01*
X133498D01*
X132498Y311000D01*
Y314998D01*
X138496D02*
X139496Y315998D01*
X141496D01*
X142495Y314998D01*
Y311000D01*
X141496Y310000D01*
X139496D01*
X138496Y311000D01*
Y314998D01*
X144494Y310000D02*
Y313999D01*
X147494D01*
X148493Y312999D01*
Y310000D01*
X150000Y287500D02*
X151999D01*
X151000D01*
Y293498D01*
X150000Y292498D01*
X154998D02*
X155998Y293498D01*
X157997D01*
X158997Y292498D01*
Y288500D01*
X157997Y287500D01*
X155998D01*
X154998Y288500D01*
Y292498D01*
X160996D02*
X161996Y293498D01*
X163996D01*
X164995Y292498D01*
Y288500D01*
X163996Y287500D01*
X161996D01*
X160996Y288500D01*
Y292498D01*
X166995Y287500D02*
Y291499D01*
X169993D01*
X170993Y290499D01*
Y287500D01*
X242000Y407000D02*
Y408999D01*
Y408000D01*
X236002D01*
X237002Y407000D01*
Y411998D02*
X236002Y412998D01*
Y414997D01*
X237002Y415997D01*
X241000D01*
X242000Y414997D01*
Y412998D01*
X241000Y411998D01*
X237002D01*
Y417996D02*
X236002Y418996D01*
Y420996D01*
X237002Y421995D01*
X241000D01*
X242000Y420996D01*
Y418996D01*
X241000Y417996D01*
X237002D01*
X242000Y423994D02*
X238001D01*
Y426994D01*
X239001Y427993D01*
X242000D01*
X152999Y257500D02*
Y263498D01*
X150000Y260499D01*
X153999D01*
X155998Y257500D02*
Y258500D01*
X156998D01*
Y257500D01*
X155998D01*
X160996Y263498D02*
X164995D01*
Y262498D01*
X160996Y258500D01*
Y257500D01*
X166995Y261499D02*
Y258500D01*
X167994Y257500D01*
X170993D01*
Y261499D01*
X155000Y277500D02*
X156999D01*
X156000D01*
Y283498D01*
X155000Y282498D01*
X159998D02*
X160998Y283498D01*
X162997D01*
X163997Y282498D01*
Y278500D01*
X162997Y277500D01*
X160998D01*
X159998Y278500D01*
Y282498D01*
X165996Y277500D02*
Y281499D01*
X168995D01*
X169995Y280499D01*
Y277500D01*
X160000Y267500D02*
X161999D01*
X161000D01*
Y273498D01*
X160000Y272498D01*
X164998Y271499D02*
Y268500D01*
X165998Y267500D01*
X168997D01*
Y271499D01*
X267500Y213498D02*
Y207500D01*
X270499D01*
X271499Y208500D01*
Y212498D01*
X270499Y213498D01*
X267500D01*
X273498Y207500D02*
X275497D01*
X274498D01*
Y213498D01*
X273498Y212498D01*
X296499Y462498D02*
X295499Y463498D01*
X293500D01*
X292500Y462498D01*
Y458500D01*
X293500Y457500D01*
X295499D01*
X296499Y458500D01*
X299498Y457500D02*
X301497D01*
X302497Y458500D01*
Y460499D01*
X301497Y461499D01*
X299498D01*
X298498Y460499D01*
Y458500D01*
X299498Y457500D01*
X304496Y461499D02*
Y457500D01*
Y459499D01*
X305496Y460499D01*
X306495Y461499D01*
X307495D01*
X311494Y462498D02*
Y461499D01*
X310494D01*
X312493D01*
X311494D01*
Y458500D01*
X312493Y457500D01*
X318492D02*
X316492D01*
X315493Y458500D01*
Y460499D01*
X316492Y461499D01*
X318492D01*
X319491Y460499D01*
Y459499D01*
X315493D01*
X321491Y461499D02*
X325489Y457500D01*
X323490Y459499D01*
X325489Y461499D01*
X321491Y457500D01*
X327489Y460499D02*
X331487D01*
X333487Y457500D02*
Y463498D01*
X335486Y461499D01*
X337485Y463498D01*
Y457500D01*
X272500Y180000D02*
Y185998D01*
X275499D01*
X276499Y184998D01*
Y182999D01*
X275499Y181999D01*
X272500D01*
X274499D02*
X276499Y180000D01*
X278498D02*
X280497D01*
X279498D01*
Y185998D01*
X278498Y184998D01*
X130000Y282500D02*
X131999D01*
X131000D01*
Y288498D01*
X130000Y287498D01*
X134998D02*
X135998Y288498D01*
X137997D01*
X138997Y287498D01*
Y283500D01*
X137997Y282500D01*
X135998D01*
X134998Y283500D01*
Y287498D01*
X140996Y282500D02*
Y288498D01*
Y284499D02*
X143995Y286499D01*
X140996Y284499D02*
X143995Y282500D01*
X258999Y289998D02*
X257999Y290998D01*
X256000D01*
X255000Y289998D01*
Y288999D01*
X256000Y287999D01*
X257999D01*
X258999Y286999D01*
Y286000D01*
X257999Y285000D01*
X256000D01*
X255000Y286000D01*
X260998Y290998D02*
X264997D01*
X262997D01*
Y285000D01*
X266996D02*
Y290998D01*
X268995Y288999D01*
X270995Y290998D01*
Y285000D01*
X272994Y289998D02*
X273994Y290998D01*
X275993D01*
X276993Y289998D01*
Y288999D01*
X275993Y287999D01*
X274993D01*
X275993D01*
X276993Y286999D01*
Y286000D01*
X275993Y285000D01*
X273994D01*
X272994Y286000D01*
X282991Y285000D02*
X278992D01*
X282991Y288999D01*
Y289998D01*
X281991Y290998D01*
X279992D01*
X278992Y289998D01*
X288989Y290998D02*
X284990D01*
Y287999D01*
X286990D01*
X284990D01*
Y285000D01*
X290988D02*
X292988D01*
X291988D01*
Y290998D01*
X290988Y289998D01*
X295987D02*
X296986Y290998D01*
X298986D01*
X299985Y289998D01*
Y286000D01*
X298986Y285000D01*
X296986D01*
X295987Y286000D01*
Y289998D01*
X301985D02*
X302984Y290998D01*
X304984D01*
X305983Y289998D01*
Y288999D01*
X304984Y287999D01*
X303984D01*
X304984D01*
X305983Y286999D01*
Y286000D01*
X304984Y285000D01*
X302984D01*
X301985Y286000D01*
X307983Y288999D02*
X311982Y285000D01*
X309982Y286999D01*
X311982Y288999D01*
X307983Y285000D01*
X317980Y289998D02*
X316980Y290998D01*
X314981D01*
X313981Y289998D01*
Y286000D01*
X314981Y285000D01*
X316980D01*
X317980Y286000D01*
X263998Y419000D02*
X264998Y418000D01*
Y416001D01*
X263998Y415001D01*
X260000D01*
X259000Y416001D01*
Y418000D01*
X260000Y419000D01*
X263998D01*
X207500Y307500D02*
Y313498D01*
X211499Y307500D01*
Y313498D01*
X213498Y307500D02*
Y313498D01*
X216497D01*
X217497Y312498D01*
Y310499D01*
X216497Y309499D01*
X213498D01*
X215497D02*
X217497Y307500D01*
X223495Y312498D02*
X222495Y313498D01*
X220496D01*
X219496Y312498D01*
Y311499D01*
X220496Y310499D01*
X222495D01*
X223495Y309499D01*
Y308500D01*
X222495Y307500D01*
X220496D01*
X219496Y308500D01*
X225494Y313498D02*
X229493D01*
X227494D01*
Y307500D01*
X266502Y365504D02*
X272500D01*
Y368503D01*
X271500Y369503D01*
X270501D01*
X269501Y368503D01*
Y365504D01*
Y368503D01*
X268501Y369503D01*
X267502D01*
X266502Y368503D01*
Y365504D01*
Y374501D02*
Y372502D01*
X267502Y371502D01*
X271500D01*
X272500Y372502D01*
Y374501D01*
X271500Y375501D01*
X267502D01*
X266502Y374501D01*
Y380499D02*
Y378500D01*
X267502Y377500D01*
X271500D01*
X272500Y378500D01*
Y380499D01*
X271500Y381499D01*
X267502D01*
X266502Y380499D01*
Y383498D02*
Y387497D01*
Y385497D01*
X272500D01*
X267502Y389496D02*
X266502Y390496D01*
Y392495D01*
X267502Y393495D01*
X271500D01*
X272500Y392495D01*
Y390496D01*
X271500Y389496D01*
X267502D01*
X285000Y224998D02*
Y219000D01*
X287999D01*
X288999Y220000D01*
Y223998D01*
X287999Y224998D01*
X285000D01*
X294997Y219000D02*
X290998D01*
X294997Y222999D01*
Y223998D01*
X293997Y224998D01*
X291998D01*
X290998Y223998D01*
X305000Y213498D02*
Y207500D01*
X307999D01*
X308999Y208500D01*
Y212498D01*
X307999Y213498D01*
X305000D01*
X310998Y212498D02*
X311998Y213498D01*
X313997D01*
X314997Y212498D01*
Y211499D01*
X313997Y210499D01*
X312997D01*
X313997D01*
X314997Y209499D01*
Y208500D01*
X313997Y207500D01*
X311998D01*
X310998Y208500D01*
X285000Y180000D02*
Y185998D01*
X287999D01*
X288999Y184998D01*
Y182999D01*
X287999Y181999D01*
X285000D01*
X286999D02*
X288999Y180000D01*
X293997D02*
Y185998D01*
X290998Y182999D01*
X294997D01*
X300000Y180000D02*
Y185998D01*
X302999D01*
X303999Y184998D01*
Y182999D01*
X302999Y181999D01*
X300000D01*
X301999D02*
X303999Y180000D01*
X309997Y185998D02*
X307997Y184998D01*
X305998Y182999D01*
Y181000D01*
X306998Y180000D01*
X308997D01*
X309997Y181000D01*
Y181999D01*
X308997Y182999D01*
X305998D01*
X142000Y462000D02*
X143999D01*
X143000D01*
Y467998D01*
X142000Y466998D01*
X146998D02*
X147998Y467998D01*
X149997D01*
X150997Y466998D01*
Y463000D01*
X149997Y462000D01*
X147998D01*
X146998Y463000D01*
Y466998D01*
X152996Y462000D02*
Y465999D01*
X155996D01*
X156995Y464999D01*
Y462000D01*
X214000Y456000D02*
Y457999D01*
Y457000D01*
X208002D01*
X209002Y456000D01*
Y460998D02*
X208002Y461998D01*
Y463997D01*
X209002Y464997D01*
X213000D01*
X214000Y463997D01*
Y461998D01*
X213000Y460998D01*
X209002D01*
Y466996D02*
X208002Y467996D01*
Y469995D01*
X209002Y470995D01*
X213000D01*
X214000Y469995D01*
Y467996D01*
X213000Y466996D01*
X209002D01*
X214000Y472995D02*
X210001D01*
Y475993D01*
X211001Y476993D01*
X214000D01*
X209002Y407000D02*
X208002Y408000D01*
Y409999D01*
X209002Y410999D01*
X210001D01*
X211001Y409999D01*
Y408999D01*
Y409999D01*
X212001Y410999D01*
X213000D01*
X214000Y409999D01*
Y408000D01*
X213000Y407000D01*
X214000Y412998D02*
X213000D01*
Y413998D01*
X214000D01*
Y412998D01*
X213000Y417996D02*
X214000Y418996D01*
Y420996D01*
X213000Y421995D01*
X209002D01*
X208002Y420996D01*
Y418996D01*
X209002Y417996D01*
X210001D01*
X211001Y418996D01*
Y421995D01*
X214000Y423994D02*
X210001D01*
Y426994D01*
X211001Y427993D01*
X214000D01*
X135999Y382000D02*
X132000D01*
X135999Y385999D01*
Y386998D01*
X134999Y387998D01*
X133000D01*
X132000Y386998D01*
X141997Y382000D02*
X137998D01*
X141997Y385999D01*
Y386998D01*
X140997Y387998D01*
X138998D01*
X137998Y386998D01*
X143996Y385999D02*
Y383000D01*
X144996Y382000D01*
X147995D01*
Y385999D01*
X153993Y387998D02*
X149994D01*
Y384999D01*
X151994D01*
X149994D01*
Y382000D01*
X154000Y418000D02*
Y423998D01*
X155999Y421999D01*
X157999Y423998D01*
Y418000D01*
X159998D02*
Y423998D01*
X162997D01*
X163997Y422998D01*
Y420999D01*
X162997Y419999D01*
X159998D01*
X169995Y418000D02*
X165996D01*
X169995Y421999D01*
Y422998D01*
X168995Y423998D01*
X166996D01*
X165996Y422998D01*
X171994D02*
X172994Y423998D01*
X174993D01*
X175993Y422998D01*
Y421999D01*
X174993Y420999D01*
X173994D01*
X174993D01*
X175993Y419999D01*
Y419000D01*
X174993Y418000D01*
X172994D01*
X171994Y419000D01*
X177992Y422998D02*
X178992Y423998D01*
X180991D01*
X181991Y422998D01*
Y419000D01*
X180991Y418000D01*
X178992D01*
X177992Y419000D01*
Y422998D01*
X183990Y423998D02*
X187989D01*
Y422998D01*
X183990Y419000D01*
Y418000D01*
X102000Y382000D02*
X103999D01*
X103000D01*
Y387998D01*
X102000Y386998D01*
X106998D02*
X107998Y387998D01*
X109997D01*
X110997Y386998D01*
Y383000D01*
X109997Y382000D01*
X107998D01*
X106998Y383000D01*
Y386998D01*
X112996Y385999D02*
Y383000D01*
X113996Y382000D01*
X116995D01*
Y385999D01*
X118994Y387998D02*
Y382000D01*
Y384999D01*
X122993D01*
Y387998D01*
Y382000D01*
X142000Y491998D02*
Y487999D01*
X143999Y486000D01*
X145999Y487999D01*
Y491998D01*
X147998D02*
X149997D01*
X148998D01*
Y486000D01*
X147998D01*
X149997D01*
X152996D02*
Y489999D01*
X155996D01*
X156995Y488999D01*
Y486000D01*
X214000Y432000D02*
Y433999D01*
Y433000D01*
X208002D01*
X209002Y432000D01*
Y436998D02*
X208002Y437998D01*
Y439997D01*
X209002Y440997D01*
X213000D01*
X214000Y439997D01*
Y437998D01*
X213000Y436998D01*
X209002D01*
Y442996D02*
X208002Y443996D01*
Y445996D01*
X209002Y446995D01*
X213000D01*
X214000Y445996D01*
Y443996D01*
X213000Y442996D01*
X209002D01*
X214000Y448994D02*
X208002D01*
X212001D02*
X210001Y451994D01*
X212001Y448994D02*
X214000Y451994D01*
X208002Y385999D02*
X209002Y383999D01*
X211001Y382000D01*
X213000D01*
X214000Y383000D01*
Y384999D01*
X213000Y385999D01*
X212001D01*
X211001Y384999D01*
Y382000D01*
X214000Y387998D02*
X213000D01*
Y388998D01*
X214000D01*
Y387998D01*
X209002Y392996D02*
X208002Y393996D01*
Y395995D01*
X209002Y396995D01*
X210001D01*
X211001Y395995D01*
X212001Y396995D01*
X213000D01*
X214000Y395995D01*
Y393996D01*
X213000Y392996D01*
X212001D01*
X211001Y393996D01*
X210001Y392996D01*
X209002D01*
X211001Y393996D02*
Y395995D01*
X214000Y398994D02*
X208002D01*
X212001D02*
X210001Y401994D01*
X212001Y398994D02*
X214000Y401994D01*
X176002Y378999D02*
Y375000D01*
X179001D01*
X178001Y376999D01*
Y377999D01*
X179001Y378999D01*
X181000D01*
X182000Y377999D01*
Y376000D01*
X181000Y375000D01*
X176002Y384997D02*
X177002Y382997D01*
X179001Y380998D01*
X181000D01*
X182000Y381998D01*
Y383997D01*
X181000Y384997D01*
X180001D01*
X179001Y383997D01*
Y380998D01*
X182000Y386996D02*
X176002D01*
X180001D02*
X178001Y389995D01*
X180001Y386996D02*
X182000Y389995D01*
X119000Y435000D02*
X120999D01*
X120000D01*
Y440998D01*
X119000Y439998D01*
X123998D02*
X124998Y440998D01*
X126997D01*
X127997Y439998D01*
Y436000D01*
X126997Y435000D01*
X124998D01*
X123998Y436000D01*
Y439998D01*
X129996Y438999D02*
Y436000D01*
X130996Y435000D01*
X133995D01*
Y438999D01*
X139993Y440998D02*
X135995D01*
Y437999D01*
X137994D01*
X135995D01*
Y435000D01*
X162000Y491998D02*
Y487999D01*
X163999Y486000D01*
X165999Y487999D01*
Y491998D01*
X171997Y489999D02*
X168998D01*
X167998Y488999D01*
Y487000D01*
X168998Y486000D01*
X171997D01*
X177995Y489999D02*
X174996D01*
X173996Y488999D01*
Y487000D01*
X174996Y486000D01*
X177995D01*
X186999Y490998D02*
X185999Y491998D01*
X184000D01*
X183000Y490998D01*
Y487000D01*
X184000Y486000D01*
X185999D01*
X186999Y487000D01*
Y488999D01*
X184999D01*
X188998Y486000D02*
Y491998D01*
X192997Y486000D01*
Y491998D01*
X194996D02*
Y486000D01*
X197995D01*
X198995Y487000D01*
Y490998D01*
X197995Y491998D01*
X194996D01*
X360999Y191998D02*
X359999Y192998D01*
X358000D01*
X357000Y191998D01*
Y188000D01*
X358000Y187000D01*
X359999D01*
X360999Y188000D01*
Y189999D01*
X358999D01*
X362998Y187000D02*
Y192998D01*
X366997Y187000D01*
Y192998D01*
X368996D02*
Y187000D01*
X371995D01*
X372995Y188000D01*
Y191998D01*
X371995Y192998D01*
X368996D01*
X357000Y202998D02*
Y198999D01*
X358999Y197000D01*
X360999Y198999D01*
Y202998D01*
X366997Y200999D02*
X363998D01*
X362998Y199999D01*
Y198000D01*
X363998Y197000D01*
X366997D01*
X372995Y200999D02*
X369996D01*
X368996Y199999D01*
Y198000D01*
X369996Y197000D01*
X372995D01*
X115999Y250000D02*
Y251000D01*
X115000Y251999D01*
X110001D01*
X114000Y256998D02*
Y258997D01*
X113000Y259997D01*
X111001D01*
X110001Y258997D01*
Y256998D01*
X111001Y255998D01*
X113000D01*
X114000Y256998D01*
X108002Y261996D02*
X114000D01*
X111001D01*
X110001Y262996D01*
Y264995D01*
X111001Y265995D01*
X114000D01*
Y267994D02*
X110001D01*
Y270993D01*
X111001Y271993D01*
X114000D01*
X108002Y277991D02*
X114000D01*
Y274992D01*
X113000Y273992D01*
X111001D01*
X110001Y274992D01*
Y277991D01*
X114000Y280990D02*
Y282989D01*
X113000Y283989D01*
X111001D01*
X110001Y282989D01*
Y280990D01*
X111001Y279990D01*
X113000D01*
X114000Y280990D01*
Y288987D02*
Y286988D01*
X113000Y285988D01*
X111001D01*
X110001Y286988D01*
Y288987D01*
X111001Y289987D01*
X112001D01*
Y285988D01*
X109002Y291986D02*
X108002Y292986D01*
Y294985D01*
X109002Y295985D01*
X110001D01*
X111001Y294985D01*
Y293986D01*
Y294985D01*
X112001Y295985D01*
X113000D01*
X114000Y294985D01*
Y292986D01*
X113000Y291986D01*
X114000Y297985D02*
Y299984D01*
Y298984D01*
X108002D01*
X109002Y297985D01*
X114000Y305982D02*
X108002D01*
X111001Y302983D01*
Y306982D01*
X114000Y308981D02*
Y310980D01*
Y309981D01*
X108002D01*
X109002Y308981D01*
X108002Y317978D02*
Y313979D01*
X111001D01*
X110001Y315979D01*
Y316978D01*
X111001Y317978D01*
X113000D01*
X114000Y316978D01*
Y314979D01*
X113000Y313979D01*
X248000Y145999D02*
Y142000D01*
X244001Y145999D01*
X243002D01*
X242002Y144999D01*
Y143000D01*
X243002Y142000D01*
Y147998D02*
X242002Y148998D01*
Y150997D01*
X243002Y151997D01*
X247000D01*
X248000Y150997D01*
Y148998D01*
X247000Y147998D01*
X243002D01*
X248000Y153996D02*
Y155996D01*
Y154996D01*
X242002D01*
X243002Y153996D01*
X247000Y158994D02*
X248000Y159994D01*
Y161994D01*
X247000Y162993D01*
X243002D01*
X242002Y161994D01*
Y159994D01*
X243002Y158994D01*
X244001D01*
X245001Y159994D01*
Y162993D01*
Y164993D02*
Y168991D01*
X243002Y170991D02*
X242002Y171990D01*
Y173990D01*
X243002Y174989D01*
X247000D01*
X248000Y173990D01*
Y171990D01*
X247000Y170991D01*
X243002D01*
X242002Y176989D02*
Y180987D01*
X243002D01*
X247000Y176989D01*
X248000D01*
X245001Y182987D02*
Y186985D01*
X248000Y188985D02*
Y190984D01*
Y189985D01*
X242002D01*
X243002Y188985D01*
X242002Y193983D02*
Y197982D01*
X243002D01*
X247000Y193983D01*
X248000D01*
X256001Y142000D02*
X260000D01*
X258001D01*
X257001Y143000D01*
X256001Y143999D01*
Y144999D01*
X260000Y150997D02*
Y148998D01*
X259000Y147998D01*
X257001D01*
X256001Y148998D01*
Y150997D01*
X257001Y151997D01*
X258001D01*
Y147998D01*
X256001Y153996D02*
X260000Y155996D01*
X256001Y157995D01*
X260000Y159994D02*
Y161994D01*
Y160994D01*
X254002D01*
X255002Y159994D01*
D38*
X173843Y383000D02*
G03*
X173843Y383000I-9843J0D01*
G01*
X189154Y338189D02*
G03*
X170847Y338189I-9154J0D01*
G01*
Y311811D02*
G03*
X189154Y311811I9154J0D01*
G01*
X139961Y393039D02*
Y422961D01*
X110039Y393039D02*
Y422961D01*
X129921D02*
X139961D01*
X129921Y393039D02*
X139961D01*
X110039Y422961D02*
X120079D01*
X110039Y393039D02*
X120079D01*
X153347Y399622D02*
Y402378D01*
X146653Y399622D02*
Y402378D01*
X142654Y436622D02*
Y439378D01*
X149346Y436622D02*
Y439378D01*
X376457Y130315D02*
Y169685D01*
X383543Y130315D02*
Y169685D01*
X376457D02*
X383543D01*
X376457Y130315D02*
X383543D01*
X274173Y304173D02*
Y325827D01*
X295827Y304173D02*
Y325827D01*
X274173D02*
X295827D01*
X274173Y304173D02*
X295827D01*
X299803Y167835D02*
X300197D01*
X299803Y172165D02*
X300197D01*
X299803Y157835D02*
X300197D01*
X299803Y162165D02*
X300197D01*
X299803Y147835D02*
X300197D01*
X299803Y152165D02*
X300197D01*
X299803Y137835D02*
X300197D01*
X299803Y142165D02*
X300197D01*
X299803Y127835D02*
X300197D01*
X299803Y132165D02*
X300197D01*
X299803Y117835D02*
X300197D01*
X299803Y122165D02*
X300197D01*
X137303Y297165D02*
X137697Y297165D01*
X137303Y292834D02*
X137697Y292835D01*
X272165Y412803D02*
Y413197D01*
X267835Y412803D02*
Y413197D01*
X277835Y194803D02*
X277835Y195197D01*
X282165D02*
X282166Y194803D01*
X189154Y311811D02*
X189154Y338189D01*
X170847Y311811D02*
X170847Y338189D01*
X297835Y194803D02*
Y195197D01*
X302165Y194803D02*
Y195197D01*
X287835Y194803D02*
Y195197D01*
X292165Y194803D02*
Y195197D01*
X175000Y426158D02*
Y445843D01*
X162500Y426158D02*
X175000D01*
X162500Y445843D02*
X175000D01*
X162500Y426158D02*
Y445843D01*
D39*
X371043Y170846D02*
G03*
X371043Y170846I-492J0D01*
G01*
X269547Y328583D02*
G03*
X269547Y328583I-492J0D01*
G01*
X158992Y447000D02*
G03*
X158992Y447000I-492J0D01*
G01*
D40*
X279291Y321890D02*
G03*
X279291Y321890I-1181J0D01*
G01*
D41*
X218000Y163500D02*
G03*
X218000Y163500I-500J0D01*
G01*
X220000Y162500D02*
G03*
X220000Y157500I0J-2500D01*
G01*
Y162500D02*
Y165000D01*
Y155000D02*
Y157500D01*
X180000Y155000D02*
X220000D01*
X180000D02*
Y165000D01*
X220000D01*
D42*
X278425Y210000D02*
X280000Y208425D01*
X278425Y210000D02*
X281575D01*
X280000D02*
Y211575D01*
Y208425D02*
X281575Y210000D01*
X278425Y208425D02*
X281575D01*
X282362Y211575D02*
X282362Y208425D01*
X277638D02*
X277638Y211575D01*
X288425Y210000D02*
X290000Y208425D01*
X288425Y210000D02*
X291575D01*
X290000D02*
Y211575D01*
Y208425D02*
X291575Y210000D01*
X288425Y208425D02*
X291575D01*
X292362D02*
Y211575D01*
X287638Y208425D02*
Y211575D01*
X298425Y210000D02*
X300000Y208425D01*
X298425Y210000D02*
X301575D01*
X300000D02*
Y211575D01*
Y208425D02*
X301575Y210000D01*
X298425Y208425D02*
X301575D01*
X302362D02*
Y211575D01*
X297638Y208425D02*
Y211575D01*
D43*
X164050Y398386D02*
Y394450D01*
X166018Y396418D02*
X162082D01*
M02*
