G04 Layer_Color=20142*
%FSLAX25Y25*%
%MOIN*%
G70*
G01*
G75*
%ADD27R,0.10300X0.13800*%
%ADD44R,0.07493X0.12611*%
%ADD45R,0.08280X0.06706*%
%ADD46R,0.06902X0.06115*%
%ADD47R,0.06902X0.06706*%
%ADD48R,0.06706X0.06902*%
%ADD49R,0.06509X0.05918*%
%ADD50R,0.09461X0.03162*%
%ADD51R,0.05918X0.06509*%
%ADD52O,0.07887X0.01981*%
%ADD53O,0.01981X0.07887*%
%ADD54R,0.04737X0.05918*%
%ADD55R,0.05918X0.04737*%
%ADD56R,0.05918X0.05328*%
%ADD57O,0.03400X0.09800*%
%ADD58O,0.07100X0.03200*%
%ADD59C,0.05918*%
%ADD60R,0.05918X0.05918*%
%ADD61C,0.08800*%
%ADD62C,0.26784*%
%ADD63C,0.06800*%
%ADD64R,0.06800X0.06800*%
%ADD65R,0.05524X0.05524*%
%ADD66C,0.05524*%
%ADD67O,0.04737X0.03753*%
%ADD68C,0.02800*%
D27*
X168650Y435900D02*
D03*
D44*
X125000Y419000D02*
D03*
Y397000D02*
D03*
D45*
X150000Y406906D02*
D03*
Y395094D02*
D03*
X146000Y432094D02*
D03*
Y443905D02*
D03*
D46*
X177000Y402839D02*
D03*
Y395161D02*
D03*
X189000Y395161D02*
D03*
Y402839D02*
D03*
X201000Y399000D02*
D03*
Y406677D02*
D03*
Y436161D02*
D03*
Y443839D02*
D03*
D47*
Y417457D02*
D03*
Y424543D02*
D03*
Y454457D02*
D03*
Y461543D02*
D03*
D48*
X152543Y455000D02*
D03*
X145457D02*
D03*
D49*
X370000Y388150D02*
D03*
Y381850D02*
D03*
X340000Y211850D02*
D03*
Y218150D02*
D03*
X230000Y411851D02*
D03*
Y418150D02*
D03*
D50*
X370551Y167500D02*
D03*
Y162500D02*
D03*
Y157500D02*
D03*
Y152500D02*
D03*
Y147500D02*
D03*
Y142500D02*
D03*
Y137500D02*
D03*
Y132500D02*
D03*
X389449Y167500D02*
D03*
Y162500D02*
D03*
Y157500D02*
D03*
Y152500D02*
D03*
Y147500D02*
D03*
Y142500D02*
D03*
Y137500D02*
D03*
Y132500D02*
D03*
D51*
X373150Y180000D02*
D03*
X366850D02*
D03*
X183150Y270000D02*
D03*
X176850D02*
D03*
X183150Y280000D02*
D03*
X176850D02*
D03*
X183150Y260000D02*
D03*
X176850D02*
D03*
X183150Y290000D02*
D03*
X176850D02*
D03*
X140650Y305000D02*
D03*
X134351D02*
D03*
X156421Y314718D02*
D03*
X162721D02*
D03*
X156422Y352718D02*
D03*
X162721D02*
D03*
X156422Y365218D02*
D03*
X162721D02*
D03*
X156421Y334718D02*
D03*
X162721D02*
D03*
D52*
X269055Y325827D02*
D03*
Y323858D02*
D03*
Y321890D02*
D03*
Y319921D02*
D03*
X269055Y317953D02*
D03*
Y315984D02*
D03*
X269055Y314016D02*
D03*
Y312047D02*
D03*
Y310079D02*
D03*
Y308110D02*
D03*
Y306142D02*
D03*
Y304173D02*
D03*
X300945D02*
D03*
X300945Y306142D02*
D03*
X300945Y308110D02*
D03*
Y310079D02*
D03*
Y312047D02*
D03*
Y314016D02*
D03*
X300945Y315984D02*
D03*
Y317953D02*
D03*
X300945Y319921D02*
D03*
Y321890D02*
D03*
Y323858D02*
D03*
X300945Y325827D02*
D03*
D53*
X274173Y299055D02*
D03*
X276142Y299055D02*
D03*
X278110Y299055D02*
D03*
X280079Y299055D02*
D03*
X282047Y299055D02*
D03*
X284016Y299055D02*
D03*
X285984Y299055D02*
D03*
X287953Y299055D02*
D03*
X289921Y299055D02*
D03*
X291890D02*
D03*
X293858Y299055D02*
D03*
X295827Y299055D02*
D03*
Y330945D02*
D03*
X293858D02*
D03*
X291890Y330945D02*
D03*
X289921D02*
D03*
X287953Y330945D02*
D03*
X285984D02*
D03*
X284016D02*
D03*
X282047D02*
D03*
X280079Y330945D02*
D03*
X278110D02*
D03*
X276142Y330945D02*
D03*
X274173D02*
D03*
D54*
X303642Y170000D02*
D03*
X296358D02*
D03*
X303642Y160000D02*
D03*
X296358D02*
D03*
X303642Y150000D02*
D03*
X296358D02*
D03*
X303642Y140000D02*
D03*
X296358D02*
D03*
X303642Y130000D02*
D03*
X296358D02*
D03*
X303642Y120000D02*
D03*
X296358D02*
D03*
X133858Y295000D02*
D03*
X141142D02*
D03*
D55*
X270000Y416642D02*
D03*
Y409358D02*
D03*
X280000Y191358D02*
D03*
X280000Y198642D02*
D03*
X300000Y191358D02*
D03*
Y198642D02*
D03*
X290000Y191358D02*
D03*
Y198642D02*
D03*
D56*
X280000Y214429D02*
D03*
Y205571D02*
D03*
X290000Y214429D02*
D03*
Y205571D02*
D03*
X300000Y214429D02*
D03*
Y205571D02*
D03*
D57*
X217500Y171000D02*
D03*
X212500D02*
D03*
X207500D02*
D03*
X202500D02*
D03*
X197500D02*
D03*
X192500D02*
D03*
X187500D02*
D03*
X182500D02*
D03*
Y149000D02*
D03*
X187500D02*
D03*
X192500D02*
D03*
X197500D02*
D03*
X202500D02*
D03*
X207500D02*
D03*
X212500D02*
D03*
X217500D02*
D03*
D58*
X179400Y428500D02*
D03*
Y433500D02*
D03*
Y438500D02*
D03*
Y443500D02*
D03*
X158148Y428500D02*
D03*
Y433500D02*
D03*
Y438500D02*
D03*
Y443500D02*
D03*
D59*
X164000Y379063D02*
D03*
D60*
Y386937D02*
D03*
D61*
X150000Y480000D02*
D03*
Y110000D02*
D03*
X230000D02*
D03*
Y120000D02*
D03*
X180000D02*
D03*
X170000D02*
D03*
X230000Y220000D02*
D03*
X220000D02*
D03*
X210000D02*
D03*
X200000D02*
D03*
X190000D02*
D03*
X180000D02*
D03*
X170000D02*
D03*
X220000Y110000D02*
D03*
Y120000D02*
D03*
X210000Y110000D02*
D03*
Y120000D02*
D03*
X200000Y110000D02*
D03*
Y120000D02*
D03*
X190000Y110000D02*
D03*
Y120000D02*
D03*
X180000Y110000D02*
D03*
X170000D02*
D03*
X320000Y120000D02*
D03*
Y130000D02*
D03*
Y140000D02*
D03*
Y150000D02*
D03*
Y160000D02*
D03*
Y170000D02*
D03*
X420000Y120000D02*
D03*
Y130000D02*
D03*
Y140000D02*
D03*
Y150000D02*
D03*
Y160000D02*
D03*
Y170000D02*
D03*
X200000Y310000D02*
D03*
X340000Y230000D02*
D03*
X260000D02*
D03*
X240000D02*
D03*
X230000D02*
D03*
X370000Y290000D02*
D03*
X200000Y260000D02*
D03*
Y270000D02*
D03*
Y320000D02*
D03*
Y330000D02*
D03*
Y340000D02*
D03*
Y360000D02*
D03*
X240000Y400000D02*
D03*
X270000D02*
D03*
X370000Y260000D02*
D03*
X370000Y270000D02*
D03*
Y280000D02*
D03*
X200000Y350000D02*
D03*
X370000Y300000D02*
D03*
X310000Y400000D02*
D03*
X370000Y310000D02*
D03*
X370000Y320000D02*
D03*
X370000Y330000D02*
D03*
Y340000D02*
D03*
X370000Y350000D02*
D03*
X340000Y400000D02*
D03*
X330000D02*
D03*
X320000Y400000D02*
D03*
X300000D02*
D03*
X290000Y400000D02*
D03*
X280000Y400000D02*
D03*
X260000D02*
D03*
X250000Y400000D02*
D03*
X370000Y360000D02*
D03*
X320016Y230000D02*
D03*
X310000D02*
D03*
X300000D02*
D03*
X290000D02*
D03*
X280000D02*
D03*
X270000D02*
D03*
X230000Y400000D02*
D03*
X250000Y230000D02*
D03*
X200000Y370000D02*
D03*
Y290000D02*
D03*
X330000Y230000D02*
D03*
X370000Y370000D02*
D03*
X200000Y300000D02*
D03*
Y280000D02*
D03*
X190000Y480000D02*
D03*
X170000D02*
D03*
X390000Y430000D02*
D03*
X400000D02*
D03*
X420000D02*
D03*
X410000D02*
D03*
X450000D02*
D03*
X440000D02*
D03*
X430000D02*
D03*
X460000D02*
D03*
X480000D02*
D03*
X470000D02*
D03*
Y420000D02*
D03*
X480000D02*
D03*
X460000D02*
D03*
X430000D02*
D03*
X440000D02*
D03*
X450000D02*
D03*
X410000D02*
D03*
X420000D02*
D03*
X400000D02*
D03*
X390000D02*
D03*
Y400000D02*
D03*
X400000D02*
D03*
X420000D02*
D03*
X410000D02*
D03*
X450000D02*
D03*
X440000D02*
D03*
X430000D02*
D03*
X460000D02*
D03*
X480000D02*
D03*
X470000D02*
D03*
Y410000D02*
D03*
X480000D02*
D03*
X460000D02*
D03*
X430000D02*
D03*
X440000D02*
D03*
X450000D02*
D03*
X410000D02*
D03*
X420000D02*
D03*
X400000D02*
D03*
X390000D02*
D03*
Y380000D02*
D03*
X400000D02*
D03*
X420000D02*
D03*
X410000D02*
D03*
X450000D02*
D03*
X440000D02*
D03*
X430000D02*
D03*
X460000D02*
D03*
X480000D02*
D03*
X470000D02*
D03*
Y390000D02*
D03*
X480000D02*
D03*
X460000D02*
D03*
X430000D02*
D03*
X440000D02*
D03*
X450000D02*
D03*
X410000D02*
D03*
X420000D02*
D03*
X400000D02*
D03*
X390000D02*
D03*
Y360000D02*
D03*
X400000D02*
D03*
X420000D02*
D03*
X410000D02*
D03*
X450000D02*
D03*
X440000D02*
D03*
X430000D02*
D03*
X460000D02*
D03*
X480000D02*
D03*
X470000D02*
D03*
Y370000D02*
D03*
X480000D02*
D03*
X460000D02*
D03*
X430000D02*
D03*
X440000D02*
D03*
X450000D02*
D03*
X410000D02*
D03*
X420000D02*
D03*
X400000D02*
D03*
X390000D02*
D03*
Y340000D02*
D03*
X400000D02*
D03*
X420000D02*
D03*
X410000D02*
D03*
X450000D02*
D03*
X440000D02*
D03*
X430000D02*
D03*
X460000D02*
D03*
X480000D02*
D03*
X470000D02*
D03*
Y350000D02*
D03*
X480000D02*
D03*
X460000D02*
D03*
X430000D02*
D03*
X440000D02*
D03*
X450000D02*
D03*
X410000D02*
D03*
X420000D02*
D03*
X400000D02*
D03*
X390000D02*
D03*
Y440000D02*
D03*
X400000D02*
D03*
X420000D02*
D03*
X410000D02*
D03*
X450000D02*
D03*
X440000D02*
D03*
X430000D02*
D03*
X460000D02*
D03*
X480000D02*
D03*
X470000D02*
D03*
Y450000D02*
D03*
X480000D02*
D03*
X460000D02*
D03*
X430000D02*
D03*
X440000D02*
D03*
X450000D02*
D03*
X410000D02*
D03*
X420000D02*
D03*
X400000D02*
D03*
X390000D02*
D03*
Y270000D02*
D03*
X400000D02*
D03*
X420000D02*
D03*
X410000D02*
D03*
X450000D02*
D03*
X440000D02*
D03*
X430000D02*
D03*
X460000D02*
D03*
X480000D02*
D03*
X470000D02*
D03*
Y260000D02*
D03*
X480000D02*
D03*
X460000D02*
D03*
X430000D02*
D03*
X440000D02*
D03*
X450000D02*
D03*
X410000D02*
D03*
X420000D02*
D03*
X400000D02*
D03*
X390000D02*
D03*
Y290000D02*
D03*
X400000D02*
D03*
X420000D02*
D03*
X410000D02*
D03*
X450000D02*
D03*
X440000D02*
D03*
X430000D02*
D03*
X460000D02*
D03*
X480000D02*
D03*
X470000D02*
D03*
Y280000D02*
D03*
X480000D02*
D03*
X460000D02*
D03*
X430000D02*
D03*
X440000D02*
D03*
X450000D02*
D03*
X410000D02*
D03*
X420000D02*
D03*
X400000D02*
D03*
X390000D02*
D03*
Y310000D02*
D03*
X400000D02*
D03*
X420000D02*
D03*
X410000D02*
D03*
X450000D02*
D03*
X440000D02*
D03*
X430000D02*
D03*
X460000D02*
D03*
X480000D02*
D03*
X470000D02*
D03*
Y300000D02*
D03*
X480000D02*
D03*
X460000D02*
D03*
X430000D02*
D03*
X440000D02*
D03*
X450000D02*
D03*
X410000D02*
D03*
X420000D02*
D03*
X400000D02*
D03*
X390000D02*
D03*
Y330000D02*
D03*
X400000D02*
D03*
X420000D02*
D03*
X410000D02*
D03*
X450000D02*
D03*
X440000D02*
D03*
X430000D02*
D03*
X460000D02*
D03*
X480000D02*
D03*
X470000D02*
D03*
Y320000D02*
D03*
X480000D02*
D03*
X460000D02*
D03*
X430000D02*
D03*
X440000D02*
D03*
X450000D02*
D03*
X410000D02*
D03*
X420000D02*
D03*
X400000D02*
D03*
X390000D02*
D03*
Y240000D02*
D03*
X400000D02*
D03*
X420000D02*
D03*
X410000D02*
D03*
X450000D02*
D03*
X440000D02*
D03*
X430000D02*
D03*
X460000D02*
D03*
X480000D02*
D03*
X470000D02*
D03*
Y250000D02*
D03*
X480000D02*
D03*
X460000D02*
D03*
X430000D02*
D03*
X440000D02*
D03*
X450000D02*
D03*
X410000D02*
D03*
X420000D02*
D03*
X400000D02*
D03*
X390000D02*
D03*
Y220000D02*
D03*
X400000D02*
D03*
X420000D02*
D03*
X410000D02*
D03*
X450000D02*
D03*
X440000D02*
D03*
X430000D02*
D03*
X460000D02*
D03*
X480000D02*
D03*
X470000D02*
D03*
Y230000D02*
D03*
X480000D02*
D03*
X460000D02*
D03*
X430000D02*
D03*
X440000D02*
D03*
X450000D02*
D03*
X410000D02*
D03*
X420000D02*
D03*
X400000D02*
D03*
X390000D02*
D03*
Y200000D02*
D03*
X400000D02*
D03*
X420000D02*
D03*
X410000D02*
D03*
X450000D02*
D03*
X440000D02*
D03*
X430000D02*
D03*
X460000D02*
D03*
X480000D02*
D03*
X470000D02*
D03*
Y190000D02*
D03*
X480000D02*
D03*
X460000D02*
D03*
X430000D02*
D03*
X440000D02*
D03*
X450000D02*
D03*
X410000D02*
D03*
X420000D02*
D03*
X400000D02*
D03*
X390000D02*
D03*
X470000Y210000D02*
D03*
X480000D02*
D03*
X460000D02*
D03*
X430000D02*
D03*
X440000D02*
D03*
X450000D02*
D03*
X410000D02*
D03*
X420000D02*
D03*
X400000D02*
D03*
X390000D02*
D03*
X380000D02*
D03*
Y190000D02*
D03*
Y200000D02*
D03*
Y230000D02*
D03*
Y220000D02*
D03*
Y250000D02*
D03*
Y240000D02*
D03*
Y320000D02*
D03*
Y330000D02*
D03*
Y300000D02*
D03*
Y310000D02*
D03*
Y280000D02*
D03*
Y290000D02*
D03*
Y260000D02*
D03*
Y270000D02*
D03*
Y350000D02*
D03*
Y340000D02*
D03*
X390000Y480000D02*
D03*
X400000D02*
D03*
X420000D02*
D03*
X410000D02*
D03*
X450000D02*
D03*
X440000D02*
D03*
X430000D02*
D03*
Y470000D02*
D03*
X440000D02*
D03*
X450000D02*
D03*
X410000D02*
D03*
X420000D02*
D03*
X400000D02*
D03*
X390000D02*
D03*
X430000Y460000D02*
D03*
X440000D02*
D03*
X450000D02*
D03*
X410000D02*
D03*
X420000D02*
D03*
X400000D02*
D03*
X390000D02*
D03*
X460000Y150000D02*
D03*
X480000D02*
D03*
X470000D02*
D03*
Y140000D02*
D03*
X480000D02*
D03*
X460000D02*
D03*
Y170000D02*
D03*
X480000D02*
D03*
X470000D02*
D03*
Y160000D02*
D03*
X480000D02*
D03*
X460000D02*
D03*
X470000Y180000D02*
D03*
X480000D02*
D03*
X460000D02*
D03*
X320000Y470000D02*
D03*
X330000D02*
D03*
X350000D02*
D03*
X340000D02*
D03*
X380000D02*
D03*
X370000D02*
D03*
X360000D02*
D03*
Y480000D02*
D03*
X370000D02*
D03*
X380000D02*
D03*
X340000D02*
D03*
X350000D02*
D03*
X330000D02*
D03*
X320000D02*
D03*
X250000Y470000D02*
D03*
X260000D02*
D03*
X280000D02*
D03*
X270000D02*
D03*
X310000D02*
D03*
X300000D02*
D03*
X290000D02*
D03*
Y480000D02*
D03*
X300000D02*
D03*
X310000D02*
D03*
X270000D02*
D03*
X280000D02*
D03*
X260000D02*
D03*
X250000D02*
D03*
X230000Y450000D02*
D03*
X250000D02*
D03*
X240000D02*
D03*
X280000D02*
D03*
X270000D02*
D03*
X260000D02*
D03*
Y460000D02*
D03*
X270000D02*
D03*
X280000D02*
D03*
X240000D02*
D03*
X250000D02*
D03*
X230000D02*
D03*
Y480000D02*
D03*
X240000D02*
D03*
Y470000D02*
D03*
X230000D02*
D03*
X260000Y440000D02*
D03*
X270000D02*
D03*
X240000D02*
D03*
X250000D02*
D03*
X230000D02*
D03*
X380000Y460000D02*
D03*
Y450000D02*
D03*
Y420000D02*
D03*
Y430000D02*
D03*
Y440000D02*
D03*
Y410000D02*
D03*
X370000Y240000D02*
D03*
Y250000D02*
D03*
Y220000D02*
D03*
Y230000D02*
D03*
X360000Y240000D02*
D03*
Y250000D02*
D03*
Y230000D02*
D03*
X120000Y150000D02*
D03*
X110000D02*
D03*
X130000D02*
D03*
X150000D02*
D03*
X140000D02*
D03*
X120000Y170000D02*
D03*
X110000D02*
D03*
X130000D02*
D03*
X150000D02*
D03*
X140000D02*
D03*
Y160000D02*
D03*
X150000D02*
D03*
X130000D02*
D03*
X110000D02*
D03*
X120000D02*
D03*
Y240000D02*
D03*
X110000D02*
D03*
X130000D02*
D03*
X150000D02*
D03*
X140000D02*
D03*
X120000Y220000D02*
D03*
X110000D02*
D03*
X130000D02*
D03*
X150000D02*
D03*
X140000D02*
D03*
Y230000D02*
D03*
X150000D02*
D03*
X130000D02*
D03*
X110000D02*
D03*
X120000D02*
D03*
Y200000D02*
D03*
X110000D02*
D03*
X130000D02*
D03*
X150000D02*
D03*
X140000D02*
D03*
Y210000D02*
D03*
X150000D02*
D03*
X130000D02*
D03*
X110000D02*
D03*
X120000D02*
D03*
Y180000D02*
D03*
X110000D02*
D03*
X130000D02*
D03*
X150000D02*
D03*
X140000D02*
D03*
Y190000D02*
D03*
X150000D02*
D03*
X130000D02*
D03*
X110000D02*
D03*
X120000D02*
D03*
X110000Y360000D02*
D03*
X120000D02*
D03*
X140000D02*
D03*
X130000D02*
D03*
Y350000D02*
D03*
X140000D02*
D03*
X120000D02*
D03*
X110000D02*
D03*
X130000Y370000D02*
D03*
X140000D02*
D03*
X120000D02*
D03*
X110000D02*
D03*
Y330000D02*
D03*
X120000D02*
D03*
X140000D02*
D03*
X130000D02*
D03*
Y340000D02*
D03*
X140000D02*
D03*
X120000D02*
D03*
X110000D02*
D03*
D62*
X470000Y470000D02*
D03*
Y120000D02*
D03*
X120000D02*
D03*
Y470000D02*
D03*
D63*
X350000Y440000D02*
D03*
Y430000D02*
D03*
X340000Y440000D02*
D03*
Y430000D02*
D03*
X310000Y440000D02*
D03*
X320000Y430000D02*
D03*
Y440000D02*
D03*
X330000Y430000D02*
D03*
Y440000D02*
D03*
D64*
X310000Y430000D02*
D03*
D65*
X180000Y315394D02*
D03*
D66*
X180000Y334606D02*
D03*
D67*
X180000Y360165D02*
D03*
Y355835D02*
D03*
D68*
X135000Y438000D02*
D03*
X160000Y401000D02*
D03*
X186000Y387000D02*
D03*
X353000Y205000D02*
D03*
X277000Y316000D02*
D03*
X284000Y323000D02*
D03*
X280000Y308000D02*
D03*
X290000Y314000D02*
D03*
X401098Y137500D02*
D03*
X360115Y142500D02*
D03*
X360106Y152492D02*
D03*
Y162492D02*
D03*
X382106Y124492D02*
D03*
X156000Y306000D02*
D03*
X135000Y453000D02*
D03*
X191000Y451000D02*
D03*
X150000Y418000D02*
D03*
X247000Y310000D02*
D03*
M02*
