M48
;Layer_Color=6321
;FILE_FORMAT=2:5
INCH,LZ
;TYPE=PLATED
T1F00S00C0.01968
T2F00S00C0.02000
T3F00S00C0.02756
T4F00S00C0.03150
T5F00S00C0.03900
T6F00S00C0.04000
T7F00S00C0.12205
%
T01
X012Y0295835
Y0300165
T02
X0300114Y00825
X0300106Y0092492
Y0102492
X0304Y0135
X0322106Y0064492
X0341098Y00775
X0284Y0206
X02797Y02508
X02542Y02505
X02506Y02561
X02503Y02798
X028Y02798
X0096Y0246
X0098Y0317
X0136Y0334
X0131Y0391
X0075Y0393
Y0378
X018Y035
X0263Y0387
T03
X012Y0255394
X012Y0274606
T04
X0106Y0338063
Y0345937
T05
X021Y04
Y041
X022
Y04
X023
X024
X025
Y041
X024
X023
T06
X009Y005
X011
Y006
X012
X013
X014
X015
Y005
X014
X013
X012
X009Y009
X008
X007
X006
X005
Y01
Y011
X006
X007
X008
X009
Y01
X008
X007
X006
Y012
X005
Y013
Y014
X006
X007
X008
X009
Y015
X008
X007
X006
X005
X006Y013
X007
Y012
X008
X009
Y013
X008
X016Y006
X017
Y005
X016
X026Y006
Y007
Y008
Y009
Y01
Y011
X032Y013
X033
Y014
X034
X035
X036
X037
X038
X039
X04
X041
X042
Y013
X041
X04
X039
X038
X037
X036
X035
X034
X032Y014
X035Y015
X036
X037
X038
X039
X04
X041
X042
Y012
Y011
X041
X04
Y01
Y009
X041
X042
Y008
X041
X04
X041Y01
X042
X041Y012
X04
X036Y011
Y01
Y009
Y008
Y007
Y006
Y016
X037
X038
X039
X04
X041
X042
Y017
Y018
X041
X04
Y019
Y02
X041
X042
Y021
Y022
Y023
X041
X04
Y022
X041
Y021
X04
X039
Y02
Y019
Y018
Y017
X04
X041
Y019
X042
X038
Y018
Y017
X037
Y018
X036
X035
Y017
X036
X035Y016
X034
X033
X0320016
X037Y019
X037Y02
X038Y02
Y021
X037Y021
X037Y022
Y023
Y024
Y025
Y026
X038
X039
X04
Y027
Y028
Y029
X041
X042
Y028
X041
Y027
X042
Y026
X041
Y025
Y024
X04
Y025
X039
Y024
X038
Y023
Y022
X039
Y023
X038Y025
Y027
X037Y027
Y028
X038Y028
X039
Y027
Y029
Y03
X04
X041
X042
Y031
X041
X04
X039
X038
X037Y031
Y03
X038Y03
Y029
X037Y029
X042Y025
Y024
X031Y016
X03
X029
X028
X027
X026
X025
X024
X023
X022
X021
X02
X019
X017
X016
Y019
Y02
Y021
Y022
Y023
Y024
Y025
Y026
Y027
Y028
Y029
Y03
Y031
X008
Y03
X007
X006
X005
Y029
X006
X007
X008
Y028
Y027
X007
X006
X005
Y028
X006
X007
Y026
X006
X005
Y025
Y024
Y023
Y022
X006
Y023
Y024
Y025
X008Y026
Y021
Y02
Y019
Y018
X007
X006
X005
Y017
Y016
X006
X007
X008
X009
Y017
Y018
Y019
Y02
Y021
X007
X006
X005
Y02
X006
Y019
X005
X007
Y02
Y017
X008
X006
X011Y016
X012
X013
X014
X015
X007Y031
X006
X005
X009Y042
X011
X013
X019Y037
X02
X021Y037
X022Y037
X023Y037
X024Y037
X025Y037
X026Y037
X027Y037
X028Y037
X029Y037
X03
X031
X016Y034
Y033
X016Y032
X037
X037Y033
Y034
X039
X04
X041
X042
Y035
Y036
Y037
X041
X04
Y036
X041
Y035
X04
X039
Y036
Y037
Y038
X04
X041
X042
Y039
X041
X04
X039
X038
Y038
X037
Y039
Y04
X038
X039
Y041
X038
X037
X036
Y04
X035
X034
Y041
X035
Y042
X034
X033
Y041
X032Y042
X036
X037
X038
X039
X036Y039
X035
X036Y038
X037Y037
X038
Y036
Y032
X039
X04
Y033
X041
X042
Y032
X041
X039Y033
X034Y037
X033
X032Y037
T07
X006Y006
X041
X006Y041
X041
M30
