M48
;Layer_Color=6321
;FILE_FORMAT=2:5
INCH,LZ
;TYPE=PLATED
T1F00S00C0.01968
T2F00S00C0.02000
T3F00S00C0.02756
T4F00S00C0.03150
T5F00S00C0.03900
T6F00S00C0.04000
T7F00S00C0.12205
%
T01
X012Y0295835
Y0300165
T02
X0300114Y00825
X0300106Y0092492
Y0102492
X0293Y0145
X0322106Y0064492
X0341098Y00775
X0096Y0246
X0098Y0317
X0136Y0334
X0131Y0391
X0075Y0393
Y0378
T03
X012Y0255394
X012Y0274606
T04
X0106Y0338063
Y0345937
T05
X025Y037
Y038
X026
Y037
X027
X028
X029
Y038
X028
X027
T06
X009Y005
X011
Y006
X012
X013
X014
X015
Y005
X014
X013
X012
X009Y009
X008
X007
X006
X005
Y01
Y011
X006
X007
X008
X009
Y01
X008
X007
X006
Y012
X005
Y013
Y014
X006
X007
X008
X009
Y015
X008
X007
X006
X005
X006Y013
X007
Y012
X008
X009
Y013
X008
X016Y006
X017
Y005
X016
X026Y006
Y007
Y008
Y009
Y01
Y011
X032Y013
X033
Y014
X034
X035
X036
X037
X038
X039
X04
X041
X042
Y013
X041
X04
X039
X038
X037
X036
X035
X034
Y015
X035
X036
X037
X038
X039
X04
X041
X042
Y012
Y011
X041
X04
Y01
Y009
X041
X042
Y008
X041
X04
X041Y01
X042
X041Y012
X04
X036Y011
Y01
Y009
Y008
Y007
Y006
X033Y015
X032
Y014
X0788Y0189
X0798
X0808
X0818
X0828
X0838
X0848016
X0858
X0868
X0898Y0219
X0898Y0229
Y0239
X0898Y0249
Y0259
Y0269
Y0279
Y0289
X0898Y0299
Y0309
X0688Y0309
Y0299
Y0289
Y0279
Y0269
Y0259
Y0249
Y0239
Y0229
Y0219
X0718Y0189
X0728
X0738
X0748
X0758
X0768
X0778
X042Y019
Y02
Y021
X041
X04
X039
X038
X037
X036
X035
X034
X033
Y02
X034
X035
X036
X037
X038
X039
X04
X041
Y019
Y018
X04
X039
X038
X037
X036
X035
X034
X033
Y019
X034
X035
X036
X037
X038
X039
X04
Y017
Y016
X039
X038
X037
X036
X035
X034
X033
Y017
X034
X035
X036
X037
X038
X039
X041
Y016
X042
Y017
Y018
Y022
Y023
X041
X04
X039
X038
X037
X036
X035
X034
X033
Y022
X034
X035
X036
X037
X038
X039
X04
X041
Y024
Y025
X04
X039
X038
X037
X036
X035
X034
X033
Y024
X034
X035
X036
X037
X038
X039
X04
X042
Y025
Y026
Y027
Y028
X041
X04
X039
X038
X037
X036
X035
X034
X033
Y029
Y03
X034
X035
X036
X037
X038
X039
X04
X041
X042
Y031
X041
X04
X039
X038
X037
X036
X035
X034
X033
X034Y029
X035
X036
X037
X038
X039
X04
X041
X042
X041Y027
X04
X039
X038
X037
X036
X035
X034
X033
Y026
X034
X035
X036
X037
X038
X039
X04
X041
X032
Y027
Y028
Y029
Y025
Y024
Y023
Y022
Y021
Y02
Y019
Y018
Y017
Y016
X031
Y017
Y018
Y019
X03
Y018
Y017
X017Y016
X016
X015
X014
X013
X012
X011
X009
X008
X007
X006
X005
Y017
Y018
X006
X007
X008
X009
Y017
X008
X007
X006
Y027
X005
Y028
Y029
Y03
X006
X007
X008
Y029
X007
X006
Y028
X007
Y027
X008
Y028
Y031
X007
X006
X005
X009Y042
X011
X013
X017
X018
X019
Y041
X02
X021
X022
X023
X024
X025
X026
X027
X028
X029
X03
X031
Y042
X03
X029
X028
X027
X026
X025
X024
X023
X022
X021
X02
Y04
Y039
X019
X018
X017
Y04
X018
X019
X021
Y039
X022
Y04
X021Y038
X02
X019
X018
X017
Y041
X018
X032
X033
Y042
X034
X035
X036
X037
X038
X039
Y041
X038
X037
X036
X035
X034
Y04
Y039
Y038
Y037
X033
Y036
X034
X035
Y037
X036
X037
X038
X039
X04
X041
X042
Y036
X041
X04
X039
X038
X037
X036
Y035
Y034
X035
X034
X033
Y035
X034
X035
X037
Y034
X038
X039
X04
X041
X042
Y035
X041
X04
X039
X038
Y033
Y032
X039
X04
X041
X042
Y033
X041
X04
X039
X037
Y032
X036
X035
X034
X033
Y033
X034
X035
X036
Y038
X035
Y039
X036
X037
Y038
X038
X039
X04
X041
X042
Y039
X041
X04
X039
X038
Y04
X037
X036
X035
X033
Y039
Y038
X032
Y039
Y04
Y042
Y037
Y036
Y035
X039Y04
X0718Y0399
X0728
X0738Y0399
X0748Y0399
X0758Y0399
X0768Y0399
X0778Y0399
X0688Y0369
Y0359
X0688Y0349
X0688Y0339
Y0329
Y0319
X0788Y0399
X0798Y0399
X0808Y0399
X0818Y0399
X0828
X0838
X0848
X0858Y0399
X0868
X0898Y0369
Y0359
X0898Y0349
X0898Y0339
Y0329
X0898Y0319
T07
X006Y006
X041
X006Y041
X041
M30
