G04 Layer_Color=7318015*
%FSLAX25Y25*%
%MOIN*%
G70*
G01*
G75*
%ADD10R,0.04331X0.05118*%
%ADD11R,0.04921X0.06102*%
%ADD12R,0.05118X0.04331*%
%ADD13R,0.06102X0.04921*%
%ADD14O,0.02362X0.07480*%
%ADD15R,0.08000X0.02600*%
%ADD16R,0.02362X0.05118*%
G04:AMPARAMS|DCode=17|XSize=60mil|YSize=80mil|CornerRadius=15mil|HoleSize=0mil|Usage=FLASHONLY|Rotation=0.000|XOffset=0mil|YOffset=0mil|HoleType=Round|Shape=RoundedRectangle|*
%AMROUNDEDRECTD17*
21,1,0.06000,0.05000,0,0,0.0*
21,1,0.03000,0.08000,0,0,0.0*
1,1,0.03000,0.01500,-0.02500*
1,1,0.03000,-0.01500,-0.02500*
1,1,0.03000,-0.01500,0.02500*
1,1,0.03000,0.01500,0.02500*
%
%ADD17ROUNDEDRECTD17*%
D10*
X47445Y94500D02*
D03*
X40555D02*
D03*
X46445Y73500D02*
D03*
X39555D02*
D03*
X164445Y44500D02*
D03*
X157555D02*
D03*
X130445D02*
D03*
X123555D02*
D03*
D11*
X47535Y104500D02*
D03*
X39465D02*
D03*
X47035Y63500D02*
D03*
X38965D02*
D03*
X133465Y10000D02*
D03*
X141535D02*
D03*
X65965Y112500D02*
D03*
X74035D02*
D03*
X126535Y10000D02*
D03*
X118465D02*
D03*
X138965Y44500D02*
D03*
X147035D02*
D03*
D12*
X27500Y55945D02*
D03*
Y49055D02*
D03*
X90000Y55945D02*
D03*
Y49055D02*
D03*
Y70945D02*
D03*
Y64055D02*
D03*
X100000Y49055D02*
D03*
Y55945D02*
D03*
Y64055D02*
D03*
Y70945D02*
D03*
D13*
X152500Y65965D02*
D03*
Y74035D02*
D03*
D14*
X127500Y66811D02*
D03*
X132500D02*
D03*
X137500D02*
D03*
X142500D02*
D03*
X127500Y93189D02*
D03*
X132500D02*
D03*
X137500D02*
D03*
X142500D02*
D03*
D15*
X81600Y73800D02*
D03*
X57400D02*
D03*
X81600Y78800D02*
D03*
Y83800D02*
D03*
X57400Y78800D02*
D03*
Y83800D02*
D03*
X81600Y88800D02*
D03*
X57400D02*
D03*
X81600Y93800D02*
D03*
Y98800D02*
D03*
X57400Y93800D02*
D03*
Y98800D02*
D03*
X81600Y103800D02*
D03*
X57400D02*
D03*
D16*
X157500Y18366D02*
D03*
X153760Y26634D02*
D03*
X161240D02*
D03*
D17*
X60000Y30500D02*
D03*
X50000D02*
D03*
X40000D02*
D03*
X70000D02*
D03*
X80000D02*
D03*
X90000D02*
D03*
X100000D02*
D03*
M02*
