G04 Layer_Color=13813960*
%FSLAX25Y25*%
%MOIN*%
G70*
G01*
G75*
%ADD18C,0.01000*%
G36*
X93000Y112500D02*
X88000Y107500D01*
Y117500D01*
X93000Y112500D01*
D02*
G37*
D18*
X130901Y45198D02*
X132901D01*
X131901D01*
Y40200D01*
X132901Y39200D01*
X133900D01*
X134900Y40200D01*
X128902Y39200D02*
Y45198D01*
X125903D01*
X124903Y44198D01*
Y42199D01*
X125903Y41199D01*
X128902D01*
X122904Y39200D02*
X120905D01*
X121904D01*
Y45198D01*
X122904Y44198D01*
X138500Y15498D02*
X134501D01*
Y14498D01*
X138500Y10500D01*
Y9500D01*
X132502Y14498D02*
X131502Y15498D01*
X129503D01*
X128503Y14498D01*
Y13499D01*
X129503Y12499D01*
X128503Y11499D01*
Y10500D01*
X129503Y9500D01*
X131502D01*
X132502Y10500D01*
Y11499D01*
X131502Y12499D01*
X132502Y13499D01*
Y14498D01*
X131502Y12499D02*
X129503D01*
X126504Y15498D02*
Y9500D01*
X122505D01*
X120506Y14498D02*
X119506Y15498D01*
X117507D01*
X116507Y14498D01*
Y10500D01*
X117507Y9500D01*
X119506D01*
X120506Y10500D01*
Y14498D01*
X110509Y15498D02*
X114508D01*
Y12499D01*
X112508Y13499D01*
X111509D01*
X110509Y12499D01*
Y10500D01*
X111509Y9500D01*
X113508D01*
X114508Y10500D01*
X9498Y52500D02*
Y54499D01*
Y53500D01*
X3500D01*
Y52500D01*
Y54499D01*
Y57498D02*
X9498D01*
Y60497D01*
X8498Y61497D01*
X6499D01*
X5499Y60497D01*
Y57498D01*
Y59498D02*
X3500Y61497D01*
X9498Y67495D02*
Y63496D01*
X6499D01*
Y65496D01*
Y63496D01*
X3500D01*
X4500Y69494D02*
X3500Y70494D01*
Y72493D01*
X4500Y73493D01*
X8498D01*
X9498Y72493D01*
Y70494D01*
X8498Y69494D01*
X7499D01*
X6499Y70494D01*
Y73493D01*
X9498Y79491D02*
Y75493D01*
X6499D01*
X7499Y77492D01*
Y78492D01*
X6499Y79491D01*
X4500D01*
X3500Y78492D01*
Y76492D01*
X4500Y75493D01*
X3500Y84490D02*
X9498D01*
X6499Y81491D01*
Y85489D01*
X8498Y87489D02*
X9498Y88488D01*
Y90488D01*
X8498Y91487D01*
X4500D01*
X3500Y90488D01*
Y88488D01*
X4500Y87489D01*
X8498D01*
X181500Y10500D02*
Y13499D01*
X182500Y14499D01*
X183499Y13499D01*
Y11500D01*
X184499Y10500D01*
X185499Y11500D01*
Y14499D01*
X181500Y17498D02*
Y19497D01*
X182500Y20497D01*
X184499D01*
X185499Y19497D01*
Y17498D01*
X184499Y16498D01*
X182500D01*
X181500Y17498D01*
Y23496D02*
X186498D01*
X184499D01*
Y22496D01*
Y24496D01*
Y23496D01*
X186498D01*
X187498Y24496D01*
X186498Y28494D02*
X185499D01*
Y27494D01*
Y29494D01*
Y28494D01*
X182500D01*
X181500Y29494D01*
Y33493D02*
Y35492D01*
X182500Y36492D01*
X184499D01*
X185499Y35492D01*
Y33493D01*
X184499Y32493D01*
X182500D01*
X181500Y33493D01*
Y39491D02*
X186498D01*
X184499D01*
Y38491D01*
Y40490D01*
Y39491D01*
X186498D01*
X187498Y40490D01*
X181500Y44489D02*
X186498D01*
X184499D01*
Y43489D01*
Y45489D01*
Y44489D01*
X186498D01*
X187498Y45489D01*
X185499Y54486D02*
X181500D01*
X183499D01*
X184499Y55485D01*
X185499Y56485D01*
Y57485D01*
X181500Y63483D02*
Y61484D01*
X182500Y60484D01*
X184499D01*
X185499Y61484D01*
Y63483D01*
X184499Y64482D01*
X183499D01*
Y60484D01*
X185499Y66482D02*
X181500Y68481D01*
X185499Y70481D01*
X181500Y72480D02*
Y74479D01*
Y73480D01*
X187498D01*
X186498Y72480D01*
X170667Y61167D02*
X169751D01*
X168834Y62084D01*
Y66666D01*
X171584D01*
X172500Y65749D01*
Y63916D01*
X171584Y63000D01*
X168834D01*
X167002D02*
X165169D01*
X166085D01*
Y66666D01*
X167002D01*
X161504Y67582D02*
Y66666D01*
X162420D01*
X160587D01*
X161504D01*
Y63916D01*
X160587Y63000D01*
X157838Y68498D02*
Y63000D01*
Y65749D01*
X156922Y66666D01*
X155089D01*
X154173Y65749D01*
Y63000D01*
X152340Y66666D02*
Y63916D01*
X151424Y63000D01*
X148674D01*
Y66666D01*
X146842Y68498D02*
Y63000D01*
X144093D01*
X143176Y63916D01*
Y64833D01*
Y65749D01*
X144093Y66666D01*
X146842D01*
X141343Y63000D02*
Y63916D01*
X140427D01*
Y63000D01*
X141343D01*
X133096Y66666D02*
X135845D01*
X136762Y65749D01*
Y63916D01*
X135845Y63000D01*
X133096D01*
X130347D02*
X128514D01*
X127598Y63916D01*
Y65749D01*
X128514Y66666D01*
X130347D01*
X131263Y65749D01*
Y63916D01*
X130347Y63000D01*
X125765D02*
Y66666D01*
X124849D01*
X123932Y65749D01*
Y63000D01*
Y65749D01*
X123016Y66666D01*
X122100Y65749D01*
Y63000D01*
X120267D02*
X116601Y66666D01*
X114769Y61167D02*
X113852D01*
X112936Y62084D01*
Y66666D01*
X108354Y63000D02*
X106521D01*
X105605Y63916D01*
Y65749D01*
X106521Y66666D01*
X108354D01*
X109271Y65749D01*
Y63916D01*
X108354Y63000D01*
X103772Y68498D02*
Y63000D01*
Y65749D01*
X102856Y66666D01*
X101023D01*
X100107Y65749D01*
Y63000D01*
X98274D02*
Y66666D01*
X95525D01*
X94609Y65749D01*
Y63000D01*
X89110Y68498D02*
Y63000D01*
X91859D01*
X92776Y63916D01*
Y65749D01*
X91859Y66666D01*
X89110D01*
X86361Y63000D02*
X84528D01*
X83612Y63916D01*
Y65749D01*
X84528Y66666D01*
X86361D01*
X87278Y65749D01*
Y63916D01*
X86361Y63000D01*
X79030D02*
X80863D01*
X81779Y63916D01*
Y65749D01*
X80863Y66666D01*
X79030D01*
X78114Y65749D01*
Y64833D01*
X81779D01*
X76281Y67582D02*
X75365Y68498D01*
X73532D01*
X72616Y67582D01*
Y66666D01*
X73532Y65749D01*
X74448D01*
X73532D01*
X72616Y64833D01*
Y63916D01*
X73532Y63000D01*
X75365D01*
X76281Y63916D01*
X70783Y63000D02*
X68950D01*
X69867D01*
Y68498D01*
X70783Y67582D01*
X63452Y63000D02*
Y68498D01*
X66201Y65749D01*
X62536D01*
X60703Y63000D02*
X58870D01*
X59786D01*
Y68498D01*
X60703Y67582D01*
X52456Y68498D02*
X56121D01*
Y65749D01*
X54288Y66666D01*
X53372D01*
X52456Y65749D01*
Y63916D01*
X53372Y63000D01*
X55205D01*
X56121Y63916D01*
X50623Y63000D02*
X46957Y66666D01*
X45125Y61167D02*
Y66666D01*
X42375D01*
X41459Y65749D01*
Y63916D01*
X42375Y63000D01*
X45125D01*
X35961Y66666D02*
X38710D01*
X39626Y65749D01*
Y63916D01*
X38710Y63000D01*
X35961D01*
X34128Y68498D02*
Y63000D01*
X31379D01*
X30463Y63916D01*
Y64833D01*
Y65749D01*
X31379Y66666D01*
X34128D01*
X28630Y63000D02*
X25881D01*
X24964Y63916D01*
X25881Y64833D01*
X27714D01*
X28630Y65749D01*
X27714Y66666D01*
X24964D01*
X95500Y83500D02*
X100498D01*
Y85999D01*
X99665Y86832D01*
X97999D01*
X97166Y85999D01*
Y83500D01*
Y85166D02*
X95500Y86832D01*
X100498Y91831D02*
Y88498D01*
X95500D01*
Y91831D01*
X97999Y88498D02*
Y90165D01*
X99665Y96829D02*
X100498Y95996D01*
Y94330D01*
X99665Y93497D01*
X98832D01*
X97999Y94330D01*
Y95996D01*
X97166Y96829D01*
X96333D01*
X95500Y95996D01*
Y94330D01*
X96333Y93497D01*
X100498Y101827D02*
Y98495D01*
X95500D01*
Y101827D01*
X97999Y98495D02*
Y100161D01*
X100498Y103493D02*
Y106826D01*
Y105160D01*
X95500D01*
X110498Y93497D02*
X107166D01*
X105500Y95163D01*
X107166Y96829D01*
X110498D01*
X108832Y101827D02*
Y99328D01*
X107999Y98495D01*
X106333D01*
X105500Y99328D01*
Y101827D01*
X108832Y106826D02*
Y104327D01*
X107999Y103493D01*
X106333D01*
X105500Y104327D01*
Y106826D01*
X119665Y96829D02*
X120498Y95996D01*
Y94330D01*
X119665Y93497D01*
X118832D01*
X117999Y94330D01*
Y95996D01*
X117166Y96829D01*
X116333D01*
X115500Y95996D01*
Y94330D01*
X116333Y93497D01*
X119665Y101827D02*
X120498Y100994D01*
Y99328D01*
X119665Y98495D01*
X116333D01*
X115500Y99328D01*
Y100994D01*
X116333Y101827D01*
X120498Y103493D02*
X115500D01*
X117166D01*
X120498Y106826D01*
X117999Y104327D01*
X115500Y106826D01*
X125500Y89331D02*
X130498D01*
X128832Y90998D01*
X130498Y92664D01*
X125500D01*
X130498Y94330D02*
Y95996D01*
Y95163D01*
X125500D01*
Y94330D01*
Y95996D01*
X129665Y101827D02*
X130498Y100994D01*
Y99328D01*
X129665Y98495D01*
X128832D01*
X127999Y99328D01*
Y100994D01*
X127166Y101827D01*
X126333D01*
X125500Y100994D01*
Y99328D01*
X126333Y98495D01*
X130498Y105993D02*
Y104327D01*
X129665Y103493D01*
X126333D01*
X125500Y104327D01*
Y105993D01*
X126333Y106826D01*
X129665D01*
X130498Y105993D01*
X135500Y90165D02*
X140498D01*
X138832Y91831D01*
X140498Y93497D01*
X135500D01*
X140498Y97662D02*
Y95996D01*
X139665Y95163D01*
X136333D01*
X135500Y95996D01*
Y97662D01*
X136333Y98495D01*
X139665D01*
X140498Y97662D01*
X139665Y103493D02*
X140498Y102661D01*
Y100994D01*
X139665Y100161D01*
X138832D01*
X137999Y100994D01*
Y102661D01*
X137166Y103493D01*
X136333D01*
X135500Y102661D01*
Y100994D01*
X136333Y100161D01*
X140498Y105160D02*
Y106826D01*
Y105993D01*
X135500D01*
Y105160D01*
Y106826D01*
X149665Y96829D02*
X150498Y95996D01*
Y94330D01*
X149665Y93497D01*
X146333D01*
X145500Y94330D01*
Y95996D01*
X146333Y96829D01*
X147999D01*
Y95163D01*
X145500Y98495D02*
X150498D01*
X145500Y101827D01*
X150498D01*
Y103493D02*
X145500D01*
Y105993D01*
X146333Y106826D01*
X149665D01*
X150498Y105993D01*
Y103493D01*
M02*
