G04 Layer_Color=15132400*
%FSLAX25Y25*%
%MOIN*%
G70*
G01*
G75*
%ADD18C,0.01000*%
%ADD33C,0.00984*%
%ADD34C,0.02362*%
%ADD35C,0.00600*%
%ADD36C,0.00787*%
%ADD37C,0.00200*%
G36*
X131250Y98500D02*
X113750D01*
Y108500D01*
X131250D01*
Y98500D01*
D02*
G37*
G36*
X104800Y20000D02*
X104800D01*
Y7000D01*
X34800D01*
Y20000D01*
X34800D01*
X39800Y25000D01*
X44800Y20000D01*
X44800D01*
X49800Y25000D01*
X54800Y20000D01*
X54800D01*
X59800Y25000D01*
X64800Y20000D01*
X64800D01*
X69800Y25000D01*
X74800Y20000D01*
X74800D01*
X79800Y25000D01*
X84800Y20000D01*
X84800D01*
X89800Y25000D01*
X94800Y20000D01*
X94800D01*
X99800Y25000D01*
X104800Y20000D01*
D02*
G37*
G36*
X102500Y103000D02*
X92500D01*
X97500Y108000D01*
X102500Y103000D01*
D02*
G37*
%LPC*%
G36*
X91751Y14822D02*
X91101D01*
Y12679D01*
X90058D01*
Y14605D01*
X89409D01*
Y12679D01*
X88560D01*
Y14750D01*
X87910D01*
Y11902D01*
X91751D01*
Y14822D01*
D02*
G37*
G36*
X57880Y15388D02*
Y14561D01*
X60721Y13623D01*
X57880Y12646D01*
Y11808D01*
X61720Y13184D01*
Y14022D01*
X57880Y15388D01*
D02*
G37*
G36*
X50413Y14605D02*
X50352D01*
X50236Y14600D01*
X50125Y14589D01*
X50025Y14566D01*
X49925Y14544D01*
X49836Y14511D01*
X49747Y14478D01*
X49670Y14439D01*
X49597Y14405D01*
X49536Y14367D01*
X49475Y14328D01*
X49431Y14295D01*
X49387Y14261D01*
X49359Y14239D01*
X49331Y14217D01*
X49320Y14206D01*
X49314Y14200D01*
X49242Y14122D01*
X49181Y14039D01*
X49126Y13956D01*
X49076Y13867D01*
X49037Y13778D01*
X49003Y13695D01*
X48976Y13612D01*
X48954Y13529D01*
X48937Y13456D01*
X48926Y13384D01*
X48915Y13323D01*
X48909Y13268D01*
X48904Y13223D01*
Y13190D01*
Y13168D01*
Y13162D01*
X48909Y13012D01*
X48931Y12874D01*
X48959Y12746D01*
X48992Y12635D01*
X49015Y12591D01*
X49031Y12546D01*
X49042Y12507D01*
X49059Y12480D01*
X49070Y12452D01*
X49081Y12435D01*
X49087Y12424D01*
Y12419D01*
X49165Y12302D01*
X49248Y12202D01*
X49336Y12113D01*
X49420Y12041D01*
X49498Y11986D01*
X49558Y11941D01*
X49581Y11925D01*
X49597Y11919D01*
X49608Y11908D01*
X49614D01*
X49742Y11847D01*
X49869Y11808D01*
X49986Y11775D01*
X50091Y11752D01*
X50186Y11742D01*
X50225Y11736D01*
X50258D01*
X50280Y11730D01*
X50319D01*
X50491Y11736D01*
X50652Y11758D01*
X50791Y11786D01*
X50852Y11802D01*
X50907Y11819D01*
X50957Y11836D01*
X51002Y11852D01*
X51040Y11869D01*
X51074Y11880D01*
X51101Y11891D01*
X51118Y11902D01*
X51129Y11908D01*
X51135D01*
X51251Y11986D01*
X51351Y12069D01*
X51440Y12158D01*
X51512Y12241D01*
X51568Y12319D01*
X51607Y12380D01*
X51623Y12402D01*
X51634Y12419D01*
X51640Y12430D01*
Y12435D01*
X51695Y12568D01*
X51740Y12696D01*
X51767Y12818D01*
X51790Y12935D01*
X51801Y13029D01*
X51806Y13068D01*
Y13101D01*
X51812Y13129D01*
Y13151D01*
Y13162D01*
Y13168D01*
X51806Y13284D01*
X51795Y13390D01*
X51773Y13495D01*
X51745Y13590D01*
X51718Y13684D01*
X51684Y13767D01*
X51645Y13845D01*
X51607Y13917D01*
X51568Y13978D01*
X51529Y14034D01*
X51495Y14084D01*
X51468Y14122D01*
X51440Y14156D01*
X51418Y14178D01*
X51407Y14189D01*
X51401Y14195D01*
X51318Y14267D01*
X51235Y14328D01*
X51151Y14383D01*
X51063Y14433D01*
X50974Y14472D01*
X50885Y14505D01*
X50802Y14533D01*
X50718Y14555D01*
X50646Y14572D01*
X50574Y14583D01*
X50513Y14594D01*
X50458Y14600D01*
X50413Y14605D01*
D02*
G37*
G36*
X71792Y16126D02*
X69950D01*
X69855Y16120D01*
X69767Y16115D01*
X69700Y16104D01*
X69645Y16098D01*
X69606Y16087D01*
X69578Y16082D01*
X69572D01*
X69506Y16065D01*
X69450Y16043D01*
X69395Y16021D01*
X69350Y15993D01*
X69311Y15971D01*
X69284Y15954D01*
X69267Y15943D01*
X69262Y15937D01*
X69212Y15893D01*
X69167Y15843D01*
X69128Y15793D01*
X69095Y15743D01*
X69067Y15699D01*
X69051Y15660D01*
X69040Y15638D01*
X69034Y15626D01*
X69006Y15549D01*
X68984Y15471D01*
X68967Y15399D01*
X68956Y15332D01*
X68951Y15271D01*
X68945Y15221D01*
Y15193D01*
Y15188D01*
Y15182D01*
X68951Y15083D01*
X68967Y14983D01*
X68990Y14894D01*
X69017Y14805D01*
X69056Y14722D01*
X69095Y14650D01*
X69139Y14578D01*
X69178Y14516D01*
X69223Y14461D01*
X69267Y14411D01*
X69306Y14367D01*
X69345Y14333D01*
X69373Y14306D01*
X69395Y14283D01*
X69411Y14272D01*
X69417Y14267D01*
X69006D01*
Y13584D01*
X71792D01*
Y14322D01*
X70377D01*
X70305Y14328D01*
X70244Y14333D01*
X70183D01*
X70133Y14339D01*
X70083Y14344D01*
X70044Y14350D01*
X69977Y14361D01*
X69933Y14367D01*
X69905Y14378D01*
X69900D01*
X69839Y14400D01*
X69778Y14433D01*
X69733Y14467D01*
X69689Y14500D01*
X69661Y14533D01*
X69634Y14561D01*
X69622Y14578D01*
X69617Y14583D01*
X69583Y14644D01*
X69556Y14705D01*
X69539Y14761D01*
X69523Y14816D01*
X69517Y14861D01*
X69511Y14894D01*
Y14922D01*
Y14927D01*
X69517Y14983D01*
X69523Y15033D01*
X69534Y15071D01*
X69550Y15110D01*
X69567Y15144D01*
X69578Y15166D01*
X69583Y15177D01*
X69589Y15182D01*
X69617Y15221D01*
X69650Y15249D01*
X69717Y15299D01*
X69750Y15316D01*
X69772Y15327D01*
X69789Y15338D01*
X69794D01*
X69822Y15349D01*
X69855Y15355D01*
X69939Y15366D01*
X70039Y15377D01*
X70133Y15382D01*
X70227Y15388D01*
X71792D01*
Y16126D01*
D02*
G37*
G36*
X81720Y15593D02*
X79878D01*
X79783Y15588D01*
X79694Y15582D01*
X79628Y15571D01*
X79572Y15565D01*
X79534Y15554D01*
X79506Y15549D01*
X79500D01*
X79434Y15532D01*
X79378Y15510D01*
X79323Y15488D01*
X79278Y15460D01*
X79239Y15438D01*
X79212Y15421D01*
X79195Y15410D01*
X79189Y15404D01*
X79140Y15360D01*
X79095Y15310D01*
X79056Y15260D01*
X79023Y15210D01*
X78995Y15166D01*
X78979Y15127D01*
X78967Y15105D01*
X78962Y15094D01*
X78934Y15016D01*
X78912Y14938D01*
X78895Y14866D01*
X78884Y14799D01*
X78879Y14739D01*
X78873Y14688D01*
Y14661D01*
Y14655D01*
Y14650D01*
X78879Y14550D01*
X78895Y14450D01*
X78917Y14361D01*
X78945Y14272D01*
X78984Y14189D01*
X79023Y14117D01*
X79067Y14045D01*
X79106Y13984D01*
X79151Y13928D01*
X79195Y13878D01*
X79234Y13834D01*
X79273Y13801D01*
X79300Y13773D01*
X79323Y13751D01*
X79339Y13739D01*
X79345Y13734D01*
X78934D01*
Y13051D01*
X81720D01*
Y13789D01*
X80305D01*
X80233Y13795D01*
X80172Y13801D01*
X80111D01*
X80061Y13806D01*
X80011Y13812D01*
X79972Y13817D01*
X79905Y13828D01*
X79861Y13834D01*
X79833Y13845D01*
X79828D01*
X79767Y13867D01*
X79706Y13900D01*
X79661Y13934D01*
X79617Y13967D01*
X79589Y14000D01*
X79561Y14028D01*
X79550Y14045D01*
X79545Y14050D01*
X79511Y14111D01*
X79484Y14172D01*
X79467Y14228D01*
X79450Y14283D01*
X79445Y14328D01*
X79439Y14361D01*
Y14389D01*
Y14394D01*
X79445Y14450D01*
X79450Y14500D01*
X79461Y14539D01*
X79478Y14578D01*
X79495Y14611D01*
X79506Y14633D01*
X79511Y14644D01*
X79517Y14650D01*
X79545Y14688D01*
X79578Y14716D01*
X79645Y14766D01*
X79678Y14783D01*
X79700Y14794D01*
X79717Y14805D01*
X79722D01*
X79750Y14816D01*
X79783Y14822D01*
X79866Y14833D01*
X79966Y14844D01*
X80061Y14849D01*
X80155Y14855D01*
X81720D01*
Y15593D01*
D02*
G37*
G36*
X41792Y15765D02*
X37952D01*
Y15049D01*
X40538D01*
X37952Y13462D01*
Y12713D01*
X41792D01*
Y13429D01*
X39262D01*
X41792Y14988D01*
Y15765D01*
D02*
G37*
G36*
X101751Y13567D02*
X97910Y12025D01*
Y11203D01*
X101751Y9716D01*
Y10537D01*
X100879Y10853D01*
Y12396D01*
X101751Y12729D01*
Y13567D01*
D02*
G37*
G36*
X119783Y105420D02*
X119717D01*
X119572Y105415D01*
X119428Y105398D01*
X119300Y105370D01*
X119173Y105337D01*
X119062Y105298D01*
X118951Y105254D01*
X118856Y105204D01*
X118768Y105154D01*
X118684Y105104D01*
X118618Y105054D01*
X118557Y105010D01*
X118507Y104971D01*
X118468Y104937D01*
X118440Y104910D01*
X118423Y104893D01*
X118418Y104887D01*
X118329Y104782D01*
X118257Y104671D01*
X118190Y104554D01*
X118135Y104432D01*
X118085Y104305D01*
X118046Y104183D01*
X118013Y104060D01*
X117985Y103944D01*
X117963Y103827D01*
X117952Y103727D01*
X117941Y103633D01*
X117930Y103556D01*
Y103489D01*
X117924Y103439D01*
Y103406D01*
Y103400D01*
Y103395D01*
X117930Y103228D01*
X117946Y103073D01*
X117968Y102923D01*
X118002Y102790D01*
X118035Y102662D01*
X118079Y102540D01*
X118124Y102434D01*
X118168Y102340D01*
X118213Y102251D01*
X118257Y102174D01*
X118301Y102112D01*
X118335Y102057D01*
X118368Y102018D01*
X118390Y101985D01*
X118407Y101968D01*
X118412Y101963D01*
X118507Y101868D01*
X118607Y101791D01*
X118712Y101718D01*
X118818Y101663D01*
X118923Y101613D01*
X119028Y101569D01*
X119128Y101535D01*
X119223Y101508D01*
X119317Y101485D01*
X119400Y101469D01*
X119478Y101458D01*
X119539Y101452D01*
X119595Y101446D01*
X119633Y101441D01*
X119667D01*
X119783Y101446D01*
X119889Y101452D01*
X119994Y101469D01*
X120089Y101491D01*
X120177Y101513D01*
X120261Y101535D01*
X120338Y101563D01*
X120410Y101596D01*
X120472Y101624D01*
X120527Y101652D01*
X120577Y101674D01*
X120616Y101696D01*
X120649Y101718D01*
X120671Y101735D01*
X120682Y101741D01*
X120688Y101746D01*
X120760Y101807D01*
X120827Y101874D01*
X120949Y102024D01*
X121049Y102179D01*
X121126Y102329D01*
X121160Y102401D01*
X121187Y102468D01*
X121210Y102529D01*
X121232Y102579D01*
X121248Y102623D01*
X121260Y102656D01*
X121265Y102679D01*
Y102684D01*
X120510Y102917D01*
X120466Y102767D01*
X120416Y102640D01*
X120366Y102534D01*
X120310Y102445D01*
X120266Y102379D01*
X120227Y102334D01*
X120200Y102307D01*
X120188Y102296D01*
X120100Y102229D01*
X120011Y102185D01*
X119922Y102151D01*
X119844Y102124D01*
X119772Y102112D01*
X119711Y102107D01*
X119689Y102101D01*
X119661D01*
X119583Y102107D01*
X119511Y102112D01*
X119378Y102151D01*
X119262Y102196D01*
X119167Y102257D01*
X119089Y102312D01*
X119034Y102357D01*
X119012Y102379D01*
X118995Y102396D01*
X118990Y102401D01*
X118984Y102407D01*
X118940Y102468D01*
X118901Y102540D01*
X118862Y102618D01*
X118834Y102701D01*
X118790Y102873D01*
X118756Y103045D01*
X118745Y103128D01*
X118740Y103200D01*
X118729Y103272D01*
Y103333D01*
X118723Y103378D01*
Y103417D01*
Y103445D01*
Y103450D01*
X118729Y103578D01*
X118734Y103694D01*
X118745Y103800D01*
X118762Y103900D01*
X118784Y103988D01*
X118807Y104072D01*
X118829Y104144D01*
X118856Y104210D01*
X118879Y104266D01*
X118901Y104316D01*
X118923Y104355D01*
X118945Y104388D01*
X118962Y104416D01*
X118973Y104432D01*
X118984Y104444D01*
Y104449D01*
X119034Y104505D01*
X119089Y104554D01*
X119145Y104593D01*
X119206Y104627D01*
X119323Y104682D01*
X119434Y104721D01*
X119528Y104743D01*
X119572Y104749D01*
X119606Y104754D01*
X119639Y104760D01*
X119678D01*
X119789Y104754D01*
X119889Y104732D01*
X119977Y104704D01*
X120055Y104671D01*
X120116Y104638D01*
X120161Y104610D01*
X120188Y104588D01*
X120200Y104582D01*
X120272Y104516D01*
X120338Y104438D01*
X120388Y104360D01*
X120427Y104282D01*
X120455Y104216D01*
X120472Y104166D01*
X120483Y104144D01*
Y104127D01*
X120488Y104122D01*
Y104116D01*
X121254Y104299D01*
X121198Y104460D01*
X121137Y104599D01*
X121071Y104721D01*
X121010Y104821D01*
X120949Y104899D01*
X120927Y104932D01*
X120904Y104960D01*
X120888Y104976D01*
X120871Y104993D01*
X120865Y105004D01*
X120860D01*
X120777Y105076D01*
X120682Y105143D01*
X120594Y105198D01*
X120499Y105243D01*
X120399Y105287D01*
X120305Y105320D01*
X120211Y105348D01*
X120122Y105370D01*
X120039Y105387D01*
X119961Y105398D01*
X119894Y105409D01*
X119833Y105415D01*
X119783Y105420D01*
D02*
G37*
G36*
X126932Y105348D02*
X125516D01*
Y101508D01*
X126293D01*
Y102956D01*
X126982D01*
X127065Y102962D01*
X127143D01*
X127215Y102967D01*
X127281Y102973D01*
X127342Y102978D01*
X127392Y102984D01*
X127442D01*
X127481Y102989D01*
X127520Y102995D01*
X127548Y103000D01*
X127570D01*
X127587Y103006D01*
X127598D01*
X127675Y103028D01*
X127747Y103056D01*
X127814Y103084D01*
X127875Y103117D01*
X127925Y103145D01*
X127964Y103167D01*
X127986Y103184D01*
X127997Y103189D01*
X128069Y103245D01*
X128130Y103306D01*
X128191Y103372D01*
X128236Y103428D01*
X128275Y103483D01*
X128303Y103528D01*
X128319Y103556D01*
X128325Y103567D01*
X128369Y103661D01*
X128402Y103761D01*
X128425Y103866D01*
X128441Y103961D01*
X128452Y104038D01*
Y104077D01*
X128458Y104105D01*
Y104133D01*
Y104149D01*
Y104160D01*
Y104166D01*
X128447Y104327D01*
X128425Y104477D01*
X128386Y104599D01*
X128347Y104710D01*
X128325Y104754D01*
X128303Y104793D01*
X128286Y104826D01*
X128264Y104860D01*
X128253Y104882D01*
X128242Y104899D01*
X128230Y104904D01*
Y104910D01*
X128142Y105010D01*
X128053Y105093D01*
X127958Y105159D01*
X127875Y105209D01*
X127797Y105243D01*
X127736Y105271D01*
X127714Y105276D01*
X127698Y105281D01*
X127687Y105287D01*
X127681D01*
X127637Y105298D01*
X127581Y105309D01*
X127514Y105315D01*
X127448Y105320D01*
X127292Y105332D01*
X127137Y105343D01*
X126993D01*
X126932Y105348D01*
D02*
G37*
G36*
X117319D02*
X116542D01*
Y101508D01*
X117319D01*
Y105348D01*
D02*
G37*
G36*
X41276Y11991D02*
X39733D01*
Y10321D01*
X40383D01*
Y11209D01*
X40877D01*
X40927Y11142D01*
X40971Y11070D01*
X41010Y10998D01*
X41043Y10931D01*
X41071Y10876D01*
X41093Y10826D01*
X41104Y10798D01*
X41110Y10792D01*
Y10787D01*
X41143Y10698D01*
X41165Y10609D01*
X41182Y10526D01*
X41193Y10454D01*
X41199Y10387D01*
X41204Y10343D01*
Y10310D01*
Y10304D01*
Y10298D01*
X41199Y10210D01*
X41188Y10121D01*
X41171Y10043D01*
X41149Y9965D01*
X41093Y9827D01*
X41065Y9771D01*
X41032Y9716D01*
X40999Y9666D01*
X40971Y9621D01*
X40938Y9588D01*
X40916Y9555D01*
X40893Y9533D01*
X40877Y9516D01*
X40866Y9505D01*
X40860Y9499D01*
X40793Y9449D01*
X40716Y9399D01*
X40638Y9360D01*
X40555Y9327D01*
X40383Y9272D01*
X40216Y9238D01*
X40139Y9227D01*
X40061Y9216D01*
X40000Y9211D01*
X39939Y9205D01*
X39894Y9200D01*
X39828D01*
X39711Y9205D01*
X39606Y9211D01*
X39500Y9227D01*
X39406Y9244D01*
X39323Y9266D01*
X39245Y9294D01*
X39173Y9322D01*
X39106Y9349D01*
X39051Y9372D01*
X39001Y9399D01*
X38962Y9427D01*
X38929Y9449D01*
X38901Y9466D01*
X38884Y9483D01*
X38873Y9488D01*
X38868Y9494D01*
X38812Y9555D01*
X38756Y9616D01*
X38718Y9682D01*
X38679Y9749D01*
X38645Y9816D01*
X38618Y9882D01*
X38579Y10010D01*
X38568Y10071D01*
X38557Y10126D01*
X38551Y10176D01*
X38546Y10221D01*
X38540Y10254D01*
Y10282D01*
Y10298D01*
Y10304D01*
X38546Y10426D01*
X38568Y10532D01*
X38590Y10626D01*
X38623Y10709D01*
X38651Y10770D01*
X38679Y10820D01*
X38701Y10848D01*
X38707Y10859D01*
X38773Y10937D01*
X38845Y11003D01*
X38917Y11059D01*
X38990Y11098D01*
X39056Y11131D01*
X39106Y11153D01*
X39140Y11164D01*
X39145Y11170D01*
X39151D01*
X39006Y11941D01*
X38912Y11919D01*
X38818Y11886D01*
X38734Y11852D01*
X38657Y11808D01*
X38579Y11769D01*
X38512Y11725D01*
X38451Y11680D01*
X38396Y11636D01*
X38346Y11592D01*
X38301Y11553D01*
X38263Y11519D01*
X38235Y11486D01*
X38213Y11458D01*
X38190Y11436D01*
X38185Y11425D01*
X38179Y11419D01*
X38124Y11342D01*
X38080Y11259D01*
X38041Y11170D01*
X38007Y11075D01*
X37952Y10892D01*
X37918Y10715D01*
X37902Y10631D01*
X37896Y10554D01*
X37891Y10482D01*
X37885Y10421D01*
X37880Y10371D01*
Y10337D01*
Y10310D01*
Y10304D01*
X37885Y10104D01*
X37907Y9927D01*
X37924Y9849D01*
X37941Y9771D01*
X37957Y9699D01*
X37974Y9638D01*
X37996Y9583D01*
X38013Y9527D01*
X38030Y9488D01*
X38041Y9449D01*
X38057Y9422D01*
X38063Y9399D01*
X38074Y9388D01*
Y9383D01*
X38174Y9211D01*
X38235Y9138D01*
X38290Y9066D01*
X38351Y9000D01*
X38412Y8939D01*
X38473Y8883D01*
X38529Y8833D01*
X38585Y8794D01*
X38634Y8755D01*
X38679Y8722D01*
X38718Y8694D01*
X38751Y8678D01*
X38773Y8661D01*
X38790Y8656D01*
X38795Y8650D01*
X38884Y8606D01*
X38973Y8567D01*
X39156Y8506D01*
X39339Y8461D01*
X39500Y8434D01*
X39578Y8422D01*
X39645Y8411D01*
X39706Y8406D01*
X39761D01*
X39800Y8400D01*
X39861D01*
X40066Y8411D01*
X40255Y8434D01*
X40427Y8472D01*
X40510Y8489D01*
X40582Y8511D01*
X40649Y8534D01*
X40710Y8550D01*
X40760Y8572D01*
X40804Y8589D01*
X40838Y8600D01*
X40866Y8611D01*
X40882Y8622D01*
X40888D01*
X41054Y8717D01*
X41199Y8822D01*
X41326Y8933D01*
X41426Y9044D01*
X41471Y9094D01*
X41509Y9144D01*
X41543Y9183D01*
X41565Y9222D01*
X41587Y9250D01*
X41604Y9277D01*
X41609Y9288D01*
X41615Y9294D01*
X41659Y9383D01*
X41698Y9466D01*
X41759Y9649D01*
X41804Y9827D01*
X41831Y9988D01*
X41842Y10065D01*
X41853Y10132D01*
X41859Y10193D01*
Y10249D01*
X41865Y10287D01*
Y10321D01*
Y10343D01*
Y10348D01*
X41859Y10526D01*
X41837Y10693D01*
X41809Y10853D01*
X41776Y10992D01*
X41759Y11053D01*
X41743Y11109D01*
X41726Y11159D01*
X41715Y11203D01*
X41704Y11236D01*
X41693Y11259D01*
X41687Y11275D01*
Y11281D01*
X41620Y11447D01*
X41548Y11586D01*
X41476Y11708D01*
X41415Y11814D01*
X41359Y11891D01*
X41337Y11919D01*
X41315Y11947D01*
X41298Y11964D01*
X41287Y11980D01*
X41276Y11991D01*
D02*
G37*
G36*
X47910Y11514D02*
Y10687D01*
X50752Y9749D01*
X47910Y8772D01*
Y7934D01*
X51751Y9311D01*
Y10149D01*
X47910Y11514D01*
D02*
G37*
G36*
X123341Y105420D02*
X123274D01*
X123113Y105415D01*
X122969Y105398D01*
X122841Y105376D01*
X122730Y105354D01*
X122680Y105337D01*
X122636Y105326D01*
X122603Y105315D01*
X122569Y105304D01*
X122547Y105293D01*
X122530Y105287D01*
X122519Y105281D01*
X122514D01*
X122403Y105226D01*
X122309Y105165D01*
X122225Y105098D01*
X122159Y105037D01*
X122103Y104982D01*
X122070Y104937D01*
X122042Y104904D01*
X122037Y104899D01*
Y104893D01*
X121981Y104799D01*
X121942Y104699D01*
X121915Y104604D01*
X121898Y104521D01*
X121887Y104449D01*
X121876Y104394D01*
Y104371D01*
Y104355D01*
Y104349D01*
Y104344D01*
X121881Y104260D01*
X121892Y104177D01*
X121909Y104105D01*
X121931Y104033D01*
X121987Y103900D01*
X122053Y103783D01*
X122081Y103733D01*
X122114Y103694D01*
X122142Y103655D01*
X122170Y103622D01*
X122192Y103600D01*
X122209Y103583D01*
X122220Y103572D01*
X122225Y103567D01*
X122275Y103528D01*
X122336Y103489D01*
X122397Y103450D01*
X122469Y103417D01*
X122608Y103350D01*
X122752Y103295D01*
X122825Y103272D01*
X122886Y103250D01*
X122947Y103234D01*
X122997Y103217D01*
X123036Y103206D01*
X123069Y103195D01*
X123091Y103189D01*
X123097D01*
X123185Y103167D01*
X123263Y103145D01*
X123335Y103128D01*
X123402Y103112D01*
X123457Y103095D01*
X123507Y103084D01*
X123552Y103067D01*
X123591Y103056D01*
X123624Y103050D01*
X123652Y103039D01*
X123690Y103028D01*
X123713Y103017D01*
X123718D01*
X123790Y102989D01*
X123846Y102962D01*
X123896Y102934D01*
X123935Y102906D01*
X123962Y102884D01*
X123979Y102867D01*
X123990Y102856D01*
X123996Y102851D01*
X124023Y102812D01*
X124046Y102773D01*
X124057Y102734D01*
X124068Y102701D01*
X124073Y102667D01*
X124079Y102640D01*
Y102623D01*
Y102618D01*
X124073Y102540D01*
X124051Y102473D01*
X124018Y102407D01*
X123985Y102351D01*
X123946Y102307D01*
X123918Y102273D01*
X123896Y102251D01*
X123885Y102246D01*
X123807Y102196D01*
X123718Y102157D01*
X123624Y102129D01*
X123535Y102112D01*
X123452Y102101D01*
X123385Y102090D01*
X123324D01*
X123196Y102096D01*
X123085Y102118D01*
X122991Y102146D01*
X122908Y102179D01*
X122841Y102212D01*
X122797Y102240D01*
X122769Y102262D01*
X122758Y102268D01*
X122686Y102346D01*
X122630Y102429D01*
X122581Y102523D01*
X122547Y102618D01*
X122519Y102701D01*
X122497Y102767D01*
X122492Y102790D01*
Y102812D01*
X122486Y102823D01*
Y102828D01*
X121731Y102756D01*
X121748Y102640D01*
X121770Y102529D01*
X121803Y102423D01*
X121831Y102329D01*
X121870Y102240D01*
X121909Y102157D01*
X121948Y102085D01*
X121987Y102018D01*
X122026Y101963D01*
X122064Y101913D01*
X122098Y101868D01*
X122131Y101829D01*
X122153Y101802D01*
X122175Y101785D01*
X122186Y101774D01*
X122192Y101768D01*
X122270Y101707D01*
X122353Y101657D01*
X122442Y101613D01*
X122536Y101574D01*
X122625Y101546D01*
X122719Y101519D01*
X122902Y101480D01*
X122986Y101463D01*
X123063Y101452D01*
X123130Y101446D01*
X123191Y101441D01*
X123241Y101435D01*
X123313D01*
X123491Y101441D01*
X123652Y101458D01*
X123796Y101480D01*
X123857Y101491D01*
X123918Y101508D01*
X123968Y101519D01*
X124012Y101530D01*
X124051Y101541D01*
X124084Y101552D01*
X124112Y101563D01*
X124129Y101569D01*
X124140Y101574D01*
X124146D01*
X124268Y101635D01*
X124368Y101702D01*
X124462Y101768D01*
X124534Y101840D01*
X124590Y101902D01*
X124634Y101957D01*
X124656Y101990D01*
X124667Y101996D01*
Y102002D01*
X124728Y102112D01*
X124778Y102218D01*
X124812Y102323D01*
X124834Y102423D01*
X124845Y102501D01*
X124850Y102540D01*
X124856Y102568D01*
Y102590D01*
Y102606D01*
Y102618D01*
Y102623D01*
X124850Y102756D01*
X124834Y102873D01*
X124806Y102978D01*
X124778Y103067D01*
X124750Y103139D01*
X124723Y103189D01*
X124706Y103223D01*
X124701Y103234D01*
X124639Y103322D01*
X124567Y103400D01*
X124495Y103467D01*
X124429Y103522D01*
X124368Y103567D01*
X124318Y103600D01*
X124284Y103622D01*
X124279Y103628D01*
X124273D01*
X124218Y103655D01*
X124162Y103683D01*
X124029Y103733D01*
X123890Y103778D01*
X123757Y103822D01*
X123696Y103839D01*
X123635Y103855D01*
X123580Y103872D01*
X123535Y103883D01*
X123496Y103894D01*
X123468Y103900D01*
X123446Y103905D01*
X123441D01*
X123341Y103933D01*
X123252Y103955D01*
X123169Y103977D01*
X123091Y103999D01*
X123030Y104022D01*
X122969Y104044D01*
X122919Y104066D01*
X122875Y104083D01*
X122836Y104099D01*
X122808Y104116D01*
X122780Y104127D01*
X122764Y104138D01*
X122736Y104155D01*
X122730Y104160D01*
X122692Y104199D01*
X122664Y104238D01*
X122647Y104277D01*
X122636Y104316D01*
X122625Y104344D01*
X122619Y104371D01*
Y104388D01*
Y104394D01*
X122625Y104449D01*
X122636Y104493D01*
X122658Y104538D01*
X122680Y104571D01*
X122703Y104599D01*
X122725Y104616D01*
X122736Y104627D01*
X122741Y104632D01*
X122819Y104682D01*
X122902Y104716D01*
X122991Y104743D01*
X123074Y104760D01*
X123147Y104771D01*
X123208Y104777D01*
X123263D01*
X123380Y104771D01*
X123480Y104754D01*
X123563Y104732D01*
X123629Y104710D01*
X123685Y104688D01*
X123724Y104666D01*
X123746Y104649D01*
X123751Y104643D01*
X123807Y104588D01*
X123857Y104521D01*
X123896Y104455D01*
X123924Y104382D01*
X123946Y104321D01*
X123957Y104271D01*
X123968Y104233D01*
Y104227D01*
Y104221D01*
X124745Y104249D01*
X124739Y104349D01*
X124723Y104438D01*
X124701Y104527D01*
X124673Y104604D01*
X124645Y104682D01*
X124612Y104754D01*
X124578Y104815D01*
X124545Y104876D01*
X124506Y104926D01*
X124473Y104971D01*
X124440Y105010D01*
X124412Y105043D01*
X124390Y105065D01*
X124373Y105082D01*
X124362Y105093D01*
X124356Y105098D01*
X124284Y105154D01*
X124207Y105204D01*
X124123Y105248D01*
X124035Y105287D01*
X123946Y105315D01*
X123857Y105343D01*
X123679Y105381D01*
X123596Y105393D01*
X123524Y105404D01*
X123452Y105409D01*
X123391Y105415D01*
X123341Y105420D01*
D02*
G37*
G36*
X101751Y19800D02*
X100286Y18773D01*
X98965Y19711D01*
Y18851D01*
X99736Y18329D01*
X98965Y17841D01*
Y16942D01*
X100319Y17902D01*
X101751Y16897D01*
Y17758D01*
X100891Y18329D01*
X101751Y18901D01*
Y19800D01*
D02*
G37*
G36*
X51706D02*
X51135Y19733D01*
X51157Y19667D01*
X51174Y19606D01*
X51185Y19556D01*
X51190Y19511D01*
X51196Y19478D01*
X51201Y19456D01*
Y19439D01*
Y19434D01*
X51196Y19384D01*
X51185Y19345D01*
X51174Y19323D01*
X51168Y19312D01*
X51135Y19278D01*
X51107Y19262D01*
X51085Y19251D01*
X51074Y19245D01*
X51063D01*
X51040Y19240D01*
X50924D01*
X50857Y19234D01*
X49553D01*
Y19739D01*
X48965D01*
Y19234D01*
X47977D01*
X48410Y18496D01*
X48965D01*
Y18157D01*
X49553D01*
Y18496D01*
X50963D01*
X51013Y18501D01*
X51101D01*
X51174Y18507D01*
X51229Y18512D01*
X51262D01*
X51285Y18518D01*
X51290D01*
X51351Y18529D01*
X51407Y18546D01*
X51457Y18562D01*
X51495Y18579D01*
X51529Y18596D01*
X51551Y18607D01*
X51568Y18612D01*
X51573Y18618D01*
X51612Y18651D01*
X51645Y18690D01*
X51701Y18768D01*
X51718Y18801D01*
X51734Y18829D01*
X51740Y18851D01*
X51745Y18857D01*
X51767Y18918D01*
X51784Y18979D01*
X51795Y19040D01*
X51801Y19095D01*
X51806Y19145D01*
X51812Y19184D01*
Y19206D01*
Y19217D01*
X51806Y19334D01*
X51795Y19445D01*
X51779Y19545D01*
X51756Y19628D01*
X51740Y19700D01*
X51723Y19756D01*
X51712Y19789D01*
X51706Y19794D01*
Y19800D01*
D02*
G37*
G36*
X91751Y18019D02*
X90286Y16992D01*
X88965Y17930D01*
Y17070D01*
X89736Y16548D01*
X88965Y16059D01*
Y15160D01*
X90319Y16120D01*
X91751Y15116D01*
Y15976D01*
X90891Y16548D01*
X91751Y17119D01*
Y18019D01*
D02*
G37*
G36*
X81720Y19800D02*
X80971Y19328D01*
X80893Y19278D01*
X80816Y19228D01*
X80749Y19184D01*
X80688Y19140D01*
X80632Y19101D01*
X80577Y19067D01*
X80494Y19001D01*
X80427Y18951D01*
X80383Y18918D01*
X80355Y18890D01*
X80349Y18884D01*
X80283Y18823D01*
X80222Y18751D01*
X80172Y18685D01*
X80122Y18618D01*
X80083Y18562D01*
X80055Y18518D01*
X80033Y18485D01*
X80028Y18479D01*
Y18474D01*
X80011Y18568D01*
X79989Y18651D01*
X79966Y18729D01*
X79939Y18807D01*
X79911Y18873D01*
X79883Y18934D01*
X79855Y18995D01*
X79822Y19045D01*
X79794Y19090D01*
X79767Y19128D01*
X79739Y19162D01*
X79717Y19184D01*
X79700Y19206D01*
X79683Y19223D01*
X79678Y19228D01*
X79672Y19234D01*
X79617Y19278D01*
X79561Y19317D01*
X79439Y19384D01*
X79323Y19428D01*
X79206Y19456D01*
X79106Y19478D01*
X79067Y19484D01*
X79028D01*
X79001Y19489D01*
X78956D01*
X78834Y19484D01*
X78718Y19462D01*
X78618Y19434D01*
X78529Y19406D01*
X78457Y19373D01*
X78401Y19345D01*
X78385Y19334D01*
X78368Y19323D01*
X78363Y19317D01*
X78357D01*
X78263Y19251D01*
X78185Y19178D01*
X78124Y19106D01*
X78068Y19034D01*
X78035Y18968D01*
X78007Y18918D01*
X77991Y18884D01*
X77985Y18879D01*
Y18873D01*
X77968Y18818D01*
X77952Y18757D01*
X77924Y18618D01*
X77907Y18468D01*
X77891Y18324D01*
Y18252D01*
X77885Y18191D01*
Y18129D01*
X77880Y18080D01*
Y18041D01*
Y18007D01*
Y17985D01*
Y17980D01*
Y16348D01*
X81720D01*
Y17125D01*
X80116D01*
Y17280D01*
Y17375D01*
X80122Y17452D01*
X80127Y17519D01*
X80138Y17574D01*
X80144Y17619D01*
X80155Y17647D01*
X80161Y17663D01*
Y17669D01*
X80183Y17713D01*
X80205Y17758D01*
X80233Y17797D01*
X80255Y17835D01*
X80283Y17863D01*
X80305Y17885D01*
X80316Y17896D01*
X80322Y17902D01*
X80349Y17924D01*
X80377Y17952D01*
X80460Y18013D01*
X80549Y18080D01*
X80649Y18152D01*
X80738Y18213D01*
X80782Y18240D01*
X80816Y18263D01*
X80843Y18285D01*
X80866Y18302D01*
X80882Y18307D01*
X80888Y18313D01*
X81720Y18868D01*
Y19800D01*
D02*
G37*
G36*
X70732D02*
X70677D01*
X70544Y19794D01*
X70427Y19778D01*
X70322Y19750D01*
X70233Y19722D01*
X70161Y19695D01*
X70111Y19667D01*
X70077Y19650D01*
X70066Y19645D01*
X69977Y19584D01*
X69900Y19511D01*
X69833Y19439D01*
X69778Y19373D01*
X69733Y19312D01*
X69700Y19262D01*
X69678Y19228D01*
X69672Y19223D01*
Y19217D01*
X69645Y19162D01*
X69617Y19106D01*
X69567Y18973D01*
X69523Y18834D01*
X69478Y18701D01*
X69461Y18640D01*
X69445Y18579D01*
X69428Y18524D01*
X69417Y18479D01*
X69406Y18440D01*
X69400Y18413D01*
X69395Y18390D01*
Y18385D01*
X69367Y18285D01*
X69345Y18196D01*
X69323Y18113D01*
X69301Y18035D01*
X69278Y17974D01*
X69256Y17913D01*
X69234Y17863D01*
X69217Y17819D01*
X69200Y17780D01*
X69184Y17752D01*
X69173Y17724D01*
X69162Y17708D01*
X69145Y17680D01*
X69139Y17674D01*
X69101Y17636D01*
X69062Y17608D01*
X69023Y17591D01*
X68984Y17580D01*
X68956Y17569D01*
X68929Y17563D01*
X68906D01*
X68851Y17569D01*
X68806Y17580D01*
X68762Y17602D01*
X68729Y17624D01*
X68701Y17647D01*
X68684Y17669D01*
X68673Y17680D01*
X68668Y17685D01*
X68618Y17763D01*
X68585Y17846D01*
X68557Y17935D01*
X68540Y18019D01*
X68529Y18091D01*
X68524Y18152D01*
Y18174D01*
Y18191D01*
Y18202D01*
Y18207D01*
X68529Y18324D01*
X68546Y18424D01*
X68568Y18507D01*
X68590Y18574D01*
X68612Y18629D01*
X68634Y18668D01*
X68651Y18690D01*
X68657Y18696D01*
X68712Y18751D01*
X68779Y18801D01*
X68845Y18840D01*
X68918Y18868D01*
X68979Y18890D01*
X69029Y18901D01*
X69067Y18912D01*
X69078D01*
X69051Y19689D01*
X68951Y19683D01*
X68862Y19667D01*
X68773Y19645D01*
X68695Y19617D01*
X68618Y19589D01*
X68546Y19556D01*
X68485Y19523D01*
X68424Y19489D01*
X68374Y19450D01*
X68329Y19417D01*
X68290Y19384D01*
X68257Y19356D01*
X68235Y19334D01*
X68218Y19317D01*
X68207Y19306D01*
X68202Y19301D01*
X68146Y19228D01*
X68096Y19151D01*
X68052Y19067D01*
X68013Y18979D01*
X67985Y18890D01*
X67957Y18801D01*
X67918Y18623D01*
X67907Y18540D01*
X67896Y18468D01*
X67891Y18396D01*
X67885Y18335D01*
X67880Y18285D01*
Y18252D01*
Y18229D01*
Y18218D01*
X67885Y18057D01*
X67902Y17913D01*
X67924Y17785D01*
X67946Y17674D01*
X67963Y17624D01*
X67974Y17580D01*
X67985Y17547D01*
X67996Y17514D01*
X68007Y17491D01*
X68013Y17475D01*
X68018Y17463D01*
Y17458D01*
X68074Y17347D01*
X68135Y17253D01*
X68202Y17169D01*
X68263Y17103D01*
X68318Y17047D01*
X68362Y17014D01*
X68396Y16986D01*
X68401Y16981D01*
X68407D01*
X68501Y16925D01*
X68601Y16886D01*
X68695Y16859D01*
X68779Y16842D01*
X68851Y16831D01*
X68906Y16820D01*
X68956D01*
X69040Y16825D01*
X69123Y16836D01*
X69195Y16853D01*
X69267Y16875D01*
X69400Y16931D01*
X69517Y16997D01*
X69567Y17025D01*
X69606Y17058D01*
X69645Y17086D01*
X69678Y17114D01*
X69700Y17136D01*
X69717Y17153D01*
X69728Y17164D01*
X69733Y17169D01*
X69772Y17219D01*
X69811Y17280D01*
X69850Y17341D01*
X69883Y17414D01*
X69950Y17552D01*
X70005Y17697D01*
X70028Y17769D01*
X70050Y17830D01*
X70066Y17891D01*
X70083Y17941D01*
X70094Y17980D01*
X70105Y18013D01*
X70111Y18035D01*
Y18041D01*
X70133Y18129D01*
X70155Y18207D01*
X70172Y18279D01*
X70188Y18346D01*
X70205Y18401D01*
X70216Y18451D01*
X70233Y18496D01*
X70244Y18535D01*
X70249Y18568D01*
X70261Y18596D01*
X70272Y18634D01*
X70283Y18657D01*
Y18662D01*
X70311Y18734D01*
X70338Y18790D01*
X70366Y18840D01*
X70394Y18879D01*
X70416Y18906D01*
X70433Y18923D01*
X70444Y18934D01*
X70449Y18940D01*
X70488Y18968D01*
X70527Y18990D01*
X70566Y19001D01*
X70599Y19012D01*
X70632Y19017D01*
X70660Y19023D01*
X70682D01*
X70760Y19017D01*
X70827Y18995D01*
X70893Y18962D01*
X70949Y18929D01*
X70993Y18890D01*
X71026Y18862D01*
X71049Y18840D01*
X71054Y18829D01*
X71104Y18751D01*
X71143Y18662D01*
X71171Y18568D01*
X71188Y18479D01*
X71199Y18396D01*
X71210Y18329D01*
Y18302D01*
Y18285D01*
Y18274D01*
Y18268D01*
X71204Y18141D01*
X71182Y18030D01*
X71154Y17935D01*
X71121Y17852D01*
X71087Y17785D01*
X71060Y17741D01*
X71038Y17713D01*
X71032Y17702D01*
X70954Y17630D01*
X70871Y17574D01*
X70777Y17525D01*
X70682Y17491D01*
X70599Y17463D01*
X70533Y17441D01*
X70510Y17436D01*
X70488D01*
X70477Y17430D01*
X70472D01*
X70544Y16675D01*
X70660Y16692D01*
X70771Y16714D01*
X70877Y16748D01*
X70971Y16775D01*
X71060Y16814D01*
X71143Y16853D01*
X71215Y16892D01*
X71282Y16931D01*
X71337Y16970D01*
X71387Y17008D01*
X71432Y17042D01*
X71470Y17075D01*
X71498Y17097D01*
X71515Y17119D01*
X71526Y17131D01*
X71532Y17136D01*
X71593Y17214D01*
X71643Y17297D01*
X71687Y17386D01*
X71726Y17480D01*
X71754Y17569D01*
X71781Y17663D01*
X71820Y17846D01*
X71837Y17930D01*
X71848Y18007D01*
X71853Y18074D01*
X71859Y18135D01*
X71864Y18185D01*
Y18224D01*
Y18252D01*
Y18257D01*
X71859Y18435D01*
X71842Y18596D01*
X71820Y18740D01*
X71809Y18801D01*
X71792Y18862D01*
X71781Y18912D01*
X71770Y18957D01*
X71759Y18995D01*
X71748Y19029D01*
X71737Y19056D01*
X71731Y19073D01*
X71726Y19084D01*
Y19090D01*
X71665Y19212D01*
X71598Y19312D01*
X71532Y19406D01*
X71459Y19478D01*
X71398Y19534D01*
X71343Y19578D01*
X71310Y19600D01*
X71304Y19611D01*
X71298D01*
X71188Y19672D01*
X71082Y19722D01*
X70977Y19756D01*
X70877Y19778D01*
X70799Y19789D01*
X70760Y19794D01*
X70732Y19800D01*
D02*
G37*
G36*
X61720D02*
X59878D01*
X59783Y19794D01*
X59694Y19789D01*
X59628Y19778D01*
X59572Y19772D01*
X59534Y19761D01*
X59506Y19756D01*
X59500D01*
X59434Y19739D01*
X59378Y19717D01*
X59323Y19695D01*
X59278Y19667D01*
X59239Y19645D01*
X59212Y19628D01*
X59195Y19617D01*
X59189Y19611D01*
X59140Y19567D01*
X59095Y19517D01*
X59056Y19467D01*
X59023Y19417D01*
X58995Y19373D01*
X58978Y19334D01*
X58967Y19312D01*
X58962Y19301D01*
X58934Y19223D01*
X58912Y19145D01*
X58895Y19073D01*
X58884Y19006D01*
X58879Y18945D01*
X58873Y18895D01*
Y18868D01*
Y18862D01*
Y18857D01*
X58879Y18757D01*
X58895Y18657D01*
X58917Y18568D01*
X58945Y18479D01*
X58984Y18396D01*
X59023Y18324D01*
X59067Y18252D01*
X59106Y18191D01*
X59151Y18135D01*
X59195Y18085D01*
X59234Y18041D01*
X59273Y18007D01*
X59301Y17980D01*
X59323Y17957D01*
X59339Y17946D01*
X59345Y17941D01*
X58934D01*
Y17258D01*
X61720D01*
Y17996D01*
X60305D01*
X60233Y18002D01*
X60172Y18007D01*
X60111D01*
X60061Y18013D01*
X60011Y18019D01*
X59972Y18024D01*
X59905Y18035D01*
X59861Y18041D01*
X59833Y18052D01*
X59828D01*
X59767Y18074D01*
X59706Y18107D01*
X59661Y18141D01*
X59617Y18174D01*
X59589Y18207D01*
X59561Y18235D01*
X59550Y18252D01*
X59545Y18257D01*
X59511Y18318D01*
X59484Y18379D01*
X59467Y18435D01*
X59450Y18490D01*
X59445Y18535D01*
X59439Y18568D01*
Y18596D01*
Y18601D01*
X59445Y18657D01*
X59450Y18707D01*
X59461Y18746D01*
X59478Y18784D01*
X59495Y18818D01*
X59506Y18840D01*
X59511Y18851D01*
X59517Y18857D01*
X59545Y18895D01*
X59578Y18923D01*
X59645Y18973D01*
X59678Y18990D01*
X59700Y19001D01*
X59717Y19012D01*
X59722D01*
X59750Y19023D01*
X59783Y19029D01*
X59866Y19040D01*
X59966Y19051D01*
X60061Y19056D01*
X60155Y19062D01*
X61720D01*
Y19800D01*
D02*
G37*
G36*
X58562Y16509D02*
X57880D01*
Y15771D01*
X58562D01*
Y16509D01*
D02*
G37*
G36*
X51751Y17702D02*
X48965D01*
Y16964D01*
X50341D01*
X50430Y16958D01*
X50508Y16953D01*
X50580D01*
X50641Y16947D01*
X50691Y16942D01*
X50741Y16936D01*
X50779Y16931D01*
X50807Y16925D01*
X50835Y16920D01*
X50857D01*
X50885Y16908D01*
X50890D01*
X50946Y16886D01*
X50996Y16853D01*
X51035Y16820D01*
X51074Y16786D01*
X51107Y16753D01*
X51129Y16725D01*
X51140Y16709D01*
X51146Y16703D01*
X51179Y16648D01*
X51201Y16587D01*
X51223Y16531D01*
X51235Y16476D01*
X51240Y16431D01*
X51246Y16398D01*
Y16376D01*
Y16365D01*
X51240Y16304D01*
X51235Y16254D01*
X51223Y16204D01*
X51207Y16165D01*
X51196Y16131D01*
X51185Y16109D01*
X51179Y16093D01*
X51174Y16087D01*
X51140Y16048D01*
X51107Y16021D01*
X51074Y15993D01*
X51040Y15976D01*
X51007Y15959D01*
X50985Y15948D01*
X50968Y15943D01*
X50963D01*
X50935Y15937D01*
X50896Y15932D01*
X50846Y15926D01*
X50796Y15921D01*
X50680Y15915D01*
X50552Y15910D01*
X50435Y15904D01*
X48965D01*
Y15166D01*
X50730D01*
X50868Y15171D01*
X50990Y15182D01*
X51096Y15199D01*
X51185Y15216D01*
X51257Y15232D01*
X51307Y15249D01*
X51335Y15260D01*
X51346Y15266D01*
X51423Y15310D01*
X51495Y15360D01*
X51551Y15410D01*
X51601Y15465D01*
X51640Y15510D01*
X51667Y15554D01*
X51684Y15576D01*
X51690Y15588D01*
X51729Y15671D01*
X51762Y15760D01*
X51784Y15843D01*
X51795Y15926D01*
X51806Y15993D01*
X51812Y16043D01*
Y16065D01*
Y16082D01*
Y16087D01*
Y16093D01*
X51806Y16193D01*
X51795Y16287D01*
X51773Y16376D01*
X51751Y16453D01*
X51729Y16520D01*
X51706Y16570D01*
X51695Y16603D01*
X51690Y16614D01*
X51640Y16703D01*
X51579Y16781D01*
X51523Y16853D01*
X51462Y16908D01*
X51412Y16958D01*
X51373Y16992D01*
X51346Y17014D01*
X51335Y17019D01*
X51751D01*
Y17702D01*
D02*
G37*
G36*
X101751Y16498D02*
X98965D01*
Y15760D01*
X100341D01*
X100430Y15754D01*
X100508Y15749D01*
X100580D01*
X100641Y15743D01*
X100691Y15737D01*
X100741Y15732D01*
X100779Y15726D01*
X100807Y15721D01*
X100835Y15715D01*
X100857D01*
X100885Y15704D01*
X100891D01*
X100946Y15682D01*
X100996Y15649D01*
X101035Y15615D01*
X101074Y15582D01*
X101107Y15549D01*
X101129Y15521D01*
X101140Y15504D01*
X101146Y15499D01*
X101179Y15443D01*
X101201Y15382D01*
X101224Y15327D01*
X101235Y15271D01*
X101240Y15227D01*
X101246Y15193D01*
Y15171D01*
Y15160D01*
X101240Y15099D01*
X101235Y15049D01*
X101224Y14999D01*
X101207Y14961D01*
X101196Y14927D01*
X101185Y14905D01*
X101179Y14888D01*
X101174Y14883D01*
X101140Y14844D01*
X101107Y14816D01*
X101074Y14788D01*
X101040Y14772D01*
X101007Y14755D01*
X100985Y14744D01*
X100968Y14739D01*
X100963D01*
X100935Y14733D01*
X100896Y14727D01*
X100846Y14722D01*
X100796Y14716D01*
X100680Y14711D01*
X100552Y14705D01*
X100435Y14700D01*
X98965D01*
Y13961D01*
X100730D01*
X100868Y13967D01*
X100990Y13978D01*
X101096Y13995D01*
X101185Y14011D01*
X101257Y14028D01*
X101307Y14045D01*
X101335Y14056D01*
X101346Y14061D01*
X101423Y14106D01*
X101496Y14156D01*
X101551Y14206D01*
X101601Y14261D01*
X101640Y14306D01*
X101667Y14350D01*
X101684Y14372D01*
X101690Y14383D01*
X101729Y14467D01*
X101762Y14555D01*
X101784Y14639D01*
X101795Y14722D01*
X101806Y14788D01*
X101812Y14838D01*
Y14861D01*
Y14877D01*
Y14883D01*
Y14888D01*
X101806Y14988D01*
X101795Y15083D01*
X101773Y15171D01*
X101751Y15249D01*
X101729Y15316D01*
X101706Y15366D01*
X101695Y15399D01*
X101690Y15410D01*
X101640Y15499D01*
X101579Y15576D01*
X101523Y15649D01*
X101462Y15704D01*
X101412Y15754D01*
X101373Y15787D01*
X101346Y15810D01*
X101335Y15815D01*
X101751D01*
Y16498D01*
D02*
G37*
G36*
X91706Y19800D02*
X91135Y19733D01*
X91157Y19667D01*
X91174Y19606D01*
X91185Y19556D01*
X91190Y19511D01*
X91196Y19478D01*
X91201Y19456D01*
Y19439D01*
Y19434D01*
X91196Y19384D01*
X91185Y19345D01*
X91174Y19323D01*
X91168Y19312D01*
X91135Y19278D01*
X91107Y19262D01*
X91085Y19251D01*
X91074Y19245D01*
X91063D01*
X91040Y19240D01*
X90924D01*
X90857Y19234D01*
X89553D01*
Y19739D01*
X88965D01*
Y19234D01*
X87977D01*
X88410Y18496D01*
X88965D01*
Y18157D01*
X89553D01*
Y18496D01*
X90963D01*
X91013Y18501D01*
X91101D01*
X91174Y18507D01*
X91229Y18512D01*
X91262D01*
X91285Y18518D01*
X91290D01*
X91351Y18529D01*
X91407Y18546D01*
X91457Y18562D01*
X91496Y18579D01*
X91529Y18596D01*
X91551Y18607D01*
X91568Y18612D01*
X91573Y18618D01*
X91612Y18651D01*
X91645Y18690D01*
X91701Y18768D01*
X91717Y18801D01*
X91734Y18829D01*
X91740Y18851D01*
X91745Y18857D01*
X91767Y18918D01*
X91784Y18979D01*
X91795Y19040D01*
X91801Y19095D01*
X91806Y19145D01*
X91812Y19184D01*
Y19206D01*
Y19217D01*
X91806Y19334D01*
X91795Y19445D01*
X91778Y19545D01*
X91756Y19628D01*
X91740Y19700D01*
X91723Y19756D01*
X91712Y19789D01*
X91706Y19794D01*
Y19800D01*
D02*
G37*
G36*
X39989D02*
X39911D01*
X39717Y19794D01*
X39545Y19778D01*
X39461Y19772D01*
X39389Y19761D01*
X39317Y19750D01*
X39256Y19739D01*
X39200Y19722D01*
X39151Y19711D01*
X39106Y19700D01*
X39073Y19695D01*
X39045Y19683D01*
X39023Y19678D01*
X39012Y19672D01*
X39006D01*
X38873Y19623D01*
X38751Y19561D01*
X38645Y19500D01*
X38557Y19439D01*
X38485Y19389D01*
X38429Y19345D01*
X38396Y19317D01*
X38385Y19312D01*
Y19306D01*
X38296Y19212D01*
X38224Y19117D01*
X38163Y19017D01*
X38113Y18929D01*
X38074Y18851D01*
X38046Y18784D01*
X38041Y18762D01*
X38035Y18746D01*
X38030Y18734D01*
Y18729D01*
X38002Y18623D01*
X37985Y18507D01*
X37969Y18385D01*
X37963Y18268D01*
X37957Y18163D01*
X37952Y18118D01*
Y18074D01*
Y18041D01*
Y18019D01*
Y18002D01*
Y17996D01*
Y16587D01*
X41792D01*
Y18041D01*
X41787Y18191D01*
X41781Y18329D01*
X41770Y18446D01*
X41754Y18540D01*
X41737Y18618D01*
X41726Y18679D01*
X41720Y18696D01*
Y18712D01*
X41715Y18718D01*
Y18723D01*
X41670Y18845D01*
X41620Y18957D01*
X41570Y19045D01*
X41520Y19123D01*
X41476Y19184D01*
X41443Y19228D01*
X41421Y19256D01*
X41409Y19267D01*
X41304Y19362D01*
X41193Y19445D01*
X41076Y19517D01*
X40971Y19572D01*
X40871Y19617D01*
X40832Y19639D01*
X40799Y19650D01*
X40766Y19661D01*
X40743Y19672D01*
X40732Y19678D01*
X40727D01*
X40594Y19717D01*
X40455Y19750D01*
X40322Y19772D01*
X40194Y19783D01*
X40133Y19789D01*
X40077Y19794D01*
X40033D01*
X39989Y19800D01*
D02*
G37*
G36*
X61720Y16509D02*
X58934D01*
Y15771D01*
X61720D01*
Y16509D01*
D02*
G37*
%LPD*%
G36*
X126926Y104693D02*
X126976D01*
X127026Y104688D01*
X127098D01*
X127154Y104682D01*
X127192Y104677D01*
X127215Y104671D01*
X127220D01*
X127287Y104654D01*
X127348Y104632D01*
X127403Y104604D01*
X127448Y104571D01*
X127481Y104543D01*
X127509Y104521D01*
X127525Y104505D01*
X127531Y104499D01*
X127576Y104444D01*
X127603Y104388D01*
X127625Y104327D01*
X127642Y104271D01*
X127653Y104221D01*
X127659Y104183D01*
Y104160D01*
Y104149D01*
X127653Y104088D01*
X127648Y104033D01*
X127631Y103983D01*
X127614Y103938D01*
X127598Y103900D01*
X127587Y103872D01*
X127576Y103855D01*
X127570Y103850D01*
X127537Y103805D01*
X127492Y103766D01*
X127453Y103733D01*
X127415Y103705D01*
X127381Y103689D01*
X127354Y103672D01*
X127331Y103666D01*
X127326Y103661D01*
X127292Y103650D01*
X127254Y103644D01*
X127165Y103628D01*
X127065Y103617D01*
X126965Y103611D01*
X126865D01*
X126826Y103605D01*
X126293D01*
Y104699D01*
X126871D01*
X126926Y104693D01*
D02*
G37*
G36*
X100230Y11086D02*
X98804Y11608D01*
X100230Y12147D01*
Y11086D01*
D02*
G37*
G36*
X50502Y13839D02*
X50635Y13817D01*
X50741Y13789D01*
X50835Y13751D01*
X50902Y13712D01*
X50957Y13684D01*
X50985Y13662D01*
X50996Y13651D01*
X51068Y13573D01*
X51124Y13495D01*
X51157Y13412D01*
X51185Y13334D01*
X51201Y13268D01*
X51207Y13218D01*
X51212Y13196D01*
Y13179D01*
Y13173D01*
Y13168D01*
X51201Y13062D01*
X51179Y12968D01*
X51146Y12885D01*
X51101Y12818D01*
X51063Y12757D01*
X51029Y12713D01*
X51007Y12690D01*
X50996Y12679D01*
X50907Y12613D01*
X50802Y12568D01*
X50696Y12535D01*
X50591Y12507D01*
X50502Y12496D01*
X50463Y12491D01*
X50424D01*
X50397Y12485D01*
X50358D01*
X50213Y12496D01*
X50086Y12518D01*
X49975Y12546D01*
X49886Y12585D01*
X49819Y12618D01*
X49764Y12652D01*
X49736Y12674D01*
X49725Y12679D01*
X49653Y12757D01*
X49597Y12840D01*
X49558Y12924D01*
X49531Y13001D01*
X49514Y13068D01*
X49509Y13118D01*
X49503Y13140D01*
Y13157D01*
Y13162D01*
Y13168D01*
X49514Y13273D01*
X49536Y13368D01*
X49575Y13445D01*
X49614Y13517D01*
X49653Y13573D01*
X49692Y13617D01*
X49714Y13640D01*
X49725Y13651D01*
X49814Y13717D01*
X49919Y13767D01*
X50025Y13801D01*
X50125Y13828D01*
X50213Y13839D01*
X50258Y13845D01*
X50291D01*
X50319Y13850D01*
X50358D01*
X50502Y13839D01*
D02*
G37*
G36*
X40033Y18995D02*
X40177Y18990D01*
X40294Y18973D01*
X40394Y18962D01*
X40477Y18945D01*
X40510Y18940D01*
X40532Y18929D01*
X40555Y18923D01*
X40571D01*
X40577Y18918D01*
X40582D01*
X40671Y18884D01*
X40749Y18857D01*
X40810Y18818D01*
X40860Y18790D01*
X40899Y18762D01*
X40927Y18740D01*
X40943Y18723D01*
X40949Y18718D01*
X40988Y18668D01*
X41021Y18618D01*
X41049Y18568D01*
X41071Y18518D01*
X41087Y18474D01*
X41099Y18440D01*
X41110Y18418D01*
Y18407D01*
X41121Y18346D01*
X41126Y18274D01*
X41137Y18196D01*
Y18118D01*
X41143Y18046D01*
Y17991D01*
Y17968D01*
Y17952D01*
Y17941D01*
Y17935D01*
Y17364D01*
X38601D01*
Y17708D01*
Y17791D01*
Y17869D01*
X38607Y17941D01*
Y18007D01*
X38612Y18063D01*
Y18113D01*
X38618Y18163D01*
Y18202D01*
X38629Y18263D01*
X38634Y18307D01*
X38640Y18335D01*
Y18340D01*
X38662Y18418D01*
X38690Y18485D01*
X38718Y18546D01*
X38751Y18601D01*
X38779Y18640D01*
X38801Y18673D01*
X38818Y18690D01*
X38823Y18696D01*
X38879Y18746D01*
X38940Y18790D01*
X39001Y18829D01*
X39056Y18862D01*
X39112Y18884D01*
X39156Y18901D01*
X39184Y18912D01*
X39189Y18918D01*
X39195D01*
X39295Y18945D01*
X39400Y18968D01*
X39517Y18979D01*
X39628Y18990D01*
X39722Y18995D01*
X39767Y19001D01*
X39878D01*
X40033Y18995D01*
D02*
G37*
G36*
X79073Y18685D02*
X79128Y18679D01*
X79178Y18662D01*
X79223Y18651D01*
X79256Y18634D01*
X79278Y18618D01*
X79295Y18612D01*
X79300Y18607D01*
X79339Y18574D01*
X79373Y18540D01*
X79423Y18468D01*
X79439Y18440D01*
X79450Y18413D01*
X79461Y18396D01*
Y18390D01*
X79467Y18363D01*
X79478Y18318D01*
X79484Y18274D01*
X79489Y18224D01*
X79495Y18107D01*
X79500Y17991D01*
X79506Y17880D01*
Y17830D01*
Y17785D01*
Y17747D01*
Y17719D01*
Y17702D01*
Y17697D01*
Y17125D01*
X78529D01*
Y17724D01*
Y17808D01*
Y17885D01*
Y17952D01*
Y18013D01*
X78535Y18063D01*
Y18113D01*
Y18152D01*
Y18185D01*
X78540Y18235D01*
Y18268D01*
X78546Y18285D01*
Y18291D01*
X78562Y18357D01*
X78584Y18418D01*
X78607Y18468D01*
X78635Y18507D01*
X78662Y18540D01*
X78679Y18568D01*
X78695Y18579D01*
X78701Y18585D01*
X78746Y18618D01*
X78801Y18646D01*
X78851Y18662D01*
X78901Y18679D01*
X78945Y18685D01*
X78979Y18690D01*
X79012D01*
X79073Y18685D01*
D02*
G37*
D18*
X65502Y76499D02*
X64502Y75499D01*
Y73500D01*
X65502Y72500D01*
X69500D01*
X70500Y73500D01*
Y75499D01*
X69500Y76499D01*
X64502Y78498D02*
X70500D01*
Y81497D01*
X69500Y82497D01*
X65502D01*
X64502Y81497D01*
Y78498D01*
X70500Y87495D02*
X64502D01*
X67501Y84496D01*
Y88495D01*
X65502Y90494D02*
X64502Y91494D01*
Y93493D01*
X65502Y94493D01*
X69500D01*
X70500Y93493D01*
Y91494D01*
X69500Y90494D01*
X65502D01*
X70500Y96492D02*
Y98492D01*
Y97492D01*
X64502D01*
X65502Y96492D01*
X70500Y101491D02*
Y103490D01*
Y102490D01*
X64502D01*
X65502Y101491D01*
X111000Y81000D02*
Y84999D01*
X112999Y86998D01*
X114999Y84999D01*
Y81000D01*
Y83999D01*
X111000D01*
X116998Y86998D02*
X120997D01*
X118997D01*
Y81000D01*
X123996Y85998D02*
Y84999D01*
X122996D01*
X124996D01*
X123996D01*
Y82000D01*
X124996Y81000D01*
X127995D02*
X129994D01*
X128994D01*
Y84999D01*
X127995D01*
X132993Y81000D02*
Y84999D01*
X135992D01*
X136992Y83999D01*
Y81000D01*
X138991Y84999D02*
Y82000D01*
X139991Y81000D01*
X142990D01*
Y80000D01*
X141990Y79001D01*
X140990D01*
X142990Y81000D02*
Y84999D01*
X144989Y81000D02*
X146988D01*
X145989D01*
Y86998D01*
X144989Y85998D01*
X149987D02*
X150987Y86998D01*
X152986D01*
X153986Y85998D01*
Y84999D01*
X152986Y83999D01*
X151987D01*
X152986D01*
X153986Y82999D01*
Y82000D01*
X152986Y81000D01*
X150987D01*
X149987Y82000D01*
X23500Y77500D02*
X25499D01*
X24500D01*
Y83498D01*
X23500Y82498D01*
X28498D02*
X29498Y83498D01*
X31497D01*
X32497Y82498D01*
Y78500D01*
X31497Y77500D01*
X29498D01*
X28498Y78500D01*
Y82498D01*
X34496Y77500D02*
Y83498D01*
Y79499D02*
X37495Y81499D01*
X34496Y79499D02*
X37495Y77500D01*
X23500Y94000D02*
X25499D01*
X24500D01*
Y99998D01*
X23500Y98998D01*
X28498D02*
X29498Y99998D01*
X31497D01*
X32497Y98998D01*
Y95000D01*
X31497Y94000D01*
X29498D01*
X28498Y95000D01*
Y98998D01*
X34496Y94000D02*
Y99998D01*
Y95999D02*
X37495Y97999D01*
X34496Y95999D02*
X37495Y94000D01*
X169500Y42000D02*
X171499D01*
X170500D01*
Y47998D01*
X169500Y46998D01*
X174498Y42000D02*
Y47998D01*
Y43999D02*
X177497Y45999D01*
X174498Y43999D02*
X177497Y42000D01*
X118000Y50000D02*
X119999D01*
X119000D01*
Y55998D01*
X118000Y54998D01*
X122998D02*
X123998Y55998D01*
X125997D01*
X126997Y54998D01*
Y51000D01*
X125997Y50000D01*
X123998D01*
X122998Y51000D01*
Y54998D01*
X128996Y50000D02*
Y55998D01*
Y51999D02*
X131995Y53999D01*
X128996Y51999D02*
X131995Y50000D01*
X19999Y38000D02*
Y43998D01*
X17000Y40999D01*
X20999D01*
X22998Y43998D02*
X26997D01*
Y42998D01*
X22998Y39000D01*
Y38000D01*
X28996Y42998D02*
X29996Y43998D01*
X31995D01*
X32995Y42998D01*
Y39000D01*
X31995Y38000D01*
X29996D01*
X28996Y39000D01*
Y42998D01*
X167002Y11500D02*
X173000D01*
Y14499D01*
X172000Y15499D01*
X171001D01*
X170001Y14499D01*
Y11500D01*
Y14499D01*
X169001Y15499D01*
X168002D01*
X167002Y14499D01*
Y11500D01*
X168002Y21497D02*
X167002Y20497D01*
Y18498D01*
X168002Y17498D01*
X172000D01*
X173000Y18498D01*
Y20497D01*
X172000Y21497D01*
X168002Y23496D02*
X167002Y24496D01*
Y26495D01*
X168002Y27495D01*
X169001D01*
X170001Y26495D01*
X171001Y27495D01*
X172000D01*
X173000Y26495D01*
Y24496D01*
X172000Y23496D01*
X171001D01*
X170001Y24496D01*
X169001Y23496D01*
X168002D01*
X170001Y24496D02*
Y26495D01*
X173000Y32493D02*
X167002D01*
X170001Y29494D01*
Y33493D01*
X167002Y35492D02*
Y39491D01*
X168002D01*
X172000Y35492D01*
X173000D01*
X3999Y113498D02*
X2333D01*
X1500Y112665D01*
Y109333D01*
X2333Y108500D01*
X3999D01*
X4832Y109333D01*
Y112665D01*
X3999Y113498D01*
X7331Y108500D02*
Y112665D01*
Y110999D01*
X6498D01*
X8164D01*
X7331D01*
Y112665D01*
X8164Y113498D01*
X11497Y108500D02*
Y112665D01*
Y110999D01*
X10664D01*
X12330D01*
X11497D01*
Y112665D01*
X12330Y113498D01*
X16495Y108500D02*
X14829Y110166D01*
Y111832D01*
X16495Y113498D01*
X18994Y108500D02*
X20661D01*
X19827D01*
Y113498D01*
X18994Y112665D01*
X23160D02*
X23993Y113498D01*
X25659D01*
X26492Y112665D01*
Y109333D01*
X25659Y108500D01*
X23993D01*
X23160Y109333D01*
Y112665D01*
X28158D02*
X28991Y113498D01*
X30657D01*
X31490Y112665D01*
Y109333D01*
X30657Y108500D01*
X28991D01*
X28158Y109333D01*
Y112665D01*
X33156Y108500D02*
Y111832D01*
X35656D01*
X36489Y110999D01*
Y108500D01*
X38155D02*
X39821Y110166D01*
Y111832D01*
X38155Y113498D01*
X38999Y57998D02*
X37333D01*
X36500Y57165D01*
Y53833D01*
X37333Y53000D01*
X38999D01*
X39832Y53833D01*
Y57165D01*
X38999Y57998D01*
X41498Y53000D02*
Y56332D01*
X43998D01*
X44831Y55499D01*
Y53000D01*
X48163D02*
X46497Y54666D01*
Y56332D01*
X48163Y57998D01*
X50662Y53000D02*
X52328D01*
X51495D01*
Y57998D01*
X50662Y57165D01*
X54827D02*
X55660Y57998D01*
X57327D01*
X58160Y57165D01*
Y53833D01*
X57327Y53000D01*
X55660D01*
X54827Y53833D01*
Y57165D01*
X59826D02*
X60659Y57998D01*
X62325D01*
X63158Y57165D01*
Y53833D01*
X62325Y53000D01*
X60659D01*
X59826Y53833D01*
Y57165D01*
X64824Y53000D02*
Y56332D01*
X67323D01*
X68156Y55499D01*
Y53000D01*
X69823D02*
X71489Y54666D01*
Y56332D01*
X69823Y57998D01*
X44000Y110000D02*
X45666D01*
X44833D01*
Y114998D01*
X44000Y114165D01*
X48165D02*
X48998Y114998D01*
X50665D01*
X51498Y114165D01*
Y110833D01*
X50665Y110000D01*
X48998D01*
X48165Y110833D01*
Y114165D01*
X53164D02*
X53997Y114998D01*
X55663D01*
X56496Y114165D01*
Y110833D01*
X55663Y110000D01*
X53997D01*
X53164Y110833D01*
Y114165D01*
X58162Y110000D02*
Y113332D01*
X60661D01*
X61494Y112499D01*
Y110000D01*
X158000Y67500D02*
X159999D01*
X159000D01*
Y73498D01*
X158000Y72498D01*
X162998D02*
X163998Y73498D01*
X165997D01*
X166997Y72498D01*
Y68500D01*
X165997Y67500D01*
X163998D01*
X162998Y68500D01*
Y72498D01*
X168996D02*
X169996Y73498D01*
X171995D01*
X172995Y72498D01*
Y68500D01*
X171995Y67500D01*
X169996D01*
X168996Y68500D01*
Y72498D01*
X174995Y67500D02*
Y71499D01*
X177994D01*
X178993Y70499D01*
Y67500D01*
X140000Y50000D02*
X141999D01*
X141000D01*
Y55998D01*
X140000Y54998D01*
X144998D02*
X145998Y55998D01*
X147997D01*
X148997Y54998D01*
Y51000D01*
X147997Y50000D01*
X145998D01*
X144998Y51000D01*
Y54998D01*
X150996D02*
X151996Y55998D01*
X153996D01*
X154995Y54998D01*
Y51000D01*
X153996Y50000D01*
X151996D01*
X150996Y51000D01*
Y54998D01*
X156994Y50000D02*
Y53999D01*
X159994D01*
X160993Y52999D01*
Y50000D01*
X119000Y15500D02*
Y17499D01*
Y16500D01*
X113002D01*
X114002Y15500D01*
Y20498D02*
X113002Y21498D01*
Y23497D01*
X114002Y24497D01*
X118000D01*
X119000Y23497D01*
Y21498D01*
X118000Y20498D01*
X114002D01*
Y26496D02*
X113002Y27496D01*
Y29495D01*
X114002Y30495D01*
X118000D01*
X119000Y29495D01*
Y27496D01*
X118000Y26496D01*
X114002D01*
X119000Y32495D02*
X115001D01*
Y35493D01*
X116001Y36493D01*
X119000D01*
X145000Y10998D02*
X146000Y11998D01*
X147999D01*
X148999Y10998D01*
Y9999D01*
X147999Y8999D01*
X146999D01*
X147999D01*
X148999Y7999D01*
Y7000D01*
X147999Y6000D01*
X146000D01*
X145000Y7000D01*
X150998Y10998D02*
X151998Y11998D01*
X153997D01*
X154997Y10998D01*
Y9999D01*
X153997Y8999D01*
X152997D01*
X153997D01*
X154997Y7999D01*
Y7000D01*
X153997Y6000D01*
X151998D01*
X150998Y7000D01*
X156996Y10998D02*
X157996Y11998D01*
X159995D01*
X160995Y10998D01*
Y7000D01*
X159995Y6000D01*
X157996D01*
X156996Y7000D01*
Y10998D01*
X162994Y6000D02*
Y9999D01*
X165993D01*
X166993Y8999D01*
Y6000D01*
D33*
X124646Y66811D02*
G03*
X124646Y66811I-492J0D01*
G01*
X20216Y53996D02*
G03*
X20216Y53996I-492J0D01*
G01*
X119350Y17185D02*
G03*
X119350Y17185I-492J0D01*
G01*
X165079Y26634D02*
G03*
X165079Y26634I-492J0D01*
G01*
D34*
X129488Y76063D02*
G03*
X129488Y76063I-1181J0D01*
G01*
D35*
X67500Y106300D02*
G03*
X71500Y106300I2000J0D01*
G01*
X63300D02*
G03*
X61800Y104800I0J-1500D01*
G01*
X75700Y71300D02*
G03*
X77200Y72800I0J1500D01*
G01*
Y104800D02*
G03*
X75700Y106300I-1500J0D01*
G01*
X61800Y72800D02*
G03*
X63300Y71300I1500J0D01*
G01*
Y106300D02*
X67500D01*
X71500D01*
X75700D01*
X63300Y71300D02*
X75700D01*
D36*
X137795Y16594D02*
G03*
X122205Y16594I-7795J5906D01*
G01*
X124370Y72126D02*
X145630D01*
X124370Y87874D02*
X145630D01*
X124370Y72126D02*
Y87874D01*
X145630Y72126D02*
Y87874D01*
X3780Y93563D02*
X22283D01*
X3780Y51437D02*
X22283D01*
Y93563D01*
X3780Y51437D02*
Y93563D01*
X5748Y51437D02*
Y93563D01*
X122205Y16594D02*
X137795D01*
X151594Y19744D02*
X154744D01*
X151594D02*
Y22500D01*
X160256Y19744D02*
X163406D01*
Y22500D01*
D37*
X63200Y71300D02*
Y106300D01*
M02*
