G04 Layer_Physical_Order=1*
G04 Layer_Color=25308*
%FSLAX25Y25*%
%MOIN*%
G70*
G01*
G75*
G04:AMPARAMS|DCode=10|XSize=60mil|YSize=80mil|CornerRadius=15mil|HoleSize=0mil|Usage=FLASHONLY|Rotation=0.000|XOffset=0mil|YOffset=0mil|HoleType=Round|Shape=RoundedRectangle|*
%AMROUNDEDRECTD10*
21,1,0.06000,0.05000,0,0,0.0*
21,1,0.03000,0.08000,0,0,0.0*
1,1,0.03000,0.01500,-0.02500*
1,1,0.03000,-0.01500,-0.02500*
1,1,0.03000,-0.01500,0.02500*
1,1,0.03000,0.01500,0.02500*
%
%ADD10ROUNDEDRECTD10*%
%ADD11R,0.02362X0.05118*%
%ADD12R,0.04921X0.06102*%
%ADD13R,0.04331X0.05118*%
%ADD14R,0.05118X0.04331*%
%ADD15R,0.08000X0.02600*%
%ADD16O,0.02362X0.07480*%
%ADD17R,0.06102X0.04921*%
%ADD18C,0.01000*%
%ADD19C,0.04000*%
%ADD20C,0.02000*%
%ADD21C,0.07500*%
%ADD22O,0.03937X0.07874*%
%ADD23O,0.03937X0.07874*%
%ADD24R,0.06299X0.06299*%
%ADD25C,0.06299*%
%ADD26C,0.25984*%
%ADD27C,0.06000*%
%ADD28R,0.06000X0.06000*%
%ADD29C,0.05000*%
G36*
X85851Y37604D02*
X86612Y36612D01*
X86974Y36335D01*
Y34987D01*
X86698Y34802D01*
X86145Y33975D01*
X85951Y33000D01*
Y28000D01*
X86145Y27024D01*
X86342Y26729D01*
X85808Y25729D01*
X84192D01*
X83658Y26729D01*
X83855Y27024D01*
X84049Y28000D01*
Y33000D01*
X83855Y33975D01*
X83302Y34802D01*
X83026Y34987D01*
Y36335D01*
X83388Y36612D01*
X84149Y37604D01*
X84459Y38352D01*
X85541D01*
X85851Y37604D01*
D02*
G37*
G36*
X148449Y75924D02*
Y72428D01*
X147449Y72014D01*
X146281Y73181D01*
X145785Y73513D01*
X145200Y73629D01*
X138600D01*
X138112Y73532D01*
X138015Y73513D01*
X137519Y73181D01*
X136419Y72081D01*
X136087Y71585D01*
X135971Y71000D01*
Y70971D01*
X135927Y70942D01*
X135545Y70369D01*
X135000Y70288D01*
X134455Y70369D01*
X134072Y70942D01*
X133351Y71425D01*
X132500Y71594D01*
X131649Y71425D01*
X130928Y70942D01*
X130545Y70369D01*
X130000Y70288D01*
X129455Y70369D01*
X129072Y70942D01*
X129029Y70971D01*
Y73866D01*
X130351Y75188D01*
X130586Y75090D01*
X131500Y74970D01*
X132414Y75090D01*
X133265Y75443D01*
X133996Y76004D01*
X134557Y76735D01*
X134910Y77586D01*
X135030Y78500D01*
X134910Y79414D01*
X134679Y79971D01*
X135158Y80971D01*
X143402D01*
X148449Y75924D01*
D02*
G37*
G36*
X43832Y109505D02*
X44075Y108551D01*
X44075D01*
X44075Y108551D01*
Y100449D01*
X45915D01*
Y98766D01*
X45208Y98059D01*
X44721D01*
X44280Y98059D01*
X44000D01*
X43720D01*
X43279Y98059D01*
X37390D01*
Y96029D01*
X27000D01*
X26415Y95913D01*
X25919Y95581D01*
X16647Y86309D01*
X16083Y86543D01*
X15000Y86685D01*
X13917Y86543D01*
X12907Y86125D01*
X12041Y85460D01*
X11375Y84593D01*
X10957Y83583D01*
X10815Y82500D01*
X10957Y81417D01*
X11375Y80407D01*
X12041Y79540D01*
X12907Y78875D01*
X13917Y78457D01*
X15000Y78315D01*
X16083Y78457D01*
X17093Y78875D01*
X17959Y79540D01*
X18625Y80407D01*
X19043Y81417D01*
X19185Y82500D01*
X19043Y83583D01*
X18810Y84147D01*
X27634Y92971D01*
X29507D01*
X30000Y91971D01*
X29843Y91765D01*
X29490Y90914D01*
X29370Y90000D01*
X29490Y89086D01*
X29843Y88235D01*
X30404Y87504D01*
X31135Y86943D01*
X31371Y86845D01*
Y59981D01*
X31059Y59110D01*
X30371Y59110D01*
X23941D01*
Y57474D01*
X22189D01*
X19150Y60513D01*
Y66650D01*
X10850D01*
Y58350D01*
X16987D01*
X20474Y54863D01*
X20970Y54532D01*
X21555Y54415D01*
X23234D01*
X23941Y53708D01*
Y53221D01*
X23941Y52779D01*
Y52500D01*
Y52221D01*
X23941Y51779D01*
Y45890D01*
X31059D01*
Y47538D01*
X31585Y47642D01*
X32081Y47974D01*
X33981Y49874D01*
X34313Y50370D01*
X34429Y50955D01*
Y86845D01*
X34665Y86943D01*
X35396Y87504D01*
X35957Y88235D01*
X36310Y89086D01*
X36430Y90000D01*
X36310Y90914D01*
X35957Y91765D01*
X35800Y91971D01*
X36293Y92971D01*
X37390D01*
Y90941D01*
X43279D01*
X43720Y90941D01*
X44000D01*
X44280D01*
X44721Y90941D01*
X50371D01*
Y84900D01*
X50487Y84315D01*
X50819Y83819D01*
X51919Y82719D01*
X52305Y82460D01*
X52400Y81500D01*
Y81329D01*
X51846Y80329D01*
X47800D01*
X47215Y80213D01*
X46719Y79881D01*
X45979Y79142D01*
X45226Y79803D01*
X45557Y80235D01*
X45910Y81086D01*
X46030Y82000D01*
X45910Y82914D01*
X45557Y83765D01*
X44996Y84496D01*
X44265Y85057D01*
X43414Y85410D01*
X42500Y85530D01*
X41586Y85410D01*
X40735Y85057D01*
X40004Y84496D01*
X39443Y83765D01*
X39090Y82914D01*
X38970Y82000D01*
X39090Y81086D01*
X39188Y80851D01*
X38474Y80137D01*
X38142Y79641D01*
X38026Y79055D01*
Y77059D01*
X36390D01*
Y69941D01*
X42279D01*
X42720Y69941D01*
X43000D01*
X43279D01*
X43721Y69941D01*
X45396D01*
X45971Y69367D01*
Y67551D01*
X43575D01*
Y59449D01*
X45506D01*
Y56000D01*
X45622Y55415D01*
X45954Y54919D01*
X50154Y50719D01*
X50650Y50387D01*
X51235Y50271D01*
X57566D01*
X62754Y45083D01*
X62188Y44235D01*
X61240Y44628D01*
X60000Y44791D01*
X58760Y44628D01*
X57604Y44149D01*
X56612Y43388D01*
X55851Y42395D01*
X55541Y41648D01*
X54459D01*
X54149Y42395D01*
X53388Y43388D01*
X52395Y44149D01*
X51240Y44628D01*
X50000Y44791D01*
X48760Y44628D01*
X47605Y44149D01*
X46612Y43388D01*
X45851Y42395D01*
X45541Y41648D01*
X44459D01*
X44149Y42395D01*
X43388Y43388D01*
X42395Y44149D01*
X41240Y44628D01*
X40500Y44725D01*
Y40000D01*
X40000D01*
Y39500D01*
X35275D01*
X35372Y38760D01*
X35851Y37604D01*
X36612Y36612D01*
X37126Y36218D01*
X37056Y35041D01*
X36698Y34802D01*
X36145Y33975D01*
X35951Y33000D01*
Y31000D01*
X44049D01*
Y33000D01*
X43855Y33975D01*
X43302Y34802D01*
X42944Y35041D01*
X42874Y36218D01*
X43388Y36612D01*
X44149Y37604D01*
X44459Y38352D01*
X45541D01*
X45851Y37604D01*
X46612Y36612D01*
X46974Y36335D01*
Y34987D01*
X46698Y34802D01*
X46145Y33975D01*
X45951Y33000D01*
Y28000D01*
X46145Y27024D01*
X46698Y26198D01*
X47524Y25645D01*
X48500Y25451D01*
X51500D01*
X52476Y25645D01*
X53302Y26198D01*
X53855Y27024D01*
X54049Y28000D01*
Y33000D01*
X53855Y33975D01*
X53302Y34802D01*
X53026Y34987D01*
Y36335D01*
X53388Y36612D01*
X54149Y37604D01*
X54459Y38352D01*
X55541D01*
X55851Y37604D01*
X56612Y36612D01*
X56974Y36335D01*
Y34987D01*
X56698Y34802D01*
X56145Y33975D01*
X55951Y33000D01*
Y28000D01*
X56145Y27024D01*
X56698Y26198D01*
X57525Y25645D01*
X58500Y25451D01*
X61500D01*
X62476Y25645D01*
X63302Y26198D01*
X63855Y27024D01*
X64049Y28000D01*
Y33000D01*
X63855Y33975D01*
X63302Y34802D01*
X63026Y34987D01*
Y36335D01*
X63388Y36612D01*
X64149Y37604D01*
X64459Y38352D01*
X65541D01*
X65851Y37604D01*
X66612Y36612D01*
X66974Y36335D01*
Y34987D01*
X66698Y34802D01*
X66145Y33975D01*
X65951Y33000D01*
Y28000D01*
X66145Y27024D01*
X66698Y26198D01*
X67524Y25645D01*
X68500Y25451D01*
X71500D01*
X72406Y25631D01*
X74919Y23119D01*
X75415Y22787D01*
X76000Y22671D01*
X104000D01*
X104117Y22694D01*
X104609Y21772D01*
X89867Y7029D01*
X27527D01*
X27245Y8029D01*
X28250Y8645D01*
X29924Y10075D01*
X31355Y11750D01*
X32506Y13628D01*
X33349Y15663D01*
X33863Y17804D01*
X34035Y20000D01*
X33863Y22196D01*
X33349Y24337D01*
X32506Y26372D01*
X31355Y28250D01*
X29924Y29924D01*
X28250Y31355D01*
X26372Y32506D01*
X24337Y33349D01*
X22196Y33863D01*
X20000Y34035D01*
X17804Y33863D01*
X15663Y33349D01*
X13628Y32506D01*
X11750Y31355D01*
X10075Y29924D01*
X8645Y28250D01*
X8029Y27245D01*
X7029Y27527D01*
Y98667D01*
X18834Y110471D01*
X42867D01*
X43832Y109505D01*
D02*
G37*
G36*
X140545Y89631D02*
X140928Y89057D01*
X141649Y88575D01*
X142500Y88406D01*
X143351Y88575D01*
X143994Y89005D01*
X144087Y88966D01*
X144419Y88470D01*
X154469Y78420D01*
X154086Y77496D01*
X151202D01*
X145117Y83581D01*
X144621Y83913D01*
X144035Y84029D01*
X130633D01*
X129029Y85633D01*
Y89029D01*
X129072Y89057D01*
X129455Y89631D01*
X130000Y89712D01*
X130545Y89631D01*
X130928Y89057D01*
X131649Y88575D01*
X132500Y88406D01*
X133351Y88575D01*
X134072Y89057D01*
X134455Y89631D01*
X135000Y89712D01*
X135545Y89631D01*
X135927Y89057D01*
X136649Y88575D01*
X137500Y88406D01*
X138351Y88575D01*
X139073Y89057D01*
X139455Y89631D01*
X140000Y89712D01*
X140545Y89631D01*
D02*
G37*
G36*
X66465Y108449D02*
X68471D01*
Y74600D01*
X68587Y74015D01*
X68919Y73519D01*
X69719Y72719D01*
X70215Y72387D01*
X70800Y72271D01*
X76600D01*
Y71500D01*
X85734D01*
X86441Y70793D01*
Y68221D01*
X86441Y67779D01*
Y67500D01*
Y67221D01*
X86441Y66779D01*
Y60890D01*
X88471D01*
Y59110D01*
X86441D01*
X86441Y59110D01*
X85455Y59144D01*
X84814Y59410D01*
X83900Y59530D01*
X82986Y59410D01*
X82135Y59057D01*
X81404Y58496D01*
X80843Y57765D01*
X80490Y56914D01*
X80370Y56000D01*
X80490Y55086D01*
X80843Y54235D01*
X81404Y53504D01*
X82135Y52943D01*
X82986Y52590D01*
X83900Y52470D01*
X84814Y52590D01*
X85441Y52850D01*
X86441Y52779D01*
Y52500D01*
Y52221D01*
X86441Y51779D01*
Y45890D01*
X88471D01*
Y44508D01*
X87604Y44149D01*
X86612Y43388D01*
X85851Y42395D01*
X85541Y41648D01*
X84459D01*
X84149Y42395D01*
X83388Y43388D01*
X82395Y44149D01*
X81240Y44628D01*
X80000Y44791D01*
X78760Y44628D01*
X77605Y44149D01*
X76612Y43388D01*
X75851Y42395D01*
X75541Y41648D01*
X74459D01*
X74149Y42395D01*
X73388Y43388D01*
X72395Y44149D01*
X71240Y44628D01*
X70000Y44791D01*
X68760Y44628D01*
X67894Y44269D01*
X59281Y52881D01*
X58785Y53213D01*
X58200Y53329D01*
X51869D01*
X48565Y56634D01*
Y59449D01*
X50496D01*
Y67551D01*
X49029D01*
Y69941D01*
X49610D01*
Y77059D01*
X50523Y77271D01*
X51471D01*
X52383Y76514D01*
X52400Y76271D01*
Y76100D01*
X52400Y75500D01*
Y74300D01*
X62400D01*
Y75500D01*
X62400Y76100D01*
Y76300D01*
Y76500D01*
X62400Y77100D01*
Y81100D01*
X62400D01*
Y81500D01*
X62400D01*
Y86100D01*
X62400D01*
Y86500D01*
X62400D01*
Y87464D01*
X62781Y87719D01*
X63981Y88919D01*
X64313Y89415D01*
X64429Y90000D01*
Y106600D01*
X64313Y107185D01*
X64137Y107449D01*
X64496Y108449D01*
X65465D01*
Y112500D01*
X66465D01*
Y108449D01*
D02*
G37*
G36*
X75851Y37604D02*
X76612Y36612D01*
X76974Y36335D01*
Y34987D01*
X76698Y34802D01*
X76145Y33975D01*
X75951Y33000D01*
Y28000D01*
X75994Y27783D01*
X75073Y27290D01*
X74049Y28314D01*
Y33000D01*
X73855Y33975D01*
X73302Y34802D01*
X73026Y34987D01*
Y36335D01*
X73388Y36612D01*
X74149Y37604D01*
X74459Y38352D01*
X75541D01*
X75851Y37604D01*
D02*
G37*
G36*
X126087Y56459D02*
X126419Y55963D01*
X128915Y53466D01*
Y48059D01*
X127279D01*
Y48059D01*
X126720D01*
Y48059D01*
X125085D01*
Y56373D01*
X126085Y56472D01*
X126087Y56459D01*
D02*
G37*
G36*
X95851Y37604D02*
X96612Y36612D01*
X96974Y36335D01*
Y34987D01*
X96698Y34802D01*
X96145Y33975D01*
X95951Y33000D01*
Y28000D01*
X96145Y27024D01*
X96342Y26729D01*
X95808Y25729D01*
X94192D01*
X93658Y26729D01*
X93855Y27024D01*
X94049Y28000D01*
Y33000D01*
X93855Y33975D01*
X93302Y34802D01*
X93026Y34987D01*
Y36335D01*
X93388Y36612D01*
X94149Y37604D01*
X94459Y38352D01*
X95541D01*
X95851Y37604D01*
D02*
G37*
G36*
X109771Y89267D02*
Y71285D01*
X106589Y68104D01*
X105589Y68518D01*
Y85304D01*
X105824Y85402D01*
X106556Y85963D01*
X107117Y86694D01*
X107469Y87546D01*
X107590Y88459D01*
X107469Y89373D01*
X107117Y90224D01*
X106556Y90956D01*
X105824Y91517D01*
X104973Y91869D01*
X104059Y91990D01*
X103146Y91869D01*
X102294Y91517D01*
X101563Y90956D01*
X101002Y90224D01*
X100649Y89373D01*
X100529Y88459D01*
X100649Y87546D01*
X101002Y86694D01*
X101563Y85963D01*
X102294Y85402D01*
X102530Y85304D01*
Y80031D01*
X102228Y79765D01*
X101530Y79455D01*
X100914Y79710D01*
X100500Y79764D01*
Y76300D01*
X100000D01*
Y75800D01*
X96536D01*
X96590Y75386D01*
X96705Y75110D01*
X96441Y74110D01*
X96441D01*
X96441Y74110D01*
Y71445D01*
X100000D01*
Y70445D01*
X96441D01*
Y67779D01*
X96441Y67779D01*
Y67779D01*
Y67220D01*
X96441D01*
X96441Y66779D01*
Y60890D01*
X98471D01*
Y59110D01*
X96441D01*
Y52780D01*
X96441D01*
Y52220D01*
X96441D01*
Y45890D01*
X98471D01*
Y44508D01*
X97605Y44149D01*
X96612Y43388D01*
X95851Y42395D01*
X95541Y41648D01*
X94459D01*
X94149Y42395D01*
X93388Y43388D01*
X92396Y44149D01*
X91529Y44508D01*
Y45890D01*
X93559D01*
Y51779D01*
X93559Y52221D01*
Y52500D01*
Y52779D01*
X93559Y53221D01*
Y59110D01*
X91529D01*
Y60890D01*
X93559D01*
Y66779D01*
X93559Y67221D01*
Y67500D01*
Y67779D01*
X93559Y68221D01*
Y70445D01*
X90000D01*
Y70945D01*
X89500D01*
Y74110D01*
X86600D01*
Y76100D01*
X86600D01*
Y76271D01*
X87154Y77271D01*
X88800D01*
X89385Y77387D01*
X89881Y77719D01*
X91081Y78919D01*
X91413Y79415D01*
X91529Y80000D01*
Y85987D01*
X92529Y86655D01*
X92686Y86590D01*
X93600Y86470D01*
X94514Y86590D01*
X95365Y86943D01*
X96096Y87504D01*
X96657Y88235D01*
X97010Y89086D01*
X97130Y90000D01*
X97010Y90914D01*
X96657Y91765D01*
X96096Y92496D01*
X95365Y93057D01*
X94514Y93410D01*
X93600Y93530D01*
X92686Y93410D01*
X92451Y93312D01*
X90881Y94881D01*
X90385Y95213D01*
X89800Y95329D01*
X87154D01*
X86600Y96100D01*
Y96271D01*
X87154Y97271D01*
X101767D01*
X109771Y89267D01*
D02*
G37*
G36*
X191429Y1071D02*
X1071D01*
Y118929D01*
X58960D01*
X59343Y118006D01*
X58919Y117581D01*
X58587Y117085D01*
X58471Y116500D01*
Y109500D01*
X58587Y108915D01*
X58919Y108419D01*
X60313Y107024D01*
X59931Y106100D01*
X52400D01*
Y105329D01*
X50996D01*
Y108551D01*
X48948D01*
X48617Y109046D01*
X44581Y113081D01*
X44085Y113413D01*
X43500Y113529D01*
X18200D01*
X17615Y113413D01*
X17119Y113081D01*
X4419Y100381D01*
X4087Y99885D01*
X3971Y99300D01*
Y12000D01*
X4087Y11415D01*
X4419Y10919D01*
X10919Y4419D01*
X11415Y4087D01*
X12000Y3971D01*
X90500D01*
X91085Y4087D01*
X91581Y4419D01*
X106747Y19584D01*
X107671Y19201D01*
Y10700D01*
X107787Y10115D01*
X108119Y9619D01*
X113419Y4319D01*
X113915Y3987D01*
X114500Y3871D01*
X152000D01*
X152585Y3987D01*
X153081Y4319D01*
X158581Y9819D01*
X158913Y10315D01*
X158932Y10412D01*
X159029Y10900D01*
Y14807D01*
X159681D01*
Y21925D01*
X155319D01*
Y14807D01*
X155971D01*
Y11534D01*
X151366Y6929D01*
X144996D01*
Y12475D01*
X145114Y12490D01*
X145965Y12843D01*
X146696Y13404D01*
X147257Y14135D01*
X147610Y14986D01*
X147730Y15900D01*
X147610Y16814D01*
X147257Y17665D01*
X146696Y18396D01*
X145965Y18957D01*
X145114Y19310D01*
X144200Y19430D01*
X143286Y19310D01*
X142435Y18957D01*
X141704Y18396D01*
X141143Y17665D01*
X140790Y16814D01*
X140670Y15900D01*
X140790Y14986D01*
X140888Y14751D01*
X140454Y14317D01*
X140276Y14051D01*
X138075D01*
Y6929D01*
X136925D01*
Y9500D01*
X133465D01*
Y10000D01*
X132965D01*
Y14051D01*
X130004D01*
Y14051D01*
X129996D01*
Y14051D01*
X127035D01*
Y10000D01*
X126535D01*
Y9500D01*
X123075D01*
Y6929D01*
X121925D01*
Y14051D01*
X121925Y14051D01*
X121925D01*
X122404Y14841D01*
X125116Y17553D01*
X125775Y17639D01*
X126497Y17939D01*
X127117Y18414D01*
X128194Y18175D01*
X128503Y17939D01*
X129225Y17639D01*
X129500Y17603D01*
Y22500D01*
Y27397D01*
X129225Y27361D01*
X128503Y27062D01*
X128194Y26825D01*
X127365Y26641D01*
X126529Y27302D01*
Y33500D01*
X126413Y34085D01*
X126081Y34581D01*
X125085Y35578D01*
Y40941D01*
X126720D01*
Y40941D01*
X127279D01*
Y40941D01*
X133610D01*
Y42971D01*
X135504D01*
Y40449D01*
X142425D01*
Y48551D01*
X135504D01*
Y46029D01*
X133610D01*
Y48059D01*
X131974D01*
Y54100D01*
X131858Y54685D01*
X131526Y55181D01*
X129029Y57678D01*
Y62651D01*
X129072Y62679D01*
X129455Y63253D01*
X130000Y63334D01*
X130545Y63253D01*
X130928Y62679D01*
X130971Y62651D01*
Y60500D01*
X131087Y59915D01*
X131419Y59419D01*
X133688Y57149D01*
X133590Y56914D01*
X133470Y56000D01*
X133590Y55086D01*
X133943Y54235D01*
X134504Y53504D01*
X135235Y52943D01*
X136086Y52590D01*
X137000Y52470D01*
X137914Y52590D01*
X138765Y52943D01*
X139496Y53504D01*
X140057Y54235D01*
X140410Y55086D01*
X140530Y56000D01*
X140410Y56914D01*
X140057Y57765D01*
X139496Y58496D01*
X138765Y59057D01*
X137914Y59410D01*
X137000Y59530D01*
X136086Y59410D01*
X135851Y59312D01*
X134029Y61133D01*
Y62651D01*
X134072Y62679D01*
X134455Y63253D01*
X135000Y63334D01*
X135545Y63253D01*
X135927Y62679D01*
X136649Y62197D01*
X137500Y62028D01*
X138351Y62197D01*
X139073Y62679D01*
X139455Y63253D01*
X140000Y63334D01*
X140545Y63253D01*
X140928Y62679D01*
X141649Y62197D01*
X142000Y62128D01*
Y66811D01*
X142500D01*
Y67311D01*
X144724D01*
Y68999D01*
X145693Y69444D01*
X146144Y68993D01*
X146640Y68662D01*
X147225Y68545D01*
X148449D01*
Y66465D01*
X156551D01*
Y68545D01*
X157051D01*
X157637Y68662D01*
X158133Y68993D01*
X158464Y69489D01*
X158581Y70075D01*
X159571Y70050D01*
Y54233D01*
X156474Y51137D01*
X156142Y50640D01*
X156026Y50055D01*
Y48059D01*
X154390D01*
Y40941D01*
X160279D01*
X160721Y40941D01*
X161000D01*
X161279D01*
X161721Y40941D01*
X162915D01*
Y37738D01*
X160159Y34981D01*
X159827Y34485D01*
X159711Y33900D01*
Y30193D01*
X159059D01*
Y23075D01*
X163421D01*
Y30193D01*
X162770D01*
Y33266D01*
X165526Y36023D01*
X165858Y36519D01*
X165974Y37105D01*
Y40941D01*
X167610D01*
Y48059D01*
X161721D01*
X161279Y48059D01*
X161000D01*
X160721D01*
X160279Y48059D01*
X159085D01*
Y49422D01*
X162181Y52519D01*
X162513Y53015D01*
X162532Y53112D01*
X162629Y53600D01*
Y82000D01*
X162513Y82585D01*
X162181Y83081D01*
X155929Y89333D01*
Y94793D01*
X156929Y94992D01*
X157494Y93628D01*
X158645Y91750D01*
X160075Y90075D01*
X161750Y88645D01*
X163628Y87494D01*
X165663Y86651D01*
X167804Y86137D01*
X170000Y85965D01*
X172196Y86137D01*
X174337Y86651D01*
X176372Y87494D01*
X178250Y88645D01*
X179924Y90075D01*
X181355Y91750D01*
X182506Y93628D01*
X183349Y95663D01*
X183863Y97804D01*
X184035Y100000D01*
X183863Y102196D01*
X183349Y104337D01*
X182506Y106372D01*
X181355Y108250D01*
X179924Y109924D01*
X178250Y111355D01*
X176372Y112506D01*
X174337Y113348D01*
X172196Y113863D01*
X170000Y114035D01*
X167804Y113863D01*
X165663Y113348D01*
X163628Y112506D01*
X161750Y111355D01*
X160075Y109924D01*
X158645Y108250D01*
X157494Y106372D01*
X156929Y105008D01*
X155929Y105207D01*
Y115200D01*
X155813Y115785D01*
X155481Y116281D01*
X153833Y117929D01*
X154248Y118929D01*
X191429D01*
Y1071D01*
D02*
G37*
G36*
X152871Y114567D02*
Y88700D01*
X152987Y88115D01*
X153319Y87619D01*
X159571Y81366D01*
Y78025D01*
X158581Y78000D01*
X158464Y78585D01*
X158133Y79081D01*
X147029Y90185D01*
Y101800D01*
X146913Y102385D01*
X146581Y102881D01*
X144029Y105433D01*
Y108869D01*
X145029Y109354D01*
X145483Y109006D01*
X146456Y108603D01*
X147000Y108531D01*
Y112500D01*
X147500D01*
Y113000D01*
X151469D01*
X151397Y113544D01*
X151166Y114102D01*
X151575Y115062D01*
X151727Y115204D01*
X152163Y115274D01*
X152871Y114567D01*
D02*
G37*
G36*
X142467Y117929D02*
X141419Y116881D01*
X141087Y116385D01*
X141019Y116046D01*
X140347Y115704D01*
X139971Y115646D01*
X139517Y115994D01*
X138544Y116397D01*
X137500Y116534D01*
X136456Y116397D01*
X135483Y115994D01*
X134647Y115353D01*
X134006Y114517D01*
X133603Y113544D01*
X133466Y112500D01*
X133603Y111456D01*
X134006Y110483D01*
X134647Y109647D01*
X135483Y109006D01*
X135971Y108804D01*
Y106507D01*
X134971Y106092D01*
X130814Y110249D01*
X130994Y110483D01*
X131397Y111456D01*
X131535Y112500D01*
X131397Y113544D01*
X130994Y114517D01*
X130353Y115353D01*
X129517Y115994D01*
X128544Y116397D01*
X127500Y116534D01*
X126456Y116397D01*
X125483Y115994D01*
X124647Y115353D01*
X124006Y114517D01*
X123603Y113544D01*
X123466Y112500D01*
X123603Y111456D01*
X124006Y110483D01*
X124647Y109647D01*
X125483Y109006D01*
X126456Y108603D01*
X127500Y108466D01*
X128182Y108555D01*
X135971Y100767D01*
Y97349D01*
X135927Y97320D01*
X135545Y96747D01*
X135000Y96666D01*
X134455Y96747D01*
X134072Y97320D01*
X134029Y97349D01*
Y97500D01*
X133913Y98085D01*
X133581Y98581D01*
X121195Y110968D01*
X121397Y111456D01*
X121535Y112500D01*
X121397Y113544D01*
X120994Y114517D01*
X120353Y115353D01*
X119517Y115994D01*
X118544Y116397D01*
X117500Y116534D01*
X116456Y116397D01*
X115483Y115994D01*
X114647Y115353D01*
X114006Y114517D01*
X113603Y113544D01*
X113465Y112500D01*
X113603Y111456D01*
X114006Y110483D01*
X114647Y109647D01*
X115483Y109006D01*
X116456Y108603D01*
X117500Y108466D01*
X118544Y108603D01*
X119032Y108805D01*
X130139Y97698D01*
X130120Y97553D01*
X129668Y97345D01*
X129276Y97329D01*
X128958Y97397D01*
X128351Y97803D01*
X127500Y97972D01*
X126649Y97803D01*
X125927Y97320D01*
X125445Y96599D01*
X125276Y95748D01*
Y93693D01*
X124352Y93311D01*
X109674Y107989D01*
X109632Y108263D01*
X109831Y109247D01*
X110353Y109647D01*
X110994Y110483D01*
X111397Y111456D01*
X111535Y112500D01*
X111397Y113544D01*
X110994Y114517D01*
X110353Y115353D01*
X109517Y115994D01*
X108544Y116397D01*
X107500Y116534D01*
X106456Y116397D01*
X105483Y115994D01*
X104647Y115353D01*
X104006Y114517D01*
X103603Y113544D01*
X103465Y112500D01*
X103603Y111456D01*
X104006Y110483D01*
X104647Y109647D01*
X105483Y109006D01*
X105971Y108804D01*
Y108000D01*
X106087Y107415D01*
X106419Y106919D01*
X124519Y88819D01*
X125015Y88487D01*
X125600Y88371D01*
X125971D01*
Y85000D01*
Y82134D01*
X122474Y78637D01*
X122142Y78140D01*
X122026Y77555D01*
Y48059D01*
X120390D01*
Y40941D01*
X122026D01*
Y34945D01*
X122142Y34359D01*
X122474Y33863D01*
X123471Y32866D01*
Y27037D01*
X122883Y26586D01*
X122407Y25966D01*
X122108Y25243D01*
X122006Y24468D01*
Y20531D01*
X122108Y19757D01*
X122367Y19130D01*
X117383Y14146D01*
X117320Y14051D01*
X115004D01*
Y8365D01*
X114080Y7983D01*
X110729Y11333D01*
Y21045D01*
X110965Y21143D01*
X111696Y21704D01*
X112257Y22435D01*
X112610Y23286D01*
X112730Y24200D01*
X112610Y25114D01*
X112257Y25965D01*
X111696Y26696D01*
X110965Y27257D01*
X110114Y27610D01*
X109200Y27730D01*
X108286Y27610D01*
X107829Y27421D01*
X106829Y27958D01*
Y64018D01*
X112381Y69571D01*
X112713Y70067D01*
X112829Y70652D01*
Y89900D01*
X112713Y90485D01*
X112381Y90981D01*
X103481Y99881D01*
X102985Y100213D01*
X102400Y100329D01*
X87154D01*
X86600Y101100D01*
Y101500D01*
X86600D01*
Y106100D01*
X83227D01*
X83042Y106377D01*
X77496Y111923D01*
Y116551D01*
X71519D01*
X71413Y117085D01*
X71081Y117581D01*
X70657Y118006D01*
X71040Y118929D01*
X142052D01*
X142467Y117929D01*
D02*
G37*
%LPC*%
G36*
X146535Y44000D02*
X143575D01*
Y40449D01*
X146535D01*
Y44000D01*
D02*
G37*
G36*
X126035Y14051D02*
X123075D01*
Y10500D01*
X126035D01*
Y14051D01*
D02*
G37*
G36*
X150496Y44000D02*
X147535D01*
Y40449D01*
X150496D01*
Y44000D01*
D02*
G37*
G36*
X146535Y48551D02*
X143575D01*
Y45000D01*
X146535D01*
Y48551D01*
D02*
G37*
G36*
X39500Y44725D02*
X38760Y44628D01*
X37604Y44149D01*
X36612Y43388D01*
X35851Y42395D01*
X35372Y41240D01*
X35275Y40500D01*
X39500D01*
Y44725D01*
D02*
G37*
G36*
X150496Y48551D02*
X147535D01*
Y45000D01*
X150496D01*
Y48551D01*
D02*
G37*
G36*
X155941Y26134D02*
X154260D01*
Y23075D01*
X155941D01*
Y26134D01*
D02*
G37*
G36*
X153260D02*
X151579D01*
Y23075D01*
X153260D01*
Y26134D01*
D02*
G37*
G36*
X44049Y30000D02*
X40500D01*
Y25451D01*
X41500D01*
X42476Y25645D01*
X43302Y26198D01*
X43855Y27024D01*
X44049Y28000D01*
Y30000D01*
D02*
G37*
G36*
X39500D02*
X35951D01*
Y28000D01*
X36145Y27024D01*
X36698Y26198D01*
X37525Y25645D01*
X38500Y25451D01*
X39500D01*
Y30000D01*
D02*
G37*
G36*
X153260Y30193D02*
X151579D01*
Y27134D01*
X153260D01*
Y30193D01*
D02*
G37*
G36*
X155941D02*
X154260D01*
Y27134D01*
X155941D01*
Y30193D01*
D02*
G37*
G36*
X136925Y14051D02*
X133965D01*
Y10500D01*
X136925D01*
Y14051D01*
D02*
G37*
G36*
X135000Y27463D02*
X134225Y27361D01*
X133503Y27062D01*
X133194Y26825D01*
X132117Y26586D01*
X131497Y27062D01*
X130775Y27361D01*
X130500Y27397D01*
Y22500D01*
Y17603D01*
X130775Y17639D01*
X131497Y17939D01*
X132117Y18414D01*
X133194Y18175D01*
X133503Y17939D01*
X134225Y17639D01*
X135000Y17537D01*
X135775Y17639D01*
X136497Y17939D01*
X137117Y18414D01*
X137593Y19034D01*
X137892Y19757D01*
X137994Y20531D01*
Y24468D01*
X137892Y25243D01*
X137593Y25966D01*
X137117Y26586D01*
X136497Y27062D01*
X135775Y27361D01*
X135000Y27463D01*
D02*
G37*
G36*
X99500Y79764D02*
X99086Y79710D01*
X98235Y79357D01*
X97504Y78796D01*
X96943Y78065D01*
X96590Y77214D01*
X96536Y76800D01*
X99500D01*
Y79764D01*
D02*
G37*
G36*
X38965Y104000D02*
X36004D01*
Y100449D01*
X38965D01*
Y104000D01*
D02*
G37*
G36*
X56900Y73300D02*
X52400D01*
Y71500D01*
X56900D01*
Y73300D01*
D02*
G37*
G36*
X62400D02*
X57900D01*
Y71500D01*
X62400D01*
Y73300D01*
D02*
G37*
G36*
X42925Y104000D02*
X39965D01*
Y100449D01*
X42925D01*
Y104000D01*
D02*
G37*
G36*
X101500Y116500D02*
X93500D01*
Y108500D01*
X101500D01*
Y116500D01*
D02*
G37*
G36*
X151469Y112000D02*
X148000D01*
Y108531D01*
X148544Y108603D01*
X149517Y109006D01*
X150353Y109647D01*
X150994Y110483D01*
X151397Y111456D01*
X151469Y112000D01*
D02*
G37*
G36*
X38965Y108551D02*
X36004D01*
Y105000D01*
X38965D01*
Y108551D01*
D02*
G37*
G36*
X42925D02*
X39965D01*
Y105000D01*
X42925D01*
Y108551D01*
D02*
G37*
G36*
X144724Y66311D02*
X143000D01*
Y62128D01*
X143351Y62197D01*
X144072Y62679D01*
X144554Y63401D01*
X144724Y64252D01*
Y66311D01*
D02*
G37*
G36*
X152000Y65465D02*
X148449D01*
Y62504D01*
X152000D01*
Y65465D01*
D02*
G37*
G36*
X38465Y63000D02*
X35504D01*
Y59449D01*
X38465D01*
Y63000D01*
D02*
G37*
G36*
X42425D02*
X39465D01*
Y59449D01*
X42425D01*
Y63000D01*
D02*
G37*
G36*
X156551Y65465D02*
X153000D01*
Y62504D01*
X156551D01*
Y65465D01*
D02*
G37*
G36*
X15000Y76685D02*
X13917Y76543D01*
X12907Y76125D01*
X12041Y75459D01*
X11375Y74593D01*
X10957Y73583D01*
X10815Y72500D01*
X10957Y71417D01*
X11375Y70407D01*
X12041Y69541D01*
X12907Y68875D01*
X13917Y68457D01*
X15000Y68315D01*
X16083Y68457D01*
X17093Y68875D01*
X17959Y69541D01*
X18625Y70407D01*
X19043Y71417D01*
X19185Y72500D01*
X19043Y73583D01*
X18625Y74593D01*
X17959Y75459D01*
X17093Y76125D01*
X16083Y76543D01*
X15000Y76685D01*
D02*
G37*
G36*
X93559Y74110D02*
X90500D01*
Y71445D01*
X93559D01*
Y74110D01*
D02*
G37*
G36*
X38465Y67551D02*
X35504D01*
Y64000D01*
X38465D01*
Y67551D01*
D02*
G37*
G36*
X42425D02*
X39465D01*
Y64000D01*
X42425D01*
Y67551D01*
D02*
G37*
%LPD*%
D10*
X100000Y30500D02*
D03*
X90000D02*
D03*
X80000D02*
D03*
X70000D02*
D03*
X40000D02*
D03*
X50000D02*
D03*
X60000D02*
D03*
D11*
X161240Y26634D02*
D03*
X153760D02*
D03*
X157500Y18366D02*
D03*
D12*
X147035Y44500D02*
D03*
X138965D02*
D03*
X118465Y10000D02*
D03*
X126535D02*
D03*
X74035Y112500D02*
D03*
X65965D02*
D03*
X141535Y10000D02*
D03*
X133465D02*
D03*
X38965Y63500D02*
D03*
X47035D02*
D03*
X39465Y104500D02*
D03*
X47535D02*
D03*
D13*
X123555Y44500D02*
D03*
X130445D02*
D03*
X157555D02*
D03*
X164445D02*
D03*
X39555Y73500D02*
D03*
X46445D02*
D03*
X40555Y94500D02*
D03*
X47445D02*
D03*
D14*
X100000Y70945D02*
D03*
Y64055D02*
D03*
Y55945D02*
D03*
Y49055D02*
D03*
X90000Y64055D02*
D03*
Y70945D02*
D03*
Y49055D02*
D03*
Y55945D02*
D03*
X27500Y49055D02*
D03*
Y55945D02*
D03*
D15*
X57400Y103800D02*
D03*
X81600D02*
D03*
X57400Y98800D02*
D03*
Y93800D02*
D03*
X81600Y98800D02*
D03*
Y93800D02*
D03*
X57400Y88800D02*
D03*
X81600D02*
D03*
X57400Y83800D02*
D03*
Y78800D02*
D03*
X81600Y83800D02*
D03*
Y78800D02*
D03*
X57400Y73800D02*
D03*
X81600D02*
D03*
D16*
X142500Y93189D02*
D03*
X137500D02*
D03*
X132500D02*
D03*
X127500D02*
D03*
X142500Y66811D02*
D03*
X137500D02*
D03*
X132500D02*
D03*
X127500D02*
D03*
D17*
X152500Y74035D02*
D03*
Y65965D02*
D03*
D18*
X125000Y19600D02*
Y22500D01*
X118465Y13065D02*
X125000Y19600D01*
X142500Y104800D02*
Y115800D01*
X144000Y117300D02*
X152300D01*
X142500Y104800D02*
X145500Y101800D01*
X142500Y115800D02*
X144000Y117300D01*
X127500Y111400D02*
X137500Y101400D01*
X127500Y111400D02*
Y112500D01*
X137500Y71000D02*
X138600Y72100D01*
X137500Y66811D02*
Y71000D01*
X76100Y85000D02*
Y92500D01*
X77400Y93800D01*
X81600D01*
X88800Y78800D02*
X90000Y80000D01*
X81600Y78800D02*
X88800D01*
X90000Y80000D02*
Y87500D01*
X88700Y88800D02*
X90000Y87500D01*
X81600Y88800D02*
X88700D01*
X154400Y88700D02*
Y115200D01*
X152300Y117300D02*
X154400Y115200D01*
X130000Y10000D02*
X133465D01*
X126535D02*
X130000D01*
Y18000D02*
Y22500D01*
Y10000D02*
Y18000D01*
X47035Y63500D02*
X47500Y63965D01*
Y70000D01*
X46445Y71055D02*
X47500Y70000D01*
X46445Y71055D02*
Y73500D01*
X70000Y30700D02*
Y40000D01*
Y30500D02*
Y30700D01*
Y30200D02*
Y30500D01*
X153977Y63000D02*
X159051Y68075D01*
X142500Y63000D02*
X153977D01*
X142500Y57835D02*
Y63000D01*
X144274Y24000D02*
X153760D01*
X63800Y73800D02*
X65245D01*
X57400D02*
X63800D01*
X127500Y85000D02*
Y93189D01*
Y89900D02*
Y93189D01*
Y85000D02*
Y89900D01*
Y81500D02*
Y85000D01*
X125600Y89900D02*
X127500D01*
X74000Y81400D02*
Y102800D01*
X81600Y103800D01*
X157555Y44500D02*
Y50055D01*
X161100Y53600D01*
Y82000D01*
X154400Y88700D02*
X161100Y82000D01*
X145500Y89551D02*
Y101800D01*
Y89551D02*
X157051Y78000D01*
Y70075D02*
Y78000D01*
X147225Y70075D02*
X157051D01*
X145200Y72100D02*
X147225Y70075D01*
X138600Y72100D02*
X145200D01*
X21555Y55945D02*
X27500D01*
X15000Y62500D02*
X21555Y55945D01*
X130000Y18000D02*
X131000Y17000D01*
X137274D01*
X144274Y24000D01*
X153760D02*
Y26634D01*
X142500Y57835D02*
X147035Y53300D01*
Y44500D02*
Y53300D01*
X100000Y70945D02*
Y76300D01*
X65245Y73800D02*
X68100Y70945D01*
X90000D01*
X83955Y55945D02*
X90000D01*
X83900Y56000D02*
X83955Y55945D01*
X132500Y60500D02*
X137000Y56000D01*
X132500Y60500D02*
Y66811D01*
X118465Y10000D02*
Y13065D01*
X123555Y34945D02*
Y44500D01*
Y34945D02*
X125000Y33500D01*
Y22500D02*
Y33500D01*
X5500Y12000D02*
Y99300D01*
Y12000D02*
X12000Y5500D01*
X90500D01*
X109200Y24200D01*
X46445Y73500D02*
Y77445D01*
X47800Y78800D01*
X57400D01*
X127500Y66811D02*
Y74500D01*
X131500Y78500D01*
X100000Y64055D02*
X100915D01*
X104059Y67200D01*
Y88459D01*
X81600Y98800D02*
X102400D01*
X111300Y89900D01*
Y70652D02*
Y89900D01*
X105300Y64652D02*
X111300Y70652D01*
X105300Y25500D02*
Y64652D01*
X104000Y24200D02*
X105300Y25500D01*
X76000Y24200D02*
X104000D01*
X70000Y30200D02*
X76000Y24200D01*
X137500Y93189D02*
Y101400D01*
X123555Y77555D02*
X127500Y81500D01*
X123555Y44500D02*
Y77555D01*
X132500Y93189D02*
Y97500D01*
X117500Y112500D02*
X132500Y97500D01*
X81600Y93800D02*
X89800D01*
X93600Y90000D01*
X32900Y50955D02*
Y90000D01*
X31000Y49055D02*
X32900Y50955D01*
X27500Y49055D02*
X31000D01*
X53000Y83800D02*
X57400D01*
X51900Y84900D02*
X53000Y83800D01*
X51900Y84900D02*
Y92700D01*
X53000Y93800D01*
X57400D01*
X141535Y13235D02*
X144200Y15900D01*
X141535Y10000D02*
Y13235D01*
X109200Y10700D02*
Y24200D01*
Y10700D02*
X114500Y5400D01*
X152000D01*
X157500Y10900D01*
Y18366D01*
X47035Y56000D02*
Y63500D01*
Y56000D02*
X51235Y51800D01*
X58200D01*
X70000Y40000D01*
X142500Y63000D02*
Y66811D01*
X159051Y68075D02*
Y79949D01*
X147500Y91500D02*
X159051Y79949D01*
X147500Y91500D02*
Y112500D01*
X57400Y88800D02*
X61700D01*
X62900Y90000D01*
Y106600D01*
X70000Y74600D02*
X70800Y73800D01*
X81600D01*
X107500Y108000D02*
X125600Y89900D01*
X107500Y108000D02*
Y112500D01*
X76100Y85000D02*
X77300Y83800D01*
X81600D01*
X57400Y98800D02*
Y103800D01*
X164445Y37105D02*
Y44500D01*
X161240Y33900D02*
X164445Y37105D01*
X161240Y26634D02*
Y33900D01*
X127500Y57045D02*
Y66811D01*
Y57045D02*
X130445Y54100D01*
Y44500D02*
Y54100D01*
Y44500D02*
X138965D01*
X137500Y105300D02*
Y112500D01*
Y105300D02*
X142500Y100300D01*
Y93189D02*
Y100300D01*
X100000Y55945D02*
Y64055D01*
X147035Y38924D02*
Y44500D01*
Y38924D02*
X153760Y32200D01*
Y26634D02*
Y32200D01*
X90000Y70945D02*
X100000D01*
X90000Y40000D02*
Y49055D01*
Y55945D02*
Y64055D01*
X100000Y40000D02*
Y49055D01*
X127500Y85000D02*
X130000Y82500D01*
X144035D01*
X152500Y74035D01*
X47445Y94500D02*
Y104409D01*
X47535Y104500D01*
X48235Y103800D02*
X57400D01*
X47535Y104500D02*
X48235Y103800D01*
X27000Y94500D02*
X40555D01*
X15000Y82500D02*
X27000Y94500D01*
X5500Y99300D02*
X18200Y112000D01*
X43500D01*
X47535Y107965D01*
Y104500D02*
Y107965D01*
X26000Y104500D02*
X39465D01*
X8500Y87000D02*
X26000Y104500D01*
X8500Y51500D02*
Y87000D01*
Y51500D02*
X19500Y40500D01*
X39500D01*
X40000Y40000D01*
X38965Y55500D02*
X40000Y54465D01*
Y40000D02*
Y54465D01*
X38965Y55500D02*
Y63500D01*
X70000Y74600D02*
Y116500D01*
X68000Y118500D02*
X70000Y116500D01*
X60000D02*
X62000Y118500D01*
X60000Y109500D02*
Y116500D01*
Y109500D02*
X62900Y106600D01*
X62000Y118500D02*
X68000D01*
X39555Y73500D02*
Y79055D01*
X42500Y82000D01*
D19*
X100000Y30500D02*
Y40000D01*
X90000Y30500D02*
Y40000D01*
X80000Y30500D02*
Y40000D01*
X70000Y30500D02*
Y40000D01*
X40000Y30500D02*
Y40000D01*
X50000Y30500D02*
Y40000D01*
X60000Y30500D02*
Y40000D01*
D20*
X81600Y103800D02*
Y104935D01*
X57400Y73800D02*
X63800D01*
X65965Y75965D01*
Y112500D01*
X74035D02*
X81600Y104935D01*
D21*
X100000Y40000D02*
D03*
X90000D02*
D03*
X80000D02*
D03*
X70000D02*
D03*
X40000D02*
D03*
X50000D02*
D03*
X60000D02*
D03*
D22*
X125000Y22500D02*
D03*
X135000D02*
D03*
D23*
X130000D02*
D03*
D24*
X15000Y62500D02*
D03*
D25*
Y72500D02*
D03*
Y82500D02*
D03*
D26*
X20000Y20000D02*
D03*
X170000Y100000D02*
D03*
D27*
X127500Y112500D02*
D03*
X107500D02*
D03*
X117500D02*
D03*
X137500D02*
D03*
X147500D02*
D03*
D28*
X97500D02*
D03*
D29*
X74000Y81400D02*
D03*
X100000Y76300D02*
D03*
X83900Y56000D02*
D03*
X137000D02*
D03*
X131500Y78500D02*
D03*
X104059Y88459D02*
D03*
X93600Y90000D02*
D03*
X32900D02*
D03*
X144200Y15900D02*
D03*
X109200Y24200D02*
D03*
X42500Y82000D02*
D03*
M02*
