G04 Layer_Color=20142*
%FSLAX25Y25*%
%MOIN*%
G70*
G01*
G75*
G04:AMPARAMS|DCode=38|XSize=68mil|YSize=88mil|CornerRadius=19mil|HoleSize=0mil|Usage=FLASHONLY|Rotation=0.000|XOffset=0mil|YOffset=0mil|HoleType=Round|Shape=RoundedRectangle|*
%AMROUNDEDRECTD38*
21,1,0.06800,0.05000,0,0,0.0*
21,1,0.03000,0.08800,0,0,0.0*
1,1,0.03800,0.01500,-0.02500*
1,1,0.03800,-0.01500,-0.02500*
1,1,0.03800,-0.01500,0.02500*
1,1,0.03800,0.01500,0.02500*
%
%ADD38ROUNDEDRECTD38*%
%ADD39R,0.03162X0.05918*%
%ADD40R,0.05721X0.06902*%
%ADD41R,0.05131X0.05918*%
%ADD42R,0.05918X0.05131*%
%ADD43R,0.08800X0.03400*%
%ADD44O,0.03162X0.08280*%
%ADD45R,0.06902X0.05721*%
%ADD46C,0.08300*%
%ADD47O,0.04737X0.08674*%
%ADD48O,0.04737X0.08674*%
%ADD49R,0.07099X0.07099*%
%ADD50C,0.07099*%
%ADD51C,0.26784*%
%ADD52C,0.06800*%
%ADD53R,0.06800X0.06800*%
%ADD54C,0.05800*%
D38*
X100000Y30500D02*
D03*
X90000D02*
D03*
X80000D02*
D03*
X70000D02*
D03*
X40000D02*
D03*
X50000D02*
D03*
X60000D02*
D03*
D39*
X161240Y26634D02*
D03*
X153760D02*
D03*
X157500Y18366D02*
D03*
D40*
X147035Y44500D02*
D03*
X138965D02*
D03*
X118465Y10000D02*
D03*
X126535D02*
D03*
X74035Y112500D02*
D03*
X65965D02*
D03*
X141535Y10000D02*
D03*
X133465D02*
D03*
X38965Y63500D02*
D03*
X47035D02*
D03*
X39465Y104500D02*
D03*
X47535D02*
D03*
D41*
X123555Y44500D02*
D03*
X130445D02*
D03*
X157555D02*
D03*
X164445D02*
D03*
X39555Y73500D02*
D03*
X46445D02*
D03*
X40555Y94500D02*
D03*
X47445D02*
D03*
D42*
X100000Y70945D02*
D03*
Y64055D02*
D03*
Y55945D02*
D03*
Y49055D02*
D03*
X90000Y64055D02*
D03*
Y70945D02*
D03*
Y49055D02*
D03*
Y55945D02*
D03*
X27500Y49055D02*
D03*
Y55945D02*
D03*
D43*
X57400Y103800D02*
D03*
X81600D02*
D03*
X57400Y98800D02*
D03*
Y93800D02*
D03*
X81600Y98800D02*
D03*
Y93800D02*
D03*
X57400Y88800D02*
D03*
X81600D02*
D03*
X57400Y83800D02*
D03*
Y78800D02*
D03*
X81600Y83800D02*
D03*
Y78800D02*
D03*
X57400Y73800D02*
D03*
X81600D02*
D03*
D44*
X142500Y93189D02*
D03*
X137500D02*
D03*
X132500D02*
D03*
X127500D02*
D03*
X142500Y66811D02*
D03*
X137500D02*
D03*
X132500D02*
D03*
X127500D02*
D03*
D45*
X152500Y74035D02*
D03*
Y65965D02*
D03*
D46*
X100000Y40000D02*
D03*
X90000D02*
D03*
X80000D02*
D03*
X70000D02*
D03*
X40000D02*
D03*
X50000D02*
D03*
X60000D02*
D03*
D47*
X125000Y22500D02*
D03*
X135000D02*
D03*
D48*
X130000D02*
D03*
D49*
X15000Y62500D02*
D03*
D50*
Y72500D02*
D03*
Y82500D02*
D03*
D51*
X20000Y20000D02*
D03*
X170000Y100000D02*
D03*
D52*
X127500Y112500D02*
D03*
X107500D02*
D03*
X117500D02*
D03*
X137500D02*
D03*
X147500D02*
D03*
D53*
X97500D02*
D03*
D54*
X74000Y81400D02*
D03*
X100000Y76300D02*
D03*
X83900Y56000D02*
D03*
X137000D02*
D03*
X131500Y78500D02*
D03*
X104059Y88459D02*
D03*
X93600Y90000D02*
D03*
X32900D02*
D03*
X144200Y15900D02*
D03*
X109200Y24200D02*
D03*
X42500Y82000D02*
D03*
M02*
