G04 Layer_Color=7318015*
%FSLAX25Y25*%
%MOIN*%
G70*
G01*
G75*
G04:AMPARAMS|DCode=10|XSize=60mil|YSize=80mil|CornerRadius=15mil|HoleSize=0mil|Usage=FLASHONLY|Rotation=0.000|XOffset=0mil|YOffset=0mil|HoleType=Round|Shape=RoundedRectangle|*
%AMROUNDEDRECTD10*
21,1,0.06000,0.05000,0,0,0.0*
21,1,0.03000,0.08000,0,0,0.0*
1,1,0.03000,0.01500,-0.02500*
1,1,0.03000,-0.01500,-0.02500*
1,1,0.03000,-0.01500,0.02500*
1,1,0.03000,0.01500,0.02500*
%
%ADD10ROUNDEDRECTD10*%
%ADD11R,0.02362X0.05118*%
%ADD12R,0.04921X0.06102*%
%ADD13R,0.04331X0.05118*%
%ADD14R,0.05118X0.04331*%
%ADD15R,0.08000X0.02600*%
%ADD16O,0.02362X0.07480*%
%ADD17R,0.06102X0.04921*%
D10*
X100000Y30500D02*
D03*
X90000D02*
D03*
X80000D02*
D03*
X70000D02*
D03*
X40000D02*
D03*
X50000D02*
D03*
X60000D02*
D03*
D11*
X161240Y26634D02*
D03*
X153760D02*
D03*
X157500Y18366D02*
D03*
D12*
X147035Y44500D02*
D03*
X138965D02*
D03*
X118465Y10000D02*
D03*
X126535D02*
D03*
X74035Y112500D02*
D03*
X65965D02*
D03*
X141535Y10000D02*
D03*
X133465D02*
D03*
X38965Y63500D02*
D03*
X47035D02*
D03*
X39465Y104500D02*
D03*
X47535D02*
D03*
D13*
X123555Y44500D02*
D03*
X130445D02*
D03*
X157555D02*
D03*
X164445D02*
D03*
X39555Y73500D02*
D03*
X46445D02*
D03*
X40555Y94500D02*
D03*
X47445D02*
D03*
D14*
X100000Y70945D02*
D03*
Y64055D02*
D03*
Y55945D02*
D03*
Y49055D02*
D03*
X90000Y64055D02*
D03*
Y70945D02*
D03*
Y49055D02*
D03*
Y55945D02*
D03*
X27500Y49055D02*
D03*
Y55945D02*
D03*
D15*
X57400Y103800D02*
D03*
X81600D02*
D03*
X57400Y98800D02*
D03*
Y93800D02*
D03*
X81600Y98800D02*
D03*
Y93800D02*
D03*
X57400Y88800D02*
D03*
X81600D02*
D03*
X57400Y83800D02*
D03*
Y78800D02*
D03*
X81600Y83800D02*
D03*
Y78800D02*
D03*
X57400Y73800D02*
D03*
X81600D02*
D03*
D16*
X142500Y93189D02*
D03*
X137500D02*
D03*
X132500D02*
D03*
X127500D02*
D03*
X142500Y66811D02*
D03*
X137500D02*
D03*
X132500D02*
D03*
X127500D02*
D03*
D17*
X152500Y74035D02*
D03*
Y65965D02*
D03*
M02*
