G04 Layer_Color=8150272*
%FSLAX25Y25*%
%MOIN*%
G70*
G01*
G75*
%ADD18C,0.01000*%
%ADD31R,0.02000X0.05000*%
%ADD32R,0.02000X0.03500*%
%ADD46C,0.08300*%
%ADD47O,0.04737X0.08674*%
%ADD48O,0.04737X0.08674*%
%ADD49R,0.07099X0.07099*%
%ADD50C,0.07099*%
%ADD51C,0.26784*%
%ADD52C,0.06800*%
%ADD53R,0.06800X0.06800*%
%ADD54C,0.05800*%
G04:AMPARAMS|DCode=55|XSize=28mil|YSize=28mil|CornerRadius=9mil|HoleSize=0mil|Usage=FLASHONLY|Rotation=180.000|XOffset=0mil|YOffset=0mil|HoleType=Round|Shape=RoundedRectangle|*
%AMROUNDEDRECTD55*
21,1,0.02800,0.01000,0,0,180.0*
21,1,0.01000,0.02800,0,0,180.0*
1,1,0.01800,-0.00500,0.00500*
1,1,0.01800,0.00500,0.00500*
1,1,0.01800,0.00500,-0.00500*
1,1,0.01800,-0.00500,-0.00500*
%
%ADD55ROUNDEDRECTD55*%
D18*
X131200Y29800D02*
G03*
X131200Y35631I0J2915D01*
G01*
X128800Y35700D02*
G03*
X128800Y29869I0J-2915D01*
G01*
X131200Y29800D02*
Y35631D01*
X128800Y29869D02*
Y35700D01*
D31*
X132200Y32800D02*
D03*
X127800Y32700D02*
D03*
D32*
X132700Y32550D02*
D03*
X127300Y32950D02*
D03*
D46*
X100000Y40000D02*
D03*
X90000D02*
D03*
X80000D02*
D03*
X70000D02*
D03*
X40000D02*
D03*
X50000D02*
D03*
X60000D02*
D03*
D47*
X125000Y22500D02*
D03*
X135000D02*
D03*
D48*
X130000D02*
D03*
D49*
X15000Y62500D02*
D03*
D50*
Y72500D02*
D03*
Y82500D02*
D03*
D51*
X20000Y20000D02*
D03*
X170000Y100000D02*
D03*
D52*
X127500Y112500D02*
D03*
X107500D02*
D03*
X117500D02*
D03*
X137500D02*
D03*
X147500D02*
D03*
D53*
X97500D02*
D03*
D54*
X74000Y81400D02*
D03*
X100000Y76300D02*
D03*
X83900Y56000D02*
D03*
X137000D02*
D03*
X131500Y78500D02*
D03*
X104059Y88459D02*
D03*
X93600Y90000D02*
D03*
X32900D02*
D03*
X144200Y15900D02*
D03*
X109200Y24200D02*
D03*
X42500Y82000D02*
D03*
D55*
X125500Y32500D02*
D03*
X134500D02*
D03*
M02*
